<?xml version="1.0" encoding="utf-8" ?>
<svg xmlns="http://www.w3.org/2000/svg" xmlns:xlink="http://www.w3.org/1999/xlink" width="1000" height="400">
	<path fill="#838383" d="M230.837 97.3732C236.129 100.674 240.672 105.123 242.912 111.081L237.447 114.027C236.717 111.124 236.099 108.177 234.954 105.401C233.815 102.639 232.151 100.065 230.837 97.3732Z"/>
	<path fill="#838383" d="M240.733 274.413L247.726 279.531L248.387 280.568C246.624 287.926 241.053 297.378 234.408 301.405C231.476 303.182 227.544 303.986 224.159 303.206C220.919 302.46 216.752 299.65 214.425 297.307C217.847 297.674 221.085 297.745 224.318 296.408C232.944 292.838 237.362 282.454 240.733 274.413Z"/>
	<path fill="#838383" d="M919.442 127.45C923.382 128.199 927.435 133.168 929.606 136.374C933.416 142.003 935.198 149.863 933.866 156.555C932.729 162.269 929.827 168.023 924.837 171.302C920 174.481 914.336 175.155 908.732 173.904C903.611 172.761 898.824 170.037 894.851 166.676C897.458 166.669 900.005 167.941 902.588 168.33C907.741 169.106 913.014 168.002 917.249 164.928C922.154 161.368 925.002 155.571 925.887 149.677C927.131 141.393 924.332 134.027 919.442 127.45Z"/>
	<path fill="#838383" d="M649.879 263.711C651.615 264.26 652.671 264.908 653.995 266.155L654.196 266.706C658.292 268.187 662.239 271.898 664.099 275.846L664.707 277.234C666.92 282.37 665.299 289.878 663.301 294.845C660.294 302.318 655.442 307.523 648.024 310.654C637.804 314.968 623.744 313.535 613.759 309.384C610.043 307.839 606.791 305.677 603.565 303.301C602.624 301.763 599.63 300.149 598.071 299.274L598.586 299.199L598.835 299.178C600.517 299.017 602.291 299.943 603.86 300.481C606.294 301.317 608.734 301.991 611.282 302.377C621.524 303.928 632.705 303.545 641.324 297.095C647.357 292.58 651.322 284.55 652.33 277.176C652.995 272.308 652.98 267.799 649.879 263.711Z"/>
	<path fill="#EC5E31" d="M649.879 263.711C651.615 264.26 652.671 264.908 653.995 266.155L654.196 266.706C657.185 270.677 658.107 275.772 657.43 280.625C656.351 288.359 652.546 296.383 646.24 301.156C638.228 307.222 627.303 307.957 617.706 306.559C612.996 305.872 608.148 303.551 603.565 303.301C602.624 301.763 599.63 300.149 598.071 299.274L598.586 299.199L598.835 299.178C600.517 299.017 602.291 299.943 603.86 300.481C606.294 301.317 608.734 301.991 611.282 302.377C621.524 303.928 632.705 303.545 641.324 297.095C647.357 292.58 651.322 284.55 652.33 277.176C652.995 272.308 652.98 267.799 649.879 263.711Z"/>
	<path fill="#838383" d="M925.607 210.574C927.755 211.306 929.38 212.871 931.026 214.377C936.025 218.951 940.436 224.27 943.461 230.359C948.786 241.079 948.325 254.348 944.54 265.472C938.988 281.789 928.145 293.469 912.773 300.979C899.066 307.677 883.872 310.276 869.168 305.238C863.311 303.231 859.05 300.337 853.905 297.073C856.899 297.068 860.365 299.025 863.257 299.864C867.799 301.181 872.596 301.885 877.32 301.92C893.322 302.038 911.431 293.709 922.713 282.522C932.701 272.617 939.384 256.414 939.371 242.302C939.359 230.377 933.97 218.974 925.607 210.574Z"/>
	<path fill="#838383" d="M292.442 122.776C303.223 129.4 309.631 140.844 312.52 152.869C314.617 161.594 315.126 170.952 315.344 179.908C315.428 183.32 315.106 186.877 315.53 190.258L314.634 201.08C313.543 221.717 311.561 242.292 304.986 262.005C302.085 270.705 297.953 280.084 290.988 286.311C285.553 291.168 279.333 293.503 272.04 293.04C266.498 292.688 258.496 289.002 254.815 284.958L261.083 286.521C267.299 287.829 273.594 286.873 278.961 283.357C293.054 274.127 298.4 253.666 301.672 238.067C304.532 224.436 305.717 210.603 306.541 196.721C307.645 178.135 308.63 157.157 302.208 139.438C299.876 133.004 296.107 128.395 292.442 122.776Z"/>
	<path fill="#838383" d="M517.407 306.908C520.631 307.147 523.652 307.376 526.724 306.109C533.062 303.495 537.883 296.998 540.419 290.853C542.262 286.386 543.545 281.56 544.899 276.916C548.431 264.79 551.01 252.378 552.037 239.778C552.503 234.057 552.386 228.434 552.46 222.711C552.522 217.943 552.792 213.383 552.518 208.596C552.056 200.542 550.038 192.572 549.895 184.564C549.607 168.513 551.761 152.2 547.765 136.43C546.376 130.95 544.145 125.785 541.044 121.055C539.573 118.812 537.601 116.456 536.621 113.963L536.515 113.682C537.708 114.328 538.793 114.633 539.409 115.878C546.888 118.312 553.774 129.652 557.258 136.482C566.72 155.035 562.205 177.577 563.093 197.558C563.317 202.601 564.699 207.685 565.133 212.763C565.708 219.482 565.571 225.766 565.537 232.448C565.501 239.525 565.499 246.546 564.789 253.602C563.309 268.323 559.575 282.825 554.98 296.856C552.487 304.47 548.083 311.947 540.71 315.726C537.857 317.188 534.16 317.578 531.108 316.521C528.117 315.484 526.064 313.288 523.717 311.28C523.56 311.064 523.44 310.954 523.202 310.829C521.052 309.699 519.301 308.423 517.407 306.908Z"/>
	<path fill="#EC5E31" d="M517.407 306.908C520.631 307.147 523.652 307.376 526.724 306.109C533.062 303.495 537.883 296.998 540.419 290.853C542.262 286.386 543.545 281.56 544.899 276.916C548.431 264.79 551.01 252.378 552.037 239.778C552.503 234.057 552.386 228.434 552.46 222.711C552.522 217.943 552.792 213.383 552.518 208.596C552.056 200.542 550.038 192.572 549.895 184.564C549.607 168.513 551.761 152.2 547.765 136.43C546.376 130.95 544.145 125.785 541.044 121.055C539.573 118.812 537.601 116.456 536.621 113.963L536.515 113.682C537.708 114.328 538.793 114.633 539.409 115.878C545.574 123.323 550.558 131.683 552.938 141.103C556.86 156.621 554.332 172.713 554.923 188.473C555.169 195.027 556.541 201.299 557.149 207.803C557.752 214.254 557.562 220.414 557.497 226.865C557.436 232.902 557.51 238.83 556.941 244.852C555.752 257.419 553.172 269.876 549.616 281.982C546.92 291.163 544.454 300.622 536.736 306.958C532.605 310.349 528.991 311.191 523.717 311.28C523.56 311.064 523.44 310.954 523.202 310.829C521.052 309.699 519.301 308.423 517.407 306.908Z"/>
	<path fill="#838383" d="M767.489 304.334C771.25 304.406 774.538 304.686 777.943 302.844C788.49 297.138 791.566 285.77 794.662 275.097C801.344 252.061 804.04 228.195 802.434 204.233C801.92 196.572 800.031 189.03 799.901 181.378C799.634 165.626 801.836 149.489 797.846 134.028C796.605 129.221 794.823 124.665 792.313 120.373C790.384 117.074 788.005 114.073 786.162 110.719C787.431 111.431 789.108 112.132 789.818 113.45C796.17 115.206 802.508 125.335 805.666 130.891C816.444 149.85 812.647 172.337 813.092 193.162C813.248 200.465 815.07 207.936 815.538 215.318C815.84 220.082 815.611 224.508 815.584 229.231C815.548 235.606 815.655 242.06 815.08 248.411C813.973 260.626 811.278 272.67 807.98 284.461C804.868 295.592 801.734 306.783 790.963 312.854C788.054 314.494 784.452 314.817 781.257 313.895C778.188 313.009 776.289 310.517 773.836 308.712C772.431 307.172 769.275 305.691 767.489 304.334Z"/>
	<path fill="#EC5E31" d="M767.489 304.334C771.25 304.406 774.538 304.686 777.943 302.844C788.49 297.138 791.566 285.77 794.662 275.097C801.344 252.061 804.04 228.195 802.434 204.233C801.92 196.572 800.031 189.03 799.901 181.378C799.634 165.626 801.836 149.489 797.846 134.028C796.605 129.221 794.823 124.665 792.313 120.373C790.384 117.074 788.005 114.073 786.162 110.719C787.431 111.431 789.108 112.132 789.818 113.45C795.505 121.255 800.386 128.471 802.806 137.988C806.758 153.531 804.44 169.337 804.917 185.119C805.135 192.355 806.703 199.348 807.31 206.548C807.814 212.531 807.559 218.251 807.512 224.213C807.437 233.896 807.149 243.116 805.647 252.706C804.266 261.519 802.258 270.248 799.76 278.81C796.92 288.542 794.338 298.813 785.678 305.116C781.857 307.897 778.445 308.392 773.836 308.712C772.431 307.172 769.275 305.691 767.489 304.334Z"/>
	<path fill="#838383" d="M135.365 83.7083L139.132 86.2065C158.151 97.9943 165.961 127.622 170.746 148.046L183.8 237.514L186.411 259.544C188.382 273.871 189.449 289.185 180.196 301.387C176.65 306.064 172.24 309.553 166.298 310.351C162.157 310.907 158.14 309.619 154.85 307.114L151.374 304.072C149.201 302.885 147.414 301.576 145.552 299.947C146.899 299.827 148.267 300.248 149.621 300.339C153.145 300.576 156.206 300.128 159.35 298.414C166.407 294.564 171.07 286.434 173.196 278.918C174.446 274.497 174.833 269.056 174.707 264.484C174.319 250.385 171.734 236.033 170.065 222.018L160.859 153.55C158.717 141.964 156.108 130.485 152.576 119.238C149.852 110.568 146.51 101.87 141.971 93.9846C139.936 90.4488 137.368 87.2648 135.365 83.7083Z"/>
	<path fill="#EC5E31" d="M135.365 83.7083L139.132 86.2065C141.091 89.5773 143.627 92.5356 145.652 95.8598C150.493 103.807 154.07 112.512 156.96 121.338C160.862 133.255 163.622 145.505 165.923 157.821C170.012 179.719 172.123 201.968 174.785 224.068C176.499 238.3 179.186 252.969 179.643 267.275C179.811 272.527 179.481 277.969 178.125 283.06C176.138 290.516 171.439 298.375 164.591 302.288C160.372 304.699 156.067 304.916 151.374 304.072C149.201 302.885 147.414 301.576 145.552 299.947C146.899 299.827 148.267 300.248 149.621 300.339C153.145 300.576 156.206 300.128 159.35 298.414C166.407 294.564 171.07 286.434 173.196 278.918C174.446 274.497 174.833 269.056 174.707 264.484C174.319 250.385 171.734 236.033 170.065 222.018L160.859 153.55C158.717 141.964 156.108 130.485 152.576 119.238C149.852 110.568 146.51 101.87 141.971 93.9846C139.936 90.4488 137.368 87.2648 135.365 83.7083Z"/>
	<path fill="#2A3034" d="M598.071 299.274C597.655 298.114 594.31 296.245 593.237 295.402C590.497 293.251 587.889 291.002 585.672 288.301C579.29 280.531 576.166 270.84 574.535 261.056C572.533 249.05 573.466 236.606 573.574 224.484C573.78 201.338 573.963 177.743 576.231 154.691L572.158 152.237C566.094 147.865 559.887 143.305 558.594 135.42C557.67 129.791 558.481 124.159 561.905 119.493C565.702 114.318 570.459 113.001 576.498 112.102C575.139 108.545 574.186 105.722 574.191 101.846C574.201 93.0082 575.341 84.1164 581.977 77.5771C585.577 74.0287 589.996 72.6655 594.977 72.7593C601.689 72.8857 609.138 76.9541 613.525 81.9029C613.833 82.2494 614.031 82.6535 614.196 83.0831C615.701 83.7791 618.339 84.8915 618.942 86.5202C623.331 87.8296 627.046 92.3475 629.165 96.2409C631.389 100.329 633.724 107.879 632.452 112.378C633.872 114.851 637.367 116.198 638.14 118.639C640.138 119.157 641.185 120.111 642.633 121.486L642.87 122.194C645.911 122.762 649.307 126.006 651.027 128.528C654.066 132.987 654.764 139.155 653.719 144.368C652.531 150.298 649.361 157.739 644.155 161.194C640.589 163.561 636.484 164.021 632.303 164.222L630.833 230.419C630.835 234.634 630.787 238.865 631.286 243.055C631.567 245.409 633.411 249.972 632.98 251.975C639.077 255.503 644.405 257.888 649.658 262.775L649.879 263.711C652.98 267.799 652.995 272.308 652.33 277.176C651.322 284.55 647.357 292.58 641.324 297.095C632.705 303.545 621.524 303.928 611.282 302.377C608.734 301.991 606.294 301.317 603.86 300.481C602.291 299.943 600.517 299.017 598.835 299.178L598.586 299.199L598.071 299.274Z"/>
	<path fill="#EC5E31" d="M614.196 83.0831C615.701 83.7791 618.339 84.8915 618.942 86.5202C622.222 91.9524 624.046 96.9946 624.697 103.327C624.834 104.663 625.216 106.593 624.931 107.863C624.811 108.399 624.57 108.889 624.293 109.36C623.676 109.212 620.439 108.666 620.159 108.371C619.882 108.08 619.582 98.1996 619.413 96.8801C618.788 91.995 617.072 87.0983 614.196 83.0831Z"/>
	<path fill="#838383" d="M618.942 86.5202C623.331 87.8296 627.046 92.3475 629.165 96.2409C631.389 100.329 633.724 107.879 632.452 112.378L632.344 112.967C629.616 111.701 627.187 110.283 624.293 109.36C624.57 108.889 624.811 108.399 624.931 107.863C625.216 106.593 624.834 104.663 624.697 103.327C624.046 96.9946 622.222 91.9524 618.942 86.5202Z"/>
	<path fill="#EC5E31" d="M638.14 118.639C640.138 119.157 641.185 120.111 642.633 121.486L642.87 122.194C646.146 127.86 646.851 134.232 645.18 140.577C643.709 146.165 640.245 152.794 635.114 155.817C631.808 157.765 627.828 157.964 624.102 158.218L623.286 202.442C622.96 213.55 621.879 225.117 623.086 236.186C623.534 240.287 624.36 244.615 626.709 248.095L625.96 249.225C625.739 248.835 625.438 248.548 625.134 248.226C621.973 244.876 619.944 241.651 618.909 237.111C617.576 231.256 617.65 225.339 617.701 219.371L618.409 194.355L619.171 154.063C622.959 153.913 626.597 153.696 630.014 151.839C635.019 149.119 638.408 142.51 639.968 137.255C641.837 130.962 641.234 124.395 638.14 118.639Z"/>
	<path fill="#838383" d="M642.87 122.194C645.911 122.762 649.307 126.006 651.027 128.528C654.066 132.987 654.764 139.155 653.719 144.368C652.531 150.298 649.361 157.739 644.155 161.194C640.589 163.561 636.484 164.021 632.303 164.222L630.833 230.419C630.835 234.634 630.787 238.865 631.286 243.055C631.567 245.409 633.411 249.972 632.98 251.975L632.568 252.18L625.96 249.225L626.709 248.095C624.36 244.615 623.534 240.287 623.086 236.186C621.879 225.117 622.96 213.55 623.286 202.442L624.102 158.218C627.828 157.964 631.808 157.765 635.114 155.817C640.245 152.794 643.709 146.165 645.18 140.577C646.851 134.232 646.146 127.86 642.87 122.194Z"/>
	<path fill="#EC5E31" d="M613.131 199.79C614.464 202.349 613.781 206.797 613.745 209.654C613.591 221.708 612.036 236.741 617.487 247.888C620.005 253.038 624.443 256.91 629.482 259.506C637.069 263.415 644.707 264.789 648.778 273.191C647.555 279.309 645.436 284.19 640.726 288.427C634.464 294.058 625.901 295.241 617.77 294.784C606.402 294.144 595.518 289.739 587.866 281.133C583.227 275.917 580.444 269.033 579.293 262.207C577.755 253.092 578.498 243.476 578.55 234.251L580.836 164.921C581.004 161.607 580.529 158.737 580.476 155.489C580.413 151.611 580.779 147.654 580.995 143.78C575.574 143.088 570.032 142.161 565.91 138.234C564.646 137.03 563.342 135.556 563.323 133.739C563.289 130.591 564.514 126.213 566.829 124.003C570.149 120.834 574.987 120.517 579.297 120.687C582.434 116.345 581.229 112.738 580.833 107.918C580.206 100.28 578.852 91.1336 584.432 84.8727C586.644 82.3916 589.955 81.4561 593.159 81.2264C595.219 81.0788 598.299 81.0591 599.922 82.4841C604.959 83.6658 609.447 86.5014 612.244 90.9488C614.977 95.2944 616.904 103.546 615.705 108.555C615.59 109.034 615.326 109.497 615.064 109.91C616.223 111.906 615.893 114.36 615.847 116.591C622.212 116.917 629.794 118.621 634.304 123.555C636.121 125.543 636.849 127.435 636.712 130.148C636.488 134.57 634.422 139.175 631.115 142.149C626.592 146.218 621.356 145.72 615.703 145.385L615.165 145.352C615.134 148.999 616.084 157.332 614.264 160.272C615.711 163.803 614.693 170.387 614.591 174.26L614.014 198.518L613.131 199.79Z"/>
	<path fill="#FEFEFE" d="M613.131 199.79C612.347 196.302 612.944 192.728 613.161 189.22L613.292 178.838C613.242 172.611 612.473 166.139 612.778 159.951C612.847 158.536 613.502 157.895 614.502 157.047C615.047 158.348 614.637 158.938 614.264 160.272C615.711 163.803 614.693 170.387 614.591 174.26L614.014 198.518L613.131 199.79Z"/>
	<path fill="#FEFEFE" d="M599.922 82.4841C604.959 83.6658 609.447 86.5014 612.244 90.9488C614.977 95.2944 616.904 103.546 615.705 108.555C615.59 109.034 615.326 109.497 615.064 109.91L614.502 110.173C612.724 108.667 612.547 106.504 612.014 104.274C611.242 101.046 610.345 97.5503 607.922 95.1298C606.677 93.8852 604.74 92.4005 603.056 91.7907C601.526 91.2372 599.916 91.1464 598.602 90.1099C597.954 88.8078 597.622 87.5152 597.748 86.045C597.893 84.3446 598.691 83.4784 599.922 82.4841Z"/>
	<path fill="#2A3034" d="M873.409 252.981L874.271 252.898L874.642 252.847C874.956 252.808 875.262 252.779 875.568 252.69C877.096 252.242 878.849 250.299 879.576 248.923C880.875 246.463 879.664 242.973 878.722 240.555C871.195 221.227 852.783 210.71 839.372 195.945C832.9 188.82 826.999 181.206 824.366 171.812C820.379 157.584 822.889 134.679 830.157 121.856C834.77 113.718 842.011 107.842 851.067 105.39C868.963 100.545 889.939 107.204 905.511 116.205C907.884 117.577 914.301 121.507 914.984 124.067C916.487 124.598 918.391 125.512 919.262 126.93C919.407 127.167 919.398 127.213 919.442 127.45C924.332 134.027 927.131 141.393 925.887 149.677C925.002 155.571 922.154 161.368 917.249 164.928C913.014 168.002 907.741 169.106 902.588 168.33C900.005 167.941 897.458 166.669 894.851 166.676C893.757 165.05 890.732 163.546 889.02 162.586L888.744 162.002C885.99 160.125 882.962 156.31 879.885 155.773L879.876 156.073C879.772 158.802 878.829 161.217 879.059 164.008C879.434 168.564 881.463 172.887 883.973 176.641C885.066 178.276 887.843 180.845 888.058 182.619C890.397 183.773 892.136 185.68 894.276 187.142C902.019 192.43 909.726 197.421 917.058 203.3C918.248 204.254 920.745 205.772 921.347 207.027C922.969 207.853 924.148 208.695 925.421 209.998L925.607 210.574C933.97 218.974 939.359 230.377 939.371 242.302C939.384 256.414 932.701 272.617 922.713 282.522C911.431 293.709 893.322 302.038 877.32 301.92C872.596 301.885 867.799 301.181 863.257 299.864C860.365 299.025 856.899 297.068 853.905 297.073C852.608 295.445 849.874 293.902 848.146 292.661C843.962 288.853 839.299 286.262 835.516 281.803C825.764 270.309 818.858 254.207 820.223 238.903C820.651 234.109 823.592 229.85 827.256 226.856C831.012 223.787 836.843 221.062 841.797 221.628C846.703 222.189 852.328 226.403 855.34 230.21L855.489 230.406C856.781 231.119 859.168 232.331 859.775 233.744L859.821 233.905C863.293 234.373 866.694 238.656 868.703 241.275C871.116 244.42 872.547 247.636 873.779 251.38L873.409 252.981Z"/>
	<path fill="#EC5E31" d="M867.49 252.475C862.004 249.135 861.478 242.676 859.226 237.223C858.255 234.87 856.787 232.596 855.489 230.406C856.781 231.119 859.168 232.331 859.775 233.744L859.821 233.905C862.937 238.462 864.516 242.314 866.411 247.473C866.876 248.739 867.872 250.662 867.625 252.015C867.588 252.222 867.565 252.257 867.49 252.475Z"/>
	<path fill="#838383" d="M859.821 233.905C863.293 234.373 866.694 238.656 868.703 241.275C871.116 244.42 872.547 247.636 873.779 251.38L873.409 252.981L872.976 253.326C870.942 253.681 869.388 253.105 867.49 252.475C867.565 252.257 867.588 252.222 867.625 252.015C867.872 250.662 866.876 248.739 866.411 247.473C864.516 242.314 862.937 238.462 859.821 233.905Z"/>
	<path fill="#EC5E31" d="M879.777 176.787C879.27 175.621 877.408 174.17 876.475 173.22C871.569 168.23 867.698 162.771 866.271 155.807C865.613 152.593 865.705 148.578 867.64 145.791C868.798 144.124 869.976 143.816 871.826 143.509C873.198 143.874 873.828 144.421 874.778 145.473C875.484 146.256 875.341 146.374 875.285 147.419C872.959 149.109 871.589 150.823 871.144 153.732C870.217 159.795 872.684 166.413 876.275 171.234C877.435 172.791 879.793 174.869 879.777 176.787Z"/>
	<path fill="#838383" d="M879.777 176.787C879.793 174.869 877.435 172.791 876.275 171.234C872.684 166.413 870.217 159.795 871.144 153.732C871.589 150.823 872.959 149.109 875.285 147.419C877.221 149.548 878.278 152.208 880.127 154.454L879.885 155.773L879.876 156.073C879.772 158.802 878.829 161.217 879.059 164.008C879.434 168.564 881.463 172.887 883.973 176.641C885.066 178.276 887.843 180.845 888.058 182.619C885.998 182.288 881.637 178.195 879.777 176.787Z"/>
	<path fill="#EC5E31" d="M914.984 124.067C916.487 124.598 918.391 125.512 919.262 126.93C919.407 127.167 919.398 127.213 919.442 127.45C924.332 134.027 927.131 141.393 925.887 149.677C925.002 155.571 922.154 161.368 917.249 164.928C913.014 168.002 907.741 169.106 902.588 168.33C900.005 167.941 897.458 166.669 894.851 166.676C893.757 165.05 890.732 163.546 889.02 162.586C891.639 161.814 896.022 164.204 898.926 164.499C904.053 165.021 909.092 163.557 913.089 160.297C917.941 156.342 920.446 150.259 921.046 144.153C921.731 137.181 919.41 129.485 914.984 124.067Z"/>
	<path fill="#EC5E31" d="M921.347 207.027C922.969 207.853 924.148 208.695 925.421 209.998L925.607 210.574C933.97 218.974 939.359 230.377 939.371 242.302C939.384 256.414 932.701 272.617 922.713 282.522C911.431 293.709 893.322 302.038 877.32 301.92C872.596 301.885 867.799 301.181 863.257 299.864C860.365 299.025 856.899 297.068 853.905 297.073C852.608 295.445 849.874 293.902 848.146 292.661C850.353 292.546 852.651 293.934 854.679 294.711C868.402 299.967 883.625 298.345 896.824 292.353C913.106 284.961 924.543 273.903 930.882 256.998C935.785 243.924 935.899 228.697 928.338 216.593C926.427 213.534 922.817 210.443 921.441 207.263L921.347 207.027Z"/>
	<path fill="#EC5E31" d="M913.026 150.022C912.998 150.532 912.82 150.982 912.667 151.466C910.232 153.684 907.91 155.179 904.628 155.795C896.433 157.333 886.186 153.649 881.524 146.524C879.266 143.073 878.36 138.442 874.704 136.058C873.251 135.112 871.546 134.87 869.863 135.292C867.553 135.871 865.607 138.302 864.502 140.287C861.721 145.28 861.182 151.277 861.864 156.86C862.499 162.063 864.62 166.905 867.313 171.353C879.947 192.215 905.505 199.129 921.177 217.059C924.565 220.935 927.81 225.524 929.207 230.545C932.113 240.985 928.281 252.253 923.153 261.33C915.606 274.69 901.04 283.495 886.56 287.514C873.744 291.072 860.443 290.123 848.769 283.446C837.477 276.987 829.207 265.216 825.882 252.712C824.586 247.837 824.446 241.418 827.116 236.993C828.877 234.074 833.322 231.323 836.578 230.508C840.208 229.601 843.413 230.072 846.66 231.906C850.46 234.054 853.951 238.097 855.721 242.068C858.471 248.24 859.413 256.358 865.784 260.081C868.495 261.666 872.091 262.387 875.14 261.476C879.339 260.222 883.446 255.05 885.444 251.362C884.056 246.022 884.125 240.88 882.175 235.519C873.717 212.258 848.865 199.36 834.351 180.195C826.075 169.266 827.126 158.76 828.928 145.971C830.275 136.405 833.343 124.708 841.488 118.645C850.39 112.017 862.112 111.355 872.73 112.903C875.21 113.265 883.233 114.31 884.686 116.265C894.224 118.274 906.783 123.401 912.312 131.859C914.716 135.536 916.949 141.392 915.87 145.857C915.397 147.814 914.638 148.894 913.026 150.022Z"/>
	<path fill="#FEFEFE" d="M884.201 219.535L885.918 219.403C887.603 220.541 888.417 223.186 889.3 225.05C894.252 235.503 898.85 246.229 894.645 257.839C893.797 260.183 892.662 262.991 890.307 264.096L889.404 264.619L888.29 263.244C885.76 259.405 890.376 255.434 891.553 251.948C892.233 249.935 892.238 247.687 891.942 245.601C891.217 240.494 888.798 236.031 886.522 231.487C885.423 229.293 883.879 226.754 883.595 224.285C883.419 222.757 883.866 221.027 884.201 219.535Z"/>
	<path fill="#FEFEFE" d="M913.026 150.022C910.269 147.32 912.188 145.392 911.512 142.259C911.187 140.75 909.332 138.274 908.404 136.978C900.984 126.614 885.605 124.985 874.023 123.012C872.743 121.936 872.462 121.516 872.215 119.782C871.979 118.131 872.488 116.469 873.469 115.154C875.558 114.265 882.155 116.005 884.686 116.265C894.224 118.274 906.783 123.401 912.312 131.859C914.716 135.536 916.949 141.392 915.87 145.857C915.397 147.814 914.638 148.894 913.026 150.022Z"/>
	<path fill="#2A3034" d="M315.53 190.258C316.793 186.454 316.331 180.081 316.671 175.916C318.148 157.794 320.978 134.722 333.416 120.647C341.353 111.665 354.05 107.219 365.762 106.529C380.256 105.675 390.03 111.954 400.509 121.23C401.881 122.075 403.757 123.081 404.596 124.493C407.213 125.556 409.436 127.747 411.385 129.736C417.366 135.835 421.536 142.89 424.855 150.71C428.265 158.746 430.42 167.559 431.702 176.182C432.007 178.235 432.712 181.281 432.009 183.263C432.45 184.325 432.77 185.398 432.892 186.545C433.929 196.26 433.807 206.347 434.345 216.117L435.588 232.874C435.752 235.1 436.323 238.125 435.659 240.269C436.357 242.59 436.083 245.173 435.971 247.573C435.508 257.448 432.892 267.555 428.224 276.276C420.943 289.881 408.364 300.926 393.504 305.432C381.283 309.139 366.8 307.745 355.572 301.667C353.027 300.289 350.725 298.692 348.549 296.789C346.474 295.526 344.632 293.916 342.756 292.381L341.451 291.56C334.186 286.882 327.657 280.506 323.391 272.959C314.641 257.48 314.35 237.747 314.677 220.408C314.787 214.575 316.063 207.085 314.73 201.461L314.634 201.08L315.53 190.258ZM395.661 279.22C401.725 275.522 407.542 268.123 411.099 262.107C412.082 260.444 414.15 257.425 413.652 255.465C414.869 254.781 415.148 253.81 415.58 252.573C417.751 246.356 418.665 239.943 418.892 233.383C419.09 227.66 417.835 222.016 417.573 216.308L416.013 186.276C415.607 179.389 415.441 172.821 414.242 165.996C412.832 157.971 410.651 149.897 407.087 142.552C402.463 133.027 394.254 121.974 383.866 118.387L378.355 115.916C366.411 113.245 352.822 115.555 342.463 122.182C331.723 129.052 327.536 143.504 324.978 155.378C321.016 173.773 320.645 193.67 320.102 212.441C319.709 226.023 318.784 239.846 321.241 253.287C322.215 258.618 324.367 263.96 327.296 268.514C333.591 278.302 343.9 285.558 355.308 287.999C368.584 290.839 381.946 288.408 393.314 280.919L395.661 279.22Z"/>
	<path fill="#838383" d="M400.509 121.23C401.881 122.075 403.757 123.081 404.596 124.493C407.213 125.556 409.436 127.747 411.385 129.736C417.366 135.835 421.536 142.89 424.855 150.71C428.265 158.746 430.42 167.559 431.702 176.182C432.007 178.235 432.712 181.281 432.009 183.263C432.45 184.325 432.77 185.398 432.892 186.545C433.929 196.26 433.807 206.347 434.345 216.117L435.588 232.874C435.752 235.1 436.323 238.125 435.659 240.269C436.357 242.59 436.083 245.173 435.971 247.573C435.508 257.448 432.892 267.555 428.224 276.276C420.943 289.881 408.364 300.926 393.504 305.432C381.283 309.139 366.8 307.745 355.572 301.667C353.027 300.289 350.725 298.692 348.549 296.789C346.474 295.526 344.632 293.916 342.756 292.381C345.919 293.122 348.997 294.65 352.136 295.582C365.16 299.451 379.385 297.356 391.174 290.864C405.844 282.786 415.808 268.747 420.399 252.833C424.748 237.762 422.269 222.59 421.497 207.269C421.419 205.725 421.683 204.219 421.639 202.686L420.869 192.084C420.089 176.82 418.893 161.733 414.123 147.101C412.215 141.247 409.636 135.026 406.33 129.803C404.476 126.873 402.195 124.277 400.509 121.23Z"/>
	<path fill="#EC5E31" d="M400.509 121.23C401.881 122.075 403.757 123.081 404.596 124.493C407.263 128.149 410.168 131.792 412.381 135.749C423.072 154.863 424.741 175.819 425.848 197.188L426.619 206.349C426.707 208.445 426.453 210.523 426.57 212.653C427.22 224.425 429.066 236.497 427.216 248.24C424.538 265.239 416.303 280.72 402.242 290.948C389.868 299.949 376.31 302.933 361.296 300.53C356.832 299.816 352.869 297.782 348.549 296.789C346.474 295.526 344.632 293.916 342.756 292.381C345.919 293.122 348.997 294.65 352.136 295.582C365.16 299.451 379.385 297.356 391.174 290.864C405.844 282.786 415.808 268.747 420.399 252.833C424.748 237.762 422.269 222.59 421.497 207.269C421.419 205.725 421.683 204.219 421.639 202.686L420.869 192.084C420.089 176.82 418.893 161.733 414.123 147.101C412.215 141.247 409.636 135.026 406.33 129.803C404.476 126.873 402.195 124.277 400.509 121.23Z"/>
	<path fill="#EC5E31" d="M395.661 279.22L393.314 280.919C381.946 288.408 368.584 290.839 355.308 287.999C343.9 285.558 333.591 278.302 327.296 268.514C324.367 263.96 322.215 258.618 321.241 253.287C318.784 239.846 319.709 226.023 320.102 212.441C320.645 193.67 321.016 173.773 324.978 155.378C327.536 143.504 331.723 129.052 342.463 122.182C352.822 115.555 366.411 113.245 378.355 115.916L383.866 118.387C394.254 121.974 402.463 133.027 407.087 142.552C410.651 149.897 412.832 157.971 414.242 165.996C415.441 172.821 415.607 179.389 416.013 186.276L417.573 216.308C417.835 222.016 419.09 227.66 418.892 233.383C418.665 239.943 417.751 246.356 415.58 252.573C415.148 253.81 414.869 254.781 413.652 255.465C414.15 257.425 412.082 260.444 411.099 262.107C407.542 268.123 401.725 275.522 395.661 279.22ZM366.567 139.744C362.256 140.835 359.361 142.633 357.071 146.511C355.27 149.562 354.275 153.06 353.719 156.539C351.347 171.378 351.861 187.373 351.456 202.408C351.153 213.661 350.136 224.836 350.658 236.113C350.878 240.848 351.585 245.96 352.783 250.553C354.004 255.233 356.31 260.383 360.653 262.941C362.799 264.205 365.224 264.742 367.64 264.043L369.683 263.276C379.657 256.221 382.366 244.864 384.338 233.452C385.682 225.674 386.143 217.405 385.709 209.524C385.623 207.972 385.084 206.512 385.082 204.931C385.068 190.915 386.148 177.491 383.676 163.535C382.513 156.968 381.096 151.269 377.164 145.748C375.163 142.937 372.625 140.441 369.088 139.883C368.248 139.75 367.417 139.688 366.567 139.744Z"/>
	<path fill="#FEFEFE" d="M395.661 279.22C396.185 276.815 400.607 272.908 402.231 270.791C404.626 267.669 406.113 264.124 407.439 260.447C408.398 257.79 409.292 253.051 411.57 251.326L412.741 251.77C413.718 253.408 413.818 253.577 413.652 255.465C414.15 257.425 412.082 260.444 411.099 262.107C407.542 268.123 401.725 275.522 395.661 279.22Z"/>
	<path fill="#FEFEFE" d="M378.355 115.916L383.866 118.387C388.187 121.918 392.389 125.471 395.9 129.85C403.328 139.115 407.781 151.686 408.989 163.491C409.213 165.68 408.953 167.012 407.544 168.742L406.386 168.742C404.903 166.983 404.81 164.417 404.41 162.225C403.883 159.336 403.226 156.397 402.325 153.602C400.863 149.064 398.86 144.507 396.244 140.511C393.063 135.652 388.941 131.058 384.164 127.717C381.986 126.193 379.643 125.086 377.814 123.113C376.732 120.467 377.352 118.448 378.355 115.916Z"/>
	<path fill="#2A3034" d="M366.567 139.744C367.417 139.688 368.248 139.75 369.088 139.883C372.625 140.441 375.163 142.937 377.164 145.748C381.096 151.269 382.513 156.968 383.676 163.535C386.148 177.491 385.068 190.915 385.082 204.931C385.084 206.512 385.623 207.972 385.709 209.524C386.143 217.405 385.682 225.674 384.338 233.452C382.366 244.864 379.657 256.221 369.683 263.276L367.64 264.043C365.224 264.742 362.799 264.205 360.653 262.941C356.31 260.383 354.004 255.233 352.783 250.553C351.585 245.96 350.878 240.848 350.658 236.113C350.136 224.836 351.153 213.661 351.456 202.408C351.861 187.373 351.347 171.378 353.719 156.539C354.275 153.06 355.27 149.562 357.071 146.511C359.361 142.633 362.256 140.835 366.567 139.744ZM377.283 158.499C372.894 161.623 371.506 164.774 370.643 169.963C368.779 181.17 369.338 193.245 368.953 204.597L367.943 231.011C367.67 238.346 367.021 246.938 368.941 254.064L369.629 254.352C371.345 252.728 372.708 250.946 373.773 248.841C379.707 237.111 380.891 221.824 380.771 208.804C380.739 205.276 380.205 201.799 380.241 198.253C380.376 184.771 381.586 171.536 377.283 158.499Z"/>
	<path fill="#EC5E31" d="M363.476 255.892C362.057 255.256 360.84 254.344 359.771 253.217C352.16 245.193 354.904 220.912 355.31 210.164L356.04 185.974C356.295 176.625 355.796 165.311 358.364 156.256C358.965 154.138 359.8 152.08 361.466 150.568C363.312 148.892 365.843 148.058 368.317 148.268C371.073 148.502 372.265 149.993 373.959 151.945C370.584 152.299 367.866 152.798 365.563 155.594C363.675 157.885 362.845 161.84 362.413 164.767C360.507 177.678 361.037 191.428 360.631 204.487C360.229 217.416 358.623 230.973 360.133 243.851C360.641 248.179 361.757 251.905 363.476 255.892Z"/>
	<path fill="#838383" d="M373.959 151.945C375.137 154.085 376.418 156.21 377.283 158.499C372.894 161.623 371.506 164.774 370.643 169.963C368.779 181.17 369.338 193.245 368.953 204.597L367.943 231.011C367.67 238.346 367.021 246.938 368.941 254.064C368.286 255.15 368.121 255.468 366.827 255.813C365.767 256.096 364.563 255.96 363.476 255.892C361.757 251.905 360.641 248.179 360.133 243.851C358.623 230.973 360.229 217.416 360.631 204.487C361.037 191.428 360.507 177.678 362.413 164.767C362.845 161.84 363.675 157.885 365.563 155.594C367.866 152.798 370.584 152.299 373.959 151.945Z"/>
	<path fill="#2A3034" d="M743.572 133.304C745.354 131.199 745.323 127.754 745.928 125.049C747.711 117.082 751.049 106.626 758.451 102.071C762.219 99.7519 766.675 99.4119 770.904 100.486C775.789 101.726 783.524 106.297 786.162 110.719C788.005 114.073 790.384 117.074 792.313 120.373C794.823 124.665 796.605 129.221 797.846 134.028C801.836 149.489 799.634 165.626 799.901 181.378C800.031 189.03 801.92 196.572 802.434 204.233C804.04 228.195 801.344 252.061 794.662 275.097C791.566 285.77 788.49 297.138 777.943 302.844C774.538 304.686 771.25 304.406 767.489 304.334C765.884 302.971 764.034 301.674 762.583 300.157C760.797 298.288 759.758 294.991 757.447 293.987C754.053 298.799 745.608 302.782 739.88 303.799C733.55 304.924 727.149 303.512 721.877 299.81C720.641 298.942 719.48 297.814 718.197 297.045C716.608 295.338 714.236 293.946 712.313 292.634C710.293 290.484 707.32 288.782 705.111 286.725C701.603 283.459 698.936 279.016 696.735 274.8C688.715 259.435 687.093 242.18 685.542 225.222L683.339 190.665C682.67 170.255 682.49 149.823 686.627 129.723C688.358 121.313 690.69 112.5 696.749 106.094C699.346 103.349 702.871 101.287 706.738 101.26C712.546 101.218 718.714 105.44 722.494 109.646C722.807 109.994 722.979 110.432 723.113 110.875C724.427 111.365 726.682 112.253 727.292 113.636L727.358 113.874C733.231 115.445 739.14 124.253 742.04 129.257C742.724 130.438 743.707 131.887 743.572 133.304Z"/>
	<path fill="#EC5E31" d="M712.313 292.634C717.456 293.008 721.477 294.736 726.803 293.807C738.659 291.74 746.992 282.604 753.56 273.212C753.661 276.233 754.794 279.416 753.985 282.369L754.103 283.516C747.162 290.899 739.104 297.781 728.433 298.109C724.892 298.218 721.635 297.076 718.197 297.045C716.608 295.338 714.236 293.946 712.313 292.634Z"/>
	<path fill="#838383" d="M753.985 282.369C755.957 284.626 756.945 290.312 758.057 293.25L757.447 293.987C754.053 298.799 745.608 302.782 739.88 303.799C733.55 304.924 727.149 303.512 721.877 299.81C720.641 298.942 719.48 297.814 718.197 297.045C721.635 297.076 724.892 298.218 728.433 298.109C739.104 297.781 747.162 290.899 754.103 283.516L753.985 282.369Z"/>
	<path fill="#EC5E31" d="M723.113 110.875C724.427 111.365 726.682 112.253 727.292 113.636L727.358 113.874C733.231 115.445 739.14 124.253 742.04 129.257C742.724 130.438 743.707 131.887 743.572 133.304C744.728 136.184 743.667 140.24 743.461 143.346C743.194 147.357 743.187 151.322 743.312 155.338C743.907 174.435 746.913 193.468 746.511 212.587C746.391 218.309 746.003 225.009 743.737 230.317C743.371 231.174 742.957 231.419 742.251 231.981L742.203 232.86C741.586 233.858 741.555 234.03 740.479 234.45C736.97 230.37 736.805 223.081 736.476 217.943C735.864 208.383 735.655 198.883 735.969 189.306C736.812 163.56 741.069 131.99 723.113 110.875Z"/>
	<path fill="#838383" d="M727.358 113.874C733.231 115.445 739.14 124.253 742.04 129.257C742.724 130.438 743.707 131.887 743.572 133.304C744.728 136.184 743.667 140.24 743.461 143.346C743.194 147.357 743.187 151.322 743.312 155.338C743.907 174.435 746.913 193.468 746.511 212.587C746.391 218.309 746.003 225.009 743.737 230.317C743.371 231.174 742.957 231.419 742.251 231.981L742.372 231.41C742.535 229.514 741.773 226.843 741.634 224.845L740.727 203.787L741.758 164.751C741.824 153.118 741.387 140.705 736.996 129.756C734.589 123.754 731.223 118.99 727.358 113.874Z"/>
	<path fill="#EC5E31" d="M724.184 123.09C725.885 123.947 727.079 127.008 727.826 128.697C730.07 133.769 730.946 138.959 731.697 144.417C734.07 161.668 731.951 179.203 731.568 196.514C731.392 204.44 731.806 212.102 732.417 219.996C732.921 226.505 733.371 234.549 737.367 240.019C738.291 241.285 739.422 242.013 740.967 242.236C742.322 241.952 743.269 241.479 744.228 240.458C747.001 237.503 749.74 231.804 750.528 227.839C752.089 219.988 751.513 211.417 751.122 203.471C750.311 186.994 748.097 170.611 747.885 154.103C747.837 150.313 748.404 147.015 748.799 143.278C749.724 134.528 750.801 125.64 754.527 117.548C755.543 115.342 756.762 112.8 758.505 111.072C760.683 108.912 763.26 107.719 766.338 107.795C772.436 107.946 777.683 111.322 781.767 115.648C801.023 136.042 794.591 159.811 795.849 184.817L796.673 194.628C796.825 198.159 796.568 201.739 796.857 205.259C797.418 212.088 798.573 218.376 798.37 225.319C797.851 243.097 793.61 280.503 780.454 292.741C777.894 295.122 774.695 296.568 771.145 296.401C762.125 295.977 758.222 281.198 757.769 273.987C757.504 269.765 758.463 265.021 757.79 260.872C757.576 259.551 757.135 259.07 756.257 258.12C756.082 258.134 755.366 258.131 755.257 258.203C754.146 258.942 752.72 263.32 752.075 264.616C749.998 268.787 747.045 272.573 743.815 275.911C738.479 281.426 731.109 286.17 723.221 286.274C717.221 286.354 711.667 284.152 707.381 279.906C702.661 275.23 699.281 269.489 696.964 263.289C692.645 251.734 691.437 239.027 690.3 226.831L687.965 176.386C687.955 159.506 688.763 141.79 693.603 125.514C694.964 120.941 696.941 115.252 700.461 111.841C702.614 109.755 704.323 109.15 707.273 109.239C709.385 109.303 712.551 110.027 713.749 111.845C717.482 112.766 721.814 118.236 723.748 121.434C724.074 121.973 724.233 122.451 724.184 123.09Z"/>
	<path fill="#FEFEFE" d="M710.32 112.765C713.351 112.908 715.936 115.622 717.879 117.751C719.98 120.054 725.666 127.419 725.387 130.601L725.338 130.98C727.684 133.854 729.966 144.605 729.596 148.412C729.427 150.147 728.809 150.762 727.539 151.806C727.25 151.61 726.605 151.289 726.407 151.035C724.781 148.947 724.384 142.32 723.594 139.544C722.658 136.26 721.376 133.034 719.645 130.085C718.483 128.104 717.059 126.068 715.365 124.507C713.633 122.913 710.655 121.293 709.703 119.19C708.908 117.434 709.655 114.434 710.32 112.765Z"/>
	<path fill="#FEFEFE" d="M769.629 112.087L770.497 111.993C773.253 111.91 777.089 115.309 778.994 117.101C784.649 122.421 788.226 129.93 790.246 137.331C790.737 139.126 791.523 141.458 791.513 143.323C791.503 145.154 790.958 145.842 789.703 147.005L789.062 147.411C786.821 145.415 786.149 139.616 785.02 136.712C783.963 133.993 782.597 131.412 780.952 129.002C779.457 126.814 777.709 124.828 775.619 123.187C774.068 121.969 770.391 120.519 769.485 118.917C768.417 117.027 769.177 114.085 769.629 112.087Z"/>
	<path fill="#2A3034" d="M493.394 135.856C495.458 133.622 495.457 129.668 496.108 126.74C497.706 119.557 500.809 110.747 506.764 105.99C510.113 103.314 513.954 102.159 518.261 102.683C524.884 103.488 532.471 108.387 536.515 113.682L536.621 113.963C537.601 116.456 539.573 118.812 541.044 121.055C544.145 125.785 546.376 130.95 547.765 136.43C551.761 152.2 549.607 168.513 549.895 184.564C550.038 192.572 552.056 200.542 552.518 208.596C552.792 213.383 552.522 217.943 552.46 222.711C552.386 228.434 552.503 234.057 552.037 239.778C551.01 252.378 548.431 264.79 544.899 276.916C543.545 281.56 542.262 286.386 540.419 290.853C537.883 296.998 533.062 303.495 526.724 306.109C523.652 307.376 520.631 307.147 517.407 306.908C515.9 305.412 513.986 304.407 512.519 302.843C510.846 301.06 509.652 297.513 507.549 296.538C505.52 300.399 497.505 304.306 493.312 305.615C487.264 307.502 480.66 307.325 474.996 304.346C472.62 303.096 470.497 301.432 468.32 299.872C467.217 298.191 463.616 296.285 461.879 295.112C458.49 292.148 454.882 289.75 452.116 286.102C447.58 280.119 444.128 273.02 441.837 265.882C440.405 261.42 439.283 256.759 438.44 252.15L437.238 244.079C437.158 243.456 437.152 241.771 436.886 241.27C436.764 241.041 435.895 240.462 435.659 240.269C436.323 238.125 435.752 235.1 435.588 232.874L434.345 216.117C433.807 206.347 433.929 196.26 432.892 186.545C432.77 185.398 432.45 184.325 432.009 183.263C432.22 182.957 432.689 182.45 432.799 182.12C433.651 179.583 432.858 174.704 432.9 171.868C432.997 165.282 433.141 158.588 433.757 152.031C435.033 138.461 437.104 116.489 448.301 107.314C451.322 104.838 454.714 103.696 458.624 104.107C464.088 104.681 470.297 109.506 473.658 113.679C474.774 114.275 476.927 115.27 477.414 116.547L477.453 116.714C481.954 117.533 487.098 124.55 489.673 128.253C491.07 130.262 493.423 133.389 493.394 135.856Z"/>
	<path fill="#EC5E31" d="M461.879 295.112C464.134 295.264 466.404 296.088 468.636 296.481C471.747 297.027 474.656 296.87 477.753 296.306C488.99 294.257 497.329 284.849 503.505 275.938C503.703 278.744 504.863 282.647 503.921 285.258C503.335 288.424 497.241 293.11 494.605 294.928C488.509 299.133 480.848 302.018 473.354 300.576C471.605 300.239 470.145 299.836 468.32 299.872C467.217 298.191 463.616 296.285 461.879 295.112Z"/>
	<path fill="#838383" d="M503.921 285.258C505.228 286.612 507.648 293.737 507.626 295.764L507.549 296.538C505.52 300.399 497.505 304.306 493.312 305.615C487.264 307.502 480.66 307.325 474.996 304.346C472.62 303.096 470.497 301.432 468.32 299.872C470.145 299.836 471.605 300.239 473.354 300.576C480.848 302.018 488.509 299.133 494.605 294.928C497.241 293.11 503.335 288.424 503.921 285.258Z"/>
	<path fill="#EC5E31" d="M492.319 234.495L492.314 235.488C491.702 236.354 491.519 236.88 490.479 237.209C482.521 228.348 486.955 172.639 486.753 158.367C486.649 150.947 486.113 143.496 484.361 136.264C483.194 131.444 481.54 126.533 479.146 122.179C477.537 119.253 475.429 116.526 473.658 113.679C474.774 114.275 476.927 115.27 477.414 116.547L477.453 116.714C481.954 117.533 487.098 124.55 489.673 128.253C491.07 130.262 493.423 133.389 493.394 135.856C494.709 137.934 493.872 141.275 493.648 143.654C493.346 146.858 493.183 150.059 493.199 153.277C493.294 172.313 496.35 191.145 496.531 210.16C496.592 216.53 496.343 223.027 494.935 229.258C494.491 231.222 494.015 233.302 492.319 234.495Z"/>
	<path fill="#838383" d="M477.453 116.714C481.954 117.533 487.098 124.55 489.673 128.253C491.07 130.262 493.423 133.389 493.394 135.856C494.709 137.934 493.872 141.275 493.648 143.654C493.346 146.858 493.183 150.059 493.199 153.277C493.294 172.313 496.35 191.145 496.531 210.16C496.592 216.53 496.343 223.027 494.935 229.258C494.491 231.222 494.015 233.302 492.319 234.495C492.407 232.28 491.766 229.635 491.622 227.366L490.768 205.974L491.74 167.178C491.789 155.131 491.23 142.503 486.474 131.235C484.178 125.797 480.937 121.429 477.453 116.714Z"/>
	<path fill="#EC5E31" d="M513.246 110.622C516.694 110.308 519.718 110.541 522.938 111.916C531.67 115.646 538.739 125.938 542.156 134.491C548.458 150.266 545.527 168.224 545.741 184.787C545.796 189.074 546.442 193.286 546.658 197.553C546.835 201.067 546.506 204.652 546.844 208.15C547.228 212.115 548.12 216.058 548.304 220.043C548.659 227.749 547.954 235.416 547.139 243.072C545.67 256.865 543.202 271.574 537.708 284.372C535.373 289.81 531.649 296.222 525.787 298.423C523.774 299.179 520.285 299.428 518.311 298.458C511.3 295.014 507.834 283.393 507.719 276.19C507.66 272.486 508.811 265.768 507.555 262.5C507.114 261.352 506.712 261.212 505.615 260.767C504.142 261.676 503.42 264.433 502.678 265.995C501.51 268.452 500.098 270.8 498.515 273.012C495.641 277.03 491.971 280.801 487.931 283.653C482.225 287.682 475.679 289.892 468.697 288.605C447.832 284.758 442.782 254.456 440.985 237.101L440.212 228.816C440.089 227.137 440.267 224.965 439.211 223.567L439.038 223.35C440.092 220.549 439.107 215.903 438.921 212.944L438.185 196.862C437.499 179.947 437.817 163.068 439.957 146.276C440.93 138.647 442.258 130.538 445.179 123.38C446.711 119.629 449.393 113.947 453.486 112.35C456.332 111.239 459.665 112.002 462.327 113.254C466.343 115.142 469.595 118.617 472.241 122.098C475.082 125.835 477.799 130.317 479.237 134.802C485.321 153.764 482.415 176.587 481.625 196.206C481.307 204.107 481.565 211.899 482.111 219.78C482.529 225.818 482.849 232.443 484.976 238.148C485.762 240.255 487.192 243.579 489.374 244.487C490.487 244.949 491.384 244.971 492.485 244.468C496.486 242.642 500.108 233.271 500.715 229.354C501.958 221.334 501.44 213.164 501.024 205.109L497.937 160.794C497.845 158.24 497.17 153.045 498.064 150.744C499.251 147.69 498.98 142.792 499.422 139.47C500.022 134.953 501.056 130.236 502.4 125.875C504.487 119.099 506.848 114.032 513.246 110.622Z"/>
	<path fill="#FEFEFE" d="M460.377 116.479C461.083 116.395 461.818 116.332 462.524 116.439C465.955 116.96 469.759 121.273 471.595 123.972C474.049 127.581 478.342 135.451 477.429 139.843C477.1 141.425 476.786 141.527 475.488 142.376L475.198 142.391C474.976 142.261 474.486 142.057 474.328 141.88C473.613 141.079 472.974 138.389 472.485 137.205C471.331 134.407 469.886 131.616 468.018 129.223C465.541 126.05 461.329 125.451 459.49 122.344C459.35 120.057 459.475 118.629 460.377 116.479Z"/>
	<path fill="#FEFEFE" d="M523.432 115.502L525.111 115.205C526.173 115.161 527.959 117.146 528.685 117.883C534.685 123.971 538.331 131.826 540.033 140.131C540.423 142.035 541.028 144.306 540.962 146.25C540.907 147.876 540.363 148.38 539.239 149.402L538.33 149.904C536.784 148.211 536.666 145.425 536.137 143.256C535.377 140.139 534.523 137.172 533.092 134.29C530.617 129.308 526.85 126.411 523.693 122.08C522.545 120.506 523.206 117.33 523.432 115.502Z"/>
	<path fill="#2A3034" d="M183.8 237.514C184.491 234.462 184.048 230.589 184.051 227.444L184.059 205.112L184.903 191.216L185.115 165.084L185.94 142.757L185.166 124.995C184.904 112.802 186.039 99.7522 195.01 90.5026C198.487 86.9185 202.808 84.4802 207.876 84.41C215.163 84.3092 220.685 88.6156 225.668 93.4968L230.837 97.3732C232.151 100.065 233.815 102.639 234.954 105.401C236.099 108.177 236.717 111.124 237.447 114.027L242.912 111.081C252.776 107.126 263.957 105.234 274.039 109.518C279.403 111.797 284.053 115.74 288.263 119.694L292.442 122.776C296.107 128.395 299.876 133.004 302.208 139.438C308.63 157.157 307.645 178.135 306.541 196.721C305.717 210.603 304.532 224.436 301.672 238.067C298.4 253.666 293.054 274.127 278.961 283.357C273.594 286.873 267.299 287.829 261.083 286.521L254.815 284.958L248.387 280.568L247.726 279.531L240.733 274.413C237.362 282.454 232.944 292.838 224.318 296.408C221.085 297.745 217.847 297.674 214.425 297.307L208.53 292.806C199.961 287.774 193.592 279.857 190.03 270.641C188.621 266.994 187.823 263.185 186.411 259.544L183.8 237.514ZM206.504 92.8932C201.606 93.9038 198.841 95.3621 196.003 99.6489C192.476 104.977 191.117 111.666 190.491 117.916C189.399 128.813 191.114 139.863 190.95 150.815L190.045 177.882L189.929 198.424L189.204 206.838L188.98 230.116C188.954 238.535 189.132 247.402 190.879 255.662C193.243 266.842 198.016 276.773 207.936 283.181C209.046 283.898 210.167 284.397 211.426 284.803L211.702 284.895C214.319 285.742 217.22 285.242 219.619 284.002C225.363 281.035 228.065 275.338 230.647 269.719C231.795 267.22 233.294 262.524 235.84 261.309C237.939 262.007 239.865 263.824 241.545 265.222C249.898 272.174 256.058 276.341 267.358 274.162C276.639 270.648 282.327 262.98 286.329 254.149C293.024 239.376 294.881 221.341 296.418 205.334C298.02 188.657 299.317 171.32 296.798 154.674C296.028 149.584 295.073 144.212 293.238 139.405C289.672 130.066 281.425 121.563 272.295 117.55C264.269 114.021 254.244 115.051 246.259 118.209C242.759 119.593 239.357 121.298 236.256 123.44C235.183 124.181 232.43 126.75 231.445 126.99C231.082 127.078 230.373 126.986 229.98 126.984C227.56 124.43 228.054 121.56 228.145 118.231C228.348 110.787 226.796 104.849 221.508 99.3083C217.795 95.4177 213.147 92.9834 207.719 92.8381L206.504 92.8932Z"/>
	<path fill="#EC5E31" d="M225.668 93.4968L230.837 97.3732C232.151 100.065 233.815 102.639 234.954 105.401C236.099 108.177 236.717 111.124 237.447 114.027L232.444 117.752C232.469 108.247 230.918 101.612 225.668 93.4968Z"/>
	<path fill="#EC5E31" d="M208.53 292.806C212.337 293.655 215.836 293.951 219.528 292.351C228.064 288.651 232.675 277.96 235.841 269.869L240.733 274.413C237.362 282.454 232.944 292.838 224.318 296.408C221.085 297.745 217.847 297.674 214.425 297.307L208.53 292.806Z"/>
	<path fill="#EC5E31" d="M288.263 119.694L292.442 122.776C296.107 128.395 299.876 133.004 302.208 139.438C308.63 157.157 307.645 178.135 306.541 196.721C305.717 210.603 304.532 224.436 301.672 238.067C298.4 253.666 293.054 274.127 278.961 283.357C273.594 286.873 267.299 287.829 261.083 286.521L254.815 284.958L248.387 280.568L247.726 279.531L255.085 282.27C261 283.891 267.391 283.174 272.71 280.106C285.548 272.702 291.134 256.158 294.678 242.657C299.042 226.032 300.598 208.981 301.596 191.877C302.605 174.572 303.49 155.36 298.233 138.61C297.114 135.042 295.812 131.253 293.899 128.029C292.187 125.143 289.961 122.608 288.263 119.694Z"/>
	<path fill="#EC5E31" d="M206.504 92.8932L207.719 92.8381C213.147 92.9834 217.795 95.4177 221.508 99.3083C226.796 104.849 228.348 110.787 228.145 118.231C228.054 121.56 227.56 124.43 229.98 126.984C230.373 126.986 231.082 127.078 231.445 126.99C232.43 126.75 235.183 124.181 236.256 123.44C239.357 121.298 242.759 119.593 246.259 118.209C254.244 115.051 264.269 114.021 272.295 117.55C281.425 121.563 289.672 130.066 293.238 139.405C295.073 144.212 296.028 149.584 296.798 154.674C299.317 171.32 298.02 188.657 296.418 205.334C294.881 221.341 293.024 239.376 286.329 254.149C282.327 262.98 276.639 270.648 267.358 274.162C256.058 276.341 249.898 272.174 241.545 265.222C239.865 263.824 237.939 262.007 235.84 261.309C233.294 262.524 231.795 267.22 230.647 269.719C228.065 275.338 225.363 281.035 219.619 284.002C217.22 285.242 214.319 285.742 211.702 284.895L211.426 284.803C210.167 284.397 209.046 283.898 207.936 283.181C198.016 276.773 193.243 266.842 190.879 255.662C189.132 247.402 188.954 238.535 188.98 230.116L189.204 206.838L189.929 198.424L190.045 177.882L190.95 150.815C191.114 139.863 189.399 128.813 190.491 117.916C191.117 111.666 192.476 104.977 196.003 99.6489C198.841 95.3621 201.606 93.9038 206.504 92.8932ZM241.743 143.561C236.918 146.423 235.013 150.958 233.691 156.241C233.041 158.833 233.171 161.959 233.042 164.626L232.387 180.739C231.851 196.855 230.192 213.741 231.598 229.792C231.894 233.177 232.53 237.029 234.36 239.962C235.207 241.319 236.383 242.363 237.973 242.726C239.912 243.168 241.937 242.875 243.596 241.761C244.656 241.049 245.606 240.067 246.509 239.168C248.34 237.05 250.716 234.866 252.13 232.475C257.43 223.513 259.08 211.945 259.982 201.723C260.492 195.929 260.905 190.19 260.491 184.371C259.784 174.454 258.452 164.36 254.533 155.15C253.208 152.038 251.589 148.711 248.999 146.45C246.826 144.554 244.638 143.696 241.743 143.561Z"/>
	<path fill="#FEFEFE" d="M213.343 98.9807C214.923 99.2731 216.375 99.7748 217.644 100.795C221.447 103.853 226.134 109.819 226.593 114.845C226.819 117.329 226.289 118.643 224.742 120.535C223.23 119.387 222.787 117.658 221.964 116.02C220.712 113.528 218.959 110.62 216.665 108.963C215.458 108.09 213.814 107.651 212.491 106.876C211.966 106 211.666 105.18 211.534 104.163C211.256 102.007 212.061 100.636 213.343 98.9807Z"/>
	<path fill="#FEFEFE" d="M269.674 122.44C274.977 122.795 279.81 125.641 283.396 129.438C292.41 138.984 295.321 154.218 294.906 166.99C294.824 169.505 294.703 171.576 292.755 173.4C291.833 172.421 291.096 171.49 290.829 170.143C290.294 167.449 290.592 164.331 290.529 161.569C290.363 154.307 288.258 146.403 284.166 140.342C280.293 134.605 276.313 132.135 269.531 130.842C268.325 129.719 267.803 128.989 267.737 127.228C267.666 125.351 268.45 123.792 269.674 122.44Z"/>
	<path fill="#2A3034" d="M241.743 143.561C244.638 143.696 246.826 144.554 248.999 146.45C251.589 148.711 253.208 152.038 254.533 155.15C258.452 164.36 259.784 174.454 260.491 184.371C260.905 190.19 260.492 195.929 259.982 201.723C259.08 211.945 257.43 223.513 252.13 232.475C250.716 234.866 248.34 237.05 246.509 239.168C245.606 240.067 244.656 241.049 243.596 241.761C241.937 242.875 239.912 243.168 237.973 242.726C236.383 242.363 235.207 241.319 234.36 239.962C232.53 237.029 231.894 233.177 231.598 229.792C230.192 213.741 231.851 196.855 232.387 180.739L233.042 164.626C233.171 161.959 233.041 158.833 233.691 156.241C235.013 150.958 236.918 146.423 241.743 143.561ZM252.313 164.572C249.364 173.131 249.819 182.862 249.508 191.837L248.472 225.749C250.111 222.771 251.131 219.538 251.997 216.261C255.542 202.843 257.155 185.727 254.473 172.041C253.981 169.528 253.615 166.807 252.313 164.572Z"/>
	<path fill="#EC5E31" d="M241.039 234.791C240.022 234.962 239.269 234.647 238.332 234.311C236.077 232.344 235.951 230.004 235.733 227.191C234.843 215.685 235.785 203.813 236.1 192.271C236.38 181.996 235.993 171.054 237.561 160.91C237.977 158.222 238.689 154.974 240.479 152.882C241.282 152.431 242.015 152.061 242.961 152.103C245.354 152.211 246.684 153.986 248.152 155.636C246.385 156.203 245.305 156.816 244.412 158.495C242.377 162.325 242.2 167.769 241.946 172.008L241.15 194.42C240.724 207.443 239.217 221.913 241.039 234.791Z"/>
	<path fill="#838383" d="M241.039 234.791C239.217 221.913 240.724 207.443 241.15 194.42L241.946 172.008C242.2 167.769 242.377 162.325 244.412 158.495C245.305 156.816 246.385 156.203 248.152 155.636C249.645 157.942 252.324 161.753 252.313 164.572C249.364 173.131 249.819 182.862 249.508 191.837L248.472 225.749C246.809 229.734 244.558 232.28 241.039 234.791Z"/>
	<path fill="#2A3034" d="M58.7206 293.869C56.5083 292.646 54.2932 290.767 52.444 289.053C45.3642 282.491 42.9616 272.396 42.5917 263.078C42.3936 258.088 42.9459 252.586 43.9601 247.707C46.6769 234.637 52.2413 222.166 55.1463 209.107L59.3577 187.384L66.9381 153.922C69.9373 139.409 72.4669 124.865 77.1581 110.765C80.6172 100.368 85.1263 89.1095 92.674 80.9744C97.9069 75.3343 103.788 72.1075 111.572 71.8814C121.006 71.6075 128.923 77.5879 135.365 83.7083C137.368 87.2648 139.936 90.4488 141.971 93.9846C146.51 101.87 149.852 110.568 152.576 119.238C156.108 130.485 158.717 141.964 160.859 153.55L170.065 222.018C171.734 236.033 174.319 250.385 174.707 264.484C174.833 269.056 174.446 274.497 173.196 278.918C171.07 286.434 166.407 294.564 159.35 298.414C156.206 300.128 153.145 300.576 149.621 300.339C148.267 300.248 146.899 299.827 145.552 299.947C131.196 290.45 128.07 276.029 123.962 260.485C121.195 275.643 113.628 291.638 100.594 300.562C94.2608 304.899 86.0303 307.136 78.4221 305.677C73.1281 304.662 68.5821 302.004 64.737 298.29L58.7206 293.869Z"/>
	<path fill="#EC5E31" d="M58.7206 293.869C66.3107 295.898 72.7513 297.057 80.3932 294.257C94.6524 289.032 104.939 273.135 108.823 258.971C110.207 253.923 110.756 247.546 112.944 242.878C113.302 242.778 113.661 242.701 114.035 242.691C116.939 242.612 119.484 244.784 121.434 246.67L118.408 246.611C117 247.994 116.805 250.328 116.388 252.181C115.469 256.263 114.641 260.45 113.389 264.442C108.16 281.122 94.4693 300.236 75.1925 300.032C71.5058 299.993 68.2965 299.183 64.737 298.29L58.7206 293.869Z"/>
	<path fill="#838383" d="M64.737 298.29C68.2965 299.183 71.5058 299.993 75.1925 300.032C94.4693 300.236 108.16 281.122 113.389 264.442C114.641 260.45 115.469 256.263 116.388 252.181C116.805 250.328 117 247.994 118.408 246.611L121.434 246.67C123.063 250.834 123.553 256.043 123.962 260.485C121.195 275.643 113.628 291.638 100.594 300.562C94.2608 304.899 86.0303 307.136 78.4221 305.677C73.1281 304.662 68.5821 302.004 64.737 298.29Z"/>
	<path fill="#EC5E31" d="M109.362 80.2116C111.256 80.0634 113.375 80.2577 115.234 80.633C124.472 82.4975 131.446 88.8727 136.562 96.5109C144.014 107.638 148.416 121.191 151.79 134.049C159.612 163.858 162.331 194.66 165.964 225.168L168.677 246.481C169.969 255.967 171.304 266.238 169.31 275.702C168.227 280.843 165.533 285.973 161.031 288.889C157.599 291.112 153.543 292.694 149.42 291.76C134.667 288.417 129.923 266.286 127.672 253.615C126.999 249.824 126.791 243.492 124.715 240.333C121.977 236.166 117.827 234.87 113.201 233.856C111.989 234.211 110.955 234.221 110.273 235.372C108.833 237.801 108.343 241.915 107.715 244.676C105.448 254.641 103.118 264.1 97.1408 272.599C91.8047 280.185 83.5959 285.778 74.4031 287.314C68.4684 288.306 62.2352 287.195 57.3037 283.649C52.5545 280.234 48.7246 274.414 47.77 268.598C46.8813 263.184 48.1069 255.891 49.2202 250.534C51.834 237.956 57.383 226.025 60.1764 213.475L63.9864 193.213L71.1706 161.658C74.0334 147.48 76.4843 133.292 80.6625 119.414C83.799 108.996 87.7707 98.3204 94.1705 89.4259C98.1389 83.9106 102.698 81.3032 109.362 80.2116Z"/>
	<path fill="#FEFEFE" d="M121.648 161.337C125.949 161.715 130.782 164.573 133.517 167.882C136.39 171.356 139.95 177.801 139.567 182.469C139.471 183.638 138.995 184.597 138.428 185.603L137.451 186.09C135.574 184.979 134.631 180.48 133.545 178.385C131.65 174.73 128.88 172.447 125.204 170.707C124.494 167.414 123.175 164.322 121.648 161.337Z"/>
	<path fill="#FEFEFE" d="M111.609 92.8515C118.396 92.4525 124.35 94.3497 129.84 98.3827C134.343 101.69 141.9 109.483 142.688 115.324C143.053 118.033 142.461 119.395 140.834 121.435C137.801 118.186 136.161 113.725 132.982 110.345C126.754 103.723 120.477 101.374 111.572 101.121C110.299 100.256 110.161 99.849 109.895 98.3028C109.478 95.8778 110.219 94.7123 111.609 92.8515Z"/>
	<path fill="#2A3034" d="M125.204 170.707L129.002 212.159C126.588 213.451 124.241 214.504 121.505 214.955C116.603 215.763 110.329 212.72 106.436 209.951L106.335 208.91C105.374 197.927 105.122 169.216 112.255 161.007C113.306 159.798 114.711 158.782 116.356 158.685C118.61 158.552 120.077 159.947 121.648 161.337C123.175 164.322 124.494 167.414 125.204 170.707Z"/>
	<path fill="#EC5E31" d="M115.249 205.839L110.377 203.222C109.985 195.023 110.012 186.817 111.173 178.679C111.682 175.104 112.168 171.515 113.806 168.254C115.033 167.311 115.399 167.145 116.943 167.048C118.534 167.713 119.267 168.974 120.197 170.344C117.497 174.102 116.976 177.468 116.259 181.976C115.002 189.888 114.991 197.845 115.249 205.839Z"/>
	<path fill="#838383" d="M120.197 170.344C122.939 181.559 123.599 194.837 123.007 206.349C120.434 207.029 117.718 206.81 115.249 205.839C114.991 197.845 115.002 189.888 116.259 181.976C116.976 177.468 117.497 174.102 120.197 170.344Z"/>
</svg>
