<?xml version="1.0" encoding="utf-8" ?>
<svg xmlns="http://www.w3.org/2000/svg" xmlns:xlink="http://www.w3.org/1999/xlink" width="134" height="80">
	<path fill="#293034" transform="matrix(0.134 0 0 0.133333 0 -1.52588e-05)" d="M415.634 283.401C416.307 283.283 416.366 283.347 416.993 283.645C417.646 284.958 418.294 286.289 418.76 287.681C420.609 293.214 420.445 299.176 422.121 304.558C422.573 306.011 424.33 307.819 425.231 309.094C426.499 310.887 427.492 313.114 428.14 315.214C431.525 326.167 427.043 335.69 421.922 345.121C424.772 345.102 427.357 345.409 430.176 345.619C431.234 345.698 432.372 345.451 433.385 345.825C434.464 346.225 434.675 346.664 435.151 347.645C436.956 351.369 434.617 352.604 434.466 355.999C434.425 356.928 435.873 359.278 436.124 360.467C436.546 362.469 436.062 364.714 435.866 366.736C435.527 370.243 435.646 373.472 434.461 376.86L434.378 377.091C437.46 378.763 441.008 380.436 443.431 383.012C445.558 385.273 446.973 388.388 446.817 391.538C446.745 392.993 446.129 394.158 445.024 395.088C440.711 398.713 433.441 392.777 430.14 390.301C429.708 389.977 428.012 388.462 427.575 388.396C426.412 388.219 422.064 391.13 420.65 391.66C417.813 392.723 411.979 393.75 408.972 393.407C400.985 392.496 397.808 382.85 394.279 376.863C392.611 374.032 390.556 371.435 388.552 368.836L387.939 368.772L387.776 369.82C387.354 371.671 386.692 372.72 385.046 373.718C383.155 373.939 382.72 373.42 381.104 372.491L380.578 372.986L379.4 411.152C373.839 408.796 367.128 408.701 361.191 407.643C361.923 412.397 363.598 418.85 361.975 423.478C361.432 425.027 360.229 426.625 358.699 427.297C357.165 427.971 355.003 428.091 353.468 427.402C351.245 426.404 349.58 423.848 348.817 421.618C347.342 417.31 349.434 413.159 351.356 409.395C352.091 408.192 352.786 407.054 353.271 405.72L352.766 405.412C351.572 404.665 350.289 404.093 349.253 403.116C347.363 401.333 346.031 398.903 344.014 397.255C341.902 395.531 339.17 394.621 336.945 393.035C334.877 391.56 332.869 389.409 332.504 386.79C331.83 381.956 336.609 376.554 339.311 372.843C338.263 372.5 337.099 372.451 336.005 372.306C319.645 370.145 315.391 359.376 314.413 344.49C314.254 342.069 314.588 338.071 313.911 335.849C313.414 334.22 309.732 330.676 308.552 329.125C305.819 325.532 301.592 319.837 302.227 315.134C302.934 314.26 303.661 314.033 304.719 313.774C310.311 312.405 316.577 313.073 322.162 314.301C330.673 316.173 338.938 319.351 346.522 323.633C354.395 328.078 361.676 333.686 369.417 338.405L364.141 331.545C363.315 330.316 363.215 329.678 363.519 328.316L364.746 328.128C367.03 328.862 368.742 330.903 370.421 332.55C369.302 330.348 367.7 327.882 367.536 325.386L368.408 324.633C369.088 324.766 369.721 324.956 370.326 325.305C373.645 327.22 374.745 331.838 375.789 335.24C378.285 329.647 380.237 323.741 383.204 318.373C386.761 311.941 391.894 305.878 396.779 300.43C402.356 294.209 408.476 287.821 415.634 283.401Z"/>
	<path fill="#9506FE" transform="matrix(0.134 0 0 0.133333 0 -1.52588e-05)" d="M355.7 414.727C356.532 414.785 356.97 415.245 357.648 415.704L357.965 417.657C357.228 419.311 357.002 419.546 355.514 420.586L353.271 420.627L353.049 419.365C353.736 417.517 354.39 416.21 355.7 414.727Z"/>
	<path fill="#FDCA73" transform="matrix(0.134 0 0 0.133333 0 -1.52588e-05)" d="M373.639 341.985C374.205 341.878 374.577 341.922 375.142 341.985C377.843 344.501 378.876 346.974 380.172 350.365C381.915 354.923 384.842 361.644 382.726 366.395L382.16 366.248C380.645 364.53 379.799 362.016 378.914 359.917C377.138 355.702 372 345.996 373.639 341.985Z"/>
	<path fill="#9506FE" transform="matrix(0.134 0 0 0.133333 0 -1.52588e-05)" d="M418.524 352.723C421.597 352.503 426.98 352.049 429.821 353.089C429.289 354.783 428.279 356.905 428.955 358.64L431.624 361.513L430.591 363.974C429.771 366.063 430.171 368.484 430.582 370.641L427.769 377.136C428.14 378.12 428.591 378.933 429.152 379.821L428.349 380.956C426.963 381.148 426.961 380.27 426.025 380.22C425.479 380.191 423.557 381.878 422.964 382.226C420.622 383.601 418.323 384.808 415.677 385.489C414.835 384.061 414.561 383.203 414.497 381.53C415.717 379.677 416.876 379.625 418.552 378.356C417.947 377.394 417.214 376.543 416.49 375.671C416.374 370.858 421.693 371.622 422.856 368.348L421.996 367.822C420.664 366.852 420.251 365.969 419.998 364.443C420.707 362.617 422.58 361.837 423.942 360.537C423.388 360.209 422.976 360.004 422.341 359.854C421.563 359.671 420.849 359.573 420.186 359.088C418.563 357.899 418.739 354.665 418.524 352.723Z"/>
	<path fill="#9506FE" transform="matrix(0.134 0 0 0.133333 0 -1.52588e-05)" d="M351.488 370.404C353.682 370.865 356.98 371.072 358.246 373.079C358.713 373.82 358.847 374.428 358.643 375.31C357.659 379.561 352.212 381.25 352.783 386.217C355.49 389.518 361.399 387.599 360.936 393.247L360.344 396.699C362.399 395.825 367.266 393.137 369.404 394.019C371.913 395.054 372.845 398.482 374.453 400.479C374.551 401.179 374.397 401.815 374.268 402.5C371.92 402.657 369.362 402.074 367.019 401.753C362.291 401.105 354.675 400.713 350.83 397.719C349.443 396.639 348.295 394.914 347.101 393.618C344.292 390.568 341.289 388.844 337.654 387.003C340.891 380.294 345.981 375.26 351.488 370.404Z"/>
	<path fill="#9506FE" transform="matrix(0.134 0 0 0.133333 0 -1.52588e-05)" d="M408.436 298.447L416.113 292.154C416.629 294.721 417.207 297.339 417.416 299.95C417.545 301.562 416.944 304.557 417.349 305.936C418.269 309.07 421.718 312.576 423.437 315.378C423.874 316.09 425.021 317.932 425.107 318.739C425.221 319.817 424.734 321.683 424.557 322.817C423.4 330.213 419.365 337.78 415.304 343.981L414.478 345.141C412.52 345.331 410.52 345.63 408.558 345.438C411.487 342.704 413.861 340.364 414.949 336.371L414.455 335.639C412.977 336.248 412.032 336.667 410.4 336.257C409.202 335.038 408.952 334.853 408.63 333.198C409.46 330.773 412.839 328.957 414.369 326.771C414.935 325.961 415.608 324.333 415.425 323.363C415.116 321.722 414.337 320.498 412.903 319.601C410.495 318.095 408.506 319.164 406.006 319.624C404.247 319.947 403.68 319.928 402.214 318.921C401.994 318.471 401.539 317.799 401.438 317.331C401.116 315.854 406.423 308.405 407.135 306.584C408.187 303.895 408.346 301.289 408.436 298.447Z"/>
	<path fill="#9506FE" transform="matrix(0.134 0 0 0.133333 0 -1.52588e-05)" d="M356.037 358.147L345.283 366.187L332.916 365.03C329.858 364.535 326.28 363.672 323.832 361.678C317.993 356.922 318.596 346.626 318.775 339.857C318.804 338.762 319.279 335.738 318.945 334.82C318.301 333.052 314.767 330.01 313.422 328.412C311.386 325.994 309.581 323.331 307.742 320.76C310.794 320.73 313.763 321.149 316.78 321.547C318.137 322.866 319.531 324.3 321.087 325.382C323.022 326.727 326.285 327.933 327.115 330.269C326.843 332.314 324.637 333.778 325.195 335.361C327.506 336.681 330.7 336.872 332.268 339.056C332.409 340.338 332.641 340.79 331.791 341.859C331.256 342.531 330.205 342.853 329.44 343.183C326.711 344.36 326.373 345.023 325.966 347.844C326.484 348.934 326.703 349.541 327.978 349.931C331.329 350.957 334.17 348.945 336.733 352.238L337.05 357.313C340.573 359.89 351.293 357.302 356.037 358.147Z"/>
	<path fill="#FDCA73" transform="matrix(0.134 0 0 0.133333 0 -1.52588e-05)" d="M351.488 370.404C355.004 367.576 358.62 364.781 362.722 362.842C366.334 361.135 370.438 360.081 374.259 358.916C375.029 360.787 376.57 363.548 376.713 365.527C376.98 369.251 375.775 373.925 375.444 377.719L374.453 400.479C372.845 398.482 371.913 395.054 369.404 394.019C367.266 393.137 362.399 395.825 360.344 396.699L360.936 393.247C361.399 387.599 355.49 389.518 352.783 386.217C352.212 381.25 357.659 379.561 358.643 375.31C358.847 374.428 358.713 373.82 358.246 373.079C356.98 371.072 353.682 370.865 351.488 370.404Z"/>
	<path fill="#FDCA73" transform="matrix(0.134 0 0 0.133333 0 -1.52588e-05)" d="M415.677 385.489C412.07 386.035 408.733 386.224 405.088 386.087C400.534 382.529 397.653 374.294 394.285 369.447C392.318 366.614 389.068 363.821 387.581 360.794C386.672 358.945 386.351 356.372 385.932 354.347C396.673 352.748 407.697 353.032 418.524 352.723C418.739 354.665 418.563 357.899 420.186 359.088C420.849 359.573 421.563 359.671 422.341 359.854C422.976 360.004 423.388 360.209 423.942 360.537C422.58 361.837 420.707 362.617 419.998 364.443C420.251 365.969 420.664 366.852 421.996 367.822L422.856 368.348C421.693 371.622 416.374 370.858 416.49 375.671C417.214 376.543 417.947 377.394 418.552 378.356C416.876 379.625 415.717 379.677 414.497 381.53C414.561 383.203 414.835 384.061 415.677 385.489Z"/>
	<path fill="#FDCA73" transform="matrix(0.134 0 0 0.133333 0 -1.52588e-05)" d="M408.436 298.447C408.346 301.289 408.187 303.895 407.135 306.584C406.423 308.405 401.116 315.854 401.438 317.331C401.539 317.799 401.994 318.471 402.214 318.921C403.68 319.928 404.247 319.947 406.006 319.624C408.506 319.164 410.495 318.095 412.903 319.601C414.337 320.498 415.116 321.722 415.425 323.363C415.608 324.333 414.935 325.961 414.369 326.771C412.839 328.957 409.46 330.773 408.63 333.198C408.952 334.853 409.202 335.038 410.4 336.257C412.032 336.667 412.977 336.248 414.455 335.639L414.949 336.371C413.861 340.364 411.487 342.704 408.558 345.438L383.255 347.689L380.144 340.484C381.992 334.998 384.054 329.406 386.901 324.351C392.45 314.498 400.304 306.192 408.436 298.447Z"/>
	<path fill="#FDCA73" transform="matrix(0.134 0 0 0.133333 0 -1.52588e-05)" d="M316.78 321.547C336.814 324.945 351.914 334.458 369.094 344.543C369.851 346.698 371.513 349.954 371.553 352.174C366.167 353.901 361.15 355.716 356.037 358.147C351.293 357.302 340.573 359.89 337.05 357.313L336.733 352.238C334.17 348.945 331.329 350.957 327.978 349.931C326.703 349.541 326.484 348.934 325.966 347.844C326.373 345.023 326.711 344.36 329.44 343.183C330.205 342.853 331.256 342.531 331.791 341.859C332.641 340.79 332.409 340.338 332.268 339.056C330.7 336.872 327.506 336.681 325.195 335.361C324.637 333.778 326.843 332.314 327.115 330.269C326.285 327.933 323.022 326.727 321.087 325.382C319.531 324.3 318.137 322.866 316.78 321.547Z"/>
	<path fill="#293034" transform="matrix(0.134 0 0 0.133333 0 -1.52588e-05)" d="M125.96 370.634C149.128 393.721 172.637 428.156 166.484 462.55L163.604 475.997C163.161 477.756 161.842 480.8 162.354 482.474L164.38 478.169C165.936 475.383 171.043 468.006 173.828 467.188C174.951 468.016 175.397 468.853 175.537 470.291C175.902 474.032 171.701 477.427 169.55 480.146C171.085 481.106 171.477 481.398 172.337 483.076C173.323 483.208 173.494 482.9 174.279 482.358C181.217 477.565 188.43 472.691 195.879 468.725C202.335 465.288 209.194 462.574 215.907 459.685L246.514 446.949C253.319 444.309 260.305 440.979 267.334 439.11C269.798 440.185 272.398 439.028 274.899 438.553C280.037 437.578 286.067 435.855 291.26 436.073C291.928 437.324 291.99 439.1 291.747 440.485C291.535 441.691 291.046 443.102 290.201 444.002C288.113 446.225 284.442 447.94 281.982 449.828L264.526 464.112C257.231 470.171 249.571 476.054 242.823 482.724C235.87 489.596 229.713 497.234 222.486 503.837C220.082 506.033 217.536 507.868 214.844 509.683C213.642 510.494 211.698 511.441 210.823 512.522C210.193 513.302 209.928 515.109 209.639 516.122C208.835 518.936 208.051 521.951 206.505 524.457C204.31 528.014 201.36 530.101 198.347 532.832C191.215 539.296 184.113 545.186 176.182 550.655C173.838 551.912 171.036 553.249 169.153 555.16C161.699 562.727 162.366 576.017 157.392 585.056C155.795 587.958 152.96 590.547 149.719 591.444C147.436 592.076 144.975 591.905 142.918 590.685C140.857 589.462 139.192 587.162 138.703 584.809C136.692 575.131 147.686 561.267 152.419 553.487C151.938 552.658 151.143 552.108 150.438 551.476C147.029 548.425 145.863 544.493 144.804 540.139C142.334 529.986 142.601 520.538 142.048 510.251L115.18 532.557C114.134 531.611 113.045 530.613 111.822 529.898C106.279 526.659 97.7254 531.38 92.1602 532.847C90.6141 533.254 87.8567 531.36 86.4972 530.568C80.8421 531.452 73.8932 532.082 69.5761 536.209C66.9073 538.76 64.7878 541.889 62.0992 544.424C59.0537 547.297 54.7168 549.91 50.3918 549.731C47.6018 549.616 45.5616 547.557 43.8333 545.587C41.6303 543.076 40.9983 540.562 41.266 537.244C41.4895 534.473 41.9271 531.485 43.504 529.127C45.7075 525.832 49.2828 524.265 52.6684 522.489C56.3141 520.577 59.7197 518.735 62.8606 516.029L62.8011 514.693C62.2198 510.77 64.6493 507.295 67.1586 504.451C67.3667 504.215 68.6176 502.948 68.6346 502.819C68.7293 502.103 67.5694 500.07 67.259 499.353C66.4595 497.507 66.0909 495.827 66.2045 493.812C66.553 487.629 70.8105 483.978 75.1483 480.108C74.6125 476.996 74.6526 473.338 76.568 470.657C80.4748 465.188 88.6489 464.085 94.8199 462.982C93.7823 458.653 91.5743 452.666 91.8818 448.271C92.0712 445.563 93.6825 444.218 94.7312 441.903C96.5763 437.829 97.9298 433.554 99.8911 429.518C102.318 424.522 105.598 419.877 109.149 415.62L114.186 410.149C114.548 409.774 115.814 408.738 115.977 408.308C117.04 405.5 117.009 400.866 117.633 397.724C119.465 388.491 122.146 379.238 125.96 370.634Z"/>
	<path fill="#9506FE" transform="matrix(0.134 0 0 0.133333 0 -1.52588e-05)" d="M53.0787 533.388C54.3209 534.543 55.5904 535.638 56.5742 537.029L53.29 538.48C51.5619 539.107 50.5013 539.012 48.8699 538.242L49.0121 536.134C50.0212 534.838 51.6571 534.162 53.0787 533.388Z"/>
	<path fill="#9506FE" transform="matrix(0.134 0 0 0.133333 0 -1.52588e-05)" d="M151.062 573.881C151.663 574.167 152.366 575.091 152.846 575.59C152.961 577.253 152.87 578.403 151.708 579.74C150.661 580.946 149.176 580.942 147.705 581.022L147.514 580.962C146.344 580.486 146.019 580.414 145.498 579.251C146.102 577.255 149.458 575.21 151.062 573.881Z"/>
	<path fill="#FDCA73" transform="matrix(0.134 0 0 0.133333 0 -1.52588e-05)" d="M53.0787 533.388L66.4308 526.597C64.8838 527.95 63.2192 529.324 61.9223 530.924C60.3051 532.918 58.7788 535.632 56.5742 537.029C55.5904 535.638 54.3209 534.543 53.0787 533.388Z"/>
	<path fill="#FDCA73" transform="matrix(0.134 0 0 0.133333 0 -1.52588e-05)" d="M160.496 494.148C159.425 496.852 157.519 499.377 156.006 501.856C154.035 505.084 152.261 508.551 149.742 511.391L148.923 510.903C150.513 502.798 154.01 498.875 160.496 494.148Z"/>
	<path fill="#9506FE" transform="matrix(0.134 0 0 0.133333 0 -1.52588e-05)" d="M253.531 457.159C257.013 454.356 262.347 452.643 266.625 451.438L237.33 476.717C237.284 473.289 236.518 467.796 238.755 464.929C240.884 462.199 245.774 462.229 249.034 461.732C250.812 460.321 252.204 459.006 253.531 457.159Z"/>
	<path fill="#9506FE" transform="matrix(0.134 0 0 0.133333 0 -1.52588e-05)" d="M198.714 511.389C200.643 511.554 202.709 511.596 204.595 512.02C204.06 514.049 203.574 516.257 202.3 517.97C200.613 520.239 197.533 522.304 195.384 524.17C188.993 529.716 183.126 535.309 175.794 539.658C175.201 540.011 174.65 540.227 173.996 540.437L174.189 539.723C175.759 534.597 181.177 534.025 185.316 531.707C191.723 528.12 189.141 523.378 190.911 517.797C191.922 514.608 195.962 512.927 198.714 511.389Z"/>
	<path fill="#9506FE" transform="matrix(0.134 0 0 0.133333 0 -1.52588e-05)" d="M232.884 481.266C231.233 483.789 228.876 485.955 226.775 488.113C220.499 494.561 214.474 499.203 206.787 503.858C205.737 503.263 205.628 502.206 204.834 501.576C204.362 501.203 202.925 500.864 202.308 500.687C204.846 497.096 209.194 497.448 212.661 495.317L212.93 495.149C215.434 493.624 215.673 490.894 216.868 488.446C218.627 484.845 229.028 482.728 232.884 481.266Z"/>
	<path fill="#FDCA73" transform="matrix(0.134 0 0 0.133333 0 -1.52588e-05)" d="M173.996 540.437C172.679 542.055 169.55 543.414 167.861 544.893C166.045 546.483 164.664 548.656 163.026 550.448C161.914 550.764 160.885 551.083 159.72 551.11C159.045 545.964 156.77 544.555 153.037 541.473C149.232 538.333 148.5 527.833 148.072 523.06C153.746 519.758 155.838 515.894 158.973 510.303C172.482 509.52 185.265 510.172 198.714 511.389C195.962 512.927 191.922 514.608 190.911 517.797C189.141 523.378 191.723 528.12 185.316 531.707C181.177 534.025 175.759 534.597 174.189 539.723L173.996 540.437Z"/>
	<path fill="#FDCA73" transform="matrix(0.134 0 0 0.133333 0 -1.52588e-05)" d="M202.308 500.687C200.513 501.155 198.162 500.712 196.314 500.566L184.288 499.566C178.533 499.196 172.86 499.021 167.093 499.276C170.51 495.37 174.421 493.228 178.689 490.401C185.37 485.976 192.029 481.481 199.169 477.819C206.745 473.935 214.849 470.852 222.622 467.358C231.351 463.433 241.237 458.522 250.54 456.157C251.844 455.825 252.43 456.505 253.531 457.159C252.204 459.006 250.812 460.321 249.034 461.732C245.774 462.229 240.884 462.199 238.755 464.929C236.518 467.796 237.284 473.289 237.33 476.717C235.9 478.263 234.502 479.916 232.884 481.266C229.028 482.728 218.627 484.845 216.868 488.446C215.673 490.894 215.434 493.624 212.93 495.149L212.661 495.317C209.194 497.448 204.846 497.096 202.308 500.687Z"/>
	<path fill="#FDCA73" transform="matrix(0.134 0 0 0.133333 0 -1.52588e-05)" d="M122.689 481.888C130.373 485.87 137.139 490.038 143.878 495.508C142.133 498.62 136.921 501.941 134.144 504.216L113.014 521.38C106.189 522.221 97.6125 525.133 91.1511 522.056C89.3052 520.512 87.4943 518.868 86.0542 516.928C84.4927 514.824 83.4722 512.653 83.9128 509.982C84.1811 508.355 84.8804 507.364 86.1816 506.404C89.143 505.854 90.2339 507.675 92.8234 508.044C93.8719 508.194 95.125 507.741 95.8743 506.998C96.8161 506.063 97.3343 504.416 97.0203 503.092C96.8813 502.505 95.7771 501.242 95.4249 500.661C93.7208 497.85 92.6371 493.936 93.0848 490.638C93.3688 488.545 94.3425 486.847 96.0549 485.599C100.544 482.329 107.471 483.737 112.287 485.412C114.128 486.053 116.364 487.187 118.251 487.412C119.42 487.551 120.319 487.108 121.202 486.362C122.549 485.224 122.566 483.506 122.689 481.888Z"/>
	<path fill="#9506FE" transform="matrix(0.134 0 0 0.133333 0 -1.52588e-05)" d="M91.1511 522.056C88.9304 522.114 86.9039 520.773 84.9916 519.764C78.5702 520.808 72.8881 522.459 67.319 525.852C68.8815 524.118 71.5786 521.723 72.4514 519.588C73.0793 518.052 73.2028 514.817 72.5463 513.306L72.1587 512.341C72.0994 512.187 71.9349 512.04 71.9756 511.88C72.0254 511.684 73.2974 510.494 73.5151 510.249C74.8395 508.759 76.0311 506.996 76.4036 505.004C77.1512 501.004 74.4723 497.563 72.3308 494.504C75.2313 491.717 81.0969 488.378 82.6896 484.705C83.5189 482.793 83.1354 480.224 82.4393 478.334L82.2754 477.901C84.0101 474.589 93.7255 474.596 97.168 473.099C100.091 471.827 100.176 468.755 100.252 465.989C100.38 461.27 98.8609 456.872 98.834 452.279C98.7737 441.987 106.855 430.225 113.234 422.73C115.016 420.637 116.945 418.914 119.096 417.202C119.753 416.679 121.442 415.687 121.868 415.045C122.387 414.263 121.967 407.778 122.072 406.428C122.654 398.935 124.706 391.372 127.125 384.287C136.886 395.082 146.451 406.262 152.874 419.451C163.427 438.139 163.111 455.912 157.512 476.095C155.955 481.709 154.575 489.381 149.364 492.64L149.123 492.767C140.287 483.176 129.354 477.303 117.697 471.852L112.793 469.757C111.568 469.431 110.491 470.105 109.509 470.757C109.026 472.168 109.03 472.719 109.711 474.138C111.6 478.074 118.984 479.802 122.689 481.888C122.566 483.506 122.549 485.224 121.202 486.362C120.319 487.108 119.42 487.551 118.251 487.412C116.364 487.187 114.128 486.053 112.287 485.412C107.471 483.737 100.544 482.329 96.0549 485.599C94.3425 486.847 93.3688 488.545 93.0848 490.638C92.6371 493.936 93.7208 497.85 95.4249 500.661C95.7771 501.242 96.8813 502.505 97.0203 503.092C97.3343 504.416 96.8161 506.063 95.8743 506.998C95.125 507.741 93.8719 508.194 92.8234 508.044C90.2339 507.675 89.143 505.854 86.1816 506.404C84.8804 507.364 84.1811 508.355 83.9128 509.982C83.4722 512.653 84.4927 514.824 86.0542 516.928C87.4943 518.868 89.3052 520.512 91.1511 522.056Z"/>
	<path fill="#FDCA73" transform="matrix(0.134 0 0 0.133333 0 -1.52588e-05)" d="M117.697 471.852C117.801 470.189 117.612 468.148 118.755 466.846C120.818 466.301 122.978 468.118 125.244 468.186C126.78 467.587 127.368 467.239 128.244 465.844C128.877 464.835 128.452 463.046 127.782 462.123C126.596 460.489 124.585 459.035 123.106 457.64C118.753 453.532 114.168 448.391 112.768 442.446C112.358 440.709 112.321 439.507 113.284 437.917C118.82 433.209 127.13 442.316 132.568 442.62C133.361 442.338 134.098 442.085 134.663 441.428C137.828 437.747 132.944 433.595 131.293 430.32C130.376 428.501 129.875 426.105 129.826 424.077C129.785 422.433 129.879 420.854 131.104 419.623C135.704 414.998 143.308 422.764 148.145 422.455C150.402 422.311 151.463 421.019 152.874 419.451C163.427 438.139 163.111 455.912 157.512 476.095C155.955 481.709 154.575 489.381 149.364 492.64L149.123 492.767C140.287 483.176 129.354 477.303 117.697 471.852Z"/>
	<path fill="#293034" transform="matrix(0.134 0 0 0.133333 0 -1.52588e-05)" d="M737.146 30.3272L802.163 31.8013L801.871 63.9834L821.906 63.9716L821.106 113.346C819.194 113.729 816.488 113.189 814.515 113.07L802.749 112.676L802.322 178.688C801.618 193.949 799.518 209.779 800.504 225.048C800.859 230.559 801.832 236.384 804.74 241.172C809.459 248.939 817.662 250.826 825.863 252.929L823.08 291.039C797.819 289.031 764.418 290.515 745.255 270.951C739.168 264.736 735.636 257.008 734.206 248.479C732.522 238.432 733.695 228.098 734.143 217.982L735.277 187.29L736.281 110.483L715.27 110.124L715.33 62.0777L736.853 62.8116L737.146 30.3272Z"/>
	<path fill="#EC5E31" transform="matrix(0.134 0 0 0.133333 0 -1.52588e-05)" d="M743.447 43.3547L795.519 44.056L795.757 76.2285L814.944 76.6686L814.485 100.48L795.976 99.9867L796.591 123.432L796.765 156.039L795.044 192.596C794.099 210.443 791.552 231.137 798.936 248.012C802.701 256.618 810.013 260.7 818.353 263.933L818.458 265.294L817.898 273.575C817.841 274.374 817.946 276.115 817.667 276.81C817.586 277.012 816.849 277.554 816.65 277.735L816.192 277.737C810.369 277.731 804.285 276.997 798.471 276.501C781.826 275.08 761.662 273.407 749.262 260.826C745.298 256.805 741.687 251.053 740.668 245.435C739.791 240.603 739.915 235.374 739.922 230.468L741.638 193.335L742.701 98.1283L722.031 97.505L721.963 75.0994L742.954 75.3508L743.447 43.3547Z"/>
	<path fill="#293034" transform="matrix(0.134 0 0 0.133333 0 -1.52588e-05)" d="M445.704 61.2318L446.524 61.1501C471.934 60.3133 498.099 68.9072 516.865 86.4204C531.398 99.9835 532.045 118.118 532.665 136.767L532.753 171.659C532.55 204.087 532.327 251.679 508.72 276.735C497.986 288.127 484.938 292.101 469.57 292.498C464.911 292.522 460.354 291.898 455.726 291.457C438.704 289.834 419.668 286.368 406.257 274.963C391.635 262.528 388.439 237.381 386.189 219.354L383.032 188.22C380.803 161.091 380.074 132.115 388.545 105.94C391.373 97.2017 395.293 88.5126 401.305 81.4768C412.622 68.2314 428.75 62.6227 445.704 61.2318ZM446.572 73.9191C431.291 75.1561 415.051 79.9433 404.724 92.0478C399.925 97.6733 396.798 104.734 394.408 111.681C385.517 137.524 387.628 165.962 389.863 192.743C391.16 208.28 392.807 223.69 396.493 238.871C397.683 243.773 398.834 248.995 401.118 253.513C403.027 257.288 405.707 260.609 408.926 263.347C424.471 276.569 449.144 278.831 468.71 279.717C482.86 279.524 495.144 276.303 505.252 265.852C524.816 245.622 525.439 210.573 526.162 184.128L526.265 138.534C525.983 124.293 526.076 109.394 515.108 98.8433C498.005 82.3928 473.989 73.3199 450.285 73.8033L446.572 73.9191Z"/>
	<path fill="#EC5E31" transform="matrix(0.134 0 0 0.133333 0 -1.52588e-05)" d="M446.572 73.9191L450.285 73.8033C473.989 73.3199 498.005 82.3928 515.108 98.8433C526.076 109.394 525.983 124.293 526.265 138.534L526.162 184.128C525.439 210.573 524.816 245.622 505.252 265.852C495.144 276.303 482.86 279.524 468.71 279.717C449.144 278.831 424.471 276.569 408.926 263.347C405.707 260.609 403.027 257.288 401.118 253.513C398.834 248.995 397.683 243.773 396.493 238.871C392.807 223.69 391.16 208.28 389.863 192.743C387.628 165.962 385.517 137.524 394.408 111.681C396.798 104.734 399.925 97.6733 404.724 92.0478C415.051 79.9433 431.291 75.1561 446.572 73.9191ZM459.725 97.7013C455.432 99.0648 452.59 101.005 450.452 105.072C447.974 109.786 447.186 115.245 446.562 120.478C444.121 140.952 444.575 161.84 444.055 182.431L443.163 211.532C442.862 221.174 441.979 232.372 444.887 241.668C446.072 245.455 448.966 251.091 452.696 252.943C453.319 253.252 453.975 253.42 454.634 253.629L455.396 253.9L455.878 254.065C459.239 253.552 461.226 252.694 463.25 249.864C465.767 246.346 466.894 241.248 467.593 237.028C468.792 229.785 469.145 222.363 469.759 215.053C471.896 189.623 472.072 164.23 472.068 138.727C472.066 129.908 473.088 119.873 471.496 111.253C470.689 106.883 468.661 101.856 464.89 99.2372C463.176 98.0467 461.738 97.8523 459.725 97.7013Z"/>
	<path fill="#293034" transform="matrix(0.134 0 0 0.133333 0 -1.52588e-05)" d="M459.725 97.7013C461.738 97.8523 463.176 98.0467 464.89 99.2372C468.661 101.856 470.689 106.883 471.496 111.253C473.088 119.873 472.066 129.908 472.068 138.727C472.072 164.23 471.896 189.623 469.759 215.053C469.145 222.363 468.792 229.785 467.593 237.028C466.894 241.248 465.767 246.346 463.25 249.864C461.226 252.694 459.239 253.552 455.878 254.065L455.396 253.9L454.634 253.629C453.975 253.42 453.319 253.252 452.696 252.943C448.966 251.091 446.072 245.455 444.887 241.668C441.979 232.372 442.862 221.174 443.163 211.532L444.055 182.431C444.575 161.84 444.121 140.952 446.562 120.478C447.186 115.245 447.974 109.786 450.452 105.072C452.59 101.005 455.432 99.0648 459.725 97.7013ZM458.311 111.066C455.564 112.853 454.449 114.395 453.746 117.615C451.622 127.352 451.457 137.728 451.188 147.655L450.37 185.571C449.975 200.216 448.295 215.892 449.545 230.475C449.778 233.184 450.487 236.161 451.979 238.469C452.92 239.924 454.184 240.828 455.913 241.121L456.787 241.224C458.632 240.448 459.666 239.424 460.401 237.576C462.539 232.197 462.573 224.323 463.065 218.572C465.447 190.743 465.736 163.011 465.704 135.101L465.674 121.308C465.653 119.004 465.903 116.285 465.022 114.129C464.348 112.48 463.206 111.625 461.67 110.83C460.48 110.773 459.461 110.691 458.311 111.066Z"/>
	<path fill="#293034" transform="matrix(0.134 0 0 0.133333 0 -1.52588e-05)" d="M556.126 60.564L624.999 61.449L625.214 186.609L625.987 223.394C626.157 228.704 625.931 234.399 626.656 239.648C626.967 241.902 627.999 245.074 629.479 246.836C630.088 247.562 631.081 248.402 632.04 248.483C635.465 248.772 637.596 246.574 640.046 244.532L640.012 61.8713L708.013 62.1322L707.582 107.331L707.473 284.173L665.678 283.602L654.281 283.585C652.55 283.591 650.476 283.381 648.779 283.721C645.984 284.281 642.72 286.358 639.976 287.396C628.481 291.747 617.253 295.556 604.803 295.573C592.217 295.59 580.347 291.673 571.337 282.659C564.639 275.958 560.695 267.04 559.079 257.79C557.492 248.71 558.22 238.961 558.253 229.769L558.238 188.171L556.126 60.564Z"/>
	<path fill="#EC5E31" transform="matrix(0.134 0 0 0.133333 0 -1.52588e-05)" d="M562.858 73.4112L618.583 74.0384C619.286 75.86 618.859 78.9481 618.871 80.9602L618.939 99.5976L619.136 198.652C619.293 211.146 618.576 223.832 619.599 236.283C620.004 241.218 620.771 246.604 622.571 251.229C624.313 255.709 626.911 259.232 631.348 261.243C631.747 261.424 632.103 261.607 632.554 261.617C636.249 261.701 640.827 258.073 643.3 255.642C644.125 254.83 645.908 253.288 646.203 252.198C646.931 249.508 646.226 244.61 646.207 241.746L646.142 212.12L646.238 74.2236L701.56 75.0895L701.554 95.4434L701.121 271.225L664.15 271.088C659.122 271.079 652.798 270.358 647.904 271.19C644.894 271.702 641.555 273.85 638.661 274.981C628.722 278.863 617.238 282.63 606.494 282.795C594.544 282.979 582.698 279.721 574.016 271.176C569.189 266.426 566.371 260.497 565.28 253.849C564.006 246.085 564.525 237.861 564.678 230.019L564.91 200.108L563.108 130.434L562.858 73.4112Z"/>
	<path fill="#293034" transform="matrix(0.134 0 0 0.133333 0 -1.52588e-05)" d="M863.956 304.348L869.506 304.184C893.324 303.877 921.12 314.607 938.177 331.329C956.352 349.146 958.846 373.985 959.051 398.202C951.329 397.172 942.731 397.864 934.911 397.877L885.728 398.398C885.062 390.418 886.943 379.585 882.193 372.742C880.415 370.179 877.7 367.718 874.512 367.203C872.31 366.848 869.93 367.112 868.083 368.424C865.959 369.935 864.664 372.371 864.343 374.939C863.599 380.897 865.67 386.27 868.21 391.538C871.715 398.81 876.473 405.516 882.977 410.411C887.076 413.497 892.236 415.803 896.878 417.958C913.752 425.79 932.351 431.449 944.028 446.923C956.156 462.994 959.693 488.252 956.935 507.696C954.02 528.252 944.452 550.815 927.392 563.501C907.726 578.125 882.241 577.204 859.213 573.879C842.934 570.712 823.718 565.291 811.346 553.694C800.747 543.757 797.222 531.995 794.674 518.119C791.841 502.696 791.578 486.716 791.111 471.074L831.97 470.699C840.066 470.597 849.141 469.394 857.038 470.976L855.5 494.392C855.66 500.157 856.456 507.538 860.981 511.657C862.906 513.408 865.736 514.502 868.349 514.32C875.782 513.804 885.915 508.57 890.688 502.919C893.319 499.803 893.545 495.758 893.172 491.835C891.044 469.478 860.847 468.64 844.34 462.472C831.853 457.806 820.282 451.429 810.02 442.88C796.929 431.973 785.808 416.316 784.291 398.881C783.643 391.439 784.718 384.78 786.128 377.538C789.448 360.49 796.02 341.055 807.412 327.614C820.932 311.661 844.043 306.075 863.956 304.348Z"/>
	<path fill="#FDCA73" transform="matrix(0.134 0 0 0.133333 0 -1.52588e-05)" d="M860.761 317.041C885.553 315.229 910.44 323.287 929.954 338.63C945.289 350.688 949.824 366.686 952.065 385.23L892.094 385.573C891.869 376.915 891.086 368.088 885.748 360.9C883.347 357.667 879.611 354.937 875.54 354.394C872.064 353.931 869.405 354.924 866.684 357.032C861.176 361.301 858.631 367.772 857.769 374.501C856.66 383.158 858.776 391.468 862.242 399.349C865.489 406.732 869.579 413.272 875.601 418.727C888.848 430.727 907.345 434.566 922.607 443.309C928.208 446.518 934.021 450.611 938.01 455.749C948.954 469.845 952.886 488.633 950.585 506.142C948.372 522.988 940.302 540.841 926.528 551.289C908.527 564.944 884.667 564.732 863.37 561.758C846.861 558.695 827.586 553.606 814.957 541.969C799.462 527.691 799.103 503.002 798.242 483.516L849.184 482.767L849.365 502.129C850.115 509.596 851.951 519.168 858.109 524.088C861.492 526.792 865.135 527.21 869.35 526.722C877.548 525.775 888.884 519.462 893.88 512.949C899.466 505.669 900.758 495.249 899.56 486.347C898.883 481.32 897.338 475.39 894.521 471.167C885.252 457.272 864.683 456.105 850.204 451.208C837.696 446.978 825.47 440.569 815.029 432.486C804.335 424.207 792.788 410.995 791.156 397.02C789.417 382.121 794.919 365.989 801.273 352.75C803.454 348.205 805.711 343.455 808.906 339.518C820.903 324.736 842.577 318.916 860.761 317.041Z"/>
	<path fill="#293034" transform="matrix(0.134 0 0 0.133333 0 -1.52588e-05)" d="M211.626 15.0052C225.088 18.254 239.708 17.5509 253.46 17.5838L281.437 17.9941L280.765 66.52C289.811 62.9461 299.184 60.0608 308.885 58.9703C320.114 57.7081 331.86 61.1053 340.688 68.2002C353.905 78.8214 358.439 95.5912 360.149 111.83C361.296 122.723 361.5 133.533 361.805 144.466L362.822 186.367L363.174 231.762C363.067 240.281 363.34 249.514 361.617 257.88C359.897 266.232 356.249 272.549 350.911 279.125C343.55 287.042 333.195 291.501 322.625 292.982C306.555 295.234 291.879 290.211 279.16 280.645L279.021 286.131L211.123 284.045L211.626 15.0052ZM218.024 28.7641L217.503 213.478L217.37 257.371L217.366 267.11C217.365 268.663 217.134 270.557 217.596 272.023L272.978 273.063L273.042 260.444C283.781 272.002 296.312 280.054 312.581 280.663C324.407 281.106 335.708 278.099 344.977 270.62C352.322 263.886 356.112 256.113 356.549 246.009L356.178 170.377L354.981 130.694C354.578 122.79 354.307 114.368 352.73 106.589C350.981 97.9612 348.349 90.1326 342.266 83.5603C335.607 76.3652 326.7 72.1208 316.853 71.7856C301.542 71.2643 288.293 75.9877 274.491 82.1508L274.868 30.5825C273.325 29.8604 270.339 30.2325 268.543 30.1931L249.059 29.7919L218.024 28.7641Z"/>
	<path fill="#EC5E31" transform="matrix(0.134 0 0 0.133333 0 -1.52588e-05)" d="M218.024 28.7641L249.059 29.7919L268.543 30.1931C270.339 30.2325 273.325 29.8604 274.868 30.5825L274.491 82.1508C288.293 75.9877 301.542 71.2643 316.853 71.7856C326.7 72.1208 335.607 76.3652 342.266 83.5603C348.349 90.1326 350.981 97.9612 352.73 106.589C354.307 114.368 354.578 122.79 354.981 130.694L356.178 170.377L356.549 246.009C356.112 256.113 352.322 263.886 344.977 270.62C335.708 278.099 324.407 281.106 312.581 280.663C296.312 280.054 283.781 272.002 273.042 260.444L272.978 273.063L217.596 272.023C217.134 270.557 217.365 268.663 217.366 267.11L217.37 257.371L217.503 213.478L218.024 28.7641ZM275.052 97.3963C273.931 99.0971 274.361 102.591 274.345 104.638L274.252 123.341L273.616 208.104L273.296 233.557C273.261 236.623 272.757 240.554 273.226 243.508C273.591 245.805 278.024 249.355 279.992 250.548C282.291 251.943 285.134 252.799 287.816 252.073C289.674 251.57 291.631 250.165 292.855 248.701C295.766 244.21 296.815 239.486 297.517 234.259C299.549 219.124 298.476 202.817 298.391 187.537C298.268 165.379 300.097 141.735 295.418 119.965C293.751 112.209 290.795 103.052 283.706 98.6173C281.371 97.1567 278.249 96.5529 275.544 97.2545L275.052 97.3963Z"/>
	<path fill="#293034" transform="matrix(0.134 0 0 0.133333 0 -1.52588e-05)" d="M275.052 97.3963L275.544 97.2545C278.249 96.5529 281.371 97.1567 283.706 98.6173C290.795 103.052 293.751 112.209 295.418 119.965C300.097 141.735 298.268 165.379 298.391 187.537C298.476 202.817 299.549 219.124 297.517 234.259C296.815 239.486 295.766 244.21 292.855 248.701C291.631 250.165 289.674 251.57 287.816 252.073C285.134 252.799 282.291 251.943 279.992 250.548C278.024 249.355 273.591 245.805 273.226 243.508C272.757 240.554 273.261 236.623 273.296 233.557L273.616 208.104L274.252 123.341L274.345 104.638C274.361 102.591 273.931 99.0971 275.052 97.3963ZM280.308 109.95L279.341 236.394C281.783 238.396 283.576 240 286.865 239.713C287.677 239.146 288.513 238.623 289.178 237.881C290.403 235.194 291.18 232.643 291.502 229.706C292.967 216.349 292.137 202.259 292.102 188.804C292.057 171.935 292.648 154.619 291.215 137.815C290.635 131.019 289.784 123.996 287.441 117.557C286.178 114.088 283.583 111.566 280.308 109.95Z"/>
	<path fill="#293034" transform="matrix(0.134 0 0 0.133333 0 -1.52588e-05)" d="M155.873 11.4751C157.223 11.452 159.343 11.052 160.428 11.8207L204.554 290.018L128.485 289.061L123.909 244.35L103.402 242.642L101.151 268.882L99.5974 288.984L25.2989 288.045L62.3641 12.1433L155.873 11.4751ZM148.815 24.1575L67.1192 24.9402L33.6169 275.35L94.2642 276.14L97.0481 245.684L98.2779 229.789L128.824 231.897L133.77 276.754L195.918 277.259L164.877 81.557L158.63 42.8251L156.627 30.3678C156.325 28.4559 156.223 25.9471 155.406 24.2045L148.815 24.1575Z"/>
	<path fill="#EC5E31" transform="matrix(0.134 0 0 0.133333 0 -1.52588e-05)" d="M148.815 24.1575L155.406 24.2045C156.223 25.9471 156.325 28.4559 156.627 30.3678L158.63 42.8251L164.877 81.557L195.918 277.259L133.77 276.754L128.824 231.897L98.2779 229.789L97.0481 245.684L94.2642 276.14L33.6169 275.35L67.1192 24.9402L148.815 24.1575ZM111.511 78.8446L101.445 195.659L114.106 195.16L124.656 194.817L115.123 108.564L112.81 86.4117C112.567 84.2885 112.673 80.6097 111.511 78.8446Z"/>
	<path fill="#293034" transform="matrix(0.134 0 0 0.133333 0 -1.52588e-05)" d="M111.511 78.8446C112.673 80.6097 112.567 84.2885 112.81 86.4117L115.123 108.564L124.656 194.817L114.106 195.16L101.445 195.659L111.511 78.8446ZM112.504 141.659L108.643 182.589C109.782 183.122 111.026 182.813 112.238 182.675L116.547 182.408C116.978 180.706 116.569 178.759 116.4 177.028L115.156 165.917L112.504 141.659Z"/>
	<path fill="#293034" transform="matrix(0.134 0 0 0.133333 0 -1.52588e-05)" d="M588.416 303.217L668.978 304.285L668.446 331.721L670.253 418.313C670.224 442.18 668.106 466.032 669.489 489.896C669.806 495.365 670.366 501.606 672.948 506.543C674.126 508.795 675.738 510.987 678.32 511.671C681.826 512.6 685.441 510.853 688.396 509.187L686.008 304.672L764.669 305.43L765.114 390.683L767.061 571.277C740.838 573.831 715.157 570.196 689.009 569.102L688.809 551.695C668.981 564.672 643.933 577.667 619.425 573.73C609.422 572.123 600.675 567.891 594.677 559.482C587.874 549.946 585.91 538.098 585.069 526.673C583.792 509.356 585.898 491.794 587.088 474.53L588.798 427.85L587.564 363.183C586.816 343.121 585.071 323.152 588.416 303.217Z"/>
	<path fill="#FDCA73" transform="matrix(0.134 0 0 0.133333 0 -1.52588e-05)" d="M593.121 316.278L662.072 316.949L663.717 420.141L663.004 457.934C662.606 469.328 661.768 480.674 662.74 492.071C663.535 501.396 664.573 512.035 670.378 519.767C672.446 522.522 674.534 524.26 677.993 524.724C684.374 525.581 690.188 520.76 694.891 517.098L692.845 317.275L758.008 318.005L758.757 381.53L760.202 558.99C738.83 560.946 716.701 558.087 695.318 556.935L694.913 534.504C676.857 548.312 652.91 562.104 629.422 561.687C619.878 561.518 608.364 559.119 601.604 551.972C594 543.934 592.211 532.045 591.337 521.473C589.81 503.009 592.869 483.795 594.317 465.37C595.129 455.025 595.066 444.331 595.208 433.945L594.083 363.586C593.543 347.776 592.566 332.106 593.121 316.278Z"/>
</svg>
