<?xml version="1.0" encoding="utf-8" ?>
<svg xmlns="http://www.w3.org/2000/svg" xmlns:xlink="http://www.w3.org/1999/xlink" width="100" height="40">
	<path fill="#293034" transform="scale(0.1 0.1)" d="M648.203 44.1738L652.765 44.0704L652.884 74.7196L670.933 74.2437L671.021 96.4334L671.596 114.046C671.664 115.812 672.207 119.164 671.588 120.695L653.439 120.383L655.289 232.612C658.103 234.462 661.147 236.003 664.539 236.386C666.843 236.645 672.061 235.795 673.854 236.764L674.149 278.012C659.304 277.543 644.213 279.4 629.506 276.759C623.86 275.539 618.178 273.476 613.563 269.922C608.61 266.108 600.692 256.139 599.891 249.633C599.28 244.664 599.647 239.362 599.674 234.347L599.747 208.599L599.649 120.548L583.444 120.809L582.053 74.4725L599.588 74.7841L599.3 44.67C600.249 44.1121 642.384 44.5579 648.203 44.1738Z"/>
	<path fill="#FCCB7C" transform="scale(0.1 0.1)" d="M627.115 54.4475L646.796 54.3616L647.098 84.8695L665.012 84.6128L665.532 110.421L647.515 110.382L649.34 237.437C654.262 244.14 660.157 245.902 668.001 247.187L668.122 267.685L647.882 268.031L645.922 268.049C635.059 268.064 621.497 266.671 613.464 258.549C610.956 256.014 609.116 252.867 607.295 249.826C606.846 249.077 605.766 247.702 605.562 246.905C605.064 244.956 605.522 241.561 605.511 239.476L605.47 215.304L605.49 110.376L588.97 110.322L588.307 84.9895L605.483 84.9703L605.448 54.8013L627.115 54.4475Z"/>
	<path fill="#293034" transform="scale(0.1 0.1)" d="M902.607 70.4628L905.612 70.2865C926.101 69.2951 948.861 70.3922 964.767 84.929C979.766 98.6367 979.994 117.144 980.814 135.947L927.067 135.941C925.599 129.5 926.827 122.961 924.044 116.709C922.988 114.337 921.709 112.307 919.189 111.336C917.427 111.467 917.056 111.6 915.581 112.576C913.835 116.211 913.896 121.182 914.613 125.092C918.264 144.999 937.663 152.949 952.431 163.204C967.049 173.355 977.072 185.194 980.254 203.223C983.623 222.308 978.973 246.987 967.78 262.956C966.718 264.462 965.414 265.775 964.128 267.089C956.385 275.003 946.05 278.877 935.059 278.982C928.598 279.045 922.233 278.143 915.878 277.049C901.958 274.652 886.881 270.309 876.561 260.105C859.866 243.599 863.381 218.658 863.229 197.259L897.22 197.47C902.239 197.469 907.829 196.705 912.717 197.785L912.971 197.844L892.038 183.332C877.305 172.29 866.705 158.131 864.077 139.47C861.837 123.558 862.194 101.314 872.31 88.0462C880.084 77.8504 890.009 72.1913 902.607 70.4628ZM913.081 198.136L913.105 215.201C913.125 219.116 912.956 223.045 913.818 226.889C914.258 228.85 914.965 231.005 916.383 232.486C917.553 233.708 918.777 234.209 920.41 234.517C921.995 234.253 923.06 233.08 924.2 232.038C926.935 226.473 926.887 219.426 924.903 213.605C922.711 207.176 918.114 202.489 913.081 198.136Z"/>
	<path fill="#FCCB7C" transform="scale(0.1 0.1)" d="M903.641 79.3037L904.119 79.2318C909.149 78.767 914.415 79.1485 919.461 79.3696C934.284 80.0191 949.295 81.4288 960.899 91.729C972.132 101.7 973.89 112.5 974.709 126.751L972.696 126.816L933.492 126.815C933.068 126.815 932.501 127.133 932.221 126.815C931.95 126.507 931.65 122.419 931.535 121.732C930.594 116.154 928.808 109.122 924.537 105.092C922.714 103.371 920.231 101.915 917.631 102.095C915.756 102.224 913.88 103.269 912.654 104.663C908.458 109.435 908.363 116.456 908.702 122.442C909.485 136.299 917.446 149.282 928.447 157.469C938.521 164.966 950.111 170.14 959.509 178.612C968.984 187.152 974.893 198.317 975.535 211.188C976.311 226.743 972.492 246.989 961.76 258.755C953.409 267.911 943.604 269.386 931.919 269.941C914.94 268.935 891.259 264.859 879.001 252.087C867.303 239.897 868.705 222.143 869.014 206.561L907.657 206.434L907.765 224.245C908.252 230.771 909.831 237.03 915.01 241.45C916.661 242.859 918.366 243.947 920.633 243.72C923.024 243.479 925.433 241.622 926.929 239.795C931.671 234 932.373 225.118 931.565 217.945C930.925 212.268 929.39 206.371 926.327 201.508C918.255 188.695 902.144 181.509 890.494 172.327C877.958 162.448 870.719 148.874 868.916 133.045C868.342 128.01 868.61 122.738 869.028 117.705C869.749 109.024 870.558 101.746 876.184 94.6726C883.149 85.9151 892.574 80.5652 903.641 79.3037Z"/>
	<path fill="#293034" transform="scale(0.1 0.1)" d="M366.063 74.9521C379.994 75.2595 394.761 77.4411 406.004 86.4273C421.05 98.4528 427.918 113.867 429.944 132.804C431.057 143.21 430.774 153.84 430.81 164.3C430.89 187.578 431.139 211.737 423.804 234.099C421.577 240.887 418.449 248.142 413.908 253.722C403.623 266.361 385.702 270.84 370.268 272.417C355.482 273.134 334.31 271.164 322.808 260.812C311.649 250.769 309.183 234.659 307.569 220.555L305.372 193.283L305.182 164.381C305.174 145.42 304.555 126.369 311.586 108.374C313.876 102.513 316.535 97.2479 320.797 92.5722C332.894 79.3013 348.933 75.6891 366.063 74.9521ZM362.192 85.1823C347.643 86.4371 333.301 90.4595 323.536 102.058C319.148 107.27 316.29 113.904 314.674 120.475C311.246 134.41 311.491 149.434 311.433 163.698C311.364 180.775 311.592 197.752 313.134 214.77C314.208 226.625 316.62 244.028 326.131 252.009C337.317 261.396 357.929 263.38 372.053 262.139L373.23 262.013C386.977 260.25 402.436 255.467 411.293 244.025C414.02 240.502 415.883 235.767 417.367 231.602C425.234 209.522 424.239 184.504 424.332 161.379C424.368 152.492 425.069 143.07 423.889 134.277C421.809 118.78 416.156 105.395 403.327 95.6658C391.654 86.8132 376.505 84.543 362.192 85.1823Z"/>
	<path fill="#FCCB7C" transform="scale(0.1 0.1)" d="M362.192 85.1823C376.505 84.543 391.654 86.8132 403.327 95.6658C416.156 105.395 421.809 118.78 423.889 134.277C425.069 143.07 424.368 152.492 424.332 161.379C424.239 184.504 425.234 209.522 417.367 231.602C415.883 235.767 414.02 240.502 411.293 244.025C402.436 255.467 386.977 260.25 373.23 262.013L372.053 262.139C357.929 263.38 337.317 261.396 326.131 252.009C316.62 244.028 314.208 226.625 313.134 214.77C311.592 197.752 311.364 180.775 311.433 163.698C311.491 149.434 311.246 134.41 314.674 120.475C316.29 113.904 319.148 107.27 323.536 102.058C333.301 90.4595 347.643 86.4371 362.192 85.1823ZM361.558 103.597C357.461 105.1 354.977 106.837 353.091 110.919C350.185 117.208 350.103 124.12 349.869 130.913L349.297 150.927C348.916 167.96 348.239 185.471 349.55 202.461C350.302 212.217 351.267 222.753 354.71 231.965C356.566 236.931 359.407 242.722 364.534 244.986C366.601 245.898 368.974 245.844 371.144 245.326C377.226 241.439 379.286 235.114 380.776 228.327C383.706 214.989 383.848 200.876 383.848 187.267L382.961 146.874C382.584 138.943 382.829 131.136 381.389 123.28C380.539 118.643 379.092 114.172 376.508 110.195C374.431 106.997 371.8 104.496 367.965 103.688C365.967 103.267 363.582 103.369 361.558 103.597Z"/>
	<path fill="#293034" transform="scale(0.1 0.1)" d="M361.558 103.597C363.582 103.369 365.967 103.267 367.965 103.688C371.8 104.496 374.431 106.997 376.508 110.195C379.092 114.172 380.539 118.643 381.389 123.28C382.829 131.136 382.584 138.943 382.961 146.874L383.848 187.267C383.848 200.876 383.706 214.989 380.776 228.327C379.286 235.114 377.226 241.439 371.144 245.326C368.974 245.844 366.601 245.898 364.534 244.986C359.407 242.722 356.566 236.931 354.71 231.965C351.267 222.753 350.302 212.217 349.55 202.461C348.239 185.471 348.916 167.96 349.297 150.927L349.869 130.913C350.103 124.12 350.185 117.208 353.091 110.919C354.977 106.837 357.461 105.1 361.558 103.597ZM364.432 113.412C362.17 113.837 360.032 114.18 358.641 116.238C355.087 121.494 355.91 138.998 355.733 145.543C355.252 163.289 354.63 181.098 355.663 198.838C356.076 205.935 356.808 213.291 358.346 220.234C359.333 224.692 361.061 231.936 365.222 234.62C366.231 235.271 367.701 235.604 368.896 235.499C371.275 234.477 372.414 232.533 373.341 230.224C376.531 222.278 376.692 212.181 376.963 203.708L377.256 182.876C377.182 180.57 376.321 178.247 376.337 176.034L376.971 164.724L376.324 137.191C375.94 131.341 375.665 125.238 373.305 119.78C372.336 117.538 370.962 115.289 368.598 114.331C367.282 113.797 365.835 113.575 364.432 113.412Z"/>
	<path fill="#293034" transform="scale(0.1 0.1)" d="M447.928 70.9532L499.497 70.8839L500.565 226.129C501.247 227.463 502.499 228.192 503.82 228.816C507.605 230.603 510.906 229.997 514.655 228.605C515.542 227.457 515.105 222.684 515.112 221.023L515.149 195.798L515.015 70.9886L572.294 70.8722L571.789 122.344L570.99 271.102L515.089 270.921L515.018 263.692C504.658 270.385 493.54 272.788 481.314 272.882C473.089 272.945 465.797 270.405 459.904 264.6C453.552 258.343 449.638 249.301 448.103 240.632C446.477 231.441 447.081 222.619 447.17 213.367L447.35 182.592L447.928 70.9532Z"/>
	<path fill="#FCCB7C" transform="scale(0.1 0.1)" d="M453.433 81.7876L494.052 81.7143L495.27 232.968C498.528 237.091 502.186 239.994 507.568 240.682C512.592 241.324 516.701 238.526 520.511 235.672L520.451 81.6929L566.814 81.6797L566.528 117.949L565.478 260.456L520.457 260.031L520.455 246.531L517.902 249.283C508.97 258.198 495.095 262.279 482.666 262.195C474.857 262.142 467.22 260.095 461.638 254.367C456.247 248.837 453.642 240.208 452.587 232.75C451.752 226.855 452.287 220.405 452.359 214.453L452.592 185.523L453.433 81.7876Z"/>
	<path fill="#293034" transform="scale(0.1 0.1)" d="M723.095 72.0025L774.821 71.8994L774.544 87.0223L775.366 193.286L775.514 219.598C775.527 221.249 775.081 226.25 775.816 227.582C776.412 228.663 779.599 230.056 780.769 230.395C783.892 231.299 786.949 230.993 789.795 229.392C791.138 226.945 790.401 221.64 790.399 218.718L790.358 191.578L790.061 72.0113L847.661 71.8832L847.023 121.154L846.128 272.112L790.124 271.698L790.07 264.76C779.868 271.131 769.48 273.594 757.56 273.784C749.003 273.92 741.419 271.804 735.17 265.676C727.82 258.468 724.254 248.275 722.697 238.335C721.65 231.654 722.11 224.714 722.214 217.973L722.539 189.954L723.095 72.0025Z"/>
	<path fill="#FCCB7C" transform="scale(0.1 0.1)" d="M728.62 82.68L769.082 82.6263L770.018 185.301L770.218 223.291C770.261 226.292 769.688 231.056 770.443 233.78C770.551 234.172 771.247 234.917 771.511 235.251C774.356 238.858 778.597 241.174 783.169 241.686C787.916 242.216 792.21 239.384 795.701 236.554L795.643 82.6021L841.967 82.5961L841.819 118.926L840.81 261.37L795.628 260.975L795.699 247.527L792.559 250.702C784.053 259.297 769.895 263.175 758.057 263.133C750.411 263.106 742.626 261.235 737.11 255.611C731.601 249.994 728.934 241.685 727.815 234.048C727.052 228.841 727.501 223.175 727.523 217.893L727.891 184.621L728.62 82.68Z"/>
	<path fill="#293034" transform="scale(0.1 0.1)" d="M128.506 42.7179C129.91 42.5765 131.459 42.7346 132.877 42.758L136.454 70.9354L146.579 146.074L159.465 240.559L161.919 258.043C162.334 260.74 163.645 265.452 163.009 268.078L99.7026 267.33L96.9673 234.491L77.9844 234.257L75.6267 261.413L75.0487 267.165L12.8629 266.799L47.5108 43.0285L128.506 42.7179ZM77.3309 53.4841L51.5056 53.6382L28.7257 199.954L21.9645 243.251L20.5554 252.794C20.4255 253.719 20.0204 255.096 20.3863 255.921L70.7655 256.271L73.812 223.348L98.7548 223.956L101.074 224.176C102.254 226.025 102.016 231.387 102.193 233.669L104.154 256.676L156.27 256.971L128.581 53.2928L77.3309 53.4841Z"/>
	<path fill="#FCCB7C" transform="scale(0.1 0.1)" d="M77.3309 53.4841L128.581 53.2928L156.27 256.971L104.154 256.676L102.193 233.669C102.016 231.387 102.254 226.025 101.074 224.176L98.7548 223.956L73.812 223.348L70.7655 256.271L20.3863 255.921C20.0204 255.096 20.4255 253.719 20.5554 252.794L21.9645 243.251L28.7257 199.954L51.5056 53.6382L77.3309 53.4841ZM87.6304 75.4579L77.0656 188.03L88.1157 188.001L98.0316 188.01L92.0554 121.368L89.1132 87.6659C88.7943 84.1819 89.1028 78.5624 87.6304 75.4579Z"/>
	<path fill="#293034" transform="scale(0.1 0.1)" d="M87.6304 75.4579C89.1028 78.5624 88.7943 84.1819 89.1132 87.6659L92.0554 121.368L98.0316 188.01L88.1157 188.001L77.0656 188.03L87.6304 75.4579ZM87.5658 133.785L83.4347 177.045C84.9898 177.646 87.3175 177.354 88.9893 177.348L91.5527 177.253C91.9947 171.732 90.5908 164.89 90.0866 159.299C89.3401 151.023 89.372 141.866 87.5658 133.785Z"/>
	<path fill="#293034" transform="scale(0.1 0.1)" d="M219.94 42.2231L224.07 42.0872C224.494 46.1688 224.097 50.6041 224.036 54.7171L223.678 78.2321C235.073 73.4508 249.256 70.6456 261.411 74.0888C271.501 76.947 280.539 86.8889 285.523 95.762C290.639 104.869 292.439 116.265 293.394 126.554C294.978 143.622 293.249 160.972 292.561 178.049C291.705 199.3 292.826 222 286.952 242.634C284.159 252.447 279.212 262.906 269.917 268.028C260.789 273.059 249.284 272.689 239.535 269.872C232.622 268.083 227.204 264.673 222.028 259.85L222.042 268.211L165.683 268.063L164.899 42.4426L219.94 42.2231ZM189.293 52.9896L170.275 53.1871L170.95 257.163L216.564 257.597L216.736 246.662C230.233 255.855 243.784 263.578 260.786 260.349C263.162 259.898 265.331 258.986 267.533 258.012C275.558 253.175 280.133 246.066 282.384 237.012C287.29 217.273 286.309 196.677 287.164 176.502C287.845 160.424 289.744 144.191 288.133 128.102C287.231 119.105 285.548 109.714 280.784 101.877C276.489 94.8116 268.089 86.3413 259.847 84.3123C246.165 80.9441 229.949 85.1997 218.277 92.424L218.73 53.0299L189.293 52.9896Z"/>
	<path fill="#FCCB7C" transform="scale(0.1 0.1)" d="M189.293 52.9896L218.73 53.0299L218.277 92.424C229.949 85.1997 246.165 80.9441 259.847 84.3123C268.089 86.3413 276.489 94.8116 280.784 101.877C285.548 109.714 287.231 119.105 288.133 128.102C289.744 144.191 287.845 160.424 287.164 176.502C286.309 196.677 287.29 217.273 282.384 237.012C280.133 246.066 275.558 253.175 267.533 258.012C265.331 258.986 263.162 259.898 260.786 260.349C243.784 263.578 230.233 255.855 216.736 246.662L216.564 257.597L170.95 257.163L170.275 53.1871L189.293 52.9896ZM222.941 110.972C221.412 111.422 219.508 111.762 218.285 112.821C217.684 116.504 218.052 120.753 218.033 124.497L217.831 146.449L216.886 234.099C219.862 236.971 222.632 239.415 227.074 239.291C229.844 239.213 231.766 237.87 233.674 236.004C236.272 232.364 237.827 228.69 238.873 224.343C241.824 212.08 241.798 199.387 242.254 186.857C242.919 168.58 243.987 149.122 240.906 131.037C239.802 124.556 237.736 116.841 232.071 112.823C229.166 110.763 226.346 110.787 222.941 110.972Z"/>
	<path fill="#293034" transform="scale(0.1 0.1)" d="M222.941 110.972C226.346 110.787 229.166 110.763 232.071 112.823C237.736 116.841 239.802 124.556 240.906 131.037C243.987 149.122 242.919 168.58 242.254 186.857C241.798 199.387 241.824 212.08 238.873 224.343C237.827 228.69 236.272 232.364 233.674 236.004C231.766 237.87 229.844 239.213 227.074 239.291C222.632 239.415 219.862 236.971 216.886 234.099L217.831 146.449L218.033 124.497C218.052 120.753 217.684 116.504 218.285 112.821C219.508 111.762 221.412 111.422 222.941 110.972ZM223.432 121.856C222.79 126.43 223.108 131.345 223.073 135.968L222.828 161.143L222.354 203.515C222.273 211.232 221.803 219.163 222.292 226.862C223.421 228.056 224.821 228.863 226.55 228.845C228.056 228.828 229.421 227.96 230.39 226.862L231.904 224.834C233.393 221.618 234.407 218.593 235.004 215.092C235.894 209.87 236.083 204.374 236.404 199.08L237.332 168.819C237.374 160.142 237.473 151.454 236.759 142.799C236.378 138.188 235.992 133.512 234.386 129.133C233.409 126.47 231.737 123.461 229.042 122.254C227.222 121.439 225.352 121.586 223.432 121.856Z"/>
	<path fill="#293034" transform="scale(0.1 0.1)" d="M931.136 285.61L998.96 326.078L930.203 364.071L930.648 345.702L294.678 342.479L207.023 342.413L207.004 300.26L931.138 302.319L931.136 285.61Z"/>
	<path fill="#EC5F31" transform="scale(0.1 0.1)" d="M936.545 299.774L979.978 325.534L936.031 349.925L936.027 335.062L269.691 331.794L212.257 331.391L212.208 311.307L936.398 312.966L936.545 299.774Z"/>
</svg>
