<?xml version="1.0" encoding="UTF-8" standalone="no"?>
<!DOCTYPE svg PUBLIC "-//W3C//DTD SVG 1.1//EN" "http://www.w3.org/Graphics/SVG/1.1/DTD/svg11.dtd">
<svg width="100%" height="100%" viewBox="0 0 80 80" version="1.1" xmlns="http://www.w3.org/2000/svg" xmlns:xlink="http://www.w3.org/1999/xlink" xml:space="preserve" xmlns:serif="http://www.serif.com/" style="fill-rule:evenodd;clip-rule:evenodd;stroke-linejoin:round;stroke-miterlimit:2;">
    <g transform="matrix(0.0793135,0,0,0.0793135,-3.3915,-1.06315)">
        <g transform="matrix(1,0,0,1,0,-135)">
            <path d="M208.343,816.042L207.258,815.076L203.517,830.296C203.267,822.836 202.712,815.757 204.968,808.508C205.723,806.082 208.218,801.746 208.39,799.451C208.497,798.033 207.224,794.701 206.829,793.201C203.859,781.91 199.389,770.968 195.502,759.969C192.3,764.18 189.077,767.822 184.98,771.181C182.95,772.846 177.633,775.305 176.398,777.026C175.097,778.841 174.359,784.064 173.526,786.433C169.564,797.707 163.505,808.279 155.577,817.192C146.101,813.624 137.661,809.867 129.85,803.21C126.767,800.584 124.052,797.417 120.89,794.918C117.991,792.627 114.503,790.979 111.471,788.813L95.332,776.025C96.821,781.795 98.204,788.514 98.013,794.506C93.281,782.154 88.509,770.271 82.619,758.414C72.006,737.051 56.501,719.013 67.635,694.167L68.634,692.008C70.029,689.013 69.982,685.453 70.715,682.251C72.816,673.069 79.98,662.707 87.025,656.591C81.724,655.116 75.028,652.724 71.736,647.992C82.46,644.383 91.059,636.232 99.027,628.426C91.098,626.44 83.397,624.869 75.218,624.214C81.839,616.395 90.938,605.25 92.405,594.91C93.602,586.468 91.094,577.687 87.357,570.127C80.966,574.644 75.551,577.588 68.105,579.945L98.62,553.902C87.395,552.567 77.264,548.924 70.067,539.722C67.229,536.095 66.104,532.285 64.922,527.917C72.335,532.988 77.106,535.235 86.207,535.492C86.594,529.116 87.095,522.868 88.956,516.723C92.819,503.966 102.62,491.096 112.685,482.414C114.86,480.537 120.312,477.664 121.807,475.557C122.663,474.35 123.299,470.152 123.82,468.472C124.917,464.932 126.455,461.462 128.32,458.259C135.691,445.6 148.45,433.357 162.177,428.041C173.969,423.474 186.478,422.732 198.957,423.695L218.045,426.127C209.926,418.785 201.762,413.576 192.231,408.28C203.347,410.392 210.41,413.565 218.889,421.052C218.775,414.327 219.737,408.436 222.527,402.276C223.496,400.137 225.034,397.965 225.568,395.696C216.462,393.79 208.479,391.562 200.02,387.516C204.968,384.897 210.003,382.33 214.694,379.268C222.817,373.965 230.242,368.045 239.373,364.429C236.49,363.406 233.599,362.412 230.904,360.949C228.874,359.847 226.941,358.241 224.835,357.35C222.013,356.156 218.637,355.69 215.689,354.698C208.545,352.294 201.02,348.541 195.499,343.333C212.712,350.653 231.016,356.621 249.162,349.24C256.607,346.212 263.571,342.039 270.989,338.934C282.391,334.16 295.538,332.697 307.821,333.653C311.804,333.963 315.81,334.734 319.729,335.496C320.639,335.673 323.135,336.514 323.889,336.344C326.097,335.846 329.462,333.373 331.648,332.335C335.354,330.575 339.248,329.178 343.147,327.912C361.149,322.065 380.461,320.026 399.268,322.268C405.932,323.063 412.422,324.683 418.96,326.15C416.84,314.995 417.844,306.478 424.371,296.901C430.366,288.105 438.8,281.08 446.713,274.061C452.164,269.226 457.748,263.871 463.978,260.077C459.977,269.243 456.198,278.79 460.176,288.715C464.107,298.521 472.528,304.348 482.016,308.136L496.558,313.284C497.948,298.17 501.931,287.538 514.007,277.563C526.167,267.518 543.071,260.712 558.53,258.2C561.429,257.729 565.004,256.915 567.894,257.257C568.831,257.368 569.607,257.594 570.429,258.069L569.868,258.728L568.912,258.758C560.298,259.331 551.026,268.302 546.055,274.669C540.002,282.42 533.733,295.668 534.954,305.811C535.697,311.977 538.786,316.308 543.66,320.032L547.001,322.292C566.551,311.374 592.824,303.974 615.061,310.144C622.146,312.11 628.951,315.257 635.621,318.321C637.826,319.333 640.827,321.377 643.065,321.891C643.672,322.031 645.505,321.553 646.176,321.465C649.066,321.089 651.984,320.703 654.899,320.612C659.653,320.464 664.797,320.98 669.48,321.787C705.757,328.04 736.565,356.375 754.053,387.65L803.004,483.565L795.048,474.45C796.422,481.493 798.048,487.883 800.869,494.508C819.127,487.465 834.006,491.585 851.313,499.252C870.346,507.683 890.447,516.166 910.84,520.753C900.823,526.487 890.092,531.432 879.171,535.173C888.753,543.273 897.228,552.619 907.234,560.217C914.992,566.108 924.487,570.852 933.436,574.637C935.589,575.547 939.79,574.287 941.634,573.157C943.384,572.084 944.346,570.256 945.373,568.542L945.938,568.542C945.551,571.421 945.188,573.909 942.72,575.814C940.693,577.378 937.931,577.813 935.481,578.33C941.777,585.001 948.329,589.494 956.379,593.85C963.679,597.801 971.55,601.38 978.208,606.364C990.966,615.914 996.29,631.198 1001.89,645.456C1004.5,652.111 1007.56,663.645 1015.71,665.043C1022.1,663.064 1025.77,653.7 1028.74,648.049C1030.7,644.341 1031.7,642.56 1030.72,638.24C1034.26,641.835 1035.71,650.347 1035.69,655.225C1035.66,661.946 1033.38,668.506 1028.61,673.352C1022.36,679.706 1011.58,681.839 1003.06,681.659C995.286,681.494 990.433,678.247 983.523,675.501C987.561,687.029 990.994,699.086 990.93,711.413C990.912,715.007 989.382,719.817 989.789,723.081C989.919,724.128 991.209,726.149 991.672,727.182C994.806,734.187 996.2,740.765 992.783,748.07C989.332,755.45 983.282,759.753 976.709,764.137C968.451,769.645 959.743,774.8 952.403,781.531C941.279,791.732 935.004,804.562 932.046,819.215C928.115,838.687 944.625,862.655 944.625,862.655C944.625,862.655 938.303,876.363 933.494,885.627C922.519,906.771 907.556,949.159 907.556,949.159C907.556,949.159 885.925,943.981 870.292,947.125C846.098,951.991 824.83,923.721 807.636,909.097C779.971,885.564 778.909,845.474 765.461,805.388C756.656,779.144 748.37,759.762 750.008,768.091C718.182,793.961 724.371,842.196 741.913,897.41C723.415,896.842 710.526,886.191 699.005,873.08L703.68,921.901C703.68,921.901 685.684,889.624 681.959,901.417C656.445,982.192 602.634,991.628 602.634,991.628C585.804,1007.68 545.178,1023.47 508.148,1006.76C502.957,1004.42 494.401,1025 469.72,1025.2C410.758,1025.69 380.475,1026.02 324.383,974.221C322.694,971.668 319.053,969.412 316.755,967.226C313.159,963.804 309.717,960.057 306.607,956.194C303.943,952.885 301.418,949.136 299.67,945.252C299.022,943.81 298.476,941.268 297.624,940.058C297.233,939.504 293.548,938.272 292.677,937.89L274.127,929.709C270.495,927.986 266.993,925.96 263.711,923.638C246.283,911.308 235.582,890.828 232.092,870.117C231.426,866.163 227.226,862.193 224.959,858.893C216.618,846.75 208.544,831.044 208.343,816.042Z" style="fill:rgb(53,52,53);fill-rule:nonzero;stroke:rgb(38,38,38);stroke-width:6.54px;"/>
        </g>
        <g transform="matrix(1,0,0,1,0,-135)">
            <path d="M92.502,574.913L88.487,569.215C92.275,565.981 95.544,562.187 98.764,558.399C99.759,557.228 101.322,554.706 102.527,553.901C103.465,553.275 106.324,552.955 107.537,552.652C104.304,561.376 99.945,569.068 92.502,574.913Z" style="fill:rgb(241,187,172);fill-rule:nonzero;"/>
        </g>
        <g transform="matrix(1,0,0,1,0,-135)">
            <path d="M100.646,655.041C99.265,657.922 96.906,660.348 94.901,662.827L86.845,673.343C82.315,675.493 78.99,678.397 75.348,681.746L82.983,667.211C84.556,664.696 88.405,658.463 90.918,657.12C92.984,656.016 98.179,655.61 100.646,655.041Z" style="fill:rgb(241,187,172);fill-rule:nonzero;"/>
        </g>
        <g transform="matrix(1,0,0,1,0,-135)">
            <path d="M353.454,700.86L340.425,680.155C351.369,684.937 362.011,687.745 373.951,687.58C371.375,687.86 369.109,687.93 366.923,689.441C362.043,692.814 357.569,696.579 353.454,700.86Z" style="fill:rgb(186,114,96);fill-rule:nonzero;"/>
        </g>
        <g transform="matrix(1,0,0,1,0,-135)">
            <path d="M466.844,304.82C472.918,308.809 478.831,312.08 485.75,314.469C488.377,315.376 495.158,316.384 497.105,317.976C497.248,318.093 497.183,318.336 497.222,318.516C498.359,323.711 499.882,328.113 502.225,332.864C487.633,327.144 474.295,319.045 466.844,304.82Z" style="fill:rgb(186,114,96);fill-rule:nonzero;"/>
        </g>
        <g transform="matrix(1,0,0,1,0,-135)">
            <path d="M100.857,653.952C92.776,653.683 86.49,652.326 78.842,649.869C85.019,646.659 90.083,642.881 95.03,637.973C97.193,635.827 100.394,630.766 102.945,629.92L106.752,632.16L101.32,641.445L117.824,637.312C113.789,641.791 109.791,646.354 105.408,650.499C104.045,651.788 102.693,653.416 100.857,653.952Z" style="fill:rgb(241,187,172);fill-rule:nonzero;"/>
        </g>
        <g transform="matrix(1,0,0,1,0,-135)">
            <path d="M121.304,524.532L125.604,522.594C126.025,525.408 122.439,530.13 120.801,532.353C114.652,540.702 106.696,546.23 97.163,550.054C87.41,547.518 80.767,543.986 72.923,537.808C75.513,538.448 78.172,539.311 80.827,539.612C96.567,541.395 109.503,534.033 121.304,524.532Z" style="fill:rgb(241,187,172);fill-rule:nonzero;"/>
        </g>
        <g transform="matrix(1,0,0,1,0,-135)">
            <path d="M69.455,701.417L69.636,701.816C71.936,707.125 72.318,712.326 75.382,717.583C78.83,723.496 83.519,728.88 87.657,734.326C97.828,747.711 108.522,763.494 109.901,780.687L109.307,781.653L97.781,772.118C95.458,770.085 92.934,768.285 91.392,765.551L81.943,747.759C73.923,733.252 64.652,718.644 69.455,701.417Z" style="fill:rgb(241,187,172);fill-rule:nonzero;"/>
        </g>
        <g transform="matrix(1,0,0,1,0,-135)">
            <path d="M409.168,975.356C412.009,974.995 415.572,974.533 418.414,975.074C424.149,976.165 428.831,978.221 434.575,979.854C430.882,989.258 425.793,1008.37 415.832,1012.49C413.352,1013.51 409.559,1013.64 407.12,1012.43C404.847,1011.31 402.349,1008.74 401.742,1006.23C399.68,997.726 405.398,985.479 407.746,977.097L409.168,975.356Z" style="fill:rgb(254,87,93);fill-rule:nonzero;"/>
        </g>
        <g transform="matrix(1,0,0,1,0,-135)">
            <path d="M562.764,743.438C565.976,746.916 569.704,750.625 572.199,754.647C574.218,757.902 575.558,761.897 577.005,765.435C574.255,765.011 571.554,764.519 568.759,764.688L569.585,764.979C582.019,769.446 596.544,777.766 606.05,786.833C615.408,795.76 623.112,807.101 630.058,817.951C633.455,823.258 637.766,828.953 640.353,834.676C642.041,838.409 642.581,842.926 643.946,846.823C647.238,856.224 651.713,865.14 656.709,873.743C660.254,879.847 663.932,886.156 667.971,891.942C668.758,893.069 672.339,897.224 672.43,898.046C672.487,898.558 671.527,900.597 671.29,901.266L667.037,913.033L666.436,914.377C666.269,901.534 664.18,890.956 655.269,881.061C653.865,879.502 650.069,877.149 649.233,875.595C648.775,874.743 648.683,872.901 648.467,871.867L646.245,862.113C643.633,851.771 640.196,841.656 635.196,832.203C621.752,806.784 595.579,788.803 568.604,780.375C568.301,767.439 566.43,755.797 562.764,743.438Z" style="fill:rgb(186,114,96);fill-rule:nonzero;"/>
        </g>
        <g transform="matrix(1,0,0,1,0,-135)">
            <path d="M780.578,815.903L780.7,816.817L780.989,819.093L781.766,819.031L782.46,817.57L799.844,844.464C800.806,836.115 802.183,829.704 806.486,822.413C807.735,840.471 821.232,856.372 832.482,869.727L852.123,893.14L860.535,903.976C862.09,906.096 863.613,908.732 865.621,910.445C868.886,913.23 872.998,915.487 876.536,917.961L892.579,930.167C894.366,931.564 898.603,934.168 899.209,936.197C889.371,935.466 879.572,940.022 869.658,940.205C867.211,940.251 864.521,940.357 862.188,939.496C854.943,936.823 849.079,930.302 841.648,927.588L841.821,928.247L841.319,928.679C837.525,926.027 833.936,923.321 830.75,919.944C824.681,913.512 819.874,905.898 814.659,898.783C811.726,894.781 807.581,890.19 805.505,885.736C804.03,882.573 803.58,878.667 802.558,875.31C800.508,884.172 804.191,895.91 806.601,904.435C791.757,884.046 782.157,859.764 778.749,834.729C779.458,830.164 777.721,819.083 780.578,815.903Z" style="fill:rgb(241,187,172);fill-rule:nonzero;"/>
        </g>
        <g transform="matrix(1,0,0,1,0,-135)">
            <path d="M138.233,469.188L125.818,473.478C130.478,461.717 137.699,450.868 147.259,442.549C175.74,417.768 209.334,431.606 242.286,433.954C237.408,430.869 229.244,429.503 223.603,427.817C222.38,416.43 224.598,406.661 228.303,395.978L239.303,396.379C237.137,394.852 234.217,394.177 231.713,393.373C223.245,390.656 214.569,389.026 205.834,387.465C210.106,385.825 214.371,384.255 218.324,381.915C227.289,376.607 237.302,367.992 247.582,365.777C249.722,365.316 252.484,365.627 254.7,365.557L268.805,364.636C265.499,363.242 261.243,362.928 257.685,362.366C249.221,361.027 241.486,360.441 233.276,357.71C239.93,356.74 245.957,355.225 252.172,352.664C265.684,347.095 276.618,339.819 291.647,338.345C315.683,335.987 336.279,343.702 354.753,358.923L355.369,358.594L352.867,354.795C362.186,359.541 377.256,374.041 380.32,384.152L380.579,385.087C367.248,375.463 349.247,370.721 333.413,367.015C341.272,374.363 347.784,381.725 352.86,391.321C344.39,386.257 333.776,380.171 323.925,378.636C318.709,377.823 312.522,378.336 307.213,378.304C299.449,378.258 292.248,378.389 284.655,380.298C283.054,380.7 281.107,381.15 279.851,382.272C275.141,386.48 270.986,392.035 266.797,396.764C259.851,404.605 252.424,412.094 243.796,418.098L275.631,434.154L275.745,434.521C264.59,435.689 254.133,435.387 242.997,434.904C247.674,437.903 253.555,440.904 257.537,444.716C234.125,441.787 207.082,436.642 183.921,442.875C169.203,446.836 155.417,455.564 143.484,464.881L138.233,469.188Z" style="fill:rgb(241,187,172);fill-rule:nonzero;"/>
        </g>
        <g transform="matrix(1,0,0,1,0,-135)">
            <path d="M927.565,818.989C926.961,820.854 926.929,823.016 926.737,824.963C924.895,822.666 924.537,817.094 924.249,814.232C921.807,789.964 936.565,772.724 945.806,751.865C947.938,747.051 950.325,741.153 950.678,735.848C951.781,719.259 945.299,705.68 934.569,693.521C951.75,699.476 962.593,710.579 970.577,726.691C970.108,714.144 965.842,700.107 962.017,688.184C957.027,672.628 949.584,652.078 936.999,641.183C934.422,638.952 931.274,637.447 928.26,635.902C940.585,634.463 947.902,636.45 958.613,642.423L957.138,635.395C948.512,630.862 940.598,625.388 933.956,618.196C921.6,604.816 913.34,586.585 897.619,576.648C892.703,573.54 887.493,571.838 881.926,570.279C890.879,566.493 898.916,565.425 908.606,566.852C912.935,569.446 917.234,571.933 921.805,574.087C923.955,575.1 926.772,575.738 928.681,577.118C930.384,578.35 931.598,580.537 932.979,582.119C935.549,585.063 938.302,587.663 941.462,589.971C955.964,600.562 974.639,604.753 985.133,620.23C988.507,625.206 991.132,630.672 993.413,636.221C997.002,644.951 1004.19,672.135 1017.22,669.324C1021.27,668.452 1024.15,665.01 1026.17,661.6C1028.76,657.204 1030.26,652.094 1032.1,647.342C1031.86,655.959 1031.52,664.331 1024.82,670.692C1019.39,675.853 1010.12,677.446 1002.88,677.16C990.079,676.655 979.776,667.976 971.593,658.918C964.743,651.336 958.805,643.312 947.901,641.929C950.57,643.944 953.598,645.637 956.074,647.873C960.66,652.014 964.258,657.396 968.366,662.012C970.92,664.882 974.908,667.64 976.813,670.842C981.533,678.777 984.36,692.043 985.651,701.038C987.906,716.753 984.394,732.756 974.603,745.526C972.996,747.623 970.854,749.59 968.769,751.215C974.226,750.302 978.16,746.323 981.257,741.978C983.072,739.432 984.777,736.651 986.032,733.786C986.756,732.13 987.44,729.139 988.624,727.863C990.477,734.394 991.489,740.853 988.073,747.074C985.315,752.098 980.005,756.334 975.407,759.63L956.455,772.346C944.939,780.828 935.794,792.287 930.899,805.795C929.348,810.075 928.558,814.558 927.565,818.989Z" style="fill:rgb(241,187,172);fill-rule:nonzero;"/>
        </g>
        <g transform="matrix(1,0,0,1,0,-135)">
            <path d="M373.951,687.58C376.733,687.456 379.327,686.909 381.981,686.097C382.849,685.831 384.812,684.909 385.646,684.932C386.72,684.962 388.5,685.828 389.626,686.172C392.6,687.079 395.514,687.796 398.571,688.357C408.17,690.121 417.797,687.789 427.024,685.273C428.21,687.673 429.826,689.831 431.343,692.03C429.301,683.243 427.796,676.988 432.637,668.738C436.343,662.421 442.901,660.365 449.521,658.53C445.423,664.276 442.067,669.005 442.511,676.475C442.771,680.862 445.465,686.358 448.747,689.266C453.341,693.336 462.255,697.962 468.64,697.43C474.701,696.926 483.805,695.118 487.701,689.904C490.623,685.992 489.966,681.801 489.166,677.345C494.585,679.236 499.412,681.521 504.086,684.876C510.735,690.243 513.533,694.521 516.907,702.348C517.566,703.494 518.21,705.103 519.276,705.877L519.353,703.219C521.472,702.762 526.394,706.062 528.287,707.273C538.921,714.075 547.701,724.279 555.596,733.997C557.924,736.862 561.112,740.157 562.764,743.438C566.43,755.797 568.301,767.439 568.604,780.375C595.579,788.803 621.752,806.784 635.196,832.203C640.196,841.656 643.633,851.771 646.245,862.113L648.467,871.867C648.683,872.901 648.775,874.743 649.233,875.595C650.069,877.149 653.865,879.502 655.269,881.061C664.18,890.956 666.269,901.534 666.436,914.377C664.4,920.553 662.076,926.873 659.082,932.656C652.193,950.523 637.143,968.446 621.322,979.289C616.797,982.681 610.985,985.615 605.468,986.936C609.175,982.582 614.817,976.244 616.142,970.54C610.552,976.006 605.069,982.279 598.972,987.121C582.56,1000.16 557.763,1008.7 536.796,1008.5C526.951,1008.4 517.571,1006.81 508.031,1004.53C509.786,1002.41 512.28,1000.1 512.76,997.32L511.413,998.095C508.398,1000.64 505.26,1002.92 501.733,1004.71L500.248,1005.78C491.472,1011.89 478.383,1018.63 467.476,1019.38C463.195,1019.67 458.223,1018.6 453.954,1018.07L425.682,1014.17C433.824,1004.05 438.18,993.495 440.201,980.81C445.072,981.787 450.259,985.576 454.754,982.673C455.134,982.427 457.036,982.421 459.471,982.512C464.05,982.682 470.509,983.193 472.258,983.093C480.981,982.594 483.065,975.907 488.559,969.681L479.033,974.561L476.529,975.664C475.627,975.284 471.661,976.011 470.378,976.086C466.141,976.335 458.582,976.35 454.689,974.585C453.842,974.202 454.014,972.123 453.626,971.147C453.002,972.083 452.646,972.909 452.197,973.938C450.197,974.545 447.127,973.749 445.152,973.081L444.491,973.002C438.833,972.629 428.691,970.917 423.977,967.804L416.862,968.573C402.508,969.086 388.693,970.81 377.355,960.364C373.673,956.97 372.47,953.663 371.538,948.896C370.224,951.948 370.665,955.396 371.874,958.447C374.448,964.948 376.819,970.962 383.018,973.427C389.96,976.188 396.687,976.421 404.067,976.058C404.067,976.058 401.475,979.126 401.024,979.691C394.644,987.673 392.72,997.849 393.872,1007.93C383.937,1005.61 376.474,1003.38 367.088,999.33C358.524,995.63 347.832,990.134 343.445,981.462C342.336,979.27 342.11,976.929 341.209,974.669C340.956,976.32 340.964,976.782 339.89,978.123C324.063,971.795 310.343,954.926 300.563,941.413C305.556,942.5 310.934,945.553 315.845,947.22C317.912,947.922 324.143,948.999 325.558,950.161C326.568,950.991 327.339,954.161 327.844,955.448C329.323,959.22 330.847,963.22 333.594,966.267L329.601,948.043C327.78,940.672 325.353,935.31 325.798,927.466L325.089,926.652C321.1,933.736 323.519,941.559 325.459,948.872C309.974,939.662 293.215,934.117 277.142,926.248C254.253,915.042 244.287,896.894 236.415,873.531C239.126,874.583 243.433,880.295 245.867,882.452L257.62,891.884L253.645,885.782C241.681,872.62 228.627,859.475 221.197,843.107C215.626,835.297 213.006,824.559 208.343,816.042C208.175,814.367 208.135,813.18 208.6,811.553C215.61,792.713 226.179,779.944 239.313,765.006C241.922,762.038 245.92,754.96 249.026,752.559C251.15,750.918 253.838,749.731 256.148,748.331C261.5,745.086 266.885,741.77 271.812,737.898C278.419,732.706 283.983,726.324 290.517,721.023L298.275,715.076C311.199,706.663 323.908,706.748 338.775,706.656C343.55,706.627 348.682,706.211 353.376,707.181L356.044,707.207L356.762,706.311L353.454,700.86C357.569,696.579 362.043,692.814 366.923,689.441C369.109,687.93 371.375,687.86 373.951,687.58Z" style="fill:rgb(186,114,96);fill-rule:nonzero;"/>
        </g>
        <g transform="matrix(1,0,0,1,0,-135)">
            <path d="M429.802,729.715C432.613,740.445 432.168,750.859 430.688,761.737C428.445,750.42 428.239,741.1 429.802,729.715Z" style="fill:rgb(53,52,53);fill-rule:nonzero;"/>
        </g>
        <g transform="matrix(1,0,0,1,0,-135)">
            <path d="M501.733,1004.71C498.607,1001.76 494.731,999.811 491.532,996.743C498.212,997.801 504.659,998.047 511.413,998.095C508.398,1000.64 505.26,1002.92 501.733,1004.71Z" style="fill:rgb(129,68,50);fill-rule:nonzero;"/>
        </g>
        <g transform="matrix(1,0,0,1,0,-135)">
            <path d="M429.226,944.072C430.177,941.608 431.121,939.242 432.409,936.926C431.685,946.795 431.806,956.4 429.56,966.106L428.855,966.687L427.972,961.574C427.877,955.622 428.289,949.947 429.226,944.072Z" style="fill:rgb(53,52,53);fill-rule:nonzero;"/>
        </g>
        <g transform="matrix(1,0,0,1,0,-135)">
            <path d="M556.255,846.178L538.964,832.089C548.709,836.025 555.955,840.924 563.735,847.894C564.961,849.271 565.987,850.482 566.821,852.133C563.312,851.532 559.241,848.117 556.255,846.178Z" style="fill:rgb(53,52,53);fill-rule:nonzero;"/>
        </g>
        <g transform="matrix(1,0,0,1,0,-135)">
            <path d="M350.294,925.818C350.53,925.824 350.704,926.056 350.893,926.198C344.2,938.648 349.896,949.288 349.86,962.073L349.121,961.292C346.252,955.249 343.408,948.754 343.469,941.954C343.526,935.642 345.856,930.198 350.294,925.818Z" style="fill:rgb(53,52,53);fill-rule:nonzero;"/>
        </g>
        <g transform="matrix(1,0,0,1,0,-135)">
            <path d="M516.755,997.993C511.286,986.699 507.367,974.187 500.469,963.754C511.195,973.057 515.792,983.685 518.909,997.448C519.192,999.132 519.73,1000.95 519.231,1002.62L516.755,997.993Z" style="fill:rgb(53,52,53);fill-rule:nonzero;"/>
        </g>
        <g transform="matrix(1,0,0,1,0,-135)">
            <path d="M458.796,943.264L460.691,946.06C465.612,954.685 466.226,963.138 463.794,972.62L462.691,973.173C460.421,970.321 458.976,966.646 458.254,963.09L458.053,962.073C456.784,955.841 457.588,949.436 458.796,943.264Z" style="fill:rgb(241,187,172);fill-rule:nonzero;"/>
        </g>
        <g transform="matrix(1,0,0,1,0,-135)">
            <path d="M404.399,929.773L406.484,929.536L406.779,930.432C400.687,939.27 393.857,945.344 384.066,949.78L382.088,950.339C381.66,948.497 383.019,946.314 383.903,944.646C388.139,936.652 396.029,932.188 404.399,929.773Z" style="fill:rgb(241,187,172);fill-rule:nonzero;"/>
        </g>
        <g transform="matrix(1,0,0,1,0,-135)">
            <path d="M345.942,777.784L347.283,778.012L347.331,778.752C328.333,783.512 311.998,793.017 294.118,800.579C301.719,791.988 319.45,782.408 330.648,779.55C335.637,778.276 340.826,778.119 345.942,777.784Z" style="fill:rgb(53,52,53);fill-rule:nonzero;"/>
        </g>
        <g transform="matrix(1,0,0,1,0,-135)">
            <path d="M444.491,973.002C441.015,960.252 442.48,951.212 448.984,939.715C451.283,951.057 452.532,961.869 447.307,972.626L445.152,973.081L444.491,973.002Z" style="fill:rgb(241,187,172);fill-rule:nonzero;"/>
        </g>
        <g transform="matrix(1,0,0,1,0,-135)">
            <path d="M476.529,975.664C469.799,964.713 469.771,953.81 470.78,941.355C472.467,942.253 474.249,945.282 475.273,946.912C480.258,954.847 481.283,965.62 479.033,974.561L476.529,975.664Z" style="fill:rgb(241,187,172);fill-rule:nonzero;"/>
        </g>
        <g transform="matrix(1,0,0,1,0,-135)">
            <path d="M418.106,969.756C418.205,966.619 417.827,963.476 418.086,960.338C418.899,950.502 422.52,943.105 428.035,935.032L429.226,944.072C428.289,949.947 427.877,955.622 427.972,961.574L425.221,968.987L418.106,969.756Z" style="fill:rgb(241,187,172);fill-rule:nonzero;"/>
        </g>
        <g transform="matrix(1,0,0,1,0,-135)">
            <path d="M415.6,933.069L417.13,933.069L415.989,938.013C412.709,949.303 404.754,958.732 394.615,964.482L393.387,964.539C393.409,963.792 393.446,963.14 393.58,962.402C395.912,949.597 405.208,940.064 415.6,933.069Z" style="fill:rgb(241,187,172);fill-rule:nonzero;"/>
        </g>
        <g transform="matrix(1,0,0,1,0,-135)">
            <path d="M481.576,781.261C490.799,780.423 499.525,781.335 508.076,784.978C528.967,793.877 543.147,811.348 551.491,832.05L537.496,825.944C528.689,821.922 519.681,817.511 511.357,812.568C500.099,805.882 489.293,796.38 476.427,793.061C471.371,791.756 466.871,791.695 461.69,791.756C467.707,785.304 473.018,782.916 481.576,781.261Z" style="fill:rgb(241,187,172);fill-rule:nonzero;"/>
        </g>
        <g transform="matrix(1,0,0,1,0,-135)">
            <path d="M345.942,777.784C332.135,773.638 318.429,768.619 305.828,761.53C339.428,753.51 375.931,748.037 407.049,767.115C416.982,773.205 430.388,785.118 433.214,796.948C433.756,799.218 433.972,801.236 433.516,803.53C428.212,799.424 424.778,796.026 418.32,793.395C400.308,786.057 379.774,784.98 360.798,781.183C357.056,780.434 350.826,777.88 347.283,778.012L345.942,777.784Z" style="fill:rgb(241,187,172);fill-rule:nonzero;"/>
        </g>
        <g transform="matrix(1,0,0,1,0,-135)">
            <path d="M563.735,847.894C567.551,849.257 571.709,849.881 575.604,851.044C582.254,853.027 588.777,855.747 594.928,858.944C615.996,869.89 628.62,886.09 634.061,909.082C634.821,912.294 635.626,915.622 636.031,918.896C636.328,921.29 636.008,923.601 636.783,925.934L639.293,933.397C616.252,910.243 591.903,889.022 560.903,877.357C550.305,873.37 539.384,870.695 528.573,867.411C543.15,865.257 556.331,864.112 571.065,865.741L547.787,854.125C541.808,851.384 535.26,849.195 529.737,845.61L543.861,845.809C546.816,845.987 553.111,847.39 555.733,846.447L556.255,846.178C559.241,848.117 563.312,851.532 566.821,852.133C565.987,850.482 564.961,849.271 563.735,847.894Z" style="fill:rgb(129,68,50);fill-rule:nonzero;"/>
        </g>
        <g transform="matrix(1,0,0,1,0,-135)">
            <path d="M338.096,859.958C340.583,856.936 345.175,853.605 348.446,851.373C353.615,847.847 359.826,847.037 364.815,843.304L366.295,843.382L366.076,843.766C364.7,846.456 365.189,850.467 365.187,853.491C365.181,866.75 365.911,878.44 370.462,891.081C375.204,904.251 382.771,915.188 388.455,927.727C379.285,923.593 370.932,917.684 364.364,910.038C362.402,907.754 360.906,905.019 358.911,902.825L365.403,933.412C350.504,923.173 345.067,908.229 341.9,891.289C340.34,896.664 339.435,902.287 338.379,907.784C335.992,920.222 334.354,931.301 337.46,943.811C335.493,941.686 333.382,939.545 331.729,937.164C330.269,935.062 327.586,928.35 325.798,927.466L325.089,926.652C325.293,926.172 325.54,925.674 325.597,925.146C325.873,922.579 323.952,917.906 323.553,915.144C322.796,909.888 322.818,904.106 323.256,898.818C323.73,893.096 324.98,887.32 326.768,881.866C327.896,878.423 329.901,875.189 330.208,871.538C330.245,871.229 332.288,869.345 332.607,869.005C334.919,866.54 337.66,863.425 338.096,859.958Z" style="fill:rgb(129,68,50);fill-rule:nonzero;"/>
        </g>
        <g transform="matrix(1,0,0,1,0,-135)">
            <path d="M518.909,997.448C530.732,995.016 537.033,988.573 545.125,980.068C553.752,970.999 560.676,958.394 562.197,945.86C562.696,941.747 562.428,937.386 562.351,933.244C568.883,944.633 569.81,953.017 569.449,965.995C575.952,953.351 577.656,942.549 577.772,928.464C584.396,937.372 585.6,947.693 586.496,958.383L589.201,952.844C593.754,942.416 594.27,930.915 590.098,920.342L596.769,925.404C594.842,921.461 592.109,917.773 589.468,914.278C595.853,916.973 600.582,920.807 605.814,925.234C600.173,917.59 594.629,913.095 586.463,908.33C590.594,908.292 594.587,908.28 598.613,909.322C609.975,912.263 619.178,919.744 624.936,929.909C632.18,942.699 633.796,956.579 626.708,969.915C625.338,972.493 622.069,975.805 621.473,978.48L621.322,979.289C616.797,982.681 610.985,985.615 605.468,986.936C609.175,982.582 614.817,976.244 616.142,970.54C610.552,976.006 605.069,982.279 598.972,987.121C582.56,1000.16 557.763,1008.7 536.796,1008.5C526.951,1008.4 517.571,1006.81 508.031,1004.53C509.786,1002.41 512.28,1000.1 512.76,997.32C514.196,997.196 515.294,997.896 516.755,997.993L519.231,1002.62C519.73,1000.95 519.192,999.132 518.909,997.448Z" style="fill:rgb(129,68,50);fill-rule:nonzero;"/>
        </g>
        <g transform="matrix(1,0,0,1,0,-135)">
            <path d="M247.467,854.193L248.242,852.493C251.701,852.939 254.888,854.248 258.432,854.533C265.721,855.12 273.228,854.184 280.514,853.743C289.72,853.185 298.906,853.079 308.009,851.395C310.38,850.956 312.629,850.435 314.788,849.314C318.954,847.149 323.26,842.485 328.378,843.518C330.094,843.864 331.45,845.562 332.446,846.849C333.252,847.89 333.422,850.155 333.205,851.435C332.295,856.823 324.85,864.088 321.787,868.799C320.674,870.512 319.11,872.466 319.202,874.577C326.069,870.092 332.275,865.829 338.096,859.958C337.66,863.425 334.919,866.54 332.607,869.005C332.288,869.345 330.245,871.229 330.208,871.538C329.901,875.189 327.896,878.423 326.768,881.866C324.98,887.32 323.73,893.096 323.256,898.818C322.818,904.106 322.796,909.888 323.553,915.144C323.952,917.906 325.873,922.579 325.597,925.146C325.54,925.674 325.293,926.172 325.089,926.652C321.1,933.736 323.519,941.559 325.459,948.872C309.974,939.662 293.215,934.117 277.142,926.248C254.253,915.042 244.287,896.894 236.415,873.531C239.126,874.583 243.433,880.295 245.867,882.452L257.62,891.884L253.645,885.782C254.365,882.166 252.355,877.509 251.462,873.94L248.254,858.779L247.467,854.193Z" style="fill:rgb(186,114,96);fill-rule:nonzero;"/>
        </g>
        <g transform="matrix(1,0,0,1,0,-135)">
            <path d="M247.467,854.193L248.242,852.493C251.701,852.939 254.888,854.248 258.432,854.533C265.721,855.12 273.228,854.184 280.514,853.743C289.72,853.185 298.906,853.079 308.009,851.395C310.38,850.956 312.629,850.435 314.788,849.314C318.954,847.149 323.26,842.485 328.378,843.518C330.094,843.864 331.45,845.562 332.446,846.849C333.252,847.89 333.422,850.155 333.205,851.435C332.295,856.823 324.85,864.088 321.787,868.799C320.674,870.512 319.11,872.466 319.202,874.577C326.069,870.092 332.275,865.829 338.096,859.958C337.66,863.425 334.919,866.54 332.607,869.005C332.288,869.345 330.245,871.229 330.208,871.538C325.129,875.982 319.916,879.693 314.154,883.194C308.777,896.645 308.202,907.887 312.574,921.663C306.518,916.79 302.327,911.76 299.712,904.342C295.011,891.005 297.907,877.479 303.836,865.143C298.088,867.087 292.668,868.423 286.631,869.053C273.122,870.464 258.887,867.406 248.254,858.779L247.467,854.193Z" style="fill:rgb(129,68,50);fill-rule:nonzero;"/>
        </g>
        <g transform="matrix(1,0,0,1,0,-135)">
            <path d="M338.096,859.958C337.66,863.425 334.919,866.54 332.607,869.005C332.288,869.345 330.245,871.229 330.208,871.538C325.129,875.982 319.916,879.693 314.154,883.194L299.149,890.003L319.202,874.577C326.069,870.092 332.275,865.829 338.096,859.958Z" style="fill:rgb(53,52,53);fill-rule:nonzero;"/>
        </g>
        <g transform="matrix(1,0,0,1,0,-135)">
            <path d="M290.517,721.023C316.438,716.972 341.068,720.581 362.739,736.356C365.603,738.441 371.016,742.074 372.867,745.024C364.673,743.81 356.188,742.389 347.903,742.227C324.947,741.78 300.963,748.429 282.481,762.13C280.517,763.586 277.02,765.532 275.724,767.554C282.047,767.197 288.172,766.878 294.495,767.482L267.438,788.01C260.983,793.024 253.998,797.796 249.075,804.416C246.848,820.799 245.765,837.713 247.467,854.193L248.254,858.779L251.462,873.94C252.355,877.509 254.365,882.166 253.645,885.782C241.681,872.62 228.627,859.475 221.197,843.107C215.626,835.297 213.006,824.559 208.343,816.042C208.175,814.367 208.135,813.18 208.6,811.553C215.61,792.713 227.331,776.825 240.465,761.887C243.074,758.919 245.92,754.96 249.026,752.559C251.15,750.918 253.838,749.731 256.148,748.331C261.5,745.086 266.885,741.77 271.812,737.898C278.419,732.706 283.983,726.324 290.517,721.023Z" style="fill:rgb(241,187,172);fill-rule:nonzero;"/>
        </g>
        <g transform="matrix(1,0,0,1,0,-135)">
            <path d="M208.6,811.553C211.718,812.217 220.919,806.51 224.081,804.958C219.525,817.79 219.004,829.703 221.197,843.107C215.626,835.297 213.006,824.559 208.343,816.042C208.175,814.367 208.135,813.18 208.6,811.553Z" style="fill:rgb(186,114,96);fill-rule:nonzero;"/>
        </g>
        <g transform="matrix(1,0,0,1,0,-135)">
            <path d="M373.951,687.58C376.733,687.456 379.327,686.909 381.981,686.097C382.849,685.831 384.812,684.909 385.646,684.932C386.72,684.962 388.5,685.828 389.626,686.172C392.6,687.079 395.514,687.796 398.571,688.357C408.17,690.121 417.797,687.789 427.024,685.273C428.21,687.673 429.826,689.831 431.343,692.03C429.301,683.243 427.796,676.988 432.637,668.738C436.343,662.421 442.901,660.365 449.521,658.53C445.423,664.276 442.067,669.005 442.511,676.475C442.771,680.862 445.465,686.358 448.747,689.266C453.341,693.336 462.255,697.962 468.64,697.43C474.701,696.926 483.805,695.118 487.701,689.904C490.623,685.992 489.966,681.801 489.166,677.345C494.585,679.236 499.412,681.521 504.086,684.876C510.735,690.243 513.533,694.521 516.907,702.348C517.566,703.494 518.21,705.103 519.276,705.877L519.353,703.219C521.472,702.762 526.394,706.062 528.287,707.273C538.921,714.075 547.701,724.279 555.596,733.997C557.924,736.862 561.112,740.157 562.764,743.438C566.43,755.797 568.301,767.439 568.604,780.375C595.579,788.803 621.752,806.784 635.196,832.203C640.196,841.656 643.633,851.771 646.245,862.113L648.467,871.867C648.683,872.901 648.775,874.743 649.233,875.595C650.069,877.149 653.865,879.502 655.269,881.061C664.18,890.956 666.269,901.534 666.436,914.377C664.4,920.553 662.076,926.873 659.082,932.656C650.723,941.17 641.902,947.725 632.107,954.455C633.379,948.617 634.752,942.97 636.815,937.354C639.203,930.855 642.348,924.46 644.198,917.795C646.191,910.614 646.716,903.53 646.893,896.131C640.018,889.998 634.033,883.456 628.502,876.089C625.126,871.594 621.47,864.803 617.282,861.188C615.31,859.487 612.763,858.258 610.549,856.894L598.184,848.573C585.531,839.432 573.213,828.191 562.277,817.078C569.434,817.273 576.201,818.2 583.15,819.909C567.506,803.092 551.718,787.79 529.525,780.134C540.595,776.838 551.321,777.284 562.631,778.805C548.478,761.617 534.863,744.983 518.37,729.922C510.904,723.104 503.592,716.719 494.797,711.609C482.903,719.087 468.378,720.213 455.742,713.725C451.659,711.628 447.155,708.157 442.778,706.97C436.137,705.17 426.866,705.827 419.982,705.94C411.595,706.077 403.242,707.043 394.9,707.854C388.578,708.468 382.194,708.768 376.006,710.332C362.935,713.635 350.574,718.783 337.169,720.991L347.802,707.352L353.376,707.181L356.044,707.207L356.762,706.311L353.454,700.86C357.569,696.579 362.043,692.814 366.923,689.441C369.109,687.93 371.375,687.86 373.951,687.58Z" style="fill:rgb(241,187,172);fill-rule:nonzero;"/>
        </g>
        <g transform="matrix(1,0,0,1,0,-135)">
            <path d="M504.086,684.876C510.735,690.243 513.533,694.521 516.907,702.348L503.594,699.919C505.042,694.643 504.927,690.259 504.086,684.876Z" style="fill:rgb(186,114,96);fill-rule:nonzero;"/>
        </g>
        <g transform="matrix(1,0,0,1,0,-135)">
            <path d="M397.112,810.975C408.974,809.536 418.385,813.268 429.2,817.633C434.546,819.79 440.23,822.388 445.987,823.175C455.161,824.428 463.16,820.753 472.041,820.517C480.964,820.279 488.129,825.163 494.317,831.114C504.6,841.004 511.118,856.101 511.249,870.427C511.321,878.246 508.503,887.758 502.656,893.236C498.649,896.99 489.14,902.732 483.76,902.573C482.243,902.528 481.539,902.761 480.174,903.406L480.582,912.032C480.504,917.392 478.272,921.019 474.547,924.625C463.63,931.999 446.964,933.618 434.13,936.35C420.758,926.159 398.523,924.597 388.863,910.165C386.395,906.478 384.819,901.957 385.018,897.485C385.068,896.364 385.57,894.273 385.381,893.267C385.256,892.601 378.723,886.257 377.773,884.783C371.377,874.859 366.219,860.166 369.002,848.241L369.224,847.375C371.158,839.599 375.676,832.577 379.102,825.356C382.732,817.705 389.402,813.66 397.112,810.975Z" style="fill:rgb(53,52,53);fill-rule:nonzero;"/>
        </g>
        <g transform="matrix(1,0,0,1,0,-135)">
            <path d="M372.994,850.116C374.377,844.764 376.422,839.751 378.596,834.674C381.249,828.48 383.297,822.598 389.347,819.063C396.627,814.81 404.272,814.05 412.37,816.222C423.026,819.079 433.163,825.539 444.008,827.267C450.989,828.38 457.435,827.26 464.334,826.128C467.815,825.557 471.889,824.532 475.39,825.042C479.99,825.711 484.165,828.311 487.714,831.184C492.744,835.254 496.644,839.769 499.834,845.398C504.418,853.487 508.128,864.838 506.6,874.166L506.102,873.876L505.285,873.371C499.552,869.869 495.972,864.741 489.632,861.822C479.777,857.284 466.545,858.429 456.926,862.945C449.883,866.252 442.053,871.671 433.846,870.575C425.212,869.421 420.642,861.909 414.242,857.109C410.914,854.613 406.671,853.004 402.632,852.124C394.069,850.259 381.789,850.002 374.251,854.973L373.79,855.286L373.144,854.956L372.994,850.116Z" style="fill:rgb(111,106,123);fill-rule:nonzero;"/>
        </g>
        <g transform="matrix(1,0,0,1,0,-135)">
            <path d="M506.6,874.166L506.412,875.167C505.741,879.232 504.489,882.643 502.625,886.333C500.774,889.994 494.551,895.931 490.562,897.078L489.89,897.247C479.917,899.813 470.208,898.543 460.1,898.664C465.898,902.162 472.121,902.717 478.702,903.172C478.379,907.115 478.264,912.238 476.446,915.809C471.611,925.305 456.794,926.827 447.608,929.039C442.618,930.24 437.774,931.761 432.907,933.376C421.374,920.963 401.885,920.852 391.827,906.893C389.466,903.616 387.045,898.809 387.76,894.689C388.618,894.703 389.243,894.812 390.05,895.112L394.01,896.422C397.003,897.147 400.712,897.215 403.41,895.61C401.109,894.718 398.492,894.961 396.126,894.098C391.439,892.389 388.047,890.057 386.051,885.608C385.164,883.631 382.057,882.419 381.102,880.002L380.776,879.016C379.958,878.645 379.293,878.337 378.744,877.595C374.096,871.317 371.701,857.606 372.994,850.116L373.144,854.956L373.79,855.286L374.251,854.973C381.789,850.002 394.069,850.259 402.632,852.124C406.671,853.004 410.914,854.613 414.242,857.109C420.642,861.909 425.212,869.421 433.846,870.575C442.053,871.671 449.883,866.252 456.926,862.945C466.545,858.429 479.777,857.284 489.632,861.822C495.972,864.741 499.552,869.869 505.285,873.371L506.102,873.876L506.6,874.166Z" style="fill:rgb(70,67,78);fill-rule:nonzero;"/>
        </g>
        <g transform="matrix(1,0,0,1,0,-135)">
            <path d="M428.431,899.793C428.619,903.872 428.06,908.256 427.94,912.368C427.866,914.899 428.345,918.004 426.923,920.111C424.505,913.155 426.164,906.501 428.431,899.793Z" style="fill:rgb(53,52,53);fill-rule:nonzero;"/>
        </g>
        <g transform="matrix(1,0,0,1,0,-135)">
            <path d="M471.15,866.382C473.97,866.248 478.432,866.418 480.796,868.064C482.519,869.264 483.827,871.222 484.14,873.301C484.629,876.551 482.731,881.629 480.687,884.203C479.704,885.442 479.402,886.765 478.49,887.979L478.025,888.578L477.699,889.563C476.698,891.613 471.537,894.816 469.39,895.357L468.791,895.502C467.39,896.147 466.772,896.353 465.164,896.523C462.607,895.994 460.147,895.191 457.99,893.67C454.139,890.955 451.969,886.616 451.334,882.017C450.884,878.765 451.831,876.938 453.839,874.41C458.371,868.706 464.297,867.167 471.15,866.382Z" style="fill:rgb(53,52,53);fill-rule:nonzero;"/>
        </g>
        <g transform="matrix(1,0,0,1,0,-135)">
            <path d="M391.863,855.274C393.542,855.236 395.949,854.92 397.516,855.547L400.223,856.93C402.118,857.715 404.016,859.813 405.294,861.485L405.831,862.207L406.816,863.522L407.149,864.514C409.318,868.876 412.1,875.407 411.799,880.334L410.769,879.392C409.472,880.627 409.037,882.715 408.156,884.29C406.786,886.739 404.905,887.797 402.527,889.096C400.077,889.467 398.589,889.242 396.26,888.595C394.277,888.044 391.924,886.98 390.266,885.736L389.667,885.282C388.375,884.645 389.011,885.319 388.259,884.586L387.03,883.304C384.696,881.446 381.973,878.197 381.174,875.246L380.976,874.402C380.312,872.071 379.9,869.681 380.612,867.28C381.504,864.27 384.864,858.533 387.992,857.283C389.364,856.735 390.578,856.01 391.863,855.274Z" style="fill:rgb(53,52,53);fill-rule:nonzero;"/>
        </g>
        <g transform="matrix(1,0,0,1,0,-135)">
            <path d="M502.225,332.864C506.708,338.112 511.605,343.302 518.905,344.059C520.56,344.231 522.264,343.976 523.899,343.736C514.157,339.888 508.144,336.067 503.879,325.964C502.679,323.12 502.096,320.115 501.729,317.065C500.455,306.499 502.735,297.224 509.264,288.693C518.666,276.408 534.201,269.813 548.429,264.976C538.679,275.298 530.202,289.573 530.513,304.227C530.65,310.673 533.276,317.381 538.065,321.758C544.08,327.255 552.934,329.256 560.915,328.782L568.662,327.73L551.46,324.406C571.272,314.855 596.224,308.213 617.711,315.693C627.827,319.215 638.231,323.896 647.362,329.464C658.341,336.159 669.682,345.06 681.812,349.403C675.618,343.725 669.309,338.611 662.364,333.868L652.387,327.307C651.609,326.806 650.05,326.073 649.667,325.288C675.917,323.923 700.67,334.863 719.994,352.276C731.87,362.976 742.335,375.632 750.073,389.66C758.832,405.539 764.999,422.799 773.396,438.926L783.199,456.661C784.957,459.58 787.906,463.165 789.041,466.307C790.353,469.938 790.417,474.477 791.163,478.316C792.356,484.454 794.418,490.623 796.759,496.416C790.285,499.95 784.698,503.757 779.023,508.469C790.878,503.34 804.507,495.637 817.587,495.111C826.248,494.762 834.869,497.383 842.833,500.525L898.617,521.995C886.432,528.58 867.926,536.741 853.957,532.682L836.54,526.936C834.009,526.044 830.398,524.234 827.752,524.275L828.137,525.328C840.452,532.03 850.516,538.546 865.069,537.903C867.201,537.809 872.498,536.253 873.967,536.696C874.738,536.929 876.783,539.014 877.524,539.635L895.9,556.521L908.606,566.852C898.916,565.425 890.879,566.493 881.926,570.279C887.493,571.838 892.703,573.54 897.619,576.648C913.34,586.585 921.6,604.816 933.956,618.196C940.598,625.388 948.512,630.862 957.138,635.395L958.613,642.423C947.902,636.45 940.585,634.463 928.26,635.902C931.274,637.447 934.422,638.952 936.999,641.183C949.584,652.078 957.027,672.628 962.017,688.184C965.842,700.107 970.108,714.144 970.577,726.691C962.593,710.579 951.75,699.476 934.569,693.521C945.299,705.68 951.781,719.259 950.678,735.848C950.325,741.153 947.938,747.051 945.806,751.865C936.565,772.724 921.807,789.964 924.249,814.232C924.537,817.094 924.895,822.666 926.737,824.963C926.929,823.016 926.961,820.854 927.565,818.989C927.286,825.324 927.028,831.582 928.482,837.817C929.974,844.216 933.003,850.327 935.671,856.302C936.686,858.575 938.972,862.44 939.018,864.844C939.033,865.59 938.216,867.455 937.894,868.209C932.944,876.589 927.392,882.913 919.439,888.582L912.886,893.005L896.172,905.401C894.561,906.643 892.179,908.028 891.618,909.995C904.941,904.774 916.259,896.585 927.328,887.704L905,937.949L899.209,936.197C898.603,934.168 894.366,931.564 892.579,930.167L876.536,917.961C872.998,915.487 868.886,913.23 865.621,910.445C863.613,908.732 862.09,906.096 860.535,903.976L852.123,893.14L832.482,869.727C821.232,856.372 807.735,840.471 806.486,822.413C802.183,829.704 800.806,836.115 799.844,844.464L782.46,817.57L781.766,819.031L780.989,819.093L780.7,816.817L780.578,815.903C777.721,819.083 779.458,830.164 778.749,834.729C777.82,831.708 777.294,828.764 776.825,825.644C776.85,819.654 775.809,814.441 774.195,808.692C773.046,804.601 771.408,801.121 771.324,796.805C770.396,796.715 770.905,796.823 769.824,796.382C764.304,801.594 763.162,775.964 760,770C755.599,761.7 750.24,768.024 750,740C749.015,743.745 699.34,806.244 700,810C700.61,813.468 675.398,896.143 675.714,899.667C676.023,903.119 675.714,899.667 675.714,899.667C676.245,898.21 678.11,894.595 678.02,893.349C677.996,893.014 676.768,891.4 676.55,891.06L670.213,881.265C662.875,869.624 656.116,858.24 650.956,845.461L664.784,863.555C660.927,851.118 652.248,838.758 645.312,827.828C643.441,824.88 641.989,821.509 639.878,818.755C630.747,806.845 626.068,795.54 615.57,784.517C609.855,778.516 603.673,773.166 596.422,769.069C593.744,767.556 590.956,766.325 588.11,765.165C587.634,764.971 585.601,764.37 585.306,764.044C584.734,763.414 584.253,761.423 583.883,760.519C582.55,757.257 581.358,753.684 579.499,750.69C575.86,744.827 570.909,739.404 566.548,734.06C554.876,719.758 541.688,703.295 522.831,698.83C522.546,698.762 522.218,698.795 521.975,698.631C521.769,698.491 520.653,694.685 520.474,694.19C519.52,691.556 518.434,689.245 516.673,687.046C509.133,677.629 495.33,672.053 483.867,670.888L484.604,672.878C485.499,675.303 486.423,677.575 485.719,680.183C484.872,683.319 482.561,685.255 479.83,686.785C477.082,688.324 468.473,692.271 465.563,691.376C459.954,689.652 450.425,684.343 447.842,678.882C446.155,675.314 446.094,670.497 447.379,666.784C450.341,658.227 455.86,656.158 463.259,652.487L449.605,652.012C442.679,652.326 435.404,655.507 430.749,660.679C426.081,665.865 424.858,671.861 425.143,678.619C414.602,681.386 405.704,682.147 394.798,680.981C389.999,680.468 385.274,679.455 380.437,679.35C380.129,679.553 379.697,679.869 379.332,680.015C377.243,680.849 373.831,680.614 371.602,680.552C357.331,680.151 342.797,675.949 329.976,670.208C334.556,681.398 337.677,688.239 344.665,698.05C341.23,698.362 337.314,697.526 333.844,697.331C325.478,696.861 316.111,697.084 307.903,698.821C287.207,703.202 280.194,723.391 263.897,734.932C252.318,743.131 237.309,749.914 225.868,758.479L235.222,755.308C224.551,766.598 217.307,776.925 209.872,790.596C207.647,781.911 206.725,776.685 202.765,768.617C201.78,766.609 196.779,759.207 197.027,757.522C197.288,755.751 199.66,752.536 200.432,750.688C202.351,746.094 203.281,741.543 203.905,736.631C201.808,738.222 200.722,742.51 199.447,744.971C194.937,753.683 187.051,766.116 178.022,770.494C177.115,769.101 177.62,767.282 177.752,765.637C177.14,766.093 176.933,766.056 176.745,766.82C175.825,770.554 173.923,773.974 172.511,777.54C167.694,789.696 162.354,803.759 152.982,813.147L137.614,803.461C125.056,795.387 116.154,782.935 112.506,768.622L112.089,769.375C109.754,774.021 113.232,781.401 114.888,785.948L109.307,781.653L109.901,780.687C108.522,763.494 97.828,747.711 87.657,734.326C83.519,728.88 78.83,723.496 75.382,717.583C72.318,712.326 71.936,707.125 69.636,701.816L69.455,701.417C72.751,691.423 79.441,682.062 87.41,675.291C88.48,674.081 89.822,673.171 91.105,672.203L86.845,673.343L94.901,662.827C96.906,660.348 99.265,657.922 100.646,655.041L100.857,653.952C102.693,653.416 104.045,651.788 105.408,650.499C109.791,646.354 113.789,641.791 117.824,637.312L101.32,641.445L106.752,632.16L108.726,633.61L109.474,633.472L107.437,630.605C99.965,623.606 92.933,622.065 82.976,620.9C90.353,612.23 95.612,603.438 97.591,592.119C96.82,585.675 95.401,580.724 92.502,574.913C99.945,569.068 104.304,561.376 107.537,552.652C108.898,552.482 110.032,551.872 111.257,551.295L97.163,550.054C106.696,546.23 114.652,540.702 120.801,532.353C122.439,530.13 126.025,525.408 125.604,522.594L121.304,524.532C122.601,523.085 124.968,521.073 125.593,519.285C117.538,524.481 107.995,530.275 98.823,533.137L89.287,535.432C90.709,528.567 91.865,521.026 94.393,514.49C96.452,509.166 99.866,504.169 103.206,499.578C116.927,480.72 134.248,472.632 156.773,469.119C156.477,468.423 156.71,468.779 155.934,468.157C149.88,467.898 144.224,468.438 138.233,469.188L143.484,464.881C155.417,455.564 169.203,446.836 183.921,442.875C207.082,436.642 234.125,441.787 257.537,444.716C253.555,440.904 247.674,437.903 242.997,434.904C254.133,435.387 264.59,435.689 275.745,434.521L275.631,434.154L243.796,418.098C252.424,412.094 259.851,404.605 266.797,396.764C270.986,392.035 275.141,386.48 279.851,382.272C281.107,381.15 283.054,380.7 284.655,380.298C292.248,378.389 299.449,378.258 307.213,378.304C312.522,378.336 318.709,377.823 323.925,378.636C333.776,380.171 344.39,386.257 352.86,391.321C347.784,381.725 341.272,374.363 333.413,367.015C349.247,370.721 367.248,375.463 380.579,385.087L380.32,384.152C377.256,374.041 362.186,359.541 352.867,354.795C351.889,354.481 349.974,351.671 349.205,350.775C343.127,345.477 336.847,341.762 329.585,338.292C353.836,326.78 385.312,321.246 411.48,329.316C413.118,329.451 419.684,330.319 420.903,331.202C422.844,332.607 424.801,335.983 426.923,337.774C426.899,337.006 426.774,336.681 426.401,335.997C424.481,332.476 423.752,328.927 422.992,325.013C421.156,315.552 422.496,307.721 427.915,299.664C435.266,289.528 445.114,281.364 454.468,273.14C453.94,283.57 454.633,291.917 462.038,300.071L466.844,304.82C474.295,319.045 487.633,327.144 502.225,332.864Z" style="fill:rgb(186,114,96);fill-rule:nonzero;"/>
        </g>
        <g transform="matrix(1,0,0,1,0,-135)">
            <path d="M384.54,600.445C388.596,602.642 392.621,605.123 396.098,608.172C403.293,614.482 404.491,622.454 405.002,631.534C402.856,627.691 401.618,623.424 399.598,619.507C395.879,612.292 389.924,606.449 384.54,600.445Z" style="fill:rgb(53,52,53);fill-rule:nonzero;"/>
        </g>
        <g transform="matrix(1,0,0,1,0,-135)">
            <path d="M510.841,547.118L511.412,542.093C512.284,535.198 514.353,528.041 517.103,521.67C517.839,519.965 518.405,517.977 519.89,516.822C519.954,518.56 519.622,520.382 519.42,522.113C516.484,533.913 513.853,548.242 516.051,560.228C516.763,564.11 518.351,567.81 519.807,571.458C512.904,564.389 511.154,556.785 510.841,547.118Z" style="fill:rgb(53,52,53);fill-rule:nonzero;"/>
        </g>
        <g transform="matrix(1,0,0,1,0,-135)">
            <path d="M891.618,909.995C891.225,910.296 890.933,910.861 890.44,910.898C890.352,910.904 889.317,910.237 889.121,910.179C887.97,909.843 885.255,910.341 883.935,910.332C881.976,910.318 879.737,910.135 878.302,908.679C884.671,905.826 889.652,901.524 895.557,897.97C898.764,896.04 902.402,894.598 905.884,893.234C908.241,892.31 910.975,890.932 913.516,890.822L912.886,893.005L896.172,905.401C894.561,906.643 892.179,908.028 891.618,909.995Z" style="fill:rgb(129,68,50);fill-rule:nonzero;"/>
        </g>
        <g transform="matrix(1,0,0,1,0,-135)">
            <path d="M314.645,651.665L314.922,651.987C329.968,671.527 355.907,669.919 377.794,675.097C362.41,676.753 346.762,674.776 332.321,669.264C323.102,665.746 318.589,660.555 314.645,651.665Z" style="fill:rgb(53,52,53);fill-rule:nonzero;"/>
        </g>
        <g transform="matrix(1,0,0,1,0,-135)">
            <path d="M216.371,535.079L231.277,538.295C236.186,540.485 241.29,542.118 246.138,544.46C257.543,549.97 265.704,556.872 273.727,566.507C264.555,559.988 254.796,553.488 244.586,548.696C235.098,544.244 225.153,540.833 215.977,535.718L216.371,535.079Z" style="fill:rgb(53,52,53);fill-rule:nonzero;"/>
        </g>
        <g transform="matrix(1,0,0,1,0,-135)">
            <path d="M622.816,737.693L624.393,740.259L623.736,740.927C614.398,741.018 606.201,740.585 597.603,736.476C591.353,733.49 582.553,728.341 578.773,722.459C577.384,720.297 576.572,717.294 575.713,714.868C577.64,715.436 578.855,717.026 580.776,717.494C581.643,717.705 581.871,717.835 582.561,718.386L583.378,719.058C583.418,721.465 585.528,722.913 587.213,724.576C595.234,732.488 611.829,736.666 622.816,737.693Z" style="fill:rgb(129,68,50);fill-rule:nonzero;"/>
        </g>
        <g transform="matrix(1,0,0,1,0,-135)">
            <path d="M143.25,610.085C146.645,607.885 150.055,605.745 153.779,604.138C163.27,600.043 174.03,598.009 178.996,587.856C182.317,581.065 183.386,573.538 187.146,566.855C185.998,576.343 185.275,585.17 180.817,593.787C172.596,603.566 161.073,605.378 149.777,609.944C145.736,611.578 141.888,613.96 138.032,616.005L143.25,610.085Z" style="fill:rgb(53,52,53);fill-rule:nonzero;"/>
        </g>
        <g transform="matrix(1,0,0,1,0,-135)">
            <path d="M876.88,669.723L876.984,656.853C879.568,665.454 881.04,674.328 883.802,682.896C890.095,702.418 905.406,716.308 919.072,730.867L908.91,724.541C908.671,723.801 903.721,720.305 902.85,719.519C887.513,705.659 879.545,690.082 876.88,669.723Z" style="fill:rgb(53,52,53);fill-rule:nonzero;"/>
        </g>
        <g transform="matrix(1,0,0,1,0,-135)">
            <path d="M234.186,650.339L237.363,647.352L237.692,647.908C231.504,657.685 227.379,670.306 225.32,681.619C222.135,699.117 222.025,714.959 210.213,729.57C210.51,722.959 214.719,715.27 216.375,708.67C221.506,688.218 219.795,667.606 234.186,650.339Z" style="fill:rgb(53,52,53);fill-rule:nonzero;"/>
        </g>
        <g transform="matrix(1,0,0,1,0,-135)">
            <path d="M583.378,719.058L583.952,719.252C594.269,721.616 605.664,724.812 613.781,731.941C626.9,735.093 641.868,733.721 653.527,726.538L660.037,722.312C652.67,731.907 645.016,735.957 632.942,737.381L622.816,737.693C611.829,736.666 595.234,732.488 587.213,724.576C585.528,722.913 583.418,721.465 583.378,719.058Z" style="fill:rgb(53,52,53);fill-rule:nonzero;"/>
        </g>
        <g transform="matrix(1,0,0,1,0,-135)">
            <path d="M583.952,719.252C594.269,721.616 605.664,724.812 613.781,731.941C605.497,730.25 589.625,725.772 583.952,719.252Z" style="fill:rgb(129,68,50);fill-rule:nonzero;"/>
        </g>
        <g transform="matrix(1,0,0,1,0,-135)">
            <path d="M235.158,600.99C243.803,601.143 251.108,601.81 257.448,608.39C259.724,610.753 261.162,613.068 261.626,616.333L261.347,616.968L261.099,616.441C258.703,611.637 253.658,608.497 248.65,606.941C238.551,603.801 226.442,606.214 217.34,611.227C204.5,618.299 196.26,632.201 190.083,644.989C188.041,649.215 186.499,653.705 184.147,657.767C185.108,651.58 186.226,645.894 188.312,639.969C190.204,635.066 192.685,630.524 195.633,626.183C205.458,611.712 218.26,604.143 235.158,600.99Z" style="fill:rgb(53,52,53);fill-rule:nonzero;stroke:black;stroke-width:4.2px;"/>
        </g>
        <g transform="matrix(1,0,0,1,0,-135)">
            <path d="M91.105,672.203L93.904,671.591C100.742,670.279 104.847,665.425 112.623,666.76C111.209,668.292 109.446,669.412 107.916,670.827C98.598,679.442 86.654,690.831 87.122,704.639L87.898,712.548C82.724,707.308 79.06,702.369 79.137,694.596C79.199,688.25 81.393,683.136 85.385,678.284C86.084,677.434 87.258,676.379 87.41,675.291C88.48,674.081 89.822,673.171 91.105,672.203Z" style="fill:rgb(129,68,50);fill-rule:nonzero;"/>
        </g>
        <g transform="matrix(1,0,0,1,0,-135)">
            <path d="M828.611,744.318C834.282,755.206 834.41,765.752 836.705,777.519L850.29,816.767L850.666,817.269C857.292,825.744 872.351,832.259 881.982,837.026C872.689,835.951 864.835,832.788 856.743,828.208C850.462,822.907 844.92,819.103 840.755,811.668C837.837,806.461 835.935,801.165 834.505,795.382C831.557,783.464 831.292,770.628 829.964,758.454C829.516,754.346 827.519,748.173 828.611,744.318Z" style="fill:rgb(53,52,53);fill-rule:nonzero;"/>
        </g>
        <g transform="matrix(1,0,0,1,0,-135)">
            <path d="M836.705,777.519L850.29,816.767L848.957,815.557C840.21,806.811 836.829,789.305 836.705,777.519Z" style="fill:rgb(129,68,50);fill-rule:nonzero;"/>
        </g>
        <g transform="matrix(1,0,0,1,0,-135)">
            <path d="M294.937,612.006C295.199,610.642 295.968,609.761 296.908,608.752C305.56,599.458 314.711,597.292 326.824,596.972C329.251,597.349 332.747,597.441 334.818,598.754L321.682,606.563L321.121,606.794C316.846,608.698 313.214,612.58 309.664,615.59C301.455,622.553 292.647,628.483 282.359,631.908L290.858,616.258C289.392,616.319 288.098,616.405 286.663,616.003L294.937,612.006Z" style="fill:rgb(241,187,172);fill-rule:nonzero;"/>
        </g>
        <g transform="matrix(1,0,0,1,0,-135)">
            <path d="M294.937,612.006L317.738,604.93C308.841,611.069 301.11,613.373 290.858,616.258C289.392,616.319 288.098,616.405 286.663,616.003L294.937,612.006Z" style="fill:rgb(53,52,53);fill-rule:nonzero;"/>
        </g>
        <g transform="matrix(1,0,0,1,0,-135)">
            <path d="M159.671,704.993L160.349,705.508C160.466,709.298 159.537,713.28 158.216,716.819C154.423,726.975 147.249,734.987 137.254,739.355C127.46,743.634 117.925,742.817 108.143,738.984C106.924,738.286 105.702,737.95 105.136,736.633C126.469,730.445 143.927,720.764 159.671,704.993Z" style="fill:rgb(241,187,172);fill-rule:nonzero;"/>
        </g>
        <g transform="matrix(1,0,0,1,0,-135)">
            <path d="M180.817,593.787L188.334,588.989C181.52,604.291 170.883,614.898 155.069,620.975C151.461,622.362 147.738,623.409 143.92,624.038C139.128,624.828 133.977,623.765 130.59,627.912C127.911,631.192 126.19,635.278 123.632,638.679C123.4,631.618 122.502,623.038 127.708,617.447C131.431,613.45 138.108,611.438 143.25,610.085L138.032,616.005C141.888,613.96 145.736,611.578 149.777,609.944C161.073,605.378 172.596,603.566 180.817,593.787Z" style="fill:rgb(129,68,50);fill-rule:nonzero;"/>
        </g>
        <g transform="matrix(1,0,0,1,0,-135)">
            <path d="M97.591,592.119L104.016,579.879C105.842,590.544 105.237,599.353 101.878,609.663C109.211,603.955 116.286,599.064 124.513,594.726C120.641,602.772 116.844,610.197 111.415,617.322L112.607,618.311C111.974,622.173 109.476,627.277 107.437,630.605C99.965,623.606 92.933,622.065 82.976,620.9C90.353,612.23 95.612,603.438 97.591,592.119Z" style="fill:rgb(241,187,172);fill-rule:nonzero;"/>
        </g>
        <g transform="matrix(1,0,0,1,0,-135)">
            <path d="M326.824,596.972L327.033,596.18C329.416,591.266 339.137,585.161 344.108,582.765C353.181,578.393 363.909,577.129 373.498,580.529C382.897,583.86 389.785,590.63 394.101,599.492C386.127,596.466 378.338,593.732 369.647,594.119C367.738,594.204 365.256,594.236 363.513,595.083L362.689,595.52C354.853,594.025 348.243,594.573 340.704,596.969C338.952,597.526 336.624,598.721 334.818,598.754C332.747,597.441 329.251,597.349 326.824,596.972Z" style="fill:rgb(129,68,50);fill-rule:nonzero;"/>
        </g>
        <g transform="matrix(1,0,0,1,0,-135)">
            <path d="M919.439,888.582C915.359,877.772 910.649,867.19 904.659,857.29C899.709,849.107 893.906,841.221 889.751,832.608C892.57,833.133 895.946,835.511 898.466,836.934C913.602,845.482 925.88,855.778 937.894,868.209C932.944,876.589 927.392,882.913 919.439,888.582Z" style="fill:rgb(241,187,172);fill-rule:nonzero;"/>
        </g>
        <g transform="matrix(1,0,0,1,0,-135)">
            <path d="M780.578,815.903C779.351,801.014 779.075,785.978 781.064,771.099C782.286,761.958 784.551,752.83 786.386,743.789C788.966,731.072 789.727,718.791 789.543,705.833C789.525,704.525 789.87,701.092 789.427,699.978C789.025,698.969 786.363,696.698 785.559,695.761C782.622,692.333 779.985,688.805 777.496,685.042C779.441,685.779 781.745,688.229 783.387,689.563C789.317,694.384 794.966,700.133 801.156,704.54L796.04,674.49C795.105,667.2 794.973,659.757 793.755,652.519C791.808,640.948 787.356,629.845 781.437,619.779L786.286,624.47C789.165,627.798 791.318,631.796 793.483,635.611C797.915,648.022 798.629,659.464 800.213,672.359L805.485,703.275C807.085,710.476 809.64,717.506 812.136,724.438C813.65,728.64 815.556,733.099 816.234,737.519C811.306,730.23 807.133,723.101 804.115,714.794C802.646,710.754 796.293,706.407 793.013,703.702C795.698,725.7 789.771,744.949 786.354,766.383C784.988,774.952 784.765,783.589 784.08,792.215L782.482,810.693C782.193,813.021 782.441,815.139 780.7,816.817L780.578,815.903Z" style="fill:rgb(53,52,53);fill-rule:nonzero;stroke:black;stroke-width:4.2px;"/>
        </g>
        <g transform="matrix(1,0,0,1,0,-135)">
            <path d="M465.728,419.336C468.135,432.979 468.894,450.444 466.1,464.062C463.939,474.598 459.156,484.677 457.668,495.322C456.971,500.314 457.544,504.744 457.452,509.66L452.79,504.47C449.348,499.296 447.296,494.105 446.264,487.967C442.354,464.721 452.508,438.035 465.728,419.336Z" style="fill:rgb(241,187,172);fill-rule:nonzero;"/>
        </g>
        <g transform="matrix(1,0,0,1,0,-135)">
            <path d="M156.773,469.119C163.255,467.78 168.538,470.012 174.525,472.306C153.821,476.852 138.062,487.098 122.193,500.692C118.749,503.643 114.191,506.935 111.788,510.777C107.401,517.791 102.161,525.632 98.823,533.137L89.287,535.432C90.709,528.567 91.865,521.026 94.393,514.49C96.452,509.166 99.866,504.169 103.206,499.578C116.927,480.72 134.248,472.632 156.773,469.119Z" style="fill:rgb(241,187,172);fill-rule:nonzero;"/>
        </g>
        <g transform="matrix(1,0,0,1,0,-135)">
            <path d="M856.743,828.208C857.559,833.597 872.645,847.507 876.562,853.204C879.687,857.749 881.44,863.631 885.665,867.264L887.322,868.679L887.95,869.187C886.01,869.503 884.584,869.426 882.767,868.608C877.241,866.119 872.615,861.168 867.699,857.673C863.6,854.76 859.042,852.477 854.866,849.659C830.176,833.001 822.918,800.663 825.165,772.426C825.883,763.402 828.873,751.851 827.084,743.076L826.974,742.566L827.473,742.296L828.611,744.318C827.519,748.173 829.516,754.346 829.964,758.454C831.292,770.628 831.557,783.464 834.505,795.382C835.935,801.165 837.837,806.461 840.755,811.668C844.92,819.103 850.462,822.907 856.743,828.208Z" style="fill:rgb(129,68,50);fill-rule:nonzero;"/>
        </g>
        <g transform="matrix(1,0,0,1,0,-135)">
            <path d="M501.84,526.002C504.636,523.655 506.891,520.518 509.511,517.953C515.58,512.008 522.818,507.088 530.473,503.44C529.635,507.642 523.884,515.154 521.425,519.01L519.42,522.113C519.622,520.382 519.954,518.56 519.89,516.822C518.405,517.977 517.839,519.965 517.103,521.67C514.353,528.041 512.284,535.198 511.412,542.093L510.841,547.118L510.637,547.498C509.139,550.505 508.857,554.346 508.375,557.666C505.461,577.751 510.585,597.829 511.46,617.878C501.529,598.623 486.496,577.374 491.037,554.351C494.506,544.579 496.722,535.151 501.84,526.002Z" style="fill:rgb(129,68,50);fill-rule:nonzero;"/>
        </g>
        <g transform="matrix(1,0,0,1,0,-135)">
            <path d="M908.91,724.541C911.059,730.676 915.426,735.825 917.552,742.085C922.375,756.283 918.198,768.997 911.974,781.834C911.798,772.702 911.366,763.227 907.897,754.658C904.763,746.916 898.85,741.749 894.058,735.141C884.123,721.439 875.093,705.95 871.751,689.172C869.577,678.26 869.644,666.853 870.086,655.787C872.553,657.454 874.523,666.125 876.396,669.001L876.88,669.723C879.545,690.082 887.513,705.659 902.85,719.519C903.721,720.305 908.671,723.801 908.91,724.541Z" style="fill:rgb(129,68,50);fill-rule:nonzero;"/>
        </g>
        <g transform="matrix(1,0,0,1,0,-135)">
            <path d="M407.217,591.053L407.644,588.9C415.86,593.177 423.952,602.583 426.791,611.42L429.029,619.238C429.583,608.53 428.026,593.54 420.38,585.308L409.342,575.164C421.322,577.144 429.838,578.884 437.267,589.353C442.812,597.166 444.782,606.939 443.234,616.314C441.626,626.049 436.224,635.605 429.615,642.799C428.146,644.397 426.482,646.514 424.671,647.711L423.505,648.303L423.706,645.57L423.231,646.122C420.343,649.429 417.038,652.477 413.472,655.043C415.121,650.101 417.064,644.818 417.529,639.611C418.409,629.758 414.282,615.966 410.308,606.993C409.151,604.38 407.061,601.362 407.374,598.45L407.217,591.053Z" style="fill:rgb(129,68,50);fill-rule:nonzero;"/>
        </g>
        <g transform="matrix(1,0,0,1,0,-135)">
            <path d="M407.374,598.45L406.492,598.498C383.865,570.651 345.799,573.885 314.08,565.867L322.727,560.794C336.541,553.321 355.702,547.82 371.209,552.348C379.443,554.753 386.95,558.893 393.198,564.809C401.229,572.412 405.115,580.311 407.217,591.053L407.374,598.45Z" style="fill:rgb(241,187,172);fill-rule:nonzero;"/>
        </g>
        <g transform="matrix(1,0,0,1,0,-135)">
            <path d="M741.01,744.116C743.877,742.962 747.233,743.416 750.012,744.624L753.163,746.121C761.25,750.123 765.675,760.843 768.176,768.933C771.049,778.223 771.519,787.165 771.324,796.805C770.396,796.715 770.905,796.823 769.824,796.382C766.799,780.23 764.483,763.675 753.358,750.857C739.461,771.329 723.812,792.398 720.701,817.712C719.562,826.987 720.529,836.332 722.287,845.462C725.496,862.135 731.692,878.001 738.253,893.597C724.409,890.707 715.431,885.405 706.162,874.481C703.104,870.877 700.586,866.824 697.483,863.277C696.645,873.559 697.122,883.446 698.565,893.677L701.658,910.787C702.14,913.255 703.28,916.717 702.912,919.195C689.092,908.588 677.195,892.044 669.738,876.359C668.336,873.408 666.346,869.75 666.043,866.474L665.996,865.551L679.767,885.036C683.677,890.855 687.227,896.716 691.723,902.142C693.158,903.873 694.742,906.183 696.581,907.436C693.586,891.793 690.541,876.055 694.794,860.343C695.62,857.289 696.418,852.724 699.393,851.004L699.231,852.931C699.08,854.254 698.732,855.734 699.149,857.04C700.11,860.049 702.877,863.104 704.808,865.584C712.632,875.626 719.157,882.105 730.743,887.622L720.336,856.831C710.981,822.115 717.897,799.543 735.464,769.181C736.802,760.522 740.293,752.752 744.542,745.17L741.01,744.116Z" style="fill:rgb(53,52,53);fill-rule:nonzero;"/>
        </g>
        <g transform="matrix(1,0,0,1,0,-135)">
            <path d="M744.542,745.17C747.224,746.612 749.895,747.977 752.29,749.876C746.071,756.033 740.54,762.022 735.464,769.181C736.802,760.522 740.293,752.752 744.542,745.17Z" style="fill:rgb(186,114,96);fill-rule:nonzero;"/>
        </g>
        <g transform="matrix(1,0,0,1,0,-135)">
            <path d="M393.438,541.771C410.015,541.702 426.283,545.077 440.733,553.424C449.842,558.685 457.188,568.483 459.785,578.679C463.213,592.145 460.864,604.926 453.736,616.755C451.72,619.755 449.232,622.372 446.818,625.05L446.974,615.674C446.663,602.52 442.708,589.449 434.009,579.374C428.664,573.184 421.687,567.791 415.557,562.371L393.438,541.771Z" style="fill:rgb(241,187,172);fill-rule:nonzero;"/>
        </g>
        <g transform="matrix(1,0,0,1,0,-135)">
            <path d="M349.205,350.775C343.127,345.477 336.847,341.762 329.585,338.292C353.836,326.78 385.312,321.246 411.48,329.316C424.128,338.1 432.972,346.601 440.319,360.311C413.038,344.272 379.44,346.496 349.205,350.775Z" style="fill:rgb(241,187,172);fill-rule:nonzero;"/>
        </g>
        <g transform="matrix(1,0,0,1,0,-135)">
            <path d="M793.483,635.611C793.411,631.784 792.523,628.236 791.724,624.518C807.868,640.454 812.724,673.038 812.89,694.945C812.93,700.295 812.506,705.993 813.22,711.294C814.179,718.409 816.906,725.829 819.004,732.699C820.113,736.333 821.568,739.697 823.196,743.12C823.705,744.189 824.986,746.14 824.897,747.209C815.416,740.511 808.936,733.144 802.767,723.321C804.615,734.263 805.35,744.894 802.455,755.784C801.363,759.891 799.353,763.823 797.618,767.691C795.113,773.274 792.678,778.651 791.771,784.753L791.613,785.734C790.779,791.511 794.402,797.929 796.323,803.274C791.899,799.811 787.924,796.305 784.08,792.215C784.765,783.589 784.988,774.952 786.354,766.383C789.771,744.949 795.698,725.7 793.013,703.702C796.293,706.407 802.646,710.754 804.115,714.794C807.133,723.101 811.306,730.23 816.234,737.519C815.556,733.099 813.65,728.64 812.136,724.438C809.64,717.506 807.085,710.476 805.485,703.275L800.213,672.359C798.629,659.464 797.915,648.022 793.483,635.611Z" style="fill:rgb(129,68,50);fill-rule:nonzero;"/>
        </g>
        <g transform="matrix(1,0,0,1,0,-135)">
            <path d="M216.371,535.079L215.724,534.805C213.775,534.041 210.883,534.169 208.801,534.073C197.458,533.548 189.531,537.027 179.258,540.955L159.326,548.345C170.004,532.862 183.013,515.262 202.723,511.802C218.976,508.949 235.363,515.279 248.403,524.673C257.628,531.319 266.095,539.307 273.229,548.161C274.102,549.245 276.357,551.533 276.57,552.868L249.504,543.49C243.734,541.511 237.398,538.765 231.277,538.295L216.371,535.079Z" style="fill:rgb(241,187,172);fill-rule:nonzero;"/>
        </g>
        <g transform="matrix(1,0,0,1,0,-135)">
            <path d="M491.037,554.351C489.102,550.775 487.932,546.257 487.129,542.286C483.271,523.213 485.592,504.48 496.594,488.123C511.271,466.3 535.795,456.888 560.548,452.085L533.871,481.561C522.305,494.149 507.794,508.9 502.037,525.401L501.84,526.002C496.722,535.151 494.506,544.579 491.037,554.351Z" style="fill:rgb(241,187,172);fill-rule:nonzero;"/>
        </g>
        <g transform="matrix(1,0,0,1,0,-135)">
            <path d="M754.176,522.258L762.104,521.123C766.073,528.513 771.111,537.43 770.942,545.994L770.525,550.07C773.099,560.421 774.232,569.896 774.619,580.507L773.146,608.443C775.009,618.694 776.316,629.647 772.754,639.734C768.587,651.533 760.762,660.239 749.481,665.594C753.849,657.007 757.468,648.39 758.787,638.749C759.604,632.779 759.383,626.478 759.414,620.452C759.456,612.168 759.192,604.091 757.313,595.985C750.719,600.437 744.944,602.754 737.269,604.858C742.377,599.179 747.906,593.327 751.445,586.512C755.117,579.44 755.703,571.339 756.027,563.509C756.434,553.684 756.182,543.912 755.122,534.133C754.739,530.593 752.93,525.53 754.176,522.258Z" style="fill:rgb(129,68,50);fill-rule:nonzero;"/>
        </g>
        <g transform="matrix(1,0,0,1,0,-135)">
            <path d="M770.017,598.158L763.77,589.639L770.025,579.866L770.017,598.158Z" style="fill:rgb(186,114,96);fill-rule:nonzero;"/>
        </g>
        <g transform="matrix(1,0,0,1,0,-135)">
            <path d="M770.025,579.866C770.323,570.249 768.822,559.473 770.525,550.07C773.099,560.421 774.232,569.896 774.619,580.507L773.146,608.443L771.371,618.955L770.017,598.158L770.025,579.866Z" style="fill:rgb(53,52,53);fill-rule:nonzero;stroke:black;stroke-width:2.33px;"/>
        </g>
        <g transform="matrix(1,0,0,1,0,-135)">
            <path d="M188.312,639.969L187.801,639.857C186.836,638.285 187.666,634.66 187.903,632.812C189.84,617.735 196.207,602.181 208.553,592.716C217.562,585.809 228.947,582.524 240.224,584.043C249.328,585.27 255.398,589.737 260.852,596.921C265.818,578.505 272.465,561.053 288.949,549.878C305.053,538.961 323.063,536.937 341.75,540.594C332.989,545.179 324.792,549.895 316.972,555.975C298.298,570.494 282.584,588.727 264.582,604.138C264.913,605.527 265.174,606.453 264.725,607.868C263.856,607.165 263.108,606.667 262.088,606.206C261.175,606.854 260.589,607.345 259.451,607.447L259.656,604.797C259.223,604.008 258.86,603.635 258.084,603.165C250.276,598.436 243.676,598.905 235.158,600.99C218.26,604.143 205.458,611.712 195.633,626.183C192.685,630.524 190.204,635.066 188.312,639.969Z" style="fill:rgb(241,187,172);fill-rule:nonzero;"/>
        </g>
        <g transform="matrix(1,0,0,1,0,-135)">
            <path d="M640.796,606.235C667.254,602.809 690.641,604.913 712.462,621.706C735.828,639.688 751.598,667.939 755.303,697.194C755.813,701.223 756.439,705.397 756.341,709.461L731.283,679.524L707.15,654.568C696.248,643.424 685.663,632.196 672.256,624.001C662.922,618.295 652.325,614.822 642.276,610.578C639.865,609.659 637.482,608.843 635.304,607.434C637.084,606.858 638.959,606.587 640.796,606.235Z" style="fill:rgb(241,187,172);fill-rule:nonzero;"/>
        </g>
        <g transform="matrix(1,0,0,1,0,-135)">
            <path d="M597.052,546.722C602.065,545.855 608.477,546.33 613.573,546.757C631.59,548.263 648.859,553.865 665.296,561.156C662.432,563.041 655.687,563.71 652.142,564.58L602.85,576.408C586.462,580.935 570.618,587.745 556.047,596.46C545.598,603.456 536.429,611.475 530.453,622.731C528.744,625.948 527.748,629.48 525.984,632.642L525.165,632.306C524.341,630.73 523.711,629.207 523.492,627.427C521.29,609.558 528.198,590.926 539.369,577.195C554.296,558.848 573.744,549.197 597.052,546.722Z" style="fill:rgb(241,187,172);fill-rule:nonzero;"/>
        </g>
        <g transform="matrix(1,0,0,1,0,-135)">
            <path d="M334.818,598.754C336.624,598.721 338.952,597.526 340.704,596.969C348.243,594.573 354.853,594.025 362.689,595.52C374.061,599.23 384.31,607.589 389.686,618.311C392.321,623.565 402.881,647.21 402.1,652.575C401.422,652.089 400.953,651.475 400.406,650.85C397.369,654.009 394.245,657.532 390.713,660.12C382.896,665.848 372.011,668.898 362.379,669.108C347.872,669.425 334.232,663.185 323.867,653.189C318.633,648.142 315.883,642.671 313.911,635.759C309.475,635.932 305.655,637.379 301.344,637.995C296.811,638.642 292.314,637.899 287.873,637.013C293.067,633.974 297.739,630.611 302.377,626.789C308.349,619.01 314.49,613.143 321.682,606.563L334.818,598.754Z" style="fill:rgb(53,52,53);fill-rule:nonzero;"/>
        </g>
        <g transform="matrix(1,0,0,1,0,-135)">
            <path d="M302.377,626.789C301.261,629.756 299.657,633.072 299.061,636.169L311.789,620.771C312.111,625.952 312.736,630.711 313.911,635.759C309.475,635.932 305.655,637.379 301.344,637.995C296.811,638.642 292.314,637.899 287.873,637.013C293.067,633.974 297.739,630.611 302.377,626.789Z" style="fill:rgb(129,68,50);fill-rule:nonzero;"/>
        </g>
        <g transform="matrix(1,0,0,1,0,-135)">
            <path d="M324.324,647.429C323.581,645.712 322.303,644.359 321.669,642.53C319.701,636.845 320.381,628.505 321.214,622.554C321.638,619.52 322.409,617.874 324.845,616.015C325.792,617.787 325.695,618.153 327.652,618.873L326.458,619.768L326.44,621.585C325.498,623.423 325.559,625.878 326.007,627.896L326.3,628.785L327.002,631.917C327.999,634.047 328.667,636.312 331.13,637.078L331.745,637.221C332.89,639.197 333.939,639.395 335.765,640.639C338.499,642.678 339.861,642.707 343.187,642.577L343.665,643.235L344.256,644.019L344.624,644.541C345.526,645.542 348.042,646.686 349.382,646.635C350.092,646.608 350.543,646.126 351.099,645.743L352.747,647.833L358.162,649.392C360.609,650.08 363.73,650.751 365.994,651.804C378.282,652.598 386.368,650.309 396.639,643.717L400,648.96C395.084,652.393 390.06,656.395 384.723,659.112C375.653,663.73 363.813,665.823 353.82,664.096C348.709,663.213 344.274,661.209 339.529,659.237C333.517,655.95 328.995,652.468 324.324,647.429Z" style="fill:rgb(76,55,48);fill-rule:nonzero;"/>
        </g>
        <g transform="matrix(1,0,0,1,0,-135)">
            <path d="M364.958,663.422C365.07,660.644 364.47,653.874 365.994,651.804L365.865,663.029L364.958,663.422Z" style="fill:rgb(129,68,50);fill-rule:nonzero;"/>
        </g>
        <g transform="matrix(1,0,0,1,0,-135)">
            <path d="M324.324,647.429L326.703,644.835L328.681,644.766C332.498,648.59 339.563,653.138 339.541,658.752L339.529,659.237C333.517,655.95 328.995,652.468 324.324,647.429Z" style="fill:rgb(254,255,255);fill-rule:nonzero;"/>
        </g>
        <g transform="matrix(1,0,0,1,0,-135)">
            <path d="M324.845,616.015C331.517,608.667 340.884,604.421 350.741,603.865C357.084,603.508 363.421,604.748 369.56,606.182C372.346,606.832 375.523,607.339 377.718,609.29C387.106,617.636 390.623,632.936 396.639,643.717C386.368,650.309 378.282,652.598 365.994,651.804C363.73,650.751 360.609,650.08 358.162,649.392L352.747,647.833L351.099,645.743C350.543,646.126 350.092,646.608 349.382,646.635C348.042,646.686 345.526,645.542 344.624,644.541L344.256,644.019L343.665,643.235L343.187,642.577C339.861,642.707 338.499,642.678 335.765,640.639C333.939,639.395 332.89,639.197 331.745,637.221L331.13,637.078C328.667,636.312 327.999,634.047 327.002,631.917L326.3,628.785L326.007,627.896C325.559,625.878 325.498,623.423 326.44,621.585L326.458,619.768L327.652,618.873C325.695,618.153 325.792,617.787 324.845,616.015Z" style="fill:rgb(55,32,23);fill-rule:nonzero;"/>
        </g>
        <g transform="matrix(1,0,0,1,0,-135)">
            <path d="M331.745,637.221C335.328,637.552 339.124,637.666 342.637,638.416L342.976,640.063C341.112,641.558 338.135,640.761 335.765,640.639C333.939,639.395 332.89,639.197 331.745,637.221Z" style="fill:rgb(129,68,50);fill-rule:nonzero;"/>
        </g>
        <g transform="matrix(1,0,0,1,0,-135)">
            <path d="M326.3,628.785L343.187,631.059L343.703,632.483L342.857,633.516L327.002,631.917L326.3,628.785Z" style="fill:rgb(129,68,50);fill-rule:nonzero;"/>
        </g>
        <g transform="matrix(1,0,0,1,0,-135)">
            <path d="M327.652,618.873C331.49,619.317 340.546,619.5 343.245,621.936L342.924,623.584C341.98,624.032 342.136,624.149 341.049,623.872L326.44,621.585L326.458,619.768L327.652,618.873Z" style="fill:rgb(129,68,50);fill-rule:nonzero;"/>
        </g>
        <g transform="matrix(1,0,0,1,0,-135)">
            <path d="M372.034,617.322C373.323,617.024 374.836,616.859 376.154,617.024C378.411,617.305 380.493,619.428 381.599,621.285C383.738,624.875 384.125,630.175 383.021,634.151C382.187,637.152 380.74,638.583 378.132,640.156C376.193,640.59 374.939,639.53 373.187,638.779C370.744,637.732 369.321,636.891 368.017,634.46C366.235,631.138 365.902,625.987 367.05,622.397C367.907,619.718 369.607,618.502 372.034,617.322Z" style="fill:rgb(254,255,255);fill-rule:nonzero;"/>
        </g>
        <g transform="matrix(1,0,0,1,0,-135)">
            <path d="M665.996,865.551C664.927,864.309 663.749,863.115 663.495,861.432C663.015,858.242 663.578,854.526 663.872,851.331C665.837,829.957 677.013,805.735 690.884,789.493C693.643,786.262 696.665,783.208 699.949,780.508C701.987,778.833 704.997,777.064 706.646,775.057C710.556,770.297 713.19,763.676 716.927,758.544C726.962,744.761 738.045,737.28 754.851,734.656C751.622,737.114 748.83,740.201 745.984,743.086C743.416,742.834 741.143,742.866 738.579,743.107L738.791,743.857L741.01,744.116L744.542,745.17C740.293,752.752 736.802,760.522 735.464,769.181C717.897,799.543 710.981,822.115 720.336,856.831L730.743,887.622C719.157,882.105 712.632,875.626 704.808,865.584C702.877,863.104 700.11,860.049 699.149,857.04C698.732,855.734 699.08,854.254 699.231,852.931L699.393,851.004C696.418,852.724 695.62,857.289 694.794,860.343C690.541,876.055 693.586,891.793 696.581,907.436C694.742,906.183 693.158,903.873 691.723,902.142C687.227,896.716 683.677,890.855 679.767,885.036L665.996,865.551Z" style="fill:rgb(241,187,172);fill-rule:nonzero;"/>
        </g>
        <g transform="matrix(1,0,0,1,0,-135)">
            <path d="M580.675,672.861C587.953,662.349 595.912,654.296 608.848,651.77C617.966,649.99 625.404,652.628 633.963,654.961C641.052,656.892 646.781,657.613 653.125,661.934C657.164,664.685 660.189,668.635 663.294,672.35L676.892,688.414C681.421,695.586 681.47,699.745 679.843,707.954C678.37,704.642 679.27,700.175 677.608,696.423L675.824,697.439C673.704,697.114 668.893,690.401 667.218,688.459L666.096,694.417C664.265,703.519 656.768,712.631 649.121,717.544C636.152,725.876 620.051,726.824 605.233,723.612C592.798,720.917 582.051,711.254 577.494,699.427C576.243,696.181 575.989,691.916 574.157,689.05L572.728,689.832C571.928,687.001 578.95,676.017 580.675,672.861Z" style="fill:rgb(53,52,53);fill-rule:nonzero;"/>
        </g>
        <g transform="matrix(1,0,0,1,0,-135)">
            <path d="M580.717,697.334L575.167,687.266C586.167,674.365 593.846,657.487 612.842,656.01C627.117,654.899 641.863,663.023 652.33,672.042C656.592,675.715 660.26,680.121 663.838,684.446C661.778,696.683 657.207,705.984 646.905,713.303L645.166,714.51L645.434,709.607C646.447,709.05 646.693,709.281 647.802,709.425C648.02,708.826 648.464,708.266 648.455,707.629C648.44,706.619 645.613,705.374 645.165,704.573C644.08,702.634 644.14,698.097 643.471,695.764C642.522,692.456 640.922,689.365 639.951,686.027L639.755,685.336L639.328,685.696L638.63,686.246C637.489,687.162 636.557,687.891 635.08,688.187C633.128,688.579 631.171,688.195 629.57,686.996C627.724,685.614 627.346,684.295 627.116,682.067C626.765,678.662 625.555,675.755 625.622,672.256C614.814,668.918 605.367,667.494 594.893,673.105C589.214,676.148 584.208,682.277 582.439,688.486L580.717,697.334Z" style="fill:rgb(55,32,23);fill-rule:nonzero;"/>
        </g>
        <g transform="matrix(1,0,0,1,0,-135)">
            <path d="M645.195,693.127C648.321,693.254 652.719,695.595 655.055,697.669L654.72,699.06C652.251,699.425 647.006,696.451 644.754,695.105L645.195,693.127Z" style="fill:rgb(129,68,50);fill-rule:nonzero;"/>
        </g>
        <g transform="matrix(1,0,0,1,0,-135)">
            <path d="M625.622,672.256C627.099,669.958 628.167,668.907 630.659,667.765C632.786,667.59 634.671,667.431 636.385,668.92C639.316,671.464 640.224,675.871 640.287,679.574C640.321,681.553 640.293,683.419 639.755,685.336L639.328,685.696L638.63,686.246C637.489,687.162 636.557,687.891 635.08,688.187C633.128,688.579 631.171,688.195 629.57,686.996C627.724,685.614 627.346,684.295 627.116,682.067C626.765,678.662 625.555,675.755 625.622,672.256Z" style="fill:rgb(254,255,255);fill-rule:nonzero;"/>
        </g>
        <g transform="matrix(1,0,0,1,0,-135)">
            <path d="M580.717,697.334L582.439,688.486C584.208,682.277 589.214,676.148 594.893,673.105C605.367,667.494 614.814,668.918 625.622,672.256C625.555,675.755 626.765,678.662 627.116,682.067C627.346,684.295 627.724,685.614 629.57,686.996C631.171,688.195 633.128,688.579 635.08,688.187C636.557,687.891 637.489,687.162 638.63,686.246L639.328,685.696L639.755,685.336L639.951,686.027C640.922,689.365 642.522,692.456 643.471,695.764C644.14,698.097 644.08,702.634 645.165,704.573C645.613,705.374 648.44,706.619 648.455,707.629C648.464,708.266 648.02,708.826 647.802,709.425C646.693,709.281 646.447,709.05 645.434,709.607L645.166,714.51L639.231,717.81C628.732,722.581 610.834,721.542 600.224,717.352L599.366,716.993L598.573,716.683C592.619,714.146 583.049,703.373 580.717,697.334Z" style="fill:rgb(76,55,48);fill-rule:nonzero;"/>
        </g>
        <g transform="matrix(1,0,0,1,0,-135)">
            <path d="M156.195,732.534C161.723,728.729 168.997,726.865 175.156,724.208C170.16,723.731 165.108,724.351 160.22,722.984L160.003,722.29L162.857,721.282C173.466,717.567 183.287,710.643 192.427,704.196C182.727,704.101 174.897,703.172 165.949,699.22C177.843,697.13 197.462,692.543 204.861,681.99C210.398,674.092 213.738,664.163 218.267,655.622C220.241,651.898 222.795,646.196 225.824,643.371L226.475,648.303C231.098,645.322 234.479,641.742 239.639,639.305C238.186,642.334 234.753,646.077 234.299,649.285L234.186,650.339C219.795,667.606 221.506,688.218 216.375,708.67C214.719,715.27 210.51,722.959 210.213,729.57L203.905,736.631C201.808,738.222 200.722,742.51 199.447,744.971C194.937,753.683 187.051,766.116 178.022,770.494C177.115,769.101 177.62,767.282 177.752,765.637C177.14,766.093 176.933,766.056 176.745,766.82C175.825,770.554 173.923,773.974 172.511,777.54C167.694,789.696 162.354,803.759 152.982,813.147L137.614,803.461C139.256,799.646 138.694,792.653 139.072,788.379C140.175,775.929 144.664,764.596 150.797,753.828C141.892,759.859 136.015,768.362 130.571,777.432C130.453,770.706 130.054,762.584 133.544,756.561L134.711,753.642C139.554,742.39 144.98,737.038 156.195,732.534Z" style="fill:rgb(129,68,50);fill-rule:nonzero;"/>
        </g>
        <g transform="matrix(1,0,0,1,0,-135)">
            <path d="M156.195,732.534C161.016,731.763 164.271,730.628 168.745,728.723C168.256,730.601 166.263,731.868 164.674,732.812C159.352,735.973 153.174,737.342 148.343,741.369C144.83,744.298 141.682,747.752 138.766,751.265C137.342,752.981 135.765,755.546 133.962,756.792L133.544,756.561L134.711,753.642C139.554,742.39 144.98,737.038 156.195,732.534Z" style="fill:rgb(53,52,53);fill-rule:nonzero;"/>
        </g>
        <g transform="matrix(1,0,0,1,0,-135)">
            <path d="M580.675,672.861C578.224,673.029 575.794,674.321 573.555,675.287C566.487,678.333 560.253,682.427 553.535,686.123L557.107,680.557C559.449,677.435 561.152,672.99 560.28,668.984C559.841,666.966 558.457,664.834 557.787,662.823C556.854,660.019 556.721,656.972 555.727,654.236C554.503,650.869 552.116,647.874 550.839,644.403C549.296,640.212 548.519,634.866 548.702,630.391C549.259,616.742 555.448,604.055 565.583,594.983C578.658,583.281 597.393,580.935 614.222,581.802C612.546,584.013 606.353,586.29 603.743,587.695C586.577,596.931 573.77,608.625 564.367,625.741C567.914,622.153 571.39,618.597 575.59,615.757C593.736,603.487 619.381,601.218 640.517,605.313L640.796,606.235C638.959,606.587 637.084,606.858 635.304,607.434C637.482,608.843 639.865,609.659 642.276,610.578C641.074,611.158 639.87,611.567 639.131,612.739C642.409,613.489 645.489,614.336 648.63,615.541C641.289,616.935 631.17,618.276 625.003,622.498C641.951,621.943 656.984,624.655 669.894,636.542C677.221,643.288 681.934,652.067 684.822,661.494L684.371,662.995C687.31,664.676 688.824,667.655 690.453,670.505C694.463,677.52 697.321,684.571 699.474,692.354C701.964,701.359 703.423,712.608 701.958,721.909C696.596,711.822 690.399,701.619 682.532,693.266C681.176,691.825 679.205,689.361 677.389,688.566L676.892,688.414L663.294,672.35C660.189,668.635 657.164,664.685 653.125,661.934C646.781,657.613 641.052,656.892 633.963,654.961C625.404,652.628 617.966,649.99 608.848,651.77C595.912,654.296 587.953,662.349 580.675,672.861Z" style="fill:rgb(129,68,50);fill-rule:nonzero;"/>
        </g>
        <g transform="matrix(1,0,0,1,0,-135)">
            <path d="M669.051,671.022C674.834,675.456 680.059,677.758 686.867,680.259C689.689,681.295 693.708,682.072 696.074,683.899C693.159,684.621 689.555,683.885 686.621,683.339C678.065,681.746 673.902,677.929 669.051,671.022Z" style="fill:rgb(53,52,53);fill-rule:nonzero;"/>
        </g>
        <g transform="matrix(1,0,0,1,0,-135)">
            <path d="M595.991,645.655L609.248,642.892L575.958,662.431C578.069,658.65 581.097,655.778 584.114,652.73L595.991,645.655Z" style="fill:rgb(53,52,53);fill-rule:nonzero;"/>
        </g>
        <g transform="matrix(1,0,0,1,0,-135)">
            <path d="M596.076,638.739C600.755,638.721 605.343,638.66 609.984,639.371C605.421,641.676 600.28,642.781 595.991,645.655L584.114,652.73C580.246,654.669 576.855,657.586 573.653,660.45C573.908,659.184 575.645,657.393 576.447,656.355C581.973,649.203 588.934,644.121 596.076,638.739Z" style="fill:rgb(186,114,96);fill-rule:nonzero;"/>
        </g>
        <g transform="matrix(1,0,0,1,0,-135)">
            <path d="M625.003,622.498C641.951,621.943 656.984,624.655 669.894,636.542C677.221,643.288 681.934,652.067 684.822,661.494L684.371,662.995C662.854,648.713 635.794,640.478 609.984,639.371C605.343,638.66 600.755,638.721 596.076,638.739C594.183,638.793 592.281,638.979 590.449,638.416C599.809,629.18 612.529,625.216 625.003,622.498Z" style="fill:rgb(241,187,172);fill-rule:nonzero;"/>
        </g>
        <g transform="matrix(1,0,0,1,0,-135)">
            <path d="M502.225,332.864C506.708,338.112 511.605,343.302 518.905,344.059C520.56,344.231 522.264,343.976 523.899,343.736C514.157,339.888 508.144,336.067 503.879,325.964C502.679,323.12 502.096,320.115 501.729,317.065C500.455,306.499 502.735,297.224 509.264,288.693C518.666,276.408 534.201,269.813 548.429,264.976C538.679,275.298 530.202,289.573 530.513,304.227C530.65,310.673 533.276,317.381 538.065,321.758C544.08,327.255 552.934,329.256 560.915,328.782L568.662,327.73L551.46,324.406C571.272,314.855 596.224,308.213 617.711,315.693C627.827,319.215 638.231,323.896 647.362,329.464C658.341,336.159 669.682,345.06 681.812,349.403C675.618,343.725 669.309,338.611 662.364,333.868L652.387,327.307C651.609,326.806 650.05,326.073 649.667,325.288C675.917,323.923 700.67,334.863 719.994,352.276C731.87,362.976 742.335,375.632 750.073,389.66C758.832,405.539 764.999,422.799 773.396,438.926L783.199,456.661C784.957,459.58 787.906,463.165 789.041,466.307C790.353,469.938 790.417,474.477 791.163,478.316C792.356,484.454 794.418,490.623 796.759,496.416C790.285,499.95 784.698,503.757 779.023,508.469C790.878,503.34 804.507,495.637 817.587,495.111C826.248,494.762 834.869,497.383 842.833,500.525L898.617,521.995C886.432,528.58 867.926,536.741 853.957,532.682L836.54,526.936C834.009,526.044 830.398,524.234 827.752,524.275L828.137,525.328C833.092,540.991 846.654,547.263 858.828,556.6C847.168,556.038 836.261,555.043 824.989,551.82L861.787,602.834C836.225,596.697 816.258,586.023 800.678,564.221L814.917,629.859C796.243,616.161 784.316,601.717 774.619,580.507C774.232,569.896 773.099,560.421 770.525,550.07L770.942,545.994C771.111,537.43 766.073,528.513 762.104,521.123L754.176,522.258L696.679,525.472C707.78,513.612 720.877,505.954 736.036,500.548L705.434,485.297L708.951,483.976C714.402,482.032 720.222,481.352 725.964,480.986C742.198,479.952 754.267,483.066 768.843,489.967L756.025,471.981C743.896,456.149 729.881,440.951 710.732,433.793C703.483,431.083 696.068,429.868 688.427,428.857C705.31,420.762 720.524,420.691 738.542,424.453C727.407,417.115 714.888,411.271 703.16,404.916C682.703,393.831 662.07,380.48 639.748,373.631C645.728,371.106 652.359,371.276 658.743,371.418L685.089,372.999L662.093,362.805C642.266,352.888 622.105,340.332 600.224,335.683C582.083,331.828 562.569,332.541 544.181,333.605C555.263,343.02 566.298,351.974 579.53,358.264C584.516,360.634 589.771,362.263 594.791,364.558C576.477,367.518 558.865,365.912 541.383,359.517C538.447,358.443 535.628,357.149 532.817,355.787C531.906,355.345 529.894,354.007 528.962,353.893C524.998,353.405 518.899,355.11 514.666,355.28C493.051,356.145 472.924,354.504 454.61,341.794C439.442,331.266 431.218,317.509 427.915,299.664C435.266,289.528 445.114,281.364 454.468,273.14C453.94,283.57 454.633,291.917 462.038,300.071L466.844,304.82C474.295,319.045 487.633,327.144 502.225,332.864Z" style="fill:rgb(241,187,172);fill-rule:nonzero;"/>
        </g>
        <g transform="matrix(1,0,0,1,0,-135)">
            <path d="M762.104,521.123L774.759,519.188C776.14,518.958 778.167,518.312 779.449,518.743C775.483,527.786 772.58,536.245 770.942,545.994C771.111,537.43 766.073,528.513 762.104,521.123Z" style="fill:rgb(186,114,96);fill-rule:nonzero;"/>
        </g>
    </g>
</svg>
