<?xml version="1.0" encoding="utf-8" ?>
<svg xmlns="http://www.w3.org/2000/svg" xmlns:xlink="http://www.w3.org/1999/xlink" width="100" height="100">
	<path fill="#273034" transform="matrix(0.1 0 0 0.1 0 -3.8147e-06)" d="M672.788 48.5182C680.196 48.7807 687.408 51.8512 692.627 57.2124C696.484 61.175 699.244 66.3396 701.818 71.1819C715.4 96.7344 719.57 127.416 721.342 155.975L722.387 196.305L764.335 162.922C807.84 130.15 853.523 101.14 901.455 75.3274C914.198 68.4648 927.618 59.9249 941.709 56.259C947.728 54.6931 955.149 53.96 960.654 57.4202C965.793 60.6506 968.325 66.3109 969.7 72C971.297 78.613 971.366 85.4383 971.317 92.2032C971.101 121.414 962.462 148.681 953.748 176.232L942.485 211.611L926.473 251.119C918.127 270.137 909.18 288.706 898.203 306.364C888.229 322.407 876.887 337.86 864.124 351.807C819.879 400.152 762.25 433.287 702.25 458.173C678.4 468.064 654.39 477.25 629.2 483.144L626.237 490.66C625.967 491.317 625.146 492.726 625.119 493.371C625.023 495.621 627.707 500.376 628.597 502.684C629.721 505.603 630.612 508.651 631.338 511.693C633.571 521.047 633.738 530.053 633.247 539.588L678.406 550.289C696.714 555.297 713.13 563.037 728.822 573.739L756.982 595.052C761.838 598.709 767.121 601.842 772.154 605.252L789.428 617.998C819.729 641.887 845.139 673.811 864.143 707.335C890.459 753.756 904.794 813.218 890.174 865.619C880.563 900.066 858.578 928.477 827.259 945.95C806.228 957.684 782.365 964.047 758.489 966.366C739.777 968.184 722.653 967.883 704.405 962.658C670.147 952.851 640.714 931.457 614.368 908.105C584.04 881.225 556.586 850.111 535.088 815.698C528.15 804.591 521.863 793.129 516.244 781.3C513.712 775.972 511.856 770.034 509.035 764.93C506.767 788.475 502.483 814.027 489.248 834.217C485.071 840.589 479.292 850.25 470.947 851.423C470.21 851.527 469.256 851.547 468.636 851.117C465.157 848.701 463.381 844.644 463.514 840.451C463.749 833.039 467.569 826.112 469.801 819.176C477.065 796.604 479.447 775.386 475.402 751.943C467.69 754.555 460.292 755.542 452.181 755.464C451.371 776.368 447.903 797.53 440.474 817.139C436.785 826.875 432.577 835.841 426.009 844.027C423.043 847.724 416.303 856.123 411.133 856.157C410.148 856.163 409.113 855.976 408.403 855.284C406.901 853.82 406.021 850.912 405.885 848.877C405.588 844.422 410.568 840.672 412.377 836.733C416.901 826.881 420.42 816.489 423.631 806.142C429.251 788.032 431.408 769.726 431.579 750.848C423.04 746.806 416.354 742.264 409.615 735.638C401.445 740.267 393.481 743.256 384.255 744.987C374.872 746.419 365.223 745.756 355.964 743.885C354.323 756.87 355.809 771.489 358.121 784.299C359.031 789.344 360.145 794.541 361.612 799.46C364.043 807.609 374.103 831.44 370.18 838.379C369.407 839.745 368.628 839.844 367.188 840.268C364.02 839.583 359.939 834.142 357.971 831.67C337.063 805.42 331.062 767.171 334.877 734.599C323.731 726.821 316.124 716.48 309.506 704.766C308.515 705.463 305.545 707.075 305.094 708.057C304.247 709.9 304.622 714.14 304.599 716.309C304.46 729.222 304.831 742.744 306.483 755.55C307.402 762.674 308.742 769.665 310.493 776.631C311.948 782.416 313.678 788.252 315.705 793.861C318.036 800.311 326.393 816.07 324.231 822.266C323.693 823.805 323.153 823.895 321.777 824.607C318.216 823.903 314.254 819.597 311.934 816.944C307.984 812.425 304.992 807.174 302.174 801.901C288.15 775.662 286.542 746.209 288.519 717.167C280.375 721.245 272.298 725.256 263.519 727.826C252.842 730.95 242.299 731.771 231.234 731.877C224.254 731.944 217.679 731.957 210.892 730.064C204.046 728.154 197.919 724.747 192.51 720.16C183.229 712.291 176.412 702.069 169.824 691.958L158.281 673.814C151.289 661.602 145.491 648.621 140.728 635.391L133.805 613.193C132.641 608.79 131.885 604.149 130.486 599.829C129.382 596.417 126.698 593.165 125.066 589.91C120.274 580.353 117.864 569.761 116.918 559.158C115.753 546.117 117.249 532.822 119.675 520.01L122.243 508.06C122.407 507.395 123.312 504.88 123.208 504.331C123.146 504.001 122.593 504.063 122.286 503.927L101.264 493.811C98.3168 492.287 94.7261 490.796 92.1155 488.756C90.9194 487.822 90.0472 486.679 89.3462 485.341C87.2051 481.254 87.0762 474.903 88.5208 470.549C88.9482 469.261 89.8706 467.879 91.1646 467.355C92.5549 466.792 93.6093 466.993 94.9707 467.524C99.4066 469.255 103.921 472.178 108.195 474.362L129.764 484.759C133.362 477.118 137.18 470.886 142.716 464.483C146.489 460.118 148.866 454.334 152.122 449.533C160.718 436.857 170.043 425.647 181.09 415.049C162.132 387.238 148.546 357.202 133.929 327.06L124.599 327.931C124.274 327.968 122.452 328.091 122.294 328.195C122.132 328.301 121.146 331.114 120.989 331.49C119.901 334.101 118.649 336.635 117.116 339.015C112.564 346.082 106.253 351.984 99.5116 356.934C89.3699 364.382 79.0035 368.625 67.627 373.553C60.5481 376.619 53.703 380.685 45.6537 379.217C42.2372 378.594 39.8106 376.542 37.9791 373.652C34.8731 368.75 34.7616 362.154 36.1417 356.689C37.4208 351.625 40.4084 347.86 43.9015 344.12C50.9026 336.625 59.3589 330.514 68.1636 325.311C81.2719 317.565 96.002 311.203 110.848 307.785C118.078 306.12 125.437 305.282 132.805 304.524C136.739 304.119 141.926 302.9 145.752 303.891C147.539 305.123 148.525 306.234 149.375 308.248C151.809 314.013 150.729 319.878 148.559 325.457L193.124 405.186C216.664 386.201 246.094 378.589 275.037 372.202C272.763 365.545 271.504 358.196 270.113 351.287L261.119 294.933C253.956 296.097 246.765 297.148 239.741 299.001C238.026 299.453 235.665 299.798 234.339 301.025C233.572 303.584 234.025 304.902 234.304 307.439C234.943 313.232 231.043 318.89 227.524 323.208C219.617 332.908 207.647 341.638 194.824 342.67C187.35 343.272 176.77 344.107 170.925 338.707C166.682 334.787 165.139 328.793 165.077 323.2C164.991 315.333 167.93 308.25 173.459 302.673C180.022 296.052 188.492 292.343 197.004 288.906C216.095 281.196 235.969 276.74 256.109 272.805L266.113 270.957C268.796 270.407 271.414 269.57 274.17 269.578C276.169 270.563 277.246 271.608 278.124 273.697C279.927 277.983 280.427 284.447 278.571 288.836C277.503 291.362 275.975 292.175 273.463 293.051L272.8 293.272C273.81 300.472 274.373 307.855 275.873 314.968C277.332 321.892 279.658 328.76 281.581 335.574L291.107 369.343C309.087 366.791 327.209 365.861 345.306 367.738C351.522 368.382 356.907 370.239 362.7 372.504C362.843 372.559 362.98 372.712 363.128 372.671C363.564 372.551 364.792 371.476 365.224 371.172L371.054 367.197C381.504 360.403 391.972 354.347 404.2 351.473C426.175 346.309 447.557 351.261 466.448 362.955C470.843 350.834 476.522 338.907 481.833 327.148L506.158 275.921L529.611 233.425C552.842 191.728 576.634 149.834 605.472 111.7C616.1 97.6474 627.168 84.32 639.266 71.5113C645.543 64.8652 651.986 57.7135 659.873 52.9433C663.972 50.4639 668.051 49.1747 672.788 48.5182Z"/>
	<path fill="#FED922" transform="matrix(0.1 0 0 0.1 0 -3.8147e-06)" d="M878.455 776.537L883.359 806.581C886.09 838.963 875.808 870.846 854.736 895.677C833.797 920.35 803.922 934.993 772.479 940.996C764.199 942.577 756.08 943.257 747.698 943.926L740.734 943.958C773.312 922.586 802.076 896.983 826.77 866.781C837.469 853.695 847.607 839.81 855.96 825.101C864.835 809.471 871.675 793.14 878.455 776.537Z"/>
	<path fill="#FED922" transform="matrix(0.1 0 0 0.1 0 -3.8147e-06)" d="M628.182 561.129C655.622 567.618 683.361 572.447 708.874 585.024C702.28 603.445 695.321 621.262 686.638 638.815C659.615 693.438 620.329 741.462 570.061 776.16L539.554 794.137L508.5 729.259L513.76 723.2C524.191 725.475 535.72 723.471 545.367 719.104C557.991 713.39 571.147 702.363 577.77 690.043C581.884 682.39 584.149 673.611 585.497 665.069C586.046 661.585 586.347 658.171 586.495 654.651C586.545 653.471 586.293 650.809 586.669 649.784C587.059 648.722 590.063 646.219 590.949 645.24C596.451 639.164 600.038 631.139 601.335 623.077C602.106 618.282 602.177 613.316 602.07 608.466C602.03 606.637 601.063 596.595 601.471 595.738C601.559 595.553 604.963 593.775 605.481 593.447C608.595 591.478 611.38 589.166 613.9 586.477C620.814 579.098 624.671 570.453 628.182 561.129Z"/>
	<path fill="#FED922" transform="matrix(0.1 0 0 0.1 0 -3.8147e-06)" d="M760.351 621.557C785.703 640.461 809.663 662.844 830.362 686.732L828.248 692.457C796.047 779.677 736.144 859.853 650.135 899.414L638.492 904.348C631.475 899.388 624.909 893.446 618.465 887.774C606.314 877.08 594.596 865.994 583.723 853.988L634.54 827.968C655.816 814.526 676.102 798.448 692.574 779.327C730.174 735.679 747.868 676.707 760.351 621.557Z"/>
	<path fill="#B2F2FD" transform="matrix(0.1 0 0 0.1 0 -3.8147e-06)" d="M669.291 71.4384L669.805 71.4246C675.904 71.44 680.5 73.8051 684.757 78.0091C701.758 94.7996 704.841 121.949 707.427 144.439C708.684 155.369 709.886 166.73 709.892 177.734C709.895 182.713 707.6 209.998 705.267 212.192C666.873 248.307 631.902 289.752 600.632 332.111L569.58 375.98L559.516 391.379C558.617 392.81 557.186 395.986 555.988 397.035C555.531 397.434 552.061 397.865 551.3 398.03L536.487 401.64L530.666 393.968L529.709 392.822C517.22 378.692 502.091 371.303 483.363 370.475C484.474 366.811 486.446 363.142 487.977 359.611L497.778 337.498C514.583 299.824 532.734 262.804 553.092 226.91C566.662 202.986 581.234 179.392 597.289 157.048C613.941 133.874 632.206 111.867 650.833 90.2675L659.21 80.5433C662.002 77.2433 664.932 72.6417 669.291 71.4384Z"/>
	<path fill="#FEF2B3" transform="matrix(0.1 0 0 0.1 0 -3.8147e-06)" d="M412.846 375.184C415.144 374.774 418.031 374.987 420.41 374.974C434.317 374.893 447.949 379.696 458.9 388.283C461.104 390.01 463.155 391.887 465.181 393.818C465.638 394.253 466.896 395.769 467.427 395.98C468.73 396.497 472.773 395.973 474.365 396.023C479.094 396.17 483.916 396.855 488.525 397.901C505.057 401.652 521.978 411.531 531.043 426.234L531.339 426.729C540.805 423.425 550.632 421.548 560.657 421.123C574.911 420.52 592.015 424.889 602.606 434.835C610.56 442.305 618.438 452.534 618.641 463.943C618.799 472.784 614.329 478.062 608.501 484.008C612.975 493.527 616.184 503.594 618.407 513.865C619.531 519.055 620.667 525.072 620.538 530.381C620.308 539.856 616.436 551.65 611.293 559.555C604.842 569.472 596.98 574.202 585.654 576.675C591.473 592.548 592.539 611.684 580.704 625.226C579.587 626.503 573.163 631.632 572.991 632.023C572.779 632.503 574.538 640.06 574.627 641.357C575.021 647.138 574.636 653.585 573.172 659.222C569.028 675.179 558.734 686.557 544.615 694.731C533.545 701.139 522.118 702.803 509.738 699.774C508.879 699.564 508.437 699.289 507.892 700.085C500.757 710.513 492.131 718.215 481.357 724.707C471.15 730.137 457.855 734.19 446.198 732.741C430.155 730.747 418.711 723.52 408.948 710.734L408.119 711.28C392.777 721.239 374.153 725.757 356.069 721.899C339.92 718.454 329.127 710.066 320.246 696.341C332.532 686.286 343.557 674.943 354.718 663.69C365.19 653.133 375.757 642.658 385.415 631.337C394.71 620.44 403.964 608.908 410.889 596.363C418.096 583.306 422.215 569.625 425.738 555.231C427.362 548.598 429.21 541.995 430.374 535.26C432.451 523.242 432.901 511.222 431.926 499.075C431.045 488.086 428.823 476.982 426.507 466.211C419.677 434.446 408.285 406.442 382.99 384.894C392.491 379.704 402.09 376.428 412.846 375.184Z"/>
	<path fill="#B2F2FD" transform="matrix(0.1 0 0 0.1 0 -3.8147e-06)" d="M947.008 77.7473C948.309 77.6943 950.627 77.4867 951.775 78.0996C953.7 79.1272 955.099 83.3631 955.653 85.4257C957.753 93.2324 957 101.479 956.426 109.438C955.768 118.574 954.948 127.848 952.915 136.79C949.867 150.195 944.92 163.506 940.545 176.529C928.056 213.71 914.653 250.8 894.567 284.668C852.275 355.979 782.241 401.756 707.338 433.355C682.091 444.006 656.673 453.347 630.101 460.126C628.27 448.323 623.745 438.342 617.362 428.348C607.033 412.454 592.39 402.608 574.321 397.685L586.249 380.462C628.567 321.427 674.135 263.742 728.596 215.362C760.334 187.167 794.258 162.814 830.078 140.157L878.784 110.415L909.912 93.7518C921.613 87.6334 933.838 79.9244 947.008 77.7473Z"/>
	<path fill="#FED922" transform="matrix(0.1 0 0 0.1 0 -3.8147e-06)" d="M299.454 391.357C311.32 389.99 324.718 391.041 336.409 393.391C358.54 397.84 384.864 409.821 397.669 429.205C403.178 437.544 407.754 446.781 410.794 456.314C416.05 472.796 417.555 489.885 418.078 507.098C418.497 520.922 418.347 534.733 415.479 548.34C412.483 562.559 406.784 575.798 399.016 588.05C380.487 617.274 352.977 641.916 326.849 664.254C315.751 673.743 304.497 683.435 292.21 691.37C281.514 698.276 269.811 704.062 257.291 706.718C251.682 707.907 245.936 708.196 240.229 708.578C232.014 709.129 224.141 709.215 216.048 707.434C193.73 702.524 182.707 681.12 171.343 663.41C161.385 648.46 154.398 631.393 148.439 614.527C150.612 609.421 152.566 603.553 152.745 597.973C152.956 591.377 150.718 584.471 150.068 577.866C147.637 553.161 144.468 527.3 147.256 502.544C148.121 494.862 149.168 486.02 151.913 478.764C153.005 475.875 154.844 473.462 156.357 470.799C165.501 454.703 177.575 441.162 192.032 429.614C195.21 432.154 197.844 436.195 200.662 439.202C205.195 444.04 210.415 448.183 215.354 452.588C218.628 455.508 221.819 459.118 225.586 461.373C226.995 461.476 227.707 461.722 228.907 460.833C231.308 459.056 231.606 454.035 231.586 451.343C231.561 448.165 231.237 444.627 229.583 441.842C227.559 438.433 221.685 434.896 218.594 432.225L205.59 420.14C228.245 405.966 255.436 397.546 281.776 393.759C287.486 412.086 297.662 430.891 309.265 446.094C310.773 448.069 311.821 449.765 314.453 450.112C315.664 449.751 316.088 449.756 316.882 448.785C320.148 444.79 319.594 435.909 317.64 431.438C316.305 428.382 312.824 425.422 310.779 422.699C308.541 419.719 306.194 416.494 304.603 413.109C302.707 409.075 301.544 404.464 300.148 400.219C299.272 397.555 297.999 394.645 297.753 391.846L299.454 391.357Z"/>
	<path fill="#FE2293" transform="matrix(0.1 0 0 0.1 0 -3.8147e-06)" d="M190.466 635.498L191.668 635.248C192.497 635.475 193.142 635.682 193.833 636.215C197.377 638.947 198.022 643.241 198.475 647.378C208.586 659.704 223.346 649.078 236.067 650.297C241.497 650.817 245.373 654.487 250.39 656.201L251.221 656.472C254.563 657.602 257.858 658.014 261.341 658.425C264.41 658.787 268.914 658.616 271.045 661.201C273.91 664.676 274.62 671.413 273.912 675.775C273.516 678.216 272.166 679.935 270.252 681.396C267.861 682.108 265.339 681.632 262.903 681.367C259.019 680.945 255.11 680.327 251.416 679.012C247.168 677.5 243.515 674.979 239.39 673.304C238.606 672.986 236.65 672.062 235.849 672.069C233.245 672.09 229.284 673.819 226.562 674.399C221.765 675.423 216.213 675.734 211.309 675.652C205.046 675.546 199.212 672.317 195.01 667.803C188.972 661.317 186.648 652.987 186.934 644.28C187.051 640.723 187.808 637.952 190.466 635.498Z"/>
	<path fill="#273034" transform="matrix(0.1 0 0 0.1 0 -3.8147e-06)" d="M398.473 450.928C399.546 450.745 399.706 450.56 400.759 451.033C403.387 452.213 404.977 455.531 405.828 458.117C407.027 461.762 407.749 466.767 405.893 470.331C404.078 473.815 400.442 476.23 397.388 478.536C387.514 485.991 377.929 491.56 366.114 495.294C369.767 502.265 372.352 510.272 373.673 518.025C378.296 545.171 374.153 574.863 358.007 597.672C350.864 607.762 340.659 616.311 328.187 618.361C317.147 620.176 305.966 615.6 297.146 609.322L291.401 604.093C282.057 594.038 276.333 580.803 274.361 567.281C273.826 563.617 273.807 559.847 273.585 556.152C273.356 552.354 272.837 548.412 273.016 544.61C273.996 523.832 289.629 501.29 304.724 487.826C311.555 481.732 320.799 475.569 330.078 474.282C334.505 473.668 338.533 474.098 342.935 474.365L343.843 473.735C346.564 471.978 347.828 473.801 350.498 474.3C352.435 474.662 354.502 474.396 356.445 474.177C366.866 472.999 377.406 467.224 385.71 461.073C390.053 457.856 393.961 453.869 398.473 450.928Z"/>
	<path fill="white" transform="matrix(0.1 0 0 0.1 0 -3.8147e-06)" d="M313.146 501.914C316.401 502.762 319.823 502.799 321.969 505.507C325.076 509.426 326.147 516.134 325.53 521.052C324.59 528.538 321.752 538.002 315.714 542.806L313.358 543.368C311.635 543.652 310.139 542.871 308.838 541.806C305.342 538.946 304.034 533.875 303.728 529.541C302.954 518.575 306.066 510.226 313.146 501.914Z"/>
</svg>
