<?xml version="1.0" encoding="utf-8" ?>
<svg xmlns="http://www.w3.org/2000/svg" xmlns:xlink="http://www.w3.org/1999/xlink" width="200" height="200">
	<path fill="#7A81FE" d="M0 -0L200 0L200 200L-0 200L0 -0Z"/>
	<path fill="#FEFE47" d="M22.9997 25.1311L39.9541 24.9758L40.0214 51.2427L30.0622 50.8294L13.7456 50.1189L12.8337 25.1615L22.9997 25.1311Z"/>
	<path fill="#FEFE47" d="M103.791 19.4354L154.537 20.0175L154.734 42.5411L104.91 42.5223L103.791 19.4354Z"/>
	<path fill="#FEFE47" d="M19.5499 136.004L107.01 137.265L106.946 176.233L106.495 176.47L18.5148 176.041L19.5499 136.004Z"/>
	<path fill="#FEFE47" d="M91.7256 53.4911L138.715 56.5341L138.475 94.0131L183.16 95.6902C182.35 111.298 182.585 126.762 183.197 142.367C183.21 142.677 183.161 142.87 182.981 143.125L182.062 143.23L124.188 140.975C123.782 140.281 124.219 136.949 124.23 135.981L124.39 115.918L124.467 110.691C124.475 110.093 124.597 109.272 124.365 108.719L89.6859 108.038L91.7256 53.4911Z"/>
</svg>
