<?xml version="1.0" encoding="utf-8" ?>
<svg xmlns="http://www.w3.org/2000/svg" xmlns:xlink="http://www.w3.org/1999/xlink" width="200" height="200">
	<path fill="#A4FFA3" d="M0.25 200C0.174678 199.874 0.110822 199.746 0.0577575 199.608C-0.17625 199.003 -0.00054638 197.687 -0.000985311 196.981L-0.00685029 189.19L-0.0233149 151.342C-0.0267883 137.786 -0.516924 1.5212 0.25 0L11.3288 0L11.9072 0L23.5625 0L23.9166 0L32.7942 0L33.4251 0L44.8125 0L45.102 0L52.5277 0L53.5529 0L64.5625 0L64.9492 0L65.9146 0L76.5003 0L76.8126 0L88.6875 0L88.9604 0L89.6666 0L100.272 0L100.914 0L112.339 0L112.806 0L113.671 0L125.244 0L125.913 0L137 0L137.708 0L149.607 0L150 0L161.688 0L161.959 0L162.67 0L175.945 0L176.297 0L188.062 0L188.296 0L189.161 0L200 0L200 198.757L200 200L199 200L190.92 200L189.475 200L189.18 200L177.919 200L176.991 200L166.665 200L165.386 200L164.845 200L153.673 200L153.092 200L141.163 200L140.085 200L139.609 200L128.415 200L127.764 200L114.915 200L113.501 200L112.812 200L101.924 200L101.016 200L89.9165 200L88.4825 200L88.3103 200L76.6715 200L75.9988 200L67.165 200L65.9675 200L65.3216 200L54.4216 200L53.8014 200L46.1668 200L44.7487 200L44.0629 200L33.1722 200L32.3791 200L24.8737 200L23.9813 200L13.1686 200L12.378 200L11.5778 200L0.25 200Z"/>
	<path fill="#7DFF7A" d="M137.708 0L149.607 0L152.878 199.586L153.092 200L141.163 200L140.085 200L137.708 0Z"/>
	<path fill="#7DFF7A" d="M161.959 0L162.67 0L175.945 0L175.918 0.290833L176.98 199.788L176.991 200L166.665 200L165.386 200L161.959 0Z"/>
	<path fill="#A4FFA3" d="M175.945 0L176.297 0L188.062 0L188.296 0L189.161 0L200 0L200 198.757L200 200L199 200L190.92 200L189.475 200L189.18 200L177.919 200L176.991 200L176.98 199.788L175.918 0.290833L175.945 0Z"/>
	<path fill="#7DFF7A" d="M188.296 0L189.161 0L200 0L200 198.757L200 200L199 200L190.92 200L189.475 200C189.694 198.023 189.488 195.774 189.48 193.775L189.334 178.452L189.113 133.272L188.296 0Z"/>
	<path fill="#7DFF7A" d="M88.9604 0L89.6666 0L100.272 0L100.914 0L112.339 0L112.806 0L113.671 0L125.244 0L125.913 0L137 0L137.708 0L140.085 200L139.609 200L128.415 200L127.764 200L114.915 200L113.501 200L112.812 200L101.924 200L101.016 200L89.9165 200L88.4825 200L88.9604 0Z"/>
	<path fill="#A4FFA3" d="M125.244 0L125.913 0L137 0L137.708 0L140.085 200L139.609 200L128.415 200L127.764 200L127.548 197.637L125.191 0.211583L125.244 0Z"/>
	<path fill="#A4FFA3" d="M88.9604 0L89.6666 0L100.272 0L100.914 0L112.339 0L112.806 0L113.501 200L112.812 200L101.924 200L101.016 200L89.9165 200L88.4825 200L88.9604 0Z"/>
	<path fill="#7DFF7A" d="M88.9604 0L89.6666 0L100.272 0L100.269 0.21221L101.023 199.784L101.016 200L89.9165 200L88.4825 200L88.9604 0Z"/>
	<path fill="#A4FFA3" d="M0.25 200C0.174678 199.874 0.110822 199.746 0.0577575 199.608C-0.17625 199.003 -0.00054638 197.687 -0.000985311 196.981L-0.00685029 189.19L-0.0233149 151.342C-0.0267883 137.786 -0.516924 1.5212 0.25 0L11.3288 0L11.9072 0L23.5625 0L23.9166 0L32.7942 0L33.4251 0L44.8125 0L45.102 0L52.5277 0L53.5529 0L64.5625 0L64.9492 0L65.9146 0L76.5003 0L76.8126 0L88.6875 0L88.9604 0L88.4825 200L88.3103 200L76.6715 200L75.9988 200L67.165 200L65.9675 200L65.3216 200L54.4216 200L53.8014 200L46.1668 200L44.7487 200L44.0629 200L33.1722 200L32.3791 200L24.8737 200L23.9813 200L13.1686 200L12.378 200L11.5778 200L0.25 200Z"/>
	<path fill="#7DFF7A" d="M45.102 0L52.5277 0L53.5462 194.046L53.8014 200L46.1668 200L44.7487 200L45.102 0Z"/>
	<path fill="#7DFF7A" d="M64.9492 0L65.9146 0L76.5003 0L76.5051 0.214835L75.9841 199.789L75.9988 200L67.165 200L65.9675 200C66.2127 198.214 66.036 196.164 66.0341 194.346L66.0097 182.903L65.7923 141.927L65.3025 64.324L64.9492 0Z"/>
	<path fill="#A4FFA3" d="M32.7942 0L33.4251 0L44.8125 0L45.102 0L44.7487 200L44.0629 200L33.1722 200L32.3791 200L32.7942 0Z"/>
	<path fill="#A4FFA3" d="M76.5003 0L76.8126 0L88.6875 0L88.9604 0L88.4825 200L88.3103 200L76.6715 200L75.9988 200L75.9841 199.789L76.5051 0.214835L76.5003 0Z"/>
	<path fill="#A4FFA3" d="M0.25 200C0.174678 199.874 0.110822 199.746 0.0577575 199.608C-0.17625 199.003 -0.00054638 197.687 -0.000985311 196.981L-0.00685029 189.19L-0.0233149 151.342C-0.0267883 137.786 -0.516924 1.5212 0.25 0L11.3288 0L11.9072 0L23.5625 0L23.9166 0L32.7942 0L32.3791 200L24.8737 200L23.9813 200L13.1686 200L12.378 200L11.5778 200L0.25 200Z"/>
	<path fill="#7DFF7A" d="M23.9166 0L32.7942 0L32.3791 200L24.8737 200L23.9166 0Z"/>
	<path fill="#7DFF7A" d="M0.25 200C0.174678 199.874 0.110822 199.746 0.0577575 199.608C-0.17625 199.003 -0.00054638 197.687 -0.000985311 196.981L-0.00685029 189.19L-0.0233149 151.342C-0.0267883 137.786 -0.516924 1.5212 0.25 0L11.3288 0L11.3317 0.203411L12.378 200L11.5778 200L0.25 200Z"/>
</svg>
