<?xml version="1.0" encoding="utf-8" ?>
<svg xmlns="http://www.w3.org/2000/svg" xmlns:xlink="http://www.w3.org/1999/xlink" width="200" height="200">
	<path fill="#FFBFFA" d="M0 -0L27.0947 0L67.5439 0L91.2216 0L131.691 0L199.57 0L200 0L200 22.0285L200 22.3462L200 60.5593L200 62.3953L200 93.0091L200 93.9019L200 94.7075L200 131.897L200 134.156L200 199.321L200 200L132.759 200L92.3105 200L68.517 200L28.0665 200L0 200L0 198.999L0 134.486L0 94.1687L0 93.2785L0 63.2646L0 62.9404L0 22.555L0 21.5837L0 -0Z"/>
	<path fill="#FE9CF7" d="M67.5439 0L91.2216 0L91.2179 0.224486C91.2399 2.61129 91.7097 21.3265 91.2288 22.1546L67.7032 22.3009L67.5963 0.808393L67.5439 0Z"/>
	<path fill="#FE9CF7" d="M0 -0L27.0947 0L27.0647 0.228259L27.2352 22.4368L0 22.555L0 21.5837L0 -0Z"/>
	<path fill="#FE9CF7" d="M68.0219 93.9927L67.8688 62.7813L91.6517 62.7538L91.789 93.9472L68.0219 93.9927Z"/>
	<path fill="#FE9CF7" d="M0 62.9404L27.5042 62.9603L27.5796 94.0193L9.06828 94.0524C6.15016 94.0581 2.87231 93.7629 0 94.1687L0 93.2785L0 63.2646L0 62.9404Z"/>
	<path fill="#FE9CF7" d="M131.691 0L199.57 0L200 0L200 22.0285L152.192 22.0434L138.32 22.0714C136.289 22.0835 133.942 21.8603 131.951 22.2146L131.901 21.9956C131.583 19.4978 131.785 16.7341 131.771 14.2037L131.771 0.36231L131.691 0Z"/>
	<path fill="#FE9CF7" d="M68.517 200L68.1947 134.466L92.0809 134.413L92.3105 200L68.517 200Z"/>
	<path fill="#FFD6FE" d="M91.789 93.9472L132.198 93.8931L132.528 134.343L106.062 134.457L97.8469 134.451C95.8755 134.425 93.9085 134.262 91.944 134.497L91.789 93.9472Z"/>
	<path fill="#FFD6FE" d="M27.755 134.609L27.629 93.9931L68.0219 93.9927L68.2989 134.507L27.755 134.609Z"/>
	<path fill="#FFD6FE" d="M131.901 21.9956L131.951 22.2146C131.65 23.4056 131.838 24.9493 131.855 26.1877L131.908 33.5578L132.1 62.6668L91.5816 62.8046L91.4332 22.1566L131.901 21.9956Z"/>
	<path fill="#FFD6FE" d="M27.24 22.3818L67.7372 22.2405L67.9602 62.8362L27.1421 63.0016C27.8245 58.8519 27.3163 54.1302 27.3061 49.8991L27.24 22.3818Z"/>
	<path fill="#FE9CF7" d="M0.404485 134.644L27.8506 134.526L28.0665 200L0 200L0 198.999L0 134.486L0.404485 134.644Z"/>
	<path fill="#FE9CF7" d="M199.688 62.4526L200 62.3953L200 93.0091L200 93.9019L132.198 93.8931L131.996 62.6434L199.688 62.4526Z"/>
	<path fill="#FE9CF7" d="M199.743 134.229L200 134.156L200 199.321L200 200L132.759 200L132.435 134.317L199.743 134.229Z"/>
</svg>
