<?xml version="1.0" encoding="utf-8" ?>
<svg xmlns="http://www.w3.org/2000/svg" xmlns:xlink="http://www.w3.org/1999/xlink" width="200" height="200">
	<path fill="#FEBD8E" d="M0 -0L8.09317 0L15.769 0L85.3437 0L98.4337 0L165.756 0L166.275 0L167.694 0L198.986 0L200 0L200 200L180.95 200L172.636 200L132.565 200L129.018 200L0 200L0 199.669L0 -0Z"/>
	<path fill="#FEE2CE" d="M165.756 0L166.275 0C169.179 2.43259 172.747 3.99337 175.696 6.375C183.588 12.7495 189.133 24.4306 190.013 34.3921L190.321 39.358C187.999 36.9202 186.172 33.5099 184.243 30.7129C177.591 21.0646 170.014 11.3275 165.694 0.345921L165.756 0Z"/>
	<path fill="#FEE2CE" d="M20.1557 139.397C21.4569 139.879 22.701 141.064 23.804 141.91C28.499 145.513 33.3644 149.629 36.4975 154.722C39.0327 158.844 41.267 163.834 41.6753 168.71C42.1761 174.691 40.3455 181.166 38.9721 186.947L38.5135 189.318L35.0127 184.224C32.6776 180.16 31.7619 174.774 30.561 170.256L26.6203 157.112C25.4054 153.684 23.8892 150.505 22.2954 147.247C21.5826 145.79 20.5454 144.186 20.0705 142.645C19.769 141.668 19.7893 140.845 20.0339 139.865L20.1557 139.397Z"/>
	<path fill="#FEE2CE" d="M172.636 200C169.389 193.944 166.685 187.576 164.581 181.034C162.333 174.04 160.698 166.936 157.255 160.382L152.185 151.625C150.745 149.301 144.111 140.006 144.076 138.25C144.237 138.067 144.4 137.774 144.646 137.752C146.304 137.607 155.34 143.934 157.032 145.458C160.141 148.259 162.711 151.856 164.715 155.514C167.547 160.684 169.627 166.629 171.637 172.157L180.95 200L172.636 200Z"/>
	<path fill="#FEE2CE" d="M129.018 200C125.379 192.985 124.128 184.722 121.079 177.413C117.333 168.434 112.246 159.9 107.9 151.186L100.481 134.722C105.714 138.27 110.847 141.838 115.375 146.283C123.301 154.066 127.857 163.931 129.923 174.758L132.565 200L129.018 200Z"/>
	<path fill="#FEE2CE" d="M8.09317 0L15.769 0L16.071 0.271406C18.812 2.85319 21.6925 5.15226 24.2643 7.93685C27.7258 11.6848 30.9599 15.946 33.3214 20.473C38.2169 29.858 40.4224 40.9285 42.1526 51.3039C30.1556 42.3699 20.495 30.9576 14.3008 17.3273C11.7705 11.7594 9.92282 5.97088 8.04649 0.162827L8.09317 0Z"/>
	<path fill="#FEE2CE" d="M85.3437 0L98.4337 0L98.9582 0.347215L102.19 3.38233C103.836 5.17327 105.328 7.04832 106.69 9.06528C110.198 14.2625 113.149 19.9185 116.402 25.2858L123.835 37.3772C125.341 39.8964 126.995 42.4964 127.981 45.2721C129.182 48.6527 129.114 51.767 128.963 55.2866L128.708 55.2664L117.343 45.3324C112.961 41.6013 108.413 37.9093 104.405 33.771C98.6668 27.8451 94.0415 20.7937 90.5582 13.3307C88.5655 9.06146 87.0011 4.63691 85.3072 0.246206L85.3437 0Z"/>
	<path fill="#FEE2CE" d="M147.492 82.802C151.251 85.2995 155.321 88.0972 158.674 91.0954C169.979 101.204 178.621 115.699 185.074 129.275L196.921 155.261C191.934 152.505 186.927 149.636 182.508 146.011C167.817 133.958 158.604 115.006 152.256 97.5C150.504 92.6685 149.331 87.5783 147.492 82.802Z"/>
	<path fill="#FEE2CE" d="M145.607 27.3977C149.856 28.6535 154.262 29.7917 158.083 32.1058C165.703 36.7205 170.821 45.2943 175.415 52.6622L180.679 61.0482C184.345 67.442 187.418 74.2429 189.549 81.3071C190.923 85.8617 191.989 90.4459 192.841 95.125C193.517 98.8369 193.976 102.592 194.882 106.256C190.807 103.621 187.095 99.4521 184.373 95.4412C180.435 89.638 178.482 82.709 174.918 76.6384L166.232 62.1968L152.3 40.3885L145.607 27.3977Z"/>
	<path fill="#FEE2CE" d="M65.0369 34.7823C65.6511 34.9043 66.1332 35.1175 66.6718 35.4364L72.4675 39.2321C79.309 43.5431 86.0723 47.988 91.5562 54.0126C102.519 66.0563 106.176 82.2251 110.255 97.5L116.613 121.416C114.5 118.477 113.008 114.987 111.181 111.847L100.625 94.8021L80.4526 65.4686C76.4288 59.5832 72.2496 53.7364 69.2599 47.2317C67.4013 43.188 66.2614 39.0455 65.0369 34.7823Z"/>
	<path fill="#FEE2CE" d="M16.6696 57.1496C16.9665 57.2381 17.2468 57.3458 17.5 57.5287C19.7503 59.154 21.8567 61.4526 23.9626 63.3013C30.0485 68.6438 36.8683 73.6768 41.5026 80.4155C44.5839 84.896 46.7186 90.0521 50.0324 94.3594C52.4574 97.5114 55.3094 100.391 57.8848 103.426C63.1552 109.637 67.8464 116.463 69.7783 124.488C72.0305 133.843 71.3131 143.705 71.5164 153.255C71.6051 157.421 72.0204 161.583 72.4967 165.719C70.9978 164.28 69.837 162.261 68.7274 160.509C63.6303 152.462 60.3629 143.513 55.6968 135.246C52.1704 128.998 47.8172 123.244 44.625 116.809C41.3703 110.248 39.1575 103.276 35.6075 96.832C31.5523 89.4708 26.0081 83.2578 22.4138 75.5764C19.6551 69.6804 18.2132 63.4278 16.6696 57.1496Z"/>
</svg>
