<?xml version="1.0" encoding="UTF-8" standalone="no"?>
<!DOCTYPE svg PUBLIC "-//W3C//DTD SVG 1.1//EN" "http://www.w3.org/Graphics/SVG/1.1/DTD/svg11.dtd">
<svg width="100%" height="100%" viewBox="0 0 200 200" version="1.1" xmlns="http://www.w3.org/2000/svg" xmlns:xlink="http://www.w3.org/1999/xlink" xml:space="preserve" xmlns:serif="http://www.serif.com/" style="fill-rule:evenodd;clip-rule:evenodd;stroke-linejoin:round;stroke-miterlimit:2;">
    <g transform="matrix(0.626017,0.779809,-0.779809,0.626017,115.379,-40.5826)">
        <path d="M53.459,61.636L54.534,61.892C56.209,62.282 57.577,62.615 58.638,62.89C59.699,63.166 60.944,63.525 62.374,63.968L61.471,67.856C60.762,67.61 60.366,67.474 60.281,67.447C58.452,66.808 56.924,66.3 55.695,65.921C54.467,65.542 53.027,65.166 51.375,64.793L53.459,61.636ZM51.087,65.241C52.706,66.522 53.991,67.836 54.942,69.183C55.893,70.529 56.652,72.086 57.22,73.852C56.461,74.076 55.802,74.303 55.245,74.534C54.687,74.765 54.081,75.088 53.426,75.502C53.267,74.03 52.831,72.727 52.119,71.592C51.406,70.457 50.37,69.389 49.01,68.386L51.087,65.241Z" style="fill:rgb(72,87,94);fill-rule:nonzero;"/>
        <path d="M69.115,49.036C69.129,50.089 69.059,51.021 68.904,51.833C68.75,52.645 68.468,53.488 68.059,54.361L71.488,58.771L68.427,61.151L65.746,57.703C64.865,58.684 63.672,59.848 62.166,61.196C61.66,60.667 61.205,60.223 60.801,59.863C60.397,59.503 59.922,59.17 59.375,58.862C60.545,57.964 61.544,57.128 62.373,56.353C63.201,55.579 63.82,54.862 64.228,54.201C65.065,52.829 65.459,51.435 65.41,50.019L69.115,49.036Z" style="fill:rgb(72,87,94);fill-rule:nonzero;"/>
        <path d="M84.189,42.062C84.46,43.231 84.767,44.239 85.11,45.087L84.37,45.386C84.528,46.349 84.544,47.284 84.417,48.191C84.291,49.098 84.017,49.928 83.597,50.682C83.269,51.288 82.844,51.843 82.322,52.346C81.801,52.849 81.105,53.364 80.236,53.891C79.368,54.419 78.231,55.012 76.826,55.671C76.234,55.004 75.723,54.476 75.294,54.086C74.864,53.696 74.424,53.365 73.972,53.095C74.351,52.962 74.861,52.766 75.501,52.507C74.736,51.96 73.799,51.498 72.691,51.121C73.375,50.25 73.792,49.327 73.941,48.35C74.09,47.374 73.983,46.3 73.619,45.128L77.266,43.653C77.346,44.024 77.421,44.396 77.492,44.77L84.189,42.062ZM80.037,49.57C80.299,49.172 80.506,48.733 80.66,48.253C80.813,47.774 80.877,47.292 80.853,46.809L77.608,48.121L77.55,48.537C77.39,49.709 77.03,50.897 76.469,52.1C77.442,51.667 78.202,51.251 78.751,50.853C79.3,50.455 79.728,50.027 80.037,49.57Z" style="fill:rgb(72,87,94);fill-rule:nonzero;"/>
        <path d="M100.927,40.416C100.378,41.314 99.822,42.066 99.258,42.671C98.695,43.275 98.007,43.838 97.196,44.36L97.748,49.918L93.889,50.301L93.457,45.955C92.189,46.315 90.559,46.665 88.567,47.003C88.421,46.286 88.273,45.668 88.123,45.148C87.972,44.628 87.748,44.092 87.449,43.541C88.918,43.404 90.209,43.229 91.322,43.015C92.436,42.802 93.342,42.524 94.04,42.183C95.479,41.468 96.555,40.498 97.268,39.274L100.927,40.416Z" style="fill:rgb(72,87,94);fill-rule:nonzero;"/>
        <path d="M112.553,49.015C112.717,49.054 112.982,49.106 113.35,49.172C114.204,49.326 115.018,49.411 115.793,49.426C115.607,49.668 115.427,49.987 115.252,50.382C115.076,50.777 114.86,51.298 114.601,51.943C113.462,51.739 112.469,51.461 111.622,51.109C110.775,50.758 110.014,50.347 109.34,49.875C108.681,50.06 108.015,50.165 107.342,50.191C106.669,50.217 106.022,50.198 105.403,50.135C104.784,50.071 103.958,49.96 102.924,49.803C102.933,49.33 102.917,48.825 102.876,48.287C102.835,47.748 102.751,47.335 102.622,47.046C103.102,47.227 103.554,47.379 103.977,47.503C103.932,47.438 103.805,47.249 103.595,46.937C103.386,46.624 103.152,46.316 102.893,46.014C103.742,45.986 104.409,45.916 104.894,45.804C104.542,45.495 104.222,45.228 103.935,45.006C103.648,44.784 103.331,44.58 102.985,44.395C103.466,44.092 103.859,43.738 104.164,43.333C104.469,42.928 104.731,42.461 104.95,41.931L103.82,41.728L104.238,39.399L109.336,40.315L109.401,39.957L112.157,40.452L112.092,40.81L117.191,41.726L116.772,44.055L115.656,43.854C115.677,44.427 115.759,44.956 115.904,45.442C116.049,45.928 116.295,46.397 116.64,46.848C116.018,46.935 115.42,47.093 114.848,47.322L115.209,48.326C114.978,48.341 114.776,48.386 114.601,48.459C114.335,48.572 114.055,48.666 113.761,48.741C113.468,48.817 113.065,48.908 112.553,49.015ZM105.253,41.986L107.32,42.67C107.037,43.349 106.731,43.944 106.402,44.454C106.811,44.186 107.109,43.912 107.297,43.633C107.484,43.354 107.634,42.954 107.747,42.434L105.253,41.986ZM110.654,42.956L110.296,42.892C110.199,43.272 110.081,43.64 109.941,43.994L110.093,44.021C110.24,44.048 110.338,44.056 110.387,44.046C110.437,44.036 110.464,44.012 110.471,43.976L110.654,42.956ZM115.353,43.8L113.162,43.406L112.865,45.06C112.792,45.464 112.629,45.755 112.374,45.932C112.119,46.109 111.705,46.189 111.129,46.171L113.692,46.631C113.528,46.175 113.408,45.719 113.333,45.265C113.258,44.811 113.206,44.296 113.177,43.722L115.353,43.8ZM109.669,44.642C109.475,45.034 109.312,45.332 109.181,45.536L109.672,45.653L109.434,45.866L109.889,45.948C109.829,45.387 109.755,44.952 109.669,44.642ZM106.25,44.668C105.974,45.045 105.686,45.382 105.386,45.679C105.826,45.55 106.33,45.332 106.897,45.026L107.758,45.224C107.22,44.994 106.718,44.809 106.25,44.668ZM108.576,47.319C108.821,47.591 109.075,47.812 109.339,47.983C109.858,47.943 110.293,47.846 110.643,47.691L108.576,47.319ZM105.315,47.814C105.932,47.916 106.576,47.975 107.246,47.991C107.086,47.829 106.966,47.703 106.887,47.613L106.697,47.408C106.373,47.521 105.912,47.656 105.315,47.814Z" style="fill:rgb(72,87,94);fill-rule:nonzero;"/>
        <path d="M129.444,55.697C129.028,55.889 128.651,56.177 128.312,56.562C127.973,56.946 127.68,57.359 127.433,57.799C126.28,57.142 125.225,56.516 124.268,55.924C123.311,55.331 122.393,54.7 121.515,54.031C120.137,53.96 118.539,53.51 116.72,52.683C116.736,52.182 116.732,51.762 116.706,51.422C116.68,51.082 116.596,50.685 116.454,50.231C117.008,50.543 117.415,50.763 117.675,50.89C117.977,51.038 118.272,51.167 118.561,51.277C118.131,50.776 117.759,50.251 117.445,49.703L119.772,50.108L118.187,49.333L120.254,45.108L124.304,47.089L124.445,46.799L120.144,44.695L120.987,42.972L132.507,48.608L131.664,50.331L127.35,48.221L127.209,48.51L131.271,50.497L129.204,54.722L124.928,52.631C124.621,52.917 124.406,53.113 124.282,53.219C124.987,53.626 125.737,54.024 126.534,54.414C127.506,54.889 128.476,55.317 129.444,55.697ZM123.676,48.34L122.293,47.663L122.127,48.003L123.51,48.68L123.676,48.34ZM126.427,50.107L127.836,50.796L128.002,50.456L126.594,49.767L126.427,50.107ZM121.64,48.996L121.474,49.336L122.807,49.988L122.999,49.661L121.64,48.996ZM127.184,52.129L127.35,51.789L125.929,51.094L125.738,51.421L127.184,52.129ZM120.816,50.619C120.988,50.818 121.243,51.062 121.58,51.351C121.696,51.283 121.802,51.216 121.897,51.148L120.816,50.619Z" style="fill:rgb(72,87,94);fill-rule:nonzero;"/>
        <path d="M140.47,54.444C140.068,54.923 139.279,55.826 138.103,57.155C137.909,57.357 137.769,57.508 137.685,57.609C136.696,58.497 135.869,59.301 135.203,60.022L133.219,58.357C133.814,57.576 134.462,56.622 135.165,55.494L135.551,55.013C136.432,53.876 137.181,52.939 137.799,52.203L140.47,54.444ZM133.173,62.942L130.685,60.854L132.287,58.945L134.775,61.033L133.173,62.942Z" style="fill:rgb(72,87,94);fill-rule:nonzero;"/>
    </g>
</svg>
