<?xml version="1.0" encoding="utf-8" ?>
<svg xmlns="http://www.w3.org/2000/svg" xmlns:xlink="http://www.w3.org/1999/xlink" width="200" height="200">
	<path fill="#EFFE92" d="M0 0L0.32667 0L200 0L200 0.213213L200 45.447L200 61.0452L200 190.63L200 200L191.387 200L0.18383 200L0 200L0 0Z"/>
	<path fill="#FEFEFE" d="M191.387 200L200 190.63L200 200L191.387 200Z"/>
	<path fill="#FEFEFE" d="M200 61.0452C198.276 60.2485 196.208 57.8593 194.679 56.5924L187.907 51.4166C174.241 41.6868 158.563 34.4425 142.313 30.2901C113.864 23.0203 82.9277 25.204 57.3567 40.394C40.4498 50.4373 26.149 66.7941 21.2677 86.1095C16.5827 104.648 21.3006 123.729 30.9506 139.869C41.7222 157.886 60.0241 172.041 80.4528 177.155C95.0457 180.808 109.551 178.122 122.408 170.38C135.66 162.4 146.365 151.001 154.779 138.104C158.898 131.79 162.426 125.385 164.238 118.022C167.675 104.052 164.342 88.777 156.955 76.6278C149.552 64.4518 137.571 54.6434 123.585 51.252C107.875 47.4424 90.8422 49.9254 77.0283 58.3554C67.1855 64.362 59.0492 73.9911 56.3162 85.336C53.9003 95.3645 56.0289 105.875 61.4097 114.605C64.9213 120.302 69.9387 126.319 75.6335 129.927C80.2211 132.833 85.1951 134.498 90.4477 135.718C99.8399 137.898 111.969 136.947 120.257 131.764C124.623 129.033 128.825 124.437 129.979 119.267C131.493 112.488 129.588 104.725 125.892 98.9175C121.616 92.1986 114.576 88.0979 106.926 86.3978C102.936 85.511 98.6002 85.2008 95.0168 87.5315C91.4609 89.8443 89.4947 94.9202 88.6259 98.8855C87.9165 102.124 88.1126 105.356 89.7653 108.28C90.4495 109.491 91.3667 110.555 92.1037 111.733C92.8205 112.879 92.7016 114.042 92.4051 115.3C91.6359 118.563 89.6481 120.739 86.869 122.439C84.2724 120.39 82.4423 117.365 81.5035 114.21C78.877 105.383 82.7259 94.1992 86.9453 86.3763C89.8413 81.007 94.401 77.056 100.286 75.3097C107.098 73.2885 114.453 74.9212 120.563 78.2515C128.131 82.376 134.052 89.6952 136.472 97.9642C139.216 107.344 137.844 119.664 133.136 128.191C128.231 137.077 120.02 143.246 110.288 146.056C98.0383 149.592 83.9367 148.145 72.75 141.97C61.457 135.737 53.6016 125.704 50.0326 113.345C46.088 99.6864 48.1126 84.0917 54.9562 71.6925C63.5955 56.04 78.4449 45.2561 95.4949 40.3922C111.479 35.8325 128.52 38.1149 142.906 46.2727C156.412 53.9309 166.553 68.6832 170.614 83.471C173.571 94.237 173.945 105.899 171.173 116.751C169.173 124.581 165.481 132.206 161.486 139.219C148.934 161.255 127.695 181.812 102.707 188.643C98.6955 189.739 94.4072 190.072 90.257 190.073C78.0166 190.075 66.5827 186.535 56 180.475C36.1262 169.095 20.6645 148.983 14.7058 126.897C8.98712 105.702 12.8342 83.7311 23.6903 64.8403C36.948 41.7705 59.8048 25.3679 85.3283 18.5134C91.0097 16.9876 96.8308 16.2158 102.677 15.6811C128.81 13.2909 155.701 18.8921 178.774 31.3969C183.548 33.9843 188.241 36.7859 192.657 39.9531C195.088 41.6964 197.443 43.971 200 45.447L200 61.0452Z"/>
</svg>
