<?xml version="1.0" encoding="UTF-8" standalone="no"?>
<!DOCTYPE svg PUBLIC "-//W3C//DTD SVG 1.1//EN" "http://www.w3.org/Graphics/SVG/1.1/DTD/svg11.dtd">
<svg width="100%" height="100%" viewBox="0 0 80 46" version="1.1" xmlns="http://www.w3.org/2000/svg" xmlns:xlink="http://www.w3.org/1999/xlink" xml:space="preserve" xmlns:serif="http://www.serif.com/" style="fill-rule:evenodd;clip-rule:evenodd;stroke-linejoin:round;stroke-miterlimit:2;">
    <path d="M62.58,1.055C61.544,1.121 60.216,1.742 58.47,3.153C57.486,3.318 56.334,3.827 54.503,5.729C53.545,5.918 52.621,6.462 51.837,8.46C50.887,8.938 50.17,9.84 50.046,11.824C49.288,11.368 48.917,12.359 48.661,13.78C47.87,14.402 47.635,15.572 47.78,17.116C47.108,17.704 47.211,18.781 47.593,20.035L55.316,19.437L57.39,14.649C57.102,10.418 58.886,5.878 62.58,1.055Z" style="fill:white;"/>
    <path d="M44.679,20.833C39.849,18.015 34.732,15.357 29.058,13.009C21.419,9.432 10.658,5.453 7.472,5.542C5.833,5.589 12.258,9.914 12.258,9.914C9.323,10.389 11.161,12.058 14.996,14.225C15.114,15.851 16.487,16.819 18.377,17.73C17.551,18.748 18.233,19.767 21.47,20.788C20.552,21.978 21.708,22.736 24.088,23.239C23.84,24.446 24.982,25.1 27.076,25.376C27.08,26.221 28.132,26.81 30.36,27.124C30.9,27.91 31.87,28.068 33.004,27.986C33.279,29.023 34.364,29.303 36.989,28.145C36.989,28.145 35.551,30.124 34.485,30.608C31.278,32.064 26.925,35.132 24.192,37.539C21.862,39.593 16.943,45.319 18.2,45.446C18.612,45.487 23.306,40.679 27.632,37.591C30.917,35.246 34.156,34.446 34.156,34.446C33.758,35.622 33.854,36.279 34.925,35.909C34.659,37.956 35.507,38.101 37.118,36.944C37.526,38.015 38.176,37.992 39.178,36.368C41.49,36.546 40.302,33.748 41.158,33.732C47,33.623 52.201,26.913 52.992,24.332C53.25,23.488 57.539,22.919 56.989,20.245C56.374,17.259 50.723,17.088 44.679,20.833Z" style="fill:white;"/>
    <clipPath id="_clip1">
        <path d="M44.679,20.833C39.849,18.015 34.732,15.357 29.058,13.009C21.419,9.432 10.658,5.453 7.472,5.542C5.833,5.589 12.258,9.914 12.258,9.914C9.323,10.389 11.161,12.058 14.996,14.225C15.114,15.851 16.487,16.819 18.377,17.73C17.551,18.748 18.233,19.767 21.47,20.788C20.552,21.978 21.708,22.736 24.088,23.239C23.84,24.446 24.982,25.1 27.076,25.376C27.08,26.221 28.132,26.81 30.36,27.124C30.9,27.91 31.87,28.068 33.004,27.986C33.279,29.023 34.364,29.303 36.989,28.145C36.989,28.145 35.551,30.124 34.485,30.608C31.278,32.064 26.925,35.132 24.192,37.539C21.862,39.593 16.943,45.319 18.2,45.446C18.612,45.487 23.306,40.679 27.632,37.591C30.917,35.246 34.156,34.446 34.156,34.446C33.758,35.622 33.854,36.279 34.925,35.909C34.659,37.956 35.507,38.101 37.118,36.944C37.526,38.015 38.176,37.992 39.178,36.368C41.49,36.546 40.302,33.748 41.158,33.732C47,33.623 52.201,26.913 52.992,24.332C53.25,23.488 57.539,22.919 56.989,20.245C56.374,17.259 50.723,17.088 44.679,20.833Z"/>
    </clipPath>
    <g clip-path="url(#_clip1)">
        <path d="M56.543,15.232L41.177,17.609C42.766,18.312 44.18,18.965 45.778,20.16C45.845,20.21 45.988,20.32 45.988,20.32L45.489,21.356L46.991,21.009L46.59,22.841L47.79,21.864L47.351,23.992L48.674,22.481L48.688,24.225L49.261,23.431L50.133,24.327C49.138,20.096 53.639,18.595 57.083,20.442L56.543,15.232Z" style="fill:rgb(253,144,255);"/>
    </g>
    <g transform="matrix(0.857972,0,0,0.819142,7.51538,3.43328)">
        <ellipse cx="53.725" cy="19.835" rx="0.81" ry="0.851" style="fill:rgb(255,209,0);"/>
    </g>
    <g transform="matrix(0.857972,0,0,0.819142,11.7354,4.65198)">
        <path d="M52.821,18.787L56.661,20.079L52.921,20.902L52.821,18.787Z" style="fill:rgb(255,209,0);"/>
    </g>
    <g transform="matrix(0.043956,0,0,0.0449219,9.53674e-07,1.90735e-06)">
        <path d="M1422.69,14.432C1424.26,14.368 1426.11,14.205 1427.65,14.536C1431,15.252 1432.13,17.448 1433.83,20.1C1434.19,24.674 1434.21,27.682 1431.69,31.681C1429.4,35.312 1425.88,38.446 1422.9,41.537L1406.37,58.859C1391.17,75.579 1378.28,94.578 1367.33,114.317C1341.4,161.054 1324.44,215.785 1318.44,268.896L1315.35,302.034C1314.96,308.811 1315.94,316.631 1314.43,323.201C1311.52,335.887 1304.25,347.512 1298.95,359.291L1274.92,412.713C1281.72,416.221 1286.89,421.477 1292.16,426.906C1295.24,430.081 1302.06,440.808 1305.51,441.758C1338.21,450.756 1374.38,458.997 1400.29,482.425C1371.84,480.043 1344.73,483.328 1316.61,487.203C1311.2,487.949 1303.2,488.036 1298.42,490.395C1294.13,492.515 1289.18,499.707 1285.29,503.084C1279.6,508.024 1273.66,512.524 1267.38,516.68C1258.82,522.334 1249.97,527.542 1240.85,532.227C1233.45,536.028 1224.98,538.392 1218.57,543.88C1212.1,549.418 1206.83,556.539 1201.73,563.303C1189.04,580.157 1178.64,598.646 1167,616.225C1149.94,642.013 1128.1,667.241 1104.12,686.878C1055.99,726.301 998.381,744.672 939.318,760.721L933.961,777.07C928.546,791.275 916.699,813.703 900.8,817.836C896.984,818.828 891.93,815.754 889.382,816.45C889.061,816.538 884.601,822.958 883.735,824.017C878.097,830.906 871.186,837.496 862.909,841.047C859.046,842.704 853.126,844.121 849.112,842.161C844.564,839.939 841.43,833.988 839.683,829.478L839.37,828.661C833.457,831.342 828.186,835.455 822.622,838.792C815.64,842.98 806.422,848.051 798.084,845.76C793.673,844.548 790.535,841.121 788.34,837.268C782.344,826.745 786.384,813.911 789.361,803.128L780.395,802.601C777.695,802.05 775.909,800.264 774.497,798.01C769.997,790.83 771.873,781.717 773.739,773.98C759.856,777.952 746.744,783.998 733.409,789.461C656.902,820.809 589.547,865.257 526.323,918.172L457.88,980.797C448.346,990.268 439.451,1001.1 429.673,1010.16C427.278,1012.38 424.363,1014.09 421.067,1014.36C416.871,1014.7 412.836,1014.34 409.548,1011.44C407.009,1009.21 406.131,1006.52 405.934,1003.21C405.158,990.185 414.814,978.701 421.769,968.484L437.917,945.109C457.706,917.298 480.903,891.306 504.834,867.004C556.898,814.132 617.048,766.755 681.296,729.593L763.453,684.318C776.325,677.241 790.755,670.708 802.381,661.75C810.476,655.513 816.987,647.409 823.667,639.736L794.695,643.537C781.912,643.654 765.575,644.255 753.903,638.191C749.98,636.153 746.497,632.046 742.671,630.341C742,630.042 739.462,630.404 738.555,630.412L724.756,630.263C714.323,629.768 700.802,625.285 693.708,617.434C691.939,615.477 688.938,610.683 686.679,609.671C682.638,607.859 674.957,607.791 670.312,606.833C656.533,603.988 641.817,598.81 629.569,591.85C622.859,588.036 616.88,583.367 611.641,577.691C610.139,576.063 607.349,571.384 605.833,570.451C603.894,569.258 596.525,568.612 593.963,567.945C580.019,564.315 562.307,557.128 551.433,547.419C545.583,542.196 544.518,536.118 543.573,528.684C543.472,527.891 543.389,524.783 543.042,524.242C542.728,523.754 532.823,521.532 531.685,521.24C517.055,517.488 500.401,510.253 490.072,498.806C482.14,490.016 481.496,482.363 482.135,471.027L443.961,454.013C429.723,446.015 414.97,436.6 410.216,420C408.753,414.89 409.119,409.838 409.274,404.579C409.291,403.981 409.639,400.33 409.429,399.994C408.982,399.279 403.184,397.208 401.849,396.6L382.129,386.623C366.616,377.835 347.901,365.747 338.506,350.075C331.891,339.039 332.101,328.813 335.232,316.719C333.612,314.905 329.099,313.45 326.805,312.327L309.888,303.214C287.104,289.943 263.775,273.248 246.964,252.66C243.422,248.322 240.195,242.289 240.987,236.488C241.637,231.722 243.576,228.055 247.389,225.044C254.524,219.409 266.283,221.29 274.685,222.26C271.659,219.481 267.542,217.508 264.012,215.421L244.353,203.903C222.853,191.198 202.062,177.194 182.362,161.84C174.497,155.711 164.152,148.479 159.568,139.464C157.416,135.232 157.277,130.426 158.868,125.969C160.38,121.73 163.918,118.41 168.005,116.646C176.335,113.05 189.153,117.57 197.641,119.474L225.562,125.68C336.28,150.572 446.567,185.421 550.738,230.545L654.963,281.054C679.36,291.734 704.872,299.56 729.717,309.115C752.551,317.896 774.714,328.481 796.647,339.293L841.376,363.334L918.689,406.572C949.145,424.177 979.913,443.035 1012.68,456.01C1034.56,450.221 1054,439.667 1073.95,429.271L1068.95,419.942C1064.63,409.706 1064.5,391.639 1071.9,382.763C1073.24,381.151 1078.35,377.673 1078.78,376.229C1079.86,372.613 1077.95,363.815 1077.94,359.562C1077.93,350.242 1079.52,340.101 1082.39,331.212C1084.77,323.864 1088.69,315.031 1094.02,309.381C1095.57,307.737 1100.9,304.249 1101.65,302.618C1102.95,299.789 1102.61,292.311 1103.04,288.883C1103.61,284.363 1105.29,279.846 1107.19,275.719C1110.54,268.432 1115.58,260.22 1121.5,254.724C1123.53,252.835 1129.53,250.377 1130.54,248.195C1131.77,245.509 1132.01,240.584 1132.68,237.566C1133.89,232.112 1135.8,226.536 1137.98,221.409C1144.99,204.92 1157.22,189.164 1174.18,182.398C1176.61,174.575 1180.88,167.083 1185.24,160.188C1194.34,145.775 1209.76,129.879 1225.85,123.422C1229.25,122.059 1234.24,122.746 1237.11,121.391C1237.92,121.01 1239.97,118 1240.61,117.197C1244.07,112.848 1247.53,108.487 1251.33,104.422C1256.81,98.56 1262.72,93.566 1269.14,88.784C1281.7,79.44 1296.22,71.68 1311.03,66.541C1315.48,64.996 1321.01,64.836 1325.13,62.702C1327.46,61.493 1329.79,59.186 1331.95,57.622L1348.01,46.442C1370.95,31.23 1395.9,20.58 1422.69,14.432ZM647.197,293.778C643.198,299.116 641.358,303.918 642.37,310.652C643.775,319.998 647.29,328.417 652.015,336.559C663.898,357.032 680.411,374.819 694.041,394.116C713.857,422.168 730.49,452.162 753.002,478.325C770.5,498.661 790.133,517.906 811.927,533.591L879.325,574.154C902.573,568.6 921.994,558.12 943.077,547.397C932.501,560.869 918.798,568.833 902.706,574.344C899.649,575.391 880.639,579.987 880.056,580.612C879.18,581.552 877.994,587.959 877.368,589.616C875.357,594.935 872.474,600.156 869.723,605.119C863.313,616.687 853.897,627.552 845.094,637.356C834.672,648.962 823.92,660.275 811.802,670.147C797.721,681.619 779.663,689.923 763.712,698.631L682.533,743.799C592.062,797.657 507.63,868.978 445.845,954.691C435.683,968.789 421.325,987.224 416.372,1004.02C433.696,992.03 446.51,972.599 460.412,956.85L512.156,901.994C562.763,852.162 619.661,807.591 681.11,771.889L725.267,748.708L794.918,712.513L816.437,701.558C820.398,699.699 825.598,698.529 828.962,695.775C833.982,691.665 843.172,678.667 849.43,678.667C850.125,681.633 848.283,684.957 846.728,687.421C841.262,696.083 832.982,703.419 826.232,711.134C811.126,728.402 780.419,765.815 784.387,789.778C785.164,790.359 786.081,791.41 787.058,791.28C795.632,790.142 803.007,782.873 807.867,776.249L843.229,723.607C850.425,712.853 856.509,702.134 866.197,693.376C861.303,711.378 850.34,725.37 840.058,740.627L821.284,768.59C817.502,773.801 812.155,778.145 809.017,783.759C806.265,788.681 805.319,795.284 803.805,800.733C801.814,807.896 798.289,816.586 798.004,824C797.885,827.092 798.387,829.642 799.706,832.444C801.396,833.647 801.556,833.969 803.712,833.593C807.461,832.938 811.872,829.929 815.229,828.114C830.176,820.033 845.068,810.342 854.392,795.74C857.92,790.215 861.792,783.392 863.781,777.16C869.942,761.369 873.972,746.599 876.721,729.848C877.284,726.419 877.007,720.669 879.785,718.458C881.704,719.811 882.51,720.052 882.88,722.51C883.606,727.335 882.669,733.241 882.041,738.051C879.74,755.694 873.637,773.304 865.073,788.901C861.87,794.733 856.794,800.242 854.448,806.374C851.727,813.487 850.584,823.06 854.255,829.987C860.579,830.069 867.449,822.957 871.889,818.647C892.854,798.293 904.077,765.695 904.542,736.889C904.648,730.348 903.59,722.797 905.112,716.49L906.192,715.82C914.383,731.751 910.096,757.344 904.856,773.743C901.896,783.009 897.136,791.302 894.955,800.889C896.273,803.146 896.456,803.193 898.892,804.184C907.78,801.408 913.266,791.767 917.339,783.93C926.169,766.938 929.44,747.497 926.046,728.637C925.055,723.131 922.512,716.39 923.774,710.815C925.39,711.186 925.566,711.701 926.402,713.063C932.539,723.069 933.629,736.734 934.666,748.103C980.168,735.305 1026.24,723.565 1066.82,698.196C1086.9,685.647 1104.22,670.352 1120.43,653.201C1132.66,640.258 1144.5,626.949 1154.34,612.06C1171.76,585.713 1186.53,556.539 1209.68,534.585C1217.79,526.888 1228.67,522.999 1238.65,518.314C1257.97,509.238 1281.63,495.352 1292.27,476.117C1295.9,469.563 1295.38,463.546 1293.63,456.444C1291.71,453.695 1288.7,452.665 1285.73,451.407C1276.98,447.7 1267.28,445.307 1257.92,443.668L1238.88,441.346C1235.68,447.243 1232.59,452.501 1225.73,454.591C1220.31,456.24 1213.6,455.381 1208.74,452.528C1205.09,450.38 1202.77,446.77 1200.94,443.049C1179.74,450.015 1158.67,459.635 1148.14,480.592C1137.08,502.61 1139.11,526.837 1145.53,549.798C1133.49,534.32 1131.76,520.452 1134.13,501.333C1136.46,482.475 1148.01,464.919 1162.86,453.483C1171.85,446.564 1181.25,441.62 1192.35,439.036C1193.73,438.716 1200.29,437.812 1201.05,437.105C1201.74,436.473 1202.72,433.376 1203.22,432.394C1207.3,424.323 1214.13,421.173 1222.94,422.301C1228.35,422.994 1232.96,425.813 1236.2,430.155L1240.02,435.396C1258.17,437.563 1273.16,440.991 1290.2,447.755C1277.83,426.814 1255.76,414.194 1232.65,408.231C1200.44,399.918 1163.72,401.52 1132.61,413.497C1112.69,421.169 1094.09,432.581 1075.4,442.796C1058.06,452.265 1040.66,460.538 1022.15,467.444C1034.19,477.419 1045.58,487.241 1051.29,502.362C1052.8,506.354 1053.34,510.763 1054.09,514.949C1045.52,502.84 1037.18,487.908 1025.14,479.024C1015.26,471.729 1003.72,467.1 992.686,461.871L954.134,442.423L831.511,372.373C784.75,347.044 736.486,325.893 686.573,307.593L663.394,298.852C659.074,297.117 654.063,294.178 649.474,293.478C648.593,293.344 648.014,293.472 647.197,293.778ZM350.242,319.556C347.107,324.706 344.874,329.299 346.321,335.432C349.95,350.809 369.665,363.418 382.507,371.056C458.621,416.328 547.547,420.245 633.635,414.933L668.961,412.572C674.727,412.311 682.217,411.614 687.633,413.778C682.113,418.967 668.236,418.911 660.885,419.769C627.541,423.66 593.569,425.332 559.987,424.26C512.376,422.741 466.773,414.937 421.556,399.956C420.894,409.51 420.795,418.109 427.565,425.703C436.732,435.985 449.552,442.435 461.943,448.017C491.072,461.139 522.89,469.676 554.929,471.093C586.892,472.506 619.074,467.701 650.23,460.906C670.208,456.548 689.994,450.848 710.532,450.063C693.783,459.845 675.538,463.222 656.79,467.139C621.129,474.59 584.109,480.17 547.582,478.059C538.82,477.552 529.653,476.525 521.023,474.909C517.452,474.241 498.362,469.165 497.029,469.639C496.233,469.922 495.427,472.087 495.221,472.877C494.073,477.295 494.602,482.12 497.071,486.005C506.558,500.935 527.319,506.949 543.534,510.254C556.163,512.828 569.958,512.529 582.801,512.102C620.097,510.864 655.726,504.146 691.362,493.318L718.767,484.234C723.967,482.451 729.594,480.123 735,479.195C731.85,482.229 728.63,485.49 724.885,487.777C717.19,492.475 707.84,495.399 699.354,498.34C676.182,506.373 651.822,513.141 627.402,515.932C603.917,518.617 579.414,518.93 555.751,520.185C556.084,523.44 556.306,532.389 557.929,534.725C558.689,535.818 560.994,537.291 562.1,538.189L570.502,544.084C594.102,557.411 616.567,557.289 643.008,555.628C657.739,554.703 672.333,553.273 686.599,549.291C705.843,543.921 724.269,535.774 741.823,526.299L766.717,511.889C758.542,525.166 747.342,531.339 733.836,538.337C718.447,546.311 701.428,552.998 684.518,556.974C672.821,559.724 660.931,561.722 648.906,562.095C638.564,562.416 628.378,561.675 618.071,563.12C617.851,564.283 617.499,564.548 618.189,565.576C629.242,582.055 655.366,590.344 674.009,593.754C692.779,597.187 710.539,592.131 728.375,586.617C742.503,582.25 756.467,577.257 769.856,570.948C779.575,566.369 789.805,559.702 800.049,556.742C780.592,580.934 740.371,591.637 711.137,597.178C707.827,597.805 699.492,598.484 699.034,602.222C702.165,608.818 706.706,611.943 713.564,614.361C722.739,617.594 732.836,617.948 742.43,616.704C748.451,615.924 754.379,614.618 760.242,613.054C766.503,611.383 774.027,607.562 780.25,610.667C780.8,612.362 780.934,612.307 780.12,613.895C775.576,622.756 765.034,622.479 758.571,627.922C782.566,634.092 807.064,630.098 830.479,623.029C837.954,620.772 846.283,618.332 853.002,614.286C863.965,607.684 870.85,590.681 873.687,578.881C868.526,574.866 863.008,572.693 857.23,569.8L836.007,558.129C803.124,537.913 773.862,512.08 748.462,483.094C737.749,470.869 727.989,457.308 718.673,444L684.298,392.68C680.839,387.743 676.01,379.45 671.005,376.121C663.019,379.371 655.35,381.672 646.654,382.151C610.31,384.155 571.796,374.664 536.229,367.667L466.512,354.038L409.173,338.39L363.554,322.768C359.858,321.615 353.969,319.02 350.242,319.556ZM1315.5,78.667C1285.31,90.706 1255.81,110.866 1242.52,141.685C1225.49,181.199 1227.68,232.008 1243.39,271.786L1252.98,293.139C1249.6,290.597 1245.96,288.008 1243.32,284.685C1232,270.465 1228.02,246.149 1225.55,228.444C1222.61,207.244 1223.28,184.686 1227.8,163.763C1228.69,159.679 1229.83,155.597 1231.36,151.707C1233.23,146.937 1237.21,140.406 1235.7,135.317C1227.65,134.907 1218.79,142.953 1212.98,148.189C1193.4,165.825 1183.61,188.043 1182.25,214.175C1180.34,251.055 1197.55,288.672 1215.54,319.747C1193.01,304.504 1184.28,276.564 1179.31,250.899C1177.19,239.971 1176.16,228.346 1176.97,217.224C1177.32,212.373 1178.86,207.081 1178.54,202.264C1178.39,199.962 1178.11,199.249 1176.6,197.538C1167.72,199.57 1161.9,206.581 1157.25,213.993C1143.16,236.404 1138.86,259.528 1144.8,285.319C1147.42,296.701 1152.24,308.135 1158.08,318.244C1161.26,323.74 1164.67,329.199 1168.44,334.311C1172.71,340.107 1181.65,348.283 1182.6,355.323C1180.42,355.146 1179.12,354.484 1177.28,353.341C1158.3,336.722 1145.33,314.424 1139.86,289.692C1137.82,280.507 1137.21,270.857 1136.27,261.504C1124.03,269.679 1118.54,280.395 1115.74,294.776C1111.68,315.591 1114.52,342.113 1126.74,359.835L1144.7,383.576C1126.5,373.174 1116.6,359.675 1111.08,339.44C1109.73,334.485 1110.78,321.849 1108.17,318.405C1105.72,318.388 1104.83,318.433 1102.97,320.178C1100.77,322.227 1099.22,325.77 1097.93,328.433C1093.06,338.483 1090.48,349.719 1090.42,360.889C1090.39,367.915 1091.4,376.947 1094.05,383.556C1096.17,388.876 1101.17,395.242 1101.67,400.728L1100.16,401.333C1094.2,398.632 1092.61,389.951 1085.96,389.108C1082.37,390.574 1080.83,392.12 1079.38,395.72C1077.23,401.063 1077.65,407.827 1079.92,413.073C1081.12,415.843 1082.52,418.082 1084.62,420.246C1085.98,420.542 1086.6,420.883 1087.91,420.368C1101.4,415.044 1114.2,407.806 1127.63,402.237C1136.83,398.424 1146.55,395.761 1156.21,393.412C1174.5,366.101 1199.67,344.153 1228.14,328.092C1242.75,319.853 1257.82,313.133 1274.36,309.897L1283.31,308.349C1274.05,283.775 1272.55,259.078 1272.74,233.035C1273,195.235 1277.93,154.464 1293.72,119.772C1296.86,112.868 1300.09,105.726 1304.29,99.393L1314.25,85.8C1315.79,83.803 1318.07,81.669 1318.56,79.166C1317.4,78.733 1316.74,78.384 1315.5,78.667ZM172.606,129.333L170.697,131.556C173.141,139.504 186.156,147.586 192.684,152.523C225.554,177.384 260.538,199.302 296.927,218.617C327.96,235.088 360.202,250.204 393.015,262.773C454.505,286.327 518.349,303.084 582.06,319.378L621.915,329.716C628.506,331.46 635.599,334.182 642.352,334.843L642.014,332C637.551,321.485 631.195,308.228 636.005,296.758L640.039,289.141L590.021,264.35L553.009,245.883L489.712,221.234C403.407,187.767 316.048,159.385 225.636,139.163L196.357,132.656C189.282,131.045 179.723,127.752 172.606,129.333ZM255.374,235.111C254.643,236.559 253.433,237.997 254.001,239.589C256.217,245.805 264.093,252.218 268.936,256.52C297.009,281.462 328.166,299.543 362.576,314.378C420.674,339.427 483.676,350.926 545.557,362.213C585.417,369.483 628.047,378.695 668.726,375.088L669.614,373.51L649.881,345.042C648.721,343.547 645.604,343.249 643.844,342.835L486.511,300.575L420,279.898C385.326,267.287 352.031,251.972 318.467,236.798C313.739,234.661 261.255,233.596 255.374,235.111ZM1408.59,31.233C1365.56,43.906 1325.47,72.629 1303.94,112.444C1296.86,125.528 1292.38,140.935 1288.89,155.345C1282.38,182.194 1278.58,210.747 1279.05,238.401C1279.45,261.358 1282.65,285.105 1285.94,307.839L1302.12,307.855C1306.37,225.478 1328.54,141.876 1377.62,74.587C1381.88,68.748 1386.21,62.882 1390.94,57.409L1406.06,41.13C1408.77,38.368 1413.21,35.053 1414.48,31.351C1412.43,31.097 1410.63,30.985 1408.59,31.233ZM1294.43,313.209C1250.59,318.93 1203.21,344.624 1176.21,379.758L1167.37,391.626L1188.87,390.371C1215.27,391.083 1239.13,395.325 1263.2,406.396L1286.16,355.656C1290.1,346.842 1295.09,338.15 1298.09,328.984C1299.64,324.266 1300.91,318.284 1300.04,313.333C1298,312.828 1296.5,312.882 1294.43,313.209ZM812.028,713.333C792.294,721.343 773.417,731.352 754.39,740.897C721.066,757.613 687.381,775.158 655.847,795.083C626.98,813.323 599.23,834.095 573.268,856.259C557.719,869.533 541.717,883.722 528.253,899.111L530.093,898.548C571.71,864.492 616.884,833.092 664.364,807.761L721.189,780.957C735.328,774.779 750.35,767.158 765.146,762.845C769.7,761.518 774.657,761.321 779.365,760.866C780.173,760.788 783.276,760.751 783.885,760.385C784.829,759.818 789.761,749.495 790.754,747.88C798.015,736.074 806.201,725.039 814.844,714.222L814.417,713.059L812.028,713.333ZM1302.97,456.338L1303.01,476.33L1345.52,470.792L1352.34,469.919C1347.7,464.254 1311.81,457.622 1302.97,456.338ZM1215.93,432.444C1212.99,434.29 1211.33,435.59 1209.63,438.667C1209.05,441.586 1209.73,443.038 1210.98,445.567C1213.44,447.796 1216.26,449.901 1219.79,449.598C1220.67,449.522 1221.52,449.278 1222.37,449.048C1224.98,448.049 1226.71,447.177 1227.89,444.444C1228.79,442.358 1228.88,439.816 1227.95,437.741C1226.86,435.337 1225.2,433.179 1222.81,432.027C1220.57,431.948 1218.03,431.561 1215.93,432.444Z" style="fill-rule:nonzero;"/>
    </g>
</svg>
