<?xml version="1.0" encoding="UTF-8" standalone="no"?>
<!DOCTYPE svg PUBLIC "-//W3C//DTD SVG 1.1//EN" "http://www.w3.org/Graphics/SVG/1.1/DTD/svg11.dtd">
<svg width="100%" height="100%" viewBox="0 0 600 180" version="1.1" xmlns="http://www.w3.org/2000/svg" xmlns:xlink="http://www.w3.org/1999/xlink" xml:space="preserve" xmlns:serif="http://www.serif.com/" style="fill-rule:evenodd;clip-rule:evenodd;stroke-linecap:round;stroke-linejoin:round;stroke-miterlimit:1.5;">
    <g transform="matrix(1.5,0,0,1.5,470.897,0.638393)">
        <g transform="matrix(-0.501891,0.0354245,0.035782,0.506956,65.3532,29.6272)">
            <path d="M76.348,135.952L70.774,129.06L64.752,132.94C64.752,132.94 64.861,139.833 67.245,144.738C69.432,149.239 81.498,153.072 82.591,154.707C83.515,156.088 91.729,154.59 92.089,152.968C92.884,149.383 78.019,140.222 76.348,135.952Z" style="fill:rgb(249,47,64);"/>
            <clipPath id="_clip1">
                <path d="M76.348,135.952L70.774,129.06L64.752,132.94C64.752,132.94 64.861,139.833 67.245,144.738C69.432,149.239 81.498,153.072 82.591,154.707C83.515,156.088 91.729,154.59 92.089,152.968C92.884,149.383 78.019,140.222 76.348,135.952Z"/>
            </clipPath>
            <g clip-path="url(#_clip1)">
                <g transform="matrix(1.14666,0,0,1.22095,-48.9724,-32.3049)">
                    <path d="M101.758,141.204L96.572,144.59L105.683,161.167L122.884,156.437C115.662,152.024 108.473,147.491 101.758,141.204Z" style="fill:white;"/>
                </g>
            </g>
            <path d="M76.348,135.952L70.774,129.06L64.752,132.94C64.752,132.94 64.861,139.833 67.245,144.738C69.432,149.239 81.498,153.072 82.591,154.707C83.515,156.088 91.729,154.59 92.089,152.968C92.884,149.383 78.019,140.222 76.348,135.952Z" style="fill:none;stroke:black;stroke-width:1.98px;"/>
        </g>
        <g transform="matrix(0.563637,-0.142613,0.133935,0.52934,-10.9381,27.8427)">
            <path d="M68.073,154.559L62.5,147.668L56.363,155.036C56.363,155.036 50.693,172.196 52.978,175.612C53.902,176.994 61.051,177.475 61.411,175.852C62.205,172.268 67.005,158.791 68.073,154.559Z" style="fill:rgb(249,47,64);"/>
            <clipPath id="_clip2">
                <path d="M68.073,154.559L62.5,147.668L56.363,155.036C56.363,155.036 50.693,172.196 52.978,175.612C53.902,176.994 61.051,177.475 61.411,175.852C62.205,172.268 67.005,158.791 68.073,154.559Z"/>
            </clipPath>
            <g clip-path="url(#_clip2)">
                <g transform="matrix(1.14666,0,0,1.22095,-48.9724,-32.3049)">
                    <path d="M127.764,121.675L122.656,129.182L125.534,154.48L132.603,157.123L127.764,121.675Z" style="fill:white;"/>
                </g>
            </g>
            <path d="M68.073,154.559L62.5,147.668L56.363,155.036C56.363,155.036 50.693,172.196 52.978,175.612C53.902,176.994 61.051,177.475 61.411,175.852C62.205,172.268 67.005,158.791 68.073,154.559Z" style="fill:none;stroke:black;stroke-width:1.77px;"/>
        </g>
        <path d="M48.316,25.407C51.223,15.708 48.815,13.595 43.662,12.867C38.606,12.152 37.571,17.844 39.325,24.538C39.512,25.251 40.729,26.071 39.029,28.614C39.029,28.614 32.871,32.188 36.899,30.832C36.186,32.452 51.263,38.187 51.412,33.969C51.517,30.994 47.567,27.903 48.316,25.407Z" style="fill:rgb(231,173,164);"/>
        <clipPath id="_clip3">
            <path d="M48.316,25.407C51.223,15.708 48.815,13.595 43.662,12.867C38.606,12.152 37.571,17.844 39.325,24.538C39.512,25.251 40.729,26.071 39.029,28.614C39.029,28.614 32.871,32.188 36.899,30.832C36.186,32.452 51.263,38.187 51.412,33.969C51.517,30.994 47.567,27.903 48.316,25.407Z"/>
        </clipPath>
        <g clip-path="url(#_clip3)">
            <path d="M46.38,7.942L40.711,9.583C37.276,10.547 34.305,15.785 32.749,26.07L35.321,31.274L41.017,31.444C40.85,30.497 50.714,25.91 49.9,25.538C49.338,25.281 46.524,26.4 44.213,26.429C42.043,26.457 40.36,25.417 40.168,24.584C38.454,17.116 42.741,12.537 46.38,7.942Z" style="fill-opacity:0.14;"/>
            <g transform="matrix(0.666667,0,0,0.666667,-321.931,-5.75893)">
                <path d="M546.581,44.29C549.826,43.988 547.404,44.219 550.816,43.239" style="fill:none;stroke:black;stroke-width:1px;"/>
            </g>
        </g>
        <path d="M48.316,25.407C51.223,15.708 48.815,13.595 43.662,12.867C38.606,12.152 37.571,17.844 39.325,24.538C39.512,25.251 40.729,26.071 39.029,28.614C39.029,28.614 32.871,32.188 36.899,30.832C36.186,32.452 51.263,38.187 51.412,33.969C51.517,30.994 47.567,27.903 48.316,25.407Z" style="fill:none;stroke:black;stroke-width:1px;"/>
        <g transform="matrix(0.969334,-0.0726249,0.0726249,0.969334,-1.49705,1.34555)">
            <g transform="matrix(1,0,0,1,-49.0654,-0.0126953)">
                <path d="M101.431,15.294C98.427,7.197 94.127,9.397 89.912,13.063L87.99,21.502C92.102,18.85 96.155,19.055 100.596,24.417L101.431,15.294Z" style="fill:rgb(21,182,0);"/>
                <clipPath id="_clip4">
                    <path d="M101.431,15.294C98.427,7.197 94.127,9.397 89.912,13.063L87.99,21.502C92.102,18.85 96.155,19.055 100.596,24.417L101.431,15.294Z"/>
                </clipPath>
                <g clip-path="url(#_clip4)">
                    <g transform="matrix(0.997205,0.074713,-0.074713,0.997205,51.6386,-2.75045)">
                        <path d="M45.23,7.616L40.711,9.583C37.276,10.547 35.09,17.701 33.535,27.986L35.321,31.274L41.017,31.444C39.096,20.584 40.759,13.26 45.23,7.616Z" style="fill-opacity:0.14;"/>
                    </g>
                </g>
                <path d="M101.431,15.294C98.427,7.197 94.127,9.397 89.912,13.063L87.99,21.502C92.102,18.85 96.155,19.055 100.596,24.417L101.431,15.294Z" style="fill:none;stroke:black;stroke-width:1.03px;"/>
            </g>
            <g transform="matrix(1,0,0,1,-49.0654,-0.0126953)">
                <path d="M101.121,20.96C96.45,18.434 92.405,17.45 88.565,18.336L87.99,21.502C91.458,20.472 95.29,21.869 100.596,24.417L101.121,20.96Z" style="fill:rgb(22,194,0);"/>
                <clipPath id="_clip5">
                    <path d="M101.121,20.96C96.45,18.434 92.405,17.45 88.565,18.336L87.99,21.502C91.458,20.472 95.29,21.869 100.596,24.417L101.121,20.96Z"/>
                </clipPath>
                <g clip-path="url(#_clip5)">
                    <g transform="matrix(0.997205,0.074713,-0.074713,0.997205,-46.1858,-10.0797)">
                        <path d="M137.818,17.95L133.123,17.185L133.68,21.679L137.041,24.092L137.818,17.95Z" style="fill-opacity:0.14;"/>
                    </g>
                </g>
                <path d="M101.121,20.96C96.45,18.434 92.405,17.45 88.565,18.336L87.99,21.502C91.458,20.472 95.29,21.869 100.596,24.417L101.121,20.96Z" style="fill:none;stroke:black;stroke-width:1.03px;"/>
            </g>
        </g>
        <path d="M48.631,58.349C49.934,59.88 35.95,57.435 33.126,57.81C33.126,57.81 32.369,58.54 31.01,61.881C29.563,65.439 27.296,85.152 27.296,85.152L30.264,102.755L38.511,103.515L36.694,86.834L40.468,71.908L40.472,90.971L40.338,105.21L48.693,104.805L49.978,90.117L50.567,75.261C51.259,71.694 50.937,66.033 51.123,61.967L48.631,58.349Z" style="fill:rgb(50,122,204);"/>
        <clipPath id="_clip6">
            <path d="M48.631,58.349C49.934,59.88 35.95,57.435 33.126,57.81C33.126,57.81 32.369,58.54 31.01,61.881C29.563,65.439 27.296,85.152 27.296,85.152L30.264,102.755L38.511,103.515L36.694,86.834L40.468,71.908L40.472,90.971L40.338,105.21L48.693,104.805L49.978,90.117L50.567,75.261C51.259,71.694 50.937,66.033 51.123,61.967L48.631,58.349Z"/>
        </clipPath>
        <g clip-path="url(#_clip6)">
            <path d="M39.229,68.45C36.025,69.282 37.404,77.94 35.45,80.654C34.241,82.332 34.853,85.687 33.657,87.375C31.297,90.702 25.484,85.674 25.638,86.479C26.579,91.398 28.884,107.153 31.113,107.019C32.563,106.932 41.012,110.524 42.276,105.954C43.273,102.35 42.25,90.431 42.957,88.732C44.313,85.471 43.841,75.213 43.201,72.654C42.562,70.096 41.95,67.745 39.229,68.45Z" style="fill-opacity:0.14;"/>
            <path d="M58.895,61.339L14.045,47.854L26.709,60.698C34.145,65.925 43.593,66.818 54.626,64.293L58.895,61.339Z" style="fill-opacity:0.2;"/>
            <g transform="matrix(-0.587327,0.0256891,0.0285048,0.6517,133.582,-9.86518)">
                <path d="M186.312,104.778L177.963,107.519C177.963,107.519 179.852,120.054 186.132,117.694C192.666,115.238 186.312,104.778 186.312,104.778Z" style="fill:rgb(81,149,225);stroke:black;stroke-width:1.61px;"/>
            </g>
            <g transform="matrix(-0.587327,0.0256891,0.0285048,0.6517,133.582,-9.86518)">
                <path d="M149.241,112.097L138.113,113.835C138.113,113.835 138.167,126.721 144.447,124.361C150.981,121.905 149.241,112.097 149.241,112.097Z" style="fill:rgb(81,149,225);stroke:black;stroke-width:1.61px;"/>
            </g>
        </g>
        <path d="M48.631,58.349C49.934,59.88 35.95,57.435 33.126,57.81C33.126,57.81 32.369,58.54 31.01,61.881C29.563,65.439 27.296,85.152 27.296,85.152L30.264,102.755L38.511,103.515L36.694,86.834L40.468,71.908L40.472,90.971L40.338,105.21L48.693,104.805L49.978,90.117L50.567,75.261C51.259,71.694 50.937,66.033 51.123,61.967L48.631,58.349Z" style="fill:none;stroke:black;stroke-width:1px;"/>
        <path d="M49.236,25.508C47.03,28.912 39.641,29.077 38.763,25.574C38.763,25.574 32.76,26.268 31.033,27.859C28.955,29.774 26.297,37.063 26.297,37.063C28.43,35.964 30.689,36.718 33.034,38.742C33.034,38.742 33.809,35.365 33.749,35.502C33.035,37.121 31.343,50.295 29.624,61.991C29.624,61.991 36.759,63.533 38.524,63.398C40.167,63.273 42.784,63.554 42.784,63.554C42.784,63.554 52.574,64.248 51.98,62.547C51.377,60.82 51.925,57.708 52.055,52.163C52.154,47.954 52.92,41.008 53.068,36.79C53.089,36.219 53.58,35.087 53.58,35.087L52.856,40.458C54.655,39.243 56.532,39.324 58.451,40.088C58.451,40.088 57.253,32.147 55.718,29.717C54.497,27.786 51.959,27.061 49.236,25.508Z" style="fill:rgb(255,108,5);"/>
        <clipPath id="_clip7">
            <path d="M49.236,25.508C47.03,28.912 39.641,29.077 38.763,25.574C38.763,25.574 32.76,26.268 31.033,27.859C28.955,29.774 26.297,37.063 26.297,37.063C28.43,35.964 30.689,36.718 33.034,38.742C33.034,38.742 33.809,35.365 33.749,35.502C33.035,37.121 31.343,50.295 29.624,61.991C29.624,61.991 36.759,63.533 38.524,63.398C40.167,63.273 42.784,63.554 42.784,63.554C42.784,63.554 52.574,64.248 51.98,62.547C51.377,60.82 51.925,57.708 52.055,52.163C52.154,47.954 52.92,41.008 53.068,36.79C53.089,36.219 53.58,35.087 53.58,35.087L52.856,40.458C54.655,39.243 56.532,39.324 58.451,40.088C58.451,40.088 57.253,32.147 55.718,29.717C54.497,27.786 51.959,27.061 49.236,25.508Z"/>
        </clipPath>
        <g clip-path="url(#_clip7)">
            <path d="M35.141,33.331L32.212,34.782L30.706,47.624L54.728,51.176L55.346,43.59L54.827,34.289L52.493,33.197L50.809,38.438L35.339,37.803L35.141,33.331Z" style="fill-opacity:0.13;"/>
        </g>
        <path d="M49.236,25.508C47.03,28.912 39.641,29.077 38.763,25.574C38.763,25.574 32.76,26.268 31.033,27.859C28.955,29.774 26.297,37.063 26.297,37.063C28.43,35.964 30.689,36.718 33.034,38.742C33.034,38.742 33.809,35.365 33.749,35.502C33.035,37.121 31.343,50.295 29.624,61.991C29.624,61.991 36.759,63.533 38.524,63.398C40.167,63.273 42.784,63.554 42.784,63.554C42.784,63.554 52.574,64.248 51.98,62.547C51.377,60.82 51.925,57.708 52.055,52.163C52.154,47.954 52.92,41.008 53.068,36.79C53.089,36.219 53.58,35.087 53.58,35.087L52.856,40.458C54.655,39.243 56.532,39.324 58.451,40.088C58.451,40.088 57.253,32.147 55.718,29.717C54.497,27.786 51.959,27.061 49.236,25.508Z" style="fill:none;stroke:black;stroke-width:1px;"/>
        <g transform="matrix(-0.666667,0,0,0.666667,89.2811,-3.88653)">
            <path d="M80,44.796L76.756,44.26C69.034,63.733 64.336,73.438 56.728,85.838C55.249,88.248 55.233,90.471 56.08,92.584C69.769,74.5 72.378,64.779 80,44.796Z" style="fill:rgb(67,67,67);stroke:black;stroke-width:1.5px;"/>
        </g>
        <path d="M50.849,45.837C55.059,43.028 59.184,40.243 53.375,40.246L50.859,40.032L46.869,41.573L31.622,40.113L31.606,37.984C30.26,36.524 28.423,36.446 27.241,37.035L25.73,43.177C25.383,44.451 25.562,45.569 27.312,46.22L42.163,47.829L50.849,45.837Z" style="fill:rgb(231,173,164);"/>
        <clipPath id="_clip8">
            <path d="M50.849,45.837C55.059,43.028 59.184,40.243 53.375,40.246L50.859,40.032L46.869,41.573L31.622,40.113L31.606,37.984C30.26,36.524 28.423,36.446 27.241,37.035L25.73,43.177C25.383,44.451 25.562,45.569 27.312,46.22L42.163,47.829L50.849,45.837Z"/>
        </clipPath>
        <g clip-path="url(#_clip8)">
            <path d="M42.326,31.468L29.966,35.662L29.652,41.958L37.642,44.577L44.394,48.264L42.326,31.468Z" style="fill-opacity:0.14;"/>
        </g>
        <path d="M50.849,45.837C55.059,43.028 59.184,40.243 53.375,40.246L50.859,40.032L46.869,41.573L31.622,40.113L31.606,37.984C30.26,36.524 28.423,36.446 27.241,37.035L25.73,43.177C25.383,44.451 25.562,45.569 27.312,46.22L42.163,47.829L50.849,45.837Z" style="fill:none;stroke:black;stroke-width:1px;"/>
        <path d="M54.39,39.998L54.6,43.003L52.358,42.027L37.674,39.9L33.721,39.144L31.459,40.733L34.484,41.67L36.194,42.479C42.304,45.834 48.362,47.408 54.415,48.82L57.366,47.209L58.062,40.415C56.741,39.347 55.548,39.504 54.39,39.998Z" style="fill:rgb(231,173,164);"/>
        <clipPath id="_clip9">
            <path d="M54.39,39.998L54.6,43.003L52.358,42.027L37.674,39.9L33.721,39.144L31.459,40.733L34.484,41.67L36.194,42.479C42.304,45.834 48.362,47.408 54.415,48.82L57.366,47.209L58.062,40.415C56.741,39.347 55.548,39.504 54.39,39.998Z"/>
        </clipPath>
        <g clip-path="url(#_clip9)">
            <path d="M58.856,34.701L42.907,29.373L29.438,39.159L47.925,43.598L53.31,44.379L58.856,34.701Z" style="fill-opacity:0.14;"/>
        </g>
        <path d="M54.39,39.998L54.6,43.003L52.358,42.027L37.674,39.9L33.721,39.144L31.459,40.733L34.484,41.67L36.194,42.479C42.304,45.834 48.362,47.408 54.415,48.82L57.366,47.209L58.062,40.415C56.741,39.347 55.548,39.504 54.39,39.998Z" style="fill:none;stroke:black;stroke-width:1px;"/>
    </g>
    <g transform="matrix(1.5,0,0,1.5,360.089,5.26488)">
        <g transform="matrix(0.494739,0.091556,-0.0924799,0.499732,23.1094,12.5999)">
            <path d="M69.976,138.334L64.403,131.442L56.31,138.039C56.31,138.039 62.923,156.426 65.208,159.841C66.132,161.223 69.66,160.156 70.02,158.534C70.814,154.949 68.908,142.565 69.976,138.334Z" style="fill:rgb(249,47,64);"/>
            <clipPath id="_clip10">
                <path d="M69.976,138.334L64.403,131.442L56.31,138.039C56.31,138.039 62.923,156.426 65.208,159.841C66.132,161.223 69.66,160.156 70.02,158.534C70.814,154.949 68.908,142.565 69.976,138.334Z"/>
            </clipPath>
            <g clip-path="url(#_clip10)">
                <g transform="matrix(1.14666,0,0,1.22095,-48.9724,-32.3049)">
                    <path d="M92.535,136.033L82.296,144.346L91.407,160.923L101.697,159L92.535,136.033Z" style="fill:white;"/>
                </g>
            </g>
            <path d="M69.976,138.334L64.403,131.442L56.31,138.039C56.31,138.039 62.923,156.426 65.208,159.841C66.132,161.223 69.66,160.156 70.02,158.534C70.814,154.949 68.908,142.565 69.976,138.334Z" style="fill:none;stroke:black;stroke-width:1.98px;"/>
        </g>
        <g transform="matrix(-0.57863,0.0566781,0.0532292,0.543421,-9.34755,41.1947)">
            <path d="M-63.999,99.059L-69.572,92.167L-77.665,98.764C-77.665,98.764 -71.052,117.15 -68.767,120.566C-67.843,121.947 -64.315,120.881 -63.955,119.258C-63.161,115.674 -65.067,103.29 -63.999,99.059Z" style="fill:rgb(249,47,64);"/>
            <clipPath id="_clip11">
                <path d="M-63.999,99.059L-69.572,92.167L-77.665,98.764C-77.665,98.764 -71.052,117.15 -68.767,120.566C-67.843,121.947 -64.315,120.881 -63.955,119.258C-63.161,115.674 -65.067,103.29 -63.999,99.059Z"/>
            </clipPath>
            <g clip-path="url(#_clip11)">
                <g transform="matrix(1.14666,0,1.69441e-17,1.22095,-182.256,-71.059)">
                    <path d="M92.535,136.033L82.296,144.346L91.407,160.923L101.697,159L92.535,136.033Z" style="fill:white;"/>
                </g>
            </g>
            <path d="M-63.999,99.059L-69.572,92.167L-77.665,98.764C-77.665,98.764 -71.052,117.15 -68.767,120.566C-67.843,121.947 -64.315,120.881 -63.955,119.258C-63.161,115.674 -65.067,103.29 -63.999,99.059Z" style="fill:none;stroke:black;stroke-width:1.77px;"/>
        </g>
        <g transform="matrix(-0.57863,0.0566781,0.0532292,0.543421,-9.34755,-15.6075)">
            <path d="M-36.056,50.567C-31.974,48.482 -29.62,44.954 -27.626,41.126C-26.515,36.258 -26.623,33.951 -24.68,32.241L-45.34,33.063C-48.693,36.26 -47.561,38.973 -47.871,42.719C-45.971,47.637 -43.601,50.358 -40.713,50.664L-39.806,61.934L-36.409,61.689L-36.056,50.567Z" style="fill:rgb(233,110,24);"/>
            <clipPath id="_clip12">
                <path d="M-36.056,50.567C-31.974,48.482 -29.62,44.954 -27.626,41.126C-26.515,36.258 -26.623,33.951 -24.68,32.241L-45.34,33.063C-48.693,36.26 -47.561,38.973 -47.871,42.719C-45.971,47.637 -43.601,50.358 -40.713,50.664L-39.806,61.934L-36.409,61.689L-36.056,50.567Z"/>
            </clipPath>
            <g clip-path="url(#_clip12)">
                <g transform="matrix(1.14666,0,1.69441e-17,1.22095,-182.256,-71.059)">
                    <path d="M138.158,90.317L132.98,90.729C131.455,93.94 131.246,94.159 130.275,90.789L113.49,92.278L112.643,106.012L138.907,101.161L138.158,90.317Z" style="fill:rgb(196,196,196);"/>
                </g>
                <g transform="matrix(1.14666,-1.38778e-17,2.77556e-17,1.22095,-182.256,-71.059)">
                    <path d="M138.167,94.634L113.499,96.595L114.66,110.899L136.396,108.795L138.167,94.634Z" style="fill:rgb(136,93,57);"/>
                </g>
                <g transform="matrix(-1.1412,0.119025,0.111783,1.21514,396.96,-19.1406)">
                    <path d="M376.065,16.163L389.73,15.754" style="fill:none;stroke:black;stroke-width:1.5px;"/>
                </g>
            </g>
            <path d="M-36.056,50.567C-31.974,48.482 -29.62,44.954 -27.626,41.126C-26.515,36.258 -26.623,33.951 -24.68,32.241L-45.34,33.063C-48.693,36.26 -47.561,38.973 -47.871,42.719C-45.971,47.637 -43.601,50.358 -40.713,50.664L-39.806,61.934L-36.409,61.689L-36.056,50.567Z" style="fill:none;stroke:black;stroke-width:1.77px;"/>
        </g>
        <g transform="matrix(0.666667,0,0,0.666667,-240.059,-3.50992)">
            <path d="M408.605,2.533C407.685,0.929 405.136,1.149 404.046,1.797C402.956,2.445 397.507,6.819 397.507,6.819C397.507,6.819 406.753,7.068 407.843,6.419C408.933,5.771 409.709,4.458 408.605,2.533Z" style="fill:rgb(233,110,24);stroke:black;stroke-width:1.5px;"/>
        </g>
        <g transform="matrix(0.465111,0.477615,-0.477615,0.465111,-156.801,-187.746)">
            <path d="M408.605,2.533C407.685,0.929 405.136,1.149 404.046,1.797C402.956,2.445 397.507,6.819 397.507,6.819C397.507,6.819 406.753,7.068 407.843,6.419C408.933,5.771 409.709,4.458 408.605,2.533Z" style="fill:rgb(233,110,24);stroke:black;stroke-width:1.5px;"/>
        </g>
        <path d="M49.025,27.423C49.619,24.145 51.216,25.157 51.09,23.076C50.945,20.681 51.693,15.934 50.288,13.864C48.983,11.942 45.583,12.617 43.873,12.375C40.277,11.867 40.291,14.888 39.953,19.053C39.875,20.016 38.479,22.438 38.479,22.438C38.479,22.438 39.527,22.999 39.547,23.463C39.567,23.958 39.4,24.34 39.169,24.965C38.956,25.541 40.438,25.351 39.965,25.983C39.355,26.797 34.376,26.768 34.376,26.768L23.763,26.71C23.765,26.813 19.715,19.906 18.956,19.601C18.826,19.549 18.423,16.225 18.423,16.225L18.557,12.868L17.764,12.277L16.196,14.593L13.862,12.884C12.446,13.824 12.731,15.149 12.503,16.354L15.145,19.615C15.145,19.615 18.121,27.481 19.439,28.964C21.34,31.101 22.701,30.877 22.701,30.877C22.701,30.877 35.267,31.382 36.899,30.832C36.186,32.452 50.984,36.176 51.133,31.958C51.238,28.982 48.277,29.919 49.025,27.423Z" style="fill:rgb(231,173,164);"/>
        <clipPath id="_clip13">
            <path d="M49.025,27.423C49.619,24.145 51.216,25.157 51.09,23.076C50.945,20.681 51.693,15.934 50.288,13.864C48.983,11.942 45.583,12.617 43.873,12.375C40.277,11.867 40.291,14.888 39.953,19.053C39.875,20.016 38.479,22.438 38.479,22.438C38.479,22.438 39.527,22.999 39.547,23.463C39.567,23.958 39.4,24.34 39.169,24.965C38.956,25.541 40.438,25.351 39.965,25.983C39.355,26.797 34.376,26.768 34.376,26.768L23.763,26.71C23.765,26.813 19.715,19.906 18.956,19.601C18.826,19.549 18.423,16.225 18.423,16.225L18.557,12.868L17.764,12.277L16.196,14.593L13.862,12.884C12.446,13.824 12.731,15.149 12.503,16.354L15.145,19.615C15.145,19.615 18.121,27.481 19.439,28.964C21.34,31.101 22.701,30.877 22.701,30.877C22.701,30.877 35.267,31.382 36.899,30.832C36.186,32.452 50.984,36.176 51.133,31.958C51.238,28.982 48.277,29.919 49.025,27.423Z"/>
        </clipPath>
        <g clip-path="url(#_clip13)">
            <path d="M46.38,7.942L40.711,9.583C37.276,10.547 39.752,10.447 38.197,20.732C43.887,22.627 49.537,24.558 53.523,27.972L46.38,7.942Z" style="fill-opacity:0.14;"/>
            <path d="M30.537,29.801L21.414,29.09C18.884,27.595 17.467,20.41 15.004,20.024C12.806,19.679 10.951,30.565 10.187,30.352L13.647,41.392L28.973,48.632L30.537,29.801Z" style="fill-opacity:0.14;"/>
            <g transform="matrix(0.666667,0,0,0.666667,-159.449,-3.50992)">
                <path d="M296.765,41.131C300.078,42.61 301.405,41.811 301.405,41.811" style="fill:none;stroke:black;stroke-width:0.75px;"/>
            </g>
        </g>
        <path d="M49.025,27.423C49.619,24.145 51.216,25.157 51.09,23.076C50.945,20.681 51.693,15.934 50.288,13.864C48.983,11.942 45.583,12.617 43.873,12.375C40.277,11.867 40.291,14.888 39.953,19.053C39.875,20.016 38.479,22.438 38.479,22.438C38.479,22.438 39.527,22.999 39.547,23.463C39.567,23.958 39.4,24.34 39.169,24.965C38.956,25.541 40.438,25.351 39.965,25.983C39.355,26.797 34.376,26.768 34.376,26.768L23.763,26.71C23.765,26.813 19.715,19.906 18.956,19.601C18.826,19.549 18.423,16.225 18.423,16.225L18.557,12.868L17.764,12.277L16.196,14.593L13.862,12.884C12.446,13.824 12.731,15.149 12.503,16.354L15.145,19.615C15.145,19.615 18.121,27.481 19.439,28.964C21.34,31.101 22.701,30.877 22.701,30.877C22.701,30.877 35.267,31.382 36.899,30.832C36.186,32.452 50.984,36.176 51.133,31.958C51.238,28.982 48.277,29.919 49.025,27.423Z" style="fill:none;stroke:black;stroke-width:1px;"/>
        <g transform="matrix(1,0,0,1,-49.0654,-0.0126953)">
            <path d="M101.479,15.629C98.475,7.531 94.176,9.731 89.96,13.397L87.991,19.022C93.58,18.537 96.319,22.356 100.435,22.972L101.479,15.629Z" style="fill:rgb(21,182,0);"/>
            <clipPath id="_clip14">
                <path d="M101.479,15.629C98.475,7.531 94.176,9.731 89.96,13.397L87.991,19.022C93.58,18.537 96.319,22.356 100.435,22.972L101.479,15.629Z"/>
            </clipPath>
            <g clip-path="url(#_clip14)">
                <g transform="matrix(-1,0,0,1,209.309,1.77162)">
                    <path d="M113.369,7.554L110.815,4.382C107.381,5.346 105.194,12.5 103.639,22.785L105.425,26.073L111.122,26.243C108.388,14.792 109.374,12.847 113.369,7.554Z" style="fill-opacity:0.14;"/>
                </g>
            </g>
            <path d="M101.479,15.629C98.475,7.531 94.176,9.731 89.96,13.397L87.991,19.022C93.58,18.537 96.319,22.356 100.435,22.972L101.479,15.629Z" style="fill:none;stroke:black;stroke-width:1px;"/>
        </g>
        <g transform="matrix(1,0,0,1,-49.0654,-0.0126953)">
            <path d="M100.834,21.916C96.839,19.77 92.382,18.068 88.366,17.17L87.791,20.336C92.095,21.31 96.497,23.166 99.724,24.999C100.478,24.146 100.763,23.079 100.834,21.916Z" style="fill:rgb(22,194,0);"/>
            <clipPath id="_clip15">
                <path d="M100.834,21.916C96.839,19.77 92.382,18.068 88.366,17.17L87.791,20.336C92.095,21.31 96.497,23.166 99.724,24.999C100.478,24.146 100.763,23.079 100.834,21.916Z"/>
            </clipPath>
            <g clip-path="url(#_clip15)">
                <g transform="matrix(-1,0,0,1,209.309,1.77162)">
                    <path d="M109.945,18.503L105.542,19.257L105.848,41.119L110.411,26.246L109.945,18.503Z" style="fill-opacity:0.14;"/>
                </g>
            </g>
            <path d="M100.834,21.916C96.839,19.77 92.382,18.068 88.366,17.17L87.791,20.336C92.095,21.31 96.497,23.166 99.724,24.999C100.478,24.146 100.763,23.079 100.834,21.916Z" style="fill:none;stroke:black;stroke-width:1px;"/>
        </g>
        <path d="M48.631,58.349C49.934,59.88 32.841,57.382 30.017,57.758C30.017,57.758 27.12,64.365 25.761,67.707C24.314,71.265 21.765,76.096 21.335,79.106C21.01,81.387 21.947,83.823 23.185,85.767C25.337,89.145 30.801,90.427 33.904,92.11C36.044,91.588 38.285,88.962 38.285,88.962C31.584,81.912 28.958,81.164 28.958,81.164C32.659,77.512 35.501,76.196 40.473,74.652L48.828,78.015L42.286,83.97L44.787,89.874L53.283,86.905L60.026,79.334L52.357,62.898L48.631,58.349Z" style="fill:rgb(50,122,204);"/>
        <clipPath id="_clip16">
            <path d="M48.631,58.349C49.934,59.88 32.841,57.382 30.017,57.758C30.017,57.758 27.12,64.365 25.761,67.707C24.314,71.265 21.765,76.096 21.335,79.106C21.01,81.387 21.947,83.823 23.185,85.767C25.337,89.145 30.801,90.427 33.904,92.11C36.044,91.588 38.285,88.962 38.285,88.962C31.584,81.912 28.958,81.164 28.958,81.164C32.659,77.512 35.501,76.196 40.473,74.652L48.828,78.015L42.286,83.97L44.787,89.874L53.283,86.905L60.026,79.334L52.357,62.898L48.631,58.349Z"/>
        </clipPath>
        <g clip-path="url(#_clip16)">
            <path d="M39.939,70.374C36.735,71.206 29.348,77.792 27.394,80.505C26.186,82.184 36.913,88.569 37.881,90.397C39.482,93.42 41.046,90.179 42.65,86.325C44.006,83.064 51.3,80.628 50.66,78.07C50.02,75.511 42.66,69.669 39.939,70.374Z" style="fill-opacity:0.14;"/>
            <path d="M50.755,51.899L46.772,58.915C52.424,66.334 56.867,71.446 57.318,79.096L51.57,88.636L63.075,79.789L50.755,51.899Z" style="fill-opacity:0.2;"/>
            <g transform="matrix(0.587327,0.0256891,-0.0285048,0.6517,-132.787,-7.61618)">
                <path d="M313.038,95.959L303.959,98.622C303.959,98.622 310.067,110.811 316.347,108.451C322.881,105.995 313.038,95.959 313.038,95.959Z" style="fill:rgb(81,149,225);stroke:black;stroke-width:1.61px;"/>
            </g>
        </g>
        <path d="M48.631,58.349C49.934,59.88 32.841,57.382 30.017,57.758C30.017,57.758 27.12,64.365 25.761,67.707C24.314,71.265 21.765,76.096 21.335,79.106C21.01,81.387 21.947,83.823 23.185,85.767C25.337,89.145 30.801,90.427 33.904,92.11C36.044,91.588 38.285,88.962 38.285,88.962C31.584,81.912 28.958,81.164 28.958,81.164C32.659,77.512 35.501,76.196 40.473,74.652L48.828,78.015L42.286,83.97L44.787,89.874L53.283,86.905L60.026,79.334L52.357,62.898L48.631,58.349Z" style="fill:none;stroke:black;stroke-width:1px;"/>
        <path d="M49.22,26.485C47.014,29.889 39.636,29.634 38.757,26.132L25.601,26.433L26.11,32.135C26.11,32.135 30.284,33.354 33.841,33.006C33.128,34.626 31.251,46.218 29.532,57.915L32.862,59.865L39.346,60.612C39.346,60.612 49.224,60.05 48.631,58.349C48.028,56.622 48.102,54.099 48.57,52.053C49.51,47.95 54.801,35.13 54.95,30.912C55.055,27.936 49.799,32.012 49.22,26.485Z" style="fill:rgb(255,108,5);"/>
        <clipPath id="_clip17">
            <path d="M49.22,26.485C47.014,29.889 39.636,29.634 38.757,26.132L25.601,26.433L26.11,32.135C26.11,32.135 30.284,33.354 33.841,33.006C33.128,34.626 31.251,46.218 29.532,57.915L32.862,59.865L39.346,60.612C39.346,60.612 49.224,60.05 48.631,58.349C48.028,56.622 48.102,54.099 48.57,52.053C49.51,47.95 54.801,35.13 54.95,30.912C55.055,27.936 49.799,32.012 49.22,26.485Z"/>
        </clipPath>
        <g clip-path="url(#_clip17)">
            <path d="M54.471,26.817L48.794,41.229C43.878,51.645 44.572,56.648 46.877,62.703L56.505,55.657L59.483,29.54L54.471,26.817Z" style="fill-opacity:0.13;"/>
        </g>
        <path d="M49.22,26.485C47.014,29.889 39.636,29.634 38.757,26.132L25.601,26.433L26.11,32.135C26.11,32.135 30.284,33.354 33.841,33.006C33.128,34.626 31.251,46.218 29.532,57.915L32.862,59.865L39.346,60.612C39.346,60.612 49.224,60.05 48.631,58.349C48.028,56.622 48.102,54.099 48.57,52.053C49.51,47.95 54.801,35.13 54.95,30.912C55.055,27.936 49.799,32.012 49.22,26.485Z" style="fill:none;stroke:black;stroke-width:1px;"/>
        <g transform="matrix(1,0,0,1,-0.140146,-0.406913)">
            <g transform="matrix(0.666667,0,0,0.666667,0,-4)">
                <path d="M79.861,51.149C78.597,49.197 77.021,48.754 75.22,49.397C61.182,73.723 55.361,78.003 45.555,82.857C44.077,85.266 44.061,87.49 44.908,89.603C58.818,81.888 69.853,69.425 79.861,51.149Z" style="fill:rgb(67,67,67);stroke:black;stroke-width:1.5px;"/>
            </g>
            <g transform="matrix(0.537787,0.393992,-0.458018,0.625181,27.2653,-45.5889)">
                <path d="M101.774,71.505C100.707,69.557 92.752,70.493 91.764,72.42C90.2,75.471 89.489,88.868 91.263,91.832C93.038,94.795 98.748,95.256 100.522,92.292C102.297,89.328 103.425,74.521 101.774,71.505Z" style="fill:rgb(66,66,66);"/>
                <clipPath id="_clip18">
                    <path d="M101.774,71.505C100.707,69.557 92.752,70.493 91.764,72.42C90.2,75.471 89.489,88.868 91.263,91.832C93.038,94.795 98.748,95.256 100.522,92.292C102.297,89.328 103.425,74.521 101.774,71.505Z"/>
                </clipPath>
                <g clip-path="url(#_clip18)">
                    <g transform="matrix(0.756147,-0.562923,0.654402,0.650445,-17.7201,93.4081)">
                        <path d="M114.815,56.295L109.287,51.591C100.739,63.842 91.868,72.182 82.744,77.477L89.293,82.757L114.815,56.295Z" style="fill-opacity:0.38;"/>
                    </g>
                    <g transform="matrix(0.745214,-0.57361,0.666826,0.64104,1.56889,71.7472)">
                        <path d="M67.867,63.259L54.485,77.151" style="fill:none;stroke:rgb(181,181,181);stroke-width:1.5px;"/>
                    </g>
                </g>
                <path d="M101.774,71.505C100.707,69.557 92.752,70.493 91.764,72.42C90.2,75.471 89.489,88.868 91.263,91.832C93.038,94.795 98.748,95.256 100.522,92.292C102.297,89.328 103.425,74.521 101.774,71.505Z" style="fill:none;stroke:black;stroke-width:1.38px;"/>
            </g>
        </g>
    </g>
    <g transform="matrix(1.5,0,0,1.5,239.173,5.26488)">
        <g transform="matrix(0.494739,0.091556,-0.0924799,0.499732,23.1094,12.5999)">
            <path d="M69.976,138.334L64.403,131.442L56.31,138.039C56.31,138.039 62.923,156.426 65.208,159.841C66.132,161.223 69.66,160.156 70.02,158.534C70.814,154.949 68.908,142.565 69.976,138.334Z" style="fill:rgb(249,47,64);"/>
            <clipPath id="_clip19">
                <path d="M69.976,138.334L64.403,131.442L56.31,138.039C56.31,138.039 62.923,156.426 65.208,159.841C66.132,161.223 69.66,160.156 70.02,158.534C70.814,154.949 68.908,142.565 69.976,138.334Z"/>
            </clipPath>
            <g clip-path="url(#_clip19)">
                <g transform="matrix(1.14666,0,0,1.22095,-48.9724,-32.3049)">
                    <path d="M92.535,136.033L82.296,144.346L91.407,160.923L101.697,159L92.535,136.033Z" style="fill:white;"/>
                </g>
            </g>
            <path d="M69.976,138.334L64.403,131.442L56.31,138.039C56.31,138.039 62.923,156.426 65.208,159.841C66.132,161.223 69.66,160.156 70.02,158.534C70.814,154.949 68.908,142.565 69.976,138.334Z" style="fill:none;stroke:black;stroke-width:1.98px;"/>
        </g>
        <g transform="matrix(-0.57863,0.0566781,0.0532292,0.543421,-9.34755,41.1947)">
            <path d="M-63.999,99.059L-69.572,92.167L-77.665,98.764C-77.665,98.764 -71.052,117.15 -68.767,120.566C-67.843,121.947 -64.315,120.881 -63.955,119.258C-63.161,115.674 -65.067,103.29 -63.999,99.059Z" style="fill:rgb(249,47,64);"/>
            <clipPath id="_clip20">
                <path d="M-63.999,99.059L-69.572,92.167L-77.665,98.764C-77.665,98.764 -71.052,117.15 -68.767,120.566C-67.843,121.947 -64.315,120.881 -63.955,119.258C-63.161,115.674 -65.067,103.29 -63.999,99.059Z"/>
            </clipPath>
            <g clip-path="url(#_clip20)">
                <g transform="matrix(1.14666,0,1.69441e-17,1.22095,-182.256,-71.059)">
                    <path d="M92.535,136.033L82.296,144.346L91.407,160.923L101.697,159L92.535,136.033Z" style="fill:white;"/>
                </g>
            </g>
            <path d="M-63.999,99.059L-69.572,92.167L-77.665,98.764C-77.665,98.764 -71.052,117.15 -68.767,120.566C-67.843,121.947 -64.315,120.881 -63.955,119.258C-63.161,115.674 -65.067,103.29 -63.999,99.059Z" style="fill:none;stroke:black;stroke-width:1.77px;"/>
        </g>
        <path d="M49.025,27.423C49.619,24.145 51.216,25.157 51.09,23.076C50.945,20.681 51.693,15.934 50.288,13.864C48.983,11.942 45.583,12.617 43.873,12.375C40.277,11.867 40.291,14.888 39.953,19.053C39.875,20.016 38.479,22.438 38.479,22.438C38.479,22.438 39.527,22.999 39.547,23.463C39.567,23.958 39.4,24.34 39.169,24.965C38.956,25.541 40.438,25.351 39.965,25.983C39.355,26.797 34.376,26.768 34.376,26.768L17.116,27.108C17.118,27.211 15.95,26.514 15.191,26.209C15.06,26.157 15.311,24.096 14.996,23.571C14.681,23.046 13.981,23.411 13.831,23.422C13.444,23.45 13.711,26.133 13.711,26.133L11.348,26.304C11.348,26.304 11.366,30.842 12.206,31.486C12.538,31.74 14.929,31.709 14.929,31.709L16.977,30.784C16.977,30.784 35.267,31.382 36.899,30.832C36.186,32.452 50.984,36.176 51.133,31.958C51.238,28.982 48.277,29.919 49.025,27.423Z" style="fill:rgb(231,173,164);"/>
        <clipPath id="_clip21">
            <path d="M49.025,27.423C49.619,24.145 51.216,25.157 51.09,23.076C50.945,20.681 51.693,15.934 50.288,13.864C48.983,11.942 45.583,12.617 43.873,12.375C40.277,11.867 40.291,14.888 39.953,19.053C39.875,20.016 38.479,22.438 38.479,22.438C38.479,22.438 39.527,22.999 39.547,23.463C39.567,23.958 39.4,24.34 39.169,24.965C38.956,25.541 40.438,25.351 39.965,25.983C39.355,26.797 34.376,26.768 34.376,26.768L17.116,27.108C17.118,27.211 15.95,26.514 15.191,26.209C15.06,26.157 15.311,24.096 14.996,23.571C14.681,23.046 13.981,23.411 13.831,23.422C13.444,23.45 13.711,26.133 13.711,26.133L11.348,26.304C11.348,26.304 11.366,30.842 12.206,31.486C12.538,31.74 14.929,31.709 14.929,31.709L16.977,30.784C16.977,30.784 35.267,31.382 36.899,30.832C36.186,32.452 50.984,36.176 51.133,31.958C51.238,28.982 48.277,29.919 49.025,27.423Z"/>
        </clipPath>
        <g clip-path="url(#_clip21)">
            <path d="M46.38,7.942L40.711,9.583C37.276,10.547 39.752,10.447 38.197,20.732C43.887,22.627 49.537,24.558 53.523,27.972L46.38,7.942Z" style="fill-opacity:0.14;"/>
            <path d="M30.537,29.801L17.079,30.166C13.581,31.065 11.764,30.792 10.187,30.352L13.647,41.392L28.973,48.632L30.537,29.801Z" style="fill-opacity:0.14;"/>
            <g transform="matrix(0.666667,0,0,0.666667,-159.449,-3.50992)">
                <path d="M296.765,41.131C300.078,42.61 301.405,41.811 301.405,41.811" style="fill:none;stroke:black;stroke-width:0.75px;"/>
            </g>
        </g>
        <path d="M49.025,27.423C49.619,24.145 51.216,25.157 51.09,23.076C50.945,20.681 51.693,15.934 50.288,13.864C48.983,11.942 45.583,12.617 43.873,12.375C40.277,11.867 40.291,14.888 39.953,19.053C39.875,20.016 38.479,22.438 38.479,22.438C38.479,22.438 39.527,22.999 39.547,23.463C39.567,23.958 39.4,24.34 39.169,24.965C38.956,25.541 40.438,25.351 39.965,25.983C39.355,26.797 34.376,26.768 34.376,26.768L17.116,27.108C17.118,27.211 15.95,26.514 15.191,26.209C15.06,26.157 15.311,24.096 14.996,23.571C14.681,23.046 13.981,23.411 13.831,23.422C13.444,23.45 13.711,26.133 13.711,26.133L11.348,26.304C11.348,26.304 11.366,30.842 12.206,31.486C12.538,31.74 14.929,31.709 14.929,31.709L16.977,30.784C16.977,30.784 35.267,31.382 36.899,30.832C36.186,32.452 50.984,36.176 51.133,31.958C51.238,28.982 48.277,29.919 49.025,27.423Z" style="fill:none;stroke:black;stroke-width:1px;"/>
        <g transform="matrix(1,0,0,1,-49.0654,-0.0126953)">
            <path d="M101.479,15.629C98.475,7.531 94.176,9.731 89.96,13.397L87.991,19.022C93.58,18.537 96.319,22.356 100.435,22.972L101.479,15.629Z" style="fill:rgb(21,182,0);"/>
            <clipPath id="_clip22">
                <path d="M101.479,15.629C98.475,7.531 94.176,9.731 89.96,13.397L87.991,19.022C93.58,18.537 96.319,22.356 100.435,22.972L101.479,15.629Z"/>
            </clipPath>
            <g clip-path="url(#_clip22)">
                <g transform="matrix(-1,0,0,1,209.309,1.77162)">
                    <path d="M113.369,7.554L110.815,4.382C107.381,5.346 105.194,12.5 103.639,22.785L105.425,26.073L111.122,26.243C108.388,14.792 109.374,12.847 113.369,7.554Z" style="fill-opacity:0.14;"/>
                </g>
            </g>
            <path d="M101.479,15.629C98.475,7.531 94.176,9.731 89.96,13.397L87.991,19.022C93.58,18.537 96.319,22.356 100.435,22.972L101.479,15.629Z" style="fill:none;stroke:black;stroke-width:1px;"/>
        </g>
        <g transform="matrix(1,0,0,1,-49.0654,-0.0126953)">
            <path d="M100.834,21.916C96.839,19.77 92.382,18.068 88.366,17.17L87.791,20.336C92.095,21.31 96.497,23.166 99.724,24.999C100.478,24.146 100.763,23.079 100.834,21.916Z" style="fill:rgb(22,194,0);"/>
            <clipPath id="_clip23">
                <path d="M100.834,21.916C96.839,19.77 92.382,18.068 88.366,17.17L87.791,20.336C92.095,21.31 96.497,23.166 99.724,24.999C100.478,24.146 100.763,23.079 100.834,21.916Z"/>
            </clipPath>
            <g clip-path="url(#_clip23)">
                <g transform="matrix(-1,0,0,1,209.309,1.77162)">
                    <path d="M109.945,18.503L105.542,19.257L105.848,41.119L110.411,26.246L109.945,18.503Z" style="fill-opacity:0.14;"/>
                </g>
            </g>
            <path d="M100.834,21.916C96.839,19.77 92.382,18.068 88.366,17.17L87.791,20.336C92.095,21.31 96.497,23.166 99.724,24.999C100.478,24.146 100.763,23.079 100.834,21.916Z" style="fill:none;stroke:black;stroke-width:1px;"/>
        </g>
        <path d="M48.631,58.349C49.934,59.88 32.841,57.382 30.017,57.758C30.017,57.758 27.12,64.365 25.761,67.707C24.314,71.265 21.765,76.096 21.335,79.106C21.01,81.387 21.947,83.823 23.185,85.767C25.337,89.145 30.801,90.427 33.904,92.11C36.044,91.588 38.285,88.962 38.285,88.962C31.584,81.912 28.958,81.164 28.958,81.164C32.659,77.512 35.501,76.196 40.473,74.652L48.828,78.015L42.286,83.97L44.787,89.874L53.283,86.905L60.026,79.334L52.357,62.898L48.631,58.349Z" style="fill:rgb(50,122,204);"/>
        <clipPath id="_clip24">
            <path d="M48.631,58.349C49.934,59.88 32.841,57.382 30.017,57.758C30.017,57.758 27.12,64.365 25.761,67.707C24.314,71.265 21.765,76.096 21.335,79.106C21.01,81.387 21.947,83.823 23.185,85.767C25.337,89.145 30.801,90.427 33.904,92.11C36.044,91.588 38.285,88.962 38.285,88.962C31.584,81.912 28.958,81.164 28.958,81.164C32.659,77.512 35.501,76.196 40.473,74.652L48.828,78.015L42.286,83.97L44.787,89.874L53.283,86.905L60.026,79.334L52.357,62.898L48.631,58.349Z"/>
        </clipPath>
        <g clip-path="url(#_clip24)">
            <path d="M39.939,70.374C36.735,71.206 29.348,77.792 27.394,80.505C26.186,82.184 36.913,88.569 37.881,90.397C39.482,93.42 41.046,90.179 42.65,86.325C44.006,83.064 51.3,80.628 50.66,78.07C50.02,75.511 42.66,69.669 39.939,70.374Z" style="fill-opacity:0.14;"/>
            <path d="M50.755,51.899L46.772,58.915C52.424,66.334 56.867,71.446 57.318,79.096L51.57,88.636L63.075,79.789L50.755,51.899Z" style="fill-opacity:0.2;"/>
            <g transform="matrix(0.587327,0.0256891,-0.0285048,0.6517,-132.787,-7.61618)">
                <path d="M313.038,95.959L303.959,98.622C303.959,98.622 310.067,110.811 316.347,108.451C322.881,105.995 313.038,95.959 313.038,95.959Z" style="fill:rgb(81,149,225);stroke:black;stroke-width:1.61px;"/>
            </g>
        </g>
        <path d="M48.631,58.349C49.934,59.88 32.841,57.382 30.017,57.758C30.017,57.758 27.12,64.365 25.761,67.707C24.314,71.265 21.765,76.096 21.335,79.106C21.01,81.387 21.947,83.823 23.185,85.767C25.337,89.145 30.801,90.427 33.904,92.11C36.044,91.588 38.285,88.962 38.285,88.962C31.584,81.912 28.958,81.164 28.958,81.164C32.659,77.512 35.501,76.196 40.473,74.652L48.828,78.015L42.286,83.97L44.787,89.874L53.283,86.905L60.026,79.334L52.357,62.898L48.631,58.349Z" style="fill:none;stroke:black;stroke-width:1px;"/>
        <path d="M49.22,26.485C47.014,29.889 39.636,29.634 38.757,26.132L25.601,26.433L26.11,32.135C26.11,32.135 30.284,33.354 33.841,33.006C33.128,34.626 31.251,46.218 29.532,57.915L32.862,59.865L39.346,60.612C39.346,60.612 49.224,60.05 48.631,58.349C48.028,56.622 48.102,54.099 48.57,52.053C49.51,47.95 54.801,35.13 54.95,30.912C55.055,27.936 49.799,32.012 49.22,26.485Z" style="fill:rgb(255,108,5);"/>
        <clipPath id="_clip25">
            <path d="M49.22,26.485C47.014,29.889 39.636,29.634 38.757,26.132L25.601,26.433L26.11,32.135C26.11,32.135 30.284,33.354 33.841,33.006C33.128,34.626 31.251,46.218 29.532,57.915L32.862,59.865L39.346,60.612C39.346,60.612 49.224,60.05 48.631,58.349C48.028,56.622 48.102,54.099 48.57,52.053C49.51,47.95 54.801,35.13 54.95,30.912C55.055,27.936 49.799,32.012 49.22,26.485Z"/>
        </clipPath>
        <g clip-path="url(#_clip25)">
            <path d="M54.471,26.817L48.794,41.229C43.878,51.645 44.572,56.648 46.877,62.703L56.505,55.657L59.483,29.54L54.471,26.817Z" style="fill-opacity:0.13;"/>
        </g>
        <path d="M49.22,26.485C47.014,29.889 39.636,29.634 38.757,26.132L25.601,26.433L26.11,32.135C26.11,32.135 30.284,33.354 33.841,33.006C33.128,34.626 31.251,46.218 29.532,57.915L32.862,59.865L39.346,60.612C39.346,60.612 49.224,60.05 48.631,58.349C48.028,56.622 48.102,54.099 48.57,52.053C49.51,47.95 54.801,35.13 54.95,30.912C55.055,27.936 49.799,32.012 49.22,26.485Z" style="fill:none;stroke:black;stroke-width:1px;"/>
        <g transform="matrix(1,0,0,1,-0.140146,-0.406913)">
            <g transform="matrix(0.666667,0,0,0.666667,0,-4)">
                <path d="M79.861,51.149C78.597,49.197 77.021,48.754 75.22,49.397C61.182,73.723 55.361,78.003 45.555,82.857C44.077,85.266 44.061,87.49 44.908,89.603C58.818,81.888 69.853,69.425 79.861,51.149Z" style="fill:rgb(67,67,67);stroke:black;stroke-width:1.5px;"/>
            </g>
            <g transform="matrix(0.537787,0.393992,-0.458018,0.625181,27.2653,-45.5889)">
                <path d="M101.774,71.505C100.707,69.557 92.752,70.493 91.764,72.42C90.2,75.471 89.489,88.868 91.263,91.832C93.038,94.795 98.748,95.256 100.522,92.292C102.297,89.328 103.425,74.521 101.774,71.505Z" style="fill:rgb(66,66,66);"/>
                <clipPath id="_clip26">
                    <path d="M101.774,71.505C100.707,69.557 92.752,70.493 91.764,72.42C90.2,75.471 89.489,88.868 91.263,91.832C93.038,94.795 98.748,95.256 100.522,92.292C102.297,89.328 103.425,74.521 101.774,71.505Z"/>
                </clipPath>
                <g clip-path="url(#_clip26)">
                    <g transform="matrix(0.756147,-0.562923,0.654402,0.650445,-17.7201,93.4081)">
                        <path d="M114.815,56.295L109.287,51.591C100.739,63.842 91.868,72.182 82.744,77.477L89.293,82.757L114.815,56.295Z" style="fill-opacity:0.38;"/>
                    </g>
                    <g transform="matrix(0.745214,-0.57361,0.666826,0.64104,1.56889,71.7472)">
                        <path d="M67.867,63.259L54.485,77.151" style="fill:none;stroke:rgb(181,181,181);stroke-width:1.5px;"/>
                    </g>
                </g>
                <path d="M101.774,71.505C100.707,69.557 92.752,70.493 91.764,72.42C90.2,75.471 89.489,88.868 91.263,91.832C93.038,94.795 98.748,95.256 100.522,92.292C102.297,89.328 103.425,74.521 101.774,71.505Z" style="fill:none;stroke:black;stroke-width:1.38px;"/>
            </g>
        </g>
        <g transform="matrix(0.825036,-0.0750114,0.0749358,0.824205,-212.092,8.40385)">
            <path d="M266.955,18.079L268.841,23.882L274.943,23.882L270.681,27.298L271.892,33.273L267.195,30.196L262.018,33.273L263.338,28.086L258.967,23.882L264.418,23.508L266.955,18.079Z" style="fill:rgb(240,255,0);stroke:black;stroke-width:1.21px;"/>
        </g>
    </g>
    <g transform="matrix(-1.5,0,0,1.5,240.366,8.63839)">
        <g transform="matrix(-0.501891,0.0354245,0.035782,0.506956,65.3532,29.6272)">
            <path d="M69.976,138.334L64.403,131.442L56.31,138.039C56.31,138.039 62.923,156.426 65.208,159.841C66.132,161.223 69.66,160.156 70.02,158.534C70.814,154.949 68.908,142.565 69.976,138.334Z" style="fill:rgb(249,47,64);"/>
            <clipPath id="_clip27">
                <path d="M69.976,138.334L64.403,131.442L56.31,138.039C56.31,138.039 62.923,156.426 65.208,159.841C66.132,161.223 69.66,160.156 70.02,158.534C70.814,154.949 68.908,142.565 69.976,138.334Z"/>
            </clipPath>
            <g clip-path="url(#_clip27)">
                <g transform="matrix(1.14666,0,0,1.22095,-48.9724,-32.3049)">
                    <path d="M92.535,136.033L82.296,144.346L91.407,160.923L101.697,159L92.535,136.033Z" style="fill:white;"/>
                </g>
            </g>
            <path d="M69.976,138.334L64.403,131.442L56.31,138.039C56.31,138.039 62.923,156.426 65.208,159.841C66.132,161.223 69.66,160.156 70.02,158.534C70.814,154.949 68.908,142.565 69.976,138.334Z" style="fill:none;stroke:black;stroke-width:1.98px;"/>
        </g>
        <g transform="matrix(0.563637,-0.142613,0.133935,0.52934,-10.9381,27.8427)">
            <path d="M69.976,138.334L64.403,131.442L56.31,138.039C56.31,138.039 62.923,156.426 65.208,159.841C66.132,161.223 69.66,160.156 70.02,158.534C70.814,154.949 68.908,142.565 69.976,138.334Z" style="fill:rgb(249,47,64);"/>
            <clipPath id="_clip28">
                <path d="M69.976,138.334L64.403,131.442L56.31,138.039C56.31,138.039 62.923,156.426 65.208,159.841C66.132,161.223 69.66,160.156 70.02,158.534C70.814,154.949 68.908,142.565 69.976,138.334Z"/>
            </clipPath>
            <g clip-path="url(#_clip28)">
                <g transform="matrix(1.14666,0,0,1.22095,-48.9724,-32.3049)">
                    <path d="M92.535,136.033L82.296,144.346L91.407,160.923L101.697,159L92.535,136.033Z" style="fill:white;"/>
                </g>
            </g>
            <path d="M69.976,138.334L64.403,131.442L56.31,138.039C56.31,138.039 62.923,156.426 65.208,159.841C66.132,161.223 69.66,160.156 70.02,158.534C70.814,154.949 68.908,142.565 69.976,138.334Z" style="fill:none;stroke:black;stroke-width:1.77px;"/>
        </g>
        <path d="M48.555,27.91C51.463,18.212 48.815,13.595 43.662,12.867C38.606,12.152 37.242,18.812 38.995,25.506C39.182,26.218 40.269,26.251 40.265,28.247L36.154,27.915L33.911,23.858L38.4,7.324L38.407,4.974L41.116,4.343L41.903,1.611C41.903,1.611 42.168,-2.359 41.581,-3.155C40.995,-3.951 39.074,-3.978 38.384,-3.166C37.596,-2.239 36.853,2.41 36.853,2.41C36.853,2.41 33.73,10.54 31.01,16.822C30.004,19.146 28.701,26.39 28.701,26.39C28.79,30.414 32.871,32.188 36.899,30.832C36.186,32.452 51.263,38.187 51.412,33.969C51.517,30.994 47.807,30.406 48.555,27.91Z" style="fill:rgb(231,173,164);"/>
        <clipPath id="_clip29">
            <path d="M48.555,27.91C51.463,18.212 48.815,13.595 43.662,12.867C38.606,12.152 37.242,18.812 38.995,25.506C39.182,26.218 40.269,26.251 40.265,28.247L36.154,27.915L33.911,23.858L38.4,7.324L38.407,4.974L41.116,4.343L41.903,1.611C41.903,1.611 42.168,-2.359 41.581,-3.155C40.995,-3.951 39.074,-3.978 38.384,-3.166C37.596,-2.239 36.853,2.41 36.853,2.41C36.853,2.41 33.73,10.54 31.01,16.822C30.004,19.146 28.701,26.39 28.701,26.39C28.79,30.414 32.871,32.188 36.899,30.832C36.186,32.452 51.263,38.187 51.412,33.969C51.517,30.994 47.807,30.406 48.555,27.91Z"/>
        </clipPath>
        <g clip-path="url(#_clip29)">
            <path d="M46.38,7.942L40.711,9.583C37.276,10.547 34.305,15.785 32.749,26.07L35.321,31.274L41.017,31.444C39.096,20.584 41.909,13.587 46.38,7.942Z" style="fill-opacity:0.14;"/>
        </g>
        <path d="M48.555,27.91C51.463,18.212 48.815,13.595 43.662,12.867C38.606,12.152 37.242,18.812 38.995,25.506C39.182,26.218 40.269,26.251 40.265,28.247L36.154,27.915L33.911,23.858L38.4,7.324L38.407,4.974L41.116,4.343L41.903,1.611C41.903,1.611 42.168,-2.359 41.581,-3.155C40.995,-3.951 39.074,-3.978 38.384,-3.166C37.596,-2.239 36.853,2.41 36.853,2.41C36.853,2.41 33.73,10.54 31.01,16.822C30.004,19.146 28.701,26.39 28.701,26.39C28.79,30.414 32.871,32.188 36.899,30.832C36.186,32.452 51.263,38.187 51.412,33.969C51.517,30.994 47.807,30.406 48.555,27.91Z" style="fill:none;stroke:black;stroke-width:1px;"/>
        <g transform="matrix(0.997205,-0.074713,0.074713,0.997205,-2.35958,2.94768)">
            <g transform="matrix(1,0,0,1,-49.0654,-0.0126953)">
                <path d="M101.431,15.294C98.427,7.197 94.127,9.397 89.912,13.063L87.99,21.502C91.23,24.048 95.049,25.647 100.596,24.417L101.431,15.294Z" style="fill:rgb(21,182,0);"/>
                <clipPath id="_clip30">
                    <path d="M101.431,15.294C98.427,7.197 94.127,9.397 89.912,13.063L87.99,21.502C91.23,24.048 95.049,25.647 100.596,24.417L101.431,15.294Z"/>
                </clipPath>
                <g clip-path="url(#_clip30)">
                    <g transform="matrix(0.997205,0.074713,-0.074713,0.997205,51.6386,-2.75045)">
                        <path d="M45.23,7.616L40.711,9.583C37.276,10.547 35.09,17.701 33.535,27.986L35.321,31.274L41.017,31.444C39.096,20.584 40.759,13.26 45.23,7.616Z" style="fill-opacity:0.14;"/>
                    </g>
                </g>
                <path d="M101.431,15.294C98.427,7.197 94.127,9.397 89.912,13.063L87.99,21.502C91.23,24.048 95.049,25.647 100.596,24.417L101.431,15.294Z" style="fill:none;stroke:black;stroke-width:1px;"/>
            </g>
            <g transform="matrix(1,0,0,1,-49.0654,-0.0126953)">
                <path d="M101.121,20.96C96.164,21.538 92.136,20.367 88.565,18.336L87.99,21.502C91.23,24.048 95.049,25.647 100.596,24.417L101.121,20.96Z" style="fill:rgb(22,194,0);"/>
                <clipPath id="_clip31">
                    <path d="M101.121,20.96C96.164,21.538 92.136,20.367 88.565,18.336L87.99,21.502C91.23,24.048 95.049,25.647 100.596,24.417L101.121,20.96Z"/>
                </clipPath>
                <g clip-path="url(#_clip31)">
                    <g transform="matrix(0.997205,0.074713,-0.074713,0.997205,-46.1858,-10.0797)">
                        <path d="M137.818,17.95L133.123,17.185L133.68,21.679L137.041,24.092L137.818,17.95Z" style="fill-opacity:0.14;"/>
                    </g>
                </g>
                <path d="M101.121,20.96C96.164,21.538 92.136,20.367 88.565,18.336L87.99,21.502C91.23,24.048 95.049,25.647 100.596,24.417L101.121,20.96Z" style="fill:none;stroke:black;stroke-width:1px;"/>
            </g>
        </g>
        <path d="M48.631,58.349C49.934,59.88 32.841,57.382 30.017,57.758C30.017,57.758 29.657,62.067 28.298,65.409C26.851,68.967 23.97,75.351 23.54,78.361C23.215,80.642 24.152,83.078 25.39,85.021C27.542,88.399 32.234,101.562 35.337,103.245C37.116,104.21 39.718,100.097 39.718,100.097C33.016,93.046 33.893,82.769 33.893,82.769C37.595,79.117 38.618,72.802 40.468,71.908C42.317,71.014 44.991,77.406 44.991,77.406L42.586,88.463L47.127,93.194C47.105,92.304 49.042,87.587 52.079,81.091L53.815,74.325L52.357,62.898L48.631,58.349Z" style="fill:rgb(50,122,204);"/>
        <clipPath id="_clip32">
            <path d="M48.631,58.349C49.934,59.88 32.841,57.382 30.017,57.758C30.017,57.758 29.657,62.067 28.298,65.409C26.851,68.967 23.97,75.351 23.54,78.361C23.215,80.642 24.152,83.078 25.39,85.021C27.542,88.399 32.234,101.562 35.337,103.245C37.116,104.21 39.718,100.097 39.718,100.097C33.016,93.046 33.893,82.769 33.893,82.769C37.595,79.117 38.618,72.802 40.468,71.908C42.317,71.014 44.991,77.406 44.991,77.406L42.586,88.463L47.127,93.194C47.105,92.304 49.042,87.587 52.079,81.091L53.815,74.325L52.357,62.898L48.631,58.349Z"/>
        </clipPath>
        <g clip-path="url(#_clip32)">
            <path d="M39.939,70.374C36.735,71.206 34.944,77.485 32.99,80.199C31.781,81.878 30.238,83.828 31.206,85.656C32.808,88.679 36.571,103.049 39.165,102.894C41.758,102.738 42.574,91.602 44.177,87.748C45.533,84.487 47.261,78.076 46.621,75.517C45.981,72.959 42.66,69.669 39.939,70.374Z" style="fill-opacity:0.14;"/>
            <path d="M31.195,60.464L14.045,47.854L22.055,70.341L21.268,80.423C25.507,79.031 28.527,70.743 31.195,60.464Z" style="fill-opacity:0.2;"/>
            <g transform="matrix(-0.587327,0.0256891,0.0285048,0.6517,133.582,-9.86518)">
                <path d="M175.213,105.556L166.865,108.297C166.865,108.297 168.754,120.832 175.033,118.472C181.568,116.016 175.213,105.556 175.213,105.556Z" style="fill:rgb(81,149,225);stroke:black;stroke-width:1.61px;"/>
            </g>
        </g>
        <path d="M48.631,58.349C49.934,59.88 32.841,57.382 30.017,57.758C30.017,57.758 29.657,62.067 28.298,65.409C26.851,68.967 23.97,75.351 23.54,78.361C23.215,80.642 24.152,83.078 25.39,85.021C27.542,88.399 32.234,101.562 35.337,103.245C37.116,104.21 39.718,100.097 39.718,100.097C33.016,93.046 33.893,82.769 33.893,82.769C37.595,79.117 38.618,72.802 40.468,71.908C42.317,71.014 44.991,77.406 44.991,77.406L42.586,88.463L47.127,93.194C47.105,92.304 49.042,87.587 52.079,81.091L53.815,74.325L52.357,62.898L48.631,58.349Z" style="fill:none;stroke:black;stroke-width:1px;"/>
        <path d="M49.236,25.508C47.03,28.912 39.641,29.077 38.763,25.574L36.154,27.915L35.233,24.54C33.307,27.056 33.031,29.483 29.662,30.869C31.917,34.795 31.837,34.758 33.749,35.502C33.035,37.121 30.474,49.724 28.755,61.421C28.755,61.421 32.837,59.363 34.602,59.229C36.245,59.103 39.346,60.612 39.346,60.612C39.346,60.612 52.574,64.248 51.98,62.547C51.377,60.82 50.112,56.936 50.242,51.392C50.341,47.183 54.119,37.946 54.268,33.728C54.319,32.287 53.521,28.553 52.448,27.666C51.307,26.722 49.883,27.632 49.236,25.508Z" style="fill:rgb(255,108,5);"/>
        <clipPath id="_clip33">
            <path d="M49.236,25.508C47.03,28.912 39.641,29.077 38.763,25.574L36.154,27.915L35.233,24.54C33.307,27.056 33.031,29.483 29.662,30.869C31.917,34.795 31.837,34.758 33.749,35.502C33.035,37.121 30.474,49.724 28.755,61.421C28.755,61.421 32.837,59.363 34.602,59.229C36.245,59.103 39.346,60.612 39.346,60.612C39.346,60.612 52.574,64.248 51.98,62.547C51.377,60.82 50.112,56.936 50.242,51.392C50.341,47.183 54.119,37.946 54.268,33.728C54.319,32.287 53.521,28.553 52.448,27.666C51.307,26.722 49.883,27.632 49.236,25.508Z"/>
        </clipPath>
        <g clip-path="url(#_clip33)">
            <path d="M35.482,34.183C32.27,34.642 29.219,32.248 26.306,27.435C21.39,37.852 19.414,62.667 21.719,68.721L30.377,63.325L35.482,34.183Z" style="fill-opacity:0.13;"/>
        </g>
        <path d="M49.236,25.508C47.03,28.912 39.641,29.077 38.763,25.574L36.154,27.915L35.233,24.54C33.307,27.056 33.031,29.483 29.662,30.869C31.917,34.795 31.837,34.758 33.749,35.502C33.035,37.121 30.474,49.724 28.755,61.421C28.755,61.421 32.837,59.363 34.602,59.229C36.245,59.103 39.346,60.612 39.346,60.612C39.346,60.612 52.574,64.248 51.98,62.547C51.377,60.82 50.112,56.936 50.242,51.392C50.341,47.183 54.119,37.946 54.268,33.728C54.319,32.287 53.521,28.553 52.448,27.666C51.307,26.722 49.883,27.632 49.236,25.508Z" style="fill:none;stroke:black;stroke-width:1px;"/>
        <g transform="matrix(-1,0,0,1,89.2811,0.113467)">
            <g transform="matrix(0.666667,0,0,0.666667,0,-4)">
                <path d="M78.985,46.459L76.375,44.563C68.653,64.035 65.319,72.947 57.711,85.347C56.232,87.757 56.216,89.98 57.063,92.093C70.751,74.008 71.363,66.442 78.985,46.459Z" style="fill:rgb(67,67,67);stroke:black;stroke-width:1.5px;"/>
            </g>
            <g transform="matrix(0.603879,0.282444,-0.328343,0.702014,13.1295,-41.0729)">
                <path d="M101.628,72.103C100.561,70.155 92.752,70.493 91.764,72.42C90.2,75.471 90.635,89.537 92.41,92.501C94.184,95.465 97.9,96.341 99.674,93.377C101.449,90.413 103.279,75.119 101.628,72.103Z" style="fill:rgb(66,66,66);"/>
                <clipPath id="_clip34">
                    <path d="M101.628,72.103C100.561,70.155 92.752,70.493 91.764,72.42C90.2,75.471 90.635,89.537 92.41,92.501C94.184,95.465 97.9,96.341 99.674,93.377C101.449,90.413 103.279,75.119 101.628,72.103Z"/>
                </clipPath>
                <g clip-path="url(#_clip34)">
                    <g transform="matrix(0.756147,-0.562923,0.654402,0.650445,-17.7201,93.4081)">
                        <path d="M114.815,56.295L109.287,51.591C100.739,63.842 91.868,72.182 82.744,77.477L89.293,82.757L114.815,56.295Z" style="fill-opacity:0.38;"/>
                    </g>
                    <g transform="matrix(0.756147,-0.562923,0.654402,0.650445,1.78612,70.3987)">
                        <path d="M67.867,63.259L54.485,77.151" style="fill:none;stroke:rgb(181,181,181);stroke-width:1.5px;"/>
                    </g>
                </g>
                <path d="M101.628,72.103C100.561,70.155 92.752,70.493 91.764,72.42C90.2,75.471 90.635,89.537 92.41,92.501C94.184,95.465 97.9,96.341 99.674,93.377C101.449,90.413 103.279,75.119 101.628,72.103Z" style="fill:none;stroke:black;stroke-width:1.38px;"/>
            </g>
        </g>
    </g>
    <g transform="matrix(1.5,0,0,1.5,0,6)">
        <g transform="matrix(0.581399,0,0,0.546021,5.78503,12.3289)">
            <path d="M69.976,138.334L64.403,131.442L56.31,138.039C56.31,138.039 62.923,156.426 65.208,159.841C66.132,161.223 69.66,160.156 70.02,158.534C70.814,154.949 68.908,142.565 69.976,138.334Z" style="fill:rgb(249,47,64);"/>
            <clipPath id="_clip35">
                <path d="M69.976,138.334L64.403,131.442L56.31,138.039C56.31,138.039 62.923,156.426 65.208,159.841C66.132,161.223 69.66,160.156 70.02,158.534C70.814,154.949 68.908,142.565 69.976,138.334Z"/>
            </clipPath>
            <g clip-path="url(#_clip35)">
                <g transform="matrix(1.14666,0,0,1.22095,-48.9724,-32.3049)">
                    <path d="M92.535,136.033L82.296,144.346L91.407,160.923L101.697,159L92.535,136.033Z" style="fill:white;"/>
                </g>
            </g>
            <path d="M69.976,138.334L64.403,131.442L56.31,138.039C56.31,138.039 62.923,156.426 65.208,159.841C66.132,161.223 69.66,160.156 70.02,158.534C70.814,154.949 68.908,142.565 69.976,138.334Z" style="fill:none;stroke:black;stroke-width:1.77px;"/>
        </g>
        <g transform="matrix(-0.581399,0,0,0.546021,74.3367,24.606)">
            <path d="M69.976,138.334L64.403,131.442L56.31,138.039C56.31,138.039 62.923,156.426 65.208,159.841C66.132,161.223 69.66,160.156 70.02,158.534C70.814,154.949 68.908,142.565 69.976,138.334Z" style="fill:rgb(249,47,64);"/>
            <clipPath id="_clip36">
                <path d="M69.976,138.334L64.403,131.442L56.31,138.039C56.31,138.039 62.923,156.426 65.208,159.841C66.132,161.223 69.66,160.156 70.02,158.534C70.814,154.949 68.908,142.565 69.976,138.334Z"/>
            </clipPath>
            <g clip-path="url(#_clip36)">
                <g transform="matrix(1.14666,0,0,1.22095,-48.9724,-32.3049)">
                    <path d="M92.535,136.033L82.296,144.346L91.407,160.923L101.697,159L92.535,136.033Z" style="fill:white;"/>
                </g>
            </g>
            <path d="M69.976,138.334L64.403,131.442L56.31,138.039C56.31,138.039 62.923,156.426 65.208,159.841C66.132,161.223 69.66,160.156 70.02,158.534C70.814,154.949 68.908,142.565 69.976,138.334Z" style="fill:none;stroke:black;stroke-width:1.77px;"/>
        </g>
        <path d="M48.394,27.91C54.43,19.874 52.315,11.442 47.162,10.714C41.568,9.923 39.199,18.877 40.094,26.517L36.154,27.915L35.233,24.54L39.165,13.932L39.172,11.582L41.881,10.951L42.668,8.219C42.668,8.219 42.933,4.249 42.346,3.453C41.76,2.657 39.839,2.63 39.149,3.442C38.361,4.369 37.618,9.018 37.618,9.018C37.618,9.018 33.641,14.809 30.921,21.091C29.915,23.416 29.339,28.828 29.339,28.828C29.429,32.853 32.871,32.188 36.899,30.832C36.186,32.452 51.263,38.187 51.412,33.969C51.517,30.994 47.646,30.406 48.394,27.91Z" style="fill:rgb(231,173,164);"/>
        <clipPath id="_clip37">
            <path d="M48.394,27.91C54.43,19.874 52.315,11.442 47.162,10.714C41.568,9.923 39.199,18.877 40.094,26.517L36.154,27.915L35.233,24.54L39.165,13.932L39.172,11.582L41.881,10.951L42.668,8.219C42.668,8.219 42.933,4.249 42.346,3.453C41.76,2.657 39.839,2.63 39.149,3.442C38.361,4.369 37.618,9.018 37.618,9.018C37.618,9.018 33.641,14.809 30.921,21.091C29.915,23.416 29.339,28.828 29.339,28.828C29.429,32.853 32.871,32.188 36.899,30.832C36.186,32.452 51.263,38.187 51.412,33.969C51.517,30.994 47.646,30.406 48.394,27.91Z"/>
        </clipPath>
        <g clip-path="url(#_clip37)">
            <path d="M46.38,7.942L40.711,9.583C37.276,10.547 35.09,17.701 33.535,27.986L35.321,31.274L46.38,7.942Z" style="fill-opacity:0.14;"/>
        </g>
        <path d="M48.394,27.91C54.43,19.874 52.315,11.442 47.162,10.714C41.568,9.923 39.199,18.877 40.094,26.517L36.154,27.915L35.233,24.54L39.165,13.932L39.172,11.582L41.881,10.951L42.668,8.219C42.668,8.219 42.933,4.249 42.346,3.453C41.76,2.657 39.839,2.63 39.149,3.442C38.361,4.369 37.618,9.018 37.618,9.018C37.618,9.018 33.641,14.809 30.921,21.091C29.915,23.416 29.339,28.828 29.339,28.828C29.429,32.853 32.871,32.188 36.899,30.832C36.186,32.452 51.263,38.187 51.412,33.969C51.517,30.994 47.646,30.406 48.394,27.91Z" style="fill:none;stroke:black;stroke-width:1px;"/>
        <path d="M48.631,58.349C49.934,59.88 32.841,57.382 30.017,57.758C30.017,57.758 27.12,64.365 25.761,67.707C24.314,71.265 21.765,76.096 21.335,79.106C21.01,81.387 21.947,83.823 23.185,85.767C25.337,89.145 30.109,98.196 33.212,99.879C33.201,102.552 37.593,96.731 37.593,96.731C30.891,89.68 29.951,85.306 29.951,85.306C33.653,81.654 36.69,78.645 40.473,74.652L44.991,77.406L42.286,83.97L46.828,88.7L52.079,81.091L55.218,72.842L52.357,62.898L48.631,58.349Z" style="fill:rgb(50,122,204);"/>
        <clipPath id="_clip38">
            <path d="M48.631,58.349C49.934,59.88 32.841,57.382 30.017,57.758C30.017,57.758 27.12,64.365 25.761,67.707C24.314,71.265 21.765,76.096 21.335,79.106C21.01,81.387 21.947,83.823 23.185,85.767C25.337,89.145 30.109,98.196 33.212,99.879C33.201,102.552 37.593,96.731 37.593,96.731C30.891,89.68 29.951,85.306 29.951,85.306C33.653,81.654 36.69,78.645 40.473,74.652L44.991,77.406L42.286,83.97L46.828,88.7L52.079,81.091L55.218,72.842L52.357,62.898L48.631,58.349Z"/>
        </clipPath>
        <g clip-path="url(#_clip38)">
            <path d="M39.939,70.374C36.735,71.206 29.348,77.792 27.394,80.505C26.186,82.184 27.248,84.829 28.216,86.657C29.817,89.68 34.408,98.799 37.002,98.644C39.595,98.488 42.174,89.578 43.777,85.724C45.133,82.463 47.261,78.076 46.621,75.517C45.981,72.959 42.66,69.669 39.939,70.374Z" style="fill-opacity:0.14;"/>
            <path d="M50.755,51.899L46.772,58.915C52.424,66.334 54.331,73.753 54.782,81.403L59.904,78.955L50.755,51.899Z" style="fill-opacity:0.2;"/>
            <g transform="matrix(0.666667,0,0,0.666667,11.4583,-5.77083)">
                <path d="M56.592,103.601L48.244,106.342C48.244,106.342 50.132,118.877 56.412,116.517C62.947,114.061 56.592,103.601 56.592,103.601Z" style="fill:rgb(81,149,225);stroke:black;stroke-width:1.5px;"/>
            </g>
        </g>
        <path d="M48.631,58.349C49.934,59.88 32.841,57.382 30.017,57.758C30.017,57.758 27.12,64.365 25.761,67.707C24.314,71.265 21.765,76.096 21.335,79.106C21.01,81.387 21.947,83.823 23.185,85.767C25.337,89.145 30.109,98.196 33.212,99.879C33.201,102.552 37.593,96.731 37.593,96.731C30.891,89.68 29.951,85.306 29.951,85.306C33.653,81.654 36.69,78.645 40.473,74.652L44.991,77.406L42.286,83.97L46.828,88.7L52.079,81.091L55.218,72.842L52.357,62.898L48.631,58.349Z" style="fill:none;stroke:black;stroke-width:1px;"/>
        <path d="M49.22,26.485C47.014,29.889 40.727,28.122 39.848,24.619L36.154,27.915L35.233,24.54C33.307,27.056 31.17,29.409 27.801,30.794C30.055,34.721 31.837,34.758 33.749,35.502C33.035,37.121 30.48,47.995 28.761,59.692L33.221,61.319L39.344,62.792C39.344,62.792 50.453,61.696 49.86,59.995C49.257,58.268 48.102,54.099 48.57,52.053C49.51,47.95 54.119,37.946 54.268,33.728C54.373,30.752 50.474,30.604 49.22,26.485Z" style="fill:rgb(255,108,5);"/>
        <clipPath id="_clip39">
            <path d="M49.22,26.485C47.014,29.889 40.727,28.122 39.848,24.619L36.154,27.915L35.233,24.54C33.307,27.056 31.17,29.409 27.801,30.794C30.055,34.721 31.837,34.758 33.749,35.502C33.035,37.121 30.48,47.995 28.761,59.692L33.221,61.319L39.344,62.792C39.344,62.792 50.453,61.696 49.86,59.995C49.257,58.268 48.102,54.099 48.57,52.053C49.51,47.95 54.119,37.946 54.268,33.728C54.373,30.752 50.474,30.604 49.22,26.485Z"/>
        </clipPath>
        <g clip-path="url(#_clip39)">
            <path d="M58.043,34.544L48.794,41.229C43.878,51.645 44.572,56.648 46.877,62.703L56.505,55.657L58.043,34.544Z" style="fill-opacity:0.13;"/>
        </g>
        <path d="M49.22,26.485C47.014,29.889 40.727,28.122 39.848,24.619L36.154,27.915L35.233,24.54C33.307,27.056 31.17,29.409 27.801,30.794C30.055,34.721 31.837,34.758 33.749,35.502C33.035,37.121 30.48,47.995 28.761,59.692L33.221,61.319L39.344,62.792C39.344,62.792 50.453,61.696 49.86,59.995C49.257,58.268 48.102,54.099 48.57,52.053C49.51,47.95 54.119,37.946 54.268,33.728C54.373,30.752 50.474,30.604 49.22,26.485Z" style="fill:none;stroke:black;stroke-width:1px;"/>
        <g>
            <g transform="matrix(1,0,0,1,-49.0654,-0.0126953)">
                <path d="M101.431,15.294C98.427,7.197 94.127,9.397 89.912,13.063L87.99,21.502C91.23,24.048 95.049,25.647 100.596,24.417L101.431,15.294Z" style="fill:rgb(21,182,0);"/>
                <clipPath id="_clip40">
                    <path d="M101.431,15.294C98.427,7.197 94.127,9.397 89.912,13.063L87.99,21.502C91.23,24.048 95.049,25.647 100.596,24.417L101.431,15.294Z"/>
                </clipPath>
                <g clip-path="url(#_clip40)">
                    <g transform="matrix(-1,0,0,1,209.309,1.77162)">
                        <path d="M116.485,2.741L110.815,4.382C107.381,5.346 105.194,12.5 103.639,22.785L105.425,26.073L111.122,26.243C109.2,15.383 112.014,8.386 116.485,2.741Z" style="fill-opacity:0.14;"/>
                    </g>
                </g>
                <path d="M101.431,15.294C98.427,7.197 94.127,9.397 89.912,13.063L87.99,21.502C91.23,24.048 95.049,25.647 100.596,24.417L101.431,15.294Z" style="fill:none;stroke:black;stroke-width:1px;"/>
            </g>
            <g transform="matrix(1,0,0,1,-49.0654,-0.0126953)">
                <path d="M101.121,20.96C96.164,21.538 92.136,20.367 88.565,18.336L87.99,21.502C91.23,24.048 95.049,25.647 100.596,24.417L101.121,20.96Z" style="fill:rgb(22,194,0);"/>
                <clipPath id="_clip41">
                    <path d="M101.121,20.96C96.164,21.538 92.136,20.367 88.565,18.336L87.99,21.502C91.23,24.048 95.049,25.647 100.596,24.417L101.121,20.96Z"/>
                </clipPath>
                <g clip-path="url(#_clip41)">
                    <g transform="matrix(-1,0,0,1,209.309,1.77162)">
                        <path d="M109.945,18.503L105.542,19.257L105.848,41.119L110.411,26.246L109.945,18.503Z" style="fill-opacity:0.14;"/>
                    </g>
                </g>
                <path d="M101.121,20.96C96.164,21.538 92.136,20.367 88.565,18.336L87.99,21.502C91.23,24.048 95.049,25.647 100.596,24.417L101.121,20.96Z" style="fill:none;stroke:black;stroke-width:1px;"/>
            </g>
        </g>
        <g>
            <g transform="matrix(0.666667,0,0,0.666667,0,-4)">
                <path d="M79.595,51.974L75.919,49.054C61.881,73.38 54.547,78.481 44.741,83.335C43.263,85.745 43.246,87.968 44.093,90.081C58.003,82.367 69.588,70.25 79.595,51.974Z" style="fill:rgb(67,67,67);stroke:black;stroke-width:1.5px;"/>
            </g>
            <g transform="matrix(0.504098,0.436268,-0.507164,0.586017,34.8033,-46.0341)">
                <path d="M101.774,71.505C100.707,69.557 92.752,70.493 91.764,72.42C90.2,75.471 89.489,88.868 91.263,91.832C93.038,94.795 98.748,95.256 100.522,92.292C102.297,89.328 103.425,74.521 101.774,71.505Z" style="fill:rgb(66,66,66);"/>
                <clipPath id="_clip42">
                    <path d="M101.774,71.505C100.707,69.557 92.752,70.493 91.764,72.42C90.2,75.471 89.489,88.868 91.263,91.832C93.038,94.795 98.748,95.256 100.522,92.292C102.297,89.328 103.425,74.521 101.774,71.505Z"/>
                </clipPath>
                <g clip-path="url(#_clip42)">
                    <g transform="matrix(0.756147,-0.562923,0.654402,0.650445,-17.7201,93.4081)">
                        <path d="M114.815,56.295L109.287,51.591C100.739,63.842 91.868,72.182 82.744,77.477L89.293,82.757L114.815,56.295Z" style="fill-opacity:0.38;"/>
                    </g>
                </g>
                <path d="M101.774,71.505C100.707,69.557 92.752,70.493 91.764,72.42C90.2,75.471 89.489,88.868 91.263,91.832C93.038,94.795 98.748,95.256 100.522,92.292C102.297,89.328 103.425,74.521 101.774,71.505Z" style="fill:none;stroke:black;stroke-width:1.38px;"/>
            </g>
            <g transform="matrix(0.666667,0,0,0.666667,0,-4)">
                <path d="M67.867,63.259L54.485,77.151" style="fill:none;stroke:rgb(181,181,181);stroke-width:1.5px;"/>
            </g>
        </g>
    </g>
</svg>
