<?xml version="1.0" encoding="utf-8" ?>
<svg xmlns="http://www.w3.org/2000/svg" xmlns:xlink="http://www.w3.org/1999/xlink" width="80" height="80">
	<path fill="#F491A6" transform="scale(0.078125 0.078125)" d="M557.129 228.58C560.163 228.413 562.694 228.336 565.62 229.378C569.214 230.658 572.167 233.25 573.787 236.721C575.488 240.366 575.656 244.813 574.127 248.549C572.244 253.151 568.683 255.376 564.361 257.298C561.239 258.089 558.996 258.242 555.906 257.152C552.148 255.827 549.178 252.811 547.48 249.25C545.792 245.71 546.079 240.483 547.507 236.907C549.312 232.388 552.967 230.449 557.129 228.58Z"/>
	<path fill="#F491A6" transform="scale(0.078125 0.078125)" d="M226.446 592.605C228.989 592.838 231.504 593.325 233.803 594.48C237.502 596.338 240.375 599.519 241.645 603.477C242.966 607.593 242.523 612.5 240.433 616.316C237.878 620.983 233.985 623.252 229.011 624.606C225.467 624.619 221.842 624.084 218.793 622.137C215.361 619.945 213.015 616.496 212.221 612.509C211.346 608.117 212.209 602.625 214.807 598.951C217.687 594.879 221.759 593.517 226.446 592.605Z"/>
	<path fill="#F491A6" transform="scale(0.078125 0.078125)" d="M277.302 461.533C279.757 461.455 282.421 461.191 284.75 462.103C289.687 464.036 293.109 467.788 295.044 472.679C296.694 476.849 296.745 480.869 294.853 484.971C292.324 490.453 287.981 493.154 282.539 495.226L282.085 495.266C278.918 495.593 276.419 495.407 273.448 494.154C269.355 492.43 266.014 488.936 264.451 484.779C262.755 480.268 263.023 475.087 265.128 470.75C267.709 465.43 272.009 463.297 277.302 461.533Z"/>
	<path fill="#8EBF56" transform="scale(0.078125 0.078125)" d="M330.507 292.567L333.479 286.657C351.654 251.79 387.304 226.146 422.808 211.017C429.356 208.227 435.997 205.374 442.791 203.238C441.694 205.582 437.473 206.983 435.217 208.446L404.511 228.755C403.178 229.695 398.256 232.764 397.814 234.159C371.805 250.495 348.98 270.062 330.654 294.829C330.17 294 330.419 293.499 330.507 292.567Z"/>
	<path fill="#8EBF56" transform="scale(0.078125 0.078125)" d="M352.487 144.677C352.728 145.292 352.992 145.523 352.768 146.165C348.159 159.383 344.743 173.59 341.196 187.149C335.352 209.49 329.62 231.532 326.198 254.405L324.148 270.5C323.967 272.449 324.264 275.864 323.148 277.467L319.703 248.241C317.477 216.754 325.684 187.226 341.936 160.391C345.171 155.051 348.395 149.415 352.487 144.677Z"/>
	<path fill="#8EBF56" transform="scale(0.078125 0.078125)" d="M229.858 197.631L228.516 195.75C230.668 195.389 233.512 196.789 235.619 197.501C250.154 202.412 264.609 209.528 277.115 218.418C300.641 235.144 317.257 260.456 321.938 289.096C322.131 290.274 322.498 291.671 322.477 292.86C322.508 295.849 322.893 299.15 322.581 302.095C317.605 295.024 314.55 286.209 310.169 278.69C299.704 260.729 286.19 245.365 271.154 231.148L271.099 230.726C262.451 222.135 252.844 214.726 243.218 207.29C238.84 203.908 234.795 200.195 229.858 197.631Z"/>
	<path fill="#8EBF56" transform="scale(0.078125 0.078125)" d="M324.46 306.93C332.763 302.217 341.38 299.464 350.455 296.671C358.602 294.163 366.864 291.626 375.312 290.381C389.507 288.29 404.592 289.587 418.413 293.349C440.336 299.316 463.046 309.741 481.25 323.402L481 323.947L478.037 324.015C475.424 322.487 472.19 321.684 469.317 320.768L451.681 315.789C439.618 312.621 427.346 309.357 415.039 307.288C387.234 302.613 358.987 303.173 331.16 307.447C328.892 307.467 326.707 307.199 324.46 306.93Z"/>
	<path fill="#529240" transform="scale(0.078125 0.078125)" d="M229.858 197.631C234.795 200.195 238.84 203.908 243.218 207.29C252.844 214.726 262.451 222.135 271.099 230.726L271.154 231.148L270.686 231.974C274.63 238.385 280.282 243.771 285.028 249.613C297.755 265.282 310.926 282.328 319.375 300.727C316.505 298.83 312.963 295.936 309.545 295.231L307.849 294.296L286.508 276.074C262.423 253.656 244.356 227.053 229.858 197.631Z"/>
	<path fill="#F491A6" transform="scale(0.078125 0.078125)" d="M781.982 492.564C787.93 492.385 793.395 492.617 798.75 495.524C804.793 498.804 809.285 504.478 811.127 511.111C813.039 517.999 812.273 525.516 808.564 531.666C804.551 538.318 798.422 541.677 791.036 543.432C784.943 544.169 778.801 543.531 773.357 540.514C767.7 537.38 763.303 531.701 761.577 525.5C759.66 518.614 760.21 511.205 763.914 504.997C768.038 498.083 774.352 494.437 781.982 492.564Z"/>
	<path fill="#529240" transform="scale(0.078125 0.078125)" d="M331.16 307.447C358.987 303.173 387.234 302.613 415.039 307.288C427.346 309.357 439.618 312.621 451.681 315.789L469.317 320.768C472.19 321.684 475.424 322.487 478.037 324.015C469.941 325.383 461.568 326.007 453.389 326.648C417.25 329.479 381.581 326.307 346.323 317.934C341.234 313.824 337.239 310.18 331.16 307.447Z"/>
	<path fill="#529240" transform="scale(0.078125 0.078125)" d="M442.791 203.238L450.999 200.128C446.469 207.433 442.561 215.082 437.685 222.176C418.626 249.909 393.613 269.717 363.693 284.728C358.323 287.421 352.725 289.516 347.244 291.956C340.741 294.85 334.337 298.937 327.808 301.53L327.359 301.628L374.421 257.845C381.057 251.637 388.591 245.577 394.697 238.894C396.021 237.444 397.065 235.989 397.814 234.159C398.256 232.764 403.178 229.695 404.511 228.755L435.217 208.446C437.473 206.983 441.694 205.582 442.791 203.238Z"/>
	<path fill="#EE5361" transform="scale(0.078125 0.078125)" d="M661.722 275.47L662.315 275.317C663.231 275.007 663.81 274.606 664.611 274.094C670.878 270.096 677.912 267.555 685 265.44C703.393 259.953 722.264 258.769 741.029 263.005C766.646 268.788 790.673 286.856 804.563 309.03C819.287 332.533 823.633 360.97 817.25 387.959C811.331 412.985 794.995 436.766 773.048 450.312C750.292 464.357 720.043 470.143 693.823 463.911C687.419 462.389 681.062 460.266 675.031 457.63C673.68 457.04 671.72 456.443 670.556 455.57L672.255 452.147C680.168 455.157 688.254 458.369 696.599 459.978C722.973 465.064 751.481 458.425 773.509 443.307C794.518 428.889 808.274 404.675 813.141 380L813.329 379.083C814.502 373.1 814.396 366.524 814.121 360.45C813.327 342.877 809.296 326.253 799.413 311.494C783.573 287.841 760.37 272.256 732.388 267.051C713.113 263.465 690.007 267.603 672.527 276.187C667.688 278.563 663.26 281.55 658.81 284.576C659.444 281.292 660.409 278.534 661.722 275.47Z"/>
	<path fill="#529240" transform="scale(0.078125 0.078125)" d="M352.487 144.677L353.433 143.686C355.514 146.619 355.957 152.22 356.545 155.75C359.878 175.746 360.698 195.432 357.331 215.483C353.956 235.588 345.641 254.753 338.159 273.591C336.475 277.829 334.461 281.786 332.465 285.877C331.46 287.935 330.014 290.294 330.507 292.567C330.419 293.499 330.17 294 330.654 294.829C328.451 297.766 327.015 301.993 323.825 303.828L323.117 303.903L322.581 302.095C322.893 299.15 322.508 295.849 322.477 292.86L324.191 300.469C325.25 298.703 323.4 281.154 323.148 277.467C324.264 275.864 323.967 272.449 324.148 270.5L326.198 254.405C329.62 231.532 335.352 209.49 341.196 187.149C344.743 173.59 348.159 159.383 352.768 146.165C352.992 145.523 352.728 145.292 352.487 144.677Z"/>
	<path fill="#93EBEA" transform="scale(0.078125 0.078125)" d="M478.074 848.881C481.739 846.791 484.898 844.572 487.839 841.54L489.08 850.049L511.223 850.047C509.36 854.552 508.314 859.503 506.939 864.18L497.884 895.717L410.007 895.525L456.63 863.126C458.855 861.947 460.74 860.722 462.742 859.193L468.514 854.935L471.318 853.475L478.074 848.881Z"/>
	<path fill="#FAFAFA" transform="scale(0.078125 0.078125)" d="M363.209 356.977L516.983 357.482L516.892 361.75C514.484 362.893 393.46 362.004 380.417 362.006L328.483 362.017L314.819 362.029L339.592 411.037L490.674 707.169L493.963 715.999L487.01 715.949C485.921 712.332 483.933 708.828 482.258 705.454L473.407 688L445.227 633.383L327.225 401.07L306.363 357.445L363.209 356.977Z"/>
	<path fill="#C30814" transform="scale(0.078125 0.078125)" d="M658.81 284.576C663.26 281.55 667.688 278.563 672.527 276.187C690.007 267.603 713.113 263.465 732.388 267.051C760.37 272.256 783.573 287.841 799.413 311.494C809.296 326.253 813.327 342.877 814.121 360.45C814.396 366.524 814.502 373.1 813.329 379.083L813.141 380C808.274 404.675 794.518 428.889 773.509 443.307C751.481 458.425 722.973 465.064 696.599 459.978C688.254 458.369 680.168 455.157 672.255 452.147L674.499 446.526C674.922 445.472 675.308 444.031 676.151 443.25C676.657 442.781 677.236 443.3 677.805 443.527C685.388 446.552 692.913 449.375 701 450.692C705.81 451.475 710.719 451.672 715.589 451.628C738.635 451.421 762.279 442.749 778.496 426.081C795.704 408.394 804.604 383.834 803.958 359.25C803.352 336.187 792.587 314.616 775.75 299.021C758.839 283.357 736.265 274.852 713.188 275.805C690.678 276.733 668.341 286.795 653.085 303.382L652.634 302.246C653.622 298.303 654.926 294.579 656.616 290.882L658.81 284.576Z"/>
	<path fill="#EA2E39" transform="scale(0.078125 0.078125)" d="M656.616 290.882L657.01 290.706C662.574 288.118 667.453 283.745 673.07 280.984C696.338 269.547 723.159 267.127 747.755 275.75C770.497 283.723 790.476 303.161 800.786 324.75C810.899 345.927 811.198 373.23 803.25 395.081C794.95 417.902 776.966 438.334 754.759 448.501C738.473 455.957 719.028 457.492 701.429 455.174C695.652 454.413 689.642 453.366 684.161 451.309C680.809 450.05 677.855 447.512 674.499 446.526C674.922 445.472 675.308 444.031 676.151 443.25C676.657 442.781 677.236 443.3 677.805 443.527C685.388 446.552 692.913 449.375 701 450.692C705.81 451.475 710.719 451.672 715.589 451.628C738.635 451.421 762.279 442.749 778.496 426.081C795.704 408.394 804.604 383.834 803.958 359.25C803.352 336.187 792.587 314.616 775.75 299.021C758.839 283.357 736.265 274.852 713.188 275.805C690.678 276.733 668.341 286.795 653.085 303.382L652.634 302.246C653.622 298.303 654.926 294.579 656.616 290.882Z"/>
	<path fill="#8EBF56" transform="scale(0.078125 0.078125)" d="M212.495 767.062C226.314 767.655 240.128 770.626 253.729 773.059C280.55 777.856 307.15 784.21 332.966 793.004C350.665 799.034 367.845 806.62 384.728 814.615C411.759 827.417 438.228 842.017 462.742 859.193C460.74 860.722 458.855 861.947 456.63 863.126C453.033 861.049 446.308 860.803 442.128 860.065L418 855.531L388.811 848.804C354.289 839.697 319.535 828.144 287.343 812.613C288.967 808.501 308.541 794.11 313.01 790.858C307.063 792.827 301.418 794.625 295.958 797.8C290.536 800.953 285.983 805.232 281.392 809.451C275.97 807.542 270.703 804.371 265.71 801.539L237.911 784.524C229.301 779.059 219.953 774.073 212.495 767.062Z"/>
	<path fill="#DFD477" transform="scale(0.078125 0.078125)" d="M212.495 767.062L212.16 766.096L212.679 765.701C215.308 763.793 219.661 762.755 222.782 761.703C237.138 756.864 251.628 754.069 266.649 752.246C277.773 750.897 288.863 749.885 300.021 751.503L300.661 751.729C303.691 752.717 308.167 752.441 311.464 753.053C322.425 755.085 334.332 757.525 344.809 761.301C357.64 765.925 369.891 771.526 381.675 778.399C387.892 782.026 394.22 786.925 400.779 789.775C425.562 808.63 448.261 831.28 468.514 854.935L462.742 859.193C438.228 842.017 411.759 827.417 384.728 814.615C367.845 806.62 350.665 799.034 332.966 793.004C307.15 784.21 280.55 777.856 253.729 773.059C240.128 770.626 226.314 767.655 212.495 767.062Z"/>
	<path fill="#0A9078" transform="scale(0.078125 0.078125)" d="M555.487 856.373L599.926 829.658C640.514 807.312 685.921 789.721 731.176 779.557C745.281 776.389 759.372 774.316 773.692 772.391C784.506 770.937 795.541 768.842 806.426 768.188L786.247 782.489L751.898 802.598L742.564 807.857C741.192 808.6 739.643 809.713 738.102 809.976C731.252 800.753 724.128 791.328 715.757 783.424C719.256 794.685 723.91 804.318 729.877 814.466L683.348 835.657C661.418 844.449 638.654 851.482 615.553 856.452L590.049 860.778L576.137 862.112C573.506 862.319 570.338 862.259 567.899 863.25L567.92 864.199L567.864 864.229C563.381 862.07 559.482 859.299 555.487 856.373Z"/>
	<path fill="#3CC399" transform="scale(0.078125 0.078125)" d="M609.068 784.449C612.385 783.331 615.329 781.126 618.306 779.3L633.973 770.228C662.304 755.42 694.311 747.868 726.27 749.962C747.782 750.867 768.307 753.839 788.967 760.029C795.016 761.842 801.176 763.619 806.977 766.128L807.629 767L806.426 768.188C795.541 768.842 784.506 770.937 773.692 772.391C759.372 774.316 745.281 776.389 731.176 779.557C685.921 789.721 640.514 807.312 599.926 829.658L555.487 856.373C551.988 854.246 548.633 852.178 545.818 849.175L546.689 848.428C548.967 847.377 551.085 844.365 552.734 842.472L565.964 826.832C573.803 817.554 582.281 809.069 591.05 800.685C596.859 795.13 602.727 789.385 609.068 784.449Z"/>
	<path fill="#DFD477" transform="scale(0.078125 0.078125)" d="M694.531 685.851C698.474 683.844 702.901 682.412 707.083 680.984C725.505 674.696 745.331 670.05 764.747 668.353C766.764 668.177 770.812 667.393 772.566 668.253L772.05 669.628C770.361 675.82 767.017 681.893 764.075 687.587C757.105 701.079 749.082 714.113 740.898 726.904C736.012 734.54 730.734 742.077 726.27 749.962C694.311 747.868 662.304 755.42 633.973 770.228L618.306 779.3C615.329 781.126 612.385 783.331 609.068 784.449C602.727 789.385 596.859 795.13 591.05 800.685C582.281 809.069 573.803 817.554 565.964 826.832L552.734 842.472C551.085 844.365 548.967 847.377 546.689 848.428C551.958 837.081 558.483 826.641 564.865 815.914C588.689 775.867 616.045 737.852 654.097 710.04C661.221 704.832 668.601 699.629 676.366 695.414C682.18 692.257 688.454 689.761 694.018 686.186L694.531 685.851Z"/>
	<path fill="#8EBF56" transform="scale(0.078125 0.078125)" d="M772.05 669.628C770.361 675.82 767.017 681.893 764.075 687.587C757.105 701.079 749.082 714.113 740.898 726.904C736.012 734.54 730.734 742.077 726.27 749.962C694.311 747.868 662.304 755.42 633.973 770.228L618.306 779.3C615.329 781.126 612.385 783.331 609.068 784.449C613.648 776.203 624.256 768.841 631.336 762.641C665.507 732.717 701.338 705.659 741.392 684.047C751.168 678.772 761.454 673.09 772.05 669.628Z"/>
	<path fill="#13AA91" transform="scale(0.078125 0.078125)" d="M716.592 536.128L719.25 535.125C720.417 536.076 720.347 537.022 720.51 538.5C721.197 544.726 721.006 551.182 721.004 557.444C720.994 593.432 713.427 628.315 701.932 662.284L696.147 678.779C695.422 680.819 693.678 683.952 694.531 685.851L694.018 686.186C688.454 689.761 682.18 692.257 676.366 695.414C668.601 699.629 661.221 704.832 654.097 710.04C616.045 737.852 588.689 775.867 564.865 815.914C558.483 826.641 551.958 837.081 546.689 848.428L545.818 849.175C544.315 848.224 542.411 847.301 541.396 845.814L541.021 843.619L551.495 819.778L576.441 773L606.729 720.289L636 671.798L644.125 658.315C646.07 655.122 648.198 652.062 649.538 648.552L650.093 648.648C654.343 643.611 657.485 637.521 660.873 631.883L676.659 605.649L706.021 557.179C709.816 550.806 715.399 543.894 717.447 536.768L716.592 536.128Z"/>
	<path fill="#61C5C0" transform="scale(0.078125 0.078125)" d="M531.617 715.58C533.128 716.208 534.631 716.917 536.223 717.311C535.903 718.437 535.635 719.579 535.556 720.75C534.916 730.247 535.34 740.046 535.343 749.573L535.407 801.562C535.412 807.664 534.439 839.263 535.881 842.356C536.633 843.968 539.825 844.883 541.396 845.814C542.411 847.301 544.315 848.224 545.818 849.175C548.633 852.178 551.988 854.246 555.487 856.373C559.482 859.299 563.381 862.07 567.864 864.229L567.92 864.199L611.64 895.843L497.884 895.717L506.939 864.18C508.314 859.503 509.36 854.552 511.223 850.047L489.08 850.049L487.839 841.54L487.868 840.853C487.155 837.056 487.636 832.638 487.541 828.75L486.908 813.596L487.01 715.949L493.963 715.999L511.041 715.978L511.241 715.525L531.617 715.58Z"/>
	<path fill="#FAFAFA" transform="scale(0.078125 0.078125)" d="M510.956 838.993L534.932 839.477L535.012 850.009L511.223 850.047L489.08 850.049L487.839 841.54L487.868 840.853C494.472 837.803 503.732 838.984 510.956 838.993Z"/>
	<path fill="#93EBEA" transform="scale(0.078125 0.078125)" d="M487.01 715.949L493.963 715.999L511.041 715.978L510.956 838.993C503.732 838.984 494.472 837.803 487.868 840.853C487.155 837.056 487.636 832.638 487.541 828.75L486.908 813.596L487.01 715.949Z"/>
	<defs>
		<linearGradient id="gradient_0" gradientUnits="userSpaceOnUse" x1="255.57411" y1="300.73419" x2="331.60648" y2="395.2854">
			<stop offset="0" stop-color="#F64B2E"/>
			<stop offset="1" stop-color="#E6253D"/>
		</linearGradient>
	</defs>
	<path fill="url(#gradient_0)" transform="scale(0.078125 0.078125)" d="M327.225 401.07L323.585 403.007C307.483 410.305 289.014 410.196 272.594 404.074C257.135 398.31 245.336 386.708 238.556 371.696C231.327 355.69 232.198 339.039 238.319 322.901C243.133 310.208 253.29 299.342 265.707 293.841C280.029 287.495 293.545 288.77 307.849 294.296L309.545 295.231C311.966 296.893 314.876 298.492 317.064 300.406C318.968 302.072 320.328 304.433 322.25 306.005C322.855 306.5 323.703 306.8 324.46 306.93C326.707 307.199 328.892 307.467 331.16 307.447C337.239 310.18 341.234 313.824 346.323 317.934C353.627 327.59 359.381 336.534 362.04 348.498C362.592 350.98 363.381 354.475 363.209 356.977L306.363 357.445L327.225 401.07Z"/>
	<path fill="#EFBAB6" transform="scale(0.078125 0.078125)" d="M270.72 304.036C272.526 303.96 274.556 303.754 276.25 304.526C278.231 305.429 279.815 307.654 280.537 309.648C282.593 315.326 279.574 322.956 276.997 328.094C273.257 335.55 267.901 341.311 259.828 343.965C258.19 344.189 256.364 344.365 254.792 343.717C252.408 342.733 251.044 339.891 250.147 337.638C248.305 333.01 250.246 327.054 252.069 322.698C255.825 313.722 261.686 307.73 270.72 304.036Z"/>
	<path fill="#529240" transform="scale(0.078125 0.078125)" d="M300.021 751.503C298.856 749.333 296.774 747.225 295.249 745.252L285.692 732.56C275.89 719.05 267.528 704.5 259.516 689.878C256.588 684.534 252.971 678.88 251.097 673.063L252.082 672.516C280.208 671.829 306.846 679.277 333.227 688.202L334.027 688.726C336.897 690.546 340.495 691.564 343.573 693.075C352.998 697.7 362.557 702.697 371.14 708.754C411.821 737.464 438.679 778.326 458.865 823.198C463.332 833.127 468.135 843.05 471.318 853.475L468.514 854.935C448.261 831.28 425.562 808.63 400.779 789.775C394.22 786.925 387.892 782.026 381.675 778.399C369.891 771.526 357.64 765.925 344.809 761.301C334.332 757.525 322.425 755.085 311.464 753.053C308.167 752.441 303.691 752.717 300.661 751.729L300.021 751.503Z"/>
	<path fill="#8EBF56" transform="scale(0.078125 0.078125)" d="M300.021 751.503C298.856 749.333 296.774 747.225 295.249 745.252L285.692 732.56C275.89 719.05 267.528 704.5 259.516 689.878C256.588 684.534 252.971 678.88 251.097 673.063L252.082 672.516C253.831 674.795 257.065 676.022 259.598 677.3L273.721 684.451L286.5 692.013C323.204 715.694 356.496 742.551 387.274 773.537C390.97 777.258 394.737 780.927 398.053 785C399.365 786.611 400.497 787.66 400.779 789.775C394.22 786.925 387.892 782.026 381.675 778.399C369.891 771.526 357.64 765.925 344.809 761.301C334.332 757.525 322.425 755.085 311.464 753.053C308.167 752.441 303.691 752.717 300.661 751.729L300.021 751.503Z"/>
	<path fill="#3CC399" transform="scale(0.078125 0.078125)" d="M716.592 536.128L717.447 536.768C715.399 543.894 709.816 550.806 706.021 557.179L676.659 605.649L660.873 631.883C657.485 637.521 654.343 643.611 650.093 648.648L649.538 648.552C648.198 652.062 646.07 655.122 644.125 658.315L636 671.798L606.729 720.289L576.441 773L551.495 819.778L541.021 843.619C540.447 842.356 540.047 841.11 539.962 839.719C539.589 833.607 540.663 827.298 541.432 821.25L545.36 793.401C550.92 759.753 558.266 726.479 568.596 693.952C578.492 662.788 591.697 629.515 613.536 604.708C621.563 616.684 630.355 627.727 639.553 638.809C641.689 641.382 645.272 646.754 648.192 648.08L648.752 648.254C640.339 630.7 629.22 615.241 617.7 599.643C629.531 587.476 642.269 576.34 656.366 566.841C674.939 554.325 695.786 544.381 716.592 536.128Z"/>
	<path fill="#93EBEA" transform="scale(0.078125 0.078125)" d="M516.983 357.482L608.786 357.482L606.979 363.095L594.497 400L591.531 408.734C591.349 409.32 590.718 410.849 590.82 411.382C582.22 410.498 573.085 411.102 564.434 411.141L516.949 411.446L398.625 411.325L398.142 411.002L352.921 411.182L352.647 411.034L339.592 411.037L314.819 362.029L328.483 362.017L380.417 362.006C393.46 362.004 514.484 362.893 516.892 361.75L516.983 357.482Z"/>
	<path fill="#61C5C0" transform="scale(0.078125 0.078125)" d="M516.949 411.446L517.005 362.461L606.979 363.095L594.497 400L591.531 408.734C591.349 409.32 590.718 410.849 590.82 411.382C582.22 410.498 573.085 411.102 564.434 411.141L516.949 411.446Z"/>
	<path fill="#F491A6" transform="scale(0.078125 0.078125)" d="M608.786 357.482L627.261 303.401L661.99 203.06L672.146 173.542C673.507 169.451 674.499 163.7 676.634 160.052C677.349 158.829 680.613 157.226 681.815 156.512L696.852 147.58L787.328 92.6913L792.405 101.023L797.589 110.466L723.784 155.78L705.198 166.848C702.397 168.506 697.899 170.546 695.838 172.986L661.722 275.47C660.409 278.534 659.444 281.292 658.81 284.576L656.616 290.882C654.926 294.579 653.622 298.303 652.634 302.246L653.085 303.382C648.311 311.687 646.334 321.499 643.188 330.501L636.028 351.148C634.71 354.943 633.12 358.755 632.142 362.648L631.951 363.137L628.077 374.462L615.364 411.002C612.635 415.276 611.225 420.998 609.509 425.775C606.602 433.87 603.723 441.995 599.975 449.746L594.73 452.929C591.186 456.163 587.851 458.671 584.777 462.459L583.946 464.463C583.709 469.078 583.562 473.838 584.425 478.399C585.341 480.199 586.18 482.226 587.438 483.807C581.392 508.183 571.788 532.121 563.672 555.894L525.141 671.007L515.207 701.202C513.844 705.434 511.084 711.085 511.241 715.525L511.041 715.978L493.963 715.999L490.674 707.169C492.461 704.329 492.597 699.425 493.669 696.117L516.716 625.884L590.82 411.382C590.718 410.849 591.349 409.32 591.531 408.734L594.497 400L606.979 363.095L608.786 357.482Z"/>
	<path fill="#EE5361" transform="scale(0.078125 0.078125)" d="M584.425 478.399C581.63 484.394 579.916 491.287 577.775 497.56L563.5 539.731L517.287 676.124L508.82 701.091C507.538 704.943 506.035 712.495 503.5 715.473C502.035 715.52 500.435 715.816 499.165 714.963C500.617 708.071 503.844 700.656 506.144 693.921L519.97 652.5L560.009 535L583.946 464.463C583.709 469.078 583.562 473.838 584.425 478.399Z"/>
	<path fill="#EE5361" transform="scale(0.078125 0.078125)" d="M792.405 101.023L797.589 110.466L723.784 155.78L705.198 166.848C702.397 168.506 697.899 170.546 695.838 172.986L661.722 275.47C660.409 278.534 659.444 281.292 658.81 284.576L656.616 290.882C654.926 294.579 653.622 298.303 652.634 302.246L653.085 303.382C648.311 311.687 646.334 321.499 643.188 330.501L636.028 351.148C634.71 354.943 633.12 358.755 632.142 362.648L631.951 363.137L628.077 374.462L615.364 411.002C612.635 415.276 611.225 420.998 609.509 425.775C606.602 433.87 603.723 441.995 599.975 449.746L594.73 452.929C591.186 456.163 587.851 458.671 584.777 462.459C587.089 453.795 590.96 445.094 594.134 436.678L607.156 400.576L659.322 251.178L684.967 175.827L687.344 168.089C687.55 167.359 687.842 165.415 688.252 164.854C688.54 164.461 690.055 163.741 690.5 163.484L697.816 159.312L762.33 119.693L781.528 107.89C784.872 105.839 788.602 103.957 791.706 101.573L792.405 101.023Z"/>
	<path fill="#F491A6" transform="scale(0.078125 0.078125)" d="M594.73 452.929C595.112 449.131 597.629 444.12 598.948 440.439L611.75 405.029L665.059 249.799L679.935 204.814C682.002 198.561 687.333 178.291 691.408 174.25C692.702 172.967 694.137 173.052 695.838 172.986L661.722 275.47C660.409 278.534 659.444 281.292 658.81 284.576L656.616 290.882C654.926 294.579 653.622 298.303 652.634 302.246L653.085 303.382C648.311 311.687 646.334 321.499 643.188 330.501L636.028 351.148C634.71 354.943 633.12 358.755 632.142 362.648L631.951 363.137L628.077 374.462L615.364 411.002C612.635 415.276 611.225 420.998 609.509 425.775C606.602 433.87 603.723 441.995 599.975 449.746L594.73 452.929Z"/>
	<path fill="#EA2E39" transform="scale(0.078125 0.078125)" d="M666.459 410.977L685.493 411.602L668.682 446.28C670.583 446.337 672.626 446.241 674.499 446.526L672.255 452.147L670.556 455.57C666.936 464.224 662.482 472.606 658.347 481.032L636.055 526L594.908 609.283L577.869 641.112L552.613 689.082C547.478 698.656 542.654 708.529 536.223 717.311C534.631 716.917 533.128 716.208 531.617 715.58L511.241 715.525C511.084 711.085 513.844 705.434 515.207 701.202L525.141 671.007L563.672 555.894C571.788 532.121 581.392 508.183 587.438 483.807C586.18 482.226 585.341 480.199 584.425 478.399C583.562 473.838 583.709 469.078 583.946 464.463L584.777 462.459C587.851 458.671 591.186 456.163 594.73 452.929L599.975 449.746C603.723 441.995 606.602 433.87 609.509 425.775C611.225 420.998 612.635 415.276 615.364 411.002L666.459 410.977ZM668.682 446.28L531.617 715.58C533.128 716.208 534.631 716.917 536.223 717.311C542.654 708.529 547.478 698.656 552.613 689.082L577.869 641.112L594.908 609.283L636.055 526L658.347 481.032C662.482 472.606 666.936 464.224 670.556 455.57L672.255 452.147L674.499 446.526C672.626 446.241 670.583 446.337 668.682 446.28Z"/>
	<path fill="#F09C22" transform="scale(0.078125 0.078125)" d="M599.975 449.746C607.584 447.576 615.089 447.178 622.285 451.174C628.199 454.458 632.267 460.283 634.033 466.75C635.65 472.671 634.4 478.649 631.347 483.873C628.009 489.584 622.496 493.494 616.078 495.044C609.355 496.667 601.236 494.99 595.432 491.272C592.449 489.361 589.778 486.451 587.438 483.807C586.18 482.226 585.341 480.199 584.425 478.399C583.562 473.838 583.709 469.078 583.946 464.463L584.777 462.459C587.851 458.671 591.186 456.163 594.73 452.929L599.975 449.746Z"/>
	<path fill="#E07221" transform="scale(0.078125 0.078125)" d="M618.192 462.75L618.793 462.653C619.64 462.773 619.647 462.848 620.089 463.326C622.411 465.844 622.606 467.636 622.46 471C621.231 472.26 618.475 471.842 616.699 471.904L615.122 471.641C613.89 471.41 612.749 471.312 612.01 470.25L618.192 462.75Z"/>
	<path fill="#E07221" transform="scale(0.078125 0.078125)" d="M611.549 472.813C613.745 472.433 619.839 472.571 621.77 473.631C622.253 473.896 622.301 473.946 622.414 474.458C622.966 476.95 621.581 480.447 620.123 482.4C619.65 483.033 619.232 482.951 618.492 483.135C617.412 481.785 616.558 480.477 615.725 478.963C615.703 479.893 615.631 479.711 615.813 480.409C616.088 481.466 616.338 482.401 616.468 483.5C614.596 484.964 611.025 485.089 608.75 484.979C607.67 484.367 607.084 484.13 606.75 482.807C606.044 480.008 608.524 476.209 609.75 473.802L610.735 473.325L611.549 472.813Z"/>
	<path fill="#E07221" transform="scale(0.078125 0.078125)" d="M600.613 464.222L598.136 462.25C598.264 460.977 598.281 461.051 599.297 460.22C601.264 458.612 603.503 457.508 606 457.037C606.898 457.321 607.348 457.614 608.041 458.25C609.837 457.229 611.419 457.272 613.444 457.909C614.804 458.336 615.887 459.322 616.93 460.25C617.065 462.848 613.929 466.319 612.091 468.25C611.207 469.18 610.213 469.656 609.012 470.073C608.16 474.662 605.887 479.864 603.123 483.627C601.928 484.024 601.737 483.933 600.5 483.616C598.7 482.057 597.821 481.169 597.203 478.875C596.092 474.747 597.772 475.936 599.378 473.126C598.479 473.02 596.734 473.046 595.93 472.75C595.034 472.42 592.653 469.356 591.838 468.512L594.75 465.628C596.899 463.796 597.928 463.988 600.613 464.222Z"/>
	<defs>
		<linearGradient id="gradient_1" gradientUnits="userSpaceOnUse" x1="578.15454" y1="561.60773" x2="627.06482" y2="600.37714">
			<stop offset="0" stop-color="#A2EAFB" stop-opacity="0.98823529"/>
			<stop offset="1" stop-color="#7AFFFF"/>
		</linearGradient>
	</defs>
	<path fill="url(#gradient_1)" transform="scale(0.078125 0.078125)" d="M668.682 446.28C670.583 446.337 672.626 446.241 674.499 446.526L672.255 452.147L670.556 455.57C666.936 464.224 662.482 472.606 658.347 481.032L636.055 526L594.908 609.283L577.869 641.112L552.613 689.082C547.478 698.656 542.654 708.529 536.223 717.311C534.631 716.917 533.128 716.208 531.617 715.58L668.682 446.28Z"/>
	<path fill="#0A9078" transform="scale(0.078125 0.078125)" d="M333.227 688.202C327.172 673.689 322.639 658.525 318.506 643.369C310.633 614.499 305.184 585.452 303.501 555.545C303.125 548.86 302.107 541.878 303.239 535.25L304.64 535.46C309.706 536.301 315.227 538.676 319.98 540.624C342.207 549.734 364.83 563.641 383.487 578.719C393.669 586.947 402.955 596.244 412.224 605.467C405.28 613.317 398.754 621.649 395.161 631.637C393.316 636.765 392.533 642.199 391.769 647.563C391.051 652.602 391.53 658.021 392.249 663.036C396.338 649.228 401.863 637.692 410.194 625.902L419.533 613.672C433.389 630.85 445.526 648.511 455.086 668.456C443.339 679.3 428.129 695.894 427.397 712.791C427.21 717.11 428.375 720.735 429.498 724.835C431.296 719.794 433.033 714.672 435.402 709.865C439.953 700.629 445.951 692.189 452.254 684.078C453.96 681.882 456.043 678.737 458.355 677.194C474.563 712.478 479.118 751.884 483.532 790.038C483.917 793.368 485.264 811.911 486.908 813.596L487.541 828.75C487.636 832.638 487.155 837.056 487.868 840.853L487.839 841.54C484.898 844.572 481.739 846.791 478.074 848.881L471.318 853.475C468.135 843.05 463.332 833.127 458.865 823.198C438.679 778.326 411.821 737.464 371.14 708.754C362.557 702.697 352.998 697.7 343.573 693.075C340.495 691.564 336.897 690.546 334.027 688.726L333.227 688.202Z"/>
	<path fill="#13AA91" transform="scale(0.078125 0.078125)" d="M333.227 688.202C327.172 673.689 322.639 658.525 318.506 643.369C310.633 614.499 305.184 585.452 303.501 555.545C303.125 548.86 302.107 541.878 303.239 535.25L304.64 535.46L304.86 535.846C308.424 541.969 313.062 547.843 317.122 553.678L348.393 599.032L384.986 660.5L421.124 721.255L439.238 754.843C450.252 775.612 460.553 797.147 468.57 819.26L473.022 832.175L475.997 843.326C476.449 845.141 476.712 847.545 478.074 848.881L471.318 853.475C468.135 843.05 463.332 833.127 458.865 823.198C438.679 778.326 411.821 737.464 371.14 708.754C362.557 702.697 352.998 697.7 343.573 693.075C340.495 691.564 336.897 690.546 334.027 688.726L333.227 688.202Z"/>
	<path fill="#FAFAFA" transform="scale(0.078125 0.078125)" d="M653.085 303.382C668.341 286.795 690.678 276.733 713.188 275.805C736.265 274.852 758.839 283.357 775.75 299.021C792.587 314.616 803.352 336.187 803.958 359.25C804.604 383.834 795.704 408.394 778.496 426.081C762.279 442.749 738.635 451.421 715.589 451.628C710.719 451.672 705.81 451.475 701 450.692C692.913 449.375 685.388 446.552 677.805 443.527C677.236 443.3 676.657 442.781 676.151 443.25C675.308 444.031 674.922 445.472 674.499 446.526C672.626 446.241 670.583 446.337 668.682 446.28L685.493 411.602L666.459 410.977L615.364 411.002L628.077 374.462L631.951 363.137L632.142 362.648C633.12 358.755 634.71 354.943 636.028 351.148L643.188 330.501C646.334 321.499 648.311 311.687 653.085 303.382Z"/>
	<path fill="#3CC399" transform="scale(0.078125 0.078125)" d="M702.289 363.13L708.949 363.02L697.194 387.934C696.82 387.272 696.385 386.512 696.25 385.756C695.913 383.869 696.916 381.665 697.024 379.75C697.335 374.209 696.601 369.219 698.096 363.75C699.551 363.697 700.874 363.435 702.289 363.13Z"/>
	<path fill="#F8BB35" transform="scale(0.078125 0.078125)" d="M725.764 330.46C726.907 324.877 729.073 319.659 731.059 314.339C732.922 309.347 734.86 303.567 737.589 298.99C739.259 296.187 742.242 294.232 745.395 293.505L746 293.377L747.188 293.129C754.711 291.984 763.056 298.636 768.681 302.813C761.87 312.77 752.123 320.462 743.25 328.523C737.748 333.522 731.49 339.708 725.056 343.45C723.498 345.372 721.714 346.293 719.588 347.48L725.764 330.46Z"/>
	<path fill="#F09C22" transform="scale(0.078125 0.078125)" d="M768.681 302.813C774.375 307.815 780.412 313.486 782.511 321L782.687 321.615C783.127 323.316 782.634 324.858 781.669 326.294C780.639 327.825 779.034 329.034 777.5 330.016C771.055 334.138 763.048 337.095 756.073 340.341L715.912 359.006L715.564 358.919C716.74 355.647 719.257 350.795 719.588 347.48C721.714 346.293 723.498 345.372 725.056 343.45C731.49 339.708 737.748 333.522 743.25 328.523C752.123 320.462 761.87 312.77 768.681 302.813Z"/>
	<path fill="#61C5C0" transform="scale(0.078125 0.078125)" d="M632.142 362.648L702.289 363.13C700.874 363.435 699.551 363.697 698.096 363.75C696.601 369.219 697.335 374.209 697.024 379.75C696.916 381.665 695.913 383.869 696.25 385.756C696.385 386.512 696.82 387.272 697.194 387.934C695.871 390.967 694.465 395.344 692.344 397.886C690.499 395.985 682.924 395.494 680.022 394.791C671.856 392.811 664.368 389.23 657.531 384.393C650.368 379.325 643.22 371.3 639.712 363.207L631.951 363.137L632.142 362.648Z"/>
	<path fill="#3CC399" transform="scale(0.078125 0.078125)" d="M631.951 363.137L639.712 363.207C643.22 371.3 650.368 379.325 657.531 384.393C664.368 389.23 671.856 392.811 680.022 394.791C682.924 395.494 690.499 395.985 692.344 397.886C690.151 402.314 688.102 407.441 685.493 411.602L666.459 410.977L615.364 411.002L628.077 374.462L631.951 363.137Z"/>
	<path fill="#13AA91" transform="scale(0.078125 0.078125)" d="M628.077 374.462L628.321 374.817C629.811 377.054 630.483 379.591 631.8 381.906C636.053 389.381 642.755 397.866 650 402.481C652.439 404.034 654.807 405.415 657.5 406.515C660.548 407.76 664.079 408.608 666.459 410.977L615.364 411.002L628.077 374.462Z"/>
	<path fill="#F09C22" transform="scale(0.078125 0.078125)" d="M668.275 305.466C669.281 305.429 670.335 305.378 671.326 305.587C672.976 305.936 674.095 306.832 675.175 308.085C680.498 314.259 684.239 322.02 688.463 328.982L706.753 358.516L681.75 358.002C675.07 358.065 669.205 356.689 662.671 355.905C657.19 355.247 651.763 355.141 646.268 354.312L644.833 351.616C641.737 345.05 643.619 336.469 646.099 329.956C650.346 318.806 657.281 310.386 668.275 305.466Z"/>
	<path fill="#F09C22" transform="scale(0.078125 0.078125)" d="M710.267 283.712L718.897 284.315L719.75 284.438C725.071 285.172 728.099 287.003 731.812 290.705C732.165 294.637 731.484 298.687 730.563 302.5C728.667 310.351 725.437 317.922 722.677 325.506L711.558 357.784L707.015 350.669L687.733 318.896L680.577 307.013C679.518 305.131 678.19 302.908 677.913 300.75C677.628 298.535 678.359 296.895 679.744 295.199C686.475 286.959 700.297 284.464 710.267 283.712Z"/>
	<path fill="#F09C22" transform="scale(0.078125 0.078125)" d="M712.186 367.25L712.753 367.457C715.649 373.532 717.474 380.543 719.759 386.899L730.71 417.477C732.34 422.146 735.483 428.81 735.303 433.743C735.224 435.924 733.991 437.823 732.381 439.225C725.028 445.627 715.23 444.984 706.144 444.463L696.182 442.309C690.97 440.796 684.539 437.528 682.451 432.081C682.335 431.779 682.214 431.463 682.215 431.139C682.221 429.745 709.748 371.618 712.186 367.25Z"/>
	<path fill="#F09C22" transform="scale(0.078125 0.078125)" d="M779.921 335.081C781.611 334.837 783.299 334.807 785 334.982C787.506 335.239 789.615 336.628 791.166 338.579C797.327 346.327 797.939 360.876 796.702 370.31L795.898 376.015C795.067 380.28 793.356 386.947 789.287 389.303C787.423 390.382 784.964 390.022 783.065 389.329L782.25 389.023L751.628 375.651L720.03 361.661C721.957 360.051 725.08 359.149 727.4 358.119L743.892 350.836L767.344 340.485C771.609 338.583 775.396 336.39 779.921 335.081Z"/>
	<path fill="#F09C22" transform="scale(0.078125 0.078125)" d="M715.884 364.099L760.71 384.527L772.869 390.081C775.54 391.276 778.54 392.365 780.949 394.009C782.849 395.306 785.273 398.545 785.282 400.908C785.287 402.064 784.563 403.851 784.189 404.976C781.961 411.68 776.965 417.042 772.149 422.008C766.811 426.958 761.147 432.012 754.178 434.515C751.081 435.627 748.488 434.933 745.61 433.486C742.876 432.111 741.062 430.027 739.59 427.389C736.06 421.063 734.095 413.328 731.56 406.5L715.884 364.099Z"/>
	<path fill="#EE5361" transform="scale(0.078125 0.078125)" d="M398.142 411.002L398.625 411.325L516.949 411.446L564.434 411.141C573.085 411.102 582.22 410.498 590.82 411.382L516.716 625.884L493.669 696.117C492.597 699.425 492.461 704.329 490.674 707.169L339.592 411.037L352.647 411.034L352.921 411.182L398.142 411.002Z"/>
	<path fill="#F8BB35" transform="scale(0.078125 0.078125)" d="M422.433 476.837C428.205 470.989 435.335 467.083 443.75 467.041C451.374 467.003 458.962 470.414 464.157 475.926C469.422 481.512 472.746 489.896 472.354 497.629C471.945 505.676 468.183 513.749 462.169 519.141C457.395 523.421 448.505 525.569 442.186 525.499L441.834 525.248C439.282 525.07 436.787 524.525 434.358 523.733C427.014 521.336 420.718 515.943 417.293 508.972C414.319 502.92 413.515 495.109 415.673 488.664L415.902 488C417.262 483.884 419.693 480.496 422.469 477.213L422.433 476.837Z"/>
	<path fill="#FAFAFA" transform="scale(0.078125 0.078125)" d="M429.525 494.408L429.926 494.542C433.933 495.79 438.411 494.897 442.657 496.154L442.914 495.986C438.411 491.999 432.767 487.9 429.762 482.609C435.094 485.987 439.355 490.771 443.596 495.389C444.166 490.477 444.625 487.076 442.75 482.351L442.06 480.5L442.75 479.983C444.339 480.958 445.155 481.628 445.55 483.52C446.172 486.501 446.006 489.896 445.577 492.899C448.574 491.349 453.954 487.718 457.256 488.363C455.604 489.4 453.906 490.526 452.097 491.267C449.087 492.499 446.447 492.824 444.089 495.25C447.308 498.891 454.31 498.246 457.766 501.287L457 501.893C452.253 500.761 448.587 499.272 444.495 496.586C443.828 496.149 444.127 496.274 443.535 496.105L446.845 504.171C447.535 506.068 447.581 507.748 447.575 509.75L446.75 510.499C444.142 507.92 446.4 498.846 442.5 497.47L440.602 500.243L440.014 499.505L441.001 497.75L440.25 496.996L434.522 497.037L427.75 496.955L427.062 496C427.871 494.871 428.193 494.882 429.525 494.408Z"/>
	<path fill="#DFD477" transform="scale(0.078125 0.078125)" d="M441.834 525.248C439.282 525.07 436.787 524.525 434.358 523.733C427.014 521.336 420.718 515.943 417.293 508.972C414.319 502.92 413.515 495.109 415.673 488.664L415.902 488C417.262 483.884 419.693 480.496 422.469 477.213L426.847 488.591C427.579 490.52 428.268 492.769 429.525 494.408C428.193 494.882 427.871 494.871 427.062 496L427.75 496.955L434.522 497.037L440.25 496.996L441.001 497.75L440.014 499.505L440.602 500.243C438.995 503.992 437.293 506.595 434.398 509.485C436.024 510.865 437.431 512.201 438.75 513.88L441.303 514.75C441.223 515.937 440.676 516.532 440.041 517.5C440.099 520.33 441.243 522.534 441.834 525.248Z"/>
	<path fill="#F8BB35" transform="scale(0.078125 0.078125)" d="M434.522 497.037L440.25 496.996L441.001 497.75L440.014 499.505C437.598 500.739 433.235 505.739 431.25 505.759C430.187 502.934 430.521 500.615 431.222 497.733L434.522 497.037Z"/>
	<path fill="#F8BB35" transform="scale(0.078125 0.078125)" d="M515.926 565.79L511.691 568.75C504.879 573.003 496.671 575.058 488.734 573.076C479.856 570.858 473.168 566.047 468.465 558.235C464.494 551.637 463.617 543.576 465.45 536.172C467.541 527.726 473.017 521.214 480.485 516.92C486.961 513.197 494.904 511.625 502.181 513.719L503 513.964C508.524 515.551 512.342 517.929 516.882 521.368C522.834 529.065 526.759 537.29 525.356 547.289C524.334 554.563 520.377 560.202 515.926 565.79Z"/>
	<path fill="#FAFAFA" transform="scale(0.078125 0.078125)" d="M479.408 539.158C478.167 538.784 478.06 538.756 477.255 537.75L477.75 537.01C482.79 537.057 489.874 538.812 493.988 541.75C494.874 543.718 493.908 546.136 493.167 548.091L490.238 555.161C489.638 556.805 489.187 559.338 487.75 560.413L486.13 559.374C486.119 558.525 486.153 558.341 486.511 557.516C489.523 554.136 491.792 548.418 493.504 544.231C488.258 546.411 483.171 548.459 478.399 551.58C477.927 550.374 478.078 549.136 478.119 547.867C483.41 545.982 489.408 545.228 494.421 542.721C489.769 540.839 484.325 540.125 479.408 539.158Z"/>
	<path fill="#F09C22" transform="scale(0.078125 0.078125)" d="M516.986 481.464C510.484 483.317 503.451 482.832 497.25 479.998C489.512 476.462 483.776 469.912 480.796 461.99C477.825 454.091 479.462 444.455 482.961 437C486.989 428.416 494.223 421.755 503.183 418.596L503.905 418.35C507.949 416.943 512.86 416.459 517.003 417.517C526.876 419.516 534.908 423.615 540.579 432.204C544.757 438.531 547.154 446.779 545.656 454.36C543.956 462.968 537.881 471.296 530.501 475.966C526.303 478.623 521.731 480.117 516.986 481.464Z"/>
	<path fill="#FAFAFA" transform="scale(0.078125 0.078125)" d="M500.048 434.868C501.286 433.509 502.455 432.289 503.923 431.179C506.305 437.527 508.348 443.467 513.432 448.201C514.739 445.995 516.211 443.792 517.277 441.462C518.439 438.939 519.536 436.399 521.104 434.093L522.25 434.035L523.433 435.25C521.941 439.512 517.703 442.479 516.08 447L516.75 447.956C520.868 447.994 525.641 445.171 529.343 445.75C530.164 446.752 530.131 447.543 530.25 448.786L529.5 449.36L528.691 449.194C525 448.453 520.785 447.849 517.25 449.444L516.504 450.25C517.768 453.903 522.702 457.898 526.116 459.534L526.75 459.825L526.849 460.862L525.491 462.25C521.511 460.389 519.638 453.975 515.439 452.431L516.198 466.627L515.75 468.311L513.405 468.788C511.676 469.038 509.966 469.289 508.542 468.25C508.016 466.786 507.237 465.576 506.413 464.27C505.605 465.429 504.851 466.939 503.5 467.492C502.464 466.97 501.482 466.572 500.756 465.628L495.112 459.322C494.505 457.735 494.143 457.067 494.565 455.384C494.524 452.727 494.438 448.885 495.588 446.475L494.967 445.768C494.258 444.805 494.167 444.05 494.25 442.901L495.326 442.345C497.094 440.841 498.596 436.963 500.048 434.868Z"/>
	<path fill="#F8BB35" transform="scale(0.078125 0.078125)" d="M506.413 464.27C508.217 461.055 510.195 455.831 512.75 453.307L513.596 454.918C514.1 459.629 513.941 464.088 513.405 468.788C511.676 469.038 509.966 469.289 508.542 468.25C508.016 466.786 507.237 465.576 506.413 464.27Z"/>
	<path fill="#F8BB35" transform="scale(0.078125 0.078125)" d="M495.588 446.475L513.033 450.354L494.565 455.384C494.524 452.727 494.438 448.885 495.588 446.475Z"/>
	<path fill="#F8BB35" transform="scale(0.078125 0.078125)" d="M495.112 459.322L512.596 450.983C508.856 456.007 505.157 461.154 500.756 465.628L495.112 459.322Z"/>
	<path fill="#F8BB35" transform="scale(0.078125 0.078125)" d="M500.048 434.868C505.061 439.045 508.093 443.599 511.64 449.003C506.308 446.954 500.342 445.067 495.326 442.345C497.094 440.841 498.596 436.963 500.048 434.868Z"/>
	<path fill="#DFD477" transform="scale(0.078125 0.078125)" d="M516.986 481.464C510.484 483.317 503.451 482.832 497.25 479.998C489.512 476.462 483.776 469.912 480.796 461.99C477.825 454.091 479.462 444.455 482.961 437C486.989 428.416 494.223 421.755 503.183 418.596L503.905 418.35C507.949 416.943 512.86 416.459 517.003 417.517L516.709 432.479C516.637 435.348 516.005 438.851 517.277 441.462C516.211 443.792 514.739 445.995 513.432 448.201C508.348 443.467 506.305 437.527 503.923 431.179C502.455 432.289 501.286 433.509 500.048 434.868C498.596 436.963 497.094 440.841 495.326 442.345L494.25 442.901C494.167 444.05 494.258 444.805 494.967 445.768L495.588 446.475C494.438 448.885 494.524 452.727 494.565 455.384C494.143 457.067 494.505 457.735 495.112 459.322L500.756 465.628C501.482 466.572 502.464 466.97 503.5 467.492C504.851 466.939 505.605 465.429 506.413 464.27C507.237 465.576 508.016 466.786 508.542 468.25C509.966 469.289 511.676 469.038 513.405 468.788L515.75 468.311L516.198 466.627C516.981 471.489 516.637 476.551 516.986 481.464Z"/>
	<path fill="#EFBAB6" transform="scale(0.078125 0.078125)" d="M398.142 411.002L398.625 411.325L422.433 476.837L422.469 477.213C419.693 480.496 417.262 483.884 415.902 488L415.673 488.664C413.515 495.109 414.319 502.92 417.293 508.972C420.718 515.943 427.014 521.336 434.358 523.733C436.787 524.525 439.282 525.07 441.834 525.248L442.186 525.499L491.891 670.567C490.529 669.047 489.612 666.802 488.631 665.001L482.973 654.474L463.237 617.494L386.487 473.711L364.928 433.337C361.017 425.98 357.372 418.221 352.921 411.182L398.142 411.002Z"/>
	<path fill="#EA2E39" transform="scale(0.078125 0.078125)" d="M516.949 411.446L564.434 411.141C573.085 411.102 582.22 410.498 590.82 411.382L516.716 625.884C515.827 624.531 515.973 622.565 515.946 620.983L515.94 608.186L515.926 565.79C520.377 560.202 524.334 554.563 525.356 547.289C526.759 537.29 522.834 529.065 516.882 521.368L516.986 481.464C521.731 480.117 526.303 478.623 530.501 475.966C537.881 471.296 543.956 462.968 545.656 454.36C547.154 446.779 544.757 438.531 540.579 432.204C534.908 423.615 526.876 419.516 517.003 417.517L516.949 411.446Z"/>
</svg>
