<?xml version="1.0" encoding="utf-8" ?>
<svg xmlns="http://www.w3.org/2000/svg" xmlns:xlink="http://www.w3.org/1999/xlink" width="100" height="40">
	<path fill="#293034" transform="matrix(0.1 0 0 0.1 0 -7.62939e-06)" d="M880.45 58.8765L888.107 58.5974L888.323 86.3429L904.883 85.9537L905.711 128.05L888.955 127.605L890.535 229.411C896.475 232.96 900.865 232.957 907.559 232.972L908.081 270.539C895.407 270.153 882.789 271.436 870.143 269.938C863.103 268.807 855.423 266.529 850.258 261.322C846.574 257.609 841.147 250.833 840.05 245.687C839.265 242.006 839.727 237.623 839.755 233.846L839.82 213.019L839.794 127.861L824.925 128.04L823.656 86.0639L839.743 86.4058L839.386 59.068L880.45 58.8765Z"/>
	<path fill="#FCCB7C" transform="matrix(0.1 0 0 0.1 0 -7.62939e-06)" d="M847.407 68.1319L882.871 67.9638L883.185 95.4122L899.456 95.2916L899.981 118.447C899.246 118.965 897.14 118.723 896.198 118.723L883.444 118.709L884.822 207.728L885.114 228.071C885.13 229.375 884.777 232.645 885.175 233.737C885.292 234.059 885.696 234.517 885.91 234.789C890.126 240.117 895.476 241.656 901.97 242.36C902.216 245.636 903.183 258.559 902.002 260.978L900.146 261.207L882.574 261.404C872.504 261.442 859.847 260.582 852.302 252.966C849.911 250.552 845.968 245.278 845.189 242.002C844.589 239.481 845.005 235.707 844.994 233.064L844.971 210.86L845.021 118.687L830.063 118.704L829.218 95.6882L845.005 95.6671L844.954 77.09C844.951 74.3861 844.527 71.034 845.286 68.4763L847.407 68.1319Z"/>
	<path fill="#293034" transform="matrix(0.1 0 0 0.1 0 -7.62939e-06)" d="M553.559 58.8781L561.121 58.6389L561.506 86.3402L578.017 85.9444L578.753 128.02L562.225 127.629C561.719 130.106 562.118 133.114 562.165 135.671L562.392 151.812L563.546 229.283C565.428 230.433 567.187 231.468 569.301 232.148C572.864 233.295 576.906 232.974 580.621 232.979L581.066 270.544C568.046 270.13 555.132 271.435 542.136 269.822C535.482 268.449 528.219 266.246 523.29 261.314C519.756 257.778 514.435 250.998 513.297 246.154C512.457 242.579 512.911 238.122 512.907 234.455L512.904 211.588L512.828 127.863L498.059 128.044L496.943 86.0191L512.478 86.4175C513.348 85.2046 512.622 62.4145 512.601 59.0486L553.559 58.8781Z"/>
	<path fill="#FCCB7C" transform="matrix(0.1 0 0 0.1 0 -7.62939e-06)" d="M520.194 68.1544L556.048 67.9582L556.22 95.4126L572.662 95.2866L573.095 118.723L556.62 118.713L557.992 207.118L558.152 226.745C558.163 228.603 557.738 231.762 558.19 233.493C558.313 233.962 559.094 234.808 559.429 235.239C563.36 240.299 569.156 241.658 575.178 242.417L575.436 254.196C575.478 256.342 575.733 258.706 575.276 260.806L573.975 261.196L554.771 261.406C545.034 261.403 532.698 260.329 525.433 252.948C523.22 250.701 518.967 245.16 518.311 242.088C517.63 238.906 518.078 234.947 518.072 231.678L518.041 209.189L518.075 118.695L503.01 118.67L502.416 95.6781L518.07 95.6633C518.057 92.0218 517.31 70.1202 518.446 68.5189C518.62 68.274 519.84 68.2038 520.194 68.1544Z"/>
	<path fill="#293034" transform="matrix(0.1 0 0 0.1 0 -7.62939e-06)" d="M752.765 80.7385L755.804 80.4942C771.378 79.8805 788.761 84.9905 800.334 95.6736C816.171 110.293 816.129 131.341 816.375 151.228L817.055 167.089L769.981 167.061L770.484 142.925C770.461 138.343 770.562 133.37 769.366 128.924C768.535 125.832 767.189 123.166 764.242 121.585C762.167 120.473 760.811 120.83 758.749 121.505C758.001 122.185 757.338 122.9 756.982 123.865C755.989 126.566 755.929 130.144 755.678 133.011C754.259 149.218 756.447 165.692 756.788 181.911C757.058 194.75 756.404 208.018 757.474 220.788C757.757 224.159 758.173 227.943 759.603 231.045C760.128 232.183 760.93 233.268 762.176 233.665C763.38 234.049 763.854 233.662 764.893 233.132C771.325 224.836 769.07 199.008 769.037 188.358L788.33 188.751L818.022 188.389L817.214 205.53C816.445 221.158 815.582 241.189 806.103 254.253C799.735 263.03 789.879 267.781 779.343 269.442C763.596 271.924 742.32 270.835 729.15 261.099C718.45 253.19 713.626 240.781 711.746 228.002C709.863 215.197 710.635 201.935 710.317 189.011C709.658 162.255 704.157 121.307 721.106 98.6978C728.874 88.3356 740.067 82.5189 752.765 80.7385Z"/>
	<path fill="#FCCB7C" transform="matrix(0.1 0 0 0.1 0 -7.62939e-06)" d="M756.265 89.0935L758.34 88.9871C772.48 88.7795 788.62 94.0318 798.823 103.975C813.522 118.299 811.585 139.447 811.82 158.282L774.956 158.123L774.976 138.869C774.844 132.006 774.673 124.017 770.789 118.068C769.009 115.342 765.858 112.893 762.607 112.295C760.371 111.883 758.184 112.712 756.408 114.043C752.992 116.601 752.001 121.673 751.477 125.647C748.894 145.217 751.693 165.961 752.262 185.624C752.657 199.261 751.58 212.916 753.364 226.503C753.937 230.866 754.992 236.124 757.784 239.67C758.905 241.096 760.333 242.304 762.207 242.448C764.184 242.601 766.131 241.774 767.556 240.422C769.411 238.662 770.411 236.072 771.197 233.7C774.236 224.53 773.643 213.412 773.924 203.84L773.953 197.535C776.332 196.397 808.019 196.949 813.005 197.146L811.588 217.013C810.645 227.608 809.297 240.113 802.339 248.651C795.328 257.254 784.268 260.395 773.613 261.422C759.269 262.804 740.99 261.552 729.454 251.98C720.792 244.791 716.956 233.614 715.933 222.725C714.859 211.292 715.244 199.457 714.872 187.955L713.98 153.136C713.99 136.993 714.127 117.343 725.026 104.315C733.116 94.6457 743.93 90.1636 756.265 89.0935Z"/>
	<path fill="#293034" transform="matrix(0.1 0 0 0.1 0 -7.62939e-06)" d="M307.183 79.323C319.362 78.5641 333.574 81.696 343.287 89.3022C357.077 100.102 363.459 115.45 365.544 132.436C366.879 143.318 366.636 154.445 366.652 165.396C366.688 189.205 367.072 214.456 359.002 237.17C357.21 242.212 354.843 247.939 351.522 252.148C342.723 263.301 328.224 268.301 314.576 269.846C300.615 270.846 282.581 269.076 271.642 259.601C257.738 247.557 257.252 221.647 255.94 204.582C255.059 193.119 255.322 181.633 255.281 170.148C255.214 150.901 254.263 131.467 260.422 112.933C262.46 106.801 265.072 100.925 269.319 96.003C279.413 84.3048 292.297 80.4259 307.183 79.323ZM306.914 89.091C294.344 90.0843 281.556 93.5962 273.027 103.55C268.534 108.794 265.722 115.045 264.017 121.698C260.383 135.876 260.773 151.439 260.736 165.986C260.696 181.208 260.812 196.45 262.053 211.631C263.029 223.573 264.474 242.512 274.139 250.69C284.15 259.162 301.438 261.331 314.205 260.147L315.037 260.051C328.031 258.35 340.626 253.696 348.971 243.079C351.49 239.874 353.192 235.099 354.483 231.258C361.629 210.012 360.806 186.193 360.93 164.026C360.985 154.337 361.531 144.34 360.265 134.732C358.343 120.142 352.437 107.015 340.529 97.9645C331.392 91.0198 318.233 88.4327 306.914 89.091Z"/>
	<path fill="#FCCB7C" transform="matrix(0.1 0 0 0.1 0 -7.62939e-06)" d="M306.914 89.091C318.233 88.4327 331.392 91.0198 340.529 97.9645C352.437 107.015 358.343 120.142 360.265 134.732C361.531 144.34 360.985 154.337 360.93 164.026C360.806 186.193 361.629 210.012 354.483 231.258C353.192 235.099 351.49 239.874 348.971 243.079C340.626 253.696 328.031 258.35 315.037 260.051L314.205 260.147C301.438 261.331 284.15 259.162 274.139 250.69C264.474 242.512 263.029 223.573 262.053 211.631C260.812 196.45 260.696 181.208 260.736 165.986C260.773 151.439 260.383 135.876 264.017 121.698C265.722 115.045 268.534 108.794 273.027 103.55C281.556 93.5962 294.344 90.0843 306.914 89.091ZM304.582 107.053C300.568 108.971 298.639 111.221 297.153 115.42C295.241 120.819 295.095 126.429 294.862 132.085L294.324 152.078C293.972 172.552 293.125 193.296 295.534 213.675C296.416 221.132 297.835 229.157 301.137 235.927C302.582 238.889 305.123 242.718 308.401 243.8C310.216 244.4 312.26 244.203 314.079 243.697C320.982 238.383 322.323 228.336 323.376 220.215C325.13 206.701 325.089 192.829 324.885 179.22L324.18 149.206C323.799 140.789 324.059 132.347 322.425 124.04C321.527 119.472 319.714 114.641 316.828 110.947C315.19 108.85 312.737 107.231 310.059 106.934C308.263 106.735 306.365 106.802 304.582 107.053Z"/>
	<path fill="#293034" transform="matrix(0.1 0 0 0.1 0 -7.62939e-06)" d="M304.582 107.053C306.365 106.802 308.263 106.735 310.059 106.934C312.737 107.231 315.19 108.85 316.828 110.947C319.714 114.641 321.527 119.472 322.425 124.04C324.059 132.347 323.799 140.789 324.18 149.206L324.885 179.22C325.089 192.829 325.13 206.701 323.376 220.215C322.323 228.336 320.982 238.383 314.079 243.697C312.26 244.203 310.216 244.4 308.401 243.8C305.123 242.718 302.582 238.889 301.137 235.927C297.835 229.157 296.416 221.132 295.534 213.675C293.125 193.296 293.972 172.552 294.324 152.078L294.862 132.085C295.095 126.429 295.241 120.819 297.153 115.42C298.639 111.221 300.568 108.971 304.582 107.053ZM305.354 116.972C303.277 118.078 302.513 118.928 301.804 121.174C300.909 124.008 300.797 127.197 300.586 130.142L300.034 147.8C299.597 167.935 298.746 188.191 300.757 208.274C301.458 215.27 302.245 223.539 305.588 229.842C306.555 231.666 307.806 233.502 309.87 234.143C311.061 234.512 311.795 234.449 312.86 233.749C313.067 233.614 313.082 233.586 313.232 233.434C319.674 224.526 318.771 207.956 319.015 197.349C319.145 191.674 319.614 185.579 318.72 179.968C317.968 175.255 318.748 170.715 318.844 165.975C319.045 156.063 320.073 123.335 312.195 117.802C310.546 116.644 307.995 116.322 306.026 116.77L305.354 116.972Z"/>
	<path fill="#293034" transform="matrix(0.1 0 0 0.1 0 -7.62939e-06)" d="M452.734 77.8484C454.219 77.5768 455.835 77.6572 457.346 77.6452C465.954 77.5762 472.39 79.6764 478.573 85.8234C484.404 91.6211 487.829 100.915 489.091 108.836C490.462 117.445 489.998 126.117 489.82 134.803L489.512 161.88L489.04 266.856L441.567 266.795L440.446 120.554C439.48 119.918 438.474 119.238 437.416 118.763C433.59 117.044 430.855 117.876 427.182 119.251L427.186 138.801L427.249 266.802L374.46 266.725L375.974 79.3059C377.27 78.6251 383.847 79.4362 385.739 79.4551L427.183 79.6063L427.258 86.1938C435.351 80.8639 443.169 78.8784 452.734 77.8484Z"/>
	<path fill="#FCCB7C" transform="matrix(0.1 0 0 0.1 0 -7.62939e-06)" d="M454.466 87.6291L456.115 87.546C463.723 87.5015 470.823 89.2494 476.306 94.7643C481.143 99.6301 483.61 107.369 484.57 114.018C485.382 119.645 485.034 125.591 485.011 131.27L484.84 158.862L483.988 256.49L446.701 256.635L445.83 147.097L445.62 122.012C445.601 120.228 446.064 116.697 445.546 115.108C445.377 114.592 444.37 113.585 444 113.142C441.502 110.152 437.754 108.094 433.849 107.8C429.165 107.447 425.664 109.541 422.266 112.505L422.293 132.112L422.26 256.685L379.71 256.675L380.795 89.1061L422.282 89.5135L422.295 102.191C431.059 92.4006 441.62 88.7488 454.466 87.6291Z"/>
	<path fill="#293034" transform="matrix(0.1 0 0 0.1 0 -7.62939e-06)" d="M643.262 73.4501L644.775 73.2996C658.356 72.75 670.258 74.393 680.551 83.9756C687.866 90.785 694.258 101.529 696.53 111.347C697.409 115.142 696.819 120.261 696.827 124.251L696.621 158.921L697.137 272.097L662.207 271.664C658.02 271.645 653.651 272.187 649.504 271.919C648.031 271.823 647.157 271.688 645.963 270.818C645.111 269.163 644.999 267.426 644.801 265.607C634.347 270.04 625.4 273.581 613.834 270.843L611.956 270.32C604.61 268.073 598.144 263.901 594.482 256.945C589.983 248.396 591.23 237.8 591.258 228.452C591.297 215.56 590.885 201.305 594.789 188.906C600.002 172.352 613.582 165.238 627.93 157.778L587.843 158.145L589.547 137.008C590.859 121.716 592.712 104.92 602.636 92.4954C612.622 79.9935 627.91 75.1922 643.262 73.4501ZM644.37 83.2292C630.806 84.4435 615.412 88.5618 606.271 99.478C595.469 112.377 594.36 131.817 593.685 147.979L628.335 147.995C627.694 138.833 626.197 122.38 632.547 115.048C633.895 113.491 635.451 112.373 637.541 112.24C639.697 112.102 641.447 113.072 642.999 114.478C648.263 119.245 650.184 129.882 650.447 136.634C650.736 144.054 649.56 151.531 644.331 157.174C639.631 162.246 633.027 165.381 626.953 168.476C620.575 171.724 614.178 174.882 608.758 179.652C594.633 192.079 596.241 211.657 596.077 228.802C596.03 237.068 594.656 247.82 600.979 254.216C606.421 259.721 614.747 262.014 622.273 261.984C633.484 261.94 643.542 256.174 652.947 250.672L653.057 261.998L691.93 262.263L691.933 154.929L691.901 127.989C691.893 123.809 692.447 118.692 691.551 114.66C689.929 107.366 684.61 98.9436 679.397 93.6882C671.618 85.846 662.627 83.0256 651.75 83.028C649.361 83.0285 646.729 82.8892 644.37 83.2292ZM636.339 122.344C633.76 124.339 633.331 127.966 632.93 131.026C631.9 138.89 633.196 146.623 634.245 154.399L639.168 151.051C641.285 149.054 643.337 147.306 644.468 144.567L644.615 144.223C646.853 138.9 645.154 131.639 643.032 126.504C642.226 124.552 641.309 123.021 639.287 122.208C638.587 121.926 637.086 122.15 636.339 122.344Z"/>
	<path fill="#FCCB7C" transform="matrix(0.1 0 0 0.1 0 -7.62939e-06)" d="M644.37 83.2292C646.729 82.8892 649.361 83.0285 651.75 83.028C662.627 83.0256 671.618 85.846 679.397 93.6882C684.61 98.9436 689.929 107.366 691.551 114.66C692.447 118.692 691.893 123.809 691.901 127.989L691.933 154.929L691.93 262.263L653.057 261.998L652.947 250.672C643.542 256.174 633.484 261.94 622.273 261.984C614.747 262.014 606.421 259.721 600.979 254.216C594.656 247.82 596.03 237.068 596.077 228.802C596.241 211.657 594.633 192.079 608.758 179.652C614.178 174.882 620.575 171.724 626.953 168.476C633.027 165.381 639.631 162.246 644.331 157.174C649.56 151.531 650.736 144.054 650.447 136.634C650.184 129.882 648.263 119.245 642.999 114.478C641.447 113.072 639.697 112.102 637.541 112.24C635.451 112.373 633.895 113.491 632.547 115.048C626.197 122.38 627.694 138.833 628.335 147.995L593.685 147.979C594.36 131.817 595.469 112.377 606.271 99.478C615.412 88.5618 630.806 84.4435 644.37 83.2292ZM651.964 176.557C648.641 179.081 645.188 181.589 642.39 184.707C635.178 192.744 633.186 202.389 631.765 212.772C630.58 221.426 630.565 230.194 635.798 237.546C637.699 239.302 639.272 240.283 641.935 240.196C646.088 240.06 649.835 236.637 652.463 233.708C652.559 233.6 652.904 233.26 652.948 233.146C653.143 232.641 652.934 230.887 652.93 230.27L652.876 221.716L652.733 177.045L651.964 176.557Z"/>
	<path fill="#293034" transform="matrix(0.1 0 0 0.1 0 -7.62939e-06)" d="M651.964 176.557L652.733 177.045L652.876 221.716L652.93 230.27C652.934 230.887 653.143 232.641 652.948 233.146C652.904 233.26 652.559 233.6 652.463 233.708C649.835 236.637 646.088 240.06 641.935 240.196C639.272 240.283 637.699 239.302 635.798 237.546C630.565 230.194 630.58 221.426 631.765 212.772C633.186 202.389 635.178 192.744 642.39 184.707C645.188 181.589 648.641 179.081 651.964 176.557ZM647.166 190.72C638.839 199.306 635.959 209.769 636.175 221.615C636.221 224.164 636.66 227.37 638.483 229.304C640.077 230.316 640.83 230.875 642.822 230.434C644.61 230.038 646.573 228.229 648.001 227.084L647.767 191.209L647.166 190.72Z"/>
	<path fill="#293034" transform="matrix(0.1 0 0 0.1 0 -7.62939e-06)" d="M170.413 37.7744L174.561 37.4696C191.561 36.9727 210.359 43.3642 222.739 55.0901C241.444 72.8061 242.032 97.7663 242.437 121.752L243.162 145.988C237.436 145.178 231.354 145.454 225.573 145.4L189.294 145.506L189.948 108.481C189.68 102.303 189.496 94.4806 184.584 90.0491C183.038 88.6547 181.084 87.7237 178.955 87.9092C177.735 88.0155 176.591 88.6427 175.818 89.5882C172.876 93.1868 173.042 104.655 172.889 109.47C172.295 128.129 174.082 146.788 174.477 165.442L174.794 193.062C174.808 200.686 174.633 208.411 175.556 215.993C176.086 220.349 176.536 225.923 180.217 228.816C181.734 229.03 182.102 229.098 183.492 228.453C186.805 224.623 187.21 219.015 187.735 214.177C189.244 200.255 188.23 186.345 188.113 172.396L210.045 172.818L244.537 172.357C243.672 188.569 243.28 204.814 241.141 220.925C239.513 233.186 237.354 245.888 229.801 256.084C222.151 266.411 210.761 272.127 198.177 273.956C180.654 276.502 158.311 274.713 143.755 263.775C131.12 254.281 125.385 238.596 123.226 223.437C120.99 207.737 121.918 191.787 121.459 175.985L120.129 128.765C120.03 105.515 120.734 77.3249 135.344 58.0087C144.031 46.5234 156.258 39.7559 170.413 37.7744Z"/>
	<path fill="#FCCB7C" transform="matrix(0.1 0 0 0.1 0 -7.62939e-06)" d="M171.16 48.5108L174.737 48.2886C191.287 48.0575 208.853 53.481 220.844 65.2339C239.455 83.4764 237.032 110.636 237.206 134.573C235.033 135.646 200.554 134.738 195.303 134.465C195.538 120.356 197.822 93.9609 189.247 82.735C187.284 80.1653 183.791 77.4633 180.487 77.1037C178.171 76.8517 175.826 77.8922 174.073 79.3424C169.843 82.8427 168.74 89.9434 168.277 95.0949C166.024 120.169 168.663 145.5 169.328 170.596C169.765 187.08 168.412 203.685 170.557 220.103C171.278 225.622 172.469 232.848 176.221 237.226C177.392 238.593 178.987 239.861 180.862 239.937C182.99 240.022 185.019 239.049 186.531 237.592C188.549 235.647 189.798 232.587 190.651 229.968C193.94 219.867 193.636 207.804 193.9 197.274L193.941 183.574L238.461 183.232L236.947 208.484C235.859 221.487 234.477 236.255 226.756 247.222C219.907 256.95 208.992 261.103 197.643 263.012C181.318 265.757 160.154 264.19 146.45 254.303C135.988 246.754 130.589 234.161 128.644 221.73C126.485 207.94 127.271 193.544 126.891 179.615L125.815 126.868C125.855 116.237 125.794 105.569 127.49 95.0391C129.061 85.2885 132.028 75.6803 137.919 67.6424C146.175 56.3779 157.65 50.6282 171.16 48.5108Z"/>
	<path fill="#293034" transform="matrix(0.1 0 0 0.1 0 -7.62939e-06)" d="M931.14 285.625L998.96 326.078L930.203 364.071L930.648 345.702L294.678 342.479L207.023 342.413L207.004 300.257L931.138 302.318L931.14 285.625Z"/>
	<path fill="#EC5F31" transform="matrix(0.1 0 0 0.1 0 -7.62939e-06)" d="M936.544 299.773L979.978 325.534L936.031 349.925L936.027 335.061L269.944 331.797L212.257 331.389L212.208 311.308L936.398 312.966L936.544 299.773Z"/>
</svg>
