<?xml version="1.0" encoding="utf-8" ?>
<svg xmlns="http://www.w3.org/2000/svg" xmlns:xlink="http://www.w3.org/1999/xlink" width="1000" height="400">
	<path fill="#838383" d="M786.583 135.741C790.854 136.651 796.524 143.5 798.868 147.107C806.542 158.912 809.491 176.844 806.554 190.682C805.352 196.345 802.927 203.057 797.843 206.363C794.962 208.236 791.356 208.654 788.012 207.938C780.871 206.411 777.89 201.889 773.271 196.906C774.117 196.876 774.849 196.864 775.681 197.064C779.023 197.865 782.663 197.304 785.555 195.486C790.329 192.483 792.926 186.26 794.146 180.97C797.576 166.091 794.603 148.621 786.583 135.741Z"/>
	<path fill="#838383" d="M906.549 274.017L908.032 274.42C911.615 275.47 915.428 277.957 917.294 281.279C919.927 285.968 919.856 291.079 918.402 296.102C916.382 303.085 910.683 310.607 904.253 314.062C894.922 319.075 884.169 318.966 874.249 315.919C868.479 314.146 863.096 310.609 858.744 306.471C857.348 305.143 856.05 303.365 854.433 302.327C856.127 302.349 857.582 303.196 859.131 303.79C869.278 307.679 880.327 308.486 890.427 303.935C897.476 300.758 903.15 293.655 905.814 286.511C907.158 282.909 908.204 277.655 906.549 274.017Z"/>
	<path fill="#838383" d="M577.252 271.51L578.678 272.135C579.051 272.389 579.67 272.706 579.975 273.019C581.523 274.603 582.993 279.154 584.27 281.236C585.801 283.732 587.857 285.983 589.77 288.194L589.787 289.568C591.032 291.994 589.689 295.734 588.903 298.194C586.534 305.607 582.241 311.634 575.217 315.188C564.928 320.394 551.633 319.553 540.922 315.991C535.838 314.301 530.915 311.359 527.022 307.679C525.421 306.165 524.025 304.251 522.282 302.923C524.729 302.858 527.178 304.421 529.486 305.165C538.548 308.086 549.455 309.025 558.601 306.082C565.838 303.754 571.165 299.216 574.587 292.444C577.863 285.962 579.588 278.577 577.252 271.51Z"/>
	<path fill="#838383" d="M212.074 93.7237C217.281 97.197 221.35 101.947 225.019 106.96C233.539 118.603 240.202 132.909 243 147.08C243.942 151.85 245.18 159.179 243.893 163.92C243.139 166.7 240.921 170.021 239.326 172.404C234.294 179.92 226.37 186.682 217.278 188.413C211.405 189.531 202.596 188.066 197.544 184.696C194.744 182.828 192.342 179.366 191.01 176.312C197.744 177.83 203.312 178.614 209.964 176.018C218.978 172.5 227.052 163.861 230.841 155.037C232.288 151.666 232.137 148.298 231.941 144.691C231.254 132.066 226.493 118.985 220.417 107.952C217.932 103.44 214.004 98.8024 212.212 94.0975L212.074 93.7237Z"/>
	<path fill="#838383" d="M803.211 231.495C808.075 232.751 812.772 238.019 815.215 242.217C821.048 252.239 820.876 265.013 817.888 275.908C813.899 290.455 807.393 301.824 793.868 309.428C780.98 316.674 765.522 317.127 751.55 313.152C744.318 311.095 737.404 307.518 731.726 302.573C729.92 301.001 728.39 298.836 726.426 297.509C728.904 297.391 732.115 299.529 734.458 300.41C737.991 301.738 741.618 302.907 745.328 303.625C758.98 306.268 773.849 304.104 785.485 296.174C797.835 287.756 804.105 274.747 806.821 260.338C808.482 251.53 808.487 239.239 803.211 231.495Z"/>
	<path fill="#838383" d="M228.284 215.852C233.97 219.43 238.627 223.367 241.409 229.678C241.899 236.012 243.331 243.369 242.81 249.649C240.42 273.974 234.613 299.332 214.82 315.65C204.265 324.352 190.902 328.063 177.382 326.688C164.178 325.345 151.363 321.505 140.469 313.717C137.622 311.682 134.721 309.518 132.49 306.791L131.375 305.323C134.451 306.225 137.433 308.166 140.382 309.447C155.14 315.859 173.876 318.748 189.165 312.627C204.421 306.518 215.566 293.161 221.889 278.29C226.458 267.545 228.331 256.267 230.04 244.809C230.915 238.946 231.936 232.308 231.357 226.392C231.005 222.801 229.627 219.172 228.284 215.852Z"/>
	<path fill="#838383" d="M460.368 116.805C468.414 119.803 473.855 128.969 477.245 136.409C479.789 141.991 481.771 147.802 483.136 153.787C486.237 167.389 487.218 181.253 488.301 195.124C490.406 222.107 491.819 250.298 488.203 277.207C487.182 284.805 485.897 292.957 483.181 300.137C480.882 306.214 477.293 313.296 471.061 316.125C468.334 317.363 464.452 317.472 461.67 316.399C457.674 314.858 454.915 312.325 452.005 309.286C450.91 308.143 449.937 306.633 448.602 305.787C453.82 305.611 456.884 306.93 461.612 303.518C471.441 296.425 473.974 280.087 475.704 268.977C479.22 246.412 478.302 223.117 477.224 200.383L475.163 171.415C473.582 153.658 471.185 131.603 460.368 116.805Z"/>
	<path fill="#838383" d="M669.964 118.602C674.084 119.409 678.987 125.01 681.267 128.375C688.244 138.668 691.493 150.728 692.826 162.955C693.052 165.03 693.624 167.845 693.188 169.865C693.108 170.233 692.969 170.594 692.822 170.939C693.993 174.135 693.381 197.107 691.783 200.662C692.618 202.816 691.997 205.311 691.737 207.553L690.687 218.4L689.5 239.776C689.137 250.186 689.055 260.809 689.707 271.213C690.255 279.95 691.538 288.804 691.469 297.554C691.437 301.658 690.928 305.199 689.3 308.975C687.112 314.051 682.92 317.9 677.796 319.904C673.945 321.409 669.417 321.618 665.611 319.889C662.983 318.695 660.831 316.649 659.203 314.286C658.26 312.916 657.685 311.071 656.176 310.245C660.737 310.213 664.71 309.893 668.701 307.502C674.133 304.247 677.256 299.368 678.718 293.305C679.823 288.722 679.411 283.796 679.07 279.136L677.758 261.601L677.19 239.358L679.204 200.733C680.639 184.125 682.301 167.546 680.586 150.885C679.4 139.37 675.996 128.486 669.964 118.602Z"/>
	<path fill="#293034" d="M812.365 145.67C811.98 144.528 810.489 143.35 809.676 142.447C807.493 140.023 805.973 137.328 805.386 134.091C803.6 124.242 808.97 113.813 818.248 109.962C819.465 109.457 823.954 108.691 824.587 108.071C825.021 107.645 824.656 100.381 824.654 99.3329C824.634 91.8796 826.979 83.6887 831.264 77.5301C834.25 73.2396 838.75 69.4743 844.03 68.5634C849.033 67.7006 853.968 69.0967 858.041 72.0514C860.451 73.8004 865.182 78.302 865.58 81.3254L865.599 81.5592C867.572 82.1795 868.994 83.9226 869.895 85.7528C870.024 86.0135 870.02 86.233 870.03 86.5159C875.552 88.2486 879.574 92.595 882.19 97.6011C884.08 101.219 884.967 104.66 885.663 108.669L885.044 110.288C889.361 112.052 894.498 114.039 896.519 118.681C896.727 119.158 896.773 119.674 896.754 120.188C898.927 120.812 900.278 122.412 901.326 124.35C901.852 125.322 902.429 126.412 902.107 127.536C905.948 128.342 910.281 130.779 912.492 134.09C915.159 138.085 915.321 143.285 914.35 147.842C913.087 153.764 909.203 159.225 904.142 162.49C899.067 165.765 893.428 166.925 887.575 168.007C887.78 183.342 887.236 198.662 885.196 213.873C884.062 222.333 881.891 230.696 881.097 239.183C880.845 241.873 880.657 244.648 880.727 247.35C880.783 249.528 881.524 252.454 880.668 254.436C888.089 256.364 896.5 257.671 900.719 264.887C901.103 265.544 901.59 266.296 901.83 267.017C903.919 268.143 905.778 270.249 906.498 272.548C906.651 273.036 906.639 273.517 906.549 274.017C908.204 277.655 907.158 282.909 905.814 286.511C903.15 293.655 897.476 300.758 890.427 303.935C880.327 308.486 869.278 307.679 859.131 303.79C857.582 303.196 856.127 302.349 854.433 302.327C854.127 301.384 852.5 300.273 851.721 299.658C849.033 297.539 846.506 295.48 844.129 292.995C843.937 291.955 842.688 291.009 841.962 290.209L835.945 283.028C834.432 281.07 833.153 278.946 831.973 276.774C827.337 268.238 825.006 258.7 823.464 249.175C821.02 234.082 821.331 218.502 821.594 203.26L821.783 170.143L821.904 159.045C821.949 157.973 822.424 155.713 822.163 154.823C822.073 154.517 821.382 153.77 821.169 153.482C819.639 152.124 817.744 151.223 816.162 149.92C814.741 148.751 813.519 147.094 812.365 145.67Z"/>
	<path fill="#EC5E31" d="M812.365 145.67C814.295 146.076 821.332 148.743 822.292 150.183C822.145 151.783 822.172 152.233 821.169 153.482C819.639 152.124 817.744 151.223 816.162 149.92C814.741 148.751 813.519 147.094 812.365 145.67Z"/>
	<path fill="#EC5E31" d="M865.599 81.5592C867.572 82.1795 868.994 83.9226 869.895 85.7528C870.024 86.0135 870.02 86.233 870.03 86.5159C873.362 91.4152 875.17 102.856 874.32 108.692L874.281 108.883L869.693 108.566C869.597 100.083 869.52 89.2115 865.599 81.5592Z"/>
	<path fill="#838383" d="M870.03 86.5159C875.552 88.2486 879.574 92.595 882.19 97.6011C884.08 101.219 884.967 104.66 885.663 108.669L885.044 110.288C881.627 109.327 877.814 109.105 874.281 108.883L874.32 108.692C875.17 102.856 873.362 91.4152 870.03 86.5159Z"/>
	<path fill="#EC5E31" d="M844.129 292.995C846.517 292.64 849.655 295.505 851.823 296.628C854.023 297.767 856.33 298.673 858.703 299.379C864.12 300.99 870.198 301.384 875.812 300.718C883.902 299.758 890.68 295.869 895.704 289.492C901.236 282.472 902.894 275.733 901.83 267.017C903.919 268.143 905.778 270.249 906.498 272.548C906.651 273.036 906.639 273.517 906.549 274.017C908.204 277.655 907.158 282.909 905.814 286.511C903.15 293.655 897.476 300.758 890.427 303.935C880.327 308.486 869.278 307.679 859.131 303.79C857.582 303.196 856.127 302.349 854.433 302.327C854.127 301.384 852.5 300.273 851.721 299.658C849.033 297.539 846.506 295.48 844.129 292.995Z"/>
	<path fill="#EC5E31" d="M896.754 120.188C898.927 120.812 900.278 122.412 901.326 124.35C901.852 125.322 902.429 126.412 902.107 127.536C903.723 130.942 902.63 136.138 901.427 139.552C899.22 145.818 894.595 150.568 888.625 153.386C886.2 154.531 883.474 155.382 880.859 155.949C879.355 156.275 876.721 156.39 875.483 157.25C875.567 171.986 875.224 186.711 873.288 201.342C872.018 210.938 869.584 220.454 868.791 230.096C868.536 233.196 868.439 236.573 868.768 239.667C869.043 242.248 871.061 247.487 870.429 249.539C869.942 248.449 868.783 247.36 868.088 246.324C866.124 243.402 864.881 240.251 864.235 236.791C861.495 222.123 867.222 205.891 868.776 191.254C870.198 177.867 870.57 164.505 870.55 151.054C874.788 150.274 878.987 149.406 882.973 147.711C888.802 145.233 893.73 140.442 896.103 134.54C897.846 130.205 898.661 124.599 896.754 120.188Z"/>
	<path fill="#838383" d="M902.107 127.536C905.948 128.342 910.281 130.779 912.492 134.09C915.159 138.085 915.321 143.285 914.35 147.842C913.087 153.764 909.203 159.225 904.142 162.49C899.067 165.765 893.428 166.925 887.575 168.007C887.78 183.342 887.236 198.662 885.196 213.873C884.062 222.333 881.891 230.696 881.097 239.183C880.845 241.873 880.657 244.648 880.727 247.35C880.783 249.528 881.524 252.454 880.668 254.436C877.198 254.468 873.153 251.476 870.429 249.539C871.061 247.487 869.043 242.248 868.768 239.667C868.439 236.573 868.536 233.196 868.791 230.096C869.584 220.454 872.018 210.938 873.288 201.342C875.224 186.711 875.567 171.986 875.483 157.25C876.721 156.39 879.355 156.275 880.859 155.949C883.474 155.382 886.2 154.531 888.625 153.386C894.595 150.568 899.22 145.818 901.427 139.552C902.63 136.138 903.723 130.942 902.107 127.536Z"/>
	<path fill="#EC5E31" d="M866.613 117.871C875.599 118.321 884.105 116.13 891.897 122.355C892.93 123.18 893.371 123.919 893.492 125.213C893.769 128.179 892.305 130.691 890.481 132.909C884.07 140.705 875.608 141.875 866.121 142.785C866.603 157.965 866.819 174.197 864.846 189.254C863.314 200.953 860.063 212.536 859.424 224.332C858.983 232.472 859.754 240.611 863.153 248.107C865.854 254.063 869.595 258.673 875.734 261.253C881.36 263.617 887.822 263.688 893.155 266.754C895.312 267.995 896.922 269.77 898.565 271.607C896.717 276.921 894.498 281.932 890.255 285.761C883.473 291.883 874.623 293.024 865.829 292.494C856.452 291.93 847.415 286.955 841.285 279.97C834.68 272.442 830.437 262.461 828.446 252.709C824.581 233.778 826.841 212.752 826.862 193.492L827.071 161.416C827.03 159.356 826.489 157.251 826.436 155.142C826.329 150.906 826.78 146.51 827.058 142.277C820.038 140.427 815.143 138.98 809.984 133.545C810.677 130.955 811.283 128.395 812.45 125.966C814.086 122.563 817.138 119.057 820.72 117.659C823.307 116.65 826.139 116.421 828.781 115.507C830.284 112.684 829.605 109.714 829.578 106.641C829.55 103.391 829.746 99.578 830.601 96.4326C832.295 90.1966 835.58 81.4628 841.617 78.1962C844.75 76.5006 848.563 76.4379 851.913 77.4161C856.534 78.765 860.248 82.3584 862.432 86.5755C863.868 89.3491 864.892 92.8459 863.949 95.8036C866.848 99.8538 865.196 109.006 865.429 114C865.461 114.704 865.342 116.637 865.609 117.216C865.66 117.326 866.459 117.77 866.613 117.871Z"/>
	<path fill="#FEFFFF" d="M866.613 117.871C867.266 117.965 867.827 118.05 868.384 118.424C870.234 119.664 872.244 120.111 873.779 121.851C874.276 123.567 874.755 125.54 873.86 127.225C873.317 128.249 872.901 128.412 871.826 128.759C870.09 128.246 868.616 127.671 867.285 126.401C863.251 122.553 863.961 114.953 863.351 109.779C863.005 106.845 862.233 103.673 861.237 100.887C860.244 98.1073 856.202 94.7505 856.218 92.3407L856.223 92.0635C856.24 90.866 856.207 89.4567 856.861 88.4074C857.38 87.5766 857.719 87.5984 858.643 87.3767C859.406 87.6757 859.974 88.0658 860.522 88.6783C861.889 90.2087 864.156 93.4577 863.982 95.5627L863.949 95.8036C866.848 99.8538 865.196 109.006 865.429 114C865.461 114.704 865.342 116.637 865.609 117.216C865.66 117.326 866.459 117.77 866.613 117.871Z"/>
	<path fill="#293034" d="M692.822 170.939C694.936 168.402 694.892 160.44 695.466 156.788C696.087 152.828 696.971 148.892 698.034 145.028C700.198 137.163 703.672 129.167 708.874 122.81C715.541 114.664 724.367 109.464 734.912 108.483C748.271 107.239 762.615 111.869 772.888 120.462C775.595 122.726 783.335 129.563 783.679 133.297C784.787 133.786 785.911 134.032 786.465 135.219C786.569 135.44 786.562 135.525 786.583 135.741C794.603 148.621 797.576 166.091 794.146 180.97C792.926 186.26 790.329 192.483 785.555 195.486C782.663 197.304 779.023 197.865 775.681 197.064C774.849 196.864 774.117 196.876 773.271 196.906C772.202 195.273 769.244 194.226 767.657 192.975C765.955 191.633 764.443 189.821 763.018 188.19L762.862 187.773C762.211 186.521 760.685 185.184 759.756 184.086C758.247 182.301 757.092 179.55 754.828 178.691C755.422 181.033 754.542 183.608 754.11 185.947L752.769 195.495L748.771 232.707C748.564 236.055 748.455 239.472 748.623 242.823C748.756 245.457 749.922 249.605 748.897 251.994C749.576 251.869 750.279 251.694 750.905 251.396C752.263 250.752 753.597 248.883 754.347 247.591C758.874 239.793 758.068 230.274 760.996 221.968C762.389 218.015 765.572 214.586 769.361 212.824C773.843 210.74 779.181 211.255 783.691 212.963C790.013 215.357 796.556 220.77 799.368 227.008C800.631 227.802 802.66 229.53 803.145 231.025C803.189 231.161 803.198 231.363 803.211 231.495C808.487 239.239 808.482 251.53 806.821 260.338C804.105 274.747 797.835 287.756 785.485 296.174C773.849 304.104 758.98 306.268 745.328 303.625C741.618 302.907 737.991 301.738 734.458 300.41C732.115 299.529 728.904 297.391 726.426 297.509C725.875 295.763 721.219 292.954 719.683 291.641C718.096 290.285 716.647 288.698 715.246 287.155C715.067 286.353 713.765 285.207 713.195 284.568C711.037 282.147 708.902 279.716 706.973 277.105C702.686 271.303 699.739 264.404 697.797 257.488C694.021 244.036 693.458 230.524 692.991 216.647C692.855 212.604 693.868 203.892 691.783 200.662C693.381 197.107 693.993 174.135 692.822 170.939Z"/>
	<path fill="#EC5E31" d="M783.679 133.297C784.787 133.786 785.911 134.032 786.465 135.219C786.569 135.44 786.562 135.525 786.583 135.741C794.603 148.621 797.576 166.091 794.146 180.97C792.926 186.26 790.329 192.483 785.555 195.486C782.663 197.304 779.023 197.865 775.681 197.064C774.849 196.864 774.117 196.876 773.271 196.906C772.202 195.273 769.244 194.226 767.657 192.975C765.955 191.633 764.443 189.821 763.018 188.19C765.456 188.354 767.524 190.094 769.877 190.724C773.463 191.684 777.109 191.668 780.371 189.673C785.749 186.385 788.001 179.599 789.347 173.804C792.094 161.98 790.035 143.478 783.679 133.297Z"/>
	<path fill="#EC5E31" d="M738.942 249.636C732.125 240.657 731.159 229.624 731.515 218.638C731.796 209.99 733.066 201.311 734.056 192.719C735.499 180.2 736.167 166.669 740.665 154.823C741.501 152.623 742.485 149.743 744.287 148.142C745.634 146.945 746.108 147.043 747.803 147.148C748.392 147.613 749.065 148.124 749.527 148.718C750.545 150.03 750.649 150.873 750.518 152.432L750.449 152.618C749.926 153.9 748.805 154.677 748.035 155.8C746.947 157.385 746.17 159.325 745.528 161.127C741.867 171.395 740.92 182.366 739.653 193.123L736.59 223.839C736.317 228.587 736.415 233.63 737.101 238.342C737.45 240.737 738.001 243.169 738.656 245.499C738.818 246.072 739.552 247.812 739.502 248.283C739.467 248.618 739.081 249.302 738.942 249.636Z"/>
	<path fill="#EC5E31" d="M715.246 287.155C717.869 287.339 722.273 291.054 724.834 292.317C738.48 299.054 754.514 300.884 769.043 295.879C780.647 291.883 790.561 283.577 795.918 272.475C803.113 257.563 804.828 242.623 799.368 227.008C800.631 227.802 802.66 229.53 803.145 231.025C803.189 231.161 803.198 231.363 803.211 231.495C808.487 239.239 808.482 251.53 806.821 260.338C804.105 274.747 797.835 287.756 785.485 296.174C773.849 304.104 758.98 306.268 745.328 303.625C741.618 302.907 737.991 301.738 734.458 300.41C732.115 299.529 728.904 297.391 726.426 297.509C725.875 295.763 721.219 292.954 719.683 291.641C718.096 290.285 716.647 288.698 715.246 287.155Z"/>
	<path fill="#838383" d="M750.518 152.432C751.393 153.27 751.583 154.033 751.77 155.201C752.512 159.855 752.012 164.622 752.762 169.215C753.182 171.789 755.116 175.219 755.096 177.597C755.093 177.977 754.974 178.345 754.828 178.691C755.422 181.033 754.542 183.608 754.11 185.947L752.769 195.495L748.771 232.707C748.564 236.055 748.455 239.472 748.623 242.823C748.756 245.457 749.922 249.605 748.897 251.994L748.291 252.545C744.223 253.003 742.238 251.742 738.942 249.636C739.081 249.302 739.467 248.618 739.502 248.283C739.552 247.812 738.818 246.072 738.656 245.499C738.001 243.169 737.45 240.737 737.101 238.342C736.415 233.63 736.317 228.587 736.59 223.839L739.653 193.123C740.92 182.366 741.867 171.395 745.528 161.127C746.17 159.325 746.947 157.385 748.035 155.8C748.805 154.677 749.926 153.9 750.449 152.618L750.518 152.432Z"/>
	<path fill="#EC5E31" d="M783.681 148.399L784.224 148.963C785.219 150.157 785.168 151.675 785.388 153.138C786.055 157.584 786.512 162.213 786.02 166.707C785.444 171.956 784.41 177.329 780.022 180.801C778.072 182.344 774.755 183.308 772.254 182.959C769.313 182.549 766.074 180.914 763.803 179.028C761.237 176.897 758.936 174.179 757.849 170.978C756.99 168.445 757.03 165.397 756.833 162.724C756.325 155.831 755.837 146.858 751.308 141.235C750.16 139.809 748.733 138.705 746.853 138.547C745.374 138.422 744.018 138.911 742.925 139.905C732.836 149.09 731.383 177.331 729.943 190.366C729.109 197.912 727.975 205.498 727.571 213.079C726.858 226.479 726.947 245.309 736.516 255.816C738.987 258.529 742.436 260.856 746.202 260.986C749.363 261.095 751.394 260.143 753.989 258.511C755.144 257.785 756.495 257.126 757.464 256.166C764.448 249.243 762.493 235.696 766.189 227.196C767.389 224.437 769.199 222.774 771.341 220.74C773.661 220.295 775.975 219.788 778.345 220.041C784.631 220.71 789.789 223.76 793.733 228.724C798.168 234.306 799.119 241.823 798.264 248.714C796.741 260.98 790.859 273.238 781.03 280.894C770.858 288.816 757.155 291.617 744.515 290.024C731.446 288.377 718.352 282.307 710.169 271.733C704.995 265.046 701.871 257.053 700.116 248.835C697.086 234.649 697.619 218.374 697.831 203.886C698.006 192.023 698.061 180.034 699.615 168.255C701.795 151.732 706.426 133.139 720.349 122.517C727.346 117.179 736.48 115.78 745.075 116.984C751.083 117.826 756.954 119.452 762.388 122.177C763.701 122.835 764.92 123.183 765.591 124.518C772.358 126.907 778.735 134.308 781.742 140.659C782.685 142.65 784.542 145.963 783.773 148.161L783.681 148.399Z"/>
	<path fill="#FEFFFF" d="M773.377 236.14L774.977 236.284C775.323 236.686 775.668 237.118 775.887 237.607C777.173 240.466 775.255 246.232 774.231 249.057C772.971 252.534 770.184 257.225 766.738 258.833C765.737 258.198 765.263 257.514 764.893 256.364C764.552 255.308 764.564 253.956 764.958 252.918C765.989 250.203 768.911 248.047 770.286 245.345C771.772 242.427 771.806 239.11 773.377 236.14Z"/>
	<path fill="#FEFFFF" d="M765.591 124.518C772.358 126.907 778.735 134.308 781.742 140.659C782.685 142.65 784.542 145.963 783.773 148.161L783.681 148.399L784.07 150.183L782.471 151.487L782.257 151.391C780.779 150.722 778.01 143.84 776.422 141.9C773.04 137.77 768.899 135.815 764.893 132.606C764.131 131.995 763.871 131.03 763.754 130.097C763.479 127.923 764.295 126.191 765.591 124.518Z"/>
	<path fill="#293034" d="M486.745 147.085C486.476 145.638 483.612 143.156 482.644 141.834C480.969 139.548 479.925 137.025 479.399 134.242C478.353 128.713 479.209 123.167 482.42 118.509C486.133 113.12 491.13 111.828 497.222 110.71C496.411 108.401 495.375 105.854 495.117 103.41C494.182 94.5552 495.633 84.7157 501.398 77.6759C504.456 73.9412 508.784 71.8832 513.567 71.4286C519.662 70.8491 526.18 73.6735 530.795 77.5162C533.027 79.3748 537.322 83.3959 537.593 86.3903C539.52 87.1907 540.838 88.3805 541.785 90.3375C541.948 90.6736 541.968 90.9099 542.008 91.2764C546.089 92.2075 550.625 96.4019 552.792 99.8366C554.616 102.726 557.685 109.166 556.912 112.581L556.656 113.38C557.478 114.558 560.168 118.821 560.074 120.156C562.511 121.004 563.995 123.054 565.101 125.324C565.305 125.745 565.318 126.044 565.308 126.501C569.508 127.543 574.07 131.352 576.302 135.024C577.301 136.668 577.882 138.538 578.369 140.386L577.945 141.714C578.104 142.245 578.481 143.06 578.508 143.59C578.563 144.653 577.88 146.516 577.646 147.601C576.797 151.554 576.066 155.544 574.921 159.425L573.669 160.641C573.927 161.047 574.481 161.714 574.628 162.149C574.791 162.632 574.308 164.752 574.229 165.445C573.908 168.247 573.701 170.69 574.457 173.469C575.329 176.675 576.403 180.702 578.074 183.572C579.053 185.255 581.941 187.582 582.399 189.124C585.855 193.157 587.443 194.615 592.633 195.896C594.825 198.257 596.104 201.984 598.256 204.677C598.429 204.894 598.375 204.839 598.507 205.164C598.468 205.448 598.465 206.121 598.346 206.349C597.694 207.595 594.695 209.729 593.576 210.797C585.864 218.156 579.045 226.616 576.471 237.183C574.316 246.033 575.206 255.845 577.444 264.602C577.897 266.378 579.686 270.832 578.678 272.135L577.252 271.51C579.588 278.577 577.863 285.962 574.587 292.444C571.165 299.216 565.838 303.754 558.601 306.082C549.455 309.025 538.548 308.086 529.486 305.165C527.178 304.421 524.729 302.858 522.282 302.923C521.473 301.109 518.185 299.348 516.557 298.093C514.861 296.785 513.43 295.223 512.025 293.613C511.744 292.689 510.511 291.651 509.872 290.909C507.835 288.544 505.622 286.15 503.863 283.572C501.07 279.481 499.044 274.656 497.617 269.931C492.919 254.381 494.177 238.116 494.345 222.09L496.677 155.556L495.455 154.534C491.686 152.478 489.677 150.137 486.745 147.085ZM573.669 160.641C573.381 162.821 571.421 164.934 569.662 166.266C565.924 169.096 561.577 169.495 557.053 169.804L555.562 233.412L555.676 244.47C555.772 246.465 556.342 249.162 555.723 251.064C557.482 253.115 560.228 254.043 562.559 255.308C565.672 256.996 568.409 259.357 570.512 262.199C571.253 263.201 572.207 264.343 572.138 265.656C574.315 266.546 576.054 268.346 577.016 270.577C577.151 270.891 577.215 271.173 577.252 271.51L578.678 272.135C579.686 270.832 577.897 266.378 577.444 264.602C575.206 255.845 574.316 246.033 576.471 237.183C579.045 226.616 585.864 218.156 593.576 210.797C594.695 209.729 597.694 207.595 598.346 206.349C598.465 206.121 598.468 205.448 598.507 205.164C598.375 204.839 598.429 204.894 598.256 204.677C596.104 201.984 594.825 198.257 592.633 195.896C587.443 194.615 585.855 193.157 582.399 189.124C581.941 187.582 579.053 185.255 578.074 183.572C576.403 180.702 575.329 176.675 574.457 173.469C573.701 170.69 573.908 168.247 574.229 165.445C574.308 164.752 574.791 162.632 574.628 162.149C574.481 161.714 573.927 161.047 573.669 160.641Z"/>
	<path fill="#FEFFFF" d="M534.136 93.3416C537.502 97.0811 536.691 105.677 536.431 110.519C536.395 111.197 536.245 111.743 535.983 112.366C535.762 109.393 535.448 106.294 534.858 103.369C534.009 99.163 532.63 97.7533 534.136 93.3416Z"/>
	<path fill="#EC5E31" d="M486.745 147.085L496.534 150.067C497.276 151.279 496.983 152.203 496.905 153.602L495.455 154.534C491.686 152.478 489.677 150.137 486.745 147.085Z"/>
	<path fill="#EC5E31" d="M537.593 86.3903C539.52 87.1907 540.838 88.3805 541.785 90.3375C541.948 90.6736 541.968 90.9099 542.008 91.2764C544.139 94.9236 545.524 100.76 545.361 104.985C545.49 106.057 545.71 107.029 545.102 107.997L540.896 107.042C540.637 100.416 540.713 92.4295 537.593 86.3903Z"/>
	<path fill="#838383" d="M542.008 91.2764C546.089 92.2075 550.625 96.4019 552.792 99.8366C554.616 102.726 557.685 109.166 556.912 112.581L556.656 113.38L556.885 114.792C554.515 112.922 552.263 111.204 549.538 109.881C548.497 109.025 546.394 108.507 545.102 107.997C545.71 107.029 545.49 106.057 545.361 104.985C545.524 100.76 544.139 94.9236 542.008 91.2764Z"/>
	<path fill="#FEFFFF" d="M545.361 104.985C546.574 104.414 547.022 103.962 548.353 104.274C549.215 105.547 549.713 106.715 550.172 108.181L549.538 109.881C548.497 109.025 546.394 108.507 545.102 107.997C545.71 107.029 545.49 106.057 545.361 104.985Z"/>
	<path fill="#EC5E31" d="M572.138 265.656C574.315 266.546 576.054 268.346 577.016 270.577C577.151 270.891 577.215 271.173 577.252 271.51C579.588 278.577 577.863 285.962 574.587 292.444C571.165 299.216 565.838 303.754 558.601 306.082C549.455 309.025 538.548 308.086 529.486 305.165C527.178 304.421 524.729 302.858 522.282 302.923C521.473 301.109 518.185 299.348 516.557 298.093C514.861 296.785 513.43 295.223 512.025 293.613L512.23 293.64L512.566 293.703C515.561 294.212 518.491 296.691 521.331 297.928C531.462 302.341 545.306 303.493 555.664 299.334C563.276 296.277 567.788 291.035 570.915 283.547C573.201 278.073 574.458 271.298 572.138 265.656Z"/>
	<path fill="#EC5E31" d="M560.074 120.156C562.511 121.004 563.995 123.054 565.101 125.324C565.305 125.745 565.318 126.044 565.308 126.501C567.667 131.459 567.024 138.371 565.211 143.447C563.347 148.661 560.109 154.573 554.825 156.961C551.661 158.391 548.342 158.671 544.933 158.863L544.202 195.684L543.47 222.954C543.381 230.34 543.094 238.182 545.6 245.253L545.271 246.602C544.759 245.452 543.478 244.286 542.742 243.215C541.425 241.297 540.348 238.65 539.785 236.389C538.349 230.62 538.488 224.674 538.504 218.778L539.145 192.101L540.009 152.812C544.284 152.555 548.325 152.315 551.928 149.759C556.934 146.208 560.393 138.944 561.365 133.003C561.943 129.477 562.225 123.173 560.074 120.156Z"/>
	<path fill="#838383" d="M565.308 126.501C569.508 127.543 574.07 131.352 576.302 135.024C577.301 136.668 577.882 138.538 578.369 140.386L577.945 141.714C578.104 142.245 578.481 143.06 578.508 143.59C578.563 144.653 577.88 146.516 577.646 147.601C576.797 151.554 576.066 155.544 574.921 159.425L573.669 160.641C573.381 162.821 571.421 164.934 569.662 166.266C565.924 169.096 561.577 169.495 557.053 169.804L555.562 233.412L555.676 244.47C555.772 246.465 556.342 249.162 555.723 251.064L555.42 251.784C551.739 250.318 548.61 248.751 545.271 246.602L545.6 245.253C543.094 238.182 543.381 230.34 543.47 222.954L544.202 195.684L544.933 158.863C548.342 158.671 551.661 158.391 554.825 156.961C560.109 154.573 563.347 148.661 565.211 143.447C567.024 138.371 567.667 131.459 565.308 126.501Z"/>
	<path fill="#EC5E31" d="M539.861 115.759L540.736 115.729C545.141 115.682 551.614 118.707 554.71 121.856C556.42 123.595 557.649 125.966 557.556 128.449C557.389 132.938 555.154 137.835 551.842 140.862C547.335 144.983 541.712 144.278 536.104 144.04L534.257 224.401C534.287 239.308 537.423 252.642 552.241 259.117C557.082 261.233 562.552 263.112 566.343 266.956C567.733 268.365 569.345 270.542 569.275 272.592C569.099 277.761 565.471 283.366 561.816 286.782C555.772 292.43 547.427 293.805 539.422 293.482C528.23 293.031 516.982 288.931 509.294 280.548C504.65 275.484 501.51 268.887 500.244 262.14C498.086 250.636 499.137 238.501 499.415 226.862L500.057 191.697L501.461 167.758C501.655 163.535 501.106 159.512 501.075 155.311C501.044 151.007 501.458 146.597 501.654 142.289C497.387 141.924 493.305 141.31 489.574 139.058C487.067 137.545 484.779 135.536 484.049 132.601C484.797 129.469 485.85 126.074 488.079 123.659C491.805 119.62 494.438 119.403 499.756 119.196C500.451 118.467 501.479 117.498 501.848 116.561C502.786 114.18 502.101 111.579 501.795 109.186C501.394 106.036 501.306 102.813 501.157 99.6434C501.068 97.7483 500.754 95.6206 501.295 93.7786L501.502 93.0034C502.076 90.2242 503.585 87.7547 505.005 85.325C506.152 83.361 508.509 81.0254 510.762 80.4438C516.065 79.0746 521.455 80.3257 526.123 83.0721C529.356 84.9739 534.605 89.2627 534.136 93.3416C532.63 97.7533 534.009 99.163 534.858 103.369C535.448 106.294 535.762 109.393 535.983 112.366C536.085 113.211 536.146 113.869 535.955 114.703C537.249 114.959 538.694 115.126 539.861 115.759Z"/>
	<path fill="#FEFFFF" d="M539.861 115.759C540.591 117.425 540.096 119.407 540.858 120.984C542.326 124.024 546.276 124.844 546.53 128.781C546.65 130.641 545.881 132.162 544.678 133.51C543.333 133.335 542.392 132.407 541.426 131.531C536.09 126.693 536.27 121.386 535.955 114.703C537.249 114.959 538.694 115.126 539.861 115.759Z"/>
	<path fill="#293034" d="M577.945 141.714L578.145 141.541C580.594 139.633 582.519 131.419 583.912 128.315C587.522 120.269 592.586 112.95 598.914 106.81C607.189 98.7793 618.038 93.6046 629.717 93.8263C641.226 94.0447 653.034 99.0371 660.998 107.378C662.448 108.897 666.925 113.76 666.871 115.737C668.104 116.257 669.26 116.667 669.801 117.996C669.939 118.335 669.919 118.299 669.964 118.602C675.996 128.486 679.4 139.37 680.586 150.885C682.301 167.546 680.639 184.125 679.204 200.733L677.19 239.358L677.758 261.601L679.07 279.136C679.411 283.796 679.823 288.722 678.718 293.305C677.256 299.368 674.133 304.247 668.701 307.502C664.71 309.893 660.737 310.213 656.176 310.245C655.66 309.719 654.738 309.433 654.067 309.118C650.528 307.458 649.31 305.351 646.557 302.915L646.326 302.712L645.739 303.392C640.993 308.557 632.52 312.444 625.493 312.736C619.223 312.996 613.396 311.026 608.681 306.854C606.452 304.882 604.576 302.518 602.371 300.5C601.68 298.857 598.435 297.547 597.045 296.297C595.149 294.592 593.413 292.596 591.644 290.753C591.259 290.155 590.411 289.873 589.787 289.568L589.77 288.194C587.857 285.983 585.801 283.732 584.27 281.236C582.993 279.154 581.523 274.603 579.975 273.019C579.67 272.706 579.051 272.389 578.678 272.135C579.686 270.832 577.897 266.378 577.444 264.602C575.206 255.845 574.316 246.033 576.471 237.183C579.045 226.616 585.864 218.156 593.576 210.797C594.695 209.729 597.694 207.595 598.346 206.349C598.465 206.121 598.468 205.448 598.507 205.164C598.375 204.839 598.429 204.894 598.256 204.677C596.104 201.984 594.825 198.257 592.633 195.896C587.443 194.615 585.855 193.157 582.399 189.124C581.941 187.582 579.053 185.255 578.074 183.572C576.403 180.702 575.329 176.675 574.457 173.469C573.701 170.69 573.908 168.247 574.229 165.445C574.308 164.752 574.791 162.632 574.628 162.149C574.481 161.714 573.927 161.047 573.669 160.641L574.921 159.425C576.066 155.544 576.797 151.554 577.646 147.601C577.88 146.516 578.563 144.653 578.508 143.59C578.481 143.06 578.104 142.245 577.945 141.714Z"/>
	<path fill="#EC5E31" d="M591.644 290.753C593.297 291.126 594.762 292.226 596.248 293.022C601.27 295.712 606.253 296.244 611.851 295.363C621.953 293.771 630.007 286.102 635.774 278.188L635.887 278.417C636.72 280.174 638.143 286.397 637.518 288.13C635.636 292.607 627.058 297.783 622.773 299.536C618.312 301.361 613.518 302.309 608.708 301.584C606.592 301.265 604.524 300.54 602.371 300.5C601.68 298.857 598.435 297.547 597.045 296.297C595.149 294.592 593.413 292.596 591.644 290.753Z"/>
	<path fill="#EC5E31" d="M582.399 189.124C583.063 189.085 583.759 189.019 584.412 189.168C584.975 189.297 585.482 189.414 586.063 189.464C591.172 189.905 595.71 187.774 599.538 184.512C609.962 175.627 609.809 164.567 610.883 152.03C611.175 148.617 611.301 144.756 614.143 142.431C616.156 140.785 618.279 140.305 620.85 140.595C622.573 140.79 624.347 141.836 625.392 143.22C626.398 144.552 626.549 144.94 626.323 146.519C623.405 146.436 620.917 146.605 618.672 148.764C614.303 152.965 615.729 166.327 614.68 172.266C613.704 177.795 611.513 183.157 607.763 187.391C603.426 192.287 598.953 194.501 592.633 195.896C587.443 194.615 585.855 193.157 582.399 189.124Z"/>
	<path fill="#838383" d="M602.371 300.5C604.524 300.54 606.592 301.265 608.708 301.584C613.518 302.309 618.312 301.361 622.773 299.536C627.058 297.783 635.636 292.607 637.518 288.13C639.133 289.737 639.4 292.022 640.339 294.024C641.795 297.129 644.148 299.9 646.703 302.163L646.326 302.712L645.739 303.392C640.993 308.557 632.52 312.444 625.493 312.736C619.223 312.996 613.396 311.026 608.681 306.854C606.452 304.882 604.576 302.518 602.371 300.5Z"/>
	<path fill="#838383" d="M592.633 195.896C598.953 194.501 603.426 192.287 607.763 187.391C611.513 183.157 613.704 177.795 614.68 172.266C615.729 166.327 614.303 152.965 618.672 148.764C620.917 146.605 623.405 146.436 626.323 146.519C627.821 147.693 628.065 149.504 628.277 151.288C629.767 163.849 623.966 178.739 616.236 188.406C613.478 191.856 602.194 204.578 598.507 205.164C598.375 204.839 598.429 204.894 598.256 204.677C596.104 201.984 594.825 198.257 592.633 195.896Z"/>
	<path fill="#EC5E31" d="M666.871 115.737C668.104 116.257 669.26 116.667 669.801 117.996C669.939 118.335 669.919 118.299 669.964 118.602C675.996 128.486 679.4 139.37 680.586 150.885C682.301 167.546 680.639 184.125 679.204 200.733L677.19 239.358L677.758 261.601L679.07 279.136C679.411 283.796 679.823 288.722 678.718 293.305C677.256 299.368 674.133 304.247 668.701 307.502C664.71 309.893 660.737 310.213 656.176 310.245C655.66 309.719 654.738 309.433 654.067 309.118C650.528 307.458 649.31 305.351 646.557 302.915L646.326 302.712L646.703 302.163L650.795 303.662C654.932 304.726 659.889 303.777 663.553 301.605C668.475 298.687 672.069 293.962 673.483 288.407C676.074 278.226 673.378 265.822 672.718 255.393L672.225 234.119L674.339 193.028C675.52 179.067 677.146 164.77 676.142 150.755C675.3 138.987 673.003 126.026 666.871 115.737Z"/>
	<path fill="#EC5E31" d="M625.121 102.32C629.593 101.928 634.455 102.392 638.824 103.433C648.553 105.749 657.927 111.634 663.174 120.283C668.964 129.826 671.069 140.922 671.906 151.914C673.916 178.312 668.143 204.965 667.97 231.443L668.455 253.874L669.879 273.623C670.095 276.648 670.814 280.273 670.069 283.221C669.306 286.239 668.047 288.911 665.772 291.098C662.645 294.103 658.105 296.058 653.739 295.881C645.776 295.56 641.793 286.413 640.647 279.647C640.109 276.471 640.274 270.712 638.077 268.376C637.736 268.326 637.03 268.12 636.719 268.175C634.911 268.492 628.57 277.388 627.034 278.894C625.207 280.685 623.126 282.235 620.913 283.515C614.71 287.104 608.295 288.419 601.293 286.529C591.986 284.016 586.577 275.515 583.277 267.08C582.221 264.379 581.731 261.647 580.291 259.097C580.988 257.168 580.168 254.308 580.178 252.259C580.221 243.707 583.572 235.114 588.353 228.131C593.076 221.233 599.328 216.06 605.367 210.405C606.698 209.158 610.294 206.7 610.761 205.067C611.097 203.893 612.457 202.806 613.29 201.9C615.244 199.777 617.204 197.602 618.965 195.316C621.488 192.041 623.497 188.599 625.675 185.104C625.713 186.005 625.598 186.407 626.221 187.133C629.687 179.957 631.823 173.47 633.032 165.568C633.331 163.617 633.775 160.774 633.204 158.867C632.075 155.102 632.756 150.474 631.929 146.51C630.976 141.945 629.294 136.494 625.122 133.879C622.615 132.307 619.333 131.798 616.447 132.534C605.421 135.345 607.02 153.28 605.727 162.061C605.219 165.515 604.263 168.903 602.424 171.896C599.964 175.9 594.764 180.181 590.088 181.165C587.816 181.644 585.285 180.978 583.398 179.656C581.885 178.596 580.67 176.632 580.38 174.803C579.398 168.604 580.87 160.677 582.338 154.648C583.335 150.55 584.143 146.365 585.517 142.372C588.448 133.851 592.846 126.074 598.16 118.853C604.645 110.041 614.346 103.921 625.121 102.32Z"/>
	<path fill="#FEFFFF" d="M642.36 217.299C644.286 216.468 645.309 216.841 647.217 217.655C649.107 218.461 651.842 220.688 652.617 222.657C653.341 224.494 652.794 226.944 651.982 228.632L650.879 229.526C648.576 228.561 647.625 225.856 645.008 225.578C645.146 225.11 645.204 224.663 645.187 224.173C645.115 222.12 643.883 218.671 642.36 217.299Z"/>
	<path fill="#FEFFFF" d="M637.022 105.249C637.831 105.01 638.669 104.847 639.511 105.016C648.967 106.909 657.454 114.784 662.545 122.563C664.477 125.516 667.412 130.404 666.509 134.123C666.161 135.552 665.505 135.786 664.34 136.51L664.144 136.561C664.123 136.56 663.443 136.425 663.411 136.407C663.053 136.2 661.854 133.129 661.508 132.432C660.047 129.488 658.379 126.845 656.172 124.399C652.734 120.59 648.262 117.214 643.555 115.143C641.405 114.197 638.754 113.668 636.982 112.088C636.074 109.538 636.574 107.802 637.022 105.249Z"/>
	<path fill="#293034" d="M645.008 225.578C646.494 228.9 646.116 236.114 645.336 239.605L645.264 239.92C645.429 240.508 645.666 240.856 646.04 241.339L646.178 241.514C645.762 244.359 644.891 247.823 643.743 250.481C641.293 256.157 638.158 258.851 632.492 261.086C630.151 262.01 626.46 262.335 624.106 261.265C620.037 259.414 617.195 255.859 615.622 251.757C613.104 245.191 614.652 236.557 617.458 230.296C620.412 223.708 626.12 215.804 633.176 213.25C635.087 212.558 637.177 212.437 639.03 213.368C640.579 214.146 642.122 215.602 642.36 217.299C643.883 218.671 645.115 222.12 645.187 224.173C645.204 224.663 645.146 225.11 645.008 225.578Z"/>
	<path fill="#EC5E31" d="M634.154 221.27C636.001 221.06 637.032 220.867 638.674 221.978C639.082 222.254 639.396 222.721 639.656 223.127L639.675 224.158L640.869 225.253L640.424 226.656C638.297 228.038 635.583 229.305 633.651 230.86C628.732 234.818 625.017 241.35 623.716 247.477C623.479 248.59 623.471 249.662 623.581 250.794L622.524 252.167C621.558 250.429 619.992 249.174 619.227 247.305C617.923 244.12 618.715 240.05 619.987 236.98C621.575 233.152 625.88 225.66 629.853 224.089C631.441 223.46 632.793 222.291 634.154 221.27Z"/>
	<path fill="#FEFFFF" d="M634.154 221.27C636.001 221.06 637.032 220.867 638.674 221.978C639.082 222.254 639.396 222.721 639.656 223.127L639.675 224.158L639.404 225.012L636.719 225.269C635.067 224.253 634.877 223.016 634.154 221.27Z"/>
	<path fill="#838383" d="M640.424 226.656C642.084 228.854 641.784 232.172 641.402 234.891C640.588 240.701 638.222 248.463 633.368 252.168C631.617 253.505 629.348 253.989 627.166 253.686C625.576 253.466 623.995 252.782 622.524 252.167L623.581 250.794C623.471 249.662 623.479 248.59 623.716 247.477C625.017 241.35 628.732 234.818 633.651 230.86C635.583 229.305 638.297 228.038 640.424 226.656Z"/>
	<path fill="#293034" d="M241.409 229.678L242.262 194.909C243.09 174.284 243.972 150.51 252.107 131.292C254.701 125.162 258.123 119.546 263.063 115.031C272.062 106.804 285.94 103.032 297.957 103.623C309.729 104.201 319.239 110.487 327.13 118.807C329.432 121.233 331.378 124.017 333.639 126.508L335.875 128.671C344.226 133.624 350.336 143.165 354.421 151.714C353.882 164.196 352.703 176.958 353.41 189.435C353.87 197.566 355.803 205.6 356.082 213.67C356.637 229.736 354.552 245.779 357.355 261.763C358.182 266.482 359.739 271.073 361.393 275.558C354.746 290.351 343.375 302.414 328.038 308.281C315.631 313.027 301.288 312.67 289.145 307.202C283.299 304.569 275.996 299.736 272.481 294.184C268.275 290.68 264.705 288.281 261.258 283.851L261.1 283.774C259.811 282.986 258.257 280.777 257.222 279.602C249.476 270.818 245.723 261.472 243.534 250.061L242.81 249.649C243.331 243.369 241.899 236.012 241.409 229.678ZM292.749 112.038C281.372 113.268 271.345 116.048 263.85 125.36C254.141 137.422 251.207 155.239 249.545 170.208C247.894 185.086 247.329 199.894 246.987 214.849C246.768 224.408 245.933 233.986 246.989 243.534C248.437 256.629 253.481 268.056 263.949 276.435C273.585 284.149 286.284 287.388 298.492 286.059L301.68 285.56C315.784 282.803 327.979 274.285 336.003 262.39C344.085 250.41 346.691 236.634 345.546 222.367C344.791 212.959 342.821 203.61 342.295 194.174C342.157 191.706 342.054 189.128 342.38 186.676C342.538 185.482 343.143 184.317 343.198 183.15C343.539 175.917 342.033 167.442 340.637 160.37C337.496 144.457 330.365 127.774 316.43 118.475C309.801 114.052 300.831 110.762 292.749 112.038Z"/>
	<path fill="#EC5E31" d="M261.258 283.851C264.533 285.354 267.478 287.863 270.753 289.515C281.981 295.177 296.431 296.249 308.376 292.264C336.717 282.809 350.873 254.849 349.823 226.234L348.458 210.276C348.171 207.814 346.948 203.585 348.063 201.389C349.316 198.92 347.992 194.817 347.812 192.061C346.781 176.272 346.248 161.016 341.511 145.724C340.478 142.387 339.27 139.022 337.843 135.831C336.708 133.295 333.783 129.391 333.642 126.739L333.639 126.508L335.875 128.671C338.183 133.494 341.112 137.926 343.237 142.857C350.235 159.099 351.886 176.98 352.799 194.444C353.007 198.418 354.35 204.081 353.024 207.814C352.156 210.257 353.047 213.499 353.395 216.05L354.844 228.743C357.086 256.278 344.826 284.327 318.759 296.165C307.085 301.466 292.615 302.251 280.575 297.621L272.481 294.184C268.275 290.68 264.705 288.281 261.258 283.851Z"/>
	<path fill="#838383" d="M335.875 128.671C344.226 133.624 350.336 143.165 354.421 151.714C353.882 164.196 352.703 176.958 353.41 189.435C353.87 197.566 355.803 205.6 356.082 213.67C356.637 229.736 354.552 245.779 357.355 261.763C358.182 266.482 359.739 271.073 361.393 275.558C354.746 290.351 343.375 302.414 328.038 308.281C315.631 313.027 301.288 312.67 289.145 307.202C283.299 304.569 275.996 299.736 272.481 294.184L280.575 297.621C292.615 302.251 307.085 301.466 318.759 296.165C344.826 284.327 357.086 256.278 354.844 228.743L353.395 216.05C353.047 213.499 352.156 210.257 353.024 207.814C354.35 204.081 353.007 198.418 352.799 194.444C351.886 176.98 350.235 159.099 343.237 142.857C341.112 137.926 338.183 133.494 335.875 128.671Z"/>
	<path fill="#EC5E31" d="M292.749 112.038C300.831 110.762 309.801 114.052 316.43 118.475C330.365 127.774 337.496 144.457 340.637 160.37C342.033 167.442 343.539 175.917 343.198 183.15C343.143 184.317 342.538 185.482 342.38 186.676C342.054 189.128 342.157 191.706 342.295 194.174C342.821 203.61 344.791 212.959 345.546 222.367C346.691 236.634 344.085 250.41 336.003 262.39C327.979 274.285 315.784 282.803 301.68 285.56L298.492 286.059C286.284 287.388 273.585 284.149 263.949 276.435C253.481 268.056 248.437 256.629 246.989 243.534C245.933 233.986 246.768 224.408 246.987 214.849C247.329 199.894 247.894 185.086 249.545 170.208C251.207 155.239 254.141 137.422 263.85 125.36C271.345 116.048 281.372 113.268 292.749 112.038ZM291.066 137.359C286.198 139.795 283.632 143.067 281.91 148.215C279.637 155.012 279.614 162.427 279.296 169.512L278.332 200.058C277.967 211.145 276.849 222.344 277.579 233.43C278.014 240.044 278.788 247.434 281.779 253.445C283.499 256.902 286.002 259.806 289.768 261.046C292.164 261.836 294.023 261.641 296.269 260.474L298.627 259.139C303.42 256.854 305.821 252.52 307.534 247.677C311.495 236.477 312.544 224.476 312.589 212.688C312.612 206.677 312.049 200.119 313.537 194.259C315.01 188.453 313.936 180.515 313.171 174.636C311.84 164.414 310.805 153.932 305.348 144.904C303.428 141.729 300.518 138.237 296.775 137.301C294.971 136.85 292.887 137.083 291.066 137.359Z"/>
	<path fill="#FEFFFF" d="M304.077 119.344C308.028 119.746 312.526 121.801 315.915 123.784C324.452 128.78 330.39 138.558 332.829 147.929C333.727 151.38 333.559 153.175 331.72 156.29L330.786 156.067C328.851 154.247 328.702 150.377 327.761 147.894C325.135 140.964 318.757 133.713 312.068 130.487C309.756 129.371 307.225 128.862 304.915 127.793C303.827 127.29 303.289 126.982 302.9 125.8C302.167 123.568 303.159 121.337 304.077 119.344Z"/>
	<path fill="#293034" d="M291.066 137.359C292.887 137.083 294.971 136.85 296.775 137.301C300.518 138.237 303.428 141.729 305.348 144.904C310.805 153.932 311.84 164.414 313.171 174.636C313.936 180.515 315.01 188.453 313.537 194.259C312.049 200.119 312.612 206.677 312.589 212.688C312.544 224.476 311.495 236.477 307.534 247.677C305.821 252.52 303.42 256.854 298.627 259.139L296.269 260.474C294.023 261.641 292.164 261.836 289.768 261.046C286.002 259.806 283.499 256.902 281.779 253.445C278.788 247.434 278.014 240.044 277.579 233.43C276.849 222.344 277.967 211.145 278.332 200.058L279.296 169.512C279.614 162.427 279.637 155.012 281.91 148.215C283.632 143.067 286.198 139.795 291.066 137.359ZM288.899 252.203C289.967 252.835 291.313 253.202 292.558 253.171C295.25 253.102 296.879 251.24 298.554 249.397L299.381 248.267C302.228 243.804 303.848 238.316 304.981 233.193C308.033 219.391 307.113 206.421 307.658 192.43C307.754 189.955 308.766 187.476 309.01 184.975C309.703 177.88 308.604 170.239 307.145 163.314C306.329 159.185 304.613 155.448 302.802 151.676C299.461 151.263 296.702 151.084 293.888 153.322C289.969 156.439 289.374 162.791 288.916 167.464C287.81 178.763 287.921 190.326 287.601 201.673C287.238 214.517 285.578 228.1 286.804 240.895C287.184 244.865 288.22 248.354 288.899 252.203Z"/>
	<path fill="#EC5E31" d="M288.899 252.203C287.685 251.553 286.563 250.41 285.791 249.285C283.274 245.618 282.342 240.729 281.912 236.386C280.554 222.676 282.165 208.035 282.632 194.261C283.058 181.7 282.292 167.841 284.732 155.525C285.422 152.038 286.438 148.85 289.597 146.802C291.768 145.393 294.338 145.042 296.843 145.693C299.709 146.437 301.411 149.295 302.802 151.676C299.461 151.263 296.702 151.084 293.888 153.322C289.969 156.439 289.374 162.791 288.916 167.464C287.81 178.763 287.921 190.326 287.601 201.673C287.238 214.517 285.578 228.1 286.804 240.895C287.184 244.865 288.22 248.354 288.899 252.203Z"/>
	<path fill="#838383" d="M288.899 252.203C288.22 248.354 287.184 244.865 286.804 240.895C285.578 228.1 287.238 214.517 287.601 201.673C287.921 190.326 287.81 178.763 288.916 167.464C289.374 162.791 289.969 156.439 293.888 153.322C296.702 151.084 299.461 151.263 302.802 151.676C304.613 155.448 306.329 159.185 307.145 163.314C308.604 170.239 309.703 177.88 309.01 184.975C308.766 187.476 307.754 189.955 307.658 192.43C307.113 206.421 308.033 219.391 304.981 233.193C303.848 238.316 302.228 243.804 299.381 248.267L298.554 249.397C296.879 251.24 295.25 253.102 292.558 253.171C291.313 253.202 289.967 252.835 288.899 252.203ZM298.554 249.397L299.381 248.267C302.228 243.804 303.848 238.316 304.981 233.193C308.033 219.391 307.113 206.421 307.658 192.43C307.754 189.955 308.766 187.476 309.01 184.975C309.703 177.88 308.604 170.239 307.145 163.314C302.941 166.644 301.906 170.715 301.291 175.862L298.554 249.397Z"/>
	<path fill="#293034" d="M354.421 151.714C355.486 148.843 355.454 144.744 355.947 141.636C357.218 133.627 359.063 125.741 361.209 117.924C364.051 107.571 366.722 96.0587 375.972 89.4341C379.043 87.2354 382.551 85.8221 386.39 86.5712C391.827 87.6325 394.802 92.3927 397.685 96.6178C399.42 97.8836 402.335 101.133 402.66 103.295L402.696 103.608C405.66 104.235 407.758 105.281 409.979 107.382L410.145 107.949L410.451 107.88C412.8 107.286 414.621 104.808 416.509 103.366C424.479 97.277 435.232 94.9316 444.334 99.9552C450.201 103.193 453.886 108.305 457.784 113.553L457.861 114.744C459.159 115.397 459.783 115.441 460.368 116.805C471.185 131.603 473.582 153.658 475.163 171.415L477.224 200.383C478.302 223.117 479.22 246.412 475.704 268.977C473.974 280.087 471.441 296.425 461.612 303.518C456.884 306.93 453.82 305.611 448.602 305.787C447.966 304.233 445.045 303.244 443.727 302.084C441.977 300.543 440.375 298.761 438.788 297.053C438.281 295.727 436.332 293.963 435.384 292.847C433.09 290.147 431.004 287.414 428.994 284.493L428.043 284.798C428.455 287.388 427.748 289.716 427.214 292.231C425.822 298.789 423.716 305.861 419.73 311.347C417.166 314.875 413.728 317.695 409.298 318.364C403.702 319.21 398.084 317.126 393.69 313.718C390.96 311.601 388.542 308.642 386.386 305.942C382.459 303.275 379.145 301.143 376.473 297.077C375.169 296.056 373.908 294.352 372.795 293.1C368.119 287.839 364.556 281.812 361.393 275.558C359.739 271.073 358.182 266.482 357.355 261.763C354.552 245.779 356.637 229.736 356.082 213.67C355.803 205.6 353.87 197.566 353.41 189.435C352.703 176.958 353.882 164.196 354.421 151.714Z"/>
	<path fill="#EC5E31" d="M397.685 96.6178C399.42 97.8836 402.335 101.133 402.66 103.295L402.696 103.608C405.66 104.235 407.758 105.281 409.979 107.382L410.145 107.949C409.98 109.778 408.42 111.455 407.027 112.696C406.638 113.043 406.171 113.248 405.682 113.415C405.828 115.296 403.635 117.601 402.53 119.191C402.355 111.385 400.178 103.952 397.685 96.6178Z"/>
	<path fill="#838383" d="M402.696 103.608C405.66 104.235 407.758 105.281 409.979 107.382L410.145 107.949C409.98 109.778 408.42 111.455 407.027 112.696C406.638 113.043 406.171 113.248 405.682 113.415C406.114 110.813 403.811 106.046 402.696 103.608Z"/>
	<path fill="#EC5E31" d="M376.473 297.077L383.406 300.379C387.334 301.852 391.888 302.166 395.752 300.346C401.826 297.484 405.319 290.662 407.471 284.641C418.422 253.994 409.789 219.961 409.659 188.355C409.626 180.443 409.611 171.984 412.343 164.449C412.95 162.775 413.905 160.946 415.527 160.178C415.842 160.385 416.105 160.606 416.312 160.928C417.737 163.144 418.659 166.372 417.895 168.827C417.494 170.181 417.201 171.892 416.052 172.801C416.319 174.818 415.72 176.783 415.441 178.771C415.017 181.809 414.708 184.952 414.611 188.017C414.498 191.586 415.409 197.028 414.206 200.303C415.904 202.641 415.251 210.444 415.471 213.584C416.478 227.924 418.16 242.226 417.923 256.624C417.812 263.368 417.041 270.106 415.992 276.762C414.541 285.976 411.292 298.951 403.321 304.774C400.038 307.172 396.272 308.119 392.246 307.432L386.386 305.942C382.459 303.275 379.145 301.143 376.473 297.077Z"/>
	<path fill="#EC5E31" d="M457.861 114.744C459.159 115.397 459.783 115.441 460.368 116.805C471.185 131.603 473.582 153.658 475.163 171.415L477.224 200.383C478.302 223.117 479.22 246.412 475.704 268.977C473.974 280.087 471.441 296.425 461.612 303.518C456.884 306.93 453.82 305.611 448.602 305.787C447.966 304.233 445.045 303.244 443.727 302.084C441.977 300.543 440.375 298.761 438.788 297.053C441.198 297.251 443.541 299.058 445.936 299.71C449.148 300.585 452.487 300.04 455.356 298.381C462.221 294.411 465.801 285.057 467.763 277.831C474.899 251.541 473.473 222.642 472.28 195.672L470.086 164.471C468.549 147.798 466.329 129.501 457.861 114.744Z"/>
	<path fill="#838383" d="M416.052 172.801C417.201 171.892 417.494 170.181 417.895 168.827C418.196 169.264 418.858 169.98 419.018 170.452C419.882 173.01 419.634 177.456 419.78 180.223L419.933 214.428C419.497 226.827 418.704 239.583 419.653 251.969C420.204 259.17 421.296 266.379 423.677 273.22C424.874 276.656 428.141 281.467 428.043 284.798C428.455 287.388 427.748 289.716 427.214 292.231C425.822 298.789 423.716 305.861 419.73 311.347C417.166 314.875 413.728 317.695 409.298 318.364C403.702 319.21 398.084 317.126 393.69 313.718C390.96 311.601 388.542 308.642 386.386 305.942L392.246 307.432C396.272 308.119 400.038 307.172 403.321 304.774C411.292 298.951 414.541 285.976 415.992 276.762C417.041 270.106 417.812 263.368 417.923 256.624C418.16 242.226 416.478 227.924 415.471 213.584C415.251 210.444 415.904 202.641 414.206 200.303C415.409 197.028 414.498 191.586 414.611 188.017C414.708 184.952 415.017 181.809 415.441 178.771C415.72 176.783 416.319 174.818 416.052 172.801Z"/>
	<path fill="#FEFFFF" d="M416.052 172.801C416.281 173.163 416.965 173.988 417.039 174.359C417.449 176.433 417.007 179.555 416.991 181.721C416.954 186.881 417.677 193.53 416.488 198.535C416.363 199.063 416.135 199.54 415.85 200L414.206 200.303C415.409 197.028 414.498 191.586 414.611 188.017C414.708 184.952 415.017 181.809 415.441 178.771C415.72 176.783 416.319 174.818 416.052 172.801Z"/>
	<path fill="#EC5E31" d="M404.685 183.911L405.608 185.348L406.615 211.187C408.145 232.613 412.463 263.301 402.822 282.967C400.866 286.958 397.291 291.564 392.864 292.974C389.566 294.025 385.264 292.857 382.263 291.355C373.309 286.872 366.395 275.427 363.321 266.18C358.309 251.101 360.934 233.911 360.731 218.286C360.663 213.088 359.78 207.971 359.494 202.792C359.264 198.627 359.651 194.411 359.334 190.259C358.938 185.086 358.083 180.084 358.029 174.854C357.972 169.357 358.819 164.425 359.449 159.035C360.958 146.134 363.32 133.531 366.966 121.051C368.554 115.612 370.011 110.321 372.572 105.236C374.217 101.969 378.24 96.2789 381.942 95.1752C383.956 94.5743 386.413 94.7265 388.255 95.7926C395.157 99.7874 398.315 111.832 398.442 119.196C398.516 123.495 397.32 129.321 398.543 133.406C398.892 134.57 399.349 134.768 400.391 135.319C401.806 134.347 402.198 132.457 402.885 130.894C403.9 128.585 404.995 126.352 406.4 124.252C409.473 119.656 412.712 116.787 416.849 113.301C420.73 110.029 424.574 106.788 429.696 105.811C435.047 104.791 440.728 106.147 445.188 109.239C456.289 116.935 460.77 132.492 463.099 145.073C468.004 171.57 468.958 199.231 468.839 226.136L467.534 254.877C466.619 265.085 465.194 276.663 459.208 285.264C457.288 288.022 454.296 291.259 450.845 291.801C447.389 292.344 443.903 290.841 441.154 288.839C434.046 283.662 428.456 273.909 426.287 265.484C422.445 250.559 423.775 233.341 424.343 218.045C424.964 201.32 425.597 184.049 422.993 167.456C422.344 163.317 421.03 155.099 417.236 152.63C415.99 151.819 415.194 151.975 413.818 152.217C408.638 155.58 406.833 164.974 406.254 170.667C405.993 173.231 406.116 176.561 404.971 178.873L404.812 179.181C405.315 180.823 405.444 182.31 404.685 183.911Z"/>
	<path fill="#FEFFFF" d="M404.685 183.911C405.08 184.945 405.043 186.842 404.578 187.846C404.017 189.059 403.557 189.395 402.344 189.863C401.561 189.2 401.209 188.939 400.944 187.939C400.299 185.505 400.713 181.858 400.718 179.316C400.729 173.494 400.556 167.51 401.249 161.722C401.492 159.697 401.605 157.67 402.65 155.863C402.922 155.392 403.306 155.421 403.809 155.279L405.029 156.208C406.297 158.924 405.335 163.319 405.246 166.3C405.117 170.583 405.463 174.934 404.812 179.181C405.315 180.823 405.444 182.31 404.685 183.911Z"/>
	<path fill="#FEFFFF" d="M434.939 115.015C436.403 114.712 437.83 114.513 439.329 114.633C442.918 114.921 445.886 117.421 448.128 120.058C451.596 124.136 454.956 128.999 454.521 134.554C453.849 135.748 453.411 136.544 452.148 137.185L449.834 134.855C449.906 134.477 449.953 134.244 449.872 133.863C449.12 130.337 444.781 125.738 441.744 123.976C437.216 121.348 436.751 124.005 432.861 125.025L431.805 123.926C431.444 122.858 431.125 121.809 431.235 120.669C431.513 117.802 432.853 116.734 434.939 115.015Z"/>
	<path fill="#293034" d="M119.726 294.627L119.526 294.433C102.322 277.529 99.2526 256.683 99.0987 233.672L100.394 162.393C101.371 145.67 102.812 127.99 107.707 111.907C111.728 98.6957 118.401 85.7156 128.184 75.8588C136.648 67.3317 148.112 61.0334 160.331 61.0449C175.329 61.0591 190.799 71.4602 201.128 81.7563C204.335 84.9531 206.953 88.631 210.157 91.8536L212.074 93.7237L212.212 94.0975C214.004 98.8024 217.932 103.44 220.417 107.952C226.493 118.985 231.254 132.066 231.941 144.691C232.137 148.298 232.288 151.666 230.841 155.037C227.052 163.861 218.978 172.5 209.964 176.018C203.312 178.614 197.744 177.83 191.01 176.312C186.24 174.308 183.524 172.589 180.673 168.184C175.094 163.548 172.058 155.812 168.912 149.474C167.721 154.933 166.592 160.377 166.068 165.951C165.099 176.271 165.501 186.878 165.538 197.247C165.598 214.451 165.985 231.684 168.807 248.68C170.558 247.208 172.198 245.781 173.195 243.664C176.187 237.314 173.374 228.119 174.43 221.12C175.624 213.204 179.921 203.971 186.477 199.155C190.929 195.885 196.851 194.856 202.236 195.738C212.219 197.373 218.694 203.606 224.35 211.506L228.284 215.852C229.627 219.172 231.005 222.801 231.357 226.392C231.936 232.308 230.915 238.946 230.04 244.809C228.331 256.267 226.458 267.545 221.889 278.29C215.566 293.161 204.421 306.518 189.165 312.627C173.876 318.748 155.14 315.859 140.382 309.447C137.433 308.166 134.451 306.225 131.375 305.323C127.212 302.052 122.896 298.915 119.726 294.627Z"/>
	<path fill="#EC5E31" d="M180.673 168.184C185.706 169.955 191.082 172.098 196.507 171.827C205.295 171.389 212.59 166.742 218.375 160.34C221.585 156.788 225.702 151.201 226.789 146.448C227.426 143.661 227.123 140.193 226.883 137.364C225.876 125.517 221.557 112.898 215.786 102.478C214.564 100.271 210.184 94.4182 210.149 92.0795L210.157 91.8536L212.074 93.7237L212.212 94.0975C214.004 98.8024 217.932 103.44 220.417 107.952C226.493 118.985 231.254 132.066 231.941 144.691C232.137 148.298 232.288 151.666 230.841 155.037C227.052 163.861 218.978 172.5 209.964 176.018C203.312 178.614 197.744 177.83 191.01 176.312C186.24 174.308 183.524 172.589 180.673 168.184Z"/>
	<path fill="#EC5E31" d="M159.114 248.084C154.013 243.99 152.379 235.453 151.293 229.386C148.343 212.915 148.506 195.26 148.445 178.554C148.396 165.481 147.943 152.322 150.302 139.407C151.525 132.712 154.001 125.117 157.933 119.502C159.471 117.307 162.285 115.071 165.006 114.653C166.109 114.484 167.41 114.545 168.327 115.258C169.912 116.49 170.236 118.351 170.511 120.22C163.903 123.048 161.396 127.008 158.788 133.521C152.338 149.623 153.34 167.946 153.434 184.957C153.516 199.827 153.817 214.632 155.455 229.421C155.849 232.978 156.373 236.509 157.167 240.003C157.704 242.364 159.411 245.777 159.114 248.084Z"/>
	<path fill="#EC5E31" d="M119.726 294.627C122.243 295.392 124.508 297.507 126.709 298.906C140.363 307.582 160.953 312.515 176.997 308.867C191.926 305.473 203.591 295.321 211.562 282.544C219.921 269.144 222.98 253.857 225.12 238.434C225.853 233.153 226.783 227.21 226.471 221.89C226.263 218.339 225.153 214.953 224.35 211.506L228.284 215.852C229.627 219.172 231.005 222.801 231.357 226.392C231.936 232.308 230.915 238.946 230.04 244.809C228.331 256.267 226.458 267.545 221.889 278.29C215.566 293.161 204.421 306.518 189.165 312.627C173.876 318.748 155.14 315.859 140.382 309.447C137.433 308.166 134.451 306.225 131.375 305.323C127.212 302.052 122.896 298.915 119.726 294.627Z"/>
	<path fill="#838383" d="M159.114 248.084C159.411 245.777 157.704 242.364 157.167 240.003C156.373 236.509 155.849 232.978 155.455 229.421C153.817 214.632 153.516 199.827 153.434 184.957C153.34 167.946 152.338 149.623 158.788 133.521C161.396 127.008 163.903 123.048 170.511 120.22C170.466 123.308 170.596 126.632 170.103 129.678C169.523 133.259 168.105 136.757 167.783 140.377C167.508 143.455 168.186 146.502 168.912 149.474C167.721 154.933 166.592 160.377 166.068 165.951C165.099 176.271 165.501 186.878 165.538 197.247C165.598 214.451 165.985 231.684 168.807 248.68C167.538 249.232 166.206 249.622 164.836 249.828C162.499 250.179 160.941 249.472 159.114 248.084Z"/>
	<path fill="#EC5E31" d="M157.468 69.4997C163.756 69.2339 168.742 69.7213 174.551 72.2594C194.731 81.0756 209.217 97.3905 217.111 117.714C218.729 121.88 224.579 139.1 222.96 142.635C219.928 149.254 214.416 156.415 207.94 160.12C201.642 163.723 194.704 164.197 187.768 162.25C186.436 161.876 183.47 161.079 182.475 160.205C181.819 159.629 181.127 158.276 180.616 157.533C178.891 155.02 177.106 152.458 175.621 149.795C173.19 145.436 173.423 142.621 174.739 137.973C173.777 135.799 174.666 132.594 174.782 130.231C175.055 124.656 175.392 117.877 173.316 112.622C172.373 110.235 170.656 107.664 168.212 106.646C166.126 105.778 164.132 106.053 162.109 106.943C156.154 109.563 152.555 116.745 150.387 122.49C147.469 130.222 145.909 138.215 145.044 146.412C143.804 158.174 144.197 170.265 144.34 182.078C144.539 198.493 144.322 215.431 147.307 231.612C148.326 237.129 149.484 242.753 151.822 247.883C153.735 252.08 156.623 256.233 161.155 257.829C163.69 258.721 166.636 258.252 169.001 257.066C172.386 255.368 177.193 253.096 178.37 249.185L178.95 247.131C179.807 244.09 179.394 240.595 179.192 237.474C178.537 227.394 180.539 218.835 186.19 210.351C188.71 207.364 191.052 205.033 195.031 204.271C201.001 203.128 207.489 204.969 212.451 208.34C216.501 211.091 221.067 215.559 221.989 220.584C222.806 225.037 221.851 230.107 221.274 234.579C219.193 250.714 216.143 266.172 206.57 279.703C198.878 290.575 187.6 298.775 174.316 301.004C158.156 303.716 138.264 298.693 125.07 289.2C113.679 281.004 107.29 269.742 105.054 256.001C103.072 243.819 103.967 230.735 104.102 218.427L106.103 158.157C107.012 147.073 108.136 135.587 110.707 124.76C113.476 113.104 118.435 100.586 125.486 90.84C133.743 79.4264 143.356 71.7678 157.468 69.4997Z"/>
	<path fill="#FEFFFF" d="M211.529 213.021C211.859 213.096 212.178 213.184 212.488 213.323C214.393 214.174 215.736 216.949 216.482 218.816C218.852 224.75 220.232 233.744 217.659 239.75L217.274 239.629C216.246 239.226 215.434 238.83 215.08 237.706C214.131 234.697 214.808 230.871 214.1 227.71C213.364 224.419 211.408 222.528 210.307 219.581C209.479 217.364 210.557 214.992 211.529 213.021Z"/>
	<path fill="#FEFFFF" d="M191.833 92.5494C192.247 92.5919 192.641 92.6938 193.003 92.9066C194.594 93.8422 196.06 95.9966 197.181 97.4244C202.746 104.508 207.022 112.756 208.856 121.611C209.717 125.766 210.613 132.801 208.209 136.474C207.332 135.914 206.509 135.602 206.062 134.625C205.275 132.904 205.535 130.08 205.264 128.165C204.766 124.648 203.914 121.092 202.585 117.798C201.221 114.415 199.489 111.065 197.436 108.048C195.443 105.119 191.167 101.681 190.331 98.2245C189.8 96.0312 190.773 94.3718 191.833 92.5494Z"/>
</svg>
