<?xml version="1.0" encoding="utf-8" ?>
<svg xmlns="http://www.w3.org/2000/svg" xmlns:xlink="http://www.w3.org/1999/xlink" width="100" height="100">
	<path fill="#283034" transform="scale(0.1 0.1)" d="M441.368 39.649C444.801 39.1873 447.851 39.3867 451.056 40.7712C459.97 44.623 466.388 54.7619 471.591 62.5258C485.412 83.1523 496.085 104.99 505.78 127.795C509.744 125.319 513.017 123.899 517.768 124.491C522.756 125.113 526.789 130.151 529.606 133.884L543.075 113.822C549.553 105.237 556.587 97.1699 563.973 89.3555C570.88 82.0483 603.488 50.0992 612.597 49.1629C615.592 48.8551 617.791 50.2865 620.044 52.0809C626.439 57.1737 629.314 65.6539 632.306 72.945C643.275 99.6767 650.484 128.715 653.955 157.367C663.315 151.783 673.091 146.993 682.854 142.164C689.814 138.721 700.491 131.841 708.496 132.385C711.169 132.567 713.571 133.684 715.361 135.679C718.609 139.298 719.684 144.805 720.485 149.482C722.988 164.105 722.444 179.476 721.594 194.231L751.921 186.281C768.227 182.485 784.45 180.008 801.025 177.775C807.222 176.941 813.595 175.429 819.869 175.547C823.518 175.616 827.937 176.189 831.013 178.268C833.531 179.97 835.003 183.31 835.511 186.21L835.636 186.984C837.47 197.442 833.614 209.045 831.413 219.238C827.312 238.233 823.062 257.019 816.224 275.259L824.893 273.193C843.069 269.12 861.979 268.498 880.371 271.462C885.266 272.25 890.973 273.147 895.131 275.994C897.679 277.737 899.168 280.132 899.638 283.161C900.339 287.676 898.76 292.737 897.198 296.975C894.601 304.021 890.566 310.419 886.574 316.743C878.033 330.273 868.177 342.836 858.6 355.627C876.539 361.481 950.493 387.637 960.193 399.066C962.052 401.257 963.563 404.387 963.213 407.333C962.654 412.041 959.592 415.999 956.53 419.42C950.957 425.649 943.978 430.545 937.44 435.692L904.02 461.41C907.5 462.542 910.988 464.472 914.244 466.17C923.987 471.251 933.055 477.116 941.956 483.528C945.328 485.956 949.177 488.424 951.896 491.589C953.488 493.443 954.63 495.879 955.313 498.209C957.959 507.235 955.873 519.476 951.193 527.581C942.025 543.463 920.524 552.056 904.421 558.893C887.983 565.873 871.827 571.738 854.557 576.385C868.187 588.374 880.595 601.577 893.204 614.611C898.674 620.266 904.818 625.341 909.125 631.997C914.001 639.533 915.886 648.924 913.954 657.72C912.091 666.205 906.295 675.483 898.917 680.155C882.619 690.479 863.86 693.239 844.953 694.014C829.529 694.647 813.211 693.647 798.146 690.12L797.52 689.969C796.518 691.891 795.511 693.908 794.072 695.542C785.735 705.004 769.99 705.612 758.329 706.368C778.938 737.778 794.044 775.75 786.886 813.85C784.22 828.04 778.563 840.932 772.169 853.76C769.154 859.809 765.772 867.693 759.821 871.469C757.668 872.836 754.916 873.371 752.424 872.78C741.165 870.114 725.664 837.872 719.336 827.119L717.678 834.932C713.786 852.165 707.398 867.883 699.578 883.682C696.025 890.86 693.007 899.281 685.799 903.599C678.533 907.951 669.934 907.783 662.024 905.615C654.978 903.684 649.223 899.811 643.462 895.434C624.439 880.981 610.288 860.925 598.357 840.497C596.568 853.89 594.096 867.167 590.213 880.124C582.769 904.96 570.782 928.431 556.187 949.804C551.124 957.22 544.033 969.641 534.252 971.135C526.317 972.346 517.495 965.813 511.417 961.41C501.967 954.277 494.072 944.89 486.426 935.919C479.689 928.015 473.076 920.15 467.325 911.482C450.506 886.131 442.174 858.63 434.854 829.493C426.322 838.582 417.772 847.94 408.031 855.764C403.418 859.468 398.177 863.243 392.567 865.266C388.04 866.898 381.439 868.254 376.993 865.803C372.388 863.264 370.697 856.384 369.307 851.701C351.459 875.948 333.028 901.29 309.763 920.731C302.414 926.872 291.126 936.365 280.793 935.005C278.044 934.643 275.452 931.84 273.863 929.688C268.842 922.883 267.853 913.791 266.163 905.753C260.536 878.99 259.112 853.039 261.753 825.808C263.11 811.824 265.626 798.123 267.898 784.274L267.036 785.079C244.961 805.683 219.767 823.799 190.677 832.906C185.747 834.449 178.608 836.753 173.434 836.34C171.135 836.156 169.174 835.006 167.788 833.18C165.568 830.256 165.413 825.219 165.824 821.743C168.366 800.226 178.131 779.103 187.143 759.572C197.669 736.76 209.145 714.277 222.782 693.159C200.47 699.557 176.473 701.939 153.336 702.123C125.962 702.34 97.4006 699.31 70.9662 692.151C64.6614 690.443 56.3604 688.556 51.6656 683.678C49.3162 681.237 48.1797 678.179 48.4162 674.792C48.9351 667.36 54.3976 659.248 57.9195 652.806C63.2491 643.058 68.8059 633.394 75.1899 624.29C93.8909 597.618 117.858 573.831 142.933 553.19C138.856 551.641 133.287 551.296 128.97 550.402L108.108 545.18C93.8986 541.159 79.8742 536.034 66.1181 530.674C60.5736 528.513 54.5088 526.57 49.4228 523.472C46.6339 521.774 44.2382 519.73 42.7097 516.806C40.5993 512.768 40.8265 506.812 42.3385 502.599C45.2843 494.391 52 488.387 58.9127 483.444C77.8881 469.874 100.38 463.039 123.503 461.289C128.77 460.89 134.125 460.761 139.404 460.911C142.532 461 147.067 461.945 150.055 461.314C153.077 460.677 156.815 457.983 159.627 456.575L175.963 448.808C151.156 432.942 125.533 417.241 104.754 396.132C100.184 391.49 95.9886 386.522 91.8444 381.5C84.6763 372.815 76.3753 362.844 76.5492 350.943C76.6628 343.173 81.0089 336.867 86.4805 331.691C92.2317 326.251 99.2333 322.351 106.312 318.922C109.832 317.216 113.475 315.384 117.241 314.291C130.781 310.365 145.718 310.376 159.719 309.587C175.818 308.681 191.697 307.641 207.849 308.025C207.498 302.213 206.799 296.646 208.266 290.906C209.678 285.378 213.14 279.745 218.228 276.906C227.609 271.67 241.862 274.986 251.563 277.59L246.75 268.914C236.507 248.398 231.591 224.256 231.784 201.406C231.856 192.837 232.513 183.955 235.279 175.784C237.245 169.979 241.016 162.943 246.955 160.356C254.688 156.988 266.448 163.898 273.444 166.96L289.391 173.871C289.759 152.653 289.033 124.406 303.904 107.451C309.823 100.703 317.49 96.9977 326.439 96.4243C334.043 95.9371 341.835 98.0244 348.907 100.653C370.93 108.837 387.806 124.033 405.069 139.424C406.593 115.15 411.485 90.7668 420.566 68.1569C424.954 57.2326 429.821 44.5701 441.368 39.649Z"/>
	<path fill="#DA9124" transform="scale(0.1 0.1)" d="M462.788 434.814L463.647 435.245C463.506 436.782 463.735 438.071 462.651 439.209L456.299 439.172L454.639 438.889L454.876 438.327L462.788 434.814Z"/>
	<path fill="#DA9124" transform="scale(0.1 0.1)" d="M426.059 545.125L434.058 544.952C433.985 548.416 434.397 562.669 433.009 564.697L431.806 563.704L420.963 546.143C422.04 544.967 424.444 545.23 426.059 545.125Z"/>
	<path fill="#DA9124" transform="scale(0.1 0.1)" d="M497.071 584.79L518.311 585.754C521.712 585.903 525.548 585.577 528.873 586.198C530.084 586.424 529.62 586.145 530.334 587.158C529.154 588.745 527.063 589.207 525.252 589.97C515.793 593.086 506.895 594.287 497.028 595.057L497.071 584.79Z"/>
	<path fill="#DA9124" transform="scale(0.1 0.1)" d="M572.817 465.86C580.029 474.182 585.092 485.174 587.053 495.978L572.42 494.987L572.817 465.86Z"/>
	<path fill="#DA9124" transform="scale(0.1 0.1)" d="M491.028 428.419C493.214 427.977 496.212 428.214 498.483 428.133L498.138 440.006L478.638 439.475L468.506 439.267L469.06 432.516C476.333 430.489 483.515 429.147 491.028 428.419Z"/>
	<path fill="#DA9124" transform="scale(0.1 0.1)" d="M503.622 428.132C514.428 429.287 524.104 431.533 534.186 435.706L534.063 442.017L503.158 440.366L503.622 428.132Z"/>
	<path fill="#DA9124" transform="scale(0.1 0.1)" d="M449.839 581.942L491.69 584.487L491.558 597.018C475.301 595.912 463.255 591.002 449.839 581.942Z"/>
	<path fill="#DA9124" transform="scale(0.1 0.1)" d="M440.607 544.688L456.794 544.402L455.454 571.265L454.346 571.828L438.834 570.662L439.153 545.093L440.607 544.688Z"/>
	<path fill="#DA9124" transform="scale(0.1 0.1)" d="M572.099 505.399L588.031 506.529C588.051 517.652 585.381 527.849 581.546 538.229L580.047 541.841L570.888 540.898L572.099 505.399Z"/>
	<path fill="#DA9124" transform="scale(0.1 0.1)" d="M437.333 449.951C438.269 449.662 438.525 449.648 439.453 449.739C440.409 452.489 439.35 457.55 439.134 460.531L437.069 487.038L416.873 485.912L414.795 485.907L414.198 485.107C418.297 471.926 426.583 458.701 437.333 449.951Z"/>
	<path fill="#DA9124" transform="scale(0.1 0.1)" d="M441.111 497.083L459.469 498.169L457.412 534.207L439.435 534.579L441.111 497.083Z"/>
	<path fill="#DA9124" transform="scale(0.1 0.1)" d="M458.76 449.465C459.947 449.485 461.006 449.495 462.158 449.834C463.022 453.353 461.851 458.949 461.582 462.619L459.941 488.102L447.144 487.618C445.697 487.569 443.365 487.79 442.225 486.893C442.076 482.149 442.909 477.054 443.322 472.307L444.966 449.529L458.76 449.465Z"/>
	<path fill="#DA9124" transform="scale(0.1 0.1)" d="M536.618 547.563L564.982 550.544L564.457 565.253C562.462 567.472 560.181 569.32 557.894 571.225C556.32 572.58 552.929 575.612 551.098 576.323C550.234 576.659 548.107 576.375 547.165 576.349L536.036 576.023L536.618 547.563Z"/>
	<path fill="#DA9124" transform="scale(0.1 0.1)" d="M462.029 544.38L492.862 544.533L491.938 574.256L460.973 572.356L462.029 544.38Z"/>
	<path fill="#DA9124" transform="scale(0.1 0.1)" d="M413.098 496.338L436.214 496.959L435.085 513.305C434.829 520.076 435.277 527.508 434.1 534.162L432.861 534.735L415.865 535.202C411.383 524.235 408.217 508.392 411.314 496.756L413.098 496.338Z"/>
	<path fill="#DA9124" transform="scale(0.1 0.1)" d="M498.039 544.776L531.131 547.019L530.244 575.67C526.406 575.937 522.427 575.551 518.578 575.405L497.451 574.593L498.039 544.776Z"/>
	<path fill="#DA9124" transform="scale(0.1 0.1)" d="M537.302 502.938L566.819 504.98C567.468 508.121 566.762 512.544 566.617 515.786L565.467 539.307C565.125 539.546 564.85 539.935 564.442 540.024C562.234 540.504 557.124 539.164 554.772 538.866L536.727 536.958L537.302 502.938Z"/>
	<path fill="#DA9124" transform="scale(0.1 0.1)" d="M464.333 498.512L495.061 500.085L493.163 534.561L462.725 534.168L464.333 498.512Z"/>
	<path fill="#DA9124" transform="scale(0.1 0.1)" d="M500.049 500.413L532.754 502.673L531.462 536.53L498.529 534.698L500.049 500.413Z"/>
	<path fill="#DA9124" transform="scale(0.1 0.1)" d="M538.836 452.956L556.342 454.008C557.945 454.127 560.749 453.967 562.233 454.465C563.884 455.019 566.408 458.366 567.643 459.668C568.192 464.121 567.874 468.913 567.865 473.409C567.851 480.486 567.939 487.644 567.217 494.691L537.923 492.876C537.103 489.526 537.904 484.484 538.002 480.977L538.836 452.956Z"/>
	<path fill="#DA9124" transform="scale(0.1 0.1)" d="M467.43 449.531L497.642 450.336L495.502 490.061L464.886 488.377L467.43 449.531Z"/>
	<path fill="#DA9124" transform="scale(0.1 0.1)" d="M502.61 450.639L533.85 452.574L533.029 491.943L531.929 492.432L500.481 490.422L502.61 450.639Z"/>
	<path fill="#3FE0FE" transform="scale(0.1 0.1)" d="M704.167 143.177C705.363 143.087 706.663 142.922 707.855 143.091C709.802 143.368 711.223 144.383 712.364 145.922C715.04 149.53 715.463 155.325 715.934 159.632C717.28 171.932 716.773 184.217 715.9 196.533C715.07 208.238 713.817 219.856 711.769 231.416C708.982 247.141 705.09 262.856 700.567 278.172C699.826 280.683 698.901 285.548 697.364 287.508C696.299 288.865 691.842 290.985 690.176 292.053L676.441 301.408L678.944 286.741C682.319 267.235 683.867 247.107 682.812 227.329C682.261 216.997 679.707 194.083 671.738 187.281C666.807 183.071 661.414 182.954 655.303 183.517L654.699 166.948C662.763 161.832 671.719 157.726 680.278 153.514C688.009 149.71 695.76 145.259 704.167 143.177Z"/>
	<path fill="#3FE0FE" transform="scale(0.1 0.1)" d="M124.816 471.885L134.149 471.583L129.702 475.837L134.257 488.281C135.714 491.826 137.976 494.607 140.098 497.752C153.094 517.008 173.436 529.397 194.325 538.66L211.397 545.471C205.799 546.35 199.637 546.112 193.976 546.084C176.376 545.995 158.976 544.266 141.591 541.627C131.851 539.936 122.114 538.139 112.549 535.617C103.65 533.271 95.4922 529.913 86.8557 526.899C75.762 523.027 63.8163 519.869 53.6514 513.859C50.6755 512.099 48.614 510.197 46.5167 507.464C47.9671 505.087 49.7002 502.848 51.5137 500.737C68.9474 480.446 99.388 473.995 124.816 471.885Z"/>
	<path fill="#3FE0FE" transform="scale(0.1 0.1)" d="M851.767 364.076C877.974 373.159 903.687 382.407 929.019 393.755C938.736 398.108 948.412 401.755 956.893 408.366C949.714 416.11 941.776 422.305 933.461 428.771L906.494 449.203C904.752 450.469 895.81 457.4 894.496 457.592C894.097 457.651 891.666 456.588 891.143 456.407L880.564 453.096C868.294 449.722 855.891 447.793 843.32 446.008C851.588 439.056 859.001 430.719 861.132 419.802C862.021 415.249 861.792 409.614 858.991 405.739C852.595 396.893 836.911 396.591 827.038 394.836C827.625 392.585 831.615 388.885 833.285 386.848L851.767 364.076Z"/>
	<path fill="#3FE0FE" transform="scale(0.1 0.1)" d="M325.219 107.122C329.124 106.776 333.588 107.199 337.407 108.102C363.916 114.365 385.409 133.609 404.704 151.894L405.036 173.48L396.298 167.677C390.784 164.68 383.635 162.773 377.467 164.767C367.102 168.118 361.683 177.641 357.182 186.838C353.679 195.273 351.693 204.313 349.785 213.215L294.686 176.718L295.508 154.966C296.159 142.391 296.875 126.949 305.118 116.726C310.365 110.219 317.222 108.048 325.219 107.122Z"/>
	<path fill="#3FE0FE" transform="scale(0.1 0.1)" d="M816.708 186.235L818.896 186.095C823.563 185.968 826.533 186.938 829.869 190.119C831.39 199.21 828.307 208.666 826.412 217.54C822.62 235.295 818.576 253.228 812.103 270.224C811.464 271.902 810.449 275.849 809.303 277.102C807.834 278.71 801.66 280.166 799.38 281.026L787.669 285.946C787.428 282.778 787.112 279.331 786.21 276.276C784.692 271.134 781.534 266.947 776.686 264.528C763.462 257.931 745.084 266.362 732.302 270.774L704.558 283.516C712.387 257.427 717.371 231.367 720.621 204.351C728.311 201.527 736.74 199.677 744.709 197.82C768.552 192.266 792.426 189.076 816.708 186.235Z"/>
	<path fill="#3FE0FE" transform="scale(0.1 0.1)" d="M764.482 399.636C787.97 398.823 810.755 403.454 833.867 406.613C841.092 407.601 850.622 409.013 855.302 415.16C855.644 418.092 855.126 420.611 853.991 423.34C851.853 428.48 847.274 432.91 843.076 436.419C828.458 448.639 809.325 457.046 791.863 464.441L772.229 472.311C770.654 472.935 766.73 474.94 765.137 474.773C764.579 474.715 763.618 474.157 763.063 473.933C733.078 460.735 700.929 450.922 668.544 446.001C683.787 435.06 698.612 423.638 712.328 410.808C714.902 408.401 717.65 405.007 721.248 404.337L764.482 399.636Z"/>
	<path fill="#3FE0FE" transform="scale(0.1 0.1)" d="M853.728 279.995C864.838 279.648 876.346 281.062 886.994 284.259C888.676 284.764 891.489 285.383 892.823 286.505C893.574 287.136 893.571 287.501 893.6 288.406C893.904 297.897 879.882 315.399 874.161 323.341C856.717 347.561 838.263 371.524 818.162 393.615C804.011 390.501 788.552 389.847 774.11 389.222L730.682 392.619C749.777 371.664 767.212 348.577 778.444 322.367L783.17 309.863L785.569 301.514C785.999 299.744 786.124 297.485 787.18 296.013C807.653 285.796 831.011 281.119 853.728 279.995Z"/>
	<path fill="#3FE0FE" transform="scale(0.1 0.1)" d="M441.458 49.9257C442.886 49.8267 444.323 49.7564 445.734 50.0552C456.051 52.239 464.819 67.258 470.273 75.4623C481.269 92.0052 490.346 109.8 498.2 128.023C498.616 128.987 500.474 132.417 500.371 133.13C500.35 133.278 499.142 134.631 499.032 134.768C497.146 137.112 495.315 139.488 493.661 142.003C488.857 149.305 484.82 157.127 481.127 165.041C470.538 187.738 464.628 213.004 459.756 237.467L457.831 247.383C445.633 222.752 430.32 198.592 411.143 178.8C410.376 166.641 409.715 154.541 410.232 142.351C411.264 117.962 416.305 93.309 425.46 70.6565C428.802 62.3867 432.832 53.6186 441.458 49.9257Z"/>
	<path fill="#3FE0FE" transform="scale(0.1 0.1)" d="M830.484 455.425C836.783 455.538 843.291 456.434 849.539 457.266C869.012 459.858 887.4 464.792 905.135 473.387C914.587 477.968 923.597 483.309 932.328 489.132C938.931 493.535 947.978 498.688 950.524 506.727C951.812 510.793 951.021 514.92 949.081 518.632C938.659 538.576 892.303 554.254 871.275 561.266L864.075 563.363C861.077 564.229 845.929 568.807 844.091 568.12C842.069 567.364 839.085 564.531 837.143 563.238C833.85 561.046 830.415 559.108 826.953 557.2C834.273 554.32 842.135 551.156 846.432 544.102C848.37 540.92 849.31 537.188 848.255 533.523C846.25 526.558 838.769 521.921 833.409 517.573C815.683 503.191 797.117 491.317 777 480.563C795.317 473.095 813.507 465.663 830.484 455.425Z"/>
	<path fill="#3FE0FE" transform="scale(0.1 0.1)" d="M669.577 690.017C676.473 693.55 683.188 696.903 690.588 699.268C708.896 705.118 728.745 705.868 747.816 706.264C752.912 712.265 757.368 719.484 761.257 726.318C768.173 738.473 773.9 751.282 777.92 764.691C780.245 772.45 782.287 780.647 782.918 788.74C784.63 810.692 777.367 831.33 767.093 850.362C765.539 853.356 763.537 857.365 761.205 859.765C759.739 861.274 757.664 862.43 755.506 862.335C751.472 862.157 747.977 858.252 745.628 855.283C741.469 850.027 738.44 843.988 735.182 838.162L725.212 821.631L702.477 789.21C694.704 778.43 687.132 767.489 678.646 757.246L679.499 755.383C682.168 749.233 682.445 742.693 682.051 736.08C681.102 720.187 675.384 704.707 669.577 690.017Z"/>
	<path fill="#3FE0FE" transform="scale(0.1 0.1)" d="M249.244 170.043C256.004 170.249 261.239 173.209 267.346 175.672C297.195 187.711 322.646 204.424 348.268 223.672C345.412 259.615 346.24 296.062 350.807 331.836L343.719 326.567C325.162 313.24 305.614 302.629 285.27 292.314L267.181 283.542C264.844 282.329 262.971 279.21 261.439 277.132C253.078 265.787 247.218 253.487 243.18 239.994C237.963 222.56 232.682 191.254 242.271 174.75C243.912 171.926 246.202 170.86 249.244 170.043Z"/>
	<path fill="#3FE0FE" transform="scale(0.1 0.1)" d="M432.75 577.343L440.624 585.402C432.612 592.074 425.395 599.882 418.334 607.531L397.51 631.186C395.677 633.482 393.583 636.752 394.511 639.893C394.905 641.228 395.338 641.359 396.484 641.883C399.224 640.623 402.084 636.054 404.059 633.711C416.889 618.495 430.603 602.553 446.408 590.378L452.548 594.898L437.942 627.361C435.305 633.074 430.627 640.229 429.479 646.331C429.142 648.122 429.638 648.973 430.664 650.396L431.641 650.508C434.977 648.259 437.74 640.091 439.5 636.354L457.242 597.698L464.709 601.216C457.179 619.247 448.887 636.439 437.812 652.588C431.281 662.11 423.949 670.673 416.164 679.174C407.323 688.366 397.095 696.09 386.971 703.792C357.087 726.528 325.888 746.358 290.419 759.19C299.978 727.153 311.292 693.94 331.34 666.733C339.887 655.135 350.263 644.362 360.527 634.274C382.556 612.622 407.146 594.478 432.75 577.343Z"/>
	<path fill="#3FE0FE" transform="scale(0.1 0.1)" d="M511.364 135.318C513.652 135.199 515.833 135.363 517.957 136.298C525.436 139.587 529.796 149.358 532.623 156.452C537.51 168.716 540.249 181.883 542.659 194.824C546.528 215.605 548.921 236.716 550.886 257.754L551.819 268.373C551.866 268.945 552.202 270.744 552.055 271.215C551.797 272.041 550.242 273.654 549.666 274.428L543.931 282.299L525.622 310.568C515.239 328.209 506.403 346.831 498.276 365.602L496.28 370.723L489.917 334.527C483.997 306.767 474.141 280.418 461.72 254.954C467.287 225.781 472.985 194.95 485.824 167.969C490.297 158.568 501.186 138.883 511.364 135.318Z"/>
	<path fill="#3FE0FE" transform="scale(0.1 0.1)" d="M336.263 645.735C337.172 645.58 337.613 645.616 338.502 645.752L338.549 646.561C319.844 669.718 305.977 695.125 296.32 723.258L288.415 746.401C287.535 748.904 286.932 752.267 285.534 754.504C283.563 757.657 280.512 760.623 277.995 763.384C270.217 771.916 261.854 779.753 252.893 787.027C236.678 800.188 195.531 827.968 174.913 825.83C174.363 825.564 174.423 825.614 173.818 825.198C172.371 824.203 171.441 823.077 171.184 821.309C170.902 819.362 171.865 817.047 172.421 815.186L176.601 801.784C194.034 749.024 223.246 699.872 257.944 656.688L336.263 645.735Z"/>
	<path fill="#3FE0FE" transform="scale(0.1 0.1)" d="M589.271 734.034L597.509 740.536C612.349 752.009 629.518 760.936 647.634 765.869C651.673 766.969 656.376 768.414 660.582 767.812L661.377 767.686C665.716 767.028 668.938 765.7 672.811 763.733L715.064 821.06C711.353 842.762 703.917 862.578 693.816 882.079C691.929 885.668 689.251 890.855 685.788 893.027C680.042 896.631 671.963 897.539 665.467 895.813L664.551 895.559C654.083 892.734 645.157 885.712 637.534 878.238C625.47 866.41 615.336 852.69 606.596 838.264C598.894 825.551 591.713 812.208 586.182 798.393C583.705 792.207 581.856 785.715 579.908 779.345C579.365 777.57 577.307 773.027 577.594 771.286C578.202 767.597 580.546 763.097 581.783 759.457L589.271 734.034Z"/>
	<path fill="#3FE0FE" transform="scale(0.1 0.1)" d="M451.846 642.334L452.819 642.262C453.304 656.292 454.347 670.273 457.09 684.065C459.193 694.643 462.367 705.027 465.889 715.211L472.456 733.043C473.456 735.585 475.45 739.176 475.849 741.811C476.144 743.749 474.097 748.22 473.451 750.187C468.431 765.484 462.218 780.521 453.908 794.345C450.317 800.318 445.738 805.942 441.356 811.346C431.663 823.297 421.058 834.451 409.033 844.082C403.917 848.18 398.632 852.212 392.763 855.171L389.53 856.362C386.668 857.22 383.436 857.459 380.765 855.924C376.706 853.589 375.088 848.506 374.076 844.214C372.334 836.827 372.41 828.687 372.034 821.12C371.65 813.364 371.053 805.623 371.165 797.852C371.481 775.802 374.504 754.239 378.885 732.666L381.169 722.027C381.386 721.129 381.649 719.036 382.093 718.307C382.491 717.655 384.264 716.495 384.91 715.965L392.578 709.907C401.069 703.151 409.25 695.968 416.99 688.363C425.741 679.765 433.545 670.542 440.513 660.433L451.846 642.334Z"/>
	<path fill="#3FE0FE" transform="scale(0.1 0.1)" d="M558.925 581.952C575.549 591.276 592.377 600.623 607.07 612.87C617.111 621.239 625.087 631.076 632.836 641.54C650.687 665.646 664.444 691.02 672.595 720.01C674.324 726.157 676.214 732.395 676.755 738.781C677.092 742.759 677.264 748.4 674.374 751.507C670.579 755.587 665.17 757.646 659.658 757.603C650.776 757.533 642.355 753.655 634.425 750.04C627.004 746.657 619.553 743.408 612.549 739.196C600.35 731.861 590.001 722.664 580.03 712.587C572.559 704.87 565.961 696.286 559.741 687.548C550.443 674.484 542.063 660.545 536.535 645.446C531.161 630.766 528.527 615.916 526.379 600.489L536.138 596.345C541.562 607.775 546.381 619.17 553.853 629.495C555.538 631.823 557.229 634.537 559.57 636.218L560.791 636.011C561.85 634.779 562.541 633.646 563.083 632.1C563.559 630.741 563.916 628.614 563.247 627.265C561.595 623.929 557.961 620.665 555.807 617.456C551.556 611.124 548.34 604.269 545.032 597.421L564.719 612.385C567.854 614.874 573.263 620.322 577.055 621.309C577.856 621.517 578.422 621.034 579.015 620.522C580.615 619.14 581.303 615.237 581.013 613.281C580.897 612.494 580.873 612.44 580.322 611.853C578.017 609.395 573.89 607.155 571.111 605.067L549.969 588.613L558.925 581.952Z"/>
	<path fill="#3FE0FE" transform="scale(0.1 0.1)" d="M808.899 561.197C809.176 560.993 810.589 560.968 810.917 560.972C813.556 561.005 817.547 563.5 819.877 564.702C845.312 577.821 865.611 599.001 885.16 619.423C889.831 624.303 894.949 628.89 899.426 633.923C904.282 639.382 909.527 647.017 908.897 654.671C908.446 660.15 905.271 664.757 901.099 668.138C894.737 673.295 886.72 676.386 878.925 678.608C859.47 684.156 839.219 684.683 819.22 682.48C816.461 682.238 797.929 680.042 796.799 678.997C795.802 678.074 794.551 674.624 793.867 673.323L787.787 662.962C774.236 641.424 763.417 617.343 745.861 598.636C737.31 589.524 727.264 582.016 716.836 575.214C730.382 570.635 746.554 569.36 760.742 567.762L808.899 561.197Z"/>
	<path fill="#3FE0FE" transform="scale(0.1 0.1)" d="M611.412 59.8145L613.281 59.6068C614.584 60.2386 615.698 60.9782 616.77 61.9594C621.318 66.1216 624.233 72.0955 626.709 77.64C631.592 88.5733 634.951 100.172 638.109 111.699C641.491 124.043 644.765 136.237 646.761 148.9C648.646 160.865 649.432 172.889 650.04 184.972C643.911 187.809 638.374 191.703 632.776 195.453C607.061 212.677 584.311 233.533 563.889 256.755L557.225 264.675L554.993 240.803C552.766 220.14 549.93 199.521 545.525 179.199C542.634 165.862 539.103 152.359 532.93 140.125C541.513 126.579 551.028 113.797 561.942 102.025C571.047 92.2039 580.858 83.4575 590.943 74.6825C597.12 69.3085 603.699 62.8039 611.412 59.8145Z"/>
	<path fill="#3FE0FE" transform="scale(0.1 0.1)" d="M374.168 723.877C375.008 723.678 374.59 723.63 375.407 724.121L368.44 761.85C366.797 773.855 366.256 786.17 365.998 798.277C365.684 813.074 365.928 827.769 367.768 842.476C358.032 857.82 345.446 872.279 333.426 885.84C324.478 895.936 315.414 906.638 304.599 914.824C298.175 919.686 291.848 923.128 284.03 925.132C279.681 923.414 277.991 921.249 275.817 917.304C274.026 912.108 272.97 906.589 271.729 901.238C263.723 866.724 265.015 832.088 270.89 797.325L273.346 784.019C273.734 782.047 273.976 779.3 274.893 777.522C275.903 775.563 282.515 768.008 284.424 767.515C285.352 768.625 285.884 769.335 287.354 769.723C293.375 768.481 299.568 765.8 305.244 763.448C329.781 753.28 352.522 739.144 374.168 723.877Z"/>
	<path fill="#3FE0FE" transform="scale(0.1 0.1)" d="M234.266 552.396C235.678 552.167 236.832 551.941 238.255 552.282C238.22 553.919 232.969 557.444 231.358 558.802C221.362 567.224 211.839 576.465 203.111 586.191C193.193 597.243 184.327 608.973 175.775 621.094C172.068 626.348 168.004 631.499 165.364 637.404C164.018 640.415 163.078 644.1 163.358 647.388C163.614 650.384 165.093 653.004 167.434 654.876C176.249 661.927 192.035 660.326 202.537 660.274C218.069 660.197 233.36 659.185 248.819 657.719L231.872 680.063C230.171 681.829 223.721 682.69 221.237 683.277C195.46 689.36 170.81 691.997 144.287 691.503C132.836 691.404 121.405 690.248 110.043 688.905C91.7163 686.738 69.8513 683.96 54.1465 673.702C59.0624 660.889 67.2016 648.028 74.8854 636.661C93.9968 608.39 118.689 582.816 145.111 561.296C146.822 559.903 152.509 554.526 154.367 554.399C156.198 554.275 158.478 554.768 160.327 554.937L172.923 555.852C193.302 556.548 214.225 556.27 234.266 552.396Z"/>
	<path fill="#3FE0FE" transform="scale(0.1 0.1)" d="M520.165 602.295C521.35 602.754 522.64 614.914 523.006 617.326C529.777 661.85 553.024 699.414 585.082 730.217L572.269 770.264C568.18 781.377 563.588 792.329 558.227 802.893C553.649 811.913 547.945 823.538 538.037 827.757C534.602 829.219 530.97 828.916 527.628 827.424C513.811 821.255 504.356 794.171 499.024 780.809L473.598 716.291C469.326 704.374 465.16 692.139 462.545 679.738C460.065 667.978 458.983 656.181 458.527 644.188C458.378 640.269 457.16 632.158 458.783 628.587L469.847 603.162L481.847 606.232C482.202 614.35 483.729 622.116 484.835 630.127L488.566 657.8C489 660.791 489.093 666.157 490.967 668.557C492.222 668.406 492.96 668.099 493.796 667.084C494.713 665.969 495.13 664.002 495.136 662.598C495.164 656.753 493.543 650.334 492.718 644.531L487.729 607.026C492.141 607.722 497.07 607.741 501.54 607.628C503.068 607.589 505.265 607.717 506.731 607.29C508.033 606.911 509.099 605.306 510.381 604.653C512.994 603.322 517.27 602.936 520.165 602.295Z"/>
	<path fill="#3FE0FE" transform="scale(0.1 0.1)" d="M585.12 546.507C601.732 546.993 617.617 548.634 633.789 552.718C651.574 557.209 668.801 563.55 685.677 570.696C696.885 575.441 707.899 580.665 718.018 587.483C753.918 611.668 770.822 650.944 792.326 686.874L791.144 687.778C785.586 691.59 778.917 693.508 772.357 694.708C750.396 698.723 725.26 695.602 703.368 692.02C691.774 689.213 681.117 685.244 670.672 679.443C668.436 678.202 665.428 676.836 663.545 675.113C660.944 672.732 658.747 666.79 656.938 663.595L648.002 648.926C635.238 629.1 620.874 610.317 601.553 596.457C590.425 588.475 578.447 581.882 566.807 574.704C570.158 571.2 573.02 567.716 575.847 563.782C587.375 568.047 597.782 573.699 608.304 580.019C614.127 583.517 620.037 587.607 626.221 590.403C627.518 589.918 628.045 589.516 628.76 588.299C629.816 586.502 630.397 583.592 629.705 581.594C628.994 579.539 622.414 576.451 620.419 575.292C607.582 567.836 594.741 560.786 581.176 554.718L585.12 546.507Z"/>
	<path fill="#3FE0FE" transform="scale(0.1 0.1)" d="M181.99 318.574L205.577 318.396C206.891 318.429 210.814 318.096 211.884 318.573C212.353 318.783 215.599 324.949 216.177 325.914C219.915 332.153 224.273 338.057 228.831 343.721L256.264 375.244L306.609 432.086C272.532 423.315 237.43 428.811 204.223 438.679L187.504 444.417L126.696 403.203C112.115 391.338 98.93 377.767 88.1756 362.32C85.944 359.114 82.7122 355.246 82.4726 351.242C82.2795 348.015 83.9429 345.096 86.0725 342.775C89.4066 339.143 93.6316 336.597 97.8105 334.065C103.487 330.627 109.044 327.337 115.393 325.276C125.694 321.932 136.789 321.648 147.506 320.832L181.99 318.574Z"/>
	<path fill="#3FE0FE" transform="scale(0.1 0.1)" d="M408.982 541.173C410.214 540.938 410.492 540.794 411.633 541.26C412.132 542.422 415.662 549.531 415.533 550.055C415.518 550.115 414.025 551.16 413.924 551.234C399.577 561.631 383.037 569.839 367.694 578.686C362.582 581.634 356.517 584.475 351.896 588.056C350.673 589.004 349.722 590.392 349.275 591.878C348.63 594.022 349.055 595.781 350.146 597.613C350.537 597.656 350.934 597.825 351.318 597.742C352.407 597.509 354.343 596.105 355.335 595.535L366.094 589.199L408.447 564.397C412.114 562.074 415.552 559.49 418.948 556.792L427.649 570.614C408.299 583.089 389.863 597.505 372.636 612.762L356.17 628.247C354.84 629.552 351.507 633.581 350.065 634.119C347.471 635.088 341.969 634.933 339.099 635.153L323.242 636.878L286.994 642.345L267.605 645.098C247.373 647.781 226.991 650.352 206.558 650.567C194.144 650.697 179.539 650.916 168.942 643.623L179.489 627.078C196.657 602.069 217.524 579.181 242.075 561.241C245.097 559.032 249.291 555.309 252.678 554.038C253.959 553.557 264.004 554.731 266.213 554.83C276.635 555.294 287.135 555.161 297.554 554.642C321.534 553.448 345.133 550.227 368.896 546.939L408.982 541.173Z"/>
	<path fill="#3FE0FE" transform="scale(0.1 0.1)" d="M479.388 750.675L488.606 773.627C494.691 789.83 507.916 830.297 524.896 837.53C529.459 839.474 534.626 839.123 539.12 837.174C556.398 829.682 567.218 798.033 573.65 781.411C578.815 799.289 585.693 815.627 593.944 832.258C591.94 854.129 587.023 875.438 578.746 895.811C575.766 903.146 572.074 910.169 568.475 917.213C562.959 927.44 557.25 937.653 550.353 947.029C546.973 951.624 543.114 956.504 538.144 959.467C536.617 960.377 534.925 961.188 533.12 960.722C529.924 959.896 527.027 959.178 524.012 957.767C513.008 952.619 504.855 943.22 496.875 934.358C484.834 920.988 473.276 906.662 464.225 891.062C459.34 882.642 455.457 873.83 452.113 864.702C447.854 853.076 444.558 841.251 441.623 829.228C441.382 828.238 440.088 824.548 440.281 823.733C440.564 822.542 444.698 818.561 445.671 817.322C450.301 811.431 454.553 805.252 458.335 798.783C464.232 788.694 469.037 778.118 473.224 767.216C475.329 761.734 476.914 755.988 479.388 750.675Z"/>
	<path fill="#3FE0FE" transform="scale(0.1 0.1)" d="M655.171 455.487C673.746 455.931 691.621 460.62 709.329 465.788C740.549 474.899 770.687 486.776 798.289 504.189C814.376 514.337 828.694 525.856 842.66 538.73C829.739 548.499 813.5 550.113 798.026 552.641C772.547 556.802 746.485 557.985 721.305 563.652C717.358 564.534 713.467 565.698 709.623 566.948C708.831 567.206 705.834 568.533 705.159 568.429C702.935 568.088 698.81 565.249 696.614 564.209L681.541 557.689C660.572 549.391 637.987 541.903 615.679 538.462C606.727 537.081 597.804 536.637 588.766 536.31L591.711 524.455L624.702 523.256C628.168 523.135 634.081 523.807 637.207 522.481C638.25 521.308 638.896 520.338 639.302 518.799C639.832 516.795 639.83 515.262 638.866 513.477C635.923 512.065 599.181 514.404 592.96 514.654C593.293 506.336 593.036 498.395 591.576 490.173L613.336 480.528C627.97 473.292 641.641 464.577 655.171 455.487Z"/>
	<path fill="#3FE0FE" transform="scale(0.1 0.1)" d="M228.101 284.806C230.354 284.722 232.533 284.788 234.774 285.066C251.074 287.086 266.777 294.331 281.411 301.467C306.161 313.536 330.55 327.293 352.199 344.402C365.886 355.219 378.771 367.497 391.724 379.18C410.495 396.11 428.942 413.425 444.446 433.459C438.052 437.479 432.476 442.781 427.348 448.28C424.546 446.026 421.862 440.702 419.593 437.754C416.22 433.372 412.154 429.405 407.959 425.816C404 422.429 386.534 408.989 382.268 409.695C381.301 409.855 380.461 410.465 379.944 411.304C378.847 413.088 378.044 416.43 378.737 418.457C378.798 418.633 379.164 419.336 379.395 419.491C380.513 420.239 382.644 420.597 383.97 421.248C386.324 422.403 388.581 423.945 390.816 425.32C403.359 433.22 412.869 443.108 421.43 455.126C421.415 456.302 420.39 457.365 419.756 458.35C418.208 460.757 416.772 463.181 415.482 465.736C412.509 471.629 410.535 477.567 408.601 483.855C406.056 483.295 402.351 480.285 400.048 478.839L376.894 464.329L353.662 450.914L335.414 442.103C331.965 440.617 326.759 439.294 323.771 437.167C321.932 435.858 320.196 433.791 318.6 432.175L308.197 421.415L253.356 359.462C243.528 347.931 232.987 336.652 224.149 324.344C219.676 318.115 214.453 310.6 213.074 302.903C212.344 298.834 212.814 294.624 215.259 291.198C218.456 286.717 222.982 285.602 228.101 284.806Z"/>
	<path fill="#3FE0FE" transform="scale(0.1 0.1)" d="M761.255 273.117C764.929 272.658 769.525 272.551 773.05 273.759C776.468 274.93 778.809 276.932 780.258 280.263C784.546 290.122 780.352 302.927 776.499 312.285C771.232 325.079 764.028 337.107 756.296 348.548C731.085 385.853 697.47 415.165 660.73 440.758C648.57 449.23 636.567 457.366 623.538 464.468C612.373 470.554 600.768 475.607 589.028 480.459L584.073 469.387L617.832 437.744C619.243 436.25 620.23 433.457 620.054 431.396C619.919 429.806 619.362 429.269 618.164 428.346C615.032 429.466 611.625 433.701 609.09 435.993L581.407 462.158C580.65 462.722 581.1 462.562 580.018 462.505L577.755 459.693L608.228 413.433C609.29 411.497 610.2 408.815 609.381 406.626C608.962 405.505 608.678 405.402 607.666 404.963C603.726 407.25 600.76 413.756 598.158 417.58L573.915 454.554C568.078 447.382 561.157 441.406 553.762 435.916L566.802 417.551C591.768 384.951 621.478 356.753 653.151 330.752C668.979 317.757 684.947 305.272 702.777 295.097C713.309 289.086 724.286 284.536 735.623 280.318C744.029 277.189 752.323 274.312 761.255 273.117Z"/>
	<path fill="#3FE0FE" transform="scale(0.1 0.1)" d="M264.151 438.205C317.004 435.591 363.623 466.45 406.113 493.748L405.083 509.662L335.693 512.735L334.959 513.672C335.007 517.012 338.47 520.436 340.454 522.93L406.035 519.735L408.403 530.817L352.102 538.925L316.972 543.153C287.297 545.842 256.781 545.866 227.634 538.956C208.798 534.49 191.467 527.171 174.902 517.219C166.375 512.096 158.326 506.655 151.449 499.389C146.06 493.695 141.954 486.848 137.861 480.199C148.238 472.998 159.664 467.166 171.128 461.911C200.672 448.369 231.63 439.792 264.151 438.205Z"/>
	<path fill="#3FE0FE" transform="scale(0.1 0.1)" d="M656.321 193.946C659.824 193.52 663.586 193.584 666.64 195.557C672.406 199.281 674.597 206.227 675.863 212.619C677.087 218.797 677.218 225.321 677.449 231.6C678.246 253.322 676.453 275.214 671.909 296.476C671.343 299.125 670.825 304.044 669.52 306.325C668.55 308.023 664.821 310.28 663.217 311.549L650.829 321.746L605.562 362.153C584.06 383.209 564.647 407.03 547.849 432.001C541.253 428.034 534.583 425.018 527.397 422.329C527.629 420.402 530.296 417.424 531.483 415.778L548.183 394.391C551.302 390.668 555.235 386.898 557.854 382.836C558.702 381.522 559.018 379.88 559.343 378.376L559.479 377.722L559.127 376.221C558.602 374.997 558.3 374.782 557.129 374.449C553.887 376.318 551.079 380.744 548.692 383.63C538.903 395.462 529.65 407.412 521.534 420.473C518.849 420.231 516.151 419.293 513.475 418.847C509.033 418.106 504.525 417.843 500.037 417.539C499.633 412.17 496.997 385.711 498.23 382.801L526.864 321.287C552.001 278.035 585.56 239.962 626.323 210.805C635.723 204.082 644.998 196.939 656.321 193.946Z"/>
	<path fill="#3FE0FE" transform="scale(0.1 0.1)" d="M381.655 174.498C391.119 174.644 398.688 179.642 405.536 185.807C420.654 199.416 432.376 217.463 442.618 234.895C460.254 264.91 474.642 296.796 483.123 330.643C490.266 359.146 493.17 388.43 494.542 417.722C488.64 418.147 483.001 418.687 477.205 419.916C473.725 412.932 471.229 405.562 468.037 398.45C464.484 390.534 460.261 383.162 455.09 376.194C453.758 374.4 452.464 372.448 450.195 372.1C448.202 373.571 447.502 375.048 447.035 377.482C446.571 379.902 447.165 380.753 448.483 382.648C458.706 393.07 464.072 408.439 469.45 421.718C463.162 423.795 457.211 426.212 451.362 429.318C443.36 419.013 435.125 409.177 426.025 399.803L385.392 361.583L368.291 346.15L360.631 339.669C360.057 339.187 358.172 337.949 357.859 337.348C356.29 334.344 356.024 328.421 355.506 325.045C352.539 305.699 352.012 285.988 351.967 266.446C351.925 248.372 351.972 230.689 355.486 212.891C357.513 202.624 360.385 192.228 366.755 183.702C370.626 178.52 375.154 175.455 381.655 174.498Z"/>
</svg>
