<?xml version="1.0" encoding="utf-8" ?>
<svg xmlns="http://www.w3.org/2000/svg" xmlns:xlink="http://www.w3.org/1999/xlink" width="100" height="100">
	<path fill="#293034" transform="matrix(0.1 0 0 0.1 0 -1.52588e-05)" d="M441.374 39.6468C444.805 39.1856 447.853 39.3878 451.056 40.7695C459.972 44.6171 466.388 54.7625 471.591 62.5249C485.42 83.1556 496.061 104.992 505.781 127.792C509.746 125.319 513.018 123.899 517.768 124.49C522.75 125.11 526.786 130.144 529.603 133.872C545.36 105.688 570.388 80.9798 595.106 60.6331C599.459 57.0499 604.459 52.1335 609.639 49.8752C611.558 49.0387 614.295 48.7709 616.234 49.666C620.059 51.4325 623.115 54.6617 625.392 58.1496C628.347 62.6764 630.244 67.9349 632.29 72.9109C640.249 92.2638 646.227 113.14 650.268 133.656L652.832 148.817C653.21 151.477 653.285 154.735 654.132 157.253C663.53 151.677 673.315 146.889 683.105 142.053C690.291 138.503 700.175 132.013 708.42 132.378C711.093 132.496 713.784 133.735 715.507 135.806C718.125 138.955 719.155 142.987 720.033 146.89C723.402 161.87 722.482 178.979 721.596 194.222L751.915 186.281C768.308 182.464 784.607 179.998 801.27 177.751C807.392 176.925 813.668 175.425 819.869 175.545C823.493 175.614 827.955 176.182 831.004 178.256C833.552 179.99 834.982 183.268 835.508 186.204L835.638 186.984C837.488 197.421 833.61 209.063 831.415 219.238C827.321 238.216 823.076 257.028 816.237 275.249L824.884 273.193C842.966 269.147 861.566 268.544 879.874 271.369C884.889 272.143 890.887 273.084 895.131 275.993C897.678 277.738 899.17 280.13 899.638 283.16C900.361 287.834 898.651 293.262 896.965 297.607C894.343 304.361 890.514 310.479 886.671 316.589C878.161 330.119 868.318 342.69 858.728 355.451C860.726 356.664 863.511 357.321 865.742 358.103L880.048 363.196L932.056 383.702C941.021 387.578 953.687 391.429 960.178 399.057C962.045 401.251 963.573 404.377 963.215 407.333C962.644 412.053 959.603 415.992 956.533 419.422C950.959 425.649 943.981 430.546 937.443 435.691L904.027 461.405C907.747 462.615 911.525 464.732 914.997 466.562C924.428 471.533 933.268 477.268 941.911 483.493C945.297 485.931 949.17 488.41 951.898 491.589C953.493 493.448 954.631 495.887 955.316 498.222C957.965 507.248 955.881 519.501 951.193 527.585C941.898 543.615 919.844 552.417 903.527 559.267C887.339 566.062 871.545 571.813 854.569 576.385C868.171 588.388 880.583 601.554 893.178 614.585C898.654 620.25 904.814 625.33 909.125 631.997C913.919 639.41 915.989 649.044 913.99 657.715C912.032 666.21 906.349 675.441 898.921 680.155C882.592 690.517 863.664 693.289 844.707 694.031C829.371 694.63 813.139 693.623 798.15 690.122L797.524 689.971C796.517 691.89 795.511 693.911 794.072 695.545C785.74 705 769.981 705.628 758.325 706.357C779.397 738.487 793.971 776.122 786.638 815.002C784.086 828.536 778.442 841.166 772.338 853.419C769.167 859.784 765.893 867.425 759.727 871.471C757.649 872.835 755.028 873.342 752.6 872.778C741.052 870.098 725.786 838.093 719.34 827.123L717.685 834.917C713.785 852.169 707.414 867.866 699.58 883.683C696.024 890.864 693.011 899.276 685.802 903.599C678.658 907.884 670.02 907.819 662.212 905.677C654.796 903.642 648.752 899.533 642.731 894.867C624.137 880.459 610.25 860.847 598.488 840.723C598.07 841.1 597.862 844.027 597.759 844.738L596.038 855.541C594.361 864.638 592.3 873.714 589.499 882.534C580.763 910.039 566.716 936.201 549.533 959.352C545.779 964.409 540.444 970.444 533.801 971.206C525.555 972.152 516.248 965.14 510.089 960.334C501.226 953.648 493.692 944.442 486.518 936.027C479.942 928.313 473.475 920.643 467.813 912.216C456.638 895.581 448.312 876.816 442.335 857.73L434.843 829.512C426.14 838.785 417.403 848.376 407.394 856.273C402.802 859.896 397.655 863.523 392.075 865.44C387.684 866.949 381.298 868.183 376.993 865.803C372.386 863.257 370.702 856.396 369.312 851.708C351.45 875.923 333.061 901.287 309.793 920.706C302.428 926.853 291.147 936.369 280.793 935.005C277.796 934.61 274.924 931.296 273.293 928.886C268.677 922.064 267.715 913.117 266.054 905.253C260.425 878.599 259.154 852.65 261.765 825.536C263.101 811.658 265.589 798.027 267.904 784.293L263.966 787.936C242.251 807.857 215.861 826.334 187.067 833.935C183.202 834.955 177.835 836.66 173.854 836.346C171.66 836.173 169.395 835.28 167.995 833.517C165.58 830.475 165.406 825.48 165.819 821.78C168.17 800.758 177.801 779.879 186.571 760.798C197.255 737.557 208.911 714.687 222.77 693.17C198.951 699.847 173.121 702.528 148.438 702.107C121.992 701.656 94.6531 698.972 69.1692 691.668C63.3022 689.986 55.6863 688.127 51.4312 683.434C49.0736 680.833 48.0842 677.809 48.452 674.316C49.2307 666.922 54.389 659.23 57.9165 652.783C63.2446 643.044 68.8047 633.385 75.1844 624.29C93.9168 597.583 117.963 573.66 143.115 553.038L109.923 545.69C95.083 541.565 80.4627 536.266 66.1161 530.675C60.5742 528.515 54.5046 526.571 49.4229 523.472C46.6276 521.768 44.2514 519.736 42.7087 516.812C40.6347 512.881 40.7908 507.143 42.1955 503.007C45.111 494.422 52.1289 488.185 59.359 483.119C78.3664 469.8 100.463 463.028 123.495 461.289C128.765 460.891 134.122 460.762 139.404 460.912C142.533 461.001 147.067 461.945 150.055 461.315C153.076 460.678 156.815 457.983 159.625 456.574L175.974 448.788C151.12 433.242 125.525 417.186 104.833 396.215C100.23 391.55 96.0048 386.546 91.8362 381.494C84.6234 372.751 76.3833 362.859 76.5501 350.891C76.659 343.081 81.0961 336.77 86.5912 331.581C92.3268 326.166 99.3536 322.291 106.411 318.883C109.726 317.281 113.186 315.493 116.717 314.428C130.352 310.315 145.585 310.376 159.716 309.587C175.798 308.69 191.714 307.594 207.846 308.06C207.479 302.239 206.794 296.656 208.262 290.906C209.674 285.377 213.139 279.743 218.227 276.905C227.61 271.671 241.849 274.982 251.549 277.589L246.749 268.916C236.346 248.08 231.32 223.305 231.785 200.087C231.947 191.945 232.649 183.549 235.272 175.784C237.236 169.973 241.01 162.963 246.941 160.361C254.695 156.958 266.848 164.042 273.851 167.141L289.18 173.781C289.997 172.058 289.525 167.221 289.604 165.141C290.337 145.964 290.483 122.739 303.905 107.448C309.826 100.701 317.488 96.9958 326.438 96.4224C333.749 95.954 341.317 97.8723 348.141 100.369C370.545 108.567 387.509 123.815 405.052 139.387C406.707 115.056 411.446 90.8481 420.556 68.1569C424.943 57.2312 429.826 44.5615 441.374 39.6468Z"/>
	<path fill="#DA9124" transform="matrix(0.1 0 0 0.1 0 -1.52588e-05)" d="M462.798 434.814L463.646 435.246C463.504 436.782 463.736 438.072 462.646 439.204L456.299 439.17L454.645 438.881L454.878 438.333L462.798 434.814Z"/>
	<path fill="#DA9124" transform="matrix(0.1 0 0 0.1 0 -1.52588e-05)" d="M426.053 545.126L434.056 544.954C433.984 548.406 434.388 562.687 433.002 564.697L431.808 563.704L421.055 546.305L421.631 545.416L426.053 545.126Z"/>
	<path fill="#DA9124" transform="matrix(0.1 0 0 0.1 0 -1.52588e-05)" d="M497.073 584.793L518.311 585.756C521.711 585.905 525.55 585.577 528.873 586.2C530.083 586.427 529.619 586.148 530.334 587.158C529.155 588.738 527.095 589.194 525.292 589.956C515.817 593.075 506.914 594.283 497.03 595.056L497.073 584.793Z"/>
	<path fill="#DA9124" transform="matrix(0.1 0 0 0.1 0 -1.52588e-05)" d="M572.819 465.862C580.004 474.166 585.109 485.202 587.046 495.983L572.42 494.986L572.819 465.862Z"/>
	<path fill="#DA9124" transform="matrix(0.1 0 0 0.1 0 -1.52588e-05)" d="M491.037 428.42C493.183 427.963 496.242 428.216 498.482 428.137L498.126 440.003L478.638 439.473L468.509 439.265L469.063 432.514C476.342 430.493 483.519 429.154 491.037 428.42Z"/>
	<path fill="#DA9124" transform="matrix(0.1 0 0 0.1 0 -1.52588e-05)" d="M503.621 428.135C514.428 429.289 524.103 431.534 534.183 435.709L534.061 442.015L503.161 440.365L503.621 428.135Z"/>
	<path fill="#DA9124" transform="matrix(0.1 0 0 0.1 0 -1.52588e-05)" d="M449.844 581.945L491.688 584.489L491.556 597.012C475.306 595.961 463.233 590.982 449.844 581.945Z"/>
	<path fill="#DA9124" transform="matrix(0.1 0 0 0.1 0 -1.52588e-05)" d="M440.631 544.69L456.791 544.404L455.452 571.263L454.346 571.825L438.835 570.661L439.155 545.095L440.631 544.69Z"/>
	<path fill="#DA9124" transform="matrix(0.1 0 0 0.1 0 -1.52588e-05)" d="M572.1 505.402L588.032 506.533C588.035 517.66 585.383 527.841 581.545 538.226L580.04 541.846L570.89 540.898L572.1 505.402Z"/>
	<path fill="#DA9124" transform="matrix(0.1 0 0 0.1 0 -1.52588e-05)" d="M437.336 449.951C438.27 449.664 438.528 449.65 439.453 449.743C440.406 452.492 439.348 457.551 439.132 460.531L437.068 487.036L416.873 485.909L414.795 485.906L414.2 485.107C418.268 471.973 426.601 458.643 437.336 449.951Z"/>
	<path fill="#DA9124" transform="matrix(0.1 0 0 0.1 0 -1.52588e-05)" d="M441.113 497.085L459.467 498.171L457.41 534.208L439.437 534.58L441.113 497.085Z"/>
	<path fill="#DA9124" transform="matrix(0.1 0 0 0.1 0 -1.52588e-05)" d="M444.965 449.548L462.469 449.584L459.912 488.089L441.998 487.34L444.965 449.548Z"/>
	<path fill="#DA9124" transform="matrix(0.1 0 0 0.1 0 -1.52588e-05)" d="M536.621 547.565L564.98 550.545L564.456 565.252L558.831 570.488C556.903 572.093 553.268 575.43 551.039 576.344C550.306 576.645 548.262 576.376 547.414 576.352L536.039 576.021L536.621 547.565Z"/>
	<path fill="#DA9124" transform="matrix(0.1 0 0 0.1 0 -1.52588e-05)" d="M462.031 544.38L492.86 544.535L491.937 574.255L460.972 572.353L462.031 544.38Z"/>
	<path fill="#DA9124" transform="matrix(0.1 0 0 0.1 0 -1.52588e-05)" d="M413.132 496.338L436.212 496.962L435.115 512.525C434.84 519.552 435.32 527.258 434.097 534.162L432.861 534.733L415.869 535.201C411.331 523.969 408.241 508.686 411.315 496.757L413.132 496.338Z"/>
	<path fill="#DA9124" transform="matrix(0.1 0 0 0.1 0 -1.52588e-05)" d="M498.041 544.779L531.129 547.021L530.243 575.668C526.406 575.937 522.426 575.549 518.578 575.403L497.451 574.591L498.041 544.779Z"/>
	<path fill="#DA9124" transform="matrix(0.1 0 0 0.1 0 -1.52588e-05)" d="M537.304 502.94L566.817 504.981C567.468 508.134 566.758 512.577 566.613 515.831L565.465 539.307C565.124 539.545 564.85 539.939 564.442 540.022C562.138 540.492 557.155 539.176 554.709 538.86L536.729 536.955L537.304 502.94Z"/>
	<path fill="#DA9124" transform="matrix(0.1 0 0 0.1 0 -1.52588e-05)" d="M464.335 498.513L495.059 500.087L493.161 534.559L462.727 534.167L464.335 498.513Z"/>
	<path fill="#DA9124" transform="matrix(0.1 0 0 0.1 0 -1.52588e-05)" d="M500.049 500.414L532.753 502.675L531.46 536.53L498.53 534.696L500.049 500.414Z"/>
	<path fill="#DA9124" transform="matrix(0.1 0 0 0.1 0 -1.52588e-05)" d="M538.839 452.96L539.08 452.966L556.341 454.011C557.946 454.13 560.742 453.97 562.229 454.466C563.886 455.019 566.405 458.368 567.641 459.675C568.187 464.126 567.871 468.914 567.862 473.408C567.849 480.486 567.934 487.642 567.216 494.689L537.925 492.874C537.09 489.462 537.907 484.31 538.006 480.737L538.839 452.96Z"/>
	<path fill="#DA9124" transform="matrix(0.1 0 0 0.1 0 -1.52588e-05)" d="M467.431 449.534L497.641 450.338L495.5 490.058L464.889 488.375L467.431 449.534Z"/>
	<path fill="#DA9124" transform="matrix(0.1 0 0 0.1 0 -1.52588e-05)" d="M502.611 450.641L533.846 452.576L533.026 491.943L531.946 492.432L500.483 490.42L502.611 450.641Z"/>
	<path fill="#FEFEFE" transform="matrix(0.1 0 0 0.1 0 -1.52588e-05)" d="M704.086 143.183C705.242 143.086 706.458 142.944 707.615 143.055C709.65 143.25 711.199 144.275 712.375 145.904C715.21 149.827 715.507 155.764 716.027 160.4C717.145 170.386 716.871 180.412 716.326 190.43C715.601 203.778 714.204 216.965 711.987 230.148C709.264 246.336 705.246 262.61 700.505 278.323C699.682 281.05 698.898 285.24 697.418 287.555C696.882 288.392 692.902 290.298 691.895 290.928L676.452 301.38L678.832 287.711C682.305 267.084 684.196 245.568 682.64 224.679C681.955 215.482 680.386 206.121 677.491 197.349C676.165 193.329 674.721 189.709 671.32 186.941C666.516 183.031 661.138 182.988 655.313 183.476L654.695 166.868C663.28 161.771 672.354 157.427 681.311 153.031C688.753 149.379 696.055 145.367 704.086 143.183Z"/>
	<path fill="#FEFEFE" transform="matrix(0.1 0 0 0.1 0 -1.52588e-05)" d="M125.147 471.883C127.904 471.406 131.29 471.672 134.124 471.582L129.75 475.835C131.426 480.684 132.897 485.924 135.267 490.479C146.6 512.253 169.339 527.22 191.09 537.207C197.53 540.164 204.325 542.316 210.678 545.407C206.271 546.393 201.081 546.081 196.569 546.083C177.534 546.091 158.962 544.339 140.168 541.379C130.305 539.723 120.497 537.778 110.832 535.185C102.578 532.97 94.9345 529.748 86.9095 526.94C75.8699 523.078 63.9433 519.937 53.825 513.963C50.7212 512.13 48.6835 510.215 46.4582 507.387L51.9165 500.244C69.4109 480.367 99.8609 473.788 125.147 471.883Z"/>
	<path fill="#FEFEFE" transform="matrix(0.1 0 0 0.1 0 -1.52588e-05)" d="M851.737 364.015L930.664 394.525C937.936 397.746 945.378 400.522 952.068 404.909C953.602 405.915 955.62 407.014 956.787 408.44C949.6 416.24 941.524 422.482 933.157 428.959L906.019 449.489L896.406 456.254C896.197 456.403 894.754 457.56 894.54 457.581C893.772 457.656 890.685 456.261 889.747 455.945L876.977 452.164C865.893 449.282 854.596 447.621 843.273 446.02C851.227 438.988 858.529 431.522 860.946 420.809C862.039 415.966 861.91 410.012 859.004 405.784C852.915 396.925 836.461 396.58 826.75 394.783L851.737 364.015Z"/>
	<path fill="#FEFEFE" transform="matrix(0.1 0 0 0.1 0 -1.52588e-05)" d="M325.188 107.126L326.783 107.019C335.496 106.828 344.378 109.484 352.245 113.029C371.675 121.783 388.321 136.278 403.61 150.85C403.983 151.205 404.571 151.426 404.727 151.916C405.093 153.065 404.704 155.797 404.715 157.124L405.065 173.532L397.113 168.13C390.987 164.764 383.845 162.689 376.933 164.91C366.953 168.117 361.448 178.085 357.167 186.88C353.707 195.398 351.699 204.325 349.816 213.294L294.634 176.694L295.488 155.065C296.164 142.181 296.815 126.754 305.394 116.372C310.476 110.224 317.489 107.925 325.188 107.126Z"/>
	<path fill="#FEFEFE" transform="matrix(0.1 0 0 0.1 0 -1.52588e-05)" d="M816.732 186.236C818.053 186.125 819.37 186.029 820.696 186.129C823.831 186.364 827.225 186.944 829.254 189.601C831.13 192.058 830.297 197.93 829.826 200.851L824.329 227.11C821.002 241.858 817.296 256.552 811.914 270.701C811.517 271.745 809.816 276.992 808.968 277.541C807.025 278.796 803.409 279.509 801.135 280.346L787.709 285.912C787.446 282.799 787.084 279.403 786.239 276.394C784.864 271.495 781.679 267.089 777.111 264.73C763.702 257.806 745.267 266.327 732.295 270.752C722.687 274.02 713.36 278.568 704.519 283.52C712.247 257.437 717.625 231.385 720.572 204.334C751.92 194.467 784.208 190.033 816.732 186.236Z"/>
	<path fill="#FEFEFE" transform="matrix(0.1 0 0 0.1 0 -1.52588e-05)" d="M764.231 399.638C783.111 398.904 801.991 401.661 820.557 404.652L839.076 407.442C844.594 408.454 851.94 410.277 855.303 415.141C855.605 417.499 855.403 419.709 854.591 421.96C849.095 437.197 823.83 449.667 809.6 456.488L772.513 472.145C770.699 472.847 767.077 474.803 765.396 474.854C764.949 474.867 763.812 474.299 763.336 474.132C747.115 466.24 729.215 460.577 711.886 455.738L690.781 449.993L668.725 445.86C681.802 436.425 694.406 426.698 706.549 416.07C710.308 412.78 716.513 405.158 721.182 404.329L764.231 399.638Z"/>
	<path fill="#FEFEFE" transform="matrix(0.1 0 0 0.1 0 -1.52588e-05)" d="M852.877 279.996C864.488 279.534 876.872 281.004 887.939 284.569C889.506 285.074 891.837 285.585 893.048 286.688C893.693 287.276 893.667 288.73 893.639 289.551C893.146 303.999 839.962 368.169 828.925 381.229L821.787 389.563C820.9 390.593 819.721 392.395 818.636 393.158C817.579 393.901 806.988 392.01 805.302 391.77C795.131 390.323 784.963 389.771 774.715 389.23L730.665 392.646C755.781 364.665 778.57 333.502 786.766 296.112C807.585 286.246 829.939 281.285 852.877 279.996Z"/>
	<path fill="#FEFEFE" transform="matrix(0.1 0 0 0.1 0 -1.52588e-05)" d="M441.503 49.9277C442.896 49.8282 444.31 49.7392 445.686 50.033C456.091 52.2546 464.779 67.2386 470.195 75.3281C481.179 91.7375 490.126 109.407 497.983 127.494C498.514 128.717 500.374 131.921 500.333 132.969C500.294 133.966 494.82 140.248 493.915 141.6C488.797 149.255 484.503 157.591 480.714 165.976C470.5 188.583 464.551 213.25 459.757 237.492L457.82 247.46C455.18 241.412 451.595 235.489 448.317 229.758C437.864 211.483 426.001 194.078 411.275 178.974C410.247 170.742 410.073 162.095 410.054 153.804C409.99 125.474 414.663 95.9655 425.804 69.7872C429.191 61.8303 433.032 53.3587 441.503 49.9277Z"/>
	<path fill="#FEFEFE" transform="matrix(0.1 0 0 0.1 0 -1.52588e-05)" d="M830.587 455.346C836.443 455.448 842.582 456.375 848.398 457.12C864.29 459.155 879.565 462.602 894.449 468.626C908.177 474.182 921.03 481.573 933.322 489.788C939.538 493.942 947.444 498.632 950.289 505.933C951.805 509.825 951.303 514.106 949.538 517.822C946.431 524.362 939.778 529.549 933.928 533.512C915.172 546.219 893.006 553.982 871.674 561.117L862.852 563.694L848.323 567.435C847.559 567.605 845.15 568.412 844.461 568.272C842.645 567.903 839.003 564.497 837.344 563.393L826.985 557.201C834.266 554.161 841.873 551.407 846.283 544.327C848.331 541.038 849.284 537.454 848.24 533.63C846.335 526.648 838.956 522.094 833.62 517.743C815.906 503.297 797.143 491.185 776.924 480.525C782.91 478.455 788.83 475.711 794.666 473.232C807.107 467.947 819.033 462.404 830.587 455.346Z"/>
	<path fill="#FEFEFE" transform="matrix(0.1 0 0 0.1 0 -1.52588e-05)" d="M669.553 690.009C674.914 692.75 680.266 695.645 685.931 697.712C705.539 704.868 727.193 705.885 747.875 706.241C761.408 722.916 771.469 743.815 777.789 764.215C780.282 772.259 782.348 780.716 782.976 789.137C784.577 810.593 777.519 830.782 767.596 849.453C765.85 852.675 763.558 857.55 760.916 860.063C759.436 861.471 757.376 862.444 755.304 862.329C751.171 862.1 747.458 857.661 745.099 854.585C741.198 849.496 738.293 843.707 735.169 838.13L725.305 821.763L700.535 786.499C693.36 776.638 686.453 766.602 678.615 757.239L679.704 754.905C687.599 736.658 676.551 707.63 669.553 690.009Z"/>
	<path fill="#FEFEFE" transform="matrix(0.1 0 0 0.1 0 -1.52588e-05)" d="M249.381 170.005C255.946 170.129 261.018 173.16 266.942 175.539C296.986 187.604 322.417 204.402 348.279 223.661C345.343 259.417 346.158 296.339 350.837 331.926L343.713 326.569C323.633 312.02 301.998 300.688 279.885 289.575L267.122 283.564C264.917 282.437 263.064 279.363 261.623 277.407C253.062 265.787 247.243 253.416 243.109 239.609C238.623 224.624 236.054 207.762 237.546 192.119C238.11 186.203 239.511 179.5 242.536 174.317C244.102 171.634 246.514 170.753 249.381 170.005Z"/>
	<path fill="#FEFEFE" transform="matrix(0.1 0 0 0.1 0 -1.52588e-05)" d="M432.74 577.323L440.587 585.363C427.762 596.585 416.022 609.514 404.876 622.37C401.773 625.95 397.529 630.105 395.336 634.3C394.472 635.952 393.966 638.44 394.681 640.228C395.143 641.385 395.485 641.412 396.557 641.815C398.536 640.79 399.787 638.788 401.183 637.094L409.114 627.894L429.784 605.226C434.946 599.842 440.424 595.005 446.285 590.399L452.413 594.728C452.012 597.473 449.958 600.974 448.827 603.55L437.347 628.588C434.819 634.015 429.427 642.247 429.423 648.193C429.916 649.306 430.172 649.951 431.152 650.728C431.936 650.298 432.638 649.921 433.173 649.18C436.078 645.158 438.159 639.266 440.285 634.736L457.137 597.65L464.708 601.24C457.128 619.46 448.693 636.847 437.43 653.126C430.992 662.43 423.826 670.843 416.133 679.127C407.777 687.817 398.249 695.066 388.719 702.393C358.289 725.788 326.522 745.907 290.355 759.233C300.146 726.783 311.551 693.279 331.992 665.779C340.089 654.885 349.952 644.722 359.588 635.19C381.891 613.128 406.818 594.829 432.74 577.323Z"/>
	<path fill="#FEFEFE" transform="matrix(0.1 0 0 0.1 0 -1.52588e-05)" d="M511.367 135.318C513.89 135.16 515.986 135.394 518.322 136.442C525.518 139.67 530.122 149.912 532.789 156.814C537.503 169.014 540.306 181.976 542.668 194.807C546.4 215.09 548.637 235.485 550.685 255.992L551.797 267.471C551.88 268.355 552.295 270.208 552.129 271.02C551.83 272.483 545.454 280.094 544.189 281.85L526.997 308.201C516.001 326.565 506.866 346.021 498.278 365.6L496.308 370.57C495.244 366.412 494.865 361.944 494.216 357.691L490.691 338.135C484.798 309.482 475.076 281.273 461.787 255.196C463.307 243.731 466.08 232.373 468.777 221.142C473.194 202.746 477.921 184.255 486.238 167.163C490.37 158.672 495.233 150.802 501.316 143.569C504.413 139.887 506.661 136.933 511.367 135.318Z"/>
	<path fill="#FEFEFE" transform="matrix(0.1 0 0 0.1 0 -1.52588e-05)" d="M336.283 645.742L338.34 645.644L338.53 646.527C319.934 669.391 306.17 694.809 296.547 722.651L288.905 745.058C287.845 748.154 287.07 752.057 285.314 754.817C283.426 757.785 280.528 760.559 278.165 763.164C270.269 771.868 261.712 779.816 252.602 787.233C236.669 800.206 195.155 827.962 174.92 825.895C174.269 825.567 174.263 825.587 173.584 825.119C172.201 824.167 171.318 822.775 171.129 821.098C170.885 818.919 172.163 815.91 172.806 813.832L177.215 799.942C195.479 747.537 223.354 700.243 257.715 656.801C260.41 655.972 263.614 655.863 266.414 655.499L283.203 653.223C300.87 650.703 318.501 647.293 336.283 645.742Z"/>
	<path fill="#FEFEFE" transform="matrix(0.1 0 0 0.1 0 -1.52588e-05)" d="M589.261 733.991C604.995 746.78 621.664 757.549 641.086 763.916C646.387 765.654 653.451 768.13 659.089 767.916C664.102 767.727 668.312 766.076 672.729 763.846C677.27 768.239 681.329 774.588 685.161 779.697L715.106 821.093C711.278 842.868 703.848 862.76 693.719 882.344C691.731 885.802 689.392 890.606 685.999 892.853C680.282 896.64 672.186 897.526 665.627 895.91C654.61 893.195 645.224 885.799 637.285 877.987C625.664 866.551 615.808 853.336 607.33 839.438C595.639 820.271 586.472 801.113 579.941 779.585C579.302 777.479 577.284 773.042 577.659 771.091C578.38 767.334 580.552 763.121 581.8 759.427L589.261 733.991Z"/>
	<path fill="#FEFEFE" transform="matrix(0.1 0 0 0.1 0 -1.52588e-05)" d="M451.855 642.334L452.884 642.258C453.362 659.648 455.025 676.68 459.254 693.584C461.19 701.319 463.722 709.029 466.377 716.543L473.416 735.475C474.024 737.037 475.844 740.326 475.92 741.886C475.945 742.399 475.521 743.541 475.392 744.032C470.858 761.241 462.831 779.995 453.453 795.075C449.712 801.091 445.061 806.781 440.596 812.268C427.541 828.31 411.831 844.174 393.842 854.64C392.301 855.382 390.754 856.059 389.096 856.503C386.183 857.282 383.107 857.446 380.495 855.764C376.812 853.391 375.036 848.606 374.094 844.482C372.393 837.036 372.415 828.947 372.047 821.34C371.672 813.572 371.057 805.841 371.153 798.056C371.428 775.758 374.412 753.515 379.065 731.726C379.922 727.718 380.388 721.987 382.045 718.337C382.416 717.52 385.268 715.653 386.102 715.002L398.257 705.291C413.702 692.428 427.955 678.392 439.497 661.868L451.855 642.334Z"/>
	<path fill="#FEFEFE" transform="matrix(0.1 0 0 0.1 0 -1.52588e-05)" d="M558.706 581.967C562.601 583.611 566.35 586.154 570.025 588.255C584.609 596.59 599.135 605.375 611.572 616.774C619.926 624.43 626.805 633.319 633.493 642.426C651.044 666.321 664.682 691.366 672.56 720.067C674.427 726.871 676.662 733.697 676.91 740.809C677.039 744.517 676.916 748.91 674.181 751.709C670.275 755.707 664.888 757.744 659.336 757.66C650.925 757.533 642.49 753.703 634.979 750.322C628.302 747.317 621.522 744.4 615.171 740.741C601.769 733.021 590.635 723.387 579.818 712.399C560.658 692.379 543.229 666.084 534.542 639.769C530.329 627.01 527.992 613.708 526.392 600.395L536.167 596.329C541.504 607.138 545.829 617.937 552.783 627.93C554.763 630.774 556.713 633.848 559.326 636.143L560.697 635.986C561.211 635.447 561.731 634.926 562.12 634.283C563.265 632.393 563.888 629.904 563.397 627.718C563.135 626.553 561.677 625.136 560.936 624.228L556.214 618.023C553.212 613.65 550.754 609.028 548.386 604.286C547.338 602.187 545.888 599.874 545.35 597.604L559.198 608.003L570.618 617.029C572.671 618.621 574.932 620.633 577.393 621.52C577.94 621.232 578.545 620.95 578.991 620.504C580.473 619.02 581.246 615.827 581.027 613.77C581.008 613.597 580.831 612.546 580.653 612.297C578.931 609.893 574.468 607.606 572.03 605.756L549.93 588.613L558.706 581.967Z"/>
	<path fill="#FEFEFE" transform="matrix(0.1 0 0 0.1 0 -1.52588e-05)" d="M808.9 561.193C809.745 561.039 810.663 560.881 811.523 560.977C814.333 561.291 818.787 564.116 821.298 565.466C846.122 578.821 865.71 599.169 885.025 619.282L898.183 632.522C903.244 637.952 909.579 646.369 909.013 654.276C908.647 659.394 905.847 663.978 902.043 667.298C896.176 672.419 888.69 675.541 881.348 677.868C861.537 684.146 841.775 684.302 821.315 682.772L796.577 678.973C792.93 669.178 785.844 660.334 780.558 651.357C770.044 633.506 760.82 614.811 746.625 599.445C737.838 589.934 727.547 582.274 716.782 575.173C731.624 570.354 748.986 569.095 764.438 567.316L808.9 561.193Z"/>
	<path fill="#FEFEFE" transform="matrix(0.1 0 0 0.1 0 -1.52588e-05)" d="M611.39 59.8145L612.137 59.6659C613.915 59.5749 615.15 60.5238 616.455 61.6326C620.426 65.0064 623.319 70.3758 625.527 75.0025C631.085 86.6481 634.698 99.2381 638.111 111.646C641.37 123.494 644.432 135.152 646.496 147.277C648.025 156.256 648.906 165.352 649.516 174.436C649.596 175.624 650.389 184.512 650.041 185.007C649.985 185.087 648.465 185.731 648.248 185.834C646.183 186.807 644.254 187.896 642.334 189.128L619.592 204.656C599.095 219.785 580.585 237.716 563.81 256.843L557.22 264.713L555.189 242.553C552.85 220.797 550.011 198.931 545.148 177.579C542.218 164.713 538.869 151.928 532.904 140.092C540.093 128.985 547.568 118.377 556.252 108.372C566.918 96.0843 578.646 85.3061 590.94 74.6908C597.148 69.3304 603.656 62.8518 611.39 59.8145Z"/>
	<path fill="#FEFEFE" transform="matrix(0.1 0 0 0.1 0 -1.52588e-05)" d="M374.127 723.877L374.95 723.77C375.841 724.855 373.269 734.713 372.911 736.631L368.317 762.889C366.632 775.908 366.148 789.189 365.981 802.306C365.811 815.703 365.963 829.152 367.808 842.441C357.556 858.177 344.886 872.879 332.428 886.883C322.679 897.843 312.869 909.251 300.683 917.601C295.385 921.231 290.113 923.535 283.941 925.175C279.755 923.374 277.975 921.309 275.876 917.348C273.802 911.99 272.899 906.071 271.548 900.498C264.108 869.804 264.951 838.101 269.37 807.028L273.992 780.518C274.798 775.601 280.099 771.377 283.447 767.837C285.52 767.132 285.085 769.284 286.851 769.572C289.582 770.018 294.495 767.622 297.181 766.637C324.761 756.519 350.25 740.791 374.127 723.877Z"/>
	<path fill="#FEFEFE" transform="matrix(0.1 0 0 0.1 0 -1.52588e-05)" d="M236.998 551.886L238.281 552.282L238.449 552.979L207.49 581.377C195.932 593.545 185.756 606.874 176.107 620.578C172.296 625.991 168.1 631.317 165.375 637.39C164.091 640.251 163.121 643.752 163.307 646.896C163.497 650.118 165.022 652.945 167.545 654.95C176.287 661.9 191.93 660.323 202.314 660.267L248.759 657.746L231.618 680.341C230.331 681.595 224.318 682.491 222.312 682.985C196.48 689.345 170.305 692.638 143.676 691.509C126.896 691.201 110.054 689.375 93.5211 686.533C82.8027 684.69 71.3324 682.482 61.4139 677.927C59.8165 677.194 54.8612 674.899 54.2896 673.35L77.3202 633.11C95.5836 606.857 118.537 583.624 142.935 563.069L150.581 556.815C151.415 556.145 152.674 554.835 153.605 554.396C154.289 554.073 158.063 554.742 159.039 554.831L176.093 555.918C190.707 556.158 205.688 556.298 220.215 554.687C225.852 554.062 231.419 552.887 236.998 551.886Z"/>
	<path fill="#FEFEFE" transform="matrix(0.1 0 0 0.1 0 -1.52588e-05)" d="M520.081 602.295C520.341 602.406 520.656 602.434 520.862 602.628C520.872 602.637 521.102 603.857 521.105 603.873L523.513 620.659C530.555 663.834 554.298 700.303 585.151 730.302L578.884 751.078C573.192 768.895 566.558 786.54 558.057 803.223C553.531 812.104 548.191 822.851 538.741 827.403C535.501 828.963 531.724 829.214 528.377 827.822C513.925 821.812 504.466 794.473 499.028 780.816L477.047 725.607C471.484 711.005 466.009 695.818 462.699 680.54C460.217 669.079 459.037 657.519 458.558 645.816L458.238 635.308C458.207 633.678 457.91 631.446 458.3 629.874C459.08 626.729 461.314 623.284 462.652 620.286L469.777 603.134L481.87 606.24C482.214 614.257 483.704 621.983 484.812 629.899L488.477 657.104C488.856 659.604 488.962 665.391 490.224 667.48C490.474 667.894 490.882 668.189 491.211 668.543C492.479 668.157 493.241 667.89 494.019 666.748C494.773 665.643 495.137 663.664 495.125 662.354C495.07 656.545 493.537 650.297 492.717 644.531L487.741 606.985C490.9 607.532 494.348 607.567 497.559 607.636C502.165 607.735 506.422 608.347 509.948 604.888C511.214 603.647 518.017 602.792 520.081 602.295Z"/>
	<path fill="#FEFEFE" transform="matrix(0.1 0 0 0.1 0 -1.52588e-05)" d="M585.057 546.52C601.929 546.749 618.227 548.745 634.592 552.895C652.054 557.324 668.994 563.654 685.561 570.674C698.653 576.222 711.119 582.337 722.656 590.752C755.425 614.653 772.181 652.938 792.312 686.884L791.892 687.189C780.295 695.442 764.318 696.352 750.565 696.315C734.689 696.273 718.663 694.522 703.001 691.984C689.163 688.573 677.003 683.349 664.805 676.025C661.782 674.211 659.711 668.456 657.933 665.32L650.428 652.748C641.669 638.931 631.772 624.393 620.389 612.594C604.887 596.526 585.53 586.281 566.763 574.698C570.086 571.17 572.993 567.703 575.786 563.725C593.992 570.773 609.223 581.258 626.221 590.547L627.762 589.678C629.684 586.88 629.949 585.185 629.866 581.787C628.154 578.975 623.437 577.099 620.571 575.399C607.759 567.797 594.737 560.831 581.145 554.72L585.057 546.52Z"/>
	<path fill="#FEFEFE" transform="matrix(0.1 0 0 0.1 0 -1.52588e-05)" d="M181.67 318.574L208.814 318.47C212.27 318.569 211.915 318.589 213.638 321.559C225.21 341.502 241.05 357.673 256.037 374.986L273.842 396.205L306.488 432.04C272.115 423.56 237.686 428.818 204.223 438.655L187.617 444.361C183.386 442.619 179.037 438.94 175.134 436.443C157.065 424.883 138.59 413.395 122.226 399.48C109.504 388.662 98.0041 376.345 88.4157 362.663C86.0876 359.341 82.6489 355.226 82.4588 351.046C82.3085 347.74 84.0192 344.996 86.1816 342.628C89.5377 338.952 93.943 336.407 98.1665 333.864C103.809 330.466 109.266 327.263 115.574 325.24C125.752 321.975 136.564 321.659 147.14 320.851L181.67 318.574Z"/>
	<path fill="#FEFEFE" transform="matrix(0.1 0 0 0.1 0 -1.52588e-05)" d="M410.882 540.771C412.322 541.444 414.677 548.121 415.539 550.051L352.563 587.499C350.776 588.67 349.381 590.737 349.092 592.87C348.813 594.936 349.201 596.088 350.342 597.747C353.168 597.705 401.946 568.502 408.203 564.514C411.935 562.134 415.441 559.621 418.826 556.77L427.651 570.546C408.103 583.418 389.409 597.697 371.958 613.29L355.612 628.684C354.4 629.874 351.514 633.525 350.103 634.125C347.899 635.063 343.189 634.805 340.632 635.041L282.832 642.89L227.295 649.552C212.358 650.759 195.382 652.1 180.672 648.699C176.28 647.684 172.673 646.158 168.942 643.626C171.389 638.026 176.069 632.027 179.559 626.962C197.135 601.455 218.209 578.546 243.346 560.33L250.504 555.371C250.994 555.05 252.107 554.115 252.648 553.98C254.31 553.566 257.949 554.357 259.869 554.479C273.343 555.335 287.023 555.297 300.501 554.527C324.05 553.182 347.313 549.982 370.65 546.699L410.882 540.771Z"/>
	<path fill="#FEFEFE" transform="matrix(0.1 0 0 0.1 0 -1.52588e-05)" d="M479.32 750.711L493.21 785.783C498.546 799.656 510.379 831.779 525.017 837.653C529.422 839.421 534.646 839.089 538.954 837.215C556.651 829.513 566.917 798.481 573.634 781.454C578.966 799.307 585.645 815.671 594.05 832.305C592.057 854.287 586.892 876.309 578.408 896.698C575.321 904.115 571.57 911.27 567.839 918.378C561.762 929.542 555.44 940.947 547.36 950.808C544.454 954.354 540.942 958.412 536.605 960.208C532.94 961.726 527.648 959.406 524.139 957.829C513.459 953.029 505.459 943.779 497.729 935.3C485.284 921.648 473.415 906.869 464.112 890.861C459.567 883.041 455.951 874.866 452.766 866.409C448.167 854.193 444.459 841.639 441.492 828.931C441.239 827.847 440.078 824.447 440.288 823.693C440.38 823.366 441.689 822.072 441.932 821.789L447.32 815.206C452.175 808.776 456.561 802.066 460.476 795.026C465.485 786.022 469.695 776.6 473.335 766.966C475.374 761.568 476.945 755.964 479.32 750.711Z"/>
	<path fill="#FEFEFE" transform="matrix(0.1 0 0 0.1 0 -1.52588e-05)" d="M655.183 455.417C674.546 456.149 692.723 460.918 711.182 466.377C747.508 477.121 781.791 491.742 812.744 513.87C823.34 521.445 833.095 529.847 842.626 538.707C830.127 548.322 814.36 549.903 799.343 552.449C773.442 556.84 746.912 557.868 721.296 563.635C717.236 564.585 713.141 565.676 709.196 567.02C708.559 567.237 705.674 568.539 705.169 568.45C702.743 568.02 698.662 565.204 696.289 564.078L680.984 557.499C660.562 549.386 638.217 542.023 616.527 538.618C607.295 537.169 598.085 536.716 588.762 536.3L591.676 524.436L625.211 523.22C628.524 523.104 634.254 523.73 637.207 522.455C638.239 521.305 638.901 520.329 639.311 518.815C639.829 516.906 639.813 515.277 638.916 513.56C636.525 512.31 630.085 513.228 627.272 513.323L592.994 514.665C593.319 506.368 593.133 498.587 591.6 490.404C592.387 489.386 595.666 488.473 596.954 487.945L611.1 481.666C626.524 474.255 641.125 465.142 655.183 455.417Z"/>
	<path fill="#FEFEFE" transform="matrix(0.1 0 0 0.1 0 -1.52588e-05)" d="M228.108 284.787L234.199 284.992C255.036 287.425 275.699 298.233 294.066 307.883C311.641 317.116 329.023 327.027 344.996 338.867C357.092 347.833 368.094 358.075 379.317 368.083C402.332 388.604 425.313 409.139 444.458 433.431C437.979 437.908 432.484 442.68 427.151 448.476C424.058 443.909 420.998 439.226 417.356 435.076C410.333 427.072 402.016 420.701 393.078 414.983C390.126 413.094 385.259 409.128 381.624 409.926C379.613 411.325 379.051 412.89 378.63 415.27C378.347 416.875 378.485 418.112 379.395 419.486C383.646 420.749 387.082 423.007 390.812 425.33C403.498 433.417 413.005 443.149 421.633 455.442C415.528 464.692 411.71 473.574 408.554 484.149C389.818 472.44 371.332 460.181 351.745 449.916L333.833 441.431C330.775 440.137 327.24 439.175 324.348 437.601C322.936 436.832 321.618 435.208 320.483 434.079L313.46 426.948L252.626 358.572C243.345 347.623 233.331 336.989 224.892 325.38C220.061 318.734 215.02 311.474 213.181 303.352C212.255 299.267 212.756 294.828 215.154 291.337C218.289 286.773 222.991 285.608 228.108 284.787Z"/>
	<path fill="#FEFEFE" transform="matrix(0.1 0 0 0.1 0 -1.52588e-05)" d="M761.275 273.119C765.359 272.682 769.869 272.562 773.751 274.056C777.137 275.358 779.217 277.539 780.582 280.891C784.493 290.495 780.114 303.677 776.39 312.622C770.856 325.913 763.192 338.607 755.006 350.438C730.159 386.348 698.054 414.31 662.57 439.364C649.764 448.406 637.124 457.049 623.332 464.566C612.247 470.607 600.677 475.659 589.025 480.484L584.064 469.383L617.611 437.938C619.269 436.257 620.227 433.523 620.031 431.152C619.909 429.685 619.26 429.205 618.164 428.374C614.489 429.782 610.42 434.718 607.421 437.453C598.596 445.498 589.684 453.347 581.526 462.09C580.866 462.667 581.276 462.416 580.232 462.724L577.721 459.678L590.749 438.965L602.67 421.365C605.013 417.964 608.585 414.356 609.425 410.226C609.843 408.173 609.517 406.892 608.398 405.201L607.422 405.117C603.874 407.031 600.872 413.56 598.547 416.992L573.891 454.608C568.247 447.387 561.063 441.343 553.739 435.904L566.603 417.797C591.54 385.034 621.437 356.837 653.177 330.769C666.632 319.718 680.185 308.856 695.019 299.679C707.277 292.094 719.968 286.337 733.395 281.186C742.52 277.686 751.544 274.444 761.275 273.119Z"/>
	<path fill="#FEFEFE" transform="matrix(0.1 0 0 0.1 0 -1.52588e-05)" d="M264.441 438.203C316.865 435.495 363.982 466.645 406.157 493.724L405.085 509.68L335.693 512.812L334.95 513.916C335.392 517.308 338.367 520.28 340.417 522.892L406.026 519.723L408.395 530.827L352.154 538.919L320.428 542.835C290.12 545.782 259.028 546.247 229.187 539.339C209.976 534.892 192.436 527.694 175.523 517.605C166.509 512.228 158.074 506.475 150.861 498.759C145.732 493.271 141.795 486.553 137.839 480.193C151.401 471.117 166.016 463.849 181.08 457.624C208.005 446.5 235.301 439.539 264.441 438.203Z"/>
	<path fill="#FEFEFE" transform="matrix(0.1 0 0 0.1 0 -1.52588e-05)" d="M656.256 193.955C659.818 193.483 663.522 193.603 666.648 195.557C672.355 199.124 674.562 206.131 675.828 212.374C677.129 218.786 677.242 225.543 677.464 232.062C678.202 253.672 676.482 275.508 671.888 296.652C671.367 299.053 670.809 304.314 669.571 306.281C668.009 308.764 662.838 311.768 660.405 313.714L646.233 325.563L616.492 351.711C590.691 375.548 567.296 402.678 547.901 432.007C541.158 427.962 534.305 424.9 526.946 422.169L545.924 397.093C549.754 392.439 554.629 387.791 557.861 382.738C558.749 381.349 558.989 379.857 559.235 378.252L559.318 377.686L559.052 375.977C558.179 374.845 558.276 374.658 556.885 374.476C553.674 376.657 550.978 380.827 548.499 383.821C538.774 395.567 529.525 407.408 521.581 420.457C518.95 420.405 516.038 419.284 513.4 418.849C508.979 418.121 504.499 417.863 500.032 417.576L498.495 394.399C498.263 391.278 496.948 385.763 498.164 382.999L527.768 319.751C553.235 276.243 588.202 236.568 630.095 208.227C638.643 202.445 646.102 196.619 656.256 193.955Z"/>
	<path fill="#FEFEFE" transform="matrix(0.1 0 0 0.1 0 -1.52588e-05)" d="M381.607 174.479C391.581 174.988 399.076 179.861 406.277 186.479C422.245 201.157 434.878 220.905 445.435 239.684C454.763 256.278 463.603 273.4 470.516 291.159C486.414 332.005 492.532 374.2 494.536 417.757C488.649 418.099 482.962 418.65 477.192 419.908C470.566 406.617 466.605 392.796 458.06 380.371C456.095 377.515 454.199 374.588 451.548 372.314C450.506 372.16 450.426 371.917 449.502 372.566C447.932 373.669 447.33 375.87 447.043 377.674C446.679 379.966 447.22 380.901 448.491 382.655C458.735 393.038 464.076 408.436 469.469 421.692C463.161 423.783 457.21 426.204 451.339 429.331C439.441 414.63 427.634 400.814 413.853 387.767L373.005 350.318L362.021 340.86C360.978 339.982 358.535 338.426 357.844 337.353C357.128 336.24 356.886 333.304 356.64 331.933C352.737 310.105 352.01 287.939 351.963 265.813C351.927 248.952 352.09 232.652 354.862 215.972C356.689 204.984 359.779 193.484 366.325 184.282C370.256 178.756 374.864 175.67 381.607 174.479Z"/>
</svg>
