<?xml version="1.0" encoding="utf-8" ?>
<svg xmlns="http://www.w3.org/2000/svg" xmlns:xlink="http://www.w3.org/1999/xlink" width="100" height="100">
	<path fill="#292F35" transform="matrix(0.1 0 0 0.1 -2.38419e-07 0)" d="M441.367 39.6496C444.799 39.1875 447.851 39.3862 451.054 40.7702C459.971 44.6228 466.387 54.7648 471.59 62.5281C485.411 83.1493 496.108 104.985 505.775 127.797C509.649 125.393 512.819 123.91 517.521 124.459C522.683 125.062 526.697 130.011 529.596 133.876L534.99 125.187C551.719 100.003 573.39 78.4188 596.701 59.3262C600.648 56.0937 606.553 50.1759 611.633 49.3159C615.041 48.739 617.079 49.8125 619.765 51.8573C626.33 56.8547 629.275 65.5811 632.29 72.9108C643.294 99.6542 650.443 128.702 653.949 157.367C663.287 151.807 673.028 147.035 682.758 142.211C690.006 138.618 700.093 132.014 708.42 132.38C711.104 132.498 713.784 133.736 715.511 135.817C718.795 139.774 719.961 145.691 720.729 150.642C722.942 164.914 722.399 179.867 721.59 194.238L751.929 186.281C768.223 182.49 784.453 179.96 801.025 177.775C807.184 176.963 813.463 175.471 819.694 175.557C823.408 175.608 827.875 176.147 831.013 178.267C833.532 179.97 835.004 183.318 835.51 186.218L835.635 186.995C837.434 197.332 833.723 208.175 831.594 218.194C827.485 237.529 823.219 256.736 816.211 275.275L824.923 273.182C842.976 269.143 861.596 268.544 879.874 271.372C884.892 272.148 890.883 273.085 895.131 275.994C897.679 277.738 899.167 280.133 899.636 283.163C900.308 287.502 898.87 292.273 897.42 296.362C894.919 303.416 890.956 309.742 887 316.05C878.395 329.767 868.467 342.544 858.714 355.447C860.715 356.662 863.502 357.32 865.737 358.103L880.044 363.198L932.052 383.704C941.002 387.574 953.718 391.426 960.201 399.073C962.056 401.261 963.562 404.394 963.212 407.333C962.63 412.231 959.304 416.398 956.076 419.915C950.574 425.912 943.807 430.678 937.437 435.692L904.017 461.408C908.168 462.76 912.362 465.15 916.229 467.212C927.151 473.038 937.51 480.01 947.352 487.502C952.458 491.389 955.33 495.664 956.136 502.175L956.223 502.93C957.167 510.857 955.202 520.655 951.196 527.581C941.906 543.641 920.242 552.184 903.9 559.112C887.609 566.018 871.651 571.804 854.541 576.384C868.159 588.332 880.545 601.52 893.126 614.531C898.619 620.211 904.798 625.313 909.122 631.997C914.117 639.717 915.922 649.269 913.834 658.247C911.81 666.949 905.806 675.922 898.193 680.614C877.464 693.391 850.72 695.174 826.904 693.875C817.404 693.357 807.361 692.362 798.102 690.116L797.512 689.967C796.515 691.892 795.511 693.906 794.072 695.541C785.752 704.999 769.974 705.611 758.327 706.371C779.097 738.007 793.807 775.531 786.88 813.887C784.331 828.001 778.525 841.016 772.168 853.76C769.152 859.806 765.769 867.693 759.823 871.47C757.667 872.839 754.918 873.366 752.424 872.779C741.165 870.131 725.423 837.581 719.338 827.093L717.468 835.799C713.652 852.693 707.242 868.202 699.577 883.682C696.023 890.861 693.007 899.276 685.8 903.596C678.641 907.888 670.035 907.816 662.212 905.675C654.796 903.645 648.751 899.533 642.731 894.868C624.074 880.41 610.128 860.701 598.363 840.487C596.556 852.202 594.718 863.801 591.634 875.268C583.541 905.359 568.054 934.407 549.524 959.352C545.766 964.411 540.452 970.443 533.801 971.205C525.677 972.137 516.323 965.13 510.208 960.471C501.092 953.211 493.419 944.142 485.894 935.299C479.148 927.373 472.549 919.473 466.84 910.747C456.271 894.591 448.284 876.594 442.486 858.211L434.852 829.508C426.315 838.587 417.768 847.943 408.03 855.763C403.418 859.466 398.178 863.242 392.569 865.265C388.044 866.898 381.437 868.252 376.992 865.803C372.386 863.266 370.698 856.381 369.314 851.698C352.005 876.028 332.775 901.485 309.767 920.726C302.413 926.875 291.125 936.364 280.793 935.005C278.045 934.643 275.449 931.839 273.861 929.688C268.692 922.686 267.713 913.192 265.986 904.893C260.424 878.173 259.096 852.153 261.822 824.988L267.897 784.283C245.527 805.218 220.205 823.639 190.674 832.903C185.725 834.455 178.638 836.736 173.441 836.345C171.416 836.193 169.411 835.184 168.117 833.612C165.599 830.554 165.389 825.488 165.827 821.743C168.344 800.242 178.126 779.083 187.139 759.572C197.681 736.751 209.149 714.292 222.785 693.157C199.41 699.797 174.113 702.314 149.879 702.124C123.043 701.915 94.9954 699.065 69.1522 691.664C63.2735 689.98 55.8111 688.174 51.5137 683.518C49.1521 680.959 48.1434 677.904 48.4468 674.448C49.0954 667.058 54.4112 659.202 57.9332 652.754C64.0714 641.515 70.5905 630.554 78.1258 620.19C96.3434 595.132 119.266 572.657 143.124 553.036C125.156 550.368 107.507 545.359 90.332 539.547L64.5992 530.084C59.2696 528.011 53.4174 526.111 48.6194 522.972C45.9139 521.203 43.6836 519.046 42.3396 516.071C40.4983 511.997 40.9742 506.285 42.4882 502.197C45.4977 494.072 52.3908 488.001 59.311 483.155C78.5059 469.711 100.793 462.926 124.053 461.247C129.138 460.88 134.308 460.766 139.404 460.912C142.531 461.001 147.069 461.946 150.056 461.316C152.798 460.738 156.165 458.305 158.701 457.027L175.967 448.806C151.174 432.988 125.591 417.263 104.821 396.206C100.222 391.543 96.0013 386.542 91.8362 381.494C84.6829 372.823 76.3719 362.841 76.5447 350.961C76.6592 343.091 81.074 336.816 86.5989 331.578C92.3136 326.161 99.3879 322.269 106.435 318.872C109.916 317.194 113.515 315.369 117.236 314.292C130.775 310.373 145.71 310.364 159.71 309.588C175.81 308.697 191.698 307.616 207.846 308.02C207.474 302.215 206.797 296.637 208.265 290.906C209.679 285.381 213.138 279.741 218.227 276.905C227.617 271.673 241.867 274.981 251.571 277.6L246.749 268.915C236.384 248.14 231.377 223.506 231.787 200.363C231.933 192.132 232.62 183.634 235.275 175.784C237.236 169.987 241.015 162.943 246.945 160.362C254.672 156.999 266.42 163.877 273.467 166.972L289.179 173.782C290.071 171.9 289.534 166.92 289.625 164.638C290.385 145.576 290.567 122.644 303.904 107.45C309.817 100.713 317.503 96.9935 326.438 96.4235C333.748 95.9572 341.318 97.8721 348.141 100.37C370.479 108.549 387.414 123.74 404.917 139.26L406.807 121.208C409.354 103.143 413.744 85.0758 420.569 68.1411C424.97 57.2205 429.811 44.5678 441.367 39.6496Z"/>
	<path fill="#DA9124" transform="matrix(0.1 0 0 0.1 -2.38419e-07 0)" d="M462.793 434.814L463.647 435.245C463.505 436.782 463.735 438.071 462.651 439.209L456.299 439.172L454.635 438.891L454.877 438.329L462.793 434.814Z"/>
	<path fill="#DA9124" transform="matrix(0.1 0 0 0.1 -2.38419e-07 0)" d="M426.047 545.125L434.057 544.951C433.985 548.406 434.391 562.682 433.004 564.697L431.806 563.704L421.054 546.306L421.631 545.416L426.047 545.125Z"/>
	<path fill="#DA9124" transform="matrix(0.1 0 0 0.1 -2.38419e-07 0)" d="M497.072 584.791L518.311 585.755C521.713 585.904 525.547 585.578 528.873 586.198C530.083 586.424 529.62 586.145 530.332 587.158C529.168 588.736 527.122 589.189 525.329 589.948C515.836 593.065 506.931 594.283 497.03 595.056L497.072 584.791Z"/>
	<path fill="#DA9124" transform="matrix(0.1 0 0 0.1 -2.38419e-07 0)" d="M572.818 465.861C580.046 474.206 585.063 485.162 587.064 495.982L572.42 494.987L572.818 465.861Z"/>
	<path fill="#DA9124" transform="matrix(0.1 0 0 0.1 -2.38419e-07 0)" d="M491.032 428.42C493.201 427.971 496.225 428.216 498.482 428.136L498.135 440.005L478.638 439.474L468.751 439.272C468.125 437.745 468.911 434.253 469.07 432.515C476.329 430.487 483.528 429.127 491.032 428.42Z"/>
	<path fill="#DA9124" transform="matrix(0.1 0 0 0.1 -2.38419e-07 0)" d="M503.621 428.136C514.412 429.15 524.174 431.561 534.185 435.707L534.064 442.016L503.161 440.366L503.621 428.136Z"/>
	<path fill="#DA9124" transform="matrix(0.1 0 0 0.1 -2.38419e-07 0)" d="M449.84 581.943L491.689 584.488L491.558 597.012C475.314 595.976 463.22 590.975 449.84 581.943Z"/>
	<path fill="#DA9124" transform="matrix(0.1 0 0 0.1 -2.38419e-07 0)" d="M440.617 544.689L456.793 544.403L455.453 571.264L454.346 571.826L438.834 570.657L439.154 545.094L440.617 544.689Z"/>
	<path fill="#DA9124" transform="matrix(0.1 0 0 0.1 -2.38419e-07 0)" d="M572.098 505.4L588.037 506.531C588.036 517.664 585.378 527.837 581.546 538.231L580.044 541.844L570.889 540.897L572.098 505.4Z"/>
	<path fill="#DA9124" transform="matrix(0.1 0 0 0.1 -2.38419e-07 0)" d="M437.33 449.951C438.269 449.662 438.523 449.648 439.453 449.742C440.408 452.486 439.349 457.545 439.134 460.52L437.068 487.039L416.872 485.912C415.803 485.966 415.237 486.022 414.307 485.455L414.357 484.95C414.798 482.279 416.33 479.34 417.454 476.898C422.214 466.558 428.433 457.206 437.33 449.951Z"/>
	<path fill="#DA9124" transform="matrix(0.1 0 0 0.1 -2.38419e-07 0)" d="M441.112 497.084L459.468 498.17L457.411 534.206L439.435 534.582L441.112 497.084Z"/>
	<path fill="#DA9124" transform="matrix(0.1 0 0 0.1 -2.38419e-07 0)" d="M458.739 449.465C459.932 449.486 461.001 449.494 462.158 449.835C463.019 453.358 461.851 458.947 461.581 462.619L459.94 488.101L447.144 487.617C445.497 487.544 443.906 487.534 442.313 487.061C441.624 483.227 442.882 477.625 443.22 473.662L444.962 449.533L458.739 449.465Z"/>
	<path fill="#DA9124" transform="matrix(0.1 0 0 0.1 -2.38419e-07 0)" d="M536.619 547.565L564.981 550.545L564.456 565.255C562.461 567.472 560.18 569.319 557.893 571.223C556.302 572.581 552.942 575.607 551.098 576.324C550.234 576.659 548.106 576.375 547.165 576.349L536.039 576.022L536.619 547.565Z"/>
	<path fill="#DA9124" transform="matrix(0.1 0 0 0.1 -2.38419e-07 0)" d="M462.03 544.379L492.861 544.534L491.938 574.255L460.974 572.354L462.03 544.379Z"/>
	<path fill="#DA9124" transform="matrix(0.1 0 0 0.1 -2.38419e-07 0)" d="M413.14 496.338L436.213 496.96L435.116 512.525C434.842 519.554 435.319 527.256 434.099 534.162L432.861 534.734L415.862 535.199C411.283 524.651 408.226 508.156 411.316 496.76L413.14 496.338Z"/>
	<path fill="#DA9124" transform="matrix(0.1 0 0 0.1 -2.38419e-07 0)" d="M498.04 544.778L531.13 547.02L530.243 575.67C526.453 575.973 522.471 575.548 518.659 575.406L497.449 574.592L498.04 544.778Z"/>
	<path fill="#DA9124" transform="matrix(0.1 0 0 0.1 -2.38419e-07 0)" d="M537.303 502.939L566.818 504.981C567.466 508.12 566.761 512.54 566.617 515.78L565.466 539.307C565.125 539.545 564.849 539.935 564.442 540.023C562.233 540.503 557.125 539.163 554.772 538.865L536.73 536.958L537.303 502.939Z"/>
	<path fill="#DA9124" transform="matrix(0.1 0 0 0.1 -2.38419e-07 0)" d="M464.334 498.512L495.061 500.086L493.162 534.56L462.726 534.167L464.334 498.512Z"/>
	<path fill="#DA9124" transform="matrix(0.1 0 0 0.1 -2.38419e-07 0)" d="M500.049 500.413L532.754 502.674L531.461 536.528L498.529 534.697L500.049 500.413Z"/>
	<path fill="#DA9124" transform="matrix(0.1 0 0 0.1 -2.38419e-07 0)" d="M538.837 452.958L556.641 454.04C558.179 454.155 560.8 454.003 562.228 454.462C563.855 454.986 566.429 458.39 567.644 459.673C568.186 464.127 567.872 468.912 567.863 473.408C567.85 480.485 567.937 487.643 567.217 494.69L537.923 492.875C537.104 489.525 537.905 484.484 538.002 480.977L538.837 452.958Z"/>
	<path fill="#DA9124" transform="matrix(0.1 0 0 0.1 -2.38419e-07 0)" d="M467.431 449.534L497.641 450.337L495.502 490.06L464.887 488.376L467.431 449.534Z"/>
	<path fill="#DA9124" transform="matrix(0.1 0 0 0.1 -2.38419e-07 0)" d="M502.61 450.64L533.848 452.575L533.028 491.943L531.936 492.432L500.482 490.421L502.61 450.64Z"/>
	<path fill="#FE40DB" transform="matrix(0.1 0 0 0.1 -2.38419e-07 0)" d="M704.553 143.183C705.995 143.072 707.751 142.797 709.131 143.321C711.299 144.144 712.705 146.044 713.623 148.089C715.324 151.88 715.608 156.696 716.064 160.789C717.344 172.27 716.828 183.957 716.006 195.461C714.37 218.345 710.518 240.274 704.863 262.5C702.74 270.845 700.687 279.512 697.379 287.481C694.778 289.122 677.24 301.183 676.505 301.139L678.855 287.477C683.79 260.686 685.845 229.942 679.212 203.342C678.195 199.266 676.977 194.23 674.668 190.674C672.205 186.879 668.307 184.328 663.857 183.584L663.086 183.464C660.414 183.022 657.985 183.273 655.313 183.533L654.675 166.892L683.278 152.078C690.135 148.731 697.009 144.68 704.553 143.183Z"/>
	<path fill="#FE40DB" transform="matrix(0.1 0 0 0.1 -2.38419e-07 0)" d="M125.024 471.885C127.874 471.464 131.176 471.694 134.082 471.614L129.769 475.872L134.191 488.128C135.763 491.869 138.265 495.204 140.568 498.528C157.595 523.097 184.694 534.658 211.374 545.487C206.765 546.311 201.631 546.03 196.952 546.037C177.981 546.068 159.782 544.297 141.018 541.57C130.882 539.804 120.779 537.837 110.84 535.157C102.607 532.938 94.9887 529.798 86.9834 526.973C75.7501 523.008 63.4721 519.848 53.2392 513.626C50.4336 511.92 48.5206 510.002 46.4772 507.449L51.363 500.923C68.9279 480.435 99.3774 473.99 125.024 471.885Z"/>
	<path fill="#FE40DB" transform="matrix(0.1 0 0 0.1 -2.38419e-07 0)" d="M851.763 364.009L928.144 393.375C938.016 397.736 948.224 401.471 956.74 408.279C952.507 414.971 943.591 420.82 937.418 425.675L906.007 449.55C904.426 450.684 895.878 457.36 894.523 457.584C894.142 457.647 892.048 456.725 891.488 456.535L880.565 453.126C868.28 449.761 855.862 447.811 843.283 446C851.085 439.269 857.912 432.034 860.654 421.849C861.956 417.012 862.156 410.743 859.386 406.323C853.388 396.753 836.594 396.713 826.682 394.8L851.763 364.009Z"/>
	<path fill="#FE40DB" transform="matrix(0.1 0 0 0.1 -2.38419e-07 0)" d="M325.229 107.123L327.19 107.014C335.767 106.857 344.53 109.542 352.272 113.021C371.314 121.578 387.799 135.753 402.766 150.057C403.186 150.458 404.594 151.548 404.729 151.943C405.088 152.987 404.727 155.686 404.74 156.916L405.081 173.515L396.229 167.687C390.612 164.631 383.593 162.759 377.311 164.812C367.02 168.174 361.663 177.775 357.194 186.884C353.56 195.229 351.697 204.4 349.873 213.281L294.663 176.718L295.501 154.854C296.165 142.308 296.89 127.039 305.047 116.801C310.189 110.348 317.284 107.979 325.229 107.123Z"/>
	<path fill="#FE40DB" transform="matrix(0.1 0 0 0.1 -2.38419e-07 0)" d="M816.82 186.237C819.314 186.026 821.494 186.092 823.951 186.582C826.586 187.107 828.397 188.341 829.904 190.543C831.552 199.105 828.301 208.7 826.509 217.098C822.676 235.063 818.593 253.141 812.081 270.358C811.577 271.69 810.067 276.697 809.131 277.501C807.989 278.482 804.146 279.258 802.49 279.865L787.675 285.979C787.449 282.557 787.095 278.715 785.967 275.467C784.267 270.573 781.015 266.505 776.242 264.345C762.502 258.123 743.436 266.74 730.376 271.479L704.557 283.36C712.359 257.482 717.789 231.193 720.578 204.304C752.065 194.778 784.182 189.718 816.82 186.237Z"/>
	<path fill="#FE40DB" transform="matrix(0.1 0 0 0.1 -2.38419e-07 0)" d="M765.937 399.641C789.331 399.218 811.607 403.454 834.629 406.668C841.494 407.626 850.889 409.243 855.325 415.119C855.649 417.663 855.307 420.013 854.369 422.404C851.889 428.729 846.479 433.771 841.231 437.878C827.049 448.979 809.723 456.881 793.203 463.884L771.536 472.599C770.288 473.084 766.406 474.975 765.137 474.803C764.326 474.693 763.084 473.974 762.287 473.652C732.639 460.198 700.585 451.375 668.572 445.948L696.938 424.337L709.029 413.92C711.838 411.345 715.614 406.621 718.979 405.029C721.519 403.827 725.493 403.569 728.271 403.124C740.898 401.105 753.15 400 765.937 399.641Z"/>
	<path fill="#FE40DB" transform="matrix(0.1 0 0 0.1 -2.38419e-07 0)" d="M853.276 279.998C866.072 279.479 881.038 281.203 892.762 286.377C893.702 287.724 893.702 288.03 893.601 289.682C892.721 304.167 844.436 362.674 833.232 376.14C828.694 381.594 823.967 388.361 818.673 393.027C817.778 393.816 817.114 393.381 815.971 393.216L774.781 389.218L730.664 392.649C755.681 364.706 778.648 333.446 786.802 296.114C807.447 285.951 830.438 281.279 853.276 279.998Z"/>
	<path fill="#FE40DB" transform="matrix(0.1 0 0 0.1 -2.38419e-07 0)" d="M441.509 49.9304C443.014 49.862 444.66 49.749 446.143 50.093C456.111 52.4057 464.933 67.2775 470.283 75.3666C481.126 91.7602 490.158 109.267 497.913 127.31C498.436 128.526 500.261 131.697 500.283 132.899C500.285 132.998 499.802 133.798 499.789 133.817C498.065 136.421 495.873 138.757 494.117 141.377C489.381 148.442 485.417 156.03 481.787 163.713C470.884 186.794 464.968 212.06 459.878 236.954L457.85 247.461C454.406 239.772 449.848 232.202 445.515 224.976C435.524 208.313 424.723 192.937 411.252 178.898C410.502 174.439 410.61 169.55 410.37 165.023C408.652 132.613 413.46 98.3908 426.374 68.464C429.617 60.9477 433.51 53.1326 441.509 49.9304Z"/>
	<path fill="#FE40DB" transform="matrix(0.1 0 0 0.1 -2.38419e-07 0)" d="M830.464 455.437C836.131 455.45 842.047 456.327 847.678 457.029C863.741 459.032 879.359 462.496 894.396 468.576C907.648 473.935 945.234 493.05 950.181 505.615C951.816 509.767 951.352 514.113 949.426 518.082C946.898 523.293 941.991 527.554 937.492 531.006C918.472 545.6 893.031 554.178 870.469 561.496C863.163 563.652 855.833 565.827 848.383 567.433C847.397 567.645 845.095 568.462 844.237 568.303C844 568.259 842.804 567.241 842.601 567.093L837.079 563.232C833.822 561.083 830.465 559.142 827.02 557.313C834.103 553.688 841.445 551.865 846.067 544.655C848.201 541.326 849.321 537.493 848.224 533.588C846.294 526.718 839.197 522.317 833.947 518.017C816.094 503.397 797.259 491.479 776.967 480.556C795.29 473.292 813.585 465.686 830.464 455.437Z"/>
	<path fill="#FE40DB" transform="matrix(0.1 0 0 0.1 -2.38419e-07 0)" d="M669.512 689.958C675.024 692.798 680.532 695.725 686.371 697.843C700.558 702.99 716.084 704.914 731.092 705.774L742.251 706.082C744.021 706.118 746.319 705.859 747.978 706.508C752.667 711.883 756.638 718.298 760.237 724.452C767.752 737.302 773.805 750.832 778.076 765.103C780.152 772.04 782.059 779.384 782.765 786.606C785.002 809.467 777.7 830.643 767.045 850.512C765.351 853.645 763.392 857.723 760.8 860.149C759.258 861.592 757.438 862.414 755.303 862.315C751.384 862.134 747.732 857.979 745.455 855.066C741.387 849.861 738.399 843.901 735.192 838.154L725.366 821.81L702.722 789.521C694.882 778.643 687.221 767.621 678.669 757.281L679.502 755.395C682.203 748.981 682.499 742.321 682.019 735.446C680.924 719.79 675.363 704.416 669.512 689.958Z"/>
	<path fill="#FE40DB" transform="matrix(0.1 0 0 0.1 -2.38419e-07 0)" d="M249.989 170.006C256.283 170.493 261.185 173.187 266.91 175.5C296.497 187.449 322.663 203.904 347.902 223.383C348.617 223.935 347.897 228.511 347.786 229.623C346.424 243.267 346.618 257.141 346.881 270.835C347.277 291.448 348.234 311.51 350.858 331.979L343.526 326.414L322.377 312.318L285.26 292.325C279.396 289.292 273.015 286.842 267.304 283.638C264.711 282.183 262.899 279.151 261.166 276.775C252.03 264.252 245.608 250.157 241.871 235.111C238.047 219.717 235.232 202.281 238.353 186.523C239.196 182.266 240.45 177.585 242.808 173.895C244.448 171.328 247.167 170.579 249.989 170.006Z"/>
	<path fill="#FE40DB" transform="matrix(0.1 0 0 0.1 -2.38419e-07 0)" d="M432.727 577.347L440.562 585.348C428.061 596.482 416.584 609.006 405.571 621.605C402.184 625.479 397.627 629.949 395.25 634.527C394.439 636.089 394.064 638.523 394.688 640.202C395.079 641.252 395.531 641.378 396.452 641.873C399.217 640.637 402.16 635.874 404.234 633.469C417.327 618.285 430.62 602.859 446.349 590.342L452.379 594.734C452.422 596.442 450.499 599.742 449.787 601.383L437.587 628.205L432.192 639.463C431.069 641.808 429.553 644.488 429.45 647.127C429.385 648.824 430.021 649.55 431.152 650.717C432.161 650.365 432.752 649.794 433.339 648.921C435.762 645.323 437.507 640.622 439.364 636.684L450.958 611.618C453.048 607.01 454.931 602.225 457.317 597.762L464.712 601.252C452.862 630.537 437.753 655.699 416.33 679C407.088 688.576 396.368 696.696 385.774 704.707C356.094 727.154 325.432 746.42 290.345 759.24C297.412 736.27 304.8 713.387 315.918 691.986C326.333 671.939 339.649 655.498 355.398 639.408C378.713 615.589 405.095 595.825 432.727 577.347Z"/>
	<path fill="#FE40DB" transform="matrix(0.1 0 0 0.1 -2.38419e-07 0)" d="M511.211 135.377C513.795 135.179 516.165 135.391 518.546 136.507C525.892 139.951 530.405 150.541 533.139 157.687C538.298 171.173 541.169 185.764 543.603 199.951L551.018 259.266L551.839 268.442C551.89 269.004 552.252 270.761 552.088 271.208C551.73 272.18 550.122 273.844 549.469 274.725L542.885 283.768L529.053 304.877C517.202 324.326 507.503 344.803 498.286 365.599L496.334 370.571C495.408 367.053 495.092 363.358 494.537 359.763L491.026 339.804C484.877 310.359 475.304 282.165 461.855 255.231C462.933 244.815 465.613 234.288 468.057 224.117C472.93 203.833 477.909 183.519 487.388 164.799C491.645 156.391 502.024 138.396 511.211 135.377Z"/>
	<path fill="#FE40DB" transform="matrix(0.1 0 0 0.1 -2.38419e-07 0)" d="M336.229 645.737L338.278 645.662L338.554 646.538C320.345 669.344 306.758 693.647 297.065 721.237L288.423 746.417C287.544 748.928 286.939 752.106 285.594 754.39C283.902 757.263 281.068 759.983 278.811 762.475C272.928 768.971 266.703 775.195 260.107 780.966C242.96 795.97 223.484 808.901 202.761 818.409C194.141 822.364 184.727 826.567 175.053 825.917L173.507 824.995C172.236 824.124 171.322 822.731 171.154 821.18C170.948 819.285 171.886 816.929 172.419 815.118L176.485 802.161C188.462 766.024 205.841 731.815 226.557 699.932C235.696 685.867 245.486 671.855 256.104 658.866C256.56 658.307 257.437 657.052 258.025 656.741C258.888 656.285 261.271 656.217 262.287 656.062L276.441 654.186L336.229 645.737Z"/>
	<path fill="#FE40DB" transform="matrix(0.1 0 0 0.1 -2.38419e-07 0)" d="M589.214 734.106L595.489 738.976C611.096 751.074 628.534 760.688 647.667 765.869C651.713 766.965 656.364 768.392 660.574 767.797L661.377 767.672C665.72 767.035 668.949 765.744 672.8 763.744L715.098 821.109C711.349 842.649 704.01 862.769 693.848 882.096C691.95 885.647 689.344 890.707 685.943 892.942C680.367 896.606 672.534 897.514 666.092 896.013C654.64 893.345 645.102 885.715 636.921 877.612C626.548 867.339 617.385 855.484 609.631 843.124C597.121 823.185 587.173 803.056 580.263 780.497C579.523 778.082 577.535 773.976 577.464 771.661C577.451 771.23 578.16 769.741 578.313 769.316L581.033 761.642C584.153 752.591 587.066 743.441 589.214 734.106Z"/>
	<path fill="#FE40DB" transform="matrix(0.1 0 0 0.1 -2.38419e-07 0)" d="M452.833 640.743L454.256 664.873C456.584 687.007 462.829 707.422 470.638 728.146L474.637 738.409C475.013 739.377 475.928 741.091 475.892 742.084C475.818 744.112 474.501 747.032 473.873 748.994C468.889 764.557 462.56 779.999 454.133 794.033C450.446 800.172 445.721 805.949 441.208 811.501C431.683 823.219 421.32 834.111 409.581 843.633C404.369 847.86 398.888 852.065 392.91 855.139L388.947 856.586C386.372 857.344 383.09 857.293 380.755 855.937C376.735 853.602 374.987 848.393 374.039 844.096C372.423 836.773 372.432 828.858 372.042 821.376L371.166 799.505C371.363 776.745 374.387 754.362 378.995 732.105L381.223 721.795C381.441 720.887 381.677 718.943 382.116 718.187C382.483 717.553 384.467 716.296 385.095 715.796L395.268 707.765C405.051 699.867 414.356 691.307 423.037 682.211C435.081 669.593 443.57 655.348 452.833 640.743Z"/>
	<path fill="#FE40DB" transform="matrix(0.1 0 0 0.1 -2.38419e-07 0)" d="M558.325 582.275L559.081 582.181C562.789 583.642 566.478 586.213 569.945 588.207C584.68 596.684 599.338 605.459 611.888 617.046C619.679 624.239 626.186 632.556 632.507 641.035C650.783 665.549 664.843 691.517 672.94 721.15C674.661 727.446 676.651 733.75 676.878 740.316C677.004 743.952 677.056 748.736 674.366 751.502C670.52 755.458 665.258 757.736 659.721 757.671C651.145 757.571 642.838 753.854 635.173 750.389C628.13 747.206 620.987 744.131 614.307 740.228C601.216 732.576 590.4 723.132 579.816 712.378C560.299 691.614 542.236 665.018 533.887 637.653C530.122 625.313 528.269 613.071 526.382 600.362L536.104 596.389C538.788 601.22 540.817 606.444 543.223 611.421C546.158 617.496 549.549 623.322 553.449 628.83C555.263 631.392 557.082 634.292 559.57 636.215L560.731 635.986C561.844 634.736 562.658 633.493 563.174 631.882C563.6 630.551 563.768 628.7 563.186 627.41C561.551 623.784 557.536 620.081 555.26 616.648C551.259 610.613 548.165 603.933 545.039 597.415C551.65 601.906 557.94 606.935 564.181 611.925C568.305 615.222 572.649 619.286 577.393 621.617C577.905 621.334 578.436 621.064 578.857 620.647C580.79 618.732 581.003 615.823 581.02 613.281C580.804 612.635 580.812 612.511 580.322 611.893C579.717 611.13 578.448 610.469 577.637 609.884L570.67 604.747L549.863 588.653L558.325 582.275Z"/>
	<path fill="#FE40DB" transform="matrix(0.1 0 0 0.1 -2.38419e-07 0)" d="M808.912 561.199C809.683 561.057 810.492 560.915 811.279 560.958C814.032 561.105 818.479 563.942 820.9 565.24C846.251 578.84 866.166 599.555 885.836 620.115L898.673 633.049C903.812 638.594 909.391 646.33 908.921 654.288C908.601 659.728 905.583 664.385 901.488 667.816C895.411 672.909 887.726 676.003 880.202 678.256C860.751 684.081 840.963 684.602 820.917 682.735L801.067 679.853C800.358 679.716 797.414 679.405 796.948 679.027C796.096 678.333 795.189 675.91 794.681 674.914L789.703 665.983L780.618 651.468C770.613 634.166 761.485 616.434 748.258 601.265C739.428 591.138 728.154 582.024 716.582 575.242C726.162 572.185 736.665 570.933 746.609 569.533L808.912 561.199Z"/>
	<path fill="#FE40DB" transform="matrix(0.1 0 0 0.1 -2.38419e-07 0)" d="M611.419 59.8145C613.838 59.6287 614.438 59.9564 616.361 61.6003C621.122 65.67 624.161 71.8377 626.665 77.4586C631.678 88.7087 635.087 100.544 638.343 112.395C641.172 122.695 643.953 132.876 645.82 143.405C647.68 153.9 648.906 164.451 649.585 175.087C649.675 176.491 650.484 184.009 650.017 184.821C649.495 185.727 644.921 187.523 643.716 188.279L622.197 202.848C600.687 218.472 581.304 236.871 563.801 256.85L557.22 264.729L554.77 238.864C552.778 220.079 550.097 201.343 546.313 182.831C543.377 168.467 539.774 153.118 532.912 140.08C543.378 123.795 554.916 108.929 568.53 95.1359C575.78 87.7904 583.515 81.0979 591.324 74.3661C597.418 69.1127 603.823 62.7742 611.419 59.8145Z"/>
	<path fill="#FE40DB" transform="matrix(0.1 0 0 0.1 -2.38419e-07 0)" d="M374.146 723.877L374.949 723.796L375.435 724.365C372.607 737.594 369.749 751.079 368.13 764.514C366.397 778.89 365.968 793.51 365.939 807.982C365.926 814.951 365.933 821.992 366.454 828.941L367.373 838.925C367.45 839.607 367.955 841.826 367.775 842.4C367.683 842.691 367.477 842.932 367.325 843.196C364.137 848.712 359.6 853.997 355.703 859.036L328.293 891.648C320.313 900.485 312.058 909.527 302.356 916.517C296.57 920.686 290.775 923.362 283.912 925.215C279.758 923.266 277.939 921.23 275.811 917.25C274.211 912.422 273.178 907.445 272.004 902.501C263.717 867.608 264.974 832.54 270.909 797.36L273.354 783.988C273.747 782.012 273.99 779.313 274.895 777.523C275.946 775.447 282.415 768.117 284.424 767.582C285.364 768.644 285.91 769.323 287.354 769.678C292.563 768.684 297.946 766.4 302.893 764.437C328.312 754.353 351.881 739.589 374.146 723.877Z"/>
	<path fill="#FE40DB" transform="matrix(0.1 0 0 0.1 -2.38419e-07 0)" d="M237.077 551.882L238.325 552.207L238.442 552.979L208.56 580.277C197.088 592.322 186.846 605.41 177.258 618.984C171.979 626.459 162.835 636.943 163.357 646.69C163.537 650.053 164.932 652.827 167.564 654.957C175.929 661.724 191.275 660.393 201.306 660.333L248.788 657.729L231.711 680.234C230.124 681.759 224.461 682.511 222.103 683.095C196.327 689.484 170.233 692.48 143.677 691.516C125.034 691.039 106.047 689.098 87.747 685.464C76.1273 683.157 64.2372 680.519 54.3013 673.781C54.6243 671.515 56.4879 668.633 57.5154 666.55C62.8433 655.747 68.8967 645.335 75.709 635.398C94.7532 607.619 118.911 582.794 144.899 561.458C146.728 559.956 152.047 554.711 154.168 554.397C155.8 554.155 158.408 554.774 160.096 554.931L174.552 555.891C195.744 556.386 216.197 555.798 237.077 551.882Z"/>
	<path fill="#FE40DB" transform="matrix(0.1 0 0 0.1 -2.38419e-07 0)" d="M518.636 602.626L519.775 602.431C521.442 602.444 521.173 604.339 521.385 605.678C523.385 618.323 524.955 630.528 528.785 642.822C539.432 676.993 559.64 705.719 585.178 730.31L570.923 773.901C565.364 788.628 553.109 821.387 538.395 827.597C535.009 829.026 531.651 829.188 528.239 827.73C523.416 825.67 519.847 821.682 516.846 817.506C509.099 806.729 504.195 793.862 499.304 781.613C486.827 749.034 470.915 716.506 463.113 682.397C460.439 670.706 459.088 658.748 458.624 646.773C458.423 641.585 457.566 635.078 458.385 629.98C458.862 627.013 461.36 623.172 462.633 620.311L469.757 603.116L481.884 606.246C481.901 614.244 483.796 622.263 484.845 630.17C485.591 635.79 488.464 665.371 490.967 668.536C492.12 668.551 492.76 668.252 493.543 667.399C494.642 666.202 495.11 664.17 495.131 662.598C495.213 656.531 493.463 649.709 492.596 643.681L487.725 606.938C493.755 608.12 500.73 607.796 506.829 607.356C510.627 604.156 513.899 603.625 518.636 602.626Z"/>
	<path fill="#FE40DB" transform="matrix(0.1 0 0 0.1 -2.38419e-07 0)" d="M585.155 546.514C601.881 546.918 617.758 548.676 634.033 552.753C651.372 557.098 668.104 563.346 684.57 570.236C699.591 576.52 713.951 583.7 726.807 593.853C756.976 617.681 773.101 654.557 792.338 686.842L790.959 687.885C774.25 698.968 747.588 697.003 728.407 695.194C719.663 694.37 710.864 693.434 702.237 691.765C690.983 689.13 680.549 684.955 670.451 679.356C668.265 678.144 665.354 676.827 663.546 675.125C662.453 674.096 661.686 672.261 660.987 670.945L656.65 663.079L647.625 648.339C639.485 635.832 630.387 622.789 619.95 612.117C613.247 605.263 605.702 599.291 597.811 593.869L566.724 574.692C570.104 571.179 573.014 567.683 575.83 563.69C582.967 566.63 589.818 569.527 596.61 573.224L617.053 585.267C619.693 586.849 623.632 589.834 626.566 590.516C627.132 590.119 627.734 589.733 628.174 589.187C629.882 587.067 630.117 584.146 629.762 581.567C627.276 578.594 622.72 576.66 619.376 574.698L581.164 554.708L585.155 546.514Z"/>
	<path fill="#FE40DB" transform="matrix(0.1 0 0 0.1 -2.38419e-07 0)" d="M182.466 318.578L205.197 318.396C206.303 318.43 211.208 318.196 211.964 318.652C212.07 318.716 212.807 320.099 212.929 320.306L217.18 327.422C220.992 333.599 225.355 339.357 229.924 344.988L256.718 375.732L274.807 397.273L306.6 432.11C272.327 423.594 237.115 428.63 203.754 438.865L187.478 444.412L127 403.447C112.445 391.598 99.0626 378.022 88.3451 362.567C86.052 359.26 82.6792 355.14 82.4434 351.03C82.2594 347.823 84.0224 345.021 86.1112 342.736C89.4719 339.059 93.7994 336.516 98.0233 333.967C103.512 330.653 108.832 327.473 114.949 325.439C124.744 322.183 134.894 321.861 145.084 321.032L182.466 318.578Z"/>
	<path fill="#FE40DB" transform="matrix(0.1 0 0 0.1 -2.38419e-07 0)" d="M408.983 541.171C409.779 540.938 410.552 540.962 411.377 540.926C413.042 543.716 414.205 547.038 415.497 550.03C400.502 561.155 383.165 569.716 367.006 579.09C362.133 581.917 356.649 584.596 352.091 587.889C350.524 589.021 349.365 591.012 349.094 592.926C348.817 594.879 349.11 596.231 350.342 597.745C352.796 597.73 401.505 568.772 407.41 565.037C411.436 562.491 415.22 559.812 418.866 556.745L427.669 570.518C409.626 582.689 392.198 595.645 375.798 609.973L361.302 623.228L353.699 630.67C352.738 631.594 351.366 633.284 350.25 633.952C349.32 634.509 346.012 634.604 344.895 634.703L330.261 636.086L285.268 642.561C262.881 646.239 239.797 649.153 217.117 650.241C205.506 650.799 193.09 651.303 181.641 648.894C176.885 647.894 173.088 646.418 169.051 643.719C169.678 641.525 171.494 639.251 172.741 637.294L182.87 622.218C199.745 598.568 219.831 577.475 243.341 560.336L250.165 555.579C250.709 555.232 252.11 554.146 252.674 554.018C253.745 553.777 256.194 554.272 257.367 554.345L270.264 554.964L301.443 554.494C324.158 553.141 346.709 550.143 369.225 546.95L408.983 541.171Z"/>
	<path fill="#FE40DB" transform="matrix(0.1 0 0 0.1 -2.38419e-07 0)" d="M479.292 750.491L487.531 770.721C494.663 789.486 501.255 810.445 513.176 826.811C516.185 830.942 520.109 835.488 524.904 837.559C529.229 839.426 534.535 839.09 538.818 837.31C556.327 830.033 567.09 798.179 573.632 781.404C579.016 799.32 585.647 815.494 594.002 832.209C591.842 854.622 586.822 876.417 578.195 897.237C575.366 904.063 571.88 910.623 568.516 917.196C562.384 928.611 555.952 940.285 547.754 950.364C544.972 953.784 541.573 957.848 537.532 959.828C533.61 961.75 529.733 960.103 525.879 958.558C514.085 953.831 505.551 943.886 497.223 934.704C481.709 917.601 466.165 898.161 456.946 876.792C450.209 861.177 445.448 845.006 441.435 828.504C441.272 827.835 440.12 824.198 440.279 823.738C440.465 823.199 441.914 821.817 442.337 821.313L447.3 815.186C452.104 808.994 456.366 802.382 460.178 795.539C464.873 787.109 468.939 778.329 472.421 769.331L479.292 750.491Z"/>
	<path fill="#FE40DB" transform="matrix(0.1 0 0 0.1 -2.38419e-07 0)" d="M655.178 455.49C674.574 455.916 693.074 460.97 711.516 466.46C742.476 475.677 772.214 487.541 799.561 504.952C815.083 514.834 829.208 526.112 842.616 538.7C837.581 542.427 832.306 545.09 826.35 547.037C818.301 549.669 809.729 550.718 801.399 552.11L775.879 556.04C757.551 558.29 739.408 559.72 721.31 563.658L710.107 566.792C708.937 567.176 706.195 568.482 705.19 568.431C704.619 568.403 702.943 567.364 702.308 567.057L693.05 562.607L674.82 555.118C655.994 548.083 636.251 541.786 616.394 538.603C607.243 537.136 597.996 536.625 588.746 536.287C589.176 534.811 591.535 524.518 591.657 524.435C592.331 523.975 597.462 524.131 598.463 524.107C603.617 523.982 635.405 523.721 637.451 522.297C638.595 520.699 639.414 519.081 639.611 517.09C639.785 515.333 639.718 514.619 638.611 513.297C636.338 512.834 633.834 513.124 631.52 513.197L619.717 513.654L592.989 514.704C593.317 506.318 593.153 498.4 591.553 490.13C614.413 480.912 634.743 469.242 655.178 455.49Z"/>
	<path fill="#FE40DB" transform="matrix(0.1 0 0 0.1 -2.38419e-07 0)" d="M228.025 284.814L234.39 285.008C254.804 287.452 275.212 297.977 293.201 307.404C311.113 316.79 328.753 326.848 345.03 338.894C357.393 348.043 368.652 358.526 380.123 368.745C402.786 388.935 425.638 409.273 444.345 433.287C441.846 435.549 438.933 437.382 436.325 439.531C433.003 442.269 430.091 445.351 427.195 448.523C418.254 435.291 409.009 425.416 395.555 416.6C392.526 414.616 389.361 412.364 386.11 410.785C383.877 409.701 382.866 409.589 380.661 410.4C379.686 411.817 379.057 413.086 378.728 414.79C378.402 416.478 378.357 417.932 379.395 419.37C383.245 420.673 386.48 422.649 389.95 424.732C402.893 432.976 412.737 442.669 421.531 455.249C420.645 458.431 417.381 462.133 415.779 465.237C412.646 471.306 410.553 477.403 408.664 483.948C406.361 483.603 402.566 480.428 400.378 479.055L375.382 463.43L353.395 450.792L334.808 441.832C331.451 440.408 327.042 439.303 324.025 437.343C319.661 434.509 315.192 428.71 311.557 424.924L253.337 359.381C243.197 347.473 232.344 335.888 223.292 323.119C219.143 317.266 214.148 309.909 213.013 302.653C212.362 298.49 212.958 294.204 215.546 290.776C218.695 286.606 223.183 285.574 228.025 284.814Z"/>
	<path fill="#FE40DB" transform="matrix(0.1 0 0 0.1 -2.38419e-07 0)" d="M761.256 273.124C765.564 272.605 770.236 272.54 774.284 274.24C777.678 275.666 779.505 278.074 780.815 281.439C784.632 291.247 779.641 304.975 775.814 313.987C770.869 325.63 764.256 336.649 757.249 347.162C732.394 384.455 699.368 413.41 662.998 439.119C649.665 448.543 636.444 457.581 622.039 465.315C611.339 471.06 600.243 475.894 589.006 480.474L584.045 469.379L617.859 437.672C619.765 435.618 620.056 433.107 619.951 430.42C619.236 429.213 619.155 428.992 617.92 428.368C615.057 429.571 612.074 433.291 609.711 435.423C600.081 444.109 590.511 452.702 581.547 462.088C580.892 462.702 581.307 462.438 580.221 462.735C579.937 462.386 577.755 459.919 577.736 459.68C577.707 459.322 580.096 455.79 580.397 455.299L599.873 425.403C602.506 421.535 606.138 417.465 608.284 413.372C609.035 411.94 609.507 410.473 609.593 408.851C609.681 407.191 609.359 406.267 608.197 405.029C607.695 405.163 607.132 405.156 606.689 405.43C604.324 406.892 601.203 413.084 599.56 415.527L573.959 454.62C568.191 447.398 561.11 441.37 553.707 435.9L567.243 416.963C592.088 384.362 622.098 356.222 653.734 330.322C666.982 319.476 680.309 308.791 694.895 299.763C707.235 292.125 719.91 286.345 733.442 281.168C742.564 277.678 751.534 274.437 761.256 273.124Z"/>
	<path fill="#FE40DB" transform="matrix(0.1 0 0 0.1 -2.38419e-07 0)" d="M264.962 438.204C316.96 435.651 364.405 466.642 406.121 493.758L405.04 509.735L340.187 512.659C338.134 512.683 336.47 512.173 335.007 513.672C334.973 516.856 338.535 520.497 340.45 522.894L406.041 519.793L408.359 530.853L349.997 539.218L318.268 543.091C289.752 546.072 259.761 546.004 231.676 539.88C211.521 535.485 193.164 528.137 175.461 517.569C166.347 512.129 157.899 506.334 150.635 498.508C145.606 493.091 141.747 486.436 137.771 480.233C174.888 455.633 220.499 440.191 264.962 438.204Z"/>
	<path fill="#FE40DB" transform="matrix(0.1 0 0 0.1 -2.38419e-07 0)" d="M656.285 193.964C659.862 193.5 663.446 193.56 666.602 195.505C672.088 198.886 674.58 205.806 675.774 211.832C677.057 218.305 677.234 225.016 677.488 231.594C678.311 252.899 676.519 274.431 672.188 295.304C671.623 298.026 670.918 303.831 669.624 306.148C668.721 307.766 665.737 309.561 664.246 310.735L652.67 320.201C636.335 333.903 620.043 347.8 604.869 362.791C583.73 383.677 564.376 407.272 547.895 432.026C541.135 428.011 534.381 424.896 526.992 422.233C533.213 413.044 539.952 404.293 547.035 395.752C550.489 391.587 554.81 387.401 557.766 382.898C558.711 381.459 558.978 379.924 559.221 378.246L559.297 377.686C559.256 377.228 559.209 376.391 559.044 375.977C558.574 374.796 557.965 374.72 556.885 374.486C553.889 376.525 551.394 380.336 549.033 383.158C539.022 395.121 529.679 407.346 521.492 420.635C514.295 418.847 507.422 418.022 500.031 417.644L498.622 396.165C498.345 392.664 497.426 388.331 497.765 384.874C498.082 381.64 500.129 377.679 501.313 374.611C508.713 355.428 517.686 336.919 528.093 319.181C553.008 276.716 586.27 239.634 626.268 210.862C635.603 204.147 645.018 196.9 656.285 193.964Z"/>
	<path fill="#FE40DB" transform="matrix(0.1 0 0 0.1 -2.38419e-07 0)" d="M382.519 174.471C391.873 175.068 399.08 179.993 405.864 186.14C421.042 199.89 432.723 217.905 443.033 235.46C464.381 271.808 480.088 310.399 487.735 351.953C491.74 373.715 493.455 395.75 494.517 417.822C488.893 417.997 483.204 418.489 477.739 419.887L477.285 420.008C469.507 404.595 465.294 388.411 454.014 374.756C452.698 373.162 452.022 372.296 449.951 372.133C447.99 373.759 447.323 375.641 446.984 378.147C446.668 380.481 447.638 381.392 448.979 383.124C458.922 393.709 464.117 408.41 469.476 421.658L451.367 429.343C430.388 401.948 405.05 379.657 379.771 356.403L365.106 343.394C363.038 341.641 359.406 339.384 357.819 337.298C357.327 336.651 357.033 334.338 356.851 333.41L354.458 317.56C352.43 300.445 352.011 283.08 351.981 265.861C351.95 247.799 352.109 230.23 355.537 212.402C357.489 202.254 360.752 191.106 367.343 182.929C371.443 177.843 375.999 175.192 382.519 174.471Z"/>
</svg>
