<?xml version="1.0" encoding="utf-8" ?>
<svg xmlns="http://www.w3.org/2000/svg" xmlns:xlink="http://www.w3.org/1999/xlink" width="100" height="100">
	<path fill="#293034" transform="matrix(0.1 0 0 0.1 4.76837e-07 -1.52588e-05)" d="M441.366 39.6486C444.798 39.1884 447.85 39.3861 451.055 40.7682C459.966 44.612 466.392 54.7681 471.591 62.5243C485.413 83.145 496.094 104.991 505.779 127.795C509.649 125.391 512.823 123.909 517.521 124.458C522.735 125.068 526.63 130.022 529.6 133.865L534.991 125.188C551.737 100.002 573.382 78.4277 596.701 59.3262C600.648 56.0937 606.553 50.1762 611.633 49.3156C615.04 48.7384 617.081 49.8133 619.767 51.8569C626.329 56.8506 629.279 65.5819 632.29 72.9082C643.255 99.5795 650.453 128.55 653.928 157.141C655.288 157.185 659.936 153.884 661.544 153.01L683.869 141.677C690.879 138.21 700.384 132.031 708.42 132.378C711.094 132.493 713.783 133.737 715.507 135.807C718.124 138.951 719.158 142.995 720.033 146.894C723.398 161.889 722.469 178.989 721.587 194.237L751.92 186.281C768.313 182.465 784.615 180.03 801.27 177.751C807.388 176.913 813.671 175.429 819.869 175.547C823.518 175.616 827.936 176.188 831.013 178.267C833.53 179.968 835.004 183.312 835.512 186.209L835.637 186.983C837.463 197.463 833.601 209.026 831.407 219.238C827.326 238.24 823.034 257.008 816.231 275.26L824.882 273.193C842.491 269.244 860.387 268.704 878.247 271.121C883.73 271.863 890.454 272.792 895.131 275.993C897.678 277.737 899.169 280.132 899.637 283.16C900.31 287.507 898.869 292.268 897.418 296.362C894.918 303.415 890.957 309.741 887.004 316.049C878.403 329.774 868.45 342.527 858.721 355.45C860.72 356.664 863.507 357.32 865.741 358.103L880.046 363.196L932.056 383.703C941.006 387.572 953.711 391.425 960.192 399.067C962.05 401.257 963.572 404.387 963.216 407.333C962.621 412.25 959.314 416.384 956.077 419.915C950.579 425.914 943.806 430.679 937.437 435.692L904.026 461.406C909.921 463.333 916.061 467.04 921.427 470.099C928.524 474.143 935.287 478.721 941.911 483.493C945.296 485.932 949.166 488.411 951.896 491.589C953.693 493.682 954.869 496.432 955.554 499.079C957.83 507.874 955.746 519.792 951.178 527.603C941.879 543.5 920.613 552.021 904.422 558.895C887.981 565.874 871.831 571.737 854.559 576.384C868.148 588.371 880.542 601.517 893.126 614.531C898.462 620.049 904.439 625.017 908.747 631.425C913.748 638.863 915.906 648.357 914.098 657.19C912.33 665.832 906.416 675.397 898.919 680.154C882.822 690.371 864.251 693.181 845.56 693.989C829.924 694.666 813.418 693.689 798.142 690.121L797.515 689.97C796.514 691.891 795.511 693.91 794.072 695.544C785.737 705.005 769.985 705.614 758.327 706.365C779.493 738.606 794.177 776.643 786.507 815.656C783.894 828.945 778.346 841.351 772.343 853.405C769.174 859.767 765.891 867.441 759.727 871.471C757.644 872.833 755.033 873.342 752.6 872.778C741.056 870.103 725.786 838.085 719.339 827.119L717.675 834.932C713.774 852.168 707.402 867.88 699.576 883.682C696.021 890.86 693.008 899.28 685.801 903.599C678.648 907.884 670.026 907.819 662.212 905.675C655.06 903.713 649.27 899.856 643.424 895.4C624.483 880.962 610.394 861.077 598.485 840.715C597.434 844.094 597.285 848.132 596.707 851.653L592.553 871.684C584.46 903.234 568.906 933.255 549.527 959.352C545.771 964.41 540.449 970.445 533.801 971.206C525.684 972.135 516.331 965.138 510.222 960.478C501.13 953.265 493.489 944.212 485.993 935.41C479.212 927.448 472.574 919.515 466.84 910.747C456.268 894.581 448.285 876.603 442.482 858.209L434.849 829.497C426.321 838.586 417.77 847.943 408.031 855.764C403.421 859.467 398.177 863.245 392.57 865.266C388.043 866.897 381.438 868.255 376.993 865.803C372.386 863.262 370.7 856.382 369.311 851.697C352.089 875.97 332.722 901.546 309.763 920.731C302.42 926.868 291.12 936.372 280.793 935.005C278.042 934.64 275.455 931.842 273.865 929.688C268.698 922.682 267.706 913.196 265.98 904.892C259.877 875.53 259.085 847.147 262.655 817.383L267.891 784.289L267.375 784.771C245.169 805.502 219.949 823.728 190.677 832.906C185.748 834.451 178.607 836.755 173.434 836.341C171.153 836.159 169.248 835.039 167.851 833.252C165.564 830.327 165.413 825.26 165.826 821.734C168.344 800.239 178.133 779.08 187.138 759.572C197.668 736.761 209.144 714.293 222.767 693.166C199.36 699.779 174.138 702.309 149.876 702.124C123.529 701.924 96.4549 699.041 70.9878 692.154C64.6538 690.442 56.1388 688.524 51.5137 683.518C49.1544 680.965 48.1436 677.898 48.4462 674.448C49.0945 667.058 54.4091 659.203 57.9316 652.754C63.2471 643.022 68.8145 633.375 75.1873 624.29C93.881 597.639 117.957 573.543 143.125 553.039L110.84 545.943C95.6716 541.724 80.7818 536.389 66.1179 530.674C60.5741 528.513 54.507 526.571 49.4228 523.472C46.6311 521.77 44.2501 519.731 42.7082 516.812C40.6959 513.002 40.7466 507.239 42.1417 503.215C44.9408 495.142 50.8098 489.53 57.4587 484.46C76.3835 470.029 100.551 462.94 124.053 461.248C129.138 460.882 134.308 460.767 139.404 460.911C142.533 461 147.067 461.944 150.055 461.315C153.253 460.641 157.374 457.706 160.337 456.211L175.978 448.791C151.392 433.175 125.968 417.524 105.358 396.726C100.369 391.692 95.7833 386.334 91.3065 380.844C84.3754 372.346 76.4139 362.744 76.5418 351.179C76.6309 343.124 80.9717 336.943 86.5963 331.583C92.2588 326.187 99.3221 322.308 106.312 318.921C109.832 317.216 113.473 315.383 117.24 314.29C130.771 310.365 145.721 310.368 159.716 309.587C175.797 308.69 191.713 307.595 207.844 308.058C207.481 302.244 206.797 296.647 208.264 290.906C209.678 285.374 213.139 279.748 218.228 276.905C227.6 271.668 241.859 274.985 251.551 277.587L246.749 268.915C236.487 248.357 231.58 224.217 231.788 201.318C231.866 192.761 232.522 183.945 235.276 175.784C237.235 169.981 241.021 162.939 246.955 160.356C254.692 156.988 266.446 163.898 273.446 166.961L289.179 173.782C290.011 172.029 289.532 167.106 289.616 164.973C290.368 145.826 290.506 122.727 303.904 107.452C309.817 100.709 317.501 96.9963 326.438 96.4241C333.75 95.956 341.317 97.8724 348.141 100.37C370.486 108.547 387.41 123.736 404.916 139.258C405.891 133.341 405.994 127.163 406.81 121.177C409.225 103.452 413.626 85.5743 420.243 68.9508C424.684 57.7959 429.596 44.7021 441.366 39.6486Z"/>
	<path fill="#DA9124" transform="matrix(0.1 0 0 0.1 4.76837e-07 -1.52588e-05)" d="M462.788 434.814L463.649 435.242C463.506 436.78 463.739 438.072 462.646 439.204L456.299 439.172L454.641 438.884L454.877 438.329L462.788 434.814Z"/>
	<path fill="#DA9124" transform="matrix(0.1 0 0 0.1 4.76837e-07 -1.52588e-05)" d="M426.044 545.125L434.051 544.948C433.984 548.386 434.385 562.705 432.998 564.697L431.807 563.704L421.054 546.308L421.631 545.415L426.044 545.125Z"/>
	<path fill="#DA9124" transform="matrix(0.1 0 0 0.1 4.76837e-07 -1.52588e-05)" d="M497.072 584.791L518.311 585.755C521.71 585.904 525.551 585.575 528.873 586.2C530.082 586.428 529.619 586.149 530.334 587.158C529.16 588.737 527.105 589.192 525.305 589.952C515.826 593.074 506.918 594.284 497.029 595.058L497.072 584.791Z"/>
	<path fill="#DA9124" transform="matrix(0.1 0 0 0.1 4.76837e-07 -1.52588e-05)" d="M572.815 465.861C580.03 474.171 585.09 485.183 587.053 495.978L572.422 494.988L572.815 465.861Z"/>
	<path fill="#DA9124" transform="matrix(0.1 0 0 0.1 4.76837e-07 -1.52588e-05)" d="M491.032 428.42C493.2 427.97 496.226 428.215 498.482 428.134L498.135 440.005L478.638 439.476L468.508 439.262L469.061 432.517C476.337 430.492 483.515 429.147 491.032 428.42Z"/>
	<path fill="#DA9124" transform="matrix(0.1 0 0 0.1 4.76837e-07 -1.52588e-05)" d="M503.618 428.137C514.426 429.285 524.105 431.531 534.185 435.709L534.062 442.017L503.161 440.366L503.618 428.137Z"/>
	<path fill="#DA9124" transform="matrix(0.1 0 0 0.1 4.76837e-07 -1.52588e-05)" d="M449.841 581.943L491.689 584.488L491.558 597.014C475.371 596.046 463.148 590.928 449.841 581.943Z"/>
	<path fill="#DA9124" transform="matrix(0.1 0 0 0.1 4.76837e-07 -1.52588e-05)" d="M440.617 544.689L456.792 544.404L455.453 571.264L454.346 571.827L438.834 570.659L439.155 545.095L440.617 544.689Z"/>
	<path fill="#DA9124" transform="matrix(0.1 0 0 0.1 4.76837e-07 -1.52588e-05)" d="M572.104 505.395L588.035 506.532C588.038 517.658 585.381 527.844 581.546 538.228L580.042 541.844L570.889 540.901L572.104 505.395Z"/>
	<path fill="#DA9124" transform="matrix(0.1 0 0 0.1 4.76837e-07 -1.52588e-05)" d="M437.337 449.951C438.27 449.662 438.527 449.647 439.453 449.739C440.613 452.061 437.507 482.436 437.069 487.037L416.873 485.908L414.795 485.905L414.205 485.107C418.273 471.937 426.6 458.682 437.337 449.951Z"/>
	<path fill="#DA9124" transform="matrix(0.1 0 0 0.1 4.76837e-07 -1.52588e-05)" d="M441.112 497.084L459.469 498.17L457.412 534.208L439.436 534.582L441.112 497.084Z"/>
	<path fill="#DA9124" transform="matrix(0.1 0 0 0.1 4.76837e-07 -1.52588e-05)" d="M458.833 449.467C460.015 449.493 461.013 449.503 462.158 449.831C463.019 453.357 461.851 458.945 461.581 462.619L459.94 488.101L447.128 487.617C445.684 487.568 443.363 487.788 442.226 486.891C442.081 482.146 442.91 477.057 443.323 472.31L444.962 449.533L458.833 449.467Z"/>
	<path fill="#DA9124" transform="matrix(0.1 0 0 0.1 4.76837e-07 -1.52588e-05)" d="M536.618 547.563L564.981 550.544L564.457 565.252C562.463 567.472 560.182 569.319 557.894 571.224C555.547 573.025 553.22 575.06 550.599 576.443L540.749 576.177C539.242 576.135 537.445 576.327 536.04 575.766L536.618 547.563Z"/>
	<path fill="#DA9124" transform="matrix(0.1 0 0 0.1 4.76837e-07 -1.52588e-05)" d="M462.03 544.379L492.861 544.533L491.938 574.255L460.971 572.354L462.03 544.379Z"/>
	<path fill="#DA9124" transform="matrix(0.1 0 0 0.1 4.76837e-07 -1.52588e-05)" d="M413.162 496.338L436.213 496.96L435.084 513.305C434.828 520.075 435.278 527.509 434.099 534.162L432.861 534.737L415.867 535.203C411.275 524.596 408.209 508.201 411.317 496.76L413.162 496.338Z"/>
	<path fill="#DA9124" transform="matrix(0.1 0 0 0.1 4.76837e-07 -1.52588e-05)" d="M498.039 544.777L531.13 547.02L530.243 575.669C526.303 575.945 522.204 575.539 518.255 575.389L497.45 574.595L498.039 544.777Z"/>
	<path fill="#DA9124" transform="matrix(0.1 0 0 0.1 4.76837e-07 -1.52588e-05)" d="M537.299 502.94L566.818 504.981C567.467 508.12 566.761 512.54 566.617 515.78L565.466 539.307C565.125 539.545 564.85 539.94 564.442 540.023C562.139 540.493 557.154 539.177 554.709 538.861L536.73 536.956L537.299 502.94Z"/>
	<path fill="#DA9124" transform="matrix(0.1 0 0 0.1 4.76837e-07 -1.52588e-05)" d="M464.334 498.512L495.06 500.086L493.162 534.56L462.726 534.167L464.334 498.512Z"/>
	<path fill="#DA9124" transform="matrix(0.1 0 0 0.1 4.76837e-07 -1.52588e-05)" d="M500.048 500.413L532.754 502.673L531.461 536.528L498.529 534.699L500.048 500.413Z"/>
	<path fill="#DA9124" transform="matrix(0.1 0 0 0.1 4.76837e-07 -1.52588e-05)" d="M538.837 452.958L556.342 454.008C557.944 454.127 560.743 453.968 562.228 454.464C563.885 455.019 566.404 458.364 567.642 459.671C568.196 463.786 567.869 468.288 567.865 472.452C567.857 479.842 567.976 487.332 567.216 494.69L537.924 492.875C537.089 489.463 537.906 484.31 538.005 480.737L538.837 452.958Z"/>
	<path fill="#DA9124" transform="matrix(0.1 0 0 0.1 4.76837e-07 -1.52588e-05)" d="M467.43 449.532L497.643 450.338L495.501 490.06L464.887 488.376L467.43 449.532Z"/>
	<path fill="#DA9124" transform="matrix(0.1 0 0 0.1 4.76837e-07 -1.52588e-05)" d="M502.61 450.64L533.848 452.575L533.028 491.943L531.937 492.432L500.666 490.435C500.122 486.446 501.004 481.46 501.234 477.415L502.61 450.64Z"/>
	<path fill="#FED647" transform="matrix(0.1 0 0 0.1 4.76837e-07 -1.52588e-05)" d="M704.051 143.19C705.388 143.087 706.941 142.86 708.263 143.114C709.948 143.438 711.462 144.547 712.431 145.929C715.191 149.866 715.518 155.785 716.033 160.4C717.065 169.655 716.874 178.926 716.466 188.216C715.828 202.764 714.262 217.206 711.731 231.546C708.894 247.627 705.009 263.827 700.187 279.434C699.516 281.605 698.7 285.67 697.439 287.489C696.707 288.546 692.268 290.727 690.918 291.584L676.433 301.402L678.71 287.972C682.304 267.481 684.165 246.041 682.689 225.263C682.058 216.398 680.558 207.417 677.976 198.906C676.588 194.332 675.115 190.026 671.263 186.89C666.595 183.091 661 182.91 655.325 183.547L654.702 167.156C657.114 164.085 691.164 147.867 696.924 145.473C699.235 144.512 701.634 143.828 704.051 143.19Z"/>
	<path fill="#FED647" transform="matrix(0.1 0 0 0.1 4.76837e-07 -1.52588e-05)" d="M124.828 471.883C127.112 471.172 131.61 471.651 134.14 471.569L129.77 475.812L132.977 484.902C134.759 489.848 137.25 493.658 140.175 497.961C152.581 516.214 171.723 528.201 191.428 537.354L210.839 545.413C205.967 546.363 200.454 546.05 195.493 546.04C176.917 546.006 158.476 544.44 140.149 541.368C130 539.698 119.864 537.649 109.938 534.939C102.036 532.782 94.6721 529.687 86.983 526.974C75.6782 522.985 63.3133 519.79 53.0368 513.492C50.289 511.807 48.4406 509.873 46.4639 507.383L51.2979 500.953C68.7754 480.536 99.2219 473.92 124.828 471.883Z"/>
	<path fill="#FED647" transform="matrix(0.1 0 0 0.1 4.76837e-07 -1.52588e-05)" d="M851.792 364.012L887.604 376.702L928.504 393.519C938.512 397.978 947.965 401.801 956.924 408.261C950.604 415.659 942.893 421.371 935.276 427.334L906.005 449.545C904.562 450.569 895.229 457.554 894.554 457.585C893.831 457.619 891.433 456.486 890.592 456.205L878.752 452.624C867.048 449.555 855.242 447.696 843.273 446.003C850.674 439.405 857.626 432.519 860.386 422.683C861.846 417.481 862.369 411.087 859.362 406.284C853.44 396.826 836.502 396.713 826.686 394.786L851.792 364.012Z"/>
	<path fill="#FED647" transform="matrix(0.1 0 0 0.1 4.76837e-07 -1.52588e-05)" d="M325.044 107.12L327.463 107.004C354.371 106.401 383.956 132.163 402.444 149.729C402.873 150.136 404.594 151.523 404.713 151.898C405.083 153.06 404.701 155.784 404.715 157.122L405.088 173.526L396.542 167.843C390.613 164.679 383.689 162.694 377.055 164.899C367.463 168.087 362.231 176.856 357.91 185.347C353.781 193.837 351.74 203.806 349.885 213.011C348.153 212.555 346.092 210.547 344.631 209.473L332.433 200.563C320.235 191.787 307.717 184.036 294.638 176.664L295.5 154.825C296.143 142.522 296.8 127.128 304.782 117.058C309.952 110.537 316.982 107.988 325.044 107.12Z"/>
	<path fill="#FED647" transform="matrix(0.1 0 0 0.1 4.76837e-07 -1.52588e-05)" d="M816.714 186.234L818.359 186.091C823.185 186.012 826.26 186.712 829.872 190.058C831.33 199.428 828.273 208.778 826.336 217.893C822.51 235.897 818.366 253.987 811.753 271.205C811.258 272.493 809.876 276.928 808.782 277.61C806.969 278.739 803.692 279.393 801.622 280.163L787.693 285.931C787.406 282.899 787.195 279.764 786.344 276.827C784.899 271.841 782.025 267.281 777.291 264.856C763.505 257.792 745.201 266.283 731.821 270.922L704.566 283.339C712.214 257.34 717.676 231.31 720.564 204.353C751.432 194.101 784.51 189.863 816.714 186.234Z"/>
	<path fill="#FED647" transform="matrix(0.1 0 0 0.1 4.76837e-07 -1.52588e-05)" d="M764.018 399.638C783.734 398.74 803.465 401.982 822.843 405.045L839.28 407.444C844.752 408.496 851.993 410.27 855.312 415.132C855.59 417.564 855.343 419.633 854.575 421.967C853.221 426.084 850.119 429.699 847.093 432.71C838.887 440.876 828.367 446.883 818.158 452.218C803.672 459.789 788.494 466.066 773.24 471.906C771.126 472.715 767.541 474.649 765.381 474.799C764.949 474.83 763.793 474.301 763.324 474.153C733.336 460.365 701.029 451.514 668.597 445.941L695.31 425.661L709.896 413.073C712.476 410.72 715.987 406.288 719.045 404.922C721.898 403.649 726.245 403.424 729.348 402.958C741.014 401.209 752.235 400.042 764.018 399.638Z"/>
	<path fill="#FED647" transform="matrix(0.1 0 0 0.1 4.76837e-07 -1.52588e-05)" d="M852.894 280.003C862.091 279.598 871.776 280.521 880.736 282.618C884.068 283.398 891.765 284.671 893.59 287.598C893.942 298.476 879.217 316.338 872.757 325.258C855.699 348.811 837.697 371.864 818.271 393.524L774.716 389.215L730.866 392.432C755.829 364.38 778.378 333.576 786.732 296.264C792.368 292.849 799.451 290.478 805.744 288.514C821.246 283.677 836.687 280.879 852.894 280.003Z"/>
	<path fill="#FED647" transform="matrix(0.1 0 0 0.1 4.76837e-07 -1.52588e-05)" d="M441.464 49.9257C442.86 49.8322 444.393 49.8083 445.773 50.0488C455.418 51.7303 464.028 66.1536 469.131 73.678C480.485 90.4222 489.762 108.494 497.788 127.037C498.331 128.292 500.403 131.932 500.409 133.14C500.41 133.269 498.357 135.595 498.028 136.013C492.307 143.278 487.771 151.438 483.7 159.72C471.906 183.711 465.051 210.269 460.055 236.434L457.859 247.326C445.195 222.864 430.6 198.631 411.196 178.89C408.151 141.989 411.283 104.135 425.796 69.703C429.128 61.7979 433.057 53.3167 441.464 49.9257Z"/>
	<path fill="#FED647" transform="matrix(0.1 0 0 0.1 4.76837e-07 -1.52588e-05)" d="M830.553 455.355C855.812 456.604 880.906 461.989 903.844 472.734C913.862 477.427 923.398 483.16 932.597 489.285C939.148 493.648 947.738 498.541 950.439 506.416C951.889 510.641 951.174 514.691 949.128 518.568C938.621 538.469 893.35 554.008 871.794 561.063L862.982 563.695L848.473 567.386C847.543 567.594 845.301 568.391 844.427 568.272C843.023 568.08 839.192 564.657 837.872 563.77L827.058 557.249C834.314 553.601 841.598 551.716 846.233 544.346C848.233 541.166 849.299 537.476 848.272 533.768C846.26 526.504 838.635 521.817 833.069 517.302C815.496 503.047 796.953 491.173 776.989 480.532C795.289 473.611 813.828 465.562 830.553 455.355Z"/>
	<path fill="#FED647" transform="matrix(0.1 0 0 0.1 4.76837e-07 -1.52588e-05)" d="M669.608 690.032C675.521 693.045 681.362 696.105 687.645 698.295C706.757 704.956 727.76 705.905 747.821 706.171C761.473 723.338 771.796 744.175 778.076 765.132C780.374 772.8 782.392 780.885 782.974 788.895C784.579 810.96 777.33 831.327 767.05 850.481C765.242 853.752 763.135 858.348 760.201 860.669C758.687 861.867 756.823 862.53 754.883 862.267C751.044 861.745 747.661 857.926 745.383 855.003C741.35 849.828 738.375 843.894 735.186 838.188L724.17 820.012L703.982 791.307L678.645 757.194L679.334 755.683C682.118 749.418 682.498 742.695 682.052 735.928C681 720.001 675.293 704.797 669.608 690.032Z"/>
	<path fill="#FED647" transform="matrix(0.1 0 0 0.1 4.76837e-07 -1.52588e-05)" d="M249.321 170.03C256.061 169.795 262.512 173.687 268.555 176.211C277.874 180.104 286.883 183.944 295.778 188.775C314.331 198.851 331.381 211.067 348.285 223.652C345.824 259.679 346.074 296.025 350.839 331.879L343.717 326.568C324.706 312.278 303.29 301.439 282.15 290.727C277.155 288.196 271.845 286.117 266.947 283.447C264.784 282.269 262.915 279.186 261.475 277.235C252.831 265.526 246.67 252.549 242.768 238.537C238.608 223.597 236.044 207.408 237.55 191.905C238.119 186.042 239.515 179.236 242.592 174.161C244.128 171.628 246.581 170.724 249.321 170.03Z"/>
	<path fill="#FED647" transform="matrix(0.1 0 0 0.1 4.76837e-07 -1.52588e-05)" d="M432.755 577.349L440.572 585.343C428.437 596.226 417.422 608.23 406.606 620.406C402.95 624.521 397.881 629.481 395.327 634.352C394.469 635.989 394.001 638.461 394.702 640.229C395.139 641.329 395.48 641.412 396.484 641.846C398.403 640.81 399.701 638.833 401.083 637.177L408.047 629.056L429.28 605.735C434.586 600.161 440.184 595.083 446.295 590.406C448.274 591.797 450.9 593.227 452.469 595.052L438.004 627.247L432.343 639.109C431.309 641.271 429.911 643.741 429.524 646.124C429.193 648.163 429.763 649.065 430.908 650.605C432.13 650.095 432.576 649.918 433.357 648.784C435.432 645.77 436.889 641.764 438.489 638.428L450.991 611.487C453.039 606.986 454.804 602.116 457.293 597.855L464.706 601.243C452.615 630.629 437.921 655.475 416.337 678.95C406.693 688.732 395.906 697.046 384.955 705.301C355.452 727.54 325.103 746.308 290.349 759.256C297.196 737.482 303.896 716.017 314.101 695.503C339.185 645.081 386.741 607.916 432.755 577.349Z"/>
	<path fill="#FED647" transform="matrix(0.1 0 0 0.1 4.76837e-07 -1.52588e-05)" d="M511.306 135.326C513.883 135.159 516.09 135.382 518.474 136.475C525.675 139.775 530.388 150.42 533.025 157.357C537.719 169.704 540.47 182.816 542.857 195.775C546.698 216.635 549.094 237.78 550.998 258.9L551.825 267.774C551.904 268.604 552.326 270.49 552.149 271.17C552.046 271.563 550.906 272.808 550.647 273.15L545.355 280.298L532.709 298.955C519.516 319.92 508.806 341.915 498.72 364.502L496.236 370.641L491.034 339.977C484.908 310.265 475.076 282.171 461.72 254.963L470.203 215.107C474.073 199.19 478.574 183.114 485.644 168.288C490.261 158.607 500.956 139.021 511.306 135.326Z"/>
	<path fill="#FED647" transform="matrix(0.1 0 0 0.1 4.76837e-07 -1.52588e-05)" d="M336.279 645.739C337.205 645.562 337.621 645.607 338.528 645.752C338.391 647.335 336.825 648.724 335.822 649.97L328.867 658.997L319.873 672.606C313.171 683.632 307.337 695.25 302.439 707.19L296.143 723.831L288.909 745.077C287.898 748.045 286.999 752.861 285.035 755.241L257.677 783.058C241.195 797.103 222.716 809.112 203.084 818.258C194.506 822.254 184.618 826.669 174.965 825.894L173.819 825.202C172.345 824.197 171.476 823.108 171.192 821.311C170.869 819.266 171.943 816.721 172.519 814.769L176.584 801.782C194.146 748.807 223.237 700.164 257.882 656.653L336.279 645.739Z"/>
	<path fill="#FED647" transform="matrix(0.1 0 0 0.1 4.76837e-07 -1.52588e-05)" d="M589.247 734.091L602.455 744.137C615.684 753.489 630.485 761.061 646.116 765.45C650.395 766.652 655.618 768.37 660.087 767.831L660.889 767.723C665.441 767.149 668.732 765.836 672.745 763.714L715.119 821.093C711.278 842.866 703.93 862.74 693.721 882.319C691.781 886.006 689.051 891.167 685.36 893.275C679.227 896.778 671.922 897.503 665.137 895.767C640.797 889.538 618.287 857.85 605.858 837.019C598.481 824.656 591.54 811.836 586.202 798.446C583.766 792.335 581.908 785.955 579.989 779.666C579.333 777.514 577.474 773.677 577.448 771.609C577.44 771.037 578.115 769.753 578.343 769.117L581.293 760.773L589.247 734.091Z"/>
	<path fill="#FED647" transform="matrix(0.1 0 0 0.1 4.76837e-07 -1.52588e-05)" d="M452.891 640.619C453.323 662.506 455.891 683.628 462.406 704.59L471.202 729.736L474.7 738.729C474.986 739.46 475.892 741.107 475.921 741.841C475.972 743.134 475.105 745.1 474.708 746.329L471.368 756.323C466.675 769.64 461.017 782.905 453.552 794.93C450.142 800.423 445.912 805.597 441.87 810.638C432.311 822.56 421.85 833.572 410.022 843.273C404.543 847.767 398.654 852.315 392.252 855.382C391.063 855.95 389.773 856.358 388.494 856.672C385.86 857.317 382.948 857.295 380.624 855.823C376.855 853.435 375.138 848.911 374.175 844.727C372.399 837.006 372.401 828.807 372.031 820.932L371.166 798.29C371.415 776.498 374.341 755.111 378.642 733.783L380.999 722.591C381.291 721.35 381.518 719.481 382.045 718.351C382.572 717.22 386.137 714.931 387.22 714.09L400.738 703.193C408.357 696.686 415.688 689.874 422.615 682.632C434.844 669.846 443.463 655.385 452.891 640.619Z"/>
	<path fill="#FED647" transform="matrix(0.1 0 0 0.1 4.76837e-07 -1.52588e-05)" d="M558.864 581.885C576.763 592.146 595.366 602.019 610.736 615.984C618.947 623.445 625.697 631.972 632.329 640.826C650.572 665.177 664.627 690.966 672.729 720.394C674.593 727.167 676.684 733.953 676.956 741.02C677.094 744.625 676.84 749.018 674.181 751.709C670.254 755.683 664.93 757.774 659.353 757.673C651.022 757.523 642.633 753.752 635.185 750.395C628.452 747.361 621.585 744.422 615.184 740.732C601.683 732.947 590.587 723.29 579.67 712.253C561.318 692.687 544.441 668.147 535.559 642.801C530.753 629.085 528.116 614.795 526.385 600.397L536.154 596.285C541.545 607.091 545.822 617.923 552.81 627.93C554.793 630.769 556.753 633.814 559.326 636.146L560.546 635.986C561.601 634.979 562.233 634.209 562.782 632.836C563.437 631.195 563.812 629.475 563.392 627.722C563.093 626.471 561.447 624.899 560.632 623.917C558.681 621.567 556.856 619.082 555.167 616.539C551.226 610.606 548.12 603.988 545.163 597.52C552.495 602.439 559.405 608.14 566.315 613.63C568.793 615.599 574.092 620.831 577.17 621.28C577.855 621.38 578.492 620.921 578.976 620.487C580.854 618.804 580.965 615.312 580.997 613.037C580.071 611.036 554.023 591.828 549.887 588.596L558.864 581.885Z"/>
	<path fill="#FED647" transform="matrix(0.1 0 0 0.1 4.76837e-07 -1.52588e-05)" d="M808.898 561.196C809.407 560.962 810.391 560.945 810.935 560.954C813.588 560.998 817.556 563.485 819.894 564.694C845.064 577.714 865.1 598.508 884.494 618.704C889.45 623.864 894.866 628.731 899.591 634.081C904.34 639.458 909.686 647.258 908.977 654.757C908.475 660.07 905.251 664.746 901.195 668.038C894.833 673.202 887.043 676.255 879.251 678.531C859.704 684.241 839.321 684.719 819.219 682.498C813.16 681.94 807.03 681.02 801.058 679.855C800.339 679.715 797.378 679.401 796.905 679.016C796.206 678.448 795.447 676.472 795.033 675.652L791.327 668.737L780.615 651.474L765.939 625.961C761.548 618.809 756.868 611.85 751.608 605.304C744.894 596.95 737.02 589.716 728.487 583.246L717.073 575.182C720.864 573.466 725.896 572.93 729.98 572.175L765.973 567.146L808.898 561.196Z"/>
	<path fill="#FED647" transform="matrix(0.1 0 0 0.1 4.76837e-07 -1.52588e-05)" d="M611.341 59.8145C613.772 59.6231 614.379 59.8885 616.322 61.5318C621.076 65.5528 624.183 71.8767 626.66 77.4697C631.41 88.1935 634.761 99.4521 637.872 110.741C641.216 122.88 644.402 134.85 646.518 147.276C648.089 156.5 648.981 165.9 649.576 175.234L649.95 182.605C649.971 183.069 650.189 184.379 650.043 184.729C649.954 184.943 649.73 185.076 649.538 185.205C647.607 186.504 645.177 187.386 643.145 188.657L621.486 203.33C600.241 218.88 581.165 237.089 563.812 256.853L557.232 264.63L554.78 239.108L547.83 190.76C544.676 173.541 540.697 155.787 532.901 140.02C540.055 128.994 547.484 118.388 556.113 108.445C567.036 95.8585 579.061 84.9275 591.657 74.0691C597.664 68.8912 603.837 62.6604 611.341 59.8145Z"/>
	<path fill="#FED647" transform="matrix(0.1 0 0 0.1 4.76837e-07 -1.52588e-05)" d="M374.123 723.877L374.926 723.801C375.1 723.989 375.395 724.115 375.448 724.365C375.538 724.795 374.923 726.875 374.81 727.422L373.095 735.994L368.772 759.521C366.53 775.713 365.915 792.256 365.952 808.59C365.977 819.912 366.258 831.134 367.794 842.372C362.519 851.134 355.515 859.38 349.09 867.338L328.246 891.64C320.379 900.462 312.17 909.375 302.563 916.341C296.738 920.565 290.902 923.372 283.954 925.172C279.727 923.339 277.998 921.358 275.86 917.349C274.288 913.215 273.528 908.812 272.489 904.528C267.647 884.573 265.694 865.18 266.036 844.666C266.348 826.006 269.055 807.4 272.374 789.072C272.97 785.779 273.349 780.054 275.033 777.177C276.313 774.991 278.914 772.722 280.648 770.841C281.463 769.957 282.474 768.535 283.447 767.863C285.138 766.696 285.264 769.334 286.844 769.579C289.325 769.962 294.123 767.689 296.474 766.841C324.383 756.781 349.941 740.817 374.123 723.877Z"/>
	<path fill="#FED647" transform="matrix(0.1 0 0 0.1 4.76837e-07 -1.52588e-05)" d="M236.498 552.002C237.552 551.998 237.651 552.021 238.518 552.49C237.712 554.465 232.518 557.802 230.683 559.351L219.518 569.442C203.183 584.717 189.314 601.878 176.46 620.117C171.284 627.46 163.184 636.754 163.279 646.24C163.312 649.442 164.667 652.406 167.05 654.541C175.104 661.759 190.941 660.281 200.877 660.248L248.807 657.71L238.715 670.924C236.294 674.218 234.008 677.722 231.183 680.686C202.546 688.879 172.962 692.626 143.188 691.489C126.449 691.093 109.626 689.32 93.1309 686.44C79.8027 684.113 65.7257 681.405 54.3095 673.781C54.6423 671.411 56.607 668.274 57.7008 666.056C63.6237 654.043 70.5787 642.565 78.3081 631.633C96.7486 605.553 119.858 581.683 144.688 561.617C147.18 559.603 150.741 555.821 153.515 554.504C154.447 554.061 157.876 554.712 159.044 554.816L174.826 555.917C190.217 556.231 205.967 556.302 221.27 554.577C226.385 554 231.427 552.876 236.498 552.002Z"/>
	<path fill="#FED647" transform="matrix(0.1 0 0 0.1 4.76837e-07 -1.52588e-05)" d="M519.952 602.295C520.258 602.399 520.612 602.412 520.87 602.608C520.886 602.62 524.081 624.858 525.43 630.615C534.605 669.778 556.565 702.72 585.178 730.276L571.815 771.573C567.776 782.497 563.21 793.304 557.85 803.65C553.266 812.498 547.743 823.603 538.023 827.748C534.547 829.23 531.008 828.966 527.62 827.436C513.77 821.183 504.415 794.353 499.03 780.866L478.364 729.076C472.594 714.091 466.755 698.516 463.173 682.827C460.379 670.589 458.992 658.111 458.572 645.577C458.417 640.948 457.466 634.438 458.331 630.03C459.008 626.578 461.603 622.471 463.055 619.243L469.744 603.167C471.396 603.64 480.948 605.659 481.642 606.195C481.892 606.389 481.944 607.115 481.968 607.407L487.905 653.299C488.456 657.07 488.632 665.352 490.826 668.364C492.128 668.578 492.316 668.136 493.408 667.479C494.454 665.902 495.127 664.532 495.124 662.598C495.112 656.517 493.463 649.95 492.607 643.911L487.741 606.956C491.341 607.461 505.342 608.807 507.955 606.583C508.788 605.874 509.455 604.924 510.47 604.436C512.937 603.251 517.203 602.945 519.952 602.295Z"/>
	<path fill="#FED647" transform="matrix(0.1 0 0 0.1 4.76837e-07 -1.52588e-05)" d="M585.139 546.506C602.402 547.017 618.749 548.816 635.527 553.164C652.542 557.573 668.963 563.688 685.152 570.477C700.226 576.799 714.444 584.005 727.286 594.257C757.119 618.073 773.324 654.726 792.304 686.873L791.786 687.259C780.637 695.399 764.582 696.331 751.266 696.313C735.164 696.291 719.159 694.552 703.27 692.03C691.246 688.994 680.135 684.956 669.342 678.738C667.5 677.676 664.935 676.507 663.444 675.025C660.658 672.255 658.557 666.37 656.508 662.802L646.418 646.543C633.519 626.974 619.642 609.264 600.391 595.645C589.595 588.008 578.002 581.621 566.763 574.681L575.838 563.769C588.589 567.989 600.314 575.204 611.769 582.069C616.117 584.675 620.519 587.712 625.105 589.86C626.311 590.424 626.203 590.368 627.455 589.905C629.618 587.467 629.991 585.23 629.901 582.031C627.716 577.145 588.615 558.078 581.148 554.702L585.139 546.506Z"/>
	<path fill="#FED647" transform="matrix(0.1 0 0 0.1 4.76837e-07 -1.52588e-05)" d="M181.68 318.573L205.197 318.352C205.909 318.371 211.618 318.314 211.896 318.555C212.693 319.246 213.786 321.773 214.363 322.754C218.958 330.559 224.034 337.814 229.754 344.827L256.886 375.953L306.436 432.026C272.591 423.552 238.486 428.824 205.447 438.298L187.669 444.343C182.118 441.803 176.544 437.383 171.387 434.038C159.187 426.123 146.659 418.391 135.016 409.684C117.214 396.371 101.056 380.798 88.3099 362.522C86.2383 359.551 82.8703 355.36 82.4973 351.688C82.1513 348.283 83.6549 345.498 85.8281 342.99C89.0181 339.309 93.3595 336.771 97.4774 334.282C103.114 330.875 108.568 327.531 114.865 325.439C125.325 321.966 136.476 321.642 147.376 320.82L181.68 318.573Z"/>
	<path fill="#FED647" transform="matrix(0.1 0 0 0.1 4.76837e-07 -1.52588e-05)" d="M410.767 540.771C412.512 541.704 414.626 547.953 415.59 549.978C409.485 554.8 402.536 558.598 395.83 562.505L365.265 580.103C361.098 582.526 354.775 585.252 351.346 588.493C349.745 590.007 348.978 592.136 349.022 594.304C349.055 595.941 349.404 596.718 350.586 597.821C353.562 597.376 402.969 567.873 408.904 564.084C412.395 561.855 415.664 559.339 418.89 556.747L427.63 570.517L407.987 584.242L374.286 611.228L355.921 628.384C354.546 629.72 351.605 633.397 350.084 634.123C349.013 634.634 346.279 634.565 344.965 634.676L331.042 635.933L284.063 642.775C260.394 646.139 236.632 649.544 212.715 650.428C200.691 650.872 186.948 651.231 175.491 647.206C173.102 646.366 171.11 645.071 169.055 643.636C169.662 641.664 171.185 639.703 172.292 637.955L179.142 627.492C196.412 602.246 217.28 579.431 241.98 561.291C244.957 559.104 249.319 555.191 252.671 553.987C253.26 553.776 255.586 554.198 256.287 554.245L266.951 554.876L297.544 554.685C321.771 553.495 345.764 550.207 369.762 546.821L410.767 540.771Z"/>
	<path fill="#FED647" transform="matrix(0.1 0 0 0.1 4.76837e-07 -1.52588e-05)" d="M479.284 750.517L488.191 772.461C494.602 789.28 507.896 830.299 524.906 837.555C529.348 839.45 534.645 839.072 539.035 837.202C556.372 829.816 567.004 798.105 573.647 781.451C578.93 799.267 585.693 815.683 594.045 832.278C592.066 851.099 588.437 869.601 582.013 887.451C578.298 897.773 573.488 907.464 568.494 917.205C562.201 928.961 555.466 941.137 546.894 951.397C544.097 954.744 540.751 958.495 536.64 960.215C533.237 961.64 528.344 959.661 525.013 958.252C513.959 953.577 505.593 943.978 497.71 935.273C480.748 916.545 464.569 895.946 455.071 872.327C449.337 858.069 445.08 843.541 441.458 828.613C441.212 827.601 440.111 824.631 440.244 823.718C440.351 822.993 444.917 818.211 445.712 817.211C450.317 811.423 454.491 805.251 458.214 798.863C464.349 788.337 469.345 777.35 473.675 765.969C475.625 760.843 477.142 755.562 479.284 750.517Z"/>
	<path fill="#FED647" transform="matrix(0.1 0 0 0.1 4.76837e-07 -1.52588e-05)" d="M655.214 455.413C674.562 456.185 692.726 460.921 711.182 466.36C741.702 475.354 771.071 487.073 798.111 504.046C814.219 514.157 828.726 525.754 842.62 538.704C838.246 541.859 833.755 544.417 828.655 546.223C819.747 549.376 810.478 550.597 801.202 552.127L782.786 555.15C762.38 557.72 741.926 559.142 721.789 563.556C717.678 564.471 713.613 565.644 709.611 566.95C708.868 567.193 705.788 568.54 705.176 568.433C703.101 568.072 699.748 565.754 697.703 564.78L681.345 557.609C660.989 549.551 638.888 542.246 617.291 538.737C607.821 537.199 598.343 536.703 588.774 536.264L591.635 524.461L624.753 523.22C628.622 523.081 633.088 523.469 636.848 522.642C638.06 521.495 638.846 520.448 639.302 518.814C639.878 516.747 639.82 515.237 638.779 513.428C635.474 512.23 628.823 513.264 625.204 513.395L592.986 514.677C593.331 506.331 593.089 498.624 591.606 490.388C592.373 489.359 596.056 488.296 597.409 487.739L612.32 481.033C627.329 473.61 641.352 464.765 655.214 455.413Z"/>
	<path fill="#FED647" transform="matrix(0.1 0 0 0.1 4.76837e-07 -1.52588e-05)" d="M228.027 284.805C230.47 284.67 232.925 284.822 235.352 285.122C250.761 287.033 265.654 293.898 279.538 300.542C304.927 312.691 330.124 326.922 352.246 344.403C365.194 354.634 377.274 366.253 389.563 377.273C409.187 394.869 428.017 412.724 444.446 433.39C438.091 437.955 432.529 442.737 427.164 448.439C424.065 443.948 421.024 439.282 417.442 435.165C410.478 427.162 402.041 420.717 393.138 415.026C390.367 413.255 387.058 410.748 383.868 409.872C382.888 409.602 381.872 409.678 381.03 410.269C379.258 411.512 378.594 414.463 378.508 416.504C378.451 417.865 378.785 418.631 379.639 419.631C383.611 420.35 387.319 423.13 390.715 425.223C403.399 433.253 413.035 443.199 421.643 455.431C417.626 461.274 414.201 467.599 411.718 474.246C410.592 477.26 410.023 481.336 408.394 484.022C389.801 472.707 371.781 460.556 352.533 450.33L334.222 441.602C331.021 440.238 327.323 439.241 324.303 437.557C322.818 436.73 321.43 435.021 320.229 433.826L311.034 424.427L255.17 361.538C244.883 349.521 233.789 337.652 224.511 324.855C220.002 318.636 214.52 310.904 213.084 303.221C212.322 299.148 212.761 294.613 215.212 291.183C218.398 286.724 222.954 285.581 228.027 284.805Z"/>
	<path fill="#FED647" transform="matrix(0.1 0 0 0.1 4.76837e-07 -1.52588e-05)" d="M761.204 273.127C764.944 272.759 769.532 272.413 773.103 273.736C776.761 275.091 779.005 277.141 780.518 280.738C784.521 290.262 780.336 303.044 776.648 311.978C771.323 324.881 764.093 337.011 756.297 348.561C731.347 385.53 698.023 414.544 661.735 440.016C649.354 448.706 637.138 457.08 623.839 464.321C612.565 470.458 600.914 475.58 589.058 480.464L584.112 469.543C585.683 467.022 588.615 464.738 590.766 462.617L616.521 438.924C618.759 436.839 620.215 434.604 620.05 431.396C619.968 429.801 619.34 429.31 618.164 428.378C614.922 429.523 611.132 434.091 608.484 436.5L581.419 462.158C580.812 462.601 581.193 462.375 580.222 462.732L577.745 459.668L597.322 429.121C600.723 424.132 604.731 419.214 607.82 414.062C608.673 412.639 609.352 410.972 609.585 409.318C609.846 407.468 609.288 406.452 608.193 405.029L607.178 405.177C603.698 407.731 601.006 413.383 598.559 416.974L573.918 454.597C568.139 447.354 561.058 441.448 553.738 435.848L567.276 416.873C591.017 385.665 619.741 358.228 649.969 333.374C667.505 318.956 685.059 304.782 705.032 293.821C714.322 288.722 723.815 284.775 733.7 281.044C742.712 277.642 751.615 274.437 761.204 273.127Z"/>
	<path fill="#FED647" transform="matrix(0.1 0 0 0.1 4.76837e-07 -1.52588e-05)" d="M263.601 438.201C317.204 435.98 362.978 466.02 406.169 493.747L405.068 509.696C391.985 511.214 378.654 512.366 365.479 512.555L346.042 512.623C342.641 512.626 338.994 512.335 335.636 512.887L334.953 513.916C335.432 517.288 338.39 520.312 340.431 522.908L406.008 519.688L408.375 530.779L352.536 538.918L319.639 542.915C274.973 547.139 228.409 545.446 187.722 524.45C170.081 515.347 153.812 504.932 142.76 488.007C141.235 485.672 138.811 482.692 137.971 480.066C175.133 456.021 219.34 440.472 263.601 438.201Z"/>
	<path fill="#FED647" transform="matrix(0.1 0 0 0.1 4.76837e-07 -1.52588e-05)" d="M656.314 193.943C659.874 193.479 663.583 193.616 666.708 195.557C671.998 198.843 674.296 205.321 675.556 211.124C677.052 218.019 677.242 225.124 677.485 232.151C678.232 253.762 676.501 275.494 671.9 296.636C671.365 299.095 670.819 304.218 669.564 306.265C667.953 308.894 662.402 312.132 659.912 314.154L643.117 328.273L615.897 352.291C599.004 367.903 584.019 384.456 569.725 402.435C562.087 412.041 554.578 421.693 547.939 432.026C541.225 428.155 534.63 425.021 527.376 422.313C527.835 420.024 530.405 417.18 531.791 415.259L548.395 394.083C551.415 390.473 555.061 386.922 557.682 383.043C558.616 381.661 559.002 380.075 559.329 378.462L559.473 377.726C559.296 376.761 559.155 376.231 558.595 375.394C558 374.505 557.855 374.7 556.885 374.5C553.488 376.921 550.687 381.19 548.028 384.41C538.415 396.054 529.397 407.762 521.469 420.628C514.304 418.842 507.384 418.04 500.032 417.584L498.478 394.045C498.231 390.725 496.953 385.644 498.231 382.626L528.132 318.997C553.107 276.497 586.676 238.984 626.886 210.372C636.122 203.8 645.184 196.821 656.314 193.943Z"/>
	<path fill="#FED647" transform="matrix(0.1 0 0 0.1 4.76837e-07 -1.52588e-05)" d="M381.147 174.498L381.865 174.459C390.863 174.151 399.438 180.242 405.769 186.007C421.108 199.974 432.967 218.266 443.362 236.073C461.606 267.325 476.131 300.431 484.364 335.761C490.638 362.688 493.226 390.22 494.516 417.786L477.491 419.85C476.328 418.937 475.464 416.364 474.85 415.01L466.954 396.138C463.688 389.228 459.92 382.867 455.439 376.675C454.036 374.737 452.655 372.497 450.195 372.096C448.442 373.221 447.765 374.622 447.261 376.599C446.671 378.916 446.909 380.275 448.129 382.256C458.607 392.864 463.979 408.097 469.436 421.665L451.54 429.196C449.959 428.116 448.729 425.986 447.567 424.473L440.363 415.566L425.712 399.479L378.831 355.551L363.324 341.93C362.029 340.838 358.588 338.664 357.885 337.364C357.574 336.79 357.326 335.545 357.178 334.901C352.384 314.003 352.061 290.821 351.983 269.461C351.906 248.216 351.748 227.039 356.815 206.246C358.576 199.02 361.412 191.499 365.563 185.292C369.451 179.479 374.202 175.852 381.147 174.498Z"/>
</svg>
