<?xml version="1.0" encoding="UTF-8" standalone="no"?>
<!DOCTYPE svg PUBLIC "-//W3C//DTD SVG 1.1//EN" "http://www.w3.org/Graphics/SVG/1.1/DTD/svg11.dtd">
<svg width="100%" height="100%" viewBox="0 0 80 80" version="1.1" xmlns="http://www.w3.org/2000/svg" xmlns:xlink="http://www.w3.org/1999/xlink" xml:space="preserve" xmlns:serif="http://www.serif.com/" style="fill-rule:evenodd;clip-rule:evenodd;stroke-linejoin:round;stroke-miterlimit:2;">
    <path d="M22.625,13.296C15.568,10.632 14.355,13.422 18.718,21.416C16.281,20.959 15.122,21.819 16.131,24.914C3.924,22.785 1.696,28.664 12.167,35.456C0.454,36.888 -0.09,42.753 11.4,44.681C7.086,46.807 3.671,49.937 2.235,55.277C3.95,54.564 5.646,54.568 7.319,55.436C9.779,56.685 12.585,56.442 15.573,55.415C7.822,65.063 11.883,69.482 21.197,62.968C20.031,67.559 20.272,71.82 22.501,75.617L24.534,73.649C27.03,73.071 28.509,71.231 29.527,68.816C30.43,70.439 31.924,70.154 33.956,68.131C37.5,79.695 46.123,83.388 46.673,66.486C52.216,73.991 56.305,76.102 57.436,67.228C62.903,72.637 64.906,66.768 60.873,56.523C63.455,56.806 64.687,56.129 64.802,54.657C76.309,57.002 76.948,53.663 68.037,45.329C78.468,44.735 79.179,41.478 73.48,36.467C73.321,34.858 77.645,32.908 77.645,32.908C77.645,32.908 74.579,28.311 69.247,28.745C75.329,21.63 73.588,19.412 64.023,22.091L66.098,17.449C66.351,15.133 67.076,14.236 67.859,13.51C64.652,12.456 61.535,13.028 58.46,14.338C58.621,9.457 56.68,8.292 52.262,11.504C51.404,0.609 48.231,-0.647 42.424,9.066L41.651,8.378L40.003,8.98C36.441,-0.167 32.453,-0.372 30.906,9.164C24.207,4.475 21.415,5.804 22.625,13.296Z" style="fill:rgb(89,55,135);"/>
    <g transform="matrix(0.078125,0,0,0.078125,0,0)">
        <path d="M443.127,18.703C449.736,19.012 455.635,20.397 461.5,23.513C494.75,41.183 507.62,77.927 517.882,111.665C521.194,109.128 529.384,102.672 533.562,103.039C536.197,103.27 538.476,106.501 540.063,108.388C546.441,90.464 555.299,74.539 567.848,60.153C581.842,44.11 601.168,29.183 623,27.37C629.153,26.859 635.617,29.113 640.693,32.517C645.241,35.566 648.903,39.945 652.099,44.334C660.296,55.59 667.024,70.537 669.798,84.234L670.802,88.455C674.451,107.352 674.877,125.717 673.438,144.892C681.583,138.637 690.334,132.165 699.567,127.672C707.914,123.609 721.028,118.271 730.31,121.682L731,121.949C733.594,122.88 735.8,124.06 737.997,125.724C743.733,130.07 748.019,140.227 748.876,147.17C749.536,152.509 750.53,157.848 750.824,163.25C751.135,168.947 750.87,174.661 751.534,180.337L760.5,175.119C767.689,171.401 775.646,168.794 783.413,166.576C808.68,159.358 834.248,158.27 859.5,165.946C863.572,167.184 871.95,169.902 874.211,173.75C874.969,175.041 875.203,175.348 874.307,176.688C873.036,178.592 869.911,180.126 868.092,181.617C861.408,187.098 856.499,195.953 854.25,204.25C851.312,215.091 850.065,226.109 847.907,237.116C845.109,251.397 838.101,264.962 829.241,276.404L851.666,266.777C873.094,259.177 894.447,257.123 915.531,267.21C925.421,271.942 936.267,279.555 939.788,290.469L940.018,291.25C940.292,292.071 940.62,292.831 940.768,293.694C944.395,314.715 917.801,333.852 904.804,347.257C900.012,352.199 895.755,357.685 891.945,363.409L909.61,362.928C940.451,365.083 966.787,381.853 986.613,404.901C989.681,408.469 999.047,419.251 999.94,423.5C1000.08,424.147 999.801,425.42 999.75,426.122C997.551,428.257 994.31,427.806 991.467,428.04C989.022,428.242 986.333,428.768 984.059,429.7C972.183,434.565 965.945,443.94 958.011,453.395C954.152,457.994 950.022,462.268 945.763,466.495C961.637,475.934 976.132,488.052 984.81,504.686C986.803,508.506 989.156,512.814 990.204,517.016C990.714,519.06 991.509,521.066 991.844,523.144C992.909,529.741 993.653,535.221 990.773,541.612L990.366,542.5C987.418,549.092 982.636,554.471 977.248,559.203C973.106,562.84 968.028,565.707 963.177,568.275C945.78,577.486 926.174,581.588 906.738,583.651C898.382,584.538 889.726,585.191 881.33,584.53L880.376,584.449L887.132,588.709C910.939,604.888 932.731,624.377 945.192,650.827C947.614,655.967 950.235,661.816 951.244,667.422L951.568,669.024C953.751,677.462 953.965,688.673 950.789,696.839C947.983,704.056 941.431,708.693 934.604,711.762C901.337,726.72 862.959,717.454 830.475,705.138C829.81,706.478 829.736,708.166 829.527,709.644C828.784,714.889 827.348,718.267 822.955,721.505C813.41,728.543 797.148,729.286 785.712,727.527L785.098,727.424C795.464,745.421 805.214,764.474 809.812,784.859L811.822,793.961C813.182,801.92 814.902,810.135 815.002,818.231C815.295,841.781 812.381,871.138 794.821,888.77C791.052,892.554 787.421,894.598 781.996,894.514C766.047,894.267 750.006,880.933 739.333,870.155C738.887,871.736 739.111,873.686 738.924,875.356C738.409,879.973 737.731,884.712 736.761,889.25C734.224,901.13 729.996,913.017 723.613,923.38C720.53,928.386 717.136,932.976 712.002,936.054C703.543,941.124 690.62,939.319 681.535,936.923C645.141,927.326 619.583,895.16 601.508,864.133L600.994,895.444C599.818,918.49 595.254,942.885 584.5,963.483C579.746,972.588 573.696,980.738 566.89,988.395C561.157,994.213 553.871,999.836 546.283,1002.99L545.422,1003.34C539.919,1005.63 533.208,1007.07 527.274,1005.72C520.566,1004.18 514.583,1002.14 508.551,998.746C476.234,980.551 453.898,949.573 441.21,915.25C436.782,903.273 433.695,890.871 430.291,878.582L417.885,890.146C411.903,895.07 404.37,899.219 396.359,898.348C389.227,897.573 382.972,893.339 378.546,887.827L378.164,887.344L372.349,903.767C363.63,923.624 346.262,938.148 326.619,946.668C319.772,949.638 312.603,951.648 305.707,954.434C296.338,958.221 294.451,967.612 290.879,975.922C289.224,975.049 287.953,973.196 286.75,971.758C281.551,965.548 277.458,958.426 273.727,951.264C259.393,923.743 255.701,891.931 257.597,861.36C258.512,846.601 260.743,831.441 265.201,817.311C242.021,836.443 214.934,853.367 183.888,853.402C171.851,853.416 158.304,850.251 149.639,841.373C141.329,832.857 139.561,821.836 139.78,810.418C140.292,783.833 153.921,759.644 169.545,738.953C175.4,731.2 181.81,723.312 188.824,716.589C171.428,725.126 151.136,729.258 131.812,726.835C118.502,725.165 105.949,720.871 93.531,715.987C81.157,711.12 69.123,705.625 55.836,703.752C43.201,701.971 33.446,708.002 23.77,715.185C23.93,710.242 25.124,705.216 26.183,700.392C29.376,685.843 34.931,671.263 42.092,658.213C58.976,627.445 85.999,603.067 116.38,585.977C122.553,582.505 129.047,578.493 135.896,576.537L136.562,576.354C129.772,574.82 122.941,574.357 116.113,573.214C102.525,570.942 88.299,566.451 75.922,560.4C58.875,552.065 38.808,536.48 32.7,517.829C30.474,511.028 29.747,504.221 33.157,497.686C46.847,471.451 92.98,462.501 119.608,459.25L137.898,457.339C140.659,457.045 143.939,457.02 146.572,456.138C147.726,455.752 148.295,455.724 148.859,454.632C144.148,451.305 138.484,449.029 133.482,446.079C122.6,439.659 111.757,431.95 102.184,423.715C81.828,406.204 61.897,382.941 59.26,355.25C58.912,351.595 59.111,347.41 60.232,343.879L60.442,343.25C63.128,334.866 69.263,328.495 76.394,323.557C82.886,319.061 90.007,316.108 97.434,313.557C130.959,302.042 167.985,306.545 202.043,312.752C200.598,308.436 199.953,303.177 199.283,298.666C198.614,294.17 198.112,289.107 198.98,284.616C199.89,279.905 202.891,275.474 206.9,272.861C214.129,268.15 225.38,269.364 233.523,271.079L234.09,271.206C228.823,265.056 224.279,257.665 220.35,250.604C207.755,227.969 196.696,197.058 204.364,171.124C206.244,164.767 210.115,159.088 216.052,155.909C222.037,152.704 228.466,151.961 235.172,152.007C250.906,152.116 267.051,156.994 281.977,161.642L281.132,142.943C280.896,124.001 281.929,97.731 296.243,83.508C302.303,77.486 311.878,74.951 320.25,75.136C346.252,75.711 373.7,92.229 391.588,110.34C391.585,101.643 391.291,92.626 392.164,83.978C393.715,68.618 399.272,53.641 407.971,40.92C413.902,32.248 422.308,24.943 432.237,21.235C435.682,19.949 439.524,19.376 443.127,18.703ZM477,384.251C477.601,384.777 477.848,385.089 478.206,385.833L478.5,386.5L479.317,385.875C479.207,383.926 479.154,382.333 479.771,380.459L479.918,380.039L488.684,419.825C492.183,421.642 494.938,423.25 497.659,426.184C499.874,423.528 502.131,420.796 504.74,418.512C505.741,417.635 509.471,415.669 509.907,414.732C510.466,413.532 510.272,409.727 510.337,408.296C510.782,398.458 511.264,388.35 510.289,378.537C507.163,347.058 501.399,315.463 490.85,285.566C480.808,257.103 465.998,230.523 450.072,205.005C443.08,193.801 435.569,182.84 427.113,172.683C422.721,167.407 417.848,161.851 412.473,157.562C407.762,153.804 398.044,147.477 391.84,148.636C387.962,149.361 384.372,154.006 382.428,157.238C379.007,162.923 377.063,169.114 375.348,175.459C371.615,189.265 370.51,203.075 369.667,217.278C368.951,229.337 368.34,241.985 369.098,254.052L371.561,276.898L373.815,289.211C374.639,295.233 376.993,301.593 378.75,307.411C390.332,345.752 414.859,379.295 440.771,409.218L455.75,425.451C457.98,427.714 460.7,429.791 462.66,432.259C464.33,429.769 466.056,427.071 468.25,425.004C469.646,423.688 471.317,422.678 472.636,421.29L438.636,355.412C432.245,341.826 427.223,327.819 423.029,313.416C421.897,309.529 419.284,303.324 419.539,299.503C420.329,300.006 420.779,303.033 421.085,304.119C430.438,337.358 446.777,366.708 465.398,395.557C470.93,404.129 476.274,412.942 482.381,421.12L477,384.251ZM790.726,269.203C776.926,270.957 763.6,274.075 750.555,278.952C730.872,286.311 711.894,297.185 694.414,308.75C671.164,324.133 648.597,341.371 631.397,363.545C610.383,390.634 597.022,422.225 586.725,454.716L587.399,455.04C591.248,456.922 593.628,459.751 596.288,463.017C608.17,440.263 623.229,420.984 640.178,401.833L658.75,381.41L659.203,381.75C639.952,403.206 622.96,427.389 608.147,452.124C604.633,457.993 600.797,463.744 597.819,469.909L649.054,434.924C660.708,427.196 672.299,419.2 683.169,410.39C693.782,401.788 703.53,392.321 713.081,382.571L713.697,382.75C700.45,396.936 686.798,410.926 671.5,422.935C651.19,438.879 628.698,451.814 609.435,469.136C604.809,473.295 599.866,477.622 596.313,482.747L596.854,483.027C598.996,484.169 600.439,485.436 602.145,487.122C613.264,480.528 625.302,473.742 637.189,468.679C654.553,461.282 672.69,455.481 689.556,446.962C734.783,424.117 766.784,384.145 788.016,339C794.746,324.69 800.816,309.434 804.663,294.084C806.37,287.274 806.76,281.333 803.954,274.75L803.69,274.111C802.778,272.059 800.851,271.005 798.817,270.27C796.246,269.34 793.433,269.211 790.726,269.203ZM220.423,448.214C208.169,449.049 196.364,451.169 184.382,453.794C166.374,457.739 149.154,463.068 132.661,471.403C128.076,473.721 122.632,476.057 119.217,480.024C117.713,481.772 116.885,483.662 116.041,485.775C116.548,487.62 117.085,489.406 118.158,491.014C120.5,494.523 124.252,497.71 127.5,500.41C134.116,505.909 141.313,510.881 148.788,515.139C166.67,525.323 185.806,533.433 205.304,539.933C222.41,545.636 239.667,550.107 257.623,552.178C273.214,553.977 289.413,554.529 305.097,553.712L358.264,548.396L400.058,544.636L401.595,539.717C390.591,537.047 379.252,536.824 368,536.214L348.475,535.119L336.231,535.345C334.233,535.404 331.974,535.751 330.051,535.192C347.417,533.571 364.914,533.424 382.35,533.698L396.927,534.093C399.071,534.201 401.646,534.747 403.75,534.485C405.148,534.311 406.086,533.239 406.975,532.25L406.921,531.555C403.605,530.135 399.752,529.892 396.213,529.336C377.161,526.343 357.97,526.987 338.75,527.026L310.39,526.947L289.216,525.469C286.533,525.313 281.035,525.728 278.75,524.668C283.687,524.237 288.784,524.836 293.729,525.085L306.67,525.117L353.461,524.308C363.541,524.031 373.505,523.098 383.612,523.618C391.221,524.009 398.708,525.8 406.28,526.68C404.86,523.566 403.385,520.572 401.117,517.974C396.936,513.183 391.971,509.858 386.785,506.295C373.283,497.018 358.688,489.199 343.322,483.495C334.823,480.34 326.076,477.568 317.208,475.662C312.062,474.557 305.903,474.391 301.043,472.64C305.604,472.167 311.384,473.875 316.037,474.594C332.635,477.157 350.954,481.883 366.217,488.98C378.517,494.7 389.653,501.932 401.135,509.05L401.306,508.619C402.405,505.942 404.063,503.556 405.816,501.267C392.144,488.417 376.915,479.244 359.897,471.459C333.906,459.571 305.564,452.151 277.117,449.461C266.331,448.442 255.428,448.459 244.604,448.295L224.11,448.025L220.423,448.214ZM372.874,440.398L372.845,437.75L372.002,437.181L374.957,437.056C382.887,440.879 390.957,444.543 398.56,448.991C403.279,451.752 407.697,455.19 412.414,457.844L379.615,416.391C370.626,405.696 360.916,395.846 350.765,386.25C354.196,387.152 359.286,393.423 362.112,396.112L377.757,410.781L408.493,444.396L418.112,456.577C418.657,457.312 420.816,460.756 421.431,461.025C421.618,461.106 431.331,459.104 432.341,458.839C434.004,451.921 435.879,447.11 440.516,441.583C430.462,421.661 414.756,403.705 399.603,387.408C386.455,373.268 373.291,358.976 358.612,346.366C346.275,335.768 332.68,326.808 318.91,318.215C296.639,304.317 272.564,291.047 247.509,282.897C241.689,281.004 235.717,279.474 229.749,278.127C225.326,277.129 220.264,276.025 215.75,276.806L215.176,276.9C211.894,277.487 208.77,279.165 206.958,282.024C204.645,285.671 204.851,288.802 204.978,292.951C205.21,300.53 208.941,309.23 211.79,316.19C226.273,351.576 250.629,385.843 278.781,411.645C289.46,421.433 300.642,430.094 312.5,438.408C318.735,442.78 325.412,447.541 332.433,450.527C336.371,452.201 340.638,452.594 344.708,453.83C350.883,455.706 356.778,458.421 362.683,461.002L389.183,472.362C395.943,475.287 402.467,478.491 409.502,480.758C409.787,474.895 409.912,470.914 412.913,465.686C411.026,463.703 409.278,462.039 407,460.49L372.874,440.398ZM572.802,361.671C573.636,360.773 574.379,359.968 574.977,358.883L575.307,359C575.157,360.898 574.175,362.334 574.25,364.255L573.755,365L573.99,365.553C574.263,366.242 574.393,366.854 574.517,367.579C572.211,373.192 570.849,380.56 569.716,386.594C568.771,391.626 562.784,425.406 563.603,427.933C564.127,429.55 565.882,431.561 566.86,432.993C575.935,392.512 597.388,354.208 619.621,319.529L620.22,319.75C603.111,349.492 589.368,379.756 579.04,412.5C576.373,420.956 575.25,429.912 572.675,438.312C572.403,439.198 572.517,439.221 572.75,440.073C574.035,440.777 574.66,441.377 576.142,441.25C580.055,437.061 582.577,431.775 585.211,426.743L596.427,405.04C603.572,391.613 611.393,378.642 620.576,366.5C628.021,356.655 635.985,347.14 644.989,338.679L659.22,326.157C663.355,322.728 668.841,319.06 671.765,314.515C674.91,309.627 676.459,303.04 678.146,297.519C681.835,285.45 684.601,273.348 687.145,261C691.044,242.074 693.819,223.221 693.945,203.849C693.983,198.021 694.208,191.64 692.767,185.967C691.85,182.356 690.883,179.204 688.719,176.103C687.436,174.264 686.069,173.014 683.764,172.75C672.894,171.504 632.018,202.014 622.816,209.968C590.434,237.953 565.055,272.632 550.75,313.175C546.068,326.446 542.032,341.126 541.075,355.225C540.837,358.727 540.222,362.179 540.068,365.694C539.452,379.755 540.052,393.728 540.803,407.75C541.039,412.161 540.727,416.572 541.53,420.939C547.122,419.258 552.133,418.777 557.476,421.552L557.974,421.815C560.262,405.724 563.773,389.867 568.706,374.37C570.052,370.139 571.144,365.792 572.802,361.671ZM632.809,560.714C624.202,561.284 615.82,562.031 607.321,563.625C603.837,564.278 600.195,564.75 596.971,566.295C593.861,567.785 591.24,570.256 588.25,571.977C586.528,572.967 583.347,573.959 581.984,575.25L581.405,576C582.162,577.104 582.362,577.558 583.75,577.914C587.311,578.827 592.602,578.239 596.402,578.475C601.715,578.804 606.946,579.589 612.219,580.267C638.586,583.658 661.26,594.12 684.259,606.793C682.196,607.092 677.966,604.168 675.951,603.211C669.633,600.209 663.203,597.35 656.638,594.926C638.636,588.277 619.567,584.619 600.379,584.33C632.484,594.029 661.851,609.649 690.314,627.187L715.103,642.75L714.5,643.025C684.432,624.93 654.03,606.737 620.928,594.718C609.605,590.607 595.969,586.057 583.802,587.611C582.482,589.564 581.212,591.851 579.59,593.554C585.508,595.337 591.576,597.273 597.134,600.019C626.367,614.44 649.98,637.229 667.634,664.482L677.245,680.337C678.246,682.044 679.215,685.017 680.682,686.33C681.26,686.847 683.544,687.401 684.337,687.7L697.423,692.772C716.567,700.024 735.573,707.022 755.311,712.541C770.766,716.863 788.012,721.038 804.144,719.514C810.254,718.936 816.195,717.157 820.772,712.924C824.989,701.019 819.367,685.951 814.201,675.137C796.094,637.235 763.943,605.22 727.656,584.693C717.591,578.999 707.138,573.819 696.203,570.016C676.448,563.143 653.769,559.161 632.809,560.714ZM504.304,631.195C503.812,632.946 504.046,634.749 503.562,636.356C502.821,638.821 504.145,651.522 503.1,652.497C502.372,650.254 502.61,647.812 502.011,645.475L501.188,645.598C500.426,639.667 500.649,633.878 501.116,627.94L494.777,625.721C488.803,635.69 484.176,645.795 481.465,657.155C479.072,667.181 478.213,677.26 476.904,687.443C473.115,716.928 479.313,748.172 486.759,776.594L492.241,794.391C494.941,803.972 499.123,814.645 503.441,823.641C510.59,838.534 516.873,853.956 526.132,867.75C528.54,871.338 531.535,875.993 535.379,878.163C540.179,880.873 546.76,880.125 551.834,878.585C560.543,875.943 565.721,867.893 569.788,860.279C585.138,831.547 591.519,796.773 594.144,764.579L594.73,753.267C594.753,752.563 595.023,750.661 594.827,750.064C594.668,749.581 593.205,748.204 592.822,747.762L585.237,738.981C576.335,728.545 567.482,717.942 559.71,706.625C553.635,697.779 547.68,688.577 542.75,679.05C533.155,660.508 526.628,641.179 520.56,621.284L520.151,621.093L512.672,626.32C515.62,642.578 519.602,658.68 524.391,674.5L533.18,702.851C538.803,722.991 543.023,743.985 545.597,764.74C543.896,760.37 542.954,755.713 541.787,751.177L536.107,729.434L516.529,656.5L511.864,638.517C511.001,635.027 510.411,631.033 509.002,627.75C507.353,627.47 506.295,627.768 504.711,628.25L504.304,631.195ZM715.615,474.788C707.939,475.349 700.403,475.942 692.85,477.508C670.117,482.222 649.081,492.215 629.136,503.817C623.563,507.06 615.409,511.065 611.237,515.956L610.066,517.5C610.396,518.68 610.553,518.753 611.5,519.557C615.746,519.553 623.128,514.383 627.169,512.498L646.4,504.14C640.248,509.51 632.605,514.711 625.501,518.843L617.787,523.086C617.325,523.315 615.376,524.049 615.121,524.361C614.708,524.865 613.592,530.313 613.611,531.011L613.721,531.501L662.875,511.394C674.989,507.041 687.015,503.985 699.708,501.961C703.695,501.325 709.025,500.094 713,500.61C710.298,501.898 705.92,501.933 702.875,502.432C697.371,503.333 691.887,504.337 686.516,505.855C674.163,509.348 662.589,514.547 651,519.978C638.32,525.92 625.74,531.967 614.02,539.668C619.967,537.931 625.877,537.109 631.97,536.078C657.697,531.729 683.862,531.776 709.776,534.25C720.401,535.264 731.49,536.49 741.915,538.75C740.148,539.244 738.281,538.675 736.5,538.418L726.021,536.989L713.121,535.724C684.417,533.999 656.286,534.517 628.029,540.4C622.579,541.535 616.519,542.536 611.475,544.947C608.673,546.287 605.843,548.929 603.529,550.987L597.661,556.234C607.415,555.04 617.041,553.34 626.865,552.662C653.841,550.798 683.632,555.374 708.6,565.84L725.023,573.456C730.652,576.301 736.36,579.772 742.668,580.773C748.897,581.762 755.363,581.545 761.65,581.465C791.418,581.084 822.252,574.918 848.911,561.316C853.937,558.751 860.107,556.159 863.619,551.577C865.84,548.679 866.42,545.713 865.792,542.132C863.443,528.744 849.34,518.178 838.791,511.182C831.496,506.345 823.688,502.348 815.89,498.397C785.615,483.059 749.917,471.782 715.615,474.788ZM361.475,557.219L302.584,561.858C295.687,562.405 287.969,561.746 281.236,562.973C274.405,564.218 267.06,567.233 260.613,569.81C245.315,575.924 230.622,583.775 216.637,592.445C197.501,604.308 179.059,618.355 164.058,635.27C159.697,640.187 155.395,645.564 153.008,651.75L152.727,652.449C151.931,654.511 151.56,656.877 152.393,658.999C153.912,662.867 157.532,664.741 161.2,666.108C170.058,669.409 180.743,670.147 190.122,670.958C239.808,675.254 291.773,663.762 336.46,642.229C358.962,631.386 381.426,618.892 401.337,603.734C407.707,598.885 413.319,593.197 419.602,588.268C418.552,585.843 417.954,583.16 416.823,580.811L404.874,585.143L307.25,627.606L307.039,627.129L419.022,573.3C415.432,572.929 412.079,573.809 408.563,574.414L396.488,575.935L358.983,577.983C335.948,579.932 310.913,585.904 290.019,595.997C288.42,596.769 280.286,601.174 279.539,600.623C287.57,596.342 295.471,592.054 303.852,588.474C318.156,582.364 333.176,578.118 348.5,575.526C361.503,573.325 374.704,572.605 387.82,571.404L415.132,568.263C412.478,566.847 409.794,565.5 407.641,563.354C406.771,562.488 404.802,559.659 403.815,559.341C401.735,558.67 398.542,558.698 396.339,558.461C384.764,557.213 373.111,556.855 361.475,557.219ZM134.858,317.207C114.986,319.29 89.25,321.697 75.584,338.522C74.048,340.413 72.97,342.281 71.988,344.5L71.684,345.162C69.708,349.786 71.238,356.756 72.148,361.452L73.258,365.359C77.717,379.599 87.074,392.256 97.323,402.894C112.08,418.212 129.414,430.828 148.281,440.623L165.572,449.359C187.951,441.82 211.147,438.306 234.708,437.92C254.082,437.892 272.961,438.649 292.119,441.8C295.936,442.428 299.975,442.676 303.64,443.951L282.136,426.625C265.438,412.112 250.079,395.094 236.992,377.272C229.896,367.609 223.232,357.55 217.52,347L208.296,328.793C207.859,327.964 206.751,325.233 206.132,324.727C205.105,323.887 199.521,323.294 197.922,322.984C177.178,318.969 156.105,315.382 134.873,317.191L134.858,317.207ZM426.987,596.75L408.11,607.641C396.036,615.047 384.28,623.143 373.058,631.786C359.423,642.287 347.234,654.485 335.35,666.885C313.388,689.799 287.565,717.57 279.836,749.128C278.061,756.379 277.755,764.572 281.634,771.229C283.505,774.441 286.237,777.015 289.868,778.033C294.158,779.235 300.177,778.293 304.571,777.772C333.388,774.355 363.551,763.041 388.176,747.78C414.878,731.233 435.621,706.899 451.486,680.106C461.344,661.866 469.293,642.564 473.393,622.195C470.806,622.197 468.266,622.306 465.75,621.624L465.084,621.452C462.488,620.751 460.178,619.446 457.883,618.077C442.998,642.918 424.916,666.887 403.75,686.727L403.284,686.25C419.075,669.659 433.452,651.407 445.78,632.093C448.848,627.286 453.448,620.834 454.344,615.173L453.948,614.723C451.752,612.192 450.39,609.798 449.235,606.658L391.25,655.678L391.043,655.06C405.526,642.228 420.009,629.654 433.466,615.722C438.939,610.056 444.46,604.555 449.001,598.084C440.079,600.495 435.6,600.224 426.987,596.75ZM572.121,600.075C569.53,601.052 566.984,602.116 564.25,602.604L563.584,602.732C559.018,603.555 555.069,602.421 550.622,601.658C549.978,603.169 549.392,604.765 548.517,606.158C557.58,610.275 566.236,614.618 574.418,620.34C590.495,631.582 602.656,645.971 614.981,661L614.75,661.713C600.197,645.554 583.611,630.165 564.257,619.988C558.527,616.975 553.038,614.15 546.5,613.423L545.802,613.341C544.389,613.19 543.568,613.24 542.25,613.768L542.25,614.533C567.352,636.226 583.115,664.174 600.745,691.75L600.118,691.96C582.699,665.613 564.148,635.821 537.382,618.052L528.997,619.277C531.459,633.031 536.279,646.017 541.951,658.726C548.211,671.817 554.776,684.723 562.767,696.864C571.246,709.747 580.795,722.481 591.046,733.996C599.438,743.423 608.836,752.353 618.026,761.001C634.127,776.15 652.617,792.424 673.888,799.722C676.686,800.682 680.082,801.306 682.836,799.883C686.705,797.883 688.036,793.842 689.101,789.929C691.305,781.833 691.444,772.745 691.392,764.391C691.301,749.699 689.6,734.775 685.384,720.671C680.754,705.18 672.865,689.782 664.777,675.815C660.055,667.659 654.363,660.081 648.414,652.788C634.351,635.547 617.074,619.273 597.007,609.319C588.949,605.322 580.183,603.737 572.121,600.075ZM485.638,801.758L454.149,849.488C451.988,852.539 439.961,867.047 440.006,869.5C440.011,869.786 440.077,870.068 440.136,870.347C449.347,913.991 470.804,962.174 510.945,985.455C518.099,989.604 529.568,996.106 538,993.925C549.554,990.937 559.605,979.629 566.332,970.253C584.78,943.799 590.822,906.862 589.912,875.162C589.594,864.079 587.979,853.3 587.257,842.298C579.463,858.406 572.957,878.82 554.339,885.351C548.093,887.542 539.307,888.263 533.182,885.421C516.442,877.655 492.348,821.821 486.315,803.846L485.638,801.758ZM230.288,163.129C226.039,163.932 219.636,164.76 217.108,168.75C216.03,170.451 215.447,172.099 214.903,174L214.695,174.569C213.738,177.258 213.714,180.219 213.551,183.05C212.966,193.232 215.001,202.698 217.367,212.5C218.72,218.103 221.015,223.684 223.263,228.987C230.27,245.522 239.931,260.88 250.799,275.126C280.402,286.298 307.157,300.134 333.841,317.103L351.481,329.578C354.244,331.649 357.509,334.616 360.556,336.155L328.921,286.75L329.417,286.576L351.774,313.287L367.053,333.607C370.901,339.116 374.551,345.056 378.75,350.288C382.112,354.477 386.468,358.284 390.274,362.101C391.828,363.659 393.901,366.335 395.723,367.379C386.742,351.242 378.464,334.371 372.476,316.867C366.977,300.79 363.681,284.048 362.018,267.162L360.98,248.75L361.018,237.749C361.022,237.111 361.203,235.288 360.911,234.751C360.422,233.853 358.833,232.612 358.09,231.848L348.914,222.443C323.685,196.717 295.447,177.325 260.5,167.474C250.817,164.744 240.384,162.747 230.288,163.129ZM332.147,657.25C314.739,663.581 297.225,669.064 279.084,672.918L261.5,675.997C257.866,676.568 253.853,676.881 250.399,678.186C244.815,680.296 239.135,686.198 234.483,690.008C206.503,712.922 177.53,740.836 162.015,774C158.119,782.327 154.554,791.361 153.087,800.474C151.652,809.394 150.707,819.373 152.983,828.25L153.2,829.311C153.832,832.085 154.06,833.098 156.461,834.541C158.57,835.809 160.842,836.723 163.157,837.549C184.011,844.371 204.897,839.625 223.993,829.882C245.337,818.992 264.088,802.501 278.621,783.526C271.265,773.568 269.469,764.143 271.34,751.923C274.586,730.719 287.041,711.832 299.852,695.149C310.067,681.846 321.002,669.45 333.012,657.75L332.665,657.278L332.147,657.25ZM529.77,114.029C509.814,123.122 498.628,138.442 491.159,158.542C483.902,178.07 479.618,198.342 475.763,218.75C475.206,221.703 473.65,226.082 473.779,228.972C473.815,229.786 474.323,230.756 474.655,231.484L496,276.75C499.919,286.114 502.572,295.763 506.004,305.25C507.898,310.485 509.19,316.32 510.456,321.75C511.988,328.321 513.802,334.836 514.817,341.52L518.367,371.75C518.77,375.34 519.66,378.794 519.839,382.441C520.206,389.899 519.965,397.594 519.638,405.055C519.495,408.321 518.869,412.072 519.176,415.303C519.196,415.509 519.121,415.753 519.242,415.922C520.522,417.709 523.914,419.091 525.542,421C527.745,423.585 528.433,427.204 530.75,429.595C531.778,428.836 532.225,428.067 532.888,427C532.828,422.812 532.071,418.665 531.538,414.517C531.084,410.987 530.866,407.207 529.963,403.762C528.582,398.492 526.275,393.401 524.505,388.25C522.797,383.281 521.513,377.678 520.605,372.5C519.648,367.037 519.197,361.287 518.585,355.764C516.351,335.607 515.726,315.507 516.649,295.25C516.7,294.128 516.789,288.299 517.212,287.816L524.25,229.007C524.827,232.969 523.815,237.106 523.429,241.058L521.103,266.5L520.122,301.5L522.934,343C524.247,357.725 525.629,372.596 529.512,386.884C529.459,373.638 529.87,360.871 531.913,347.742C535.327,325.804 543.052,304.592 553.114,284.886L561.362,270.378C563.694,266.686 567.074,262.501 568.369,258.287C570.505,251.338 570.846,242.639 571.176,235.415C572.5,206.427 567.697,179.57 556.953,152.625C551.903,139.961 545.377,127.043 535.608,117.342C534.181,115.925 532.584,113.914 530.398,113.957L529.77,114.029ZM624.03,38.68C601.929,42.385 582.719,58.59 569.992,76.358C564.569,83.928 559.533,91.664 555.315,99.976C552.402,105.716 550.136,111.623 547.575,117.511L548.129,118.343C557.915,133.219 564.029,148.757 570.368,165.198C572.129,169.767 573.359,175.221 574.404,180C578.899,200.555 580.445,221.344 579.904,242.391C582.512,238.965 585.106,235.474 587.962,232.25C590.554,229.325 594.387,226.286 596.27,222.919C598.624,218.707 599.928,213.343 601.438,208.746L607.75,180.91C608.389,184.635 607.179,189.457 606.435,193.18L600.009,219.976C617.329,203.67 636.153,186.113 657.689,175.616C657.777,175.573 659.568,174.755 659.589,174.713C660.139,173.61 660.134,170.527 660.341,169.178C661.926,158.881 663.651,148.69 663.926,138.25C664.508,116.156 662.317,94.229 654.656,73.401C650.965,63.368 645.647,53.126 638.183,45.377C635.077,42.152 630.029,38.347 625.339,38.482C624.845,38.497 624.533,38.583 624.03,38.68ZM376.038,764.75C355.699,775.241 331.997,782.183 309.563,786.386C305.71,787.108 301.749,787.723 297.837,788.037C295.791,788.201 290.43,787.804 288.782,788.552C286.725,789.486 279.259,811.741 278.191,815.08C269.176,843.271 265.851,874.485 269.25,903.897C270.135,911.553 271.695,918.98 273.186,926.516C275.05,935.938 279.107,945.276 282.805,954.126L287.204,963.808C290.36,956.709 293.806,950.647 299.933,945.649C305.558,941.061 312.489,938.968 319.059,936.143C338.263,927.885 354.983,915.472 362.476,895.25C364.526,889.716 365.739,883.9 367.489,878.272C368.046,876.483 369.861,872.77 369.881,871.113C369.925,867.585 368.032,862.433 367.444,858.797C365.667,847.806 364.629,836.716 365.159,825.569C365.556,817.222 366.288,808.8 367.886,800.587C370.216,788.623 374.049,776.828 377.084,765.023L376.038,764.75ZM246.367,560.209C232.83,561.719 219.198,563.443 205.86,566.245C149.811,578.021 93.749,604.069 57.341,649.633C47.956,661.378 41.274,674.216 36.447,688.391C35.076,692.418 33.481,696.773 33.01,701.01C39.803,698.215 46.347,696.284 53.75,696.026C70.288,695.451 86.583,702.211 101.924,707.476C109.976,710.239 118.014,712.364 126.388,713.924C135.733,715.002 144.978,715.356 154.345,714.16C182.638,710.547 208.003,696.246 230.565,679.457C209.539,679.828 189.368,680.827 168.6,676.162C161.821,674.639 153.812,672.374 148.657,667.446C145.596,664.52 144.429,660.178 144.467,656.057C144.59,642.827 158.251,628.729 167.273,620.034C183.52,604.376 201.519,589.736 220.949,578.174C232.802,571.121 245.193,565.456 257.818,559.975C254.249,560.002 249.821,559.516 246.367,560.209ZM829.775,578.604C804.134,584.385 778.93,591.256 752.37,589.966C775.193,605.923 793.546,626.456 808.834,649.622C813.957,657.384 818.925,665.118 822.999,673.5C824.621,676.835 826.1,680.534 827.188,684.076C827.673,685.656 828.519,691.591 829.407,692.407C829.951,692.907 833.385,693.617 834.225,693.915C845.735,697.994 857.044,701.967 868.938,704.834C891.091,709.44 917.169,710.111 936.721,696.821C939.232,695.114 939.952,692.909 940.469,689.996C943.505,672.868 935.163,654.115 925.475,640.468C907.619,615.317 881.123,596.966 852.776,585.512C845.817,582.699 837.978,579.693 830.516,578.667L829.775,578.604ZM604.598,760.195L599.693,794.6C598.755,800.259 597.293,805.895 596.54,811.584C596.397,812.663 596.602,813.482 596.829,814.524C605.304,853.399 626.216,892.553 660.394,914.533C669.576,920.438 680.304,925.08 691.052,927.195C694.66,927.905 699.209,928.463 702.842,927.53C708.035,926.196 711.532,922.96 714.112,918.357L717.236,911.762C720.641,902.381 723.863,893.161 725.847,883.346C729.764,863.972 728.43,842.914 719.936,824.884C714.463,813.266 705.909,804.48 696.237,796.228C693.19,801.601 690.586,806.612 684.075,808.296C672.733,811.23 658.564,803.279 649.249,797.45C636.305,789.35 624.519,779.28 613.53,768.727C610.609,765.922 607.283,763.202 604.598,760.195ZM686.1,697.61C695.257,720.348 699.675,742.478 699.272,767.004C699.237,769.147 697.987,786.058 698.34,786.891C698.456,787.163 700.367,788.372 700.679,788.603C703.199,790.47 705.71,792.361 708.054,794.448C720.957,805.931 730.65,820.124 735.751,836.657L736.761,840.594C737.754,844.234 737.927,847.871 738.613,851.543C738.73,852.171 738.962,854.108 739.283,854.565C740.64,856.503 743.5,858.521 745.327,860.148C752.245,866.306 759.384,873.001 767.452,877.626L776.75,881.999L777.524,882.298C779.657,883.088 782.402,883.463 784.551,882.515C787.924,881.026 790.675,876.409 792.482,873.338C808.307,843.816 804.68,809.033 795.398,778.074C789.751,759.237 779.911,741.82 769.629,725.163L686.1,697.61ZM466.532,683.75C455.684,702.99 443.84,723.641 437.037,744.75C433.687,755.143 431.264,766.11 429.473,776.88L426.133,802.017C425.67,806.299 425.696,810.815 424.75,815.001C424.218,812.37 424.801,809.411 425.007,806.75L426.16,791.676C428.277,766.154 427.981,738.575 438.15,714.58C430.092,723.927 420.435,732.34 410.73,739.927L401,747.487C397.883,749.766 393.766,751.865 391.389,754.97C388.772,758.388 387.412,762.528 385.931,766.5C382.334,776.146 378.435,786.868 376.866,797.065C373.607,811.91 372.095,827.057 373.044,842.251C373.218,845.038 373.794,847.742 374.065,850.509C375.072,860.763 377.204,871.837 382.959,880.572C385.859,884.972 390.629,889.412 395.969,890.312C401.796,891.294 406.574,889.101 411.08,885.647C419.573,879.139 427.158,870.229 433.955,862C446.29,847.066 457.418,831.531 467.716,815.137C472.699,807.203 478.26,798.665 481.848,790.024C472.199,762.325 468.206,733.073 467.671,703.873C467.621,701.154 467.943,685 467.49,684.25C467.364,684.042 467.118,683.937 466.932,683.78L466.532,683.75ZM442.233,29.572C430.589,32.233 422.122,40.628 415.938,50.491C398.461,78.371 401.611,110.904 407.111,141.831C407.393,143.417 407.652,144.059 408.973,144.959C427.609,157.652 441.799,176.901 453.841,195.75L461.75,208.133C463.243,210.448 464.571,212.962 466.5,214.944L467.274,214.628L467.72,213.25C472.279,194.09 477.218,175.92 484.487,157.577C489.856,144.03 495.675,130.205 507.405,120.932C499.326,88.474 486.986,52.994 456.719,34.92C453.709,33.123 450.148,31.373 446.75,30.465C445.276,30.07 443.676,29.993 442.233,29.572ZM879.789,272.202C868.22,273.458 857.237,276.052 846.5,280.612C838.842,283.864 831.449,288.207 824.277,292.391C820.241,294.746 815.438,296.993 811.828,299.887C805.442,322.817 794.764,346.126 782.75,366.661L763.421,397.416C778.007,393.393 793.907,388.695 809.124,388.418C818.961,387.412 828.901,387.407 838.753,388.122C842.755,388.413 847.626,389.882 851.54,389.467C858.784,388.7 867.031,383.22 871.55,377.63C875.432,372.827 877.504,366.972 880.19,361.485C882.903,355.941 886.384,350.631 890.396,345.936C898.194,336.809 907.477,329.504 915.892,321.022C921.282,315.589 926.587,309.62 929.041,302.25L929.225,301.729C930.193,298.75 929.402,295.197 928.139,292.459L927.785,291.674C924.056,283.869 912.321,278.101 904.5,275.499C896.866,272.959 887.82,271.561 879.789,272.202ZM879.637,463.199L867.652,464.439C865.756,464.642 863.53,464.695 861.75,465.404C859.335,466.365 856.994,468.827 854.996,470.469L843.758,479.185L830.999,487.708C828.691,489.148 825.905,490.488 823.856,492.229C837.305,499.482 850.31,507.34 861.107,518.301C866.164,523.435 870.614,528.991 872.591,536.062C873.547,539.484 873.451,543.002 873.14,546.5L873.086,547.237C872.535,553.874 866.345,559.978 861.523,564.073L852.943,570.395L870.607,572.381C878.003,572.989 885.526,573.043 892.943,572.905C896.596,572.837 901.059,572.981 904.595,572.155C929.504,569.267 959.133,563.322 975.595,542.497C979.086,538.08 981.36,532.905 980.778,527.15L980.174,523.938C978.613,516.916 975.868,511.169 972.173,505.085C959.699,484.55 934.278,471.195 911.594,465.908C901.722,463.607 889.738,461.88 879.637,463.199ZM821.332,396.224C802.957,396.997 785.159,401.313 767.52,406.263C762.176,407.763 756.765,408.898 751.648,411.106C747.403,412.937 744.373,416.986 741.071,420.11L728.901,430.976C722.335,436.493 715.301,441.488 708,445.988C696.159,453.286 683.735,459.308 670.979,464.825C659.53,469.778 647.733,474.054 636.552,479.628C631.415,482.19 626.634,485.328 621.736,488.307C617.142,491.102 612.478,493.734 608.386,497.25C607.94,498.962 608.252,500.143 608.657,501.84C610.31,501.935 611.849,500.849 613.283,500.108L624.5,494.425L647,483.995L669.276,475.223C675.148,473.204 681.191,471.373 687.25,469.999C692.797,468.741 698.912,468.615 704.071,466.144C726.071,455.604 749.629,445.385 773.384,439.551C779.011,437.964 819.42,428.651 822,429.839C810.062,432.463 798.276,435.245 786.628,438.988C773.028,443.358 759.623,448.84 746.447,454.353C737.915,457.923 729.256,461.118 721.599,466.387C743.596,466.043 765.493,470.073 786.442,476.716C788.561,477.388 812.422,487.086 812.666,487.064C812.909,487.043 814.093,486.19 814.326,486.047L820.55,482.204L838.272,471.56C851.319,462.886 864.146,452.377 875.055,441.124C881.638,434.333 887.57,427.361 890.375,418.194C887.635,415.468 884.909,412.652 881.744,410.41C865.246,398.729 843.247,396.254 823.627,396.187L821.332,396.224ZM817.779,169.702C801.615,171.466 786.159,174.517 770.9,180.298L751.18,188.581C748.875,208.955 743.534,227.928 736.25,247.042C731.243,260.181 725.398,273.006 716.975,284.359C730.334,276.543 744.401,271.218 759.25,267.004C772.332,263.558 787.608,260.379 801.079,262.811C806.036,263.706 809.835,265.318 812.897,269.511L816.095,274.187C822.709,266.45 828.775,258.56 832.878,249.172C836.669,240.5 838.655,231.143 840.841,221.979C845.15,203.911 850.869,188.533 864.036,174.928C852.233,170.108 837.205,169.101 824.538,169.402C822.562,169.449 819.581,169.186 817.779,169.702ZM317.427,86.715C311.918,87.312 305.955,88.524 302.291,93.112C298.442,97.931 296.015,104.054 294.527,110L294.281,110.922C292.302,118.503 291.99,126.805 292.008,134.598C292.036,146.414 293.056,158.064 295.372,169.653C314.441,181.808 331.43,195.316 348.293,210.375C352.343,213.992 357.424,217.767 360.852,221.936L361.814,212.12C362.979,193.808 367.387,158.061 382.076,145.265C386.308,141.578 389.716,141.01 395.148,140.623L393.349,131.606C393.093,130.305 392.917,128.266 392.318,127.121C391.365,125.301 388.033,123.057 386.456,121.658C378.786,114.856 371.103,108.06 362.558,102.363C352.115,95.401 339.827,89.48 327.379,87.444C324.314,86.943 320.511,86.348 317.427,86.715ZM115.123,472.25C96.641,474.55 76.606,479.068 60.345,488.312C55.496,491.069 50.15,494.721 46.707,499.164C45.613,500.576 44.712,502.115 44.004,503.75L43.732,504.354C42.24,507.917 42.871,511.722 43.98,515.25L44.186,516.031C45.242,519.717 47.515,523.037 49.75,526.108C57.132,536.249 67.932,543.871 78.924,549.675C99.986,560.798 122.672,562.02 145.969,563.014C154.306,563.088 162.946,563.616 171.197,562.23C184.485,559.997 197.958,556.198 210.742,551.912C202.223,549.934 193.844,546.702 185.724,543.483C166.588,535.897 148.55,526.537 131.931,514.346C124.74,509.071 116.88,502.975 112.137,495.284C109.752,491.418 108.524,487.298 109.582,482.779C110.639,478.263 113.235,475.946 116.047,472.523L115.123,472.25ZM901.325,374.695L884.999,377.197C879.678,385.408 874.043,391.041 865.784,396.352C875.656,400.385 887.984,405.504 893.141,415.479L893.421,415.968C894.547,418.061 894.373,422.187 893.597,424.386C889.894,434.877 879.511,445.396 872.169,453.689C894.117,450.948 913.428,453.83 934.228,460.998C939.546,456.33 945.045,451.77 949.97,446.687C957.923,438.478 966.109,428.212 977.101,424.078C981.968,422.248 986.778,421.822 991.933,421.501C975.735,398.222 947.835,380.405 919.969,375.495C914.207,374.48 907.091,373.723 901.325,374.695ZM723.255,128.11C717.463,129.302 711.907,130.617 706.454,132.964C693.92,138.359 683.254,146.95 672.22,154.802C671.844,157.753 671.232,160.822 670.595,163.732C670.264,165.243 669.688,166.851 669.796,168.399C675.243,166.17 682.35,164.08 688.118,166.354C692.986,168.272 696.593,172.229 698.545,177.047C701.931,185.408 702.013,194.206 702.03,203.121C702.068,221.858 699.56,239.884 696.018,258.25C693.849,269.5 691.731,280.981 688.45,291.968L688.368,292.122L685.537,303.782C695.698,297.315 701.608,289.362 708.352,279.616C723.032,258.403 734.337,233.499 739.832,208.25C743.863,189.726 744.987,169.561 741.451,150.86C740.423,145.426 738.963,139.256 735.75,134.653C733.768,131.813 729.527,128.659 726,128.118C725.113,127.981 724.149,128.057 723.255,128.11ZM483.134,617.25C479.808,622.339 479.033,630.391 477.581,636.351L473.831,648.998C471.607,655.9 468.642,662.287 465.994,669C467.053,669.919 467.932,670.051 469.25,670.411C470.73,669.637 470.677,669.492 471.174,667.896C472.082,664.979 472.403,661.803 473.031,658.812C474.145,653.508 475.426,648.25 477.019,643.068L483.283,625.736C484.138,623.484 485.286,621.346 485.855,619C484.794,617.789 484.786,617.496 483.134,617.25ZM403.513,488.75L403.891,489.03C406.804,491.254 409.374,495.213 412.5,496.87L414.75,495.844L415.25,494.721L412.933,489.208L404.963,488.597C404.109,488.489 404.437,488.502 403.513,488.75ZM441.944,426.461C444.187,430.29 446.363,435.248 449.25,438.525L452.25,438.097C451.746,433.799 445.07,429.343 441.944,426.461Z" style="fill-rule:nonzero;"/>
    </g>
    <g>
        <g transform="matrix(0.078125,0,0,0.078125,0,0)">
            <path d="M532.346,533.867L532.8,533.476C533.993,532.431 535.161,531.356 535.966,529.97C536.515,529.024 537.658,524.864 538.254,524.498C538.656,524.251 542.109,524.516 542.745,524.559C545.835,524.767 549.966,525.543 552.016,528.034C553.184,529.454 554.931,533.32 554.687,535.138C554.094,539.541 551.138,542.164 547.523,544.227C542.819,545.541 535.611,543.296 531.003,542.127C530.634,538.669 530.046,536.75 532.346,533.867Z" style="fill:rgb(200,255,0);fill-rule:nonzero;"/>
        </g>
        <g transform="matrix(0.078125,0,0,0.078125,0,0)">
            <path d="M538.529,500.569C542.451,500.193 547.138,499.834 550.953,500.929C554.566,501.966 557.819,504.326 559.473,507.75C560.479,509.832 560.442,512.405 559.521,514.513C558.134,517.687 554.56,519.34 551.563,520.631C546.827,521.645 542.521,521.58 537.702,521.472L530.046,510.503L530.75,508.578C532.512,504.153 534.195,502.391 538.529,500.569Z" style="fill:rgb(200,255,0);fill-rule:nonzero;"/>
        </g>
        <g transform="matrix(0.078125,0,0,0.078125,0,0)">
            <path d="M501.848,477.641C498.628,476.696 495.566,476.418 492.229,476.19C494.657,471.337 497.03,468.203 502.335,466.296C506.437,464.822 511.612,465.245 515.75,466.371L516.493,466.561C521.477,467.895 524.974,471.036 528.403,474.707C529.587,475.975 530.744,477.718 532.161,478.685C533.691,479.728 536.031,480.065 537.806,480.531C543.042,481.908 549.495,484.238 552.357,489.146C553.557,491.203 554.236,493.932 553.494,496.268C553.183,497.247 552.783,497.334 552,497.939C544.098,497.701 538.595,497.953 531.217,501.218C528.81,498.064 525.733,494.453 521.588,493.687C519.628,493.014 517.634,492.86 515.578,492.834C515.141,492.828 512.927,492.954 512.683,492.824C512.581,492.77 509.654,485.412 509.16,484.527C507.25,481.108 505.107,479.557 501.848,477.641Z" style="fill:rgb(200,255,0);fill-rule:nonzero;"/>
        </g>
        <g transform="matrix(0.078125,0,0,0.078125,0,0)">
            <path d="M486.059,482.79L484.517,484.75C481.045,484.368 477.674,483.07 474.216,482.449C472.914,482.215 469.759,482.102 468.797,481.525C468.284,481.217 467.373,479.762 466.973,479.264C464.964,476.764 459.716,471.879 460.168,468.559C460.647,465.033 463.209,462.07 466.032,460.075C471.286,456.359 477.077,455.414 483.269,456.75L486.176,457.496C486.799,455.101 487.165,452.28 489.461,450.888C493.042,448.718 498.631,447.781 502.73,448.836C505.739,449.611 507.114,451.077 508.495,453.75L509.23,455.244C512.294,451.483 514.713,449.345 519.128,447.272C526.808,448.55 532.018,451.573 536.602,457.963C537.914,459.792 538.587,460.981 538.528,463.25C539.528,463.082 540.21,462.73 541.108,462.289C545.163,460.297 549.826,459.599 554.193,461.112C558.657,462.657 562.006,466.796 563.869,470.979C564.474,472.337 565.137,476.111 565.897,476.993C566.797,478.037 569.618,478.845 570.865,479.884C575.053,483.374 575.733,491.982 573.964,496.75C572.098,501.777 568.455,505.787 565.06,509.828C569.82,516.684 575.414,521.831 573.757,530.969C572.818,536.145 570.279,540.986 566.25,544.432L564,544.439C563.13,546.085 563.823,547.955 563.484,549.75C562.747,553.644 556.465,559.388 552.72,560.532C551.552,560.888 550.685,560.772 549.483,560.679L547.111,560.652L546.656,561.5C549.23,563.889 551.322,565.666 551.576,569.372C551.883,573.835 549.711,578.199 546.754,581.437C544.505,583.901 541.988,585.69 538.576,585.913C533.568,586.24 530.458,583.559 527.098,580.343C525.944,579.238 525.569,578.449 523.828,578.41C522.898,578.389 522.116,578.716 521.25,579.02L520.551,580C521.135,581.613 522.261,583.56 521.529,585.25C520.459,587.718 517.967,589.294 515.5,590.03C513.422,590.65 510.036,590.959 508.059,590.007C505.735,588.888 504.314,586.359 503.1,584.218C496.224,588.047 493.809,593.337 484.788,590.958C481.701,590.143 479.25,587.652 477.726,584.91C475.824,581.488 475.847,577.631 473.791,574.209C473.123,574.769 472.993,575.028 472.584,575.821C471.639,577.655 468.76,578.792 466.866,579.304C462.965,580.358 458.612,579.652 455.236,577.456C453.661,576.431 452.375,575.156 451.235,573.67C450.219,572.345 448.375,568.009 447.061,567.637C446.173,569.031 446.535,571.218 446.915,572.755C447.866,576.595 450.811,580.037 454.25,581.934C459.815,585.003 465.829,583.514 471.497,581.79C473.322,587.305 475.585,591.654 481.025,594.406C484.824,596.328 488.947,596.056 492.864,594.637C495.816,593.568 498.461,591.769 501.415,590.778L502.039,591.305C505.531,594.23 508.219,594.666 512.639,595.155C512.535,599.097 512.103,603.062 513.664,606.776C514.206,608.065 514.875,609.291 515.578,610.499C515.791,610.866 516.336,611.182 516.23,611.593C516.201,611.709 515.127,612.693 514.959,612.853C511.725,615.94 507.983,617.747 503.415,617.48C498.848,617.213 494.393,614.023 491.561,610.544C488.919,607.298 488.47,602.298 485.75,599.617C482.61,600.465 481.163,604.934 479.387,607.433C477.456,610.151 474.457,612.063 471.191,612.698C469.212,613.084 467.098,613.131 465.259,612.174C460.847,609.88 457.802,602.726 456.703,598.149C455.675,593.871 455.633,589.225 455.578,584.845C449.233,587.033 441.463,591.826 434.757,588.632C431.036,586.859 428.778,583.026 427.503,579.25C426.077,575.022 426.924,570.123 429.027,566.25C433.956,557.168 445.814,553.3 454.544,548.975C457.942,558.048 461.535,567.447 470.928,571.873C473.188,572.937 475.601,572.756 477.887,571.832C480.799,570.656 483.199,568.106 485.374,565.911C489.645,571.234 495.249,576.852 502.5,577.468C508.448,577.973 513.642,577.177 518.25,573.14C520.404,571.252 521.675,568.781 523.061,566.322C527.921,567.913 531.696,568.266 536.46,565.908C540.93,563.695 544.361,560.678 545.824,555.75C546.773,552.553 546.142,548.659 548.617,546.366C549.645,545.834 550.674,545.286 551.586,544.568C554.476,542.293 557.113,538.205 557.389,534.483C557.688,530.456 555.185,527.521 552.784,524.635C555.553,523.141 558.611,521.581 560.733,519.206C563.036,516.628 564.311,512.948 563.933,509.486C563.393,504.552 559.577,501.867 555.981,499.004C556.39,497.459 557.044,495.609 557.006,494C556.792,484.883 547.201,479.068 539.449,476.829C537.307,476.211 534.2,476.129 532.281,475.25C531.533,474.907 530.735,473.432 530.277,472.769C528.865,470.721 527.485,468.512 525.559,466.901C520.554,462.715 513.928,461.446 507.567,461.928C501.937,462.354 496.622,464.17 493.052,468.75C491.326,470.964 490.327,473.493 490.786,476.3L490.869,476.75L486.059,482.79Z" style="fill:rgb(200,255,0);fill-rule:nonzero;"/>
        </g>
        <g transform="matrix(0.078125,0,0,0.078125,0,0)">
            <path d="M530.42,543.275L544.641,547.838C542.749,555.47 540.459,559.557 533.825,563.846C531.408,564.52 528.413,565.204 526.044,564.038C521.792,561.945 520.748,557.653 519.459,553.489C524.398,550.552 527.192,548.007 530.42,543.275Z" style="fill:rgb(200,255,0);fill-rule:nonzero;"/>
        </g>
        <g transform="matrix(0.078125,0,0,0.078125,0,0)">
            <path d="M485.373,525.557L490.25,525.61C492.915,527.775 494.931,530.988 496.329,534.122C497.029,535.69 498.216,540.338 497.298,542.022C495.597,545.144 490.123,546.375 486.864,547.046C485.079,547.064 482.946,546.811 481.308,546.07C478.243,544.684 476.708,542.264 475.687,539.151C474.559,535.712 474.455,535.196 476.128,531.983C478.18,528.043 481.412,526.839 485.373,525.557Z" style="fill:rgb(200,255,0);fill-rule:nonzero;"/>
        </g>
        <g transform="matrix(0.078125,0,0,0.078125,0,0)">
            <path d="M515.163,494.912C519.392,495.183 523.009,495.387 526.007,498.852C527.528,500.61 528.603,502.952 528.469,505.32C528.26,509.018 525.388,511.647 522.702,513.816L521.034,515.134C518.985,516.58 517.455,517.587 515,518.287C512.125,517.953 510.378,516.875 508.585,514.591C506.394,511.802 505.7,508.501 506.187,505.002C506.891,499.947 511.438,497.529 515.163,494.912Z" style="fill:rgb(200,255,0);fill-rule:nonzero;"/>
        </g>
        <g transform="matrix(0.078125,0,0,0.078125,0,0)">
            <path d="M471.308,485.531C475.709,485.362 479.056,486.224 483.151,487.757L485.498,500.656L474.955,506.371C472.612,506.879 470.581,507.182 468.25,506.416C465.884,505.639 463.123,504.147 462.037,501.774C460.877,499.238 460.89,495.767 461.965,493.203C463.802,488.823 467.21,487.22 471.308,485.531Z" style="fill:rgb(200,255,0);fill-rule:nonzero;"/>
        </g>
        <g transform="matrix(0.078125,0,0,0.078125,0,0)">
            <path d="M487.026,488.571C487.787,485.673 488.835,481.694 491.505,479.926C493.802,478.405 495.846,478.395 498.477,478.831C503.077,480.944 506.281,483.546 508.071,488.48C509.17,491.508 509.397,492.845 507.93,495.714C506.831,497.864 503.503,503.257 501.423,504.257C499.277,505.288 494.374,505.338 492.278,504.176C489.468,502.619 487.959,499.976 487.308,496.936C486.731,494.24 486.694,491.295 487.026,488.571Z" style="fill:rgb(200,255,0);fill-rule:nonzero;"/>
        </g>
        <g transform="matrix(0.078125,0,0,0.078125,0,0)">
            <path d="M462.368,507.015L472.068,509.47C470.855,517.119 470.854,523.079 473.965,530.259L471.534,535.759C469.218,536.404 467.121,536.828 464.72,537.033L462.634,536.657C458.739,535.755 455.282,533.351 453.248,529.881C451.888,527.558 450.921,524.907 451.698,522.257L451.936,521.5C453.829,515.073 457.578,511.452 462.368,507.015Z" style="fill:rgb(200,255,0);fill-rule:nonzero;"/>
        </g>
        <g transform="matrix(0.078125,0,0,0.078125,0,0)">
            <path d="M467.171,539.798L471.75,539.313C473.13,540.692 473.287,542.729 474.322,544.368C476.422,547.694 480.173,549.015 483.808,549.714L484.546,549.85C483.606,554.441 483.475,558.674 483.494,563.33C480.79,566.799 478.565,568.137 474.25,568.922C473.487,568.806 472.725,568.71 472,568.426C465.847,566.02 461.767,557.855 459.392,552.022C458.659,550.222 457.189,546.828 457.254,544.932C457.293,543.786 458.858,541.078 459.352,539.89L467.171,539.798Z" style="fill:rgb(200,255,0);fill-rule:nonzero;"/>
        </g>
        <g transform="matrix(0.078125,0,0,0.078125,0,0)">
            <path d="M486.33,503.364L490.308,506.137C494.357,508.605 498.154,507.521 502.486,506.482C504.456,511.777 505.743,516.403 510.514,520.001C511.44,520.7 512.089,521.222 512.75,522.205C512.707,523.232 512.657,524.189 512.349,525.179C511.461,528.041 509.094,530.132 506.5,531.492C504.874,532.344 502.938,531.978 501.25,531.418L497.591,529.524L495.512,526.95C493.21,523.732 494.137,520.168 494.742,516.552C493.476,518.845 492.071,520.766 490.428,522.792C485.256,522.723 481.445,523.292 476.65,525.212C475.395,521.838 474.31,518.328 475.333,514.742C476.946,509.096 481.557,506.128 486.33,503.364Z" style="fill:rgb(200,255,0);fill-rule:nonzero;"/>
        </g>
        <g transform="matrix(0.078125,0,0,0.078125,0,0)">
            <path d="M497.675,545.25C498.024,545.191 498.415,544.895 498.721,545.072C499.059,545.268 500.102,547.083 500.415,547.507C501.658,549.193 503.304,551.011 505.223,551.928L505.75,552.164C509.061,553.676 512.169,553.97 515.742,553.788L516.475,553.744L519.565,562.379C520.249,564.783 519.771,565.512 518.537,567.669C516.459,571.3 513.496,572.463 509.667,573.511L505.75,573.391C499.578,572.602 493.761,569.727 489.852,564.831C486.867,561.093 485.904,557.705 486.563,553.005C486.694,552.07 487.115,550.808 487.946,550.25C490.764,548.361 494.209,548.002 497.158,545.668L497.675,545.25Z" style="fill:rgb(200,255,0);fill-rule:nonzero;"/>
        </g>
        <g transform="matrix(0.078125,0,0,0.078125,0,0)">
            <path d="M522.72,517.083L528.114,513.036C531.22,516.289 534.984,519.914 534.971,524.75C534.963,527.637 533.163,529.822 531.47,531.97L531.513,532.114L529.5,533.334C526.82,532.823 524.13,531.518 521.585,530.531C523.415,532.726 526.109,535.071 527.181,537.75C527.792,539.278 527.612,540.64 526.907,542.103C525.21,545.627 521.574,547.915 517.936,549.026C514.254,550.151 509.461,550.087 506.087,548.111C501.318,545.317 499.655,538.561 498.273,533.626C502.133,534.05 506.258,534.592 509.647,532.25C513.161,529.822 514.177,526.028 514.982,522.048L515.087,521.512L522.72,517.083Z" style="fill:rgb(200,255,0);fill-rule:nonzero;"/>
        </g>
        <g transform="matrix(0.078125,0,0,0.078125,0,0)">
            <path d="M422.228,502.571C425.992,502.271 430.069,503.449 433.748,504.251C432.022,506.031 430.195,507.817 428.813,509.884C424.2,516.777 423.991,524.828 425.661,532.658C427.571,541.615 431.222,548.34 439.125,553.264L439.906,553.746C437.761,554.801 435.545,555.849 433.5,557.091C430.655,558.818 428.401,561.423 424.907,561.3C419.736,559.589 413.619,556.57 410.543,551.912C409.075,549.69 409.041,547.56 409.672,545.022C411.25,538.671 419.151,533.865 424.269,530.773C419.217,527.094 413.672,523.333 411.833,517.048C410.94,513.998 411.092,510.21 412.76,507.445C414.873,503.944 418.557,503.389 422.228,502.571Z" style="fill:rgb(200,255,0);fill-rule:nonzero;"/>
        </g>
        <g transform="matrix(0.078125,0,0,0.078125,0,0)">
            <path d="M567.517,547.75L567.978,547.545C570.816,546.64 577.548,547.646 580.179,548.933C583.3,550.459 587.083,553.98 588.006,557.433C588.377,558.823 588.318,560.303 587.452,561.5C582.954,567.721 573.215,569.599 566.207,570.213L565.513,571.25C566.377,575.963 570.896,577.228 573.288,580.834C574.023,581.942 574.262,583.204 573.914,584.5C573.383,586.481 571.195,588.78 569.537,589.882C562.792,594.365 554.046,592.943 546.545,591.48C545.531,592.783 545.044,594.808 544.401,596.343C542.498,600.892 539.917,604.322 536.446,607.784L534.441,608.822C531.318,610.267 528.171,610.243 525,608.983C519.027,606.61 515.306,601.033 512.966,595.342C518.476,593.664 522.139,591.57 525.737,587.073L526.191,586.494L534.813,589.876C538.234,590.924 542.905,589.821 545.932,588.017C549.918,585.642 553.533,581.03 554.491,576.407L554.613,575.75C555.411,571.689 554.464,568.043 553.338,564.155L556.5,562.525L557.839,561.831C563.082,558.819 566.063,553.4 567.517,547.75Z" style="fill:rgb(200,255,0);fill-rule:nonzero;"/>
        </g>
        <g transform="matrix(0.078125,0,0,0.078125,0,0)">
            <path d="M449.702,473.571C451.514,473.259 453.432,473.176 455.25,473.512C459.699,474.334 463.513,479.653 465.817,483.215C463.368,486.389 460.83,488.586 459.511,492.56C458.239,496.393 457.866,499.993 459.745,503.662L460.055,504.239C457.868,506.359 455.452,508.444 453.571,510.84C450.045,515.33 447.539,521.057 448.355,526.858C449.149,532.501 452.655,535.754 456.887,539.093C455.458,543.315 454.951,545.71 451.273,548.539C448.805,549.867 446.25,550.622 443.432,550.545C440.524,550.465 438.705,548.761 436.887,546.646C430.81,539.573 429.618,528.979 430.58,520.065C431.357,512.856 435.187,509.015 440.532,504.75C439.922,504 440.197,504.176 439.425,503.772C438.685,503.384 438.722,503.2 438.36,502.421C436.104,497.564 435.42,490.679 437.297,485.639C439.589,479.481 443.936,476.169 449.702,473.571Z" style="fill:rgb(200,255,0);fill-rule:nonzero;"/>
        </g>
        <g transform="matrix(0.078125,0,0,0.078125,0,0)">
            <path d="M571.659,451.049L572.631,451.24C574.469,451.676 575.91,452.551 576.796,454.284C578.104,456.842 576.509,460.558 575.785,463.142C579.441,462.654 583.566,461.664 586.75,464.083C589.257,465.989 591.197,469.05 591.431,472.25C591.694,475.843 587.538,479.204 585.356,481.555C583.802,483.229 582.4,485.058 580.992,486.857C585.985,489.735 592.513,491.357 596.955,494.991C599.408,496.997 600.29,499.384 600.427,502.504C600.854,512.229 586.461,516.411 580.803,522.25L581.094,523.25C584.732,525.036 592.28,522.863 596.286,522.23C599.644,523.469 603.405,527.873 605.25,530.846C605.784,534.344 604.606,536.861 602.607,539.674L601.717,540.42C592.65,547.768 581.315,546.505 570.482,545.428L574.432,539.652C577.424,534.224 578.699,527.305 576.819,521.286L576.556,520.5C575.155,516.219 572.18,513.25 569.169,510.038C573.79,506.428 578.101,501.22 579.282,495.329C579.683,493.333 579.581,491.225 580.098,489.262C580.436,487.978 580.374,487.306 579.968,486.005C578.158,480.215 575.18,475.927 569.768,473.043C568.232,472.224 567.757,467.41 566.644,465.619C564.548,462.248 561.377,459.791 558.359,457.3C562.485,453.959 566.581,452.32 571.659,451.049Z" style="fill:rgb(200,255,0);fill-rule:nonzero;"/>
        </g>
        <g transform="matrix(0.078125,0,0,0.078125,0,0)">
            <path d="M512.588,424.75C513.553,424.511 514.548,424.362 515.536,424.582C520.475,425.68 526.312,437.386 528.853,441.535C533.825,437.652 543.524,429.347 550,429.522C551.962,429.575 554.196,431.464 555.345,432.898C560.742,439.629 558.808,449.356 557.999,457.24C551.57,455.011 547.293,455.294 540.797,457.184L536.75,451.549C532.928,446.792 527.156,443.439 521.005,443.032C516.224,442.716 512.143,446.008 508.688,448.876C505.993,446.074 504.413,444.27 500.586,443.225C499.795,443.009 498.52,442.532 497.735,442.502C493.609,442.344 487.565,446.691 484.353,449.008C483.769,449.429 482.299,450.775 481.758,450.895C480.761,451.117 478.655,450.504 477.5,450.52C473.665,450.574 465.294,452.578 462.106,454.805C458.459,457.353 457.412,463.792 456.824,467.843C455.181,468.732 453.304,468.236 451.46,468.095C447.809,468.494 444.431,469.639 441.4,471.75C436.56,475.12 432.598,480.891 431.528,486.71L431.393,487.5C430.718,491.29 432.406,497.835 430.917,500.86C429.05,500.974 427.943,500.763 426.25,499.967C420.285,493.233 418.309,484.514 418.526,475.75C418.97,474.824 419.364,473.989 420.087,473.244C422.378,470.884 425.903,469.147 429.137,468.616C429.993,468.475 438.262,468.278 438.284,468.254C438.468,468.052 438.892,465.651 438.995,465.222C440.088,460.667 441.335,453.682 445.131,450.595C447.972,448.284 452.714,447.771 456.236,448.281L457,448.404C459.988,448.842 462.675,450.548 465.327,451.93C466.974,444.469 467.816,437.735 473.615,432.12C476.364,429.457 480.016,428.239 483.806,428.403C489.6,428.653 494.393,436.14 498.132,440.042C503.699,435.5 506.077,427.958 512.588,424.75Z" style="fill:rgb(200,255,0);fill-rule:nonzero;"/>
        </g>
    </g>
</svg>
