<?xml version="1.0" encoding="UTF-8" standalone="no"?>
<!DOCTYPE svg PUBLIC "-//W3C//DTD SVG 1.1//EN" "http://www.w3.org/Graphics/SVG/1.1/DTD/svg11.dtd">
<svg width="100%" height="100%" viewBox="0 0 80 80" version="1.1" xmlns="http://www.w3.org/2000/svg" xmlns:xlink="http://www.w3.org/1999/xlink" xml:space="preserve" xmlns:serif="http://www.serif.com/" style="fill-rule:evenodd;clip-rule:evenodd;stroke-linejoin:round;stroke-miterlimit:2;">
    <g transform="matrix(1.07703,0,0,1.07703,-3.29369,-9.63592)">
        <g transform="matrix(0.0740741,0,0,0.0740741,0,0)">
            <path d="M98.563,699.059L95.611,695.105C88.687,684.385 87.066,670.08 89.982,657.847L90.915,654.428C82.754,642.11 77.42,628.904 80.346,613.915C81.026,610.431 82.208,606.864 83.938,603.757C85.083,601.7 86.8,599.584 87.623,597.398C88.731,594.453 88.993,591.011 89.757,587.943C91.427,581.238 95.294,575.123 101.058,571.183C108.461,566.123 116.901,566.961 125.353,567.767C121.93,562.89 117.323,558.035 111.076,557.105C102.498,555.827 95.198,561.649 88.121,565.692C92.579,559.38 96.973,552.453 105.25,551.188C110.377,550.404 116.248,551.971 120.33,555.165C122.83,557.122 125.149,559.704 127.137,562.175C127.786,543.76 129.124,527.346 137.24,510.435L124.968,512.324C127.018,504.369 129.211,496.429 132.921,489.061C142.209,470.614 160.858,453.697 178.536,443.216L187.567,438.346C183.02,406.603 191.621,371.413 211.051,345.729C220.84,332.79 232.033,323.565 246.526,316.294C236.069,315.177 228.482,312.424 219.738,306.587C231.884,309.73 244.402,311.043 256.888,309.703C272.839,271.03 310.489,244.363 348.008,228.765C376.495,216.921 406.76,210.162 437.547,208.435C440.719,208.257 445.506,209.089 446.825,205.549C447.602,203.466 447.494,202.336 446.577,200.273C442.534,191.174 428.072,186.533 419.676,182.665C427.087,180.95 431.529,181.5 438.01,185.507C443.836,189.109 448.367,194.42 449.965,201.185C450.52,203.538 450.412,205.999 450.377,208.4L512.286,178.63L502.73,186.073L546.419,196.155C554.929,198.381 563.722,201.843 572.291,203.479C577.901,204.551 584.459,203.764 590.242,204.216C605.06,205.373 619.366,208.014 633.631,212.14C654.025,218.038 671.819,228.004 689.931,238.779C727.414,261.076 760.878,284.794 784.319,322.378C791.212,333.429 797.229,344.994 802.355,356.967L808.098,371.57C808.618,372.96 809.255,375.949 810.089,377.094C811.152,378.554 815.206,380.738 816.822,381.875L864.524,412.502L830.263,413.366C838.427,428.494 844.487,444.047 848.548,460.767C850.313,468.033 851.552,475.431 852.479,482.849C852.579,483.654 852.851,488.9 853.179,489.277C853.849,490.05 857.143,491.228 858.302,491.816C862.145,493.768 865.852,495.941 869.433,498.343C883.925,508.064 892.622,521.001 899.851,536.577C901.375,539.861 902.205,543.697 903.922,546.79C907.45,553.145 914.596,562.104 913.367,569.861L912.527,570.912C910.282,569.378 909.027,564.493 907.819,562.02C905.888,558.067 903.69,554.194 900.989,550.711C896.528,544.961 891.297,541.099 885.221,537.203C894.828,560.449 914.148,575.433 931.044,593.128L917.16,585.062L920.853,593.244C922.938,598.297 930.691,603.407 934.348,607.873C939.631,614.326 944.114,621.408 948.029,628.759C957.387,646.329 963.297,665.452 966.552,685.042L968.212,698.721C968.354,700.046 968.273,702.637 968.755,703.807C969.927,706.65 973.149,709.915 974.769,712.77C976.31,715.485 977.677,718.275 978.927,721.134C979.298,721.982 980.005,724.464 980.588,725.063C981.813,726.323 985.675,727.576 987.363,728.594C990.041,730.208 992.399,732.543 994.537,734.801C1001.52,742.177 1005.87,751.811 1009.03,761.353C1016.54,784.065 1017.66,807.595 1016.81,831.285L995.156,831.089C992.521,843.271 987.849,854.03 978.391,862.494C975.572,865.017 972.204,867.013 969.533,869.654L974.055,874.031C978.27,877.948 980.34,883.122 985.282,886.158C989.053,888.474 993.705,892.379 996.299,895.887C980.801,888.636 966.37,882.974 949.017,882.397C946.517,896.484 940.221,907.453 928.244,915.798C917.546,923.252 903.88,926.582 890.997,927.644C889.69,942.794 890.584,954.249 899.312,967.227C887.583,962.455 880.513,955.133 875.606,943.54C874.334,946.109 873.821,949.026 872.73,951.683C871.497,954.682 869.406,957.344 868.398,960.425C867.577,962.935 867.299,965.574 866.324,968.055C859.921,984.342 844.35,994.841 828.332,1000.32C808.75,1007.02 783.375,1005.56 763.097,1002.2C769.356,1000.69 777.159,1001.42 783.659,1000.73C776.333,993.174 767.565,985.068 762.232,975.971C758.785,975.738 753.864,974.78 750.556,975.45C746.637,981.816 742.336,986.844 736.944,991.997L748.663,1000.61L739.968,998.79C740.55,1004.55 656.056,1054.05 573.854,1046.8C532.296,1043.13 533.263,1041.25 491.299,1035.31C447.767,1029.14 380.977,1037.41 348.703,1025.39C318.219,1014.04 314.502,992.419 312.548,988.873C311.961,987.808 312.113,987.851 310.879,987.501C309.285,989.74 307.652,992.081 305.666,993.996C296.355,1002.97 282.599,998.536 271.575,996.909C268.221,996.414 264.821,996.387 261.437,996.309L269.533,1006.44C261.447,1001.78 255.341,996.408 249.183,989.443C248.268,988.408 244.911,983.841 243.613,983.918C241.934,984.016 239.204,985.432 237.443,985.89C232.284,987.233 226.46,987.096 221.17,986.679L229.294,983.207C229.486,981.665 230.528,977.347 229.977,976.09C229.053,973.987 226.356,971.93 224.904,970.059C222.636,967.136 220.77,963.798 219.231,960.442C217.501,956.67 216.009,952.63 214.87,948.638C214.323,946.719 213.642,940.662 212.717,939.42C211.238,937.433 205.281,934.69 202.988,933.041C199.023,930.191 195.282,927.026 191.915,923.485C189.111,920.535 186.737,917.003 184.874,913.391C184.192,912.069 182.927,907.976 182.002,907.13C180.983,906.198 176.559,905.316 175.027,904.66C162.75,899.406 153.764,891.381 147.561,879.606C143.917,881.258 140.083,882.282 136.248,883.386L138.022,897.468C135.247,890.976 133.508,883.9 131.256,877.2C127.154,864.995 122.375,854.994 121.57,841.935L113.993,843.39C106.788,844.35 100.19,842.891 93.264,841.032C91.238,840.489 88.404,839.999 86.784,838.593C85.295,837.301 84.604,836.099 84.553,834.192L87.033,833.266C88.161,833.553 89.341,833.98 90.506,833.719C91.108,833.583 90.999,833.552 91.348,833.06C97.633,824.198 100.855,816.173 101.634,805.294C101.715,804.156 102.249,801.268 101.949,800.268C101.516,798.821 97.715,795.148 96.593,793.632C90.453,785.332 86.561,776.048 84.923,765.87C82.436,750.415 87.95,734.072 96.982,721.65C96.754,716.925 96.494,712.004 97.452,707.344C97.729,705.999 99.521,701.725 99.333,700.708C99.222,700.112 98.82,699.609 98.563,699.059Z" style="fill:rgb(43,43,43);fill-rule:nonzero;stroke:black;stroke-width:7.43px;"/>
        </g>
        <g transform="matrix(0.0740741,0,0,0.0740741,0,0)">
            <path d="M95.315,583.608C98.145,584.598 99.88,585.538 102.192,587.496C98.31,589.263 94.973,591.27 91.498,593.739C91.14,591.568 94.188,585.73 95.315,583.608Z" style="fill:rgb(3,3,3);fill-rule:nonzero;"/>
        </g>
        <g transform="matrix(0.0740741,0,0,0.0740741,0,0)">
            <path d="M106.607,719.048L107.385,719.824C107.459,723.944 108.072,728.856 107.143,732.857L105.435,731.281L100.347,724.563C102.272,722.54 104.457,720.822 106.607,719.048Z" style="fill:rgb(3,3,3);fill-rule:nonzero;"/>
        </g>
        <g transform="matrix(0.0740741,0,0,0.0740741,0,0)">
            <path d="M675.137,510.229C678.646,509.742 682.261,510.073 685.789,510.207C688.524,511.768 697.572,514.838 699.401,517.355C708.075,529.29 708.477,550.451 705.845,565.235L705.68,566.042C705.456,567.177 705.107,567.783 704.272,568.635C698.112,574.928 690.464,581.091 682.63,585.079C679.655,586.594 677.192,587.946 673.75,587.911C669.77,586.269 656.749,584.62 653.218,582.126C643.362,575.163 642.919,564.552 641.062,552.226C639.861,544.246 640.641,530.802 645.701,524.184C651.874,516.112 665.426,511.679 675.137,510.229Z" style="fill:rgb(3,3,3);fill-rule:nonzero;"/>
        </g>
        <g transform="matrix(0.0740741,0,0,0.0740741,0,0)">
            <path d="M641.138,527.653C642.984,529.249 641.611,531.998 641.213,534.34C639.635,543.637 640.055,552.674 641.469,561.951L640.744,562.615C638.596,557.895 637.337,553.54 637.047,548.347C636.759,543.189 637.577,531.589 641.138,527.653Z" style="fill:rgb(247,247,247);fill-rule:nonzero;"/>
        </g>
        <g transform="matrix(0.0740741,0,0,0.0740741,0,0)">
            <path d="M235.519,960.145C236.017,960.6 236.316,960.835 236.734,961.414C238.96,964.498 239.331,975.405 238.383,979.141C238.134,980.124 236.147,981.046 235.284,981.619C234.069,981.694 233.828,981.765 232.778,981.189C232.699,976.48 231.948,970.593 232.735,966.011C233.054,964.153 234.625,961.82 235.519,960.145Z" style="fill:rgb(87,86,87);fill-rule:nonzero;"/>
        </g>
        <g transform="matrix(0.0740741,0,0,0.0740741,0,0)">
            <path d="M703.433,550.366L708.941,561.324C705.3,566.879 701.499,571.091 696.255,575.185C695.156,575.888 694.451,576.269 693.152,576.453C698.586,567.665 701.792,560.684 703.433,550.366Z" style="fill:rgb(247,247,247);fill-rule:nonzero;"/>
        </g>
        <g transform="matrix(0.0740741,0,0,0.0740741,0,0)">
            <path d="M654.155,527.099L655.926,527.673C658.478,532.084 659.376,537.512 658.438,542.525C657.862,545.609 656.878,547.003 654.251,548.681C653.222,548.439 652.049,548.386 651.276,547.634C649.616,546.021 649.468,543.611 649.403,541.444C649.217,535.265 649.9,531.694 654.155,527.099Z" style="fill:rgb(247,247,247);fill-rule:nonzero;"/>
        </g>
        <g transform="matrix(0.0740741,0,0,0.0740741,0,0)">
            <path d="M964.436,872.04L964.371,872.266C966.167,874.774 969.961,877.246 972.29,879.485L960.549,877.121C958.245,876.761 955.352,876.823 953.222,875.862C949.762,874.302 946.423,871.324 943.407,869.045C950.939,867.239 958.437,867.451 966.116,867.578L966.923,868.55L964.436,872.04Z" style="fill:rgb(87,86,87);fill-rule:nonzero;"/>
        </g>
        <g transform="matrix(0.0740741,0,0,0.0740741,0,0)">
            <path d="M341.338,519.196C340.676,535.211 341.745,547.708 352.033,560.745C354.635,564.041 357.896,566.732 360.456,570.04L358.296,569.672C348.744,563.812 342.555,555.577 335.87,546.829C334.866,537.257 337.589,527.842 341.338,519.196Z" style="fill:rgb(247,247,247);fill-rule:nonzero;"/>
        </g>
        <g transform="matrix(0.0740741,0,0,0.0740741,0,0)">
            <path d="M108.448,798.758L109.006,799.415C111.081,802.565 110.368,811.535 109.898,815.372C109.296,820.287 106.947,834.75 103.187,837.656L97.723,836.491L95.275,835.663C95.822,832.753 98.62,829.133 99.89,826.289C102.86,819.638 103.92,812.359 104.741,805.188C105.069,802.319 106.612,800.859 108.448,798.758Z" style="fill:rgb(87,86,87);fill-rule:nonzero;"/>
        </g>
        <g transform="matrix(0.0740741,0,0,0.0740741,0,0)">
            <path d="M403.879,498.457C415.202,506.154 421.719,514.347 425.963,527.453C424.711,531.362 422.639,534.905 420.688,538.497L416.414,544.865C415.697,527.992 411.575,513.454 403.879,498.457Z" style="fill:rgb(247,247,247);fill-rule:nonzero;"/>
        </g>
        <g transform="matrix(0.0740741,0,0,0.0740741,0,0)">
            <path d="M671.301,524.851C674.931,526 680.089,531.32 683.132,533.955C686.625,536.981 693.3,542.306 693.577,547.16C694.003,554.604 687.628,563.729 682.935,569.079L682.094,568.939C680.77,568.463 680.432,567.618 680.115,566.351C679.034,562.036 685.86,554.242 687.978,550.264C685.324,547.266 682.341,544.338 679.281,541.742C676.79,539.628 670.849,535.868 669.778,532.773C668.789,529.914 670.093,527.427 671.301,524.851Z" style="fill:rgb(87,86,87);fill-rule:nonzero;"/>
        </g>
        <g transform="matrix(0.0740741,0,0,0.0740741,0,0)">
            <path d="M150.966,870.426C162.298,873.63 169.648,878.616 177.091,887.843L177.409,888.245L179.588,887.585L180.298,888.245C179.993,892.061 179.517,892.717 176.958,895.567L173.593,899.978L157.058,886.469C151.739,881.229 151.022,877.757 150.966,870.426Z" style="fill:rgb(87,86,87);fill-rule:nonzero;"/>
        </g>
        <g transform="matrix(0.0740741,0,0,0.0740741,0,0)">
            <path d="M655.917,736.502C663.984,736.238 672.441,738.535 679.451,742.526C685.478,745.958 689.947,752.07 691.827,758.716L690.209,760.019C688.225,760.41 685.757,760.894 683.736,760.616C672.837,759.118 661.51,745.126 654.783,737.292L655.917,736.502Z" style="fill:rgb(87,86,87);fill-rule:nonzero;"/>
        </g>
        <g transform="matrix(0.0740741,0,0,0.0740741,0,0)">
            <path d="M683.802,430.614C687.027,430.431 690.346,431.104 693.541,431.529C687.142,442.306 680.356,453.261 667.526,456.754C663.892,457.272 660.23,457.016 656.575,456.888C658.241,452.234 660.429,448.445 663.203,444.349C668.516,436.504 674.538,432.37 683.802,430.614Z" style="fill:rgb(87,86,87);fill-rule:nonzero;"/>
        </g>
        <g transform="matrix(0.0740741,0,0,0.0740741,0,0)">
            <path d="M598.175,489.987C598.889,490.063 598.457,489.939 599.28,490.759C590.658,507.458 581.873,520.022 563.386,526.029L562.647,525.849L562.256,524.707C564.214,518.262 567.256,511.68 571.361,506.312C578.462,497.024 586.503,491.583 598.175,489.987Z" style="fill:rgb(3,3,3);fill-rule:nonzero;"/>
        </g>
        <g transform="matrix(0.0740741,0,0,0.0740741,0,0)">
            <path d="M666.976,427.234L668.001,427.478C668.025,428.006 668.068,428.226 667.906,428.796C667.013,431.936 664.689,435.623 663.211,438.59C658.464,448.118 652.369,458.108 643.609,464.448C639.886,467.143 635.519,469.082 631.45,471.205L630.745,471.057L630.519,470.093C629.332,464.197 635.835,452.59 639.062,447.604C646.135,436.676 654.183,430.011 666.976,427.234Z" style="fill:rgb(87,86,87);fill-rule:nonzero;"/>
        </g>
        <g transform="matrix(0.0740741,0,0,0.0740741,0,0)">
            <path d="M417.962,300.103C423.883,301.002 429.622,302.614 435.165,304.876C454.042,312.582 467.27,326.46 475.172,345.063C468.281,340.536 460.905,337.009 453.956,332.614C440.128,323.868 428.799,312.225 417.962,300.103Z" style="fill:rgb(87,86,87);fill-rule:nonzero;"/>
        </g>
        <g transform="matrix(0.0740741,0,0,0.0740741,0,0)">
            <path d="M737.255,728.541L740.44,729.122C748.154,730.677 755.419,733.379 762.681,736.368C781.575,744.144 794.656,752.816 805.998,770.147C778.158,769.121 757.266,745.426 737.255,728.541Z" style="fill:rgb(87,86,87);fill-rule:nonzero;"/>
        </g>
        <g transform="matrix(0.0740741,0,0,0.0740741,0,0)">
            <path d="M255.319,873.044C258.05,871.757 259.46,871.267 262.538,871.844L263.932,872.344C264.794,872.511 265.728,872.692 266.519,873.083C274.563,877.063 279.192,896.334 281.084,904.204L284.505,923.666C283.743,922.78 283.651,922.403 283.298,921.333C282.98,920.367 282.513,919.478 282.065,918.567L280.94,918.567C279.619,922.219 281.457,926.932 282.542,930.501C267.557,915.724 255.725,896.15 255.029,874.512L255.319,873.044Z" style="fill:rgb(3,3,3);fill-rule:nonzero;"/>
        </g>
        <g transform="matrix(0.0740741,0,0,0.0740741,0,0)">
            <path d="M508.184,352.641C502.548,343.797 497.219,334.501 490.467,326.452C481.171,315.369 468.111,305.924 456.722,297.04C475.108,299.052 491.866,303.023 504.155,318.063C513.691,329.735 517.969,347.003 516.117,361.866L515.881,363.154L508.184,352.641Z" style="fill:rgb(87,86,87);fill-rule:nonzero;"/>
        </g>
        <g transform="matrix(0.0740741,0,0,0.0740741,0,0)">
            <path d="M377.49,808.591C382.445,806.948 386.707,806.533 391.91,806.841C388.787,821.201 383.407,836.242 370.485,844.718C363.549,849.268 354.475,850.964 346.36,849.231C338.01,847.449 330.919,843.414 324.005,838.542C332.928,835.337 342.27,832.243 350.582,827.641C357.046,824.061 363.975,818.13 369.372,813.074L377.49,808.591Z" style="fill:rgb(3,3,3);fill-rule:nonzero;"/>
        </g>
        <g transform="matrix(0.0740741,0,0,0.0740741,0,0)">
            <path d="M988.767,736.155C1004.88,748.651 1009.58,772.537 1012.1,791.675L1015.24,827.579C1009.54,827.165 1001.17,827.092 995.934,824.87L995.275,820.193L994.286,819.795C991.922,822.203 991.79,829.569 990.966,833.129C982.087,827.092 975.143,819.924 967.881,812.085L1006.26,803.663C1003.59,792.611 999.223,782.537 996.007,771.732C992.534,760.058 990.77,748.134 988.767,736.155Z" style="fill:rgb(87,86,87);fill-rule:nonzero;"/>
        </g>
        <g transform="matrix(0.0740741,0,0,0.0740741,0,0)">
            <path d="M768.249,796.112C775.063,795.652 780.182,797.349 785.704,801.254C811.065,819.184 819.584,844.037 824.65,873.405C819.432,871.531 814.266,869.554 809.783,866.208C798.237,857.59 792.066,844.159 786.392,831.366C780.922,819.033 776.017,807.229 768.249,796.112Z" style="fill:rgb(87,86,87);fill-rule:nonzero;"/>
        </g>
        <g transform="matrix(0.0740741,0,0,0.0740741,0,0)">
            <path d="M262.538,871.844C265.546,842.172 275.84,810.933 299.658,791.248C301.2,789.973 303.731,787.912 305.795,787.956L306.336,788.049C306.078,791.556 303.175,796.799 301.929,800.273L296.203,818.616C295.284,821.861 295.725,824.19 295.04,827.456C290.611,848.569 288.323,868.683 276.015,887.056C275.742,876.7 276.982,867.497 279.631,857.538C274.826,863.211 270.126,868.12 263.932,872.344L262.538,871.844Z" style="fill:rgb(87,86,87);fill-rule:nonzero;"/>
        </g>
        <g transform="matrix(0.0740741,0,0,0.0740741,0,0)">
            <path d="M481.061,741.14C487.971,739.979 494.518,741.451 501.081,743.468C496.48,745.834 491.178,746.563 486.465,749.238C480.166,752.814 474.285,757.105 468.198,761.023C450.139,772.646 432.183,783.744 410.926,788.217C404.291,789.469 397.969,789.63 391.264,789.361C402.296,775.747 415.661,763.763 431.538,756.075C439.559,752.191 447.701,749.803 456.221,747.31C464.519,744.882 472.478,742.391 481.061,741.14Z" style="fill:rgb(87,86,87);fill-rule:nonzero;"/>
        </g>
        <g transform="matrix(0.0740741,0,0,0.0740741,0,0)">
            <path d="M430.226,586.258C434.036,585.756 438.621,586.735 442.395,587.371C439.872,596.008 435.885,603.889 430.42,611.035C427.343,615.06 423.455,619.305 419.157,622.016C402.054,632.804 380.787,637.78 360.848,633.334C355.17,631.89 349.849,629.641 344.49,627.304C355.38,623.657 365.642,620.432 375.824,614.984C383.673,610.785 391.234,606.044 398.671,601.159C409.264,594.2 417.216,587.62 430.226,586.258Z" style="fill:rgb(3,3,3);fill-rule:nonzero;"/>
        </g>
        <g transform="matrix(0.0740741,0,0,0.0740741,0,0)">
            <path d="M321.483,956.752C310.578,938.33 303.051,917.135 303.687,895.52C304.051,883.169 307.237,866.519 316.864,857.857C319.02,855.917 320.59,855.155 323.392,855.294C327.251,858.638 327.416,863.302 328.464,868.124C323.131,890.001 320.464,910.557 326.664,932.659C327.696,936.338 328.57,940.743 330.483,944.066C331.086,945.111 331.063,945.242 332.265,945.593C333.847,942.564 327.319,918.691 326.769,913.348C325.9,904.891 325.764,895.609 327.324,887.246C327.809,884.65 328.079,881.477 329.462,879.2L330.192,879.817C331.284,899.78 336.211,920.219 339.625,939.894C340.481,944.822 340.608,952.542 342.502,956.967L347.065,990.941C337.163,980.669 328.772,968.984 321.483,956.752Z" style="fill:rgb(87,86,87);fill-rule:nonzero;"/>
        </g>
        <g transform="matrix(0.0740741,0,0,0.0740741,0,0)">
            <path d="M888.571,890.915C890.588,892.236 891.344,895.351 892.418,897.514C896.326,905.384 899.327,912.352 901.604,920.91L892.926,923.469C893.759,920.323 895.248,917.227 894.573,913.953L893.407,913.523C892.885,913.828 892.679,913.897 892.256,914.437C891.345,915.601 890.689,917.733 890.084,919.13C885.424,929.871 886.84,942.782 888.421,954.083C880.896,947.78 875.527,937.055 877.522,927.066C878.189,923.725 880.915,918.843 879.89,915.641L878.578,915.271C872.892,920.691 873.585,934.894 871.96,942.308C868.612,957.58 857.067,961.582 845.226,969.262C852.406,968.917 857.275,968.28 863.673,964.87C860.868,970.006 858.252,973.934 854.199,978.2C842.242,989.431 825.522,996.624 809.291,998.601C804.696,999.16 800.005,999.599 795.377,999.739C794.376,999.77 792.109,1000.07 791.209,999.791C790.587,999.598 789.29,998.278 788.712,997.823L788.789,996.916C804.393,989.024 817.663,981.976 829.775,969C847.66,949.84 854.84,920.82 880.088,909.035L880.673,909.117C881.548,907.37 881.722,904.685 882.195,902.747C883.373,897.914 885.236,894.568 888.571,890.915Z" style="fill:rgb(3,3,3);fill-rule:nonzero;"/>
        </g>
        <g transform="matrix(0.0740741,0,0,0.0740741,0,0)">
            <path d="M554.251,461.999C562.309,454.713 569.484,450.11 580.229,447.733C589.455,445.692 599.434,446.248 608.815,446.32C598.052,454.26 585.668,459.67 575.095,467.96C567.257,474.106 561.157,482.224 555.834,490.552C554.311,492.935 550.658,496.803 550.001,499.31C549.705,500.442 550.359,502.686 550.534,503.896C551.209,508.569 552.221,515.686 548.242,519.145C546.371,520.771 544.417,521.158 541.978,520.974L541.237,520.887C532.632,519.491 525.147,506.065 519.671,500.034C515.118,495.02 510.178,490.198 504.679,486.228C493.847,478.406 481.22,475.361 468.903,470.785C483.197,463.663 498.789,458.285 514.7,463.676C521.917,466.121 527.94,470.67 533.714,475.517C535.438,476.964 540.289,482.861 541.822,482.849L543.28,479.12C546.393,472.543 549.633,467.586 554.251,461.999Z" style="fill:rgb(87,86,87);fill-rule:nonzero;"/>
        </g>
        <g transform="matrix(0.0740741,0,0,0.0740741,0,0)">
            <path d="M380.442,493.943C383.951,493.456 387.566,493.787 391.094,493.921C393.829,495.482 395.96,498.098 397.789,500.615C406.463,512.55 413.782,534.165 411.15,548.949L410.985,549.756C410.761,550.891 410.412,551.497 409.577,552.349C403.417,558.642 395.769,564.805 387.935,568.793C384.96,570.308 382.497,571.66 379.055,571.625C375.075,569.983 371.114,568.182 367.583,565.688C357.727,558.725 348.224,548.266 346.367,535.94C345.166,527.96 345.946,514.516 351.006,507.898C357.179,499.826 370.731,495.393 380.442,493.943Z" style="fill:rgb(3,3,3);fill-rule:nonzero;"/>
        </g>
        <g transform="matrix(0.0740741,0,0,0.0740741,0,0)">
            <path d="M387.211,507.294C389.341,507.792 390.828,508.272 392.42,509.882C394.947,512.438 395.755,515.302 395.79,518.819C395.832,523.027 394.319,525.736 391.415,528.638C388.91,528.68 387.305,527.862 385.554,526.084C382.861,523.35 382.927,519.338 383.003,515.705C383.087,511.634 384.357,509.985 387.211,507.294Z" style="fill:rgb(247,247,247);fill-rule:nonzero;"/>
        </g>
        <g transform="matrix(0.0740741,0,0,0.0740741,0,0)">
            <path d="M357.296,505.761C358.065,506.006 358.757,506.455 359.465,506.84C359.873,507.998 360.201,509.267 361.058,510.176C361.657,510.81 362.934,512.015 363.214,512.842C364.245,515.884 362.161,519.658 361.39,522.585C360.684,525.265 360.506,527.867 360.634,530.632C360.903,536.453 363.774,541.217 368.06,545.016C373.484,549.824 382.008,551.22 388.691,548.368C391.474,547.18 394.203,544.677 397.253,544.508C397.954,545.633 398.568,546.631 399.56,547.535C402.375,546.121 404.501,543.807 407.473,542.716C408.313,543.493 408.909,544.08 409.225,545.211C410.024,548.069 408.858,550.236 407.391,552.614L401.919,557.436C396.544,561.452 390.037,563.005 383.434,561.884L382.418,561.707C376.587,560.732 369.02,558.268 363.971,555.119C357.879,551.319 353.285,543.154 351.858,536.264C349.796,526.315 351.683,514.277 357.296,505.761Z" style="fill:rgb(87,86,87);fill-rule:nonzero;"/>
        </g>
        <g transform="matrix(0.0740741,0,0,0.0740741,0,0)">
            <path d="M625.88,508.949C623.475,507.477 621.761,505.98 619.863,503.897C618.689,502.609 618.384,502.243 618.511,500.43C619.093,492.129 623.41,481.826 629.912,476.399C641.164,467.009 659.685,467.4 673.484,468.877C694.618,471.138 716.675,473.388 730.79,491.255C745.067,509.325 745.374,533.176 742.75,554.907C741.271,551.928 740.515,548.399 739.377,545.257C735.905,535.674 731.694,526.461 723.434,520.035C716.66,514.765 708.358,512.403 700.152,510.436C687.517,507.409 673.82,505.408 660.811,505.909C654.366,506.157 648.483,507.498 642.158,508.377C645.268,506.231 651.138,503.888 652.773,500.647C653.16,498.181 653.092,496.674 652.241,494.32L650.769,493.153C642.151,497.142 633.477,503.307 625.88,508.949Z" style="fill:rgb(3,3,3);fill-rule:nonzero;"/>
        </g>
        <g transform="matrix(0.0740741,0,0,0.0740741,0,0)">
            <path d="M502.946,567.167C508.713,566.377 515.575,566.999 521.25,568.159C536.263,571.228 546.543,577.022 555.041,589.924L558.865,585.37C565.558,578.396 576.885,575.522 586.225,575.317C611.392,574.764 628.087,583.378 646.06,600.574C633.815,598.933 621.396,597.762 609.082,599.255C603.939,600.178 598.859,600.945 593.792,602.281C583.185,605.078 572.539,609.093 561.439,607.253L560.524,607.097C558.913,608.977 557.39,611.308 555.533,612.919C552.382,615.653 547.813,617.482 543.616,616.543C538.608,615.423 532.796,611.281 528.293,608.782C509.445,598.321 488.822,585.805 466.921,584.352C470.831,580.158 474.443,576.512 479.516,573.762C486.98,569.716 494.531,567.926 502.946,567.167Z" style="fill:rgb(3,3,3);fill-rule:nonzero;"/>
        </g>
        <g transform="matrix(0.0740741,0,0,0.0740741,0,0)">
            <path d="M330.222,279.932L334.532,280.391C357.752,283.549 378.989,289.75 400.131,299.952C410.769,305.085 421.909,311.283 429.097,320.945C436.84,331.354 439.759,347.964 437.912,360.648C437.414,364.063 436.603,366.402 434.78,369.326L433.445,370.374C429.512,373.291 424.178,373.534 419.468,372.827C410.151,371.428 403.39,362.279 396.979,356.215C385.979,345.808 375.214,335.47 365.171,324.115C352.736,310.056 341.47,294.941 330.222,279.932Z" style="fill:rgb(87,86,87);fill-rule:nonzero;"/>
        </g>
        <g transform="matrix(0.0740741,0,0,0.0740741,0,0)">
            <path d="M284.411,489.331C293.351,486.889 301.806,484.27 309.695,479.218C316.914,474.595 323.145,469.264 330.883,465.335C327.718,463.979 324.65,463.148 321.293,462.393C325.29,460.432 329.431,458.909 333.322,456.706C338.955,453.517 343.797,449.47 348.56,445.127L354.503,446.99C369.188,451.318 379.388,448.436 392.446,441.253C399.354,445.555 404.075,450.733 411.932,453.522L418.195,460.005C410.923,465.807 403.508,471.139 394.603,474.166C384.592,477.57 374.042,477.181 363.626,477.616C353.952,478.021 344.719,479.081 335.321,481.531C337.583,482.417 339.729,482.507 341.506,484.167C340.243,487.45 333.035,498.441 330.245,499.764L328.022,500.225C325.829,505.786 323.982,510.942 320.785,516.063L291.105,551.562C288.041,555.743 287.326,566.408 286.092,571.865L284.371,563.539C280.654,572.911 278.336,582.288 276.909,592.273C276.155,597.546 276.335,604.6 274.465,609.427C272.711,605.926 271.996,600.333 271.347,596.445C268.231,577.762 268.294,559.878 273.37,541.516C275.032,535.502 278.612,529.888 280.06,524.048C280.984,520.321 280.476,514.963 280.713,511.012C281.155,503.632 282.469,496.461 284.411,489.331Z" style="fill:rgb(3,3,3);fill-rule:nonzero;"/>
        </g>
        <g transform="matrix(0.0740741,0,0,0.0740741,0,0)">
            <path d="M284.411,489.331C272.007,491.887 255.471,493.364 243.027,490.859C262.861,480.916 281.752,471.678 302.975,464.985C283.301,463.523 264.314,458.862 245.981,451.517C248.144,450.007 257.958,449.767 260.928,449.463L298.355,445.856C311.51,444.098 324.173,441.265 337.468,440.165L320.769,429.752L319.986,429.192C312.495,424.056 302.938,426.242 294.809,427.818L300.4,423.297C284.426,416.622 271.287,408.181 258.338,396.663C279.214,389.59 301.716,389.703 322.864,395.453C326.612,396.472 330.333,397.712 333.957,399.105C335.066,399.531 337.493,400.887 338.586,400.934C340.385,401.01 344.37,399.1 346.358,398.623C365.577,394.007 384.96,400.954 401.29,410.832C417.062,420.373 421.702,432.938 425.963,450.154C420.816,453.265 417.94,453.659 411.932,453.522C404.075,450.733 399.354,445.555 392.446,441.253C379.388,448.436 369.188,451.318 354.503,446.99L348.56,445.127C343.797,449.47 338.955,453.517 333.322,456.706C329.431,458.909 325.29,460.432 321.293,462.393C324.65,463.148 327.718,463.979 330.883,465.335C323.145,469.264 316.914,474.595 309.695,479.218C301.806,484.27 293.351,486.889 284.411,489.331Z" style="fill:rgb(87,86,87);fill-rule:nonzero;"/>
        </g>
        <g transform="matrix(0.0740741,0,0,0.0740741,0,0)">
            <path d="M477.905,801.356C491.754,797.996 503.991,792.48 518.571,794.807L519.623,794.958C524.63,795.699 529.577,797.903 534.216,799.869L558.128,811.132C562.378,813.327 566.565,816.606 571.319,817.365C572.19,817.504 574.311,818.155 575.104,817.995C578.318,817.349 583.436,813.499 586.564,811.964C595.108,807.771 605.511,802.698 615.116,801.654C624.583,800.625 633.949,802.736 642.98,805.381C646.208,807.299 648.229,811.49 650.325,814.566C657.855,825.619 664.075,836.135 669.146,848.553L657.196,848.458L655.114,848.485C649.186,847.271 643.434,847.907 637.551,849.091C632.578,844.272 629.022,841.521 621.772,841.645C612.048,841.812 603.045,847.845 595.436,853.414L593.183,855.729L583.202,859.767C578.828,861.895 572.983,865.831 568.056,865.64C564.414,865.499 560.252,863.602 556.796,862.409L553.683,861.328L544.174,857.794C543.125,855.899 542.472,853.818 541.737,851.787C540.441,849.651 538.509,847.592 536.484,846.116C526.871,839.11 512.004,835.971 500.398,838.012C492.672,839.371 487.813,842.498 483.265,848.821L466.983,849.316L455.657,851.052C453.817,851.171 451.58,851.602 449.938,850.671C448.653,840.383 455.13,829.316 460.332,820.928C463.602,815.656 471.919,802.755 477.905,801.356Z" style="fill:rgb(87,86,87);fill-rule:nonzero;"/>
        </g>
        <g transform="matrix(0.0740741,0,0,0.0740741,0,0)">
            <path d="M541.737,851.787C542.236,847.369 542.749,840.827 546.547,837.755C547.534,836.957 548.547,836.432 549.786,836.691C553.392,837.447 557.087,840.069 560.685,841.316C563.196,842.187 569.341,844.605 571.932,844.08C578.207,842.809 585.287,837.648 591.484,835.383C593.908,834.497 594.474,834.974 596.374,836.394C598.467,840.345 598.122,845.479 596.835,849.661L595.436,853.414L593.183,855.729L583.202,859.767C578.828,861.895 572.983,865.831 568.056,865.64C564.414,865.499 560.252,863.602 556.796,862.409L553.683,861.328L544.174,857.794C543.125,855.899 542.472,853.818 541.737,851.787Z" style="fill:rgb(169,168,168);fill-rule:nonzero;"/>
        </g>
        <g transform="matrix(0.0740741,0,0,0.0740741,0,0)">
            <path d="M515.881,363.154L516.835,362.549L517.018,353.848L526.42,357.647C528.947,346.272 534.905,337.053 544.766,330.658C552.648,325.546 562.401,323.047 571.757,323.746C574.993,323.988 578.124,324.956 581.387,324.993C589.558,325.085 599.098,324.787 607.049,326.8C615.507,328.941 623.202,335.594 627.438,343.103C631.935,351.075 633.06,359.546 633.887,368.489C632.235,367.929 629.587,366.549 627.952,366.999L638.874,392.112L628.119,381.052C615.707,385.776 604.089,391.535 592.103,397.185C586.474,399.838 580.137,401.898 575.298,405.894C570.23,410.079 566.643,415.753 563.968,421.693C558.9,432.945 556.842,445.083 551.682,456.411L554.251,461.999C549.633,467.586 546.393,472.543 543.28,479.12C534.364,474.542 527.895,467.752 520.206,461.498C502.404,447.019 483.072,437.069 460.915,431.209C468.478,426.723 477.438,424.124 486.174,423.327C505.755,421.54 524.134,427.397 539.132,439.985C539.461,433.486 540.054,424.007 536.639,418.25C524.545,397.863 494.254,393.642 473.589,387.647L490.44,379.746C482.258,379.594 473.16,380.078 465.665,383.696C459.033,386.899 452.749,392.655 446.912,397.198C451.067,389.117 455.071,380.702 460.493,373.375C469.045,361.819 481.837,355.288 495.824,353.079C499.91,352.433 504.057,352.612 508.184,352.641L515.881,363.154Z" style="fill:rgb(3,3,3);fill-rule:nonzero;"/>
        </g>
        <g transform="matrix(0.0740741,0,0,0.0740741,0,0)">
            <path d="M483.265,848.821C487.813,842.498 492.672,839.371 500.398,838.012C512.004,835.971 526.871,839.11 536.484,846.116C538.509,847.592 540.441,849.651 541.737,851.787C542.472,853.818 543.125,855.899 544.174,857.794L553.683,861.328L556.796,862.409C560.252,863.602 564.414,865.499 568.056,865.64C572.983,865.831 578.828,861.895 583.202,859.767L593.183,855.729L595.436,853.414C603.045,847.845 612.048,841.812 621.772,841.645C629.022,841.521 632.578,844.272 637.551,849.091C643.434,847.907 649.186,847.271 655.114,848.485L657.196,848.458L657.988,848.567L669.214,849.108C672.881,863.968 671.754,875.932 663.693,889.095C660.501,894.308 656.457,899.139 652.098,903.412C649.771,905.693 646.645,908.033 644.789,910.65C643.875,911.938 643.432,913.529 643.853,915.065L644.114,915.93C639.594,922.459 628.557,927.923 620.869,929.259C604.449,932.114 589.465,924.479 573.403,922.826C574.38,913.098 576.126,902.617 575.638,892.861C575.372,887.539 574.047,882.045 573.47,876.709L572.308,875.424C571.053,876.326 570.8,876.399 570.619,878.046C570.137,882.435 571.462,887.732 571.534,892.249C571.699,902.524 571.034,912.851 570.26,923.094C546.777,932.965 520.265,927.374 497.51,918.147C493.036,916.332 490.518,913.634 486.923,910.62C484.012,908.179 480.911,906.152 478.173,903.467C468.649,894.127 460.771,882.427 455.663,870.14C453.312,864.486 451.469,858.664 450.308,852.649C451.408,851.325 453.935,851.339 455.657,851.052L466.983,849.316L483.265,848.821Z" style="fill:rgb(3,3,3);fill-rule:nonzero;"/>
        </g>
        <g transform="matrix(0.0740741,0,0,0.0740741,0,0)">
            <path d="M544.174,857.794L553.683,861.328C550.059,865.222 546.548,868.889 540.992,869.584C543.278,865.642 543.822,862.231 544.174,857.794Z" style="fill:rgb(43,43,43);fill-rule:nonzero;"/>
        </g>
        <g transform="matrix(0.0740741,0,0,0.0740741,0,0)">
            <path d="M637.426,867.369C638.63,870.388 637.712,872.606 636.459,875.563C633.777,880.032 629.208,887.541 623.748,889.028C623.182,889.182 622.409,889.109 621.842,889.088C622.974,883.948 629.196,881.081 632.386,876.741C634.383,874.025 635.319,870.753 637.102,867.88L637.426,867.369Z" style="fill:rgb(247,247,247);fill-rule:nonzero;"/>
        </g>
        <g transform="matrix(0.0740741,0,0,0.0740741,0,0)">
            <path d="M466.983,849.316L483.265,848.821C481.097,852.927 478.609,856.316 478.519,861.099C475.301,860.516 470.113,852.619 467.617,849.98L466.983,849.316Z" style="fill:rgb(43,43,43);fill-rule:nonzero;"/>
        </g>
        <g transform="matrix(0.0740741,0,0,0.0740741,0,0)">
            <path d="M583.202,859.767L593.183,855.729C592.018,857.883 589.788,861.773 589.644,864.215C589.506,866.539 590.774,871.044 591.488,873.383C592.724,877.434 595.736,880.513 598.505,883.592C596.981,883.313 595.988,882.947 594.704,882.051C586.524,876.342 584.878,869.004 583.202,859.767Z" style="fill:rgb(43,43,43);fill-rule:nonzero;"/>
        </g>
        <g transform="matrix(0.0740741,0,0,0.0740741,0,0)">
            <path d="M489.629,878.464L492.289,876.97C499.296,881.927 507.646,884.86 516.315,883.376L523.564,881.402C523.976,882.372 524.061,883.249 524.228,884.29C523.645,885.567 523.643,885.947 522.298,886.523C513.72,890.198 504.404,888.518 496.162,884.845C492.874,883.379 490.948,881.912 489.629,878.464Z" style="fill:rgb(247,247,247);fill-rule:nonzero;"/>
        </g>
        <g transform="matrix(0.0740741,0,0,0.0740741,0,0)">
            <path d="M637.551,849.091C643.434,847.907 649.186,847.271 655.114,848.485C652.459,859.601 646.785,869.208 636.87,875.315L636.459,875.563C637.712,872.606 638.63,870.388 637.426,867.369L638.35,867.182C639.091,865.97 639.478,864.723 639.787,863.345C640.947,858.174 640.422,853.565 637.551,849.091Z" style="fill:rgb(43,43,43);fill-rule:nonzero;"/>
        </g>
        <g transform="matrix(0.0740741,0,0,0.0740741,0,0)">
            <path d="M834.717,643.768C841.253,651.548 846.441,658.38 849.514,668.235C852.378,670.259 855.623,671.577 858.807,673.01C858.171,666.173 855.679,658.529 853.519,651.986C848.89,637.963 843.377,625.155 836.273,612.25C839.862,614.076 843.249,617.223 846.649,619.468C854.831,624.871 863.783,629.511 872.938,633.024L859.234,602.762C864.407,605.559 869.305,610.552 874.473,613.818C868.546,580.224 862.591,548.146 845.805,517.883C848.851,520.038 851.53,523.063 854.373,525.514C858.315,528.912 862.829,531.811 866.651,535.285C871.248,539.464 875.155,544.602 879.56,549.028L880.125,548.767L879.824,545.142L880.549,544.556L884.754,546.888C889.484,552.71 892.663,559.736 897.438,565.71C901.775,571.136 908.122,575.919 911.191,582.056L915.396,591.024C912.029,589.045 908.86,587.394 904.945,586.769L903.225,587.988C903.144,589.552 902.989,590.601 904.286,591.728C907.416,594.451 913.361,596.146 917.075,598.527C930.697,607.259 943.966,624.328 948.567,639.847L957.647,681.41C938.144,663.467 921.248,642.829 906.652,620.725L909.085,632.664L888.63,613.508L909.03,715.353L903.668,708.67C904.475,712.835 905.791,716.703 907.208,720.695L894.946,713.061L924.475,816.13L879.666,754.96L892.889,826.229C887.818,820.252 883.348,813.702 878.978,807.201C876.792,803.948 874.067,798.474 871.149,796.025C871.724,807.745 873.346,819.484 872.883,831.213C871.834,857.729 859.691,887.905 841.761,907.479C840.087,909.307 834.894,913.343 834.068,915.326C833.242,917.308 834.152,923.888 834.044,926.408C833.873,930.389 833.183,934.449 832.501,938.372C828.561,961.072 809.063,990.963 784.016,993.113C778.305,987.92 772.422,981.999 767.825,975.805C771.65,975.644 779.104,976.153 782.453,974.747C784.812,973.756 790.251,967.123 792.075,965.131C803.892,952.226 814.32,934.335 820.08,917.851C821.106,914.917 821.993,911.914 822.653,908.876C823.038,907.104 823.302,904.412 824.206,902.856C825.785,900.137 828.891,897.651 830.974,895.24C834.715,890.909 838.045,886.256 840.991,881.35C849.761,866.745 855.792,849.297 859.418,832.707C860.344,828.471 860.718,824.172 861.527,819.922L864.445,807.495C866.052,799.011 866.361,790.125 865.949,781.519C864.688,755.163 855.438,727.776 835.429,709.788C831.101,705.897 828.688,701.285 825.617,696.373C825.44,689.843 825.192,683.283 825.875,676.774C826.121,674.438 826.238,671.683 827.238,669.536C831.333,667.132 834.989,665.652 839.797,666.8C843.422,667.665 846.72,670.106 849.921,671.947C843.97,664.363 838.511,656.602 833.931,648.102C832.842,646.081 831.028,643.317 831.095,641.005L834.717,643.768Z" style="fill:rgb(3,3,3);fill-rule:nonzero;"/>
        </g>
        <g transform="matrix(0.0740741,0,0,0.0740741,0,0)">
            <path d="M104.71,592.47L104.872,592.902C111.043,609.848 103.994,625.057 103.558,642.041C103.239,654.509 104.611,667.123 105.143,679.579L128.763,612.548C135.35,608.157 141.389,603.561 147.209,598.175L141.531,616.882C153.701,612.369 162.414,606.618 171.629,597.456L154.349,652.593C162.525,648.545 169.654,643.83 177.019,638.471L136.289,693.897L171.205,681.947L172.156,681.54C173.002,683.373 173.461,684.856 173.656,686.868L170.308,697.412C171.092,698.044 171.565,698.247 172.552,698.443C196.476,695.294 219.02,690.819 241.162,680.865L195.023,761.81L246.631,717.382L230.922,765.42C238.162,758.355 242.475,750.499 247.356,741.743C251.291,734.685 255.691,726.534 256.65,718.407C257.024,715.237 258.56,713.969 260.954,712.012C261.239,714.558 260.712,717.342 260.429,719.882C259.479,728.412 257.28,737.406 254.511,745.532C249.803,759.353 239.743,772.743 230.327,783.7C235.807,782.739 240.757,781.203 245.987,779.3C246.242,780.5 244.638,783.359 244.159,784.581C240.676,793.448 238.254,803.025 238.244,812.59C238.24,816.016 238.986,819.27 239.152,822.656C239.406,827.858 238.955,833.131 239.411,838.32C240.267,848.07 242.432,858.132 245.551,867.405L252.712,886.272C256.279,896.523 258.611,906.16 264.385,915.559C268.763,922.686 273.965,928.983 279.921,934.833C281.92,936.797 284.482,938.515 286.252,940.663C289.108,944.127 290.93,949.505 293.3,953.421C296.478,958.67 301.26,963.988 303.884,969.405C306.026,973.827 307.177,979.011 309.188,983.608L306.553,986.792C301.965,991.683 296.932,993.155 290.44,993.442C288.239,992.146 286.353,985.458 285.129,982.899L273.8,961.213L259.89,927.434C258.745,924.654 257.682,920.633 255.886,918.283L255.516,922.522C253.537,920.676 252.16,918.099 250.695,915.839L242.296,902.477C223.402,870.291 211.653,838.76 209.5,801.31L180.948,859.845L180.728,860.36C180.988,828.009 185.08,795.843 193.414,764.578C191.283,764.889 187.505,767.827 185.494,768.918C172.751,775.832 159.592,780.519 145.583,784.108L161.626,760.338C146.939,768.871 133.123,775.956 117.169,781.974L147.775,734.75C143.141,737.731 128.352,747.437 123.588,747.132L152.07,692.864C147.344,696.2 142.743,702.791 138.447,706.97C130.106,715.083 120.94,722.148 111.41,728.797L124.993,696.015C121.172,699.756 118.201,705.468 114.125,708.72C112.266,710.203 109.503,711.205 107.403,712.43C104.616,714.056 102.142,716.171 99.665,718.225C99.638,709.929 101.732,702.815 106.174,695.809C107.757,693.314 109.614,691.272 110.808,688.513C110.492,686.674 110.665,686.542 109.121,685.335C105.269,687.316 103.224,693.624 100.716,697.083C99.641,696.616 98.579,693.776 97.998,692.633C95.741,686.292 93.317,681.09 92.123,674.341C90.432,664.773 93.541,655.768 98.155,647.459C99.267,645.456 101.686,642.786 101.608,640.434C101.561,639.029 101.17,639.081 100.22,638.19C96.927,640.224 94.37,646.938 92.647,650.331C89.483,646.186 87.239,640.551 85.251,635.744C81.826,627.464 81.387,618.556 84.933,610.195C88.886,600.875 95.679,596.128 104.71,592.47Z" style="fill:rgb(3,3,3);fill-rule:nonzero;"/>
        </g>
        <g transform="matrix(0.0740741,0,0,0.0740741,0,0)">
            <path d="M171.205,681.947L172.156,681.54C173.002,683.373 173.461,684.856 173.656,686.868L170.308,697.412C171.092,698.044 171.565,698.247 172.552,698.443C171.903,698.583 170.168,698.736 169.685,699.06C168.911,699.578 166.983,704.287 166.362,705.372C159.313,717.679 148.964,728.733 135.695,734.217C141.035,728.574 164.505,706.05 164.505,699.497C163.002,699.442 162.196,699.644 160.971,698.73C163.309,695.838 168.634,692.829 169.415,689.15L171.205,681.947Z" style="fill:rgb(43,43,43);fill-rule:nonzero;"/>
        </g>
        <g transform="matrix(0.0740741,0,0,0.0740741,0,0)">
            <path d="M255.029,874.512C252.496,868.875 256.292,859.603 256.161,853.308L254.835,853.078C251.156,857.387 251.261,867.538 250.933,873.072C248.414,863.548 244.68,854.164 243.022,844.436C242.335,840.404 242.494,836.037 242.425,831.946L245.466,835.51C246.002,834.387 245.393,833.054 245.131,831.851C244.077,827.009 242.562,822.209 242.025,817.273C240.779,805.826 243.909,794.378 248.183,783.877C249.339,781.037 250.568,777.486 252.81,775.325C257.79,770.522 264.877,767.471 269.03,761.8C270.378,759.96 270.389,758.856 270,756.674L268.681,756.246C260.347,762.945 252.78,769.245 243.271,774.314C250.94,761.265 259.221,748.039 264.522,733.777L264.715,733.249C266.728,727.889 273.045,723.248 277.279,719.534C297.633,701.683 322.05,685.555 349.137,680.562C354.923,679.495 360.506,678.896 366.385,678.604C370.548,678.398 379.98,679.834 383.407,678.292C384.479,676.399 384.307,675.802 384.229,673.682L382.926,672.634C372.638,671.958 362.847,672.423 352.649,673.81C362.509,666.366 373.547,659.485 385.304,655.427C392.171,653.057 399.675,650.821 406.813,649.43C412.706,648.282 418.96,647.367 424.945,646.882L436.545,646.112C437.732,646.03 440.287,646.051 441.339,645.615C441.874,645.393 442.737,644.428 443.216,644.022C443.545,642.079 443.596,641.679 442.909,639.734C439.821,639.08 436.331,639.902 433.213,640.197L413.464,642.52C410.847,642.9 407.742,643.867 405.124,643.646C419.914,631.593 436.401,624.505 455.275,621.97C470.194,619.967 482.483,623.543 496.813,626.557L498.132,625.329C498.319,623.442 498.499,622.814 497.719,621.04C495.593,619.715 493.117,619.225 490.727,618.557C483.147,616.438 475.695,615.771 467.877,615.493C474.261,611.176 481.502,608.505 489.137,607.494C500.571,605.979 513.829,607.219 524.565,611.379C532.166,614.324 539.316,618.793 546.291,622.951C550.898,625.696 555.903,628.115 560.113,631.429L560.669,631.876C566.852,625.87 572.932,621.154 581.245,618.366C594.883,613.791 611.925,613.989 624.925,620.444C621.538,621.272 617.049,621.48 614.622,623.914C614.571,626.001 614.245,626.796 615.488,628.528C641.691,623.109 666.518,619.06 693.297,623.539C699.591,624.592 707.019,626.079 712.891,628.612C720.599,631.936 728.457,638.108 734.866,643.427C738.35,646.318 741.974,650.415 745.824,652.664C748.887,654.453 753.693,655.115 757.129,656.28C763.44,658.419 769.599,660.916 775.673,663.651C794.114,671.953 810.854,683.515 823.002,699.862L843.545,730.227C843.064,727.184 840.788,723.407 839.56,720.489C842.528,723.838 845.291,727.158 847.667,730.956C860.674,751.751 866.367,782.126 860.811,805.988C859.765,801.937 858.893,795.88 856.167,792.651L854.835,793.566C854.123,797.048 856.005,799.952 856.836,803.278C859.147,812.542 858.002,822.356 855.944,831.555C851.942,849.439 844.947,866.261 835.553,881.979C833.848,876.743 834.81,867.881 834.776,862.259C834.576,830.114 839.104,793.465 825.59,763.238L823.99,798.673L807.298,766.665C802.697,756.76 799.112,746.262 793.305,736.983C787.972,728.462 780.844,720.805 774.477,713.041L778.007,725.839C765.469,718.886 753.473,711.742 741.782,703.396C735.199,698.696 729.228,693.08 722.308,688.865C712.366,682.811 700.549,677.994 689.757,673.62C682.783,670.793 674.859,668.021 667.395,666.91C659.022,665.664 651.017,666.222 642.991,662.89C630.421,657.671 624.355,646.197 619.452,634.285C606.324,636.077 594.655,641.977 582.04,645.351C577.258,646.63 572.18,646.977 567.272,647.491C567.109,650.861 567.067,654.324 565.987,657.551C564.725,661.32 562.829,664.995 559.044,666.76C557.292,667.577 555.659,667.811 553.846,667.109C550.178,665.688 546.579,663.083 543.215,661.057L525.176,650.365C513.361,643.616 501.145,638.485 488.582,633.368L489.797,640.981C485.487,651.861 479.596,661.271 469.445,667.652C464.496,670.763 458.366,671.475 452.841,673.108L437.083,678.079L421.484,681.827C415.029,683.596 408.642,686.172 402.465,688.739C395.476,691.643 389.026,695.219 382.519,699.06C379.466,700.862 375.777,702.605 373.141,704.986C366.194,711.261 360.91,718.294 352.758,723.338C341.718,730.169 328.717,733.418 317.94,740.772L298.386,755.547C294.42,758.456 288.9,761.348 285.523,764.751C284.621,765.66 284.263,768.362 283.941,769.601L279.981,782.577C276.653,792.386 271,801.069 267.66,810.734C265.024,818.363 263.589,826.708 262.02,834.614L255.319,873.044L255.029,874.512Z" style="fill:rgb(87,86,87);fill-rule:nonzero;"/>
        </g>
        <g transform="matrix(0.0740741,0,0,0.0740741,0,0)">
            <path d="M743.354,832.599L744.19,832.325C750.005,830.45 755.448,830.126 760.983,833.086C770.681,838.27 775.595,850.261 778.512,860.272C781.132,869.262 782.013,878.256 782.086,887.58C788.665,885.519 795.326,883.079 801.959,886.405C808.527,889.698 811.251,896.136 813.428,902.703C813.713,903.56 813.851,903.677 814.846,903.406C816.593,902.929 817.381,901.486 819.231,902.105L809.73,912.967C808.168,914.728 806.008,916.61 805.076,918.769L815.127,910.808C816.152,909.958 817.751,908.208 819.004,907.946C811.692,932.187 798.364,951.548 780.633,969.426C768.154,969.65 756.02,969.56 743.62,967.927C740.603,967.53 737.59,967.1 734.637,966.352C734.124,966.222 730.486,965.039 730.22,965.14C729.713,965.333 729.409,965.861 729.003,966.222C728.685,967.945 728.27,968.667 729.31,970.26C731.515,973.636 741.557,974.208 745.568,974.618C738.421,985.039 725.678,995.983 714.302,1001.5C706.936,1005.06 698.892,1007.1 691.112,1009.54C696.643,1009.4 702.395,1009.58 707.872,1008.81C694.437,1019.35 677.366,1024.7 661.11,1029.19C630.108,1037.74 597.147,1043.17 564.913,1039.35L500.728,1026.8C506.512,1025.49 512.382,1024.86 518.233,1023.93C520.517,1023.57 523.943,1023.29 525.944,1022.14C527.002,1021.53 527.434,1020.75 528.071,1019.75C527.816,1017.8 527.871,1017.55 526.484,1016.03C522.224,1016.31 518,1017.42 513.781,1018.1L492.833,1020.82C455.375,1024.91 418.91,1026.69 381.311,1022.58C374.38,1021.82 364.821,1022 358.444,1019.62C355.04,1018.35 352.007,1016 348.923,1014.12C342.062,1009.93 335.288,1006.15 329.215,1000.81C320.715,993.325 313.558,984.567 309.41,973.938C308.332,971.178 307.54,968.308 306.763,965.451C306.602,964.858 306.383,963.154 306.058,962.732C305.522,962.034 304.172,961.435 303.364,961.084C296.835,951.539 291.767,941.797 286.731,931.419C289.437,929.241 291.949,927.045 295.69,927.561C298.959,928.011 301.617,931.509 303.274,934.121C307.822,941.293 309.264,951.414 310.705,959.635C311.17,962.287 311.347,965.767 312.391,968.178C315.086,964.072 317.584,959.838 321.483,956.752C328.772,968.984 337.163,980.669 347.065,990.941L342.502,956.967L343.846,956.419L366.42,967.693C365.755,964.032 363.996,960.45 363.038,956.826C361.57,951.273 361.162,945.349 360.494,939.656C376.086,940.22 385.461,946.776 396.083,957.664C396.067,954.141 395.183,950.335 394.669,946.832C402.224,947.194 408.784,948.004 415.714,951.211C424.924,955.473 431.563,962.388 438.611,969.451L459.798,991.311C455.8,984.092 451.697,976.476 450.037,968.335C450.506,967.488 450.942,966.759 450.813,965.754C450.578,963.918 449.412,961.629 448.812,959.848L444.776,946.423C450.134,948.178 455.148,949.903 459.93,952.95C464.144,955.635 468.111,961.813 472.818,962.894C478.006,964.086 482.36,967.209 487.264,969.109L480.338,941.407C490.277,944.366 496.481,949.23 503.873,956.262L538.103,934.591C544.567,934.745 550.992,934.397 557.39,933.416C563.44,932.488 570.42,927.981 576.345,929.19L577.253,929.392L586.952,932.156C591.394,944.904 602,956.119 610.58,966.209C610.551,961.173 610.37,950.085 613.836,946.13C615.837,943.847 618.742,942.703 621.738,942.605C635.456,942.158 642.34,963.702 650.769,971.503C652.553,970.75 653.932,970.309 655.043,968.665L648.056,953.99C654.411,953.829 660.924,954.16 667.253,954.716C669.85,954.945 675.458,956.504 677.763,956.062C679.672,955.696 684.241,951.571 685.938,950.323C684.49,936.638 685.175,923.262 686.694,909.617C688.872,910.983 690.779,912.553 692.738,914.204L689.694,892.219C689.22,889.308 687.726,886.183 687.787,883.301C688.672,882.491 689.553,881.73 690.658,881.234C693.301,880.046 695.204,879.802 697.909,880.88L698.435,881.1C698.774,880.954 699.22,880.951 699.453,880.664C699.672,880.394 699.811,875.488 699.854,874.947C700.185,870.731 700.52,866.16 702.22,862.229L703.187,861.971C704.851,862.708 706.086,863.532 707.514,864.664L708.022,865.072L710.501,855.748C711.388,853.183 712.547,851.253 715.055,850.049C724.077,858.734 725.191,887.434 726.641,900.11L727.582,900.479L728.717,899.451L725.153,868.911C726.584,869.63 728.057,870.359 729.34,871.328C736.993,877.107 739.273,887.122 740.631,896.058L768.641,892.723C764.156,878.864 756.232,866.941 748.746,854.555C745.352,848.938 741.308,842.929 739.099,836.734L738.858,836.044C756.084,851.197 764.906,871.708 773.681,892.374C776.134,898.15 778.116,904.267 781.173,909.747C774.14,880.116 764.291,855.241 743.354,832.599Z" style="fill:rgb(3,3,3);fill-rule:nonzero;"/>
        </g>
        <g transform="matrix(0.0740741,0,0,0.0740741,0,0)">
            <path d="M556.138,977.772C565.087,976.381 572.205,979.377 580.543,981.99C586.095,983.73 591.827,985.092 597.543,986.176C607.944,988.149 618.116,988.325 628.681,988.065L642.198,987.458C644.987,987.224 649.058,986.17 651.758,986.914C652.338,987.073 653.435,988.065 653.981,988.44L654.166,990.088L652.222,992.273C646.525,994.16 639.455,994.209 633.46,994.432C622.655,994.834 610.885,995.006 600.21,993.082C587.997,990.881 576.462,986.671 564.484,983.651C555.432,983.19 545.414,986.254 536.492,987.863L502.454,992.271C491.68,993.334 480.132,994.43 469.376,992.81C467.001,992.452 466.386,992.41 464.937,990.417C465.061,988.427 464.944,987.899 466.154,986.246C494.504,990.186 525.053,983.141 552.953,978.311L556.138,977.772Z" style="fill:rgb(43,43,43);fill-rule:nonzero;"/>
        </g>
        <g transform="matrix(0.0740741,0,0,0.0740741,0,0)">
            <path d="M126.865,575.459C130.768,573.856 134.197,578.616 137.802,579.368C139.019,577.881 138.846,577.335 138.969,575.464C137.149,572.466 133.78,571.075 130.658,569.754L129.945,569.458C130.496,550.041 130.465,529.88 140.531,512.512C143.589,507.238 148.138,502.868 151.168,497.78C152.138,496.152 151.921,495.179 151.575,493.396C146.723,492.045 144.164,502.722 140.322,504.035C137.283,505.072 133.127,505.277 129.903,505.833C132.36,499.307 134.926,492.721 138.676,486.804C141.643,482.123 145.676,477.774 149.41,473.702C160.996,461.071 173.705,451.714 188.82,443.67L191.115,449.271C192.073,451.507 193.444,455.018 195.824,455.97L196.813,454.694C196.863,451.13 193.92,448.951 192.962,445.709C185.262,419.637 191.113,389.744 203.493,366.125C215.281,343.637 234.984,325.401 259.369,317.827C262.131,316.969 272.531,314.453 273.756,312.122L272.205,311.462C274.302,310.569 277.567,309.64 278.48,307.368C279.127,305.756 278.847,305.363 278.19,303.882C277.658,303.712 277.152,303.357 276.593,303.371C275.777,303.392 273.236,304.841 272.282,305.219C268.773,306.609 265.173,307.654 261.548,308.689C266.773,298.464 272.229,289.128 279.822,280.447C317.526,237.34 381.85,218.174 437.237,214.257C433.316,215.691 427.377,216.467 424.286,219.081C423.746,220.678 423.834,221.232 424.286,222.779L425.604,223.434C433.145,222.585 440.033,219.03 446.91,216.022C463.894,208.591 481.197,200.124 496.912,190.273L552.9,203.447C560.952,205.306 569.118,208.066 577.253,209.391C582.968,210.321 589.172,209.866 594.978,210.345C605.191,211.187 615.492,213.349 625.383,215.982C657.821,224.618 686.031,241.415 713.705,259.899C725.895,268.041 738.321,276.527 749.072,286.553C763.381,299.897 775.416,314.763 785.403,331.596C791.698,342.207 797.28,353.524 801.686,365.056L806.022,377.518C806.48,378.884 806.97,381.212 807.87,382.333C809.314,384.132 813.006,385.966 814.95,387.248L847.563,406.66C832.803,408.918 814.521,406.209 800.196,402.457C795.801,401.306 791.291,399.023 786.889,398.275C785.402,398.022 785.134,397.962 783.927,398.804L784.286,400.684C792.778,410.567 813.034,411.762 825.204,412.947C835.59,430.27 842.522,448.117 846.851,467.855C848.057,473.357 849.574,479.51 849.825,485.156C849.971,488.457 846.003,487.396 843.913,489.771L844.145,490.478C845.781,494.013 851.544,495.213 854.835,496.404C867.1,500.845 880.539,512.274 887.936,522.915C891.349,527.826 893.937,533.503 896.577,538.85C894.091,536.843 891.502,534.798 888.778,533.124C886.914,531.977 883.86,530.698 882.59,528.909L880.879,526.721L879.768,527.494C878.753,535.124 883.613,539.92 884.754,546.888L880.549,544.556L879.824,545.142L880.125,548.767L879.56,549.028C875.155,544.602 871.248,539.464 866.651,535.285C862.829,531.811 858.315,528.912 854.373,525.514C851.53,523.063 848.851,520.038 845.805,517.883C862.591,548.146 868.546,580.224 874.473,613.818C869.305,610.552 864.407,605.559 859.234,602.762L872.938,633.024C863.783,629.511 854.831,624.871 846.649,619.468C843.249,617.223 839.862,614.076 836.273,612.25C843.377,625.155 848.89,637.963 853.519,651.986C855.679,658.529 858.171,666.173 858.807,673.01C855.623,671.577 852.378,670.259 849.514,668.235C846.441,658.38 841.253,651.548 834.717,643.768C833.628,640.588 830.909,637.693 828.781,635.145C820.398,625.105 809.734,616.851 798.022,611.046C793.674,608.89 787.369,607.426 783.574,604.818L782.799,604.253C775.356,594.254 767.918,583.905 758.399,575.746C762.136,575.872 766.149,575.834 769.812,576.609C779.403,578.64 788.816,584.479 796.83,589.883L788.276,564.333L805.037,575.329C797.739,559.967 794.108,543.933 796.125,526.905C796.515,523.604 796.785,519.586 798.009,516.531C798.71,514.783 799.372,514.239 801.099,513.569C807.729,514.366 813.879,519.992 817.89,524.988C820.507,528.25 822.586,531.994 824.68,535.602L820.695,480.896L831.833,487.916C823.583,473.977 813.751,460.227 804.131,447.201C798.964,440.205 792.648,433.703 788.742,425.89C784.359,417.122 781.359,407.318 779.665,397.676L778.327,388.142C778.287,387.747 778.241,385.608 778.061,385.35C777.516,384.57 775.432,383.38 774.563,382.725L766.335,376.32L739.798,353.598L756.373,355.228C759.099,355.531 762.2,356.269 764.912,356.003C759.018,347.445 750.663,339.36 743.145,332.237C709.776,300.623 668.96,274.842 626.76,256.713C614.798,251.574 602.118,247.697 589.886,243.221L544.569,224.637C547.85,230.611 552.378,236.105 556.482,241.536C551.197,239.911 545.967,238.353 540.989,235.918L540.33,237.123C529.903,237.845 519.903,234.746 511.941,227.919C508.794,225.221 505.661,221.909 503.296,218.494C500.37,223.159 497.241,227.799 493.061,231.457C489.101,234.922 484.343,237.116 479.834,239.746C470.988,244.905 462.184,251.167 452.036,253.43C433.774,257.501 412.192,254.005 393.947,250.818C389.161,249.982 384.422,248.922 379.748,247.595C378.801,247.326 373.52,245.451 372.757,245.782C371.796,246.199 367.292,253.53 366.348,254.79C359.544,263.873 352.34,273.527 344.004,281.284C342.158,274.393 341.537,267.772 342.516,260.656C342.854,258.196 343.686,255.351 343.508,252.89C326.829,270.842 312.711,300.845 313.295,325.761L313.696,329.919L313.815,330.889L315.243,337.935C311.383,340.123 306.739,342.444 302.177,341.078C300.261,340.504 298.387,339.048 296.744,337.927C292.425,344.013 287.668,349.895 281.509,354.232C276.474,357.776 270.76,360.349 265.563,363.67C248.557,374.542 233.659,388.921 223.232,406.288C218.308,414.489 214.715,423.332 211.176,432.186C223.632,437.866 231.009,445.206 238.02,456.766C229.246,468.421 220.48,480.015 209.376,489.604C204.377,493.921 199.121,497.163 193.737,500.89C194.442,503.588 195.406,506.571 195.606,509.344C195.95,514.134 194.255,520.554 193.334,525.241L206.151,515.055C205.74,521.26 204.62,526.86 203.581,532.962C206.335,531.294 209.337,529.071 212.644,529.651C216.611,532.685 218.154,537.006 218.777,541.846C220.125,552.317 219.012,563.716 216.472,573.955C215.328,578.569 213.534,583.048 212.629,587.708C217.078,583.435 221.437,578.831 226.465,575.239L219.717,597.318C225.535,594.507 232.178,590.943 238.784,593.17C242.235,594.333 245.786,596.297 247.505,599.654C249.841,604.214 247.139,610.969 245.449,615.394C242.652,622.716 239.076,629.328 235.063,636.041C247.383,627.114 260.329,615.062 274.465,609.427C281.935,606.616 287.304,606.334 295.165,608.217L289.397,628.174C295.655,627.865 300.205,627.824 305.151,632.383L309.627,637.011C318.371,634.588 327.689,633.512 335.923,638.368L340.715,641.716L321.97,675.923C318.296,682.456 305.174,686.874 298.434,690.49C294.867,692.404 291.425,694.855 287.802,696.59C284.162,698.334 280.457,699.466 276.886,701.445C271.322,704.53 266.124,708.318 260.954,712.012C258.56,713.969 257.024,715.237 256.65,718.407C255.691,726.534 251.291,734.685 247.356,741.743C242.475,750.499 238.162,758.355 230.922,765.42L246.631,717.382L195.023,761.81L241.162,680.865C219.02,690.819 196.476,695.294 172.552,698.443C171.565,698.247 171.092,698.044 170.308,697.412L173.656,686.868C173.461,684.856 173.002,683.373 172.156,681.54L171.205,681.947L136.289,693.897L177.019,638.471C169.654,643.83 162.525,648.545 154.349,652.593L171.629,597.456C162.414,606.618 153.701,612.369 141.531,616.882L147.209,598.175C141.389,603.561 135.35,608.157 128.763,612.548L114.473,619.367L120.908,601.593C122.423,597.859 125.059,593.479 125.854,589.636C126.215,587.895 125.88,585.819 125.959,584.033C126.086,581.189 126.535,578.288 126.865,575.459Z" style="fill:rgb(87,86,87);fill-rule:nonzero;"/>
        </g>
        <g transform="matrix(0.0740741,0,0,0.0740741,0,0)">
            <path d="M172.156,681.54L188.401,673.69L173.656,686.868C173.461,684.856 173.002,683.373 172.156,681.54Z" style="fill:rgb(3,3,3);fill-rule:nonzero;"/>
        </g>
        <g transform="matrix(0.0740741,0,0,0.0740741,0,0)">
            <path d="M271.392,618.686L272.637,619.631C273.358,621.356 272.611,623.516 271.933,625.164C269.368,631.398 264.322,636.044 259.744,640.814C243.993,657.227 226.365,671.483 205.327,680.603L204.365,680.603C220.86,666.493 239.277,654.869 254.729,639.496C261.101,633.156 266.356,626.1 271.392,618.686Z" style="fill:rgb(43,43,43);fill-rule:nonzero;"/>
        </g>
        <g transform="matrix(0.0740741,0,0,0.0740741,0,-0.444444)">
            <path d="M634.582,534.779C654.073,498.278 710.263,505.962 718.215,558.651" style="fill:none;stroke:rgb(87,86,87);stroke-width:7.43px;stroke-miterlimit:1.5;"/>
        </g>
        <g transform="matrix(0.0740741,0,0,0.0740741,0,-0.148148)">
            <path d="M630.88,561.334C629.976,584.548 682.244,611.646 714.102,568.582" style="fill:none;stroke:rgb(87,86,87);stroke-width:7.43px;stroke-linejoin:bevel;stroke-miterlimit:1.5;"/>
        </g>
        <g transform="matrix(0.0740741,0,0,0.0740741,0,-0.148148)">
            <path d="M341.165,562.651C355.128,584.294 404.463,587.252 425.034,543.446" style="fill:none;stroke:rgb(87,86,87);stroke-width:7.43px;stroke-linejoin:bevel;stroke-miterlimit:1.5;"/>
        </g>
        <g transform="matrix(0.0740741,0,0,0.0740741,0,-0.148148)">
            <path d="M332.396,541.975C342.291,477.259 407.184,473.469 430.497,525.68" style="fill:none;stroke:rgb(87,86,87);stroke-width:7.43px;stroke-linejoin:bevel;stroke-miterlimit:1.5;"/>
        </g>
    </g>
</svg>
