<?xml version="1.0" encoding="UTF-8" standalone="no"?>
<!DOCTYPE svg PUBLIC "-//W3C//DTD SVG 1.1//EN" "http://www.w3.org/Graphics/SVG/1.1/DTD/svg11.dtd">
<svg width="100%" height="100%" viewBox="0 0 1200 600" version="1.1" xmlns="http://www.w3.org/2000/svg" xmlns:xlink="http://www.w3.org/1999/xlink" xml:space="preserve" xmlns:serif="http://www.serif.com/" style="fill-rule:evenodd;clip-rule:evenodd;stroke-linejoin:round;stroke-miterlimit:2;">
    <g transform="matrix(1.00669,-0.08152,0.0836013,1.03239,-35.6335,65.9699)">
        <path d="M1111.84,318.984C1102.68,328.602 1103.17,338.143 1103.17,338.143C1099.01,319.384 1062.1,305.089 1033.37,327.995C984.95,366.599 920.022,432.635 942.065,500.267C954.539,538.537 1006.37,540.992 1046.73,494.775C1046.73,494.775 1046.4,539.35 1075.72,539.056C1105.53,538.758 1138.78,492.685 1150.54,475.531C1156.69,466.546 1149.12,465.226 1147.05,465.858C1136.58,469.055 1114.17,491.751 1106.3,488.244C1091.98,481.863 1104.88,447.659 1112.01,427.838C1122.25,399.343 1145.99,348.213 1159.02,334.602C1178.89,313.859 1116.59,314.003 1111.84,318.984ZM1088.37,382.343C1099.82,351.305 1087.91,308.325 1042.98,362.943C1023.23,386.956 1006.31,416.558 995.656,437.672C980.478,467.757 1000.77,517.484 1049.02,458.084C1059.33,445.402 1083.27,396.162 1088.37,382.343Z" style="fill:rgb(243,255,57);"/>
    </g>
    <g transform="matrix(1.00998,0,0,1.03577,202.217,-19.0772)">
        <path d="M726.676,316.857C709.534,305.176 671.036,330.815 671.036,330.815C671.036,330.815 676.935,322.772 674.068,319.485C668.864,313.516 625.472,308.355 619.93,319.044C601.305,354.969 576.706,407.934 543.415,465.415C530.138,488.34 526.201,490.004 519.23,505.428C512.061,521.288 563.809,536.691 576.276,521.813C583.311,513.418 578.274,508.18 585.877,490.544C596.213,466.571 616.951,428.228 628.577,411.425C645.191,387.414 687.067,341.886 694.853,346.409C706.778,353.336 640.398,448.117 633.634,497.76C631.76,511.513 659.958,532.54 675.614,524.886C699.879,513.023 771.857,441.181 771.857,441.181L779.141,375.924C779.141,375.924 707.121,468.675 698.531,457.585C689.942,446.494 773.561,348.805 726.676,316.857Z" style="fill:rgb(243,255,57);"/>
    </g>
    <g transform="matrix(1.00998,0,0,1.03577,4.32381,-19.0772)">
        <path d="M726.676,316.857C709.534,305.176 671.036,330.815 671.036,330.815C671.036,330.815 676.935,322.772 674.068,319.485C668.864,313.516 625.472,308.355 619.93,319.044C601.305,354.969 576.706,407.934 543.415,465.415C530.138,488.34 526.201,490.004 519.23,505.428C512.061,521.288 563.809,536.691 576.276,521.813C583.311,513.418 578.274,508.18 585.877,490.544C596.213,466.571 616.951,428.228 628.577,411.425C645.191,387.414 687.067,341.886 694.853,346.409C706.778,353.336 640.398,448.117 633.634,497.76C631.76,511.513 659.958,532.54 675.614,524.886C699.879,513.023 771.857,441.181 771.857,441.181L783.084,392.846C783.084,392.846 712.147,465.98 698.531,457.585C686.591,450.222 773.561,348.805 726.676,316.857Z" style="fill:rgb(243,255,57);"/>
    </g>
    <g transform="matrix(1.03603,0,0,1.03577,-4.23042,-19.0772)">
        <path d="M593.227,377.416C525.637,397.704 468.447,375.01 496.648,348.791L478.063,353.434C456.19,391.734 524.595,414.344 582.466,409.668L593.227,377.416Z" style="fill:rgb(243,255,57);"/>
        <path d="M538.69,313.167C488.475,292.546 400.897,375.621 373.914,443.649C354.929,491.513 379.526,522.824 407.742,531.612C451.695,545.301 508.742,473.371 531.234,431.602C550.848,395.178 572.311,326.974 538.69,313.167ZM523.398,399.036C550.51,352.254 538.37,310.831 492.305,356.762C480.436,368.596 440.453,421.32 432.055,439.148C407.551,491.166 453.679,498.522 480.604,460.96C497.757,437.031 507.572,426.344 523.398,399.036Z" style="fill:rgb(243,255,57);"/>
    </g>
    <g transform="matrix(1.00812,0,0,1.00812,-41.5519,24.6748)">
        <path d="M380.031,100.842C312.691,87.589 168.383,184.691 103.068,297.65C-37.81,541.29 291.921,481.07 315.37,439.431C315.37,439.431 309.316,462.653 310.66,466.777C314.222,477.703 335.449,515.294 344.543,498.923C367.497,457.605 437.713,310.253 437.713,310.253C437.713,310.253 458.043,304.136 471.249,303.955C485.896,303.755 499.227,300.338 505.044,296.888C511.834,292.861 509.856,277.569 503.55,273.701C493.968,267.825 488.709,274.888 474.548,278.743C414.967,294.964 291.915,330.536 220.483,351.42C205.598,355.772 191.171,353.785 184.618,357.108C162.274,368.44 198.319,391.008 209.091,389.223C225.961,386.428 256.829,372.83 282.634,362.969C311.261,352.029 380.739,325.663 380.739,325.663C334.612,394.779 210.934,483.281 147.566,425.683C72.784,357.711 329.99,92.443 370.003,120.966C398.852,141.53 324.615,221.493 301.619,238.946C285.102,251.483 341.709,294.991 354.911,271.04C368.91,245.645 468.251,118.205 380.031,100.842Z" style="fill:rgb(243,255,57);"/>
    </g>
    <g transform="matrix(1.00812,0,0,1.00812,-52.9065,25.9952)">
        <path d="M286.473,93.414C286.473,93.414 270.672,98.139 242.333,89.994C214.522,82.001 183.424,44.177 183.424,44.177C183.424,44.177 164.104,91.425 202.44,105.858C264.049,129.052 286.473,93.414 286.473,93.414Z" style="fill:rgb(243,255,57);"/>
    </g>
    <g transform="matrix(0.953023,-0.328716,0.328716,0.953023,-141.132,157.778)">
        <path d="M287.017,92.479C287.017,92.479 264.871,97.399 236.533,89.254C208.722,81.261 175.441,48.014 175.441,48.014C175.441,48.014 155.562,91.726 193.898,106.159C255.507,129.353 287.017,92.479 287.017,92.479Z" style="fill:rgb(243,255,57);"/>
    </g>
</svg>
