<?xml version="1.0" encoding="utf-8" ?>
<svg xmlns="http://www.w3.org/2000/svg" xmlns:xlink="http://www.w3.org/1999/xlink" width="1000" height="400">
	<path fill="#838383" d="M830.908 278.965C836.571 280.842 840.782 285.925 843.371 291.108C846.798 297.965 847.473 307.08 845.002 314.325C842.166 322.639 836.058 327.603 828.361 331.358C826.728 332.154 825.06 332.885 823.242 333.088L822.896 333.131C819.15 333.553 811.917 329.74 808.962 327.371L804.215 323.241C806.896 323.15 810.046 325.867 812.021 325.477C816.307 324.63 819.848 322.685 823.496 320.347C829.855 316.272 834.09 311.062 835.706 303.555C837.552 294.975 835.634 286.278 830.908 278.965Z"/>
	<path fill="#838383" d="M425.692 239.3C430.047 240.371 433.077 242.859 435.373 246.652C440.685 255.428 439.727 264.94 437.328 274.406C432.65 292.856 421.849 310.706 405.232 320.556C396.432 325.772 385.922 329.587 375.567 329.157C373.147 329.057 370.805 328.346 368.408 328.049C365.302 327.664 362.043 327.547 359.012 326.751C352.587 325.063 346.433 321.554 341.941 316.63C343.723 316.965 345.521 317.661 347.25 318.214C350.884 319.375 354.425 319.467 358.154 319.973C360.844 320.338 363.405 321.063 366.145 321.188C374.627 321.573 383.917 318.525 391.365 314.665C408.643 305.713 419.987 289.693 425.781 271.368C429.226 260.476 431.218 249.964 425.692 239.3Z"/>
	<path fill="#838383" d="M817.84 72.2624C822.45 73.2689 825.753 77.0427 828.215 80.8522C833.902 89.6527 835.182 101.917 835.931 112.147C836.786 123.827 836.123 135.617 835.67 147.302L830.448 216.361C828.871 230.235 827.59 244.346 824.615 258.007C823.888 261.344 823.022 264.647 821.745 267.818C820.475 266.229 819.138 264.62 818.067 262.89C816.457 260.288 815.395 257.53 812.772 255.759C813.17 255.119 813.503 254.468 813.696 253.734C817.382 239.75 818.546 224.624 820.143 210.269L825.626 139.144C826.148 125.261 826.694 111.303 825.169 97.4626C824.19 88.5717 822.385 80.036 817.84 72.2624Z"/>
	<path fill="#838383" d="M274.818 134.003C289.091 143.054 295.441 158.889 298.98 174.774C305.243 202.886 304.596 232.749 303.614 261.373C303.275 271.248 303.33 281.456 301.457 291.186C300.108 298.193 297.754 305.139 293.898 311.176C288.981 318.874 281.767 325.903 272.565 327.869C268.853 328.662 264.225 328.503 260.948 326.432C258.804 325.078 256.702 322.613 255.448 320.423C260.255 320.508 264.377 319.812 268.735 317.665C278.883 312.665 285.65 302.028 289.168 291.618C293.2 279.687 293.036 266.683 293.497 254.222C294.246 233.927 294.519 213.433 292.694 193.193C291.729 182.496 290.41 171.806 287.58 161.416C285.749 154.695 283.332 148.006 279.803 141.979C278.204 139.249 276.228 136.86 274.818 134.003Z"/>
	<path fill="#2A3034" d="M796.641 317.53C795.952 316.37 793.99 315.117 792.962 314.176C788.035 309.661 784.522 304.62 782.728 298.12C780.895 291.477 781.261 283.776 784.733 277.703C788.206 271.631 794.541 267 801.268 265.197C807.098 263.634 812.756 264.034 818.05 267.1C819.994 268.226 825.566 272.542 826.063 274.751L826.096 274.951C827.784 275.448 829.786 276.818 830.72 278.379C830.873 278.633 830.866 278.709 830.908 278.965C835.634 286.278 837.552 294.975 835.706 303.555C834.09 311.062 829.855 316.272 823.496 320.347C819.848 322.685 816.307 324.63 812.021 325.477C810.046 325.867 806.896 323.15 804.215 323.241C803.335 321.559 798.357 318.818 796.641 317.53Z"/>
	<path fill="#EC5E31" d="M826.096 274.951C827.784 275.448 829.786 276.818 830.72 278.379C830.873 278.633 830.866 278.709 830.908 278.965C835.634 286.278 837.552 294.975 835.706 303.555C834.09 311.062 829.855 316.272 823.496 320.347C819.848 322.685 816.307 324.63 812.021 325.477C810.046 325.867 806.896 323.15 804.215 323.241C803.335 321.559 798.357 318.818 796.641 317.53C800.257 317.543 802.136 319.734 805.301 320.435C809.768 321.425 815.722 317.244 819.267 314.962C825.579 310.898 829.075 305.159 830.628 297.888C832.261 290.242 830.295 281.464 826.096 274.951Z"/>
	<path fill="#EC5E31" d="M824.535 298.926L824.755 300.122L823.651 301.912C820.373 306.254 812.545 311.329 807.129 312.065C804.985 310.521 801.843 310.576 799.383 309.575C793.834 307.318 789.777 302.102 787.529 296.703C785.929 292.863 787.69 287.481 789.145 283.818C790.667 279.984 794.331 276.49 798.096 274.883C803.596 272.536 809.313 271.859 814.941 274.081L815.468 274.821C819.111 275.905 821.997 279.009 823.772 282.29C825.948 286.311 827.025 292.57 825.872 297.019C825.672 297.788 825.098 298.396 824.535 298.926Z"/>
	<path fill="#FEFEFE" d="M815.468 274.821C819.111 275.905 821.997 279.009 823.772 282.29C825.948 286.311 827.025 292.57 825.872 297.019C825.672 297.788 825.098 298.396 824.535 298.926C824.232 299.438 824.019 299.453 823.486 299.689C820.384 296.662 821.927 292.911 821.309 289.042C820.829 286.035 818.043 284.561 815.918 282.863C814.6 281.809 814.24 280.543 814.105 278.877C813.977 277.291 814.505 276.033 815.468 274.821Z"/>
	<path fill="#838383" d="M583.467 83.4942C588.295 84.7634 592.431 89.5225 594.866 93.682C596.043 95.6921 597.231 98.0284 597.729 100.316C598.982 106.077 598.858 112.761 599.22 118.68L601.163 147.616C603.813 187.375 606.71 226.635 606.485 266.531C606.398 281.949 606.862 298.859 602.896 313.793C600.571 322.546 595.37 331.377 587.363 336.013C583.531 338.232 579.226 339.724 574.796 338.532C571.315 337.595 568.453 335.772 565.672 333.517C564.433 332.512 563.31 331.1 561.944 330.31C563.913 330.436 565.893 331.037 567.843 331.055C571.262 331.087 574.964 329.476 577.809 327.677C586.439 322.222 591.392 312.75 593.517 302.989C596.224 290.546 596.047 277.197 596.303 264.496C597.158 222.194 593.846 180.354 591.034 138.203L588.817 106.46C588.473 101.885 588.526 96.7609 587.629 92.2745C587.021 89.2329 585.13 86.0857 583.467 83.4942Z"/>
	<path fill="#838383" d="M721.684 144.45C722.906 145.14 724.036 145.716 724.908 146.85L725.044 147.462C727.635 148.16 729.225 149.918 731.097 151.711C736.064 156.468 740.114 161.664 743.545 167.629C756.833 190.733 756.21 218.025 755.522 243.828C755.341 250.583 755.898 258.204 754.14 264.721C748.079 287.204 738.373 316.267 716.894 328.484C705.071 335.209 693.888 335.069 681.111 331.504C670.652 328.585 662.411 323.475 653.731 317.069C652.43 315.112 649.159 313.171 647.257 311.684C650.457 311.544 655.319 314.996 658.431 316.252C671.303 321.446 684.166 323.527 697.266 317.924C713.78 310.86 723.796 293.839 730.201 277.856L737.059 258.46C737.884 255.778 739.028 252.876 739.528 250.133C740.151 246.717 740.036 242.847 740.183 239.371L740.363 215.385C740.213 206.979 740.555 198.329 739.479 189.979C738.505 182.421 736.597 174.872 734.017 167.708C732.168 162.573 729.865 157.248 726.943 152.625C725.325 150.065 722.922 147.499 721.788 144.714L721.684 144.45Z"/>
	<path fill="#EC5E31" d="M721.684 144.45C722.906 145.14 724.036 145.716 724.908 146.85L725.044 147.462C728.694 152.313 732.211 157.116 734.998 162.537C745.098 182.186 745.539 202.659 745.588 224.207C745.61 233.813 746.076 244.414 744.67 253.933C744.034 258.236 742.308 262.714 741.006 266.892C735.231 285.418 727.128 305.929 710.962 317.775C703.01 323.602 691.799 327.445 681.887 325.902C675.629 324.927 669.567 323.299 663.684 320.951C660.909 319.842 656.581 316.981 653.731 317.069C652.43 315.112 649.159 313.171 647.257 311.684C650.457 311.544 655.319 314.996 658.431 316.252C671.303 321.446 684.166 323.527 697.266 317.924C713.78 310.86 723.796 293.839 730.201 277.856L737.059 258.46C737.884 255.778 739.028 252.876 739.528 250.133C740.151 246.717 740.036 242.847 740.183 239.371L740.363 215.385C740.213 206.979 740.555 198.329 739.479 189.979C738.505 182.421 736.597 174.872 734.017 167.708C732.168 162.573 729.865 157.248 726.943 152.625C725.325 150.065 722.922 147.499 721.788 144.714L721.684 144.45Z"/>
	<path fill="#838383" d="M499.536 83.9198C500.735 84.3279 502.446 84.9321 503.055 86.1625C503.116 86.2865 503.14 86.447 503.169 86.5766C508.253 87.8286 513.878 94.9207 516.514 99.2835C518.668 102.849 520.415 106.804 521.154 110.917C522.167 116.55 522.073 122.804 522.288 128.53L523.389 154.164C525.219 195.929 527.988 237.805 525.608 279.609C525.096 288.601 525.182 298.155 522.999 306.944C520.599 316.608 516.309 326.252 507.449 331.606C503.932 333.731 499.045 334.929 494.985 333.873C490.204 332.628 487.924 329.058 484.14 326.378C483.591 325.428 481.981 324.847 481.046 324.221C479.528 323.203 478.106 321.959 476.691 320.802C477.876 320.513 479.44 321.039 480.618 321.28C485.064 322.187 489.684 320.614 493.346 318.119C501.895 312.295 506.381 301.405 508.199 291.575C510.519 279.033 510.513 265.374 510.846 252.632C511.858 213.876 509.773 175.091 507.857 136.391L507.021 115.742C506.876 110.029 506.941 104.016 505.924 98.3795C504.961 93.0424 502.564 88.3559 499.536 83.9198Z"/>
	<path fill="#EC5E31" d="M499.536 83.9198C500.735 84.3279 502.446 84.9321 503.055 86.1625C503.116 86.2865 503.14 86.447 503.169 86.5766C506.738 91.5599 509.902 96.8028 511.078 102.918C511.881 107.101 511.774 111.798 511.964 116.049L513.025 140.237L516.171 253.536C515.911 266.971 515.956 281.311 513.777 294.576C512.08 304.909 507.816 316.32 498.963 322.591C494.187 325.974 489.762 326.353 484.14 326.378C483.591 325.428 481.981 324.847 481.046 324.221C479.528 323.203 478.106 321.959 476.691 320.802C477.876 320.513 479.44 321.039 480.618 321.28C485.064 322.187 489.684 320.614 493.346 318.119C501.895 312.295 506.381 301.405 508.199 291.575C510.519 279.033 510.513 265.374 510.846 252.632C511.858 213.876 509.773 175.091 507.857 136.391L507.021 115.742C506.876 110.029 506.941 104.016 505.924 98.3795C504.961 93.0424 502.564 88.3559 499.536 83.9198Z"/>
	<path fill="#2A3034" d="M806.859 253.959C806.705 254.18 806.376 254.343 806.152 254.496C803.79 252.305 802.733 249.919 801.078 247.231C794.834 237.095 790.636 226.5 786.751 215.254C782.3 202.373 778.671 189.3 776.153 175.897C772.628 157.134 770.903 138.212 770.957 119.123C771.003 102.564 772.007 82.9239 781.685 68.8892C784.762 64.4285 789.551 59.4022 795.081 58.4254C799.181 57.7011 803.169 58.7704 806.544 61.1529C808.107 62.2566 812.118 65.5873 812.45 67.4395C814.085 68.1728 816.786 69.9415 817.634 71.5938C817.736 71.7941 817.794 72.0423 817.84 72.2624C822.385 80.036 824.19 88.5717 825.169 97.4626C826.694 111.303 826.148 125.261 825.626 139.144L820.143 210.269C818.546 224.624 817.382 239.75 813.696 253.734C813.503 254.468 813.17 255.119 812.772 255.759C813.057 256.987 812.463 257.999 811.977 259.096L811.279 259.188L806.859 253.959Z"/>
	<path fill="#EC5E31" d="M812.45 67.4395C814.085 68.1728 816.786 69.9415 817.634 71.5938C817.736 71.7941 817.794 72.0423 817.84 72.2624C822.385 80.036 824.19 88.5717 825.169 97.4626C826.694 111.303 826.148 125.261 825.626 139.144L820.143 210.269C818.546 224.624 817.382 239.75 813.696 253.734C813.503 254.468 813.17 255.119 812.772 255.759C813.057 256.987 812.463 257.999 811.977 259.096L811.279 259.188L806.859 253.959C808.871 249.816 809.458 244.421 810.277 239.929C813.213 223.836 814.839 207.255 816.505 190.983L820.498 130.685C820.97 114.53 821.453 98.8493 818.296 82.9088C817.288 77.8192 815.781 71.5336 812.45 67.4395Z"/>
	<path fill="#EC5E31" d="M815.635 117.191L816.069 117.86C817.352 120.202 816.296 128.247 816.211 131.095L810.658 205.985C809.233 218.814 808.054 232.678 804.676 245.105C803.465 242.452 802.962 239.544 801.807 236.874L791.617 212.658C784.762 193.966 780.017 174.355 777.734 154.579C775.12 131.93 772.991 90.6539 788.015 71.9502C789.569 70.015 792.327 66.9845 794.872 66.7219L795.166 66.6945C797.879 66.4166 800.286 66.8531 802.706 68.1504C808.329 71.1659 811.419 77.1292 813.159 83.0155C814.462 87.424 817.651 99.6091 815.41 103.333L815.223 103.624C816.344 105.845 816.986 113.588 816.188 115.964L815.635 117.191Z"/>
	<path fill="#FEFEFE" d="M815.635 117.191L815.668 118.223L814.453 119.046L813.45 118.704C810.794 113.626 811.714 104.911 810.762 99.1773C809.963 94.3625 807.167 84.8458 802.123 82.7336C800.56 82.079 798.926 82.6924 797.351 81.5629C796.581 80.3631 796.386 79.2852 796.337 77.8643C796.278 76.1282 796.698 75.3033 797.852 74.1062C798.705 74.0472 799.547 74.0274 800.392 74.1871C803.755 74.8226 806.51 77.3018 808.414 80.0441C811.892 85.0548 813.763 91.3671 814.826 97.3112C815.167 99.2209 815.69 101.39 815.291 103.321L815.223 103.624C816.344 105.845 816.986 113.588 816.188 115.964L815.635 117.191Z"/>
	<path fill="#2A3034" d="M476.691 320.802C475 318.591 472.083 316.717 470.116 314.648C463.056 307.226 459.891 296.17 457.995 286.353C453.409 262.608 454.506 237.448 453.644 213.332C453.527 210.057 452.853 206.83 452.722 203.554L451.164 112.919C451.576 99.1599 452.183 84.7716 462.895 74.7623C466.631 71.2712 471.445 69.2461 476.596 69.4613C485.012 69.8129 493.813 76.2445 498.978 82.6073C499.282 82.982 499.429 83.4565 499.536 83.9198C502.564 88.3559 504.961 93.0424 505.924 98.3795C506.941 104.016 506.876 110.029 507.021 115.742L507.857 136.391C509.773 175.091 511.858 213.876 510.846 252.632C510.513 265.374 510.519 279.033 508.199 291.575C506.381 301.405 501.895 312.295 493.346 318.119C489.684 320.614 485.064 322.187 480.618 321.28C479.44 321.039 477.876 320.513 476.691 320.802Z"/>
	<path fill="#EC5E31" d="M502.492 125.053C502.874 125.528 503.062 125.938 503.142 126.547C503.651 130.388 503.5 134.566 503.648 138.448L504.644 160.667C506.298 193.136 507.62 225.34 506.39 257.875C506.057 266.679 506.238 275.752 505.021 284.479C504.023 291.638 502.354 299.55 497.753 305.33C494.803 309.037 489.791 312.677 484.938 313.143C481.385 313.483 477.203 311.573 474.524 309.341C470.366 305.877 467.765 301.198 465.838 296.211C459.842 280.694 460.007 262.584 459.699 246.18L459.043 221.209C458.942 217.105 458.316 212.894 458.07 208.766L457.603 190.965L456.838 181.556C456.513 174.123 457.023 166.558 456.373 159.157C455.9 153.763 456.176 148.083 456.157 142.661C456.113 130.272 456.394 118.045 457.51 105.739C457.819 102.332 457.785 98.8782 458.713 95.543C460.06 90.7074 462.326 86.0379 465.613 82.2083C467.968 79.4643 471.536 78.0358 475.096 77.79C481.579 77.3422 487.675 81.4103 492.327 85.4907C499.244 91.5579 501.639 98.41 502.352 107.3C502.553 109.802 503.141 111.662 501.779 113.823C503.056 116.242 503.509 121.912 502.67 124.572L502.492 125.053Z"/>
	<path fill="#FEFEFE" d="M502.492 125.053C502.722 125.701 502.785 126.302 502.848 126.984L501.709 127.301C499.999 125.75 499.351 121.328 498.724 119.044C497.416 114.278 496.208 109.387 493.908 104.984C491.534 100.441 487.629 95.852 482.787 93.8541C481.86 93.4713 480.91 93.55 480.018 93.2338C479.043 92.8881 478.578 92.3338 478.207 91.3807C477.592 89.8028 477.933 87.7251 478.555 86.2027C479.55 85.4249 479.871 85.0066 481.21 85.0924C485.388 85.36 490.284 90.3761 492.813 93.3465C496.368 97.522 498.244 102.743 500.243 107.789C500.925 109.509 502.042 111.662 501.819 113.543L501.779 113.823C503.056 116.242 503.509 121.912 502.67 124.572L502.492 125.053Z"/>
	<path fill="#2A3034" d="M554.105 324.392C552.782 322.168 549.185 319.919 547.327 317.967C539.232 309.465 535.639 295.822 533.875 284.493C530.775 264.595 532.119 245.135 532.593 225.159C532.648 222.843 532.238 220.561 532.264 218.222L532.676 180.247C532.682 171.304 531.601 162.345 531.262 153.405L531.279 104.871L532.137 90.3869C532.326 87.5051 532.301 83.8466 533.334 81.155C534.251 78.7644 536.251 76.5784 538.117 74.8682C543.823 69.6375 551.125 67.4389 558.768 67.8729C565.993 68.2832 573.361 72.2503 577.946 77.8308C578.274 78.2304 578.483 78.6856 578.655 79.1704C580.544 79.9772 581.841 81.3546 583.283 82.7653L583.467 83.4942C585.13 86.0857 587.021 89.2329 587.629 92.2745C588.526 96.7609 588.473 101.885 588.817 106.46L591.034 138.203C593.846 180.354 597.158 222.194 596.303 264.496C596.047 277.197 596.224 290.546 593.517 302.989C591.392 312.75 586.439 322.222 577.809 327.677C574.964 329.476 571.262 331.087 567.843 331.055C565.893 331.037 563.913 330.436 561.944 330.31C560.581 328.322 556.127 325.943 554.105 324.392Z"/>
	<path fill="#EC5E31" d="M578.655 79.1704C580.544 79.9772 581.841 81.3546 583.283 82.7653L583.467 83.4942C585.13 86.0857 587.021 89.2329 587.629 92.2745C588.526 96.7609 588.473 101.885 588.817 106.46L591.034 138.203C593.846 180.354 597.158 222.194 596.303 264.496C596.047 277.197 596.224 290.546 593.517 302.989C591.392 312.75 586.439 322.222 577.809 327.677C574.964 329.476 571.262 331.087 567.843 331.055C565.893 331.037 563.913 330.436 561.944 330.31C560.581 328.322 556.127 325.943 554.105 324.392C556.501 324.434 558.594 325.82 560.938 326.169C565.454 326.843 570.239 324.682 573.831 322.103C582.585 315.818 587.239 305.326 588.917 294.93C590.874 282.805 590.884 270.185 591.15 257.922C592.074 215.314 588.512 172.851 585.543 130.395L583.523 98.977C583.215 95.2169 583.236 91.0633 582.504 87.3731C581.967 84.6643 580.269 81.4043 578.655 79.1704Z"/>
	<path fill="#EC5E31" d="M579.944 124.993L581.047 126.252C583.638 171.22 587.684 215.761 586.895 260.877C586.675 273.415 587.055 288.2 583.176 300.155C581.047 306.715 576.301 312.91 570.067 316.048C566.911 317.637 563.365 318.499 559.926 317.335C552.533 314.834 547.424 308.866 544.08 302.018C539.803 293.258 538.171 283.193 537.439 273.553C536.349 259.188 537.446 244.673 537.814 230.31C537.873 228.013 537.478 225.773 537.52 223.492L538.08 185.348C538.11 176.982 537.042 168.565 536.758 160.195C536.077 140.104 535.965 119.954 537.253 99.9036C537.514 95.8477 537.176 89.9887 538.545 86.252C539.889 82.5819 543.219 79.6812 546.728 78.1546C552.572 75.6126 559.681 75.4173 565.616 77.7628C570.584 79.7266 575.651 83.9224 577.695 88.98C578.901 91.963 579.955 99.3985 578.56 102.222L578.417 102.495C580.317 106.771 580.067 113.639 580.385 118.376C580.503 120.141 580.95 122.546 580.305 124.217L579.944 124.993Z"/>
	<path fill="#FEFEFE" d="M579.944 124.993L579.974 125.892C579.451 126.845 579.359 126.887 578.369 127.351C578.06 127.123 577.767 126.892 577.502 126.612C576.255 125.295 576.424 123.194 576.412 121.506C576.369 115.785 575.899 110.392 574.862 104.766C573.904 99.5637 572.234 94.2064 572.345 88.8889C573.044 87.5253 572.971 87.272 574.463 86.7207C574.867 86.9922 575.23 87.286 575.525 87.6789C576.918 89.5351 578.907 100.028 578.475 102.249L578.417 102.495C580.317 106.771 580.067 113.639 580.385 118.376C580.503 120.141 580.95 122.546 580.305 124.217L579.944 124.993Z"/>
	<path fill="#2A3034" d="M647.257 311.684L634.434 300.525C614.619 280.519 610.941 254.796 611.084 227.925C611.235 199.576 617.552 170.595 631.071 145.54C633.697 140.673 636.332 135.48 640.31 131.573C648.608 123.425 660.627 120.826 671.888 120.962C691.73 121.2 708.142 130.594 721.684 144.45L721.788 144.714C722.922 147.499 725.325 150.065 726.943 152.625C729.865 157.248 732.168 162.573 734.017 167.708C736.597 174.872 738.505 182.421 739.479 189.979C740.555 198.329 740.213 206.979 740.363 215.385L740.183 239.371C740.036 242.847 740.151 246.717 739.528 250.133C739.028 252.876 737.884 255.778 737.059 258.46L730.201 277.856C723.796 293.839 713.78 310.86 697.266 317.924C684.166 323.527 671.303 321.446 658.431 316.252C655.319 314.996 650.457 311.544 647.257 311.684Z"/>
	<path fill="#EC5E31" d="M730.861 175.78C731.247 176.104 731.611 176.449 731.899 176.865C737.039 184.28 737.16 238.385 735 248.703C733.953 253.709 731.924 258.832 730.266 263.677C724.493 280.549 717.808 296.541 702.1 306.68C692.276 313.022 682.536 314.219 671.188 311.753C653.094 307.82 636.811 296.485 626.827 280.909C617.424 266.239 616.104 249.696 616.276 232.743C616.418 218.789 617.869 205.085 620.996 191.451C624.349 176.827 629.539 162.962 636.533 149.7C639.225 144.597 642.207 138.524 647.251 135.392C658.237 128.57 671.882 127.92 684.188 130.777C692.833 132.784 701.33 136.773 708.411 142.112C709.94 143.266 711.673 144.188 712.303 146.025C717.111 147.378 722.962 156.538 725.357 160.788C727.238 164.123 731.83 172.067 730.861 175.78Z"/>
	<path fill="#FEFEFE" d="M712.303 146.025C717.111 147.378 722.962 156.538 725.357 160.788C727.238 164.123 731.83 172.067 730.861 175.78C731.465 176.899 731.648 177.477 731.461 178.755C730.704 179.843 730.522 180.158 729.248 180.679C727.235 179.121 725.562 172.46 724.409 169.957C721.331 163.28 717.274 158.448 712.914 152.713C711.46 150.801 712.006 148.256 712.303 146.025Z"/>
	<path fill="#FEFEFE" d="M678.151 153.285L680.033 150.183C682.607 149.693 687.122 152.494 689.207 153.906C697.718 159.667 703.339 169.559 705.226 179.541C705.846 182.821 706.324 186.548 705.87 189.877L704.875 191.246C703.615 191.072 703.485 190.672 702.687 189.744C700.648 178.951 698.38 168.771 688.724 162.128C687.563 161.329 686.305 160.523 684.916 160.213L684.829 159.271C683.012 156.428 681.478 154.458 678.151 153.285Z"/>
	<path fill="#2A3034" d="M684.916 160.213C687.17 163.167 687.4 168.797 687.868 172.489C688.095 174.283 688.704 176.02 688.891 177.778C689.625 184.688 689.445 192.023 689.492 198.972L689.802 225.428L689.873 236.053C689.892 237.513 689.725 239.32 690.152 240.721C690.684 242.463 690.677 244.135 690.668 245.939C690.62 255.528 691.162 268.575 686.668 277.344C685.942 278.761 683.182 281.822 681.931 283.04C680.128 284.795 678.067 286.3 675.442 286.201C674.425 286.162 673.074 285.043 672.425 284.303C664.958 275.799 665.54 261.602 665.567 251.019L667.389 208.261C667.645 196.597 666.489 184.823 667.141 173.207C667.47 167.339 667.749 158.95 672.524 154.813C674.423 153.168 675.706 153.129 678.151 153.285C681.478 154.458 683.012 156.428 684.829 159.271L684.916 160.213Z"/>
	<path fill="#EC5E31" d="M676.18 277.764C675.671 277.705 675.055 277.427 674.561 277.264C671.143 273.955 670.435 268.026 670.067 263.492C668.654 246.089 671.144 228.773 671.501 211.399C671.781 197.719 670.177 183.409 671.516 169.828C671.752 167.438 672.528 164.721 674.162 162.904C675.377 161.553 676.285 161.435 677.979 161.314C679.208 161.907 679.962 162.499 680.842 163.559C681.705 164.599 681.673 164.58 681.551 165.925C679.133 167.595 677.524 169.773 677.004 172.711C676.048 178.125 676.49 184.315 676.585 189.815L676.763 215.686C676.519 229.73 674.74 243.695 674.881 257.763L675.5 269.763C675.723 272.017 677.196 275.824 676.18 277.764Z"/>
	<path fill="#838383" d="M676.18 277.764C677.196 275.824 675.723 272.017 675.5 269.763L674.881 257.763C674.74 243.695 676.519 229.73 676.763 215.686L676.585 189.815C676.49 184.315 676.048 178.125 677.004 172.711C677.524 169.773 679.133 167.595 681.551 165.925C684.371 168.646 683.978 176.079 684.046 179.854L684.581 211.841C684.72 216.286 685.517 220.67 685.686 225.108C685.995 233.22 685.534 241.458 685.262 249.572C684.983 257.903 684.966 269.855 678.874 276.26C678.061 277.114 677.351 277.584 676.18 277.764Z"/>
	<path fill="#2A3034" d="M334.6 310.865C328.407 307.225 322.659 300.213 319.341 293.985C314.96 285.765 312.983 276.048 311.016 267.015C308.737 256.548 306.475 245.278 305.799 234.578C304.436 212.995 308.276 190.486 314.504 169.852C319.747 152.477 325.439 130.136 342.711 120.968C353.733 115.118 368.717 115.892 380.302 119.506C389.169 122.273 397.05 127.195 403.783 133.546C405.22 134.902 407.182 136.465 408.099 138.213C409.458 138.739 411.972 139.904 412.487 141.392L412.525 141.594C414.825 142.199 416.523 144 418.205 145.597C423.545 150.666 428.176 156.413 431.902 162.768C440.585 177.581 442.932 193.341 438.471 209.91C436.947 215.569 433.04 220.324 427.987 223.197C423.956 225.49 418.056 227.262 413.412 227.218C415.083 228.42 419.484 231.435 419.907 233.534L419.957 233.857C422.483 234.306 423.956 236.559 425.537 238.402L425.692 239.3C431.218 249.964 429.226 260.476 425.781 271.368C419.987 289.693 408.643 305.713 391.365 314.665C383.917 318.525 374.627 321.573 366.145 321.188C363.405 321.063 360.844 320.338 358.154 319.973C354.425 319.467 350.884 319.375 347.25 318.214C345.521 317.661 343.723 316.965 341.941 316.63C339.389 314.818 336.851 313.053 334.6 310.865ZM412.525 141.594C424.076 157.112 433.195 173.197 430.237 193.351C429.083 201.217 426.941 208.787 420.229 213.696C414.452 217.921 407.345 218.97 400.414 219.721C389.861 220.864 376.25 221.511 367.559 228.146C364.398 230.558 362.404 233.595 361.726 237.575C360.296 245.963 363.53 255.436 366.907 262.995C369.698 262.819 371.052 261.908 373.164 260.206C379.181 251.756 380.974 240.679 386.603 231.731C388.579 229.984 390.536 228.104 392.92 226.927C399.931 223.466 406.344 224.808 413.412 227.218C418.056 227.262 423.956 225.49 427.987 223.197C433.04 220.324 436.947 215.569 438.471 209.91C442.932 193.341 440.585 177.581 431.902 162.768C428.176 156.413 423.545 150.666 418.205 145.597C416.523 144 414.825 142.199 412.525 141.594Z"/>
	<path fill="#EC5E31" d="M419.957 233.857C422.483 234.306 423.956 236.559 425.537 238.402L425.692 239.3C431.218 249.964 429.226 260.476 425.781 271.368C419.987 289.693 408.643 305.713 391.365 314.665C383.917 318.525 374.627 321.573 366.145 321.188C363.405 321.063 360.844 320.338 358.154 319.973C354.425 319.467 350.884 319.375 347.25 318.214C345.521 317.661 343.723 316.965 341.941 316.63C339.389 314.818 336.851 313.053 334.6 310.865C338.244 311.63 341.702 313.5 345.413 314.336C349.239 315.197 353.159 314.993 356.964 316.033C359.57 316.746 362.643 316.543 365.311 316.293C374.027 315.477 382.075 312.389 389.604 308.013C406.713 298.07 417.188 279.922 422.097 261.178C424.547 251.823 425.021 242.485 419.957 233.857Z"/>
	<path fill="#EC5E31" d="M408.099 138.213C409.458 138.739 411.972 139.904 412.487 141.392L412.525 141.594C424.076 157.112 433.195 173.197 430.237 193.351C429.083 201.217 426.941 208.787 420.229 213.696C414.452 217.921 407.345 218.97 400.414 219.721C389.861 220.864 376.25 221.511 367.559 228.146C364.398 230.558 362.404 233.595 361.726 237.575C360.296 245.963 363.53 255.436 366.907 262.995C365.474 262.41 364.158 261.099 363.154 259.934C357.682 253.586 355.679 241.108 356.422 232.99C356.664 230.35 357.944 227.922 359.617 225.906C362.127 222.879 365.667 221.082 369.276 219.709C380.683 215.37 392.847 216.363 404.477 213.6C408.495 212.645 412.772 210.91 415.965 208.239C422.4 202.855 424.617 194.169 425.285 186.116C426.765 168.264 419.49 151.621 408.099 138.213Z"/>
	<path fill="#838383" d="M412.525 141.594C414.825 142.199 416.523 144 418.205 145.597C423.545 150.666 428.176 156.413 431.902 162.768C440.585 177.581 442.932 193.341 438.471 209.91C436.947 215.569 433.04 220.324 427.987 223.197C423.956 225.49 418.056 227.262 413.412 227.218C406.344 224.808 399.931 223.466 392.92 226.927C390.536 228.104 388.579 229.984 386.603 231.731C380.974 240.679 379.181 251.756 373.164 260.206C371.052 261.908 369.698 262.819 366.907 262.995C363.53 255.436 360.296 245.963 361.726 237.575C362.404 233.595 364.398 230.558 367.559 228.146C376.25 221.511 389.861 220.864 400.414 219.721C407.345 218.97 414.452 217.921 420.229 213.696C426.941 208.787 429.083 201.217 430.237 193.351C433.195 173.197 424.076 157.112 412.525 141.594ZM386.603 231.731C380.801 233.794 375.462 236.21 372.738 242.157C370.491 247.059 371.688 255.138 373.164 260.206C379.181 251.756 380.974 240.679 386.603 231.731Z"/>
	<path fill="#EC5E31" d="M415.283 263.747L415.551 264.957C412.95 271.77 409.304 278.617 404.941 284.451C395.482 297.096 381.246 304.948 365.723 307.208C364.993 306.801 364.196 305.773 363.545 305.495C363 305.262 360.063 305.726 359.32 305.77C349.543 306.345 339.577 305.195 331.824 298.674C320.857 289.45 317.478 274.62 314.754 261.203C313.182 253.462 311.817 245.729 311.142 237.85C310.472 230.032 311.014 222.024 311.811 214.241C313.729 195.49 318.368 177.451 324.577 159.704C327.213 152.168 330.125 143.17 335.384 137.02C341.356 130.037 349.009 126.86 358.052 126.178C373.24 125.033 388.134 129.983 399.677 139.939C410.044 148.881 419.769 164.234 420.763 178.037C421.238 184.629 420.654 192.532 416.189 197.765C412.024 202.646 404.978 204.361 398.926 205.282C385.751 207.288 366.716 206.801 357.331 217.805C352.289 223.717 351.142 232.183 351.794 239.687C352.672 249.801 354.868 263.176 363.168 270.029C364.985 271.529 367.091 272.263 369.462 271.97C372.293 271.619 374.128 269.706 375.907 267.688C380.155 262.867 382.427 257.878 384.604 251.899C386.116 247.748 387.716 242.437 390.47 238.945C393.055 235.667 396.904 234.501 400.894 234.088C405.456 233.617 410.558 234.79 414.138 237.747C417.444 240.477 418.932 244.012 419.289 248.226C419.537 251.16 419.269 254.265 417.372 256.477C417.821 258.447 417.49 261.055 416.316 262.815C416.065 263.192 415.655 263.497 415.283 263.747Z"/>
	<path fill="#FEFEFE" d="M415.283 263.747C413.535 262.175 413.77 258.58 413.285 256.381C412.633 253.431 410.265 249.884 407.471 248.696C405.927 248.04 404.322 248.061 402.855 247.131C402.367 246.035 402.029 244.989 401.944 243.782C401.819 241.991 402.473 241.124 403.564 239.854C404.224 239.66 404.884 239.531 405.573 239.643C408.756 240.158 411.998 242.717 413.8 245.335C415.737 248.151 417.991 253.023 417.372 256.477C417.821 258.447 417.49 261.055 416.316 262.815C416.065 263.192 415.655 263.497 415.283 263.747Z"/>
	<path fill="#FEFEFE" d="M374.846 132.237L378.021 132.231C385.956 133.016 394.645 140.909 399.45 146.769C402.123 150.028 406.91 156.603 406.209 161.172C405.92 163.056 405.338 163.407 403.882 164.415C402.857 163.543 402.184 161.82 401.513 160.631C400.173 158.256 398.808 155.929 397.132 153.772C391.22 146.163 384.384 141.626 374.822 140.415C373.729 139.289 373.455 138.434 373.224 136.885C372.944 135.011 373.777 133.69 374.846 132.237Z"/>
	<path fill="#2A3034" d="M360.796 142.579C363.862 142.264 366.213 142.617 368.862 144.236C373.838 147.277 377.09 152.986 377.744 158.717C377.996 160.923 377.726 163.177 378.271 165.344C378.572 166.541 378.7 167.526 378.673 168.757C378.478 177.721 374.802 182.758 368.518 188.718C367.316 189.405 364.324 190.778 362.983 190.519C360.713 190.08 357.543 189.663 356.201 187.59C353.504 183.423 353.401 178.169 353.109 173.394C352.699 166.692 352.223 159.908 353.774 153.298C354.878 148.593 356.621 145.179 360.796 142.579Z"/>
	<path fill="#EC5E31" d="M363.495 181.544C362.506 181.424 361.521 181.313 360.565 181.024C359.612 180.735 359.166 180.413 358.723 179.487C358.076 178.135 357.96 175.9 357.789 174.395C357.205 169.265 356.414 161.156 358.252 156.367L358.379 156.044C358.824 154.888 359.288 153.654 360.255 152.825C361.341 151.894 362.867 151.586 364.261 151.71C367.306 151.98 369.216 154.103 371.094 156.256C368.93 156.345 366.759 156.208 365.197 157.955C361.434 162.163 362.445 171.567 362.86 176.851L363.495 181.544Z"/>
	<path fill="#838383" d="M371.094 156.256C374.181 161.677 373.865 165.551 372.275 171.415C371.3 175.011 369.587 178.414 366.211 180.298L363.495 181.544L362.86 176.851C362.445 171.567 361.434 162.163 365.197 157.955C366.759 156.208 368.93 156.345 371.094 156.256Z"/>
	<path fill="#2A3034" d="M172.816 314.757C170.456 313.19 168.404 311.346 166.401 309.348C160.069 303.036 156.742 294.351 154.838 285.754C152.344 274.492 151.928 262.818 151.41 251.33L150.18 194.119L148.435 144.927C148.455 130.472 150.657 117.592 155.102 103.838C157.417 96.6754 159.913 89.5258 165.401 84.1122C170.036 79.5403 176.185 77.0293 182.725 77.1221C192.061 77.2547 199.127 82.4648 205.363 88.8467L210.474 93.4413C217.111 96.987 221.517 101.963 223.734 109.23C224.773 112.634 225.183 116.131 225.68 119.643C236.599 116.764 248.453 114.629 258.787 120.616C263.758 123.496 267.287 127.754 271.541 131.465L274.818 134.003C276.228 136.86 278.204 139.249 279.803 141.979C283.332 148.006 285.749 154.695 287.58 161.416C290.41 171.806 291.729 182.496 292.694 193.193C294.519 213.433 294.246 233.927 293.497 254.222C293.036 266.683 293.2 279.687 289.168 291.618C285.65 302.028 278.883 312.665 268.735 317.665C264.377 319.812 260.255 320.508 255.448 320.423C251.824 319.021 249.611 317.795 247.129 314.749C240.668 310.606 237.518 304.026 235.916 296.703C233.518 285.743 234.609 274.469 235.121 263.389L237.645 208.329C237.956 194.719 238.692 179.613 234.552 166.535C230.986 166.635 227.782 167.076 224.287 167.728L223.98 214.376L224.618 274.896C224.312 283.208 224.046 292.099 222.403 300.257C220.65 308.957 217.152 318.039 210.723 324.371C207.181 327.859 202.839 329.981 197.77 329.863C191.096 329.707 185.11 325.779 180.681 321.038L180.267 320.586C177.514 318.853 174.947 317.265 172.816 314.757Z"/>
	<path fill="#EC5E31" d="M205.363 88.8467L210.474 93.4413C212.185 97.3331 213.849 101.154 214.684 105.349C215.883 111.378 215.524 118.026 215.412 124.157L209.89 127.416C209.871 118.489 211.081 109.357 209.393 100.511C208.614 96.4315 206.969 92.6525 205.363 88.8467Z"/>
	<path fill="#838383" d="M210.474 93.4413C217.111 96.987 221.517 101.963 223.734 109.23C224.773 112.634 225.183 116.131 225.68 119.643L215.412 124.157C215.524 118.026 215.883 111.378 214.684 105.349C213.849 101.154 212.185 97.3331 210.474 93.4413Z"/>
	<path fill="#EC5E31" d="M247.129 314.749C250.191 315.572 253.603 315.945 256.739 315.301C265.795 313.443 273.175 306.77 278.093 299.177C282.114 292.971 284.634 285.864 286.068 278.632C287.823 269.786 287.841 260.46 288.212 251.463C289.427 221.973 290.18 189.884 283.386 160.951C281.931 154.757 280.031 148.539 277.411 142.734C275.989 139.584 272.162 134.879 271.578 131.719L271.541 131.465L274.818 134.003C276.228 136.86 278.204 139.249 279.803 141.979C283.332 148.006 285.749 154.695 287.58 161.416C290.41 171.806 291.729 182.496 292.694 193.193C294.519 213.433 294.246 233.927 293.497 254.222C293.036 266.683 293.2 279.687 289.168 291.618C285.65 302.028 278.883 312.665 268.735 317.665C264.377 319.812 260.255 320.508 255.448 320.423C251.824 319.021 249.611 317.795 247.129 314.749Z"/>
	<path fill="#EC5E31" d="M172.816 314.757C175.869 315.823 179.062 317.097 182.327 317.183C187.183 317.31 191.6 315.323 195.061 311.969C201.613 305.62 205.232 296.435 207.025 287.642C208.122 282.264 208.366 276.591 208.807 271.129C210.525 249.87 209.171 228.373 208.685 207.085L209.008 155.027C212.62 154.344 216.053 153.6 219.763 154.001C224.881 154.554 228.087 156.038 231.373 160.061C226.83 158.762 218.961 157.473 214.652 159.758L214.286 160.028L214.005 213.483L214.502 267.408C214.162 276.298 213.788 285.588 211.867 294.294C210.089 302.355 206.319 310.966 200.255 316.718C196.715 320.077 192.438 322.071 187.494 321.925C185.032 321.852 182.638 321.205 180.267 320.586C177.514 318.853 174.947 317.265 172.816 314.757Z"/>
	<path fill="#838383" d="M180.267 320.586C182.638 321.205 185.032 321.852 187.494 321.925C192.438 322.071 196.715 320.077 200.255 316.718C206.319 310.966 210.089 302.355 211.867 294.294C213.788 285.588 214.162 276.298 214.502 267.408L214.005 213.483L214.286 160.028L214.652 159.758C218.961 157.473 226.83 158.762 231.373 160.061C232.61 162.185 233.696 164.226 234.552 166.535C230.986 166.635 227.782 167.076 224.287 167.728L223.98 214.376L224.618 274.896C224.312 283.208 224.046 292.099 222.403 300.257C220.65 308.957 217.152 318.039 210.723 324.371C207.181 327.859 202.839 329.981 197.77 329.863C191.096 329.707 185.11 325.779 180.681 321.038L180.267 320.586Z"/>
	<path fill="#EC5E31" d="M179.076 86.007L183.73 85.9149C189.648 85.9998 196.294 88.9851 200.385 93.2417C207.508 100.654 206.278 113.222 205.786 122.696L205.107 140.007C215.165 132.145 225.179 127.289 237.906 125.379C245.994 124.165 254.161 125.892 260.762 130.808C273.176 140.052 279.149 157.234 281.327 172.047C284.9 196.359 285.018 221.507 284.341 246.025C284.078 255.557 284.03 265.875 282.212 275.229C280.904 281.957 278.742 288.501 274.581 294.039C270.143 299.944 263.278 306.14 255.649 307.122C252.557 307.519 249.02 307.406 246.492 305.364C242.592 302.214 240.7 297.878 239.992 292.998C239.007 286.211 239.774 278.152 240.256 271.306L241.197 250.794C242.9 226.927 243.943 202.504 241.673 178.636C241.065 173.933 240.354 169.058 238.926 164.528C236.922 158.173 233.801 150.968 227.593 147.784C221.53 144.674 214.143 144.969 207.778 147.024C207.48 147.12 205.122 147.926 205.073 148.028C204.827 148.543 204.954 150.434 204.927 151.067L204.677 162.97L204.56 204.925L205.302 242.084L204.999 265.813C204.592 276.241 203.719 287.755 198.901 297.157C196.438 301.963 191.9 306.783 186.601 308.415C182.681 309.623 176.735 307.739 173.236 305.899C166.466 302.337 162.511 294.762 160.364 287.728C156.931 276.478 156.968 264.234 156.504 252.562L155.268 188.034C154.517 169.025 152.549 150.02 154.741 131.016C155.572 123.813 157.685 117.122 159.906 110.265C161.465 105.45 162.785 100.975 165.198 96.4679C168.359 90.5619 172.842 87.8968 179.076 86.007Z"/>
	<path fill="#FEFEFE" d="M180.973 96.0464C183.535 96.247 185.078 96.7584 187.165 98.3082C192.81 102.5 196.787 109.047 197.779 116.011C198.154 118.64 198.006 119.946 196.385 122.12C194.026 120.261 193.735 117.764 192.617 115.047C191.438 112.178 189.711 109.312 187.348 107.265C185.341 105.525 183.07 105.478 181.101 104.12C180.095 103.426 179.879 102.847 179.667 101.663C179.265 99.4214 179.717 97.8949 180.973 96.0464Z"/>
	<path fill="#FEFEFE" d="M254.461 134.048C255.442 134.327 256.368 134.664 257.241 135.201C264.166 139.463 268.59 150.679 270.485 158.207C271.52 162.321 272.105 164.576 269.837 168.353C267.107 167.017 266.639 161.484 265.733 158.626C264.89 155.966 263.848 153.344 262.479 150.909C259.996 146.494 257.123 144.718 253.699 141.339C252.688 138.348 253.218 136.806 254.461 134.048Z"/>
</svg>
