<?xml version="1.0" encoding="utf-8" ?>
<svg xmlns="http://www.w3.org/2000/svg" xmlns:xlink="http://www.w3.org/1999/xlink" width="100" height="100">
	<path fill="#283034" transform="matrix(0.1 0 0 0.1 -4.76837e-07 0)" d="M503.4 112.402C509.63 112.363 514.519 112.513 519.74 116.513C526.571 121.746 530.634 129.871 531.64 138.329C535.653 172.061 506.489 202.864 487.208 227.433C510.294 215.319 536.066 207.845 561.426 202.171C613.073 190.613 666.89 186.627 719.727 187.905C747.83 188.584 775.956 190.466 803.787 194.548C831.331 198.587 858.736 204.242 885.169 213.072C901.783 218.623 918.525 225.507 933.233 235.137C941.194 240.349 949.515 246.799 955.161 254.519C957.12 257.196 959.309 260.571 960.296 263.739C961.047 266.148 960.75 269.5 960.824 272.048C960.893 274.42 961.316 276.703 961.463 279.053C961.836 285.003 960.623 291.238 960.698 297.292L961.264 373.177L962.934 596.436L964.022 724.915L964.347 752.319C964.372 755.529 964.885 759.771 964.277 762.868C963.768 765.459 962.157 768.211 960.791 770.449C955.061 779.842 945.442 787.45 936.307 793.349C916.863 805.906 894.359 813.953 872.19 820.267C831.475 831.861 789.012 837.202 746.826 839.51C687.372 842.764 626.327 839.454 568.049 826.832C563.989 835.652 558.45 841.426 551.309 847.797L537.269 857.666C515.92 870.572 491.456 878.762 467.396 884.954C416.082 898.16 362.338 902.964 309.456 902.819C258.442 902.678 206.971 897.966 157.398 885.591C131.203 879.052 104.359 870.154 81.543 855.471C71.9748 849.314 62.754 841.8 56.7539 832.014C56.3958 831.43 56.0062 830.849 55.8301 830.176C55.0926 827.357 55.4723 823.38 55.4316 820.383C55.3471 814.166 54.8758 807.698 55.2957 801.514C55.4772 798.84 56.0949 796.311 56.1113 793.603L55.4244 724.448L53.1894 437.461L52.4785 364.665C52.2829 351.407 51.1134 337.406 52.1339 324.219C52.2397 322.852 52.8546 321.778 53.5317 320.607C60.1318 309.186 72.6488 300.299 83.8453 293.78C110.613 278.194 141.716 269.4 171.875 263.085C212.901 254.495 255.267 250.375 297.174 250.003C324.808 249.757 352.569 250.488 380.061 253.465C380.458 253.508 380.927 253.829 381.25 253.595C382.545 252.658 384.77 247.987 385.798 246.354L404.49 216.7C415.293 199.801 426.921 184.03 439.353 168.293C445.942 159.953 452.495 151.489 459.663 143.632C471.384 130.785 486.275 116.97 503.4 112.402Z"/>
	<path fill="#00BFD3" transform="matrix(0.1 0 0 0.1 -4.76837e-07 0)" d="M676.034 200.405C684.918 199.404 694.765 199.989 703.739 199.973C744.957 199.903 786.433 202.757 827.035 210.052C860.346 216.037 923.656 230.457 943.59 259.542C947.623 265.427 949.986 272.674 948.5 279.82C946.071 291.506 936.387 300.175 926.906 306.546C905.096 321.203 877.949 329.225 852.567 335.179C820.273 342.755 787.256 346.848 754.187 349.013C690.883 353.158 627.15 349.503 564.927 337.084L564.468 325.216L564.373 324.488C638.083 341.576 715.957 342.834 790.901 334.121C819.609 330.413 848.594 325.165 875.906 315.336C887.033 311.332 898.37 306.561 908.167 299.861C916.267 294.322 925.014 286.627 926.618 276.368C927.61 270.027 925.348 263.846 921.558 258.812C901.296 231.9 836.97 219.07 804.891 214.364C760.765 207.891 716.252 206.133 671.715 208.025C630.534 209.775 588.297 214.643 548.669 226.307C531.624 231.324 512.792 237.817 498.491 248.6C489.572 255.326 483.874 261.823 482.247 273.068L461.537 267.169C463.359 262.921 465.693 258.98 468.785 255.529C479.724 243.32 495.587 235.507 510.598 229.463C527.036 222.843 544.256 218.094 561.523 214.216C599.281 205.737 637.472 202.32 676.034 200.405Z"/>
	<path fill="#B55926" transform="matrix(0.1 0 0 0.1 -4.76837e-07 0)" d="M505.104 127.545C509.274 127.184 512.527 127.523 516.197 129.747C519.94 132.016 522.85 135.558 523.833 139.884C525.881 148.902 519.979 162.035 515.64 169.73C510.299 179.2 503.54 187.657 496.887 196.213L476.831 222.259C454.061 251.85 431.765 281.45 411.834 313.061C402.709 313.019 393.167 311.212 384.18 309.717C376.146 307.981 368.608 305.67 361.118 302.279C372.793 286.85 382.277 270.256 392.744 254.051L444.838 179.904C456.208 165.248 467.768 150.484 482.75 139.301C489.608 134.182 497.06 130.408 505.104 127.545Z"/>
	<path fill="#FE3DE4" transform="matrix(0.1 0 0 0.1 -4.76837e-07 0)" d="M289.051 262.451L373.942 264.909C373.059 266.186 370.045 271.533 368.993 272.072C368.676 272.234 365.036 271.667 364.502 271.623L345.688 270.39C324.907 269.12 303.872 269.447 283.071 269.955C257.165 270.587 230.931 273.119 205.342 277.151C178.817 281.332 151.884 287.19 127.04 297.597C113.243 303.376 93.9927 312.844 88.3046 327.64C86.2371 333.017 86.2174 339.241 88.7097 344.494C97.0756 362.127 122.227 372.235 139.559 378.244C174.641 390.408 212.372 396.069 249.263 399.115C310.337 404.159 374.161 402.384 434.31 389.996C456.306 385.465 478.36 379.783 498.654 369.94C510.516 364.187 525.869 355.177 530.181 341.797C532.06 335.966 531.203 330.369 528.389 325.058C518.02 305.489 485.03 294.716 465.07 288.54L444.91 283.423L450.195 276.107C471.092 280.903 491.599 286.415 511.183 295.337C521.155 299.88 531.036 305.236 539.307 312.501C546.439 318.767 552.802 326.767 553.103 336.67C553.345 344.62 549.645 351.858 544.429 357.616C535.694 367.257 523.494 374.002 511.806 379.404C494.034 387.619 475.067 393.066 456.051 397.512C420.996 405.709 385.28 409.874 349.365 411.793C305.151 414.155 260.489 412.783 216.553 407.233C186.89 403.486 157.042 397.877 128.66 388.335C110.62 382.27 91.3986 374.396 77.1461 361.433C70.5999 355.479 64.7256 347.073 64.5132 337.905C64.3262 329.832 68.7149 322.401 74.055 316.68C84.9784 304.976 100.836 297.325 115.542 291.454C138.093 282.45 162.002 276.731 185.852 272.453C220.015 266.325 254.385 263.501 289.051 262.451Z"/>
	<path fill="#D6CD8D" transform="matrix(0.1 0 0 0.1 -4.76837e-07 0)" d="M949.402 303.955L950.178 304.222L935.141 415.015C933.644 414.221 932.303 413.569 930.664 413.127C919.436 415.296 919.975 451.052 911.07 458.911C910.032 459.827 908.872 460.291 907.471 460.118C905.602 459.888 903.462 458.041 902.38 456.552C900.187 453.533 898.77 449.107 897.241 445.682C892.572 435.22 887.309 423.724 879.461 415.287C875.963 411.526 871.326 407.701 865.943 407.636C856.72 407.525 849.453 416.075 844.633 423.131C839.545 430.579 835.869 439.36 832.111 447.54L816.127 480.466C812.117 487.845 807.374 495.789 801.233 501.591C797.908 504.732 793.231 507.854 788.473 507.548C785.196 507.337 782.072 505.693 779.672 503.502C775.887 500.046 772.838 495.057 769.815 490.925C760.606 478.34 751.719 465.575 743.908 452.063C739.221 443.955 735.682 434.308 729.152 427.49C725.884 424.079 721.952 421.708 717.074 423.013C713.368 424.005 710.54 426.996 707.665 429.354C698.838 436.595 688.029 443.004 676.291 442.736C664.68 441.293 657.283 433.199 649.801 425.056C644.368 419.143 638.959 412.966 632.646 407.969C625.596 402.388 614.704 396.132 605.388 397.281L604.492 397.402C590.766 399.165 578.588 409.223 565.455 413.534L564.908 364.149L564.844 354.791C564.837 353.565 564.572 351.914 565.111 350.807L684.817 364.078C727.844 364.988 770.954 362.864 813.477 355.991C837.951 352.035 862.341 346.752 885.842 338.76C908.886 330.924 931.626 321.004 949.402 303.955Z"/>
	<path fill="#F3F2DD" transform="matrix(0.1 0 0 0.1 -4.76837e-07 0)" d="M747.595 381.462L748.009 381.406C749.659 381.202 751.55 381.071 753.174 381.486C755.737 382.142 758.032 384.225 759.899 386.019C772.545 398.167 777.877 418.349 783.127 434.57C784.544 438.945 785.965 443.327 787.759 447.565C788.54 449.412 788.91 450.797 790.527 452.06C796.076 449.605 798.727 437.986 800.856 432.617C801.473 431.063 802.263 428.626 803.583 427.581C804.425 426.915 804.665 427.197 805.664 427.317C806.745 428.155 807.569 428.878 808.111 430.166C810.907 436.803 806.022 445.431 803.454 451.539C801.587 455.885 799.804 461.279 796.351 464.608C794.85 466.056 792.405 467.405 790.249 467.205C787.455 466.945 784.534 462.92 783.348 460.684C780.215 454.777 779.085 448.46 777.133 442.143C775.732 437.609 773.849 433.299 772.224 428.852C768.867 419.666 765.555 409.326 759.399 401.58C757.55 399.253 754.769 396.647 751.652 396.443C749.114 396.277 747.3 397.38 745.48 399.012L744.385 399.993C743.132 401.033 742.823 401.251 741.183 401.123C740.418 400.391 739.647 399.651 739.186 398.682C737.872 395.924 737.726 392.001 738.819 389.16C740.379 385.107 743.882 383.162 747.595 381.462Z"/>
	<path fill="#FE8B26" transform="matrix(0.1 0 0 0.1 -4.76837e-07 0)" d="M300.448 278.549L362.757 280.301C362.75 281.941 352.775 293.621 350.976 295.791L344.98 290.549C344.376 289.958 343.837 290.136 343.018 290.078C341.418 291.323 340.764 292.758 340.37 294.739C339.687 298.181 340.449 301.192 342.451 304.026C345.325 308.099 349.73 310.942 353.978 313.375C363.847 319.025 374.592 322.681 385.728 324.872C398.257 327.336 410.749 328.224 423.484 328.616C426.253 328.701 431.897 329.591 434.062 327.881C435.45 326.784 435.859 324.132 435.934 322.51C436.076 319.455 435.316 316.558 433.253 314.29C430.753 313.126 426.795 313.547 424.006 313.52L439.88 290.683C451.764 293.126 463.612 296.369 475.098 300.262C486.11 303.994 497.531 308.688 506.919 315.68C512.841 320.091 518.476 325.848 519.394 333.531C519.981 338.446 517.543 343.197 514.58 346.927C494.521 372.179 423.366 383.277 391.985 386.827L341.175 390.706C302.234 392.612 262.331 391.025 223.644 386.296C196.696 383.002 169.227 378.245 143.555 369.216C131.238 364.884 118.162 359.525 108.43 350.559C104.085 346.556 100.286 341.08 100.216 334.961C100.153 329.368 103.449 324.192 107.249 320.314C116.28 311.095 130.118 305.39 142.068 301.121C160.709 294.46 180.197 290.184 199.696 286.922C233.031 281.345 266.682 279.106 300.448 278.549Z"/>
	<path fill="#FED7B5" transform="matrix(0.1 0 0 0.1 -4.76837e-07 0)" d="M257.142 296.611L286.297 296.263C290.687 296.234 296.76 295.545 300.986 296.608C302.623 297.019 304.022 298.278 304.746 299.79C305.904 302.208 305.871 306.881 304.681 309.326C302.934 312.92 299.378 311.565 296.116 311.332C278.801 310.094 260.764 311.326 243.408 311.938C225.76 312.56 207.711 312.614 190.224 315.174C181.292 316.482 172.891 318.627 164.406 321.69C158.406 324.295 152.898 327.269 147.795 331.403C145.079 333.603 140.636 339.953 137.695 340.787L136.446 340.057C134.629 338.734 134.018 335.737 133.845 333.635C133.528 329.781 135.408 326.039 137.939 323.239C164.989 293.317 220.123 298.003 257.142 296.611Z"/>
	<path fill="#D6CD8D" transform="matrix(0.1 0 0 0.1 -4.76837e-07 0)" d="M684.424 216.529C723.265 215.475 762.376 217.09 800.879 222.439C823.376 225.564 845.888 229.771 867.505 236.86C880.993 241.283 895.523 246.825 906.291 256.375C910.529 260.133 914.807 265.435 915.095 271.307C915.388 277.275 912.957 282.068 908.991 286.369C900.929 295.11 888.344 300.733 877.433 304.926C859.982 311.634 841.649 315.903 823.292 319.283C791.777 325.086 759.884 327.654 727.888 328.701C709.95 329.632 691.77 329.162 673.828 328.405C646.599 327.256 619.245 324.803 592.379 320.123L557.617 312.566C556.689 312.344 555.915 312.222 555.126 311.636C552.597 309.758 550.432 307.215 548.026 305.161C543.299 301.124 538.054 297.642 532.726 294.453C525.286 290 517.4 286.241 509.421 282.863C505.399 281.161 500.558 279.949 496.927 277.588C496.365 276.21 496.102 275.12 496.041 273.621C495.81 267.971 498.386 263.096 502.163 259.033C511.171 249.343 524.952 243.541 537.193 239.102C556.48 232.107 576.71 227.776 596.924 224.472C625.954 219.726 655.054 217.596 684.424 216.529Z"/>
	<path fill="#F3F2DD" transform="matrix(0.1 0 0 0.1 -4.76837e-07 0)" d="M681.589 231.647C683.778 231.494 685.973 231.18 688.129 231.689C689.026 232.359 689.624 232.882 690.131 233.901C691.643 236.94 691.515 240.739 690.398 243.896C689.29 247.029 686.531 246.535 683.846 246.673L647.855 248.858C619.776 250.273 587.972 249.808 561.996 261.721C551.464 266.551 544.55 273.604 540.558 284.527C540.043 285.934 539.73 286.548 538.574 287.581C537.324 287.679 536.736 287.935 535.759 286.993C534.427 285.708 533.888 283.528 533.718 281.765C532.963 273.929 538.006 265.338 542.752 259.462C548.673 252.131 555.717 248.599 564.321 245.227C591.275 234.662 620.929 235.147 649.411 234.002L681.589 231.647Z"/>
	<path fill="#FE8B26" transform="matrix(0.1 0 0 0.1 -4.76837e-07 0)" d="M556.568 363.094C557.131 368.104 556.822 373.555 556.872 378.622L557.054 410.242L557.163 437.475C557.179 442.534 557.555 447.86 556.958 452.883C555.872 462.02 553.459 471.657 550.838 480.469C549.622 484.554 548.481 489.048 546.708 492.92C546.181 494.072 545.835 494.548 544.678 495.042C541.433 492.921 540.095 487.215 538.86 483.709C536.346 476.574 533.646 466.882 527.873 461.67C526.081 460.052 524.264 459.191 521.835 459.311C515.191 459.64 508.164 468.819 505.684 474.48C500.989 485.197 498.963 497.977 496.567 509.437C493.391 524.632 490.1 540.208 485.211 554.941C483.042 561.478 480.417 569.453 475.526 574.487C473.83 576.231 471.467 577.825 468.933 577.683C454.422 576.87 444.454 533.264 439.749 521.505C437.249 515.257 433.969 508.503 429.196 503.658C425.854 500.266 421.901 497.911 417.007 497.957C406.259 498.058 397.811 509.136 393.41 517.866C389.579 525.465 387.309 534.103 385.091 542.294C379.176 564.142 375.703 586.438 371.298 608.612C368.135 624.532 364.528 642.015 358.265 657.029C355.599 663.42 351.69 670.055 346.716 674.92C343.581 677.985 338.955 681.114 334.366 680.853C315.957 679.806 311.035 631.779 308.852 617.544L303.988 588.776C301.317 575.106 298.14 561.141 292.94 548.187C290.253 541.494 286.973 534.61 282.09 529.217C278.772 525.552 274.615 522.609 269.531 522.382C261.296 522.014 252.484 529.127 247.72 535.4C243.377 541.119 240.22 548.261 237.202 554.758C229.881 570.519 223.575 586.828 215.415 602.188C211.565 609.435 207.308 617.257 201.122 622.776C198.654 624.978 195.116 627.155 191.662 626.787C188.774 626.479 187.177 624.966 185.476 622.766C178.206 611.677 175.796 597.339 173.769 584.461L167.61 533.97C166.053 521.214 164.051 508.334 160.416 495.991C157.712 486.809 153.449 475.983 145.806 469.747C143.712 468.039 141.529 468.001 138.916 468.384C114.126 472.015 112.102 533.699 97.8624 552.09C93.6426 557.54 86.8924 561.135 80.0663 561.882C72.8459 562.671 67.7543 559.295 62.4957 554.959L61.0234 365.38C113.351 415.665 239.62 427.25 310.188 426.619C350.488 426.258 390.748 423.343 430.42 416.046C451.357 412.195 472.031 407.354 492.164 400.355C508.764 394.584 525.569 387.537 540.093 377.496C546.13 373.322 551.439 368.309 556.568 363.094Z"/>
	<path fill="#FED7B5" transform="matrix(0.1 0 0 0.1 -4.76837e-07 0)" d="M167.416 452.881L168.948 452.591C170.819 453.142 172.344 454.58 173.598 456.031C177.656 460.725 179.706 466.698 181.675 472.483C188.009 491.09 190.123 510.191 193.058 529.484C194.726 540.444 197.845 552.841 196.647 563.885C196.437 565.828 196.091 567.104 194.58 568.377C193.122 568.3 192.885 568.149 191.65 567.344C189.822 562.947 189.044 557.788 188.265 553.101L184.432 521.939C183.021 511.219 180.797 500.544 178.445 489.99C177.169 484.263 175.475 478.605 172.74 473.389C170.459 469.036 165.649 466.411 165.071 461.426C165.043 461.188 165.021 460.652 165.015 460.419C164.93 457.379 165.284 455.183 167.416 452.881Z"/>
	<path fill="#00BFD3" transform="matrix(0.1 0 0 0.1 -4.76837e-07 0)" d="M951.826 344.971L952.312 345.131C952.906 347.203 952.749 349.55 952.795 351.694L952.96 363.386L953.115 403.119L954.137 535.357L955.185 675.889L955.33 731.56C955.192 737.27 955.622 743.409 954.564 749.023C951.875 763.287 942.605 774.313 930.875 782.238C914.504 793.298 895.387 800.251 876.558 805.834C849.476 813.866 821.479 818.623 793.457 821.903C748.888 827.118 703.425 827.989 658.646 825.11C628.271 823.157 598.516 819.034 568.638 813.286L566.952 644.287L565.496 428.014C576.706 424.588 586.425 418.843 597.213 414.509C629.237 401.643 644.115 445.692 668.847 456.017C682.139 461.565 698.758 451.748 709.465 444.241C712.482 442.126 715.47 438.988 718.926 437.662C719.221 437.548 720.922 436.861 721.221 436.92C722.01 437.075 723.328 438.312 724.003 438.858C732.92 446.079 736.589 459.049 742.215 468.717C744.859 473.26 748.242 477.398 751.145 481.785C758.676 493.163 770.924 515.972 783.739 521.392C786.826 522.697 790.528 522.252 793.701 521.466C810.332 517.344 818.846 495.748 825.758 481.934L844.646 443.848C848.706 436.577 854.608 426.408 862.906 423.376C866.375 422.108 869.806 422.873 872.835 424.847C888.09 434.792 891.027 468.834 904.647 474.33C907.034 475.293 909.813 475.37 912.155 474.263C914.752 473.036 916.701 470.635 918.117 468.201C923.524 458.912 925.275 447.142 928.017 436.839C928.797 433.908 929.92 431.095 931.042 428.281L931.903 428.801C934.006 430.041 934.792 430.55 937.19 429.932C940.894 426.83 941.91 421.276 942.846 416.738C946.172 400.625 945.76 383.956 947.666 367.675C948.548 360.139 950.544 352.487 951.826 344.971Z"/>
	<path fill="#C82AB2" transform="matrix(0.1 0 0 0.1 -4.76837e-07 0)" d="M521.283 474.854C529.764 473.95 534.013 497.528 536.833 503.622C537.917 505.965 539.61 508.111 541.748 509.585C543.053 510.484 544.355 510.785 545.898 510.349C552.788 508.406 555.005 495.045 557.645 489.502L559.324 709.62L559.644 789.307C559.472 796.146 560.033 803.141 558.979 809.919C557.591 818.854 552.758 828.572 546.477 835.06C535.062 846.85 518.827 854.495 503.71 860.357C483.415 868.228 462.252 873.438 440.918 877.583C401.268 885.286 360.753 888.331 320.405 888.933C289.941 889.389 259.121 887.796 228.85 884.388C196.549 880.752 164.242 874.97 133.301 864.838C114.44 858.661 93.4412 850.199 79.0519 836.074C74.0731 831.186 70.1808 825.507 68.5061 818.67C67.5809 814.892 67.3518 810.973 66.8424 807.129C66.2146 802.391 64.8986 797.716 64.5413 792.955C64.0925 786.973 64.3889 780.837 64.2683 774.833L63.9085 718.018L62.5209 571.108C69.1321 575.024 73.9891 576.838 81.7712 576.594L85.8777 575.737C107.796 569.556 112.993 541.608 118.064 522.733C120.917 512.114 123.934 500.796 129.309 491.153C131.246 487.678 134.179 483.673 138.259 482.715C139.903 482.328 141.524 482.918 142.925 483.767C147.102 486.301 150.033 491.143 151.734 495.605C155.836 506.365 157.292 518.367 158.984 529.719C163.119 557.465 164.637 586.115 171.892 613.281C174.252 622.119 178.215 635.825 186.905 640.486C189.844 642.062 193.398 642.135 196.533 641.083C200.478 639.758 204.242 637.341 207.069 634.289C213.368 627.491 217.648 618.223 221.613 609.93L240.479 568.614C245.386 558.718 253.494 541.098 264.813 537.68C268.256 536.64 271.378 537.29 274.413 539.133C278.941 541.884 281.79 546.384 284.279 550.921C288.693 558.967 291.333 567.872 293.505 576.748C297.357 592.49 299.336 608.74 301.72 624.756C303.219 634.822 304.817 644.796 307.124 654.713C310.75 670.295 316.331 686.248 330.514 695.11C334.246 695.374 337.457 695.216 341.078 694.104C366.034 686.445 374.726 630.37 378.908 608.293L386.122 571.135C389.193 556.498 392.616 540.859 399.624 527.588C402.176 522.754 407.023 515.189 412.636 513.683C433.933 507.97 439.88 551.225 444.993 564.863C448.465 574.125 454.321 585.849 463.244 590.853C466.332 592.585 469.752 593.461 473.222 592.311C491.155 586.371 499.825 528.17 503.976 510.986C506.337 501.218 509.123 490.596 513.605 481.572C515.141 478.482 517.51 476.085 520.843 474.988L521.283 474.854Z"/>
</svg>
