<?xml version="1.0" encoding="UTF-8" standalone="no"?>
<!DOCTYPE svg PUBLIC "-//W3C//DTD SVG 1.1//EN" "http://www.w3.org/Graphics/SVG/1.1/DTD/svg11.dtd">
<svg width="100%" height="100%" viewBox="0 0 100 200" version="1.1" xmlns="http://www.w3.org/2000/svg" xmlns:xlink="http://www.w3.org/1999/xlink" xml:space="preserve" xmlns:serif="http://www.serif.com/" style="fill-rule:evenodd;clip-rule:evenodd;stroke-linejoin:round;stroke-miterlimit:2;">
    <g transform="matrix(0.1,0,0,0.1,0,-1.52588e-05)">
        <path d="M632.393,213.293L641.531,213.096C643.101,213.194 649.534,213.182 650.605,213.882C650.759,213.983 654.685,224.606 655.159,225.573C666.48,248.636 679.275,270.318 688.889,294.32L699.768,322.465C702.371,329.544 704.511,337.971 709.589,343.662C714.902,349.618 718.378,357.326 720.124,365.078C720.931,368.658 720.058,375.66 722.168,378.193L729.492,378.122L741.401,364.746C787.999,316.03 861.443,311.157 923.828,298.86L952.782,292.691C958.945,291.188 966.338,288.374 972.63,288.292L973.075,288.874C977.205,294.39 977.216,301.743 976.144,308.295C972.263,332.017 954.692,351.365 941.761,370.619C928.176,390.845 916.142,411.827 901.717,431.545C886.897,451.803 870.067,468.752 852.04,486.045C836.77,500.694 821.757,514.758 804.593,527.228C804.822,539.165 802.422,549.339 800.35,560.986L793.929,601.945C787.223,653.831 786.832,706.258 792.384,758.26C794.138,774.682 797.815,789.487 804.485,804.631C808.638,814.06 813.543,823.024 818.505,832.038C823.251,840.659 828.831,849.969 829.406,860.015C830.709,882.765 816.91,897.038 802.806,912.609C806.189,918.101 813.375,923.455 818.218,927.751C832.51,940.426 847.939,952.062 860.723,966.334C871.643,978.527 881.859,993.569 880.753,1010.74C879.69,1027.26 869.712,1040.99 857.636,1051.48C833.528,1072.42 802.485,1088.83 772.022,1098.21C756.916,1102.86 740.536,1106.06 724.678,1104.14C713.806,1102.82 702.897,1098.34 693.589,1092.69C683.76,1086.72 675.095,1079.43 666.436,1071.92C662.729,1068.7 656.118,1061.11 651.924,1059.26C650.511,1058.64 643.931,1059.37 641.979,1059.4C629.385,1059.57 616.259,1060.42 603.716,1059.48C583.259,1057.95 568.883,1044.88 556.288,1030.11C400.318,1245.93 232.588,1444.51 59.514,1635.25L64.785,1440.54L74.401,1083.85C85.733,1077.98 96.466,1072.62 108.468,1068.23C107.497,1054.25 108.535,1039.59 121.756,1031.46C125.769,1029 130.872,1027.79 135.335,1026.31C136.104,1026.05 140.13,1025.04 140.512,1024.61C141.787,1023.16 142.1,1014.04 142.606,1011.72C143.63,1007.02 146.652,1002.62 150.051,999.305C155.887,993.609 163.826,989.898 171.247,986.732C174.581,985.311 183.378,982.721 185.395,980.126L184.75,976.378C181.553,947.228 218.39,944.795 237.6,934.866C238.136,934.589 241.303,933.005 241.371,932.817C241.709,931.869 241.233,928.616 241.209,927.468C241.11,922.69 241.007,918.6 243.044,914.157C245.996,907.715 251.415,902.944 257.3,899.212C259.907,897.559 274.672,890.679 275.09,889.72C275.441,888.917 275.126,885.751 275.15,884.73C275.375,875.131 278.012,868.163 286.023,862.269C295.611,855.214 309.593,854.547 317.026,845.478C315.387,842.796 313.28,839.503 312.627,836.426C311.541,831.304 312.509,826.261 315.478,821.999C321.853,812.847 335.955,811.753 346.073,810.089L342.845,782.096C321.871,798.244 299.344,807.224 274.468,815.515C249.999,823.671 224.554,830.161 198.934,833.401C185.344,835.12 171.893,836.142 158.204,836.451C147.84,836.685 135.119,837.244 126.578,830.36C123.03,827.5 121.344,823.505 121.011,819.023C120.523,812.442 122.396,806.307 126.735,801.29C130.77,796.624 135.403,794.758 141.118,792.936C159.521,787.07 179.952,788.429 199.051,787.074C249.58,783.488 299.56,757.514 332.544,719.43C333.578,718.236 336.012,716.038 336.606,714.662C337.39,712.848 335.81,703.717 335.626,701.195C290.929,713.113 245.649,721.534 199.244,721.588C186.375,721.603 172.416,721.625 159.76,719.369C153.751,718.299 147.567,715.39 144.043,710.243C141.462,706.472 140.996,702.331 141.932,697.907C143.439,690.786 149.312,686.175 155.942,683.818C173.327,677.635 196.385,679.88 214.7,679.243C233.889,678.576 252.869,677.511 271.809,674.079C293.914,670.073 313.306,662.068 332.166,649.961L330.906,625.802C307.852,620.41 285.557,612.745 264.558,601.735C224.451,580.708 193.047,549.212 173.385,508.243C165.998,492.852 160.813,476.668 155.731,460.413C175.137,438.156 197.008,420.816 226.343,414.077C269.544,404.154 314.584,422.766 350.704,445.248L350.598,439.672C350.803,423.805 356.014,408.769 367.459,397.661L365.349,275.769C382.941,262.783 406.842,253.59 428.944,254.88C431.319,255.019 441.711,255.953 443.17,257.424C444.659,258.925 445.584,264.131 446.224,266.265L453.697,289.249L473.289,341.678C474.109,343.85 476.469,352.462 477.838,353.742C478.827,354.668 483.037,355.836 484.496,356.501C490.849,359.396 496.028,363.235 500.68,368.41L524.273,368.019C525.111,368.005 529.074,368.266 529.636,367.93C531.263,366.957 534.329,361.076 536.075,359.216C545.014,349.689 560.89,341.51 573.357,337.624L570.689,225.704C590.805,218.154 611.023,214.886 632.393,213.293ZM405.829,714.907L392.923,774.652L421.141,772.188L436.003,771.327C430.858,763.351 426.143,755.383 422.873,746.436C421.299,742.129 419.828,728.927 417.041,726.206L405.829,714.907Z" style="fill:rgb(40,48,52);fill-rule:nonzero;"/>
    </g>
    <g transform="matrix(0.1,0,0,0.1,0,-1.52588e-05)">
        <path d="M381.885,687.012C383.4,686.43 384.06,686.269 385.661,686.528L390.916,694.959L383.016,713.479L379.573,719.238C378.153,716.856 378.71,713.487 378.719,710.71C378.742,703.356 378.579,695.954 379.135,688.617L381.885,687.012Z" style="fill:rgb(115,77,10);fill-rule:nonzero;"/>
    </g>
    <g transform="matrix(0.1,0,0,0.1,0,-1.52588e-05)">
        <path d="M376.467,296.815L376.204,289.551C378.096,288.035 380.195,286.938 382.334,285.821C397.429,277.937 420.542,271.609 437.399,276.908L441.129,287.396C419.52,283.322 395.202,284.157 376.467,296.815Z" style="fill:rgb(0,144,23);fill-rule:nonzero;"/>
    </g>
    <g transform="matrix(0.1,0,0,0.1,0,-1.52588e-05)">
        <path d="M352.005,879.732L354.98,877.493C359.524,882.848 360.516,919.747 359.903,927.405C359.099,937.437 356.649,955.644 348.88,962.422C345.279,965.563 340.624,966.054 336.042,966.233C349.17,947.547 357.285,924.495 355.639,901.594C355.122,894.408 353.148,886.879 352.005,879.732Z" style="fill:rgb(254,232,94);fill-rule:nonzero;"/>
    </g>
    <g transform="matrix(0.1,0,0,0.1,0,-1.52588e-05)">
        <path d="M397.07,706.543C397.597,707.065 397.974,707.862 398.367,708.496C395.394,730.672 392.199,756.856 382.973,777.389L380.371,777.993C379.409,772.977 379.621,767.084 379.388,761.944C379.09,755.373 377.969,747.469 379.969,741.131C381.324,736.839 384.257,732.993 386.359,729.009L397.07,706.543Z" style="fill:rgb(115,77,10);fill-rule:nonzero;"/>
    </g>
    <g transform="matrix(0.1,0,0,0.1,0,-1.52588e-05)">
        <path d="M580.442,250.381C580.486,247.129 579.708,244.499 582.031,242.12C602.563,235.677 623.798,233.046 645.252,233.689L649.714,243.182C626.508,241.368 603.088,245.592 580.442,250.381Z" style="fill:rgb(0,144,23);fill-rule:nonzero;"/>
    </g>
    <g transform="matrix(0.1,0,0,0.1,0,-1.52588e-05)">
        <path d="M504.056,384.727L526.884,384.316C528.565,393.33 532.487,401.415 535.101,410.156C533.561,412.365 530.422,413.335 528.033,414.446C517.906,417.542 508.501,415.769 498.552,413.047C501.922,404.235 503.139,394.049 504.056,384.727Z" style="fill:rgb(115,77,10);fill-rule:nonzero;"/>
    </g>
    <g transform="matrix(0.1,0,0,0.1,0,-1.52588e-05)">
        <path d="M376.467,296.815C395.202,284.157 419.52,283.322 441.129,287.396L446.334,302.849C427.72,300.768 406.616,296.076 388.612,303.897C384.346,305.75 380.574,309.019 376.95,311.896L376.467,296.815Z" style="fill:rgb(254,232,94);fill-rule:nonzero;"/>
    </g>
    <g transform="matrix(0.1,0,0,0.1,0,-1.52588e-05)">
        <path d="M580.442,250.381C603.088,245.592 626.508,241.368 649.714,243.182L656.314,255.556C650.568,258.515 639.049,256.156 632.267,256.594C614.788,257.724 597.733,262.089 580.33,263.699L580.442,250.381Z" style="fill:rgb(254,232,94);fill-rule:nonzero;"/>
    </g>
    <g transform="matrix(0.1,0,0,0.1,0,-1.52588e-05)">
        <path d="M435.133,787.584L437.988,787.282L438.238,788.574L385.507,834.516C384.492,830.742 384.411,826.1 383.98,822.17L381.714,794.388C398.734,788.593 417.332,788.421 435.133,787.584Z" style="fill:rgb(175,126,41);fill-rule:nonzero;"/>
    </g>
    <g transform="matrix(0.1,0,0,0.1,0,-1.52588e-05)">
        <path d="M478.214,372.559L478.611,372.428C480.959,371.733 482.536,372.488 484.616,373.582C487.467,375.083 493.62,378.355 494.43,381.686L494.571,382.429C496.266,390.713 492.39,401.125 490.164,409.148C488.757,414.219 487.555,419.783 485.563,424.646C483.198,430.42 479.851,432.719 474.319,435.059L471.191,435.461C465.676,435.499 461.133,430.162 457.461,426.631C460.252,407.436 465.122,387.492 478.214,372.559Z" style="fill:rgb(115,77,10);fill-rule:nonzero;"/>
    </g>
    <g transform="matrix(0.1,0,0,0.1,0,-1.52588e-05)">
        <path d="M331.255,667.48L333.271,668.015L334.677,684.857L292.843,695.264C264.905,701.166 237.065,703.946 208.55,704.881C192.691,705.401 177.31,705.853 161.574,703.343L156.399,701.845L156.495,700.684C166.562,695.824 181.312,696.317 192.338,695.915C241.69,694.116 287.571,694.116 331.255,667.48Z" style="fill:rgb(115,77,10);fill-rule:nonzero;"/>
    </g>
    <g transform="matrix(0.1,0,0,0.1,0,-1.52588e-05)">
        <path d="M571.957,354.98L576.172,354.587C581.499,357.706 586.224,366.234 589.32,371.533C593.876,379.327 597.092,388.564 594.566,397.598C592.945,403.393 588.527,407.602 583.396,410.417C575.907,414.524 568.356,414.821 560.332,412.511C554.411,408.989 545.416,402.815 541.659,397.106C538.51,392.321 536.675,385.686 535.253,380.175C541.475,367.705 559.48,359.809 571.957,354.98Z" style="fill:rgb(115,77,10);fill-rule:nonzero;"/>
    </g>
    <g transform="matrix(0.1,0,0,0.1,0,-1.52588e-05)">
        <path d="M371.471,412.598C376.014,411.349 381.76,411.279 386.278,412.696C393.358,414.917 399.677,418.585 406.21,422.044C421.115,429.938 435.001,438.83 448.131,449.448C443.122,456.094 438.687,459.257 430.985,462.234C416.335,464.006 400.097,454.145 386.902,448.481C380.018,445.526 373.104,443.725 365.723,442.529C362.993,443.586 362.559,444.477 360.901,446.777C358.825,444.119 359.152,438.873 359.425,435.555C360.184,426.343 364.423,418.455 371.471,412.598Z" style="fill:rgb(115,77,10);fill-rule:nonzero;"/>
    </g>
    <g transform="matrix(0.1,0,0,0.1,0,-1.52588e-05)">
        <path d="M719.096,394.663C723.974,394.434 728.166,393.836 732.134,396.973C732.402,405.309 732.334,413.087 730.941,421.338C728.23,437.404 720.586,444.21 707.944,453.134C696.057,453.382 687.335,451.305 676.535,446.247C668.865,442.258 663.084,437.64 657.078,431.467C659.737,427.974 664.694,425.012 668.327,422.527C684.393,411.537 701.959,403.721 719.096,394.663Z" style="fill:rgb(115,77,10);fill-rule:nonzero;"/>
    </g>
    <g transform="matrix(0.1,0,0,0.1,0,-1.52588e-05)">
        <path d="M336.053,733.887L337.266,733.648C338.833,735.671 338.606,739.033 338.849,741.59L341.068,765.468L333.496,771.438C316.38,784.048 297.165,791.055 277.22,797.873C250.483,807.014 223.317,813.735 195.312,817.616C176.576,820.213 157.757,821.831 138.951,818.91L131.882,816.196L131.697,814.941C145.994,803.648 165.654,805.747 182.776,804.659C243.159,800.822 295.432,780.115 336.053,733.887Z" style="fill:rgb(115,77,10);fill-rule:nonzero;"/>
    </g>
    <g transform="matrix(0.1,0,0,0.1,0,-1.52588e-05)">
        <path d="M693.492,348.145L695.739,347.837C702.912,354.515 711.984,362.808 712.481,373.322C712.604,375.924 711.707,380.027 709.667,381.762C705.293,385.484 697.216,388.401 692.051,391.213C673.247,401.45 656.463,412.071 641.855,427.884L625.297,425.365C617.308,423.929 609.511,419.55 602.531,415.586C613.063,404.703 624.796,395.864 636.809,386.725C655.136,372.783 673.672,359.875 693.492,348.145Z" style="fill:rgb(115,77,10);fill-rule:nonzero;"/>
    </g>
    <g transform="matrix(0.1,0,0,0.1,0,-1.52588e-05)">
        <path d="M770.439,952.739C776.081,959.662 782.415,966.139 789.045,972.128C799.205,981.307 818.386,994.401 821.001,1008.56C821.471,1011.1 820.489,1013.15 818.959,1015.19C808.391,1029.26 784.155,1034.27 767.798,1036.9C763.667,1037.45 759.301,1038.12 755.127,1037.89C743.258,1037.24 732.523,1034.06 722.194,1028.23C719.531,1026.72 716.265,1025.18 714.228,1022.89L770.439,952.739Z" style="fill:rgb(233,56,58);fill-rule:nonzero;"/>
    </g>
    <g transform="matrix(0.1,0,0,0.1,0,-1.52588e-05)">
        <path d="M394.944,916.815L387.291,848.519L452.425,792.493C463.7,808.846 469.614,823.614 474.031,842.895C453.042,862.633 439.321,887.564 415.7,904.944C411.222,908.238 406.223,913.108 401.155,915.328C399.071,916.241 397.04,916.149 394.944,916.815Z" style="fill:rgb(230,129,32);fill-rule:nonzero;"/>
    </g>
    <g transform="matrix(0.1,0,0,0.1,0,-1.52588e-05)">
        <path d="M71.053,1506.36L70.994,1524.85L73.339,1521.3C87.78,1499.82 108.789,1480.6 135.009,1475.69C150.871,1472.72 163.194,1476.4 176.428,1485.36L68.247,1609.68L71.053,1506.36Z" style="fill:rgb(230,129,32);fill-rule:nonzero;"/>
    </g>
    <g transform="matrix(0.1,0,0,0.1,0,-1.52588e-05)">
        <path d="M791.454,927.246L793.018,926.744C798.914,930.808 803.849,937.685 809.321,942.525C825.641,956.962 843.245,969.437 857.539,986.077C861.952,991.213 866.761,996.528 868.649,1003.19C870.148,1008.48 868.987,1013.91 866.358,1018.61C852.794,1042.87 791.695,1072.1 765.689,1079.27C740.034,1086.33 718.701,1085.51 695.229,1072.16L676.662,1058.43C686.339,1051.97 694.387,1044.67 702.543,1036.42C716.39,1046.9 730.77,1057.06 748.882,1057.75C773.304,1058.69 801.661,1054.2 820.127,1036.75C827.066,1030.2 831.759,1021.42 832.012,1011.77C832.852,979.78 799.868,961.436 780.42,941.052L791.454,927.246Z" style="fill:rgb(254,232,94);fill-rule:nonzero;"/>
    </g>
    <g transform="matrix(0.1,0,0,0.1,0,-1.52588e-05)">
        <path d="M345.713,826.66L348.145,827.271L353.235,862.856L188.408,1013.55L113.7,1087.9L93.862,1107.82C90.306,1111.39 86.588,1115.93 82.379,1118.65L81.925,1114.5L82.566,1098.23C82.586,1097.73 82.522,1094.82 82.712,1094.53C82.941,1094.19 86.613,1092.93 87.19,1092.69C95.685,1089.22 112.117,1085.73 116.316,1076.88L116.543,1076.39C119.731,1069.61 116.176,1060.3 117.366,1052.73C122.049,1045.3 135.648,1042.31 143.621,1039.5C145.283,1035.68 147.205,1031.73 148.393,1027.74C149.651,1023.51 149.48,1018.45 152.025,1014.68C161.179,1001.12 188.761,1003.03 195.801,987.082C198.377,981.247 195.906,975.775 193.85,970.225C203.807,964.098 213.759,960.391 224.652,956.263C230.967,953.869 240.121,951.152 245.175,946.646C249.863,942.466 251.063,937.341 250.987,931.242C250.929,926.689 248.566,922.562 252.194,919.387C261.105,911.587 277.023,908.691 283.352,898.616C286.89,892.983 285.111,886.867 283.733,880.838C290.34,870.424 318.921,867.753 329.701,857.381C332.362,854.821 333.302,851.32 333.275,847.719C333.224,841.001 328.191,836.295 323.763,831.887C328.785,828.673 339.727,827.774 345.713,826.66Z" style="fill:rgb(175,126,41);fill-rule:nonzero;"/>
    </g>
    <g transform="matrix(0.1,0,0,0.1,0,-1.52588e-05)">
        <path d="M210.668,1010.67C212.289,1008.2 216.211,1005.36 218.422,1003.27L236.983,985.7L352.005,879.732C353.148,886.879 355.122,894.408 355.639,901.594C357.285,924.495 349.17,947.547 336.042,966.233C329.219,966.056 318.475,964.163 313.227,969.136C309.521,972.649 308.568,977.649 308.533,982.568C308.511,985.755 309.132,988.824 309.874,991.909C295.063,1003.3 277.662,1022.96 258.986,1026.9C251.399,1028.5 240.045,1027.56 232.347,1026.55C224.673,1025.55 219.439,1023.29 214.717,1017.05L210.668,1010.67Z" style="fill:rgb(230,129,32);fill-rule:nonzero;"/>
    </g>
    <g transform="matrix(0.1,0,0,0.1,0,-1.52588e-05)">
        <path d="M376.95,311.896C380.574,309.019 384.346,305.75 388.612,303.897C406.616,296.076 427.72,300.768 446.334,302.849L449.661,311.798L468.892,364.009C465.894,369.897 462.106,375.52 459.51,381.581C453.194,396.332 449.693,415.473 447.974,431.394C436.428,422.761 424.603,415.358 412.109,408.182C404.386,403.745 396.091,398.889 387.661,395.946C385.326,395.131 378.814,395.129 377.7,393.449L376.953,323.556L376.95,311.896Z" style="fill:rgb(254,232,94);fill-rule:nonzero;"/>
    </g>
    <g transform="matrix(0.1,0,0,0.1,0,-1.52588e-05)">
        <path d="M376.95,311.896C380.574,309.019 384.346,305.75 388.612,303.897C406.616,296.076 427.72,300.768 446.334,302.849L449.661,311.798C425.479,310.901 397.273,307.428 376.953,323.556L376.95,311.896Z" style="fill:rgb(233,56,58);fill-rule:nonzero;"/>
    </g>
    <g transform="matrix(0.1,0,0,0.1,0,-1.52588e-05)">
        <path d="M656.314,255.556L662.5,266.725L690.885,332.05C660.539,350.458 630.29,371.765 603.861,395.472C603.511,378.359 600.484,366.733 590.42,352.732C588.078,349.473 584.483,345.262 583.381,341.403C582.453,338.154 582.965,333.847 582.679,330.434L580.43,275.642L580.33,263.699C597.733,262.089 614.788,257.724 632.267,256.594C639.049,256.156 650.568,258.515 656.314,255.556Z" style="fill:rgb(254,232,94);fill-rule:nonzero;"/>
    </g>
    <g transform="matrix(0.1,0,0,0.1,0,-1.52588e-05)">
        <path d="M656.314,255.556L662.5,266.725C635.041,266.248 606.956,267.932 580.43,275.642L580.33,263.699C597.733,262.089 614.788,257.724 632.267,256.594C639.049,256.156 650.568,258.515 656.314,255.556Z" style="fill:rgb(233,56,58);fill-rule:nonzero;"/>
    </g>
    <g transform="matrix(0.1,0,0,0.1,0,-1.52588e-05)">
        <path d="M382.242,465.332C382.842,465.044 383.408,464.878 384.08,464.849C386.198,464.757 415.482,477.025 417.038,478.354C401.606,504.769 390.613,532.133 383.369,561.878C374.433,598.57 372.239,635.761 370.877,673.317C368.741,732.225 371.041,791.082 378.304,849.609L385.009,904.111C388.063,928.131 392.268,954.765 388.031,978.737C386.494,987.435 382.688,995.18 375.219,1000.26C365.382,1006.95 354.691,1007.12 343.323,1005.09C331.994,1001.16 323.979,996.045 318.111,985.386C318.886,980.954 339.119,983.014 343.809,982.391C346.333,982.055 348.855,980.873 350.891,979.37C354.303,976.851 356.558,972.529 358.477,968.809C367.145,952.007 368.859,931.222 368.848,912.598C368.843,902.82 366.825,892.459 365.349,882.812L356.969,828.227L341.266,657C339.012,618.371 335.422,579.909 341.515,541.424C345.874,513.891 359.118,482.185 382.242,465.332Z" style="fill:rgb(115,77,10);fill-rule:nonzero;"/>
    </g>
    <g transform="matrix(0.1,0,0,0.1,0,-1.52588e-05)">
        <path d="M239.896,432.991C283.74,428.802 322.505,448.871 358.279,471.624C332.136,512.589 328.445,557.758 330.057,605.171L299.83,596.197L279.415,587.81C245.948,572.304 215.292,549.12 194.757,518.13C184.467,502.602 177.221,485.801 170.816,468.388C190.669,447.656 211.461,436.664 239.896,432.991Z" style="fill:rgb(254,232,94);fill-rule:nonzero;"/>
    </g>
    <g transform="matrix(0.1,0,0,0.1,0,-1.52588e-05)">
        <path d="M263.839,444.705C269.898,444.998 277.653,444.995 283.375,447.018C285.246,448.916 285.956,450.606 286.385,453.227C287.062,457.356 286.553,461.882 284.089,465.332C280.238,467.598 275.326,465.436 270.897,464.987C266.499,464.542 261.91,464.787 257.493,464.926C261.829,468.92 266.261,472.709 271.242,475.886C276.484,479.229 285.062,482.743 288.796,487.764C291.284,491.111 291.913,496.281 291.285,500.331C290.202,507.309 281.084,512.433 275.77,516.358C286.565,529.702 300.956,538.83 314.323,549.316C315.022,550.162 315.648,551.084 315.996,552.134C317.243,555.898 317.293,561.304 315.32,564.827C314.176,566.87 313.754,567.424 311.523,568.064C310.085,567.346 308.752,566.571 307.452,565.622C293.275,555.267 268.255,539.136 265.744,520.758C264.505,511.685 266.646,505.103 272.018,497.826C261.949,490.795 249.542,482.244 246.942,469.353L246.824,468.75L246.356,466.156C245.676,460.87 247.421,454.435 250.744,450.245C254.108,446.004 258.769,445.386 263.839,444.705Z" style="fill:rgb(40,48,52);fill-rule:nonzero;"/>
    </g>
    <g transform="matrix(0.1,0,0,0.1,0,-1.52588e-05)">
        <path d="M959.956,312.012L961.854,312.546C960.765,317.13 957.516,321.951 955.072,325.954C948.408,336.869 940.449,346.996 933.171,357.505L902.055,405.762C886.055,428.637 867.68,448.122 847.594,467.444C832.316,482.141 816.956,496.217 799.459,508.267C790.221,491.758 777.348,483.311 761.15,474.29L725.837,457.127C741.717,437.422 739.98,413.146 741.01,389.429C745.094,382.81 752.743,376.157 758.824,371.304C780.573,353.946 806.769,344.21 833.436,337.275C875.11,326.439 918.203,322.525 959.956,312.012Z" style="fill:rgb(254,232,94);fill-rule:nonzero;"/>
    </g>
    <g transform="matrix(0.1,0,0,0.1,0,-1.52588e-05)">
        <path d="M828.271,351.621C831.309,351.394 834.692,351.045 837.402,352.735C840.132,354.437 841.848,357.388 842.414,360.507C844.921,374.308 835.694,385.225 828.191,395.694C829.815,397.619 836.235,398.681 838.799,399.8C844.599,402.331 849.116,406.348 851.372,412.321C856.058,424.725 846.563,446.7 841.392,458.115C839.424,462.462 837.699,466.921 833.008,468.682L830.462,466.432C826.296,456.119 831.844,448.14 835.87,438.839L842.369,422.113C835.798,418.926 827.484,417.898 821.511,413.777C818.061,411.396 815.633,408.092 814.888,403.933C812.79,392.219 820.866,380.758 827.273,371.747C810.652,378.358 799.274,385.734 786.621,398.52L783.897,397.949C782.75,396.555 781.915,395.241 781.407,393.496C780.124,389.093 780.376,385.28 782.632,381.26C791.009,366.337 812.361,355.982 828.271,351.621Z" style="fill:rgb(40,48,52);fill-rule:nonzero;"/>
    </g>
    <g transform="matrix(0.1,0,0,0.1,0,-1.52588e-05)">
        <path d="M474.031,842.895L476.263,855.219C480.788,878.449 485.458,902.368 498.048,922.786C505.059,934.155 513.674,944.604 519.558,956.657C522.173,962.014 523.763,967.947 525.837,973.535C529.655,983.821 533.727,993.78 538.758,1003.54L549.815,1020.66L543.175,1029.14L464.314,1130.78L379.391,1239.94L274.011,1371.07L176.428,1485.36C163.194,1476.4 150.871,1472.72 135.009,1475.69C108.789,1480.6 87.78,1499.82 73.339,1521.3L70.994,1524.85L71.053,1506.36L73.109,1426.89L76.932,1296.85L79.023,1215.51L80.807,1156.32L81.081,1142.34C81.105,1141.07 80.783,1138.03 81.182,1136.93C81.922,1134.89 88.714,1129.44 90.481,1127.69L134.131,1084.66L210.668,1010.67L214.717,1017.05C219.439,1023.29 224.673,1025.55 232.347,1026.55C240.045,1027.56 251.399,1028.5 258.986,1026.9C277.662,1022.96 295.063,1003.3 309.874,991.909C314.427,1004.2 322.407,1013.36 334.564,1018.75L342.132,1021.4C346.959,1022.75 352.863,1023.6 357.869,1023.3C368.575,1022.67 377.402,1018.24 384.366,1010.08C404.267,986.776 397.679,950.703 395.691,922.865L394.944,916.815C397.04,916.149 399.071,916.241 401.155,915.328C406.223,913.108 411.222,908.238 415.7,904.944C439.321,887.564 453.042,862.633 474.031,842.895Z" style="fill:rgb(254,232,94);fill-rule:nonzero;"/>
    </g>
    <g transform="matrix(0.1,0,0,0.1,0,-1.52588e-05)">
        <path d="M400.233,1057.65C403.212,1051.39 405.624,1044.78 410.087,1039.37C416.174,1032 426.115,1025.46 434.106,1020.35C436.384,1018.9 439.247,1016.58 442.015,1016.42C443.692,1016.33 444.031,1017.03 445.242,1018.07C445.717,1023.32 447.403,1026.07 449.379,1030.75C452.895,1039.07 450.68,1047.93 449.3,1056.47C442.87,1067.47 437.535,1076.92 428.719,1086.31C425.365,1089.89 422.173,1093.46 417.614,1095.48C413.914,1097.11 411.151,1096.62 407.521,1095.1C402.828,1093.13 398.951,1088.52 397.201,1083.8C393.646,1074.21 396.243,1066.44 400.233,1057.65Z" style="fill:rgb(230,129,32);fill-rule:nonzero;"/>
    </g>
    <g transform="matrix(0.1,0,0,0.1,0,-1.52588e-05)">
        <path d="M76.932,1296.85L77.155,1306.15C81.247,1308.93 86.285,1310.53 90.706,1312.76C106,1320.48 117.781,1330.34 121.19,1347.97C124.024,1362.63 119.317,1377.44 110.942,1389.46C100.805,1404 86.508,1415.53 73.109,1426.89L76.932,1296.85Z" style="fill:rgb(230,129,32);fill-rule:nonzero;"/>
    </g>
    <g transform="matrix(0.1,0,0,0.1,0,-1.52588e-05)">
        <path d="M395.691,922.865C410.6,931.793 428.692,953.101 432.995,970.321C435.803,981.556 431.249,992.324 425.381,1001.69C411.381,1024.04 395.055,1041.9 368.41,1047.98C363.495,1049.1 354.976,1050.03 350.608,1047.15C345.623,1043.86 342.291,1039.03 341.248,1033.11C340.616,1029.53 340.884,1024.85 342.132,1021.4C346.959,1022.75 352.863,1023.6 357.869,1023.3C368.575,1022.67 377.402,1018.24 384.366,1010.08C404.267,986.776 397.679,950.703 395.691,922.865Z" style="fill:rgb(230,129,32);fill-rule:nonzero;"/>
    </g>
    <g transform="matrix(0.1,0,0,0.1,0,-1.52588e-05)">
        <path d="M449.3,1056.47C456.966,1042.48 468.6,1026.58 483.451,1019.71C501.65,1011.3 526.003,1023.11 543.175,1029.14L464.314,1130.78C461.593,1124.79 460.143,1118.8 457.756,1112.77C449.669,1092.37 443.633,1078.78 449.3,1056.47Z" style="fill:rgb(230,129,32);fill-rule:nonzero;"/>
    </g>
    <g transform="matrix(0.1,0,0,0.1,0,-1.52588e-05)">
        <path d="M134.131,1084.66C137.892,1094.19 140.64,1103.93 143.653,1113.7C149.722,1133.39 156.319,1151.74 147.603,1171.97C142.673,1183.42 133.063,1190.28 123.652,1197.87C115.489,1204.45 107.726,1211.14 97.916,1215.13C92.571,1217.31 84.432,1217.8 79.023,1215.51L80.807,1156.32L81.081,1142.34C81.105,1141.07 80.783,1138.03 81.182,1136.93C81.922,1134.89 88.714,1129.44 90.481,1127.69L134.131,1084.66Z" style="fill:rgb(230,129,32);fill-rule:nonzero;"/>
    </g>
    <g transform="matrix(0.1,0,0,0.1,0,-1.52588e-05)">
        <path d="M215.67,1039.55L218.283,1039.13C219.097,1039.43 220.502,1039.68 220.977,1040.4C222.779,1043.12 221.696,1045.91 223.02,1048.49C224.624,1051.62 227.695,1054.59 229.715,1057.55C237.095,1068.34 240.415,1081.83 237.926,1094.74C233.886,1115.69 219.923,1127.44 207.2,1143.08C202.535,1148.82 198.769,1156.17 192.427,1160.28C186.65,1164.03 181.088,1162.83 174.806,1161.41C165.384,1157.18 158.99,1150.05 154.718,1140.73C149.019,1128.29 147.045,1110.66 152.168,1097.66C156.185,1087.47 168.203,1079.13 176.079,1071.92C187.864,1061.13 200.977,1045.99 215.67,1039.55Z" style="fill:rgb(230,129,32);fill-rule:nonzero;"/>
    </g>
    <g transform="matrix(0.1,0,0,0.1,0,-1.52588e-05)">
        <path d="M243.538,1130.27L245.605,1129.78C250.163,1132.06 253.718,1135.63 257.919,1138.47L280.23,1153.03C290.464,1160.35 301.644,1171.54 303.568,1184.51C305.1,1194.83 302.718,1204.88 296.387,1213.21C288.29,1223.86 277.837,1228.58 264.884,1230.31C251.213,1230.99 238.96,1223.59 228.451,1215.55C216.912,1206.71 205.812,1194.31 204.054,1179.3C202.603,1166.92 206.552,1153.69 214.441,1144.04C222.546,1134.12 231.209,1131.41 243.538,1130.27Z" style="fill:rgb(230,129,32);fill-rule:nonzero;"/>
    </g>
    <g transform="matrix(0.1,0,0,0.1,0,-1.52588e-05)">
        <path d="M294.707,1018.66C298.689,1018.58 302.567,1018.6 306.284,1020.2C309.351,1021.52 312.857,1023.43 315.43,1025.57C318.977,1028.51 322.01,1033.36 325.226,1036.85C332.308,1044.54 344.237,1052.83 348.073,1062.58C354.875,1079.88 335.47,1095.07 329.051,1109.86C324.865,1119.51 320.202,1126.15 310.058,1130.09C300.274,1132.16 290.023,1130.44 281.445,1125.39C268.698,1117.88 261.013,1104.62 257.387,1090.59C253.211,1074.42 255.338,1057.17 263.986,1042.82C271.128,1030.97 281.13,1021.99 294.707,1018.66Z" style="fill:rgb(230,129,32);fill-rule:nonzero;"/>
    </g>
    <g transform="matrix(0.1,0,0,0.1,0,-1.52588e-05)">
        <path d="M274.011,1371.07C268.389,1368.51 262.564,1365.88 257.793,1361.88C251.314,1356.44 246.276,1349.81 245.612,1341.08C245.185,1335.46 246.956,1328.84 249.383,1323.79C253.376,1315.47 260.827,1307.15 266.253,1299.6C278.653,1282.35 290.665,1264.33 304.355,1248.08C314.103,1236.52 325.692,1224.28 341.692,1223.02C356.657,1221.84 368.688,1230.71 379.391,1239.94L274.011,1371.07Z" style="fill:rgb(230,129,32);fill-rule:nonzero;"/>
    </g>
    <g transform="matrix(0.1,0,0,0.1,0,-1.52588e-05)">
        <path d="M187.229,1329.39C191.487,1328.96 195.717,1329.51 199.849,1330.62C208.618,1332.98 212.179,1342.83 216.28,1350.09C220.844,1358.17 220.662,1367.12 218.154,1375.85C212.845,1394.33 197.314,1413.28 185.92,1428.64C181.195,1435.01 176.016,1443.66 168.87,1447.36C163.851,1449.95 158.51,1448.81 153.379,1447.29L140.215,1439.03C129.798,1431.84 119.058,1423.3 116.699,1410.11C114.168,1395.96 121.48,1379.42 129.445,1368.11C142.629,1349.39 164.558,1333.3 187.229,1329.39Z" style="fill:rgb(230,129,32);fill-rule:nonzero;"/>
    </g>
    <g transform="matrix(0.1,0,0,0.1,0,-1.52588e-05)">
        <path d="M538.758,1003.54L515.002,1006.36C497.268,1007.92 476.682,1005.09 462.769,993.158C456.104,987.44 452.199,979.949 447.568,972.664C438.781,958.843 428.25,944.689 427.055,927.603C425.685,908.011 441.977,893.985 453.804,880.727L476.263,855.219C480.788,878.449 485.458,902.368 498.048,922.786C505.059,934.155 513.674,944.604 519.558,956.657C522.173,962.014 523.763,967.947 525.837,973.535C529.655,983.821 533.727,993.78 538.758,1003.54Z" style="fill:rgb(230,129,32);fill-rule:nonzero;"/>
    </g>
    <g transform="matrix(0.1,0,0,0.1,0,-1.52588e-05)">
        <path d="M158.828,1197.43C170.794,1196.92 180.434,1198.33 189.648,1206.79C196.293,1212.9 200.758,1221.21 205.038,1229.04C209.602,1237.39 214.496,1245.37 214.708,1255.19C214.98,1267.78 207.395,1279.65 201.419,1290.15C197.848,1296.42 194.842,1302.61 189.848,1307.91C182.231,1316 174.965,1318.48 164.1,1318.81C154.729,1318.27 145.237,1315.63 136.812,1311.54C126.212,1306.38 112.204,1297.55 108.33,1285.86C103.996,1272.77 109.816,1262.23 115.49,1250.65C118.843,1243.81 122.985,1237.24 126.733,1230.6C131.797,1221.62 137.974,1209.66 146.236,1203.28C150.015,1200.36 154.358,1198.96 158.828,1197.43Z" style="fill:rgb(230,129,32);fill-rule:nonzero;"/>
    </g>
    <g transform="matrix(0.1,0,0,0.1,0,-1.52588e-05)">
        <path d="M375.268,1082.52C377.834,1081.64 381.596,1081.5 384.065,1082.7C392.147,1086.6 392.098,1095.49 398.631,1100.47C407.822,1107.49 422.007,1112.23 426.618,1123.49L426.881,1124.18C430.234,1133.54 426.798,1146.39 422.439,1154.92C416.188,1167.14 406.651,1177.89 398.325,1188.75C394.024,1194.36 390.616,1200.48 385.224,1205.17C381.002,1208.85 376.513,1210.64 371.297,1212.35C367.119,1212.82 363.283,1212.68 359.167,1211.74C346.217,1208.78 331.122,1197.26 324.32,1185.85C318.236,1175.64 316.443,1162.91 319.423,1151.37C324.689,1130.98 337.985,1116.67 352.421,1102.14C359.515,1095 366.552,1087.71 375.268,1082.52Z" style="fill:rgb(230,129,32);fill-rule:nonzero;"/>
    </g>
    <g transform="matrix(0.1,0,0,0.1,0,-1.52588e-05)">
        <path d="M542.757,422.363C543.552,422.234 543.242,422.202 543.932,422.358C545.576,422.728 546.617,422.678 548.274,422.335C549.297,422.124 553.802,425.828 555.176,426.618C557.986,428.234 561.567,429.654 564.812,430.017C570.799,430.687 578.075,429.739 583.52,427.239C584.78,426.661 588.581,424.163 589.577,424.105C590.645,424.043 601.311,431.72 603.19,432.799C619.381,442.098 632.668,444.669 651.272,443.892L657.032,450.396C670.681,464.067 690.993,469.911 709.704,469.746C726.592,480.101 745.083,486.997 762.445,496.426C771.419,501.3 782.179,508.008 788.156,516.513C792.349,522.479 793.853,530.176 793.486,537.349C792.706,552.573 786.976,567.101 785.202,582.243C778.908,636.002 775.901,689.003 780.326,743.055C781.652,759.264 783.018,776.212 787.134,791.992C791.084,807.137 797.697,821.254 804.635,835.219C809,844.003 819.891,857.146 818.033,867.126C817.443,870.29 815.855,873.159 813.955,875.719C807.221,884.791 799.249,893.26 792.055,901.994L739.658,965.091C725.157,982.528 712.521,1001.39 697.296,1018.25C690.2,1026.11 682.924,1032.98 674.058,1038.8C648.341,1037.34 620.923,1042.34 595.832,1036.68C584.134,1033.15 575.32,1027.61 567.061,1018.6C553.791,1004.13 543.247,985.447 536.447,967.081C532.711,956.99 529.679,946.667 524.634,937.114C519.006,926.457 511.051,917.449 504.725,907.276C499.88,899.484 496.475,890.115 493.836,881.354C486.166,855.892 485.84,826.578 474.588,802.489C463.025,777.734 438.497,758.39 430.773,732.184C427.319,720.464 430.025,710.499 430.196,698.801C430.25,695.104 428.103,692.667 427.923,689.535C427.589,683.732 429.523,676.183 429.773,670.068C436.607,667.648 448.698,663.244 453.889,658.273C456.844,655.444 457.002,652.584 457.008,648.69C457.015,644.756 456.533,642.028 453.733,639.16C448.008,638.284 438.811,645.875 433.059,648.081C428.891,649.68 424.533,650.566 420.158,651.38C412.864,648.656 405.319,646.738 397.734,645.01C394.854,644.353 388.523,643.731 386.361,641.801C385.036,640.618 385.346,636.614 385.222,634.766C385.539,634.277 385.696,633.632 386.175,633.301C386.359,633.174 391.13,633.57 391.846,633.594C397.988,633.801 411.867,635.291 416.993,632.388C418.377,631.604 419.888,628.807 420.297,627.294C421.478,622.922 420.453,617.936 418.158,614.114C417.418,613.621 416.325,612.646 415.527,612.362C413.922,611.79 409.94,612.365 407.988,612.366L383.506,612.382C385.514,586.585 392.254,559.071 401.341,534.915C407.512,518.513 415.289,501.205 425.22,486.809C426.589,484.825 428.534,481.172 430.322,479.663C432.27,478.019 436.452,477.111 438.844,475.989C451.261,470.163 453.816,457.566 457.894,445.884C459.95,447.542 462.119,449.363 464.503,450.521C468.264,452.346 472.858,452.487 476.786,451.1C485.213,448.125 489.667,440.997 493.277,433.366C495.806,432.518 499.957,430.603 502.553,430.667C506.555,430.765 510.732,432.142 514.81,432.434C525.854,433.226 534.648,429.46 542.757,422.363Z" style="fill:rgb(254,232,94);fill-rule:nonzero;"/>
    </g>
    <g transform="matrix(0.1,0,0,0.1,0,-1.52588e-05)">
        <path d="M730.697,895.02C732.154,895.088 732.918,895.48 733.985,896.556C735.848,898.435 737.123,901.715 738.548,904.013C742.563,910.488 749.169,918.46 749.096,926.417C749.062,930.084 748.178,932.881 745.605,935.509C744.37,935.515 743.254,935.279 742.044,935.059C736.566,926.107 726.439,915.184 726.457,904.342C726.464,900.093 727.889,897.923 730.697,895.02Z" style="fill:rgb(40,48,52);fill-rule:nonzero;"/>
    </g>
    <g transform="matrix(0.1,0,0,0.1,0,-1.52588e-05)">
        <path d="M518.265,801.27C520.665,801.214 520.775,801.725 522.551,803.223C525.264,808.538 524.837,816.123 526.253,822.09C528.116,829.943 533.392,839.998 533.108,847.996C532.949,852.484 531.968,854.013 528.858,856.934C527.519,857.088 527.066,856.68 525.879,856.09C518.535,843.753 513.999,823.275 514.505,809.035C514.634,805.402 515.695,803.659 518.265,801.27Z" style="fill:rgb(40,48,52);fill-rule:nonzero;"/>
    </g>
    <g transform="matrix(0.1,0,0,0.1,0,-1.52588e-05)">
        <path d="M737.688,854.004L738.027,853.948C741.528,853.218 743.761,854.294 746.776,856.078C751.03,858.595 768.71,872.299 769.635,876.633C769.987,878.278 770.336,879.969 770.398,881.652C770.539,885.443 769.628,888.242 767.09,891.021C760.5,890.882 752.057,880.219 746.091,876.514C742.718,874.42 738.82,874.519 735.84,871.861C734.126,868.339 734.023,865.055 734.266,861.177C734.462,858.043 735.28,856.134 737.688,854.004Z" style="fill:rgb(40,48,52);fill-rule:nonzero;"/>
    </g>
    <g transform="matrix(0.1,0,0,0.1,0,-1.52588e-05)">
        <path d="M491.43,761.23C492.573,761.05 493.775,760.536 494.758,761.194C500.618,765.12 507.281,781.44 508.589,788.097C511.317,801.978 514.453,823.477 506.348,835.682C504.888,837.09 503.956,837.458 501.953,837.716C500.945,837.243 499.908,836.697 499.113,835.898C493.086,829.836 492.603,813.496 491.188,805.419C489.473,795.63 486.535,785.436 486.876,775.442C487.056,770.167 487.343,765.064 491.43,761.23Z" style="fill:rgb(230,129,32);fill-rule:nonzero;"/>
    </g>
    <g transform="matrix(0.1,0,0,0.1,0,-1.52588e-05)">
        <path d="M556.139,866.699C557.726,866.259 559.429,865.815 561.082,866.11C565.343,866.872 570.173,869.965 573.346,872.788C585.864,883.925 585.605,902.111 584.679,917.48C584.427,921.67 582.883,926.503 585.458,930.203L585.788,930.664C591.288,938.535 601.43,939.664 609.826,942.871C610.767,943.887 611.583,944.956 612.037,946.276C613.72,951.169 613.161,955.84 611.013,960.449L608.887,962.052C604.611,962.324 599.663,960.261 595.673,958.789C585.249,954.941 580.624,949.645 576.079,939.941C573.942,935.377 574.11,931.26 574.109,926.317C574.108,924.891 574.478,921.554 573.622,920.355C571.67,917.62 567.171,915.335 564.758,912.565C560.871,908.104 557.529,902.033 557.129,896.019C556.934,893.091 557.538,889.538 556.824,886.719C556.024,883.56 553.793,882.045 553.385,878.369C552.889,873.902 553.368,870.284 556.139,866.699Z" style="fill:rgb(40,48,52);fill-rule:nonzero;"/>
    </g>
    <g transform="matrix(0.1,0,0,0.1,0,-1.52588e-05)">
        <path d="M669.949,828.613L672.396,828.189C673.432,828.574 674.96,828.877 675.705,829.686C686.443,841.35 674.162,859.736 671.647,872.471C670.193,879.831 671.057,887.749 669.279,895.038C668.664,897.558 665.383,901.812 665.242,903.575C664.832,908.71 667.47,914.59 667.271,920.138C666.864,931.518 662.407,939.753 654.092,947.228C648.401,952.343 640.977,955.698 634.244,959.217C631.391,960.708 628.004,963.056 624.683,962.729C623.824,962.645 622.393,960.251 621.816,959.473C620.573,955.961 619.767,952.074 620.854,948.405C622.922,941.432 635.332,937.885 641.32,934.484C646.976,931.271 655.609,926.59 657.004,919.641C657.545,916.946 655.319,912.601 654.209,910.086C651.053,902.935 647.616,895.669 645.451,888.139C642.702,878.577 643.096,868.149 645.802,858.649C649.246,846.564 658.919,834.741 669.949,828.613Z" style="fill:rgb(40,48,52);fill-rule:nonzero;"/>
    </g>
    <g transform="matrix(0.1,0,0,0.1,0,-1.52588e-05)">
        <path d="M485.969,508.301C487.525,507.841 488.171,507.842 489.746,508.232C491.587,510.56 492.582,512.665 492.883,515.658C493.391,520.697 490.857,525.304 488.817,529.734C485.274,537.428 480.979,547.324 482.7,555.868C484.882,566.705 496.91,574.77 504.395,582.209C508.704,586.493 512.56,591.278 515.994,596.288C528.63,614.722 534.379,635.094 537.822,656.908C541.584,680.744 539.341,706.52 538.614,730.582C538.362,738.89 539.097,748.528 537.512,756.653C537.1,758.763 535.911,760.523 534.668,762.233C533.27,762.622 532.17,762.481 530.762,762.314C529.197,760.341 528.145,758.435 527.928,755.882C527.216,747.506 528.236,738.271 528.547,729.828C529.514,703.525 531.689,675.325 525.8,649.496C522.867,636.63 518.563,624.581 510.859,613.756C497.573,595.088 474.259,583.488 472.167,558.472C470.963,544.066 476.56,519.511 485.969,508.301Z" style="fill:rgb(40,48,52);fill-rule:nonzero;"/>
    </g>
    <g transform="matrix(0.1,0,0,0.1,0,-1.52588e-05)">
        <path d="M607.335,482.91L609.888,482.413C612.52,484.173 613.124,485.866 614.182,488.827C616.443,495.154 621.328,500.809 625.075,506.382C630.771,514.853 635.087,524.343 637.54,534.27C642.912,556.017 640.3,578.863 636.92,600.7C634.733,614.835 631.522,626.07 634.892,640.452C639.408,659.727 651.491,676.333 660.07,693.927C664.433,702.875 668.867,712.476 671.59,722.073C676.337,738.798 677.872,756.946 680.119,774.158C680.837,779.655 680.693,782.953 677.246,787.452C675.064,788.069 675.116,787.958 673.107,786.864C669.707,782.582 669.63,772.43 668.905,767.081C667.439,756.269 666.257,744.564 663.431,734.045C654.666,701.426 629.137,675.737 624.295,641.548C619.733,609.33 635.689,579.188 629.237,547.231C627.749,539.862 625.093,532.63 621.184,526.187C614.846,515.739 605.608,507.202 604.643,494.354C604.332,490.212 604.513,486.167 607.335,482.91Z" style="fill:rgb(40,48,52);fill-rule:nonzero;"/>
    </g>
    <g transform="matrix(0.1,0,0,0.1,0,-1.52588e-05)">
        <path d="M773.717,578.613L776.855,577.998C781.889,582.075 782.048,589.73 779.166,595.215C778.319,596.826 775.665,599.663 775.561,601.301C775.389,603.996 778.509,609.418 778.912,612.793C780.373,625.014 775.786,636.493 771.739,647.805C770.067,652.478 768.445,658.237 765.269,662.126C762.999,664.905 760.783,666.439 757.106,666.642C746.733,667.216 730.47,655.839 722.823,649.278C718.695,645.013 715.732,638.333 715.921,632.324C716.006,629.601 716.916,627.795 715.806,625.231C713.419,624.774 710.945,624.316 708.678,623.421C705.21,622.052 702.489,619.534 701.11,616.036C699.786,612.678 699.595,607.348 701.138,604.004C702.25,601.594 703.146,600.799 705.566,599.889C712.422,605.563 720.331,606.203 728.93,605.46C749.536,603.677 760.9,593.922 773.717,578.613Z" style="fill:rgb(40,48,52);fill-rule:nonzero;"/>
    </g>
    <g transform="matrix(0.1,0,0,0.1,0,-1.52588e-05)">
        <path d="M717.822,729.98L720.712,729.305C724.262,732.133 725.952,735.314 728.81,738.684C736.471,747.718 743.396,755.144 747.209,766.805C752.891,784.18 748.832,815.277 740.495,831.467C738.059,836.199 735.068,839.182 729.98,840.816L728.088,840.896C721.419,840.671 713.017,835.697 708.496,830.951C700.227,822.269 696.82,808.536 697.341,796.787C697.975,782.514 702.401,770.015 705.904,756.391C707.526,750.079 708.44,743.05 711.435,737.231C712.875,734.433 715.534,732.099 717.822,729.98Z" style="fill:rgb(230,129,32);fill-rule:nonzero;"/>
    </g>
    <g transform="matrix(0.1,0,0,0.1,0,-1.52588e-05)">
        <path d="M561.798,686.035C565.875,685.048 570.973,686.02 575.195,686.001C583.473,685.965 595.148,683.779 602.539,688.441C616.161,697.032 623.851,719.064 631.169,732.828C635.48,740.937 640.581,748.817 644.245,757.236C647.159,763.931 648.641,771.105 651.352,777.832C653.697,783.652 656.945,788.945 658.368,795.13C661.978,810.822 647.163,821.797 638.473,832.571C634.667,837.289 631.506,842.755 628.246,847.866C627.087,849.303 625.876,850.663 624.481,851.879C621.695,854.307 618.887,855.853 615.085,855.459C607.801,854.705 595.965,845.628 589.582,841.962C581.132,837.11 568.776,832.931 562.57,825.476C558.608,820.718 555.992,814.899 553.609,809.233C538.102,772.359 562.928,741.089 566.015,704.59C564.229,700.447 563.125,703.822 560.059,702.588C559.294,702.28 558.223,701.207 557.527,700.684C556.12,697.413 556.066,694.2 557.052,690.761C557.915,687.75 559.187,687.321 561.798,686.035Z" style="fill:rgb(230,129,32);fill-rule:nonzero;"/>
    </g>
</svg>
