<svg xmlns="http://www.w3.org/2000/svg" viewBox="0 0 148.52 50.05"><defs><style>.cls-1{fill:#06c755;}</style></defs><g id="design"><path class="cls-1" d="M16.41,39.41a1.07,1.07,0,0,0-1.32-.24L13,40.32a1.08,1.08,0,0,0-.53.73,1.11,1.11,0,0,0,.22.86,22.1,22.1,0,0,1,1.81,2.59c-2.84.23-3.42.26-6.29.33a72,72,0,0,0,3.4-8,1,1,0,0,0-.08-.89,1.05,1.05,0,0,0-.72-.51L8.49,35a1.07,1.07,0,0,0-1.2.72,83.64,83.64,0,0,1-3.61,9.21H1.94a1.13,1.13,0,0,0-.8.36,1.07,1.07,0,0,0-.25.84l.29,2.17a1,1,0,0,0,1.09.92h.24c5.35-.22,10.42-.43,14.11-.94.16.33.29.63.42.91a1.07,1.07,0,0,0,1,.62,1.06,1.06,0,0,0,.42-.09l2.5-1.09A1.1,1.1,0,0,0,21.5,48a1.08,1.08,0,0,0,0-.83A37.46,37.46,0,0,0,16.41,39.41Z"/><path class="cls-1" d="M16.59,28.83a1,1,0,0,0-1.24-.59l-2.12.59a1,1,0,0,0-.7,1.41,23.42,23.42,0,0,0,6.17,8.84,1.09,1.09,0,0,0,.71.26h.09a1.08,1.08,0,0,0,.73-.39l1.59-2a1.05,1.05,0,0,0-.14-1.47A19.69,19.69,0,0,1,16.59,28.83Z"/><path class="cls-1" d="M2.52,39.4h.12a1,1,0,0,0,.7-.26,22.54,22.54,0,0,0,6.19-9,1.07,1.07,0,0,0,0-.84,1.05,1.05,0,0,0-.68-.54l-2.14-.56a1.07,1.07,0,0,0-1.22.6,17.44,17.44,0,0,1-5.05,6.5A1,1,0,0,0,.2,36.78L1.78,39A1.09,1.09,0,0,0,2.52,39.4Z"/><path class="cls-1" d="M66.3,29.32H48.19a1,1,0,0,0-1,1v2.19a1,1,0,0,0,1,1H62a8.44,8.44,0,0,1-3.42,3.91c0-.36.07-.69.09-1.15a1,1,0,0,0-.27-.73,1,1,0,0,0-.72-.31H55.16a1,1,0,0,0-1,1c-.07,4.18-1.11,7.41-5.93,9.56a1,1,0,0,0-.57.69,1,1,0,0,0,.2.85l1.51,1.82a1,1,0,0,0,.77.37,1,1,0,0,0,.43-.1C57.1,46.17,58,41.59,58.36,39l1.6,1.6a1,1,0,0,0,1.26.12c3.58-2.35,5.34-5.62,6.07-10.21a1,1,0,0,0-.23-.81A1,1,0,0,0,66.3,29.32Z"/><path class="cls-1" d="M86.3,32H79.24c.09-1.25.14-1.49.18-2.48a.94.94,0,0,0-.27-.69.92.92,0,0,0-.67-.29H75.9a1.14,1.14,0,0,0-1.13,1.12c0,.79,0,1.11-.11,2.35H69.42a1.14,1.14,0,0,0-1.14,1.14v2a1.14,1.14,0,0,0,1.14,1.14h4.74a13.17,13.17,0,0,1-6,9.24,1.14,1.14,0,0,0-.52.81,1.13,1.13,0,0,0,.28.91l1.53,1.71a1.14,1.14,0,0,0,1.5.17,18.85,18.85,0,0,0,7.75-12.84h4.2v1.34a48.94,48.94,0,0,1-.43,6.1c-.21,1-.41,1.27-1.78,1.27a16.27,16.27,0,0,1-1.84-.12A1.14,1.14,0,0,0,77.63,46l.12,2.2a1.14,1.14,0,0,0,1,1.06,24.12,24.12,0,0,0,2.65.14c1.45,0,3.87,0,5-2.68,1-2.38,1-9,1-10.83V33.1A1.14,1.14,0,0,0,86.3,32Z"/><path class="cls-1" d="M108.13,31.23h-6.55V29.42a.92.92,0,0,0-.92-.93H98a.93.93,0,0,0-.93.93v1.81H90.83a.93.93,0,0,0-.93.93V39.6a.93.93,0,0,0,.93.93h2.49a.92.92,0,0,0,.93-.93V35.41h10c-.12,5.53-3.87,9.12-11.12,9.79a.93.93,0,0,0-.7.42.9.9,0,0,0-.09.81l.84,2.39a.93.93,0,0,0,.87.62h.1c10-1,14.89-6.78,14.89-16.62v-.65A.93.93,0,0,0,108.13,31.23Z"/><path class="cls-1" d="M117.73,36.91a1,1,0,0,0,.51.15l.22,0a.92.92,0,0,0,.58-.44l1.42-2.43a.93.93,0,0,0,.09-.71.9.9,0,0,0-.44-.57,30.79,30.79,0,0,0-6.57-2.84.93.93,0,0,0-1.1.46l-1.14,2.18a.94.94,0,0,0,0,.77,1,1,0,0,0,.55.54A29.73,29.73,0,0,1,117.73,36.91Z"/><path class="cls-1" d="M130.76,33.07l-2.29-1.57a.92.92,0,0,0-1.41.5c-1.15,3.93-2.92,7.09-5,8.9-2.26,2-5.65,3.27-10.07,3.74a1,1,0,0,0-.65.38.92.92,0,0,0-.15.74l.64,2.94a.92.92,0,0,0,.9.74h.15c8.47-1.32,14.82-4.43,18.25-15.31A.94.94,0,0,0,130.76,33.07Z"/><path class="cls-1" d="M148,38.35A52.89,52.89,0,0,0,137.67,34l0-4.54a.93.93,0,0,0-.94-.93l-3,0a.94.94,0,0,0-.93.94l.13,19.06a1,1,0,0,0,1,.93l3,0a1,1,0,0,0,.93-1l-.07-9.75a40.16,40.16,0,0,1,7.87,4.18.93.93,0,0,0,1.36-.36l1.49-2.95A.93.93,0,0,0,148,38.35Z"/><path class="cls-1" d="M39.9,28.68l2.36-.95a.55.55,0,0,1,.54.08A12,12,0,0,1,44.5,30a.55.55,0,0,1-.22.82l-2.45,1.09a.55.55,0,0,1-.67-.2c-.37-.56-.93-1.45-1.49-2.15A.55.55,0,0,1,39.9,28.68Z"/><path class="cls-1" d="M41.28,50.05a4.22,4.22,0,0,1-2.93-1.35c-3.25-3.55-3.55-9.93-3.68-13.5H24.1a.85.85,0,0,1-.85-.85V32.21a.85.85,0,0,1,.85-.85H34.54c0-.55-.06-1.58-.08-2.23a.81.81,0,0,1,.23-.61.83.83,0,0,1,.61-.26h2.47a.85.85,0,0,1,.85.85v2.25h5.44a.86.86,0,0,1,.85.85v2.14a.86.86,0,0,1-.85.85H38.71c.13,2.14.4,5.86,1.6,8.62.38.81.71,1.18,1,1.22s1-.5,1.62-1.25a.73.73,0,0,1,.69-.28.94.94,0,0,1,.71.57s.63,1,1.11,1.84-.2,1.63-.51,2A6.55,6.55,0,0,1,41.28,50.05ZM34.67,35ZM24.22,49.48a.86.86,0,0,1-.53-.19.89.89,0,0,1-.32-.58l-.24-2.4a.88.88,0,0,1,.19-.63.81.81,0,0,1,.59-.3l1.38-.12,1.47-.12V40.68H24.52a.85.85,0,0,1-.85-.85V37.68a.86.86,0,0,1,.85-.85H33a.86.86,0,0,1,.85.85v2.15a.85.85,0,0,1-.85.85H30.78v4.13c.85-.1,1.43-.15,1.91-.19s.79-.07,1.12-.13a.86.86,0,0,1,.69.19.83.83,0,0,1,.3.64l0,2.08a.83.83,0,0,1-.68.84c-2.15.43-9.52,1.2-9.84,1.23Z"/><rect class="cls-1" x="18.74" width="4.81" height="20.91" rx="0.86"/><path class="cls-1" d="M44,0H40.87A.85.85,0,0,0,40,.86v11.4L31.21.38,31.14.29h0l-.05,0,0,0,0,0h0l0,0,0,0,0,0h0l-.05,0h0l-.05,0h0l-.05,0H27.41a.85.85,0,0,0-.86.86V20.05a.86.86,0,0,0,.86.86H30.5a.87.87,0,0,0,.86-.86V8.65l8.8,11.9a1.1,1.1,0,0,0,.22.21h0l0,0h0l0,0,0,0h0l.05,0h0a.78.78,0,0,0,.22,0H44a.86.86,0,0,0,.85-.86V.86A.85.85,0,0,0,44,0Z"/><path class="cls-1" d="M15.24,16.1H6.84V.86A.85.85,0,0,0,6,0H2.9A.85.85,0,0,0,2,.86V20.05H2a.83.83,0,0,0,.24.59v0h0a.85.85,0,0,0,.59.24H15.24a.87.87,0,0,0,.86-.86V17A.87.87,0,0,0,15.24,16.1Z"/><path class="cls-1" d="M61,0H48.68a.84.84,0,0,0-.6.24h0v0a.83.83,0,0,0-.24.59h0V20.05h0a.83.83,0,0,0,.24.59v0h0a.86.86,0,0,0,.6.24H61a.87.87,0,0,0,.86-.86V17A.87.87,0,0,0,61,16.1h-8.4V12.86H61a.87.87,0,0,0,.86-.86V8.91A.87.87,0,0,0,61,8.05h-8.4V4.81H61A.87.87,0,0,0,61.88,4V.86A.86.86,0,0,0,61,0Z"/></g></svg>