<?xml version="1.0" encoding="utf-8" ?>
<svg xmlns="http://www.w3.org/2000/svg" xmlns:xlink="http://www.w3.org/1999/xlink" width="100" height="200">
	<path fill="#283034" transform="matrix(0.1 0 0 0.1 0 -7.62939e-06)" d="M468.104 918.457L471.68 917.966C476.243 923.7 478.867 935.448 481.594 942.546L498.734 984.708L461.481 995.422L432.467 926.934L468.104 918.457Z"/>
	<path fill="#279F45" transform="matrix(0.1 0 0 0.1 0 -7.62939e-06)" d="M465.274 937.012L467.491 936.856C469.949 939.886 471.2 944.282 472.646 947.876L481.787 970.624C479.481 972.77 470.612 974.513 467.285 975.519L464.355 974.526L450.007 940.432L465.274 937.012Z"/>
	<path fill="#283034" transform="matrix(0.1 0 0 0.1 0 -7.62939e-06)" d="M436.906 522.949L439.941 522.438C447.345 536.256 452.931 552.141 459.318 566.579C463.085 575.097 469.586 585.458 471.446 594.432L436.77 606.453C435.21 606.991 434.905 607.015 433.281 606.717L403.405 533.977C405.493 532.152 410.013 531.452 412.776 530.607L436.906 522.949Z"/>
	<path fill="#279F45" transform="matrix(0.1 0 0 0.1 0 -7.62939e-06)" d="M434.406 542.48L435.872 542.339C440.676 545.627 450.901 573.798 454.234 581.41L439.941 586.601C438.456 586.831 437.65 586.804 436.196 586.426L420.079 546.788L434.406 542.48Z"/>
	<path fill="#283034" transform="matrix(0.1 0 0 0.1 0 -7.62939e-06)" d="M820.048 391.113L821.92 391.128C827.232 397.21 830.747 407.707 834.54 415.099L858.978 461.151L817.222 476.074L815.893 475.704L778.275 405.107L820.048 391.113Z"/>
	<path fill="#279F45" transform="matrix(0.1 0 0 0.1 0 -7.62939e-06)" d="M815.775 410.645L818.372 410.252C821.181 412.692 823.082 417.87 824.863 421.264L839.592 449.486L820.941 456.543L820.215 456.518C819.931 456.462 818.495 455.663 818.393 455.566C816.707 453.964 814.738 448.606 813.569 446.404L797.725 416.718L815.775 410.645Z"/>
	<path fill="#283034" transform="matrix(0.1 0 0 0.1 0 -7.62939e-06)" d="M674.407 773.926C676.21 773.497 677.382 773.251 679.199 773.697L713.556 877.769L713.031 878.745L650.217 895.129L610.183 786.522C613.169 784.301 665.727 775.702 674.407 773.926Z"/>
	<path fill="#279F45" transform="matrix(0.1 0 0 0.1 0 -7.62939e-06)" d="M670.303 791.504C673.874 793.416 693.442 856.876 696.539 866.164L656.558 876.329L628.845 799.913L670.303 791.504Z"/>
	<path fill="#283034" transform="matrix(0.1 0 0 0.1 0 -7.62939e-06)" d="M213.559 1641.3L290.44 1694.53L308.986 1707.11C311.448 1708.77 315.194 1710.67 316.948 1713.05L265.137 1774.11L262.68 1775.45L161.159 1704.25L213.559 1641.3Z"/>
	<path fill="#279F45" transform="matrix(0.1 0 0 0.1 0 -7.62939e-06)" d="M214.622 1662.32L294.961 1717.25C292.178 1721.9 287.713 1726.22 284.178 1730.35L263.659 1754.39L261.701 1755.45L182.918 1699.71L214.622 1662.32Z"/>
	<path fill="#283034" transform="matrix(0.1 0 0 0.1 0 -7.62939e-06)" d="M396.37 535.645L399.311 535.394C403.546 542.243 406.032 551.544 409.112 559.055L429.959 608.757C416.708 613.215 402.532 619.779 388.978 622.646C383.289 609.908 379.174 596.217 372.218 584.105L372.043 624.098L236.816 623.291L168.992 623.883L168.037 545.112L360.352 547.71C364.432 544.764 369.735 543.725 374.516 542.322L396.37 535.645Z"/>
	<path fill="#279F45" transform="matrix(0.1 0 0 0.1 0 -7.62939e-06)" d="M393.007 555.176L395.077 554.775C399.058 557.349 410.592 589.26 413.348 595.866L395.02 602.371C394.522 602.431 394.318 602.485 393.776 602.388C393.455 602.33 391.964 601.695 391.83 601.562C389.782 599.541 387.29 590.78 385.983 587.739L373.561 561.373L393.007 555.176Z"/>
	<path fill="#279F45" transform="matrix(0.1 0 0 0.1 0 -7.62939e-06)" d="M177.718 564.093L363.444 565.616L363.082 605.383L177.87 605.07L177.718 564.093Z"/>
	<path fill="#283034" transform="matrix(0.1 0 0 0.1 0 -7.62939e-06)" d="M414.315 1691.14L471.924 1740.42L467.97 1750.7C457.116 1773.83 439.977 1794.01 423.427 1813.25C408.015 1831.17 392.318 1849.37 374.222 1864.67C329.473 1902.48 268.489 1923.49 214.115 1943.38L185.503 1952.2L166.223 1873.24L211.344 1864.53C272.855 1846.28 323.643 1805.31 365.617 1758.1C384.604 1736.74 400.676 1716.31 414.315 1691.14Z"/>
	<path fill="#279F45" transform="matrix(0.1 0 0 0.1 0 -7.62939e-06)" d="M417.109 1712.39L456.611 1745.88C444.783 1767.91 427.394 1787.92 410.62 1806.32C397.77 1820.42 384.485 1835.64 369.899 1847.89C325.215 1885.42 265.991 1904.94 212.15 1925.17L190.093 1932.35L183.046 1903.27C182.075 1899.35 180.058 1894.07 180.284 1890.08L201.263 1885.88C241.88 1875.98 282.963 1854.42 315.43 1828.13C328.086 1817.88 339.967 1805.96 351.47 1794.46C376.632 1769.31 398.601 1742.78 417.109 1712.39Z"/>
	<path fill="#283034" transform="matrix(0.1 0 0 0.1 0 -7.62939e-06)" d="M754.676 758.109L757.812 757.507C758.941 758.319 758.91 758.272 759.266 759.612L784.67 858.83C786.656 857.184 788.265 852.819 789.458 850.497C803.999 822.204 808.042 790.197 813.326 759.192L876.485 774.968C872.922 798.698 866.164 823.099 858.964 845.965C853.612 862.964 848.216 881.625 840.64 897.72C821.825 937.692 787.108 973.247 753.314 1001.03C740.663 1010.36 727.799 1019.52 713.003 1025.1L676.146 982.419C671.907 977.666 659.751 966.948 658.393 960.999C658.131 959.85 657.757 956.658 658.691 955.826C660.338 954.359 669.836 952.78 672.464 952.034C682.602 949.155 692.617 944.756 701.965 939.919C737.89 921.332 762.446 894.612 783.672 860.789L725.815 875.556C724.325 873.851 723.794 870.488 723.153 868.304L718.017 850.808L693.232 770.218L754.676 758.109Z"/>
	<path fill="#279F45" transform="matrix(0.1 0 0 0.1 0 -7.62939e-06)" d="M746.492 776.673L750 776.232C753.021 778.708 754.214 788.599 755.249 792.56L769.39 847.423L734.863 856.452L731.748 855.957L709.646 783.716L746.492 776.673Z"/>
	<path fill="#279F45" transform="matrix(0.1 0 0 0.1 0 -7.62939e-06)" d="M819.246 779.766L863.906 790.633L854.208 830.048C848.135 850.317 842.01 872.837 832.533 891.785C820.376 916.088 801.812 937.957 782.726 957.057C765.047 974.747 746.09 991.174 724.049 1003.15L717.622 1006.09C704.967 994.363 693.721 979.011 682.472 965.818C697.586 959.534 712.353 952.009 725.852 942.713C743.611 930.485 757.88 914.914 771.051 898.006C784.499 880.743 796.603 862.126 804.199 841.481C811.49 821.665 815.463 800.478 819.246 779.766Z"/>
	<path fill="#283034" transform="matrix(0.1 0 0 0.1 0 -7.62939e-06)" d="M127.963 642.928L439.665 644.076L439.723 716.733L327.555 717.303C319.824 755.486 304.47 791.363 279.575 821.414C259.802 843.353 237.04 861.696 211.078 875.855L173.003 831.9C167.872 826.03 157.394 817.096 155.011 810.059C154.443 808.382 153.764 805.826 154.906 804.291C155.488 803.509 163.107 801.16 164.765 800.517C174.187 796.866 183.56 792.819 192.431 787.968C222.331 771.617 243.733 748.167 259.114 717.934L129.756 719.665L127.963 642.928Z"/>
	<path fill="#279F45" transform="matrix(0.1 0 0 0.1 0 -7.62939e-06)" d="M185.12 661.615L429.716 662.22C431.707 665.594 430.486 692.6 430.514 698.435L327.427 699.359C326.49 699.364 320.336 699.344 320.29 699.397C320.056 699.657 319.815 703.571 319.724 704.338C319.024 710.243 318.178 715.944 316.683 721.703C310.131 746.952 299.324 773.362 283.916 794.434C275.643 805.748 265.699 815.542 255.466 825.048C241.944 837.039 227.685 847.381 211.913 856.201L176.968 814.65C181.485 811.904 186.523 810.107 191.205 807.655C201.104 802.471 210.862 796.456 219.585 789.461C245.937 768.331 270.166 734.228 273.962 700.004L138.593 700.989L137.756 661.698L185.12 661.615Z"/>
	<path fill="#283034" transform="matrix(0.1 0 0 0.1 0 -7.62939e-06)" d="M423.206 1265.14C423.724 1265.06 425.382 1264.61 425.794 1264.73C429.57 1265.84 436.542 1272.36 440.003 1274.83L480.332 1302.86C478.187 1309.95 473.854 1316.99 469.91 1323.2C449.935 1354.69 418.332 1376.64 388.778 1398.33L394.059 1584.92L318.28 1587.76L314.781 1457.27C314.73 1454.54 314.937 1451.65 313.965 1449.07C280.125 1465.74 244.806 1479.4 207.939 1487.45L159.528 1419.42C174.788 1416.08 190.254 1412.72 205.129 1407.9C256.882 1391.13 305.917 1364.14 349.962 1332.58C365.154 1321.69 380.176 1310.98 393.729 1298.02C404.392 1287.83 413.776 1276.45 423.206 1265.14Z"/>
	<path fill="#279F45" transform="matrix(0.1 0 0 0.1 0 -7.62939e-06)" d="M425.804 1284.31C438.435 1290.99 450.77 1301.25 462.607 1309.46L462.503 1310.41C439.69 1341.48 410.4 1362.85 379.46 1385.26C378.981 1391.36 379.692 1397.9 379.895 1404.04L380.903 1438.96L384.388 1567.24L327.065 1568.78L323.089 1429.2C323.034 1427.02 323.321 1426.65 321.777 1425.01C287.834 1444.4 248.005 1460.94 209.554 1468.13C205.132 1465.54 188.134 1438.73 183.666 1432.42C209.7 1426.98 234.618 1416.36 258.605 1405.14C306.576 1382.7 353.231 1354.96 392.815 1319.44C404.782 1308.7 415.315 1296.46 425.804 1284.31Z"/>
	<path fill="#283034" transform="matrix(0.1 0 0 0.1 0 -7.62939e-06)" d="M624.391 996.362L695.219 1011.89L681.365 1044.91L754.773 1045.5L779.406 1045.49C781.336 1045.5 785.611 1044.98 787.303 1045.53C790.127 1046.45 812.951 1069.38 816.742 1072.91C816.584 1077.98 814.514 1083.4 813.198 1088.28L805.623 1115.73C798.484 1139.02 789.793 1161.84 778.107 1183.25C758.449 1219.25 729.504 1254.56 699.132 1281.95C689.371 1290.75 679.067 1298.4 668.707 1306.41C648.326 1322.18 628.186 1336.45 605.395 1348.55L550.604 1288.77C546.288 1284.1 543.972 1282.26 544.231 1275.66L561.824 1268.79C591.735 1255.59 620.773 1242.42 646.323 1221.56C659.412 1210.87 670.582 1198.47 681.683 1185.79C698.987 1166.03 713.107 1145.92 725.113 1122.6C716.571 1122.55 642.12 1121.04 638.959 1122.7C637.836 1123.29 619.619 1149.27 616.097 1153.59C600.293 1172.95 583.042 1190.86 562.073 1204.66L521.902 1171.57C516.429 1167.14 507.554 1161.81 503.446 1156.19C502.368 1154.72 502.069 1152.87 502.354 1151.1C502.465 1150.41 502.832 1150.44 503.427 1150.11L523.807 1137.8C572.264 1105.16 613.195 1054.38 624.391 996.362Z"/>
	<path fill="#279F45" transform="matrix(0.1 0 0 0.1 0 -7.62939e-06)" d="M629.85 1016.1L678.002 1026.4L660.968 1062.96L754.863 1063.37L774.966 1063.5C777.406 1063.52 781.032 1063.02 783.268 1063.56C785.074 1063.99 787.671 1066.85 789.012 1068.06L804.713 1082.47L796.03 1113.4C778.675 1168.59 744.199 1220.81 702.032 1260.26C689.621 1271.87 675.912 1282.04 662.394 1292.29C644.305 1306.01 627.24 1318.39 607.054 1328.93L567.178 1284.82L609.254 1264.56L618.748 1259.35C647.374 1243.37 670.998 1219.53 691.542 1194.27C714.181 1166.43 732.241 1139.68 742.124 1104.74C730.813 1104.71 638.266 1103.47 636.903 1104.2C635.999 1104.68 633.135 1109.69 632.325 1110.87L618.141 1130.49C603.127 1150.12 584.168 1171.21 563.334 1184.74L539.452 1165.13C535.52 1161.86 530.415 1158.44 527.338 1154.44C562.371 1129.22 595.48 1095.28 614.746 1056.35C621.158 1043.39 625.583 1029.88 629.85 1016.1Z"/>
	<path fill="#283034" transform="matrix(0.1 0 0 0.1 0 -7.62939e-06)" d="M625.539 24.296L696.11 46.5198L626.962 247.15L715.997 241.035L680.734 165.777L747.771 144.882C751.568 150.895 754.219 157.784 757.235 164.227L771.423 193.709L825.888 307.031L834.005 323.681L770.343 358.806L751.888 318.673C745.562 318.238 737.831 320.116 731.443 320.894L683.911 326.881L517.085 348.087L504.667 254.751L554.566 251.876L625.539 24.296Z"/>
	<path fill="#279F45" transform="matrix(0.1 0 0 0.1 0 -7.62939e-06)" d="M630.037 44.3432L680.298 59.8209L609.148 265.866L735.868 257.725L699.289 178.619L744.796 164.38L802.149 283.446L816.945 314.239L787.109 331.102C782.964 333.389 777.888 337.002 773.268 337.98L755.801 300.301L524.321 328.506L517.185 272.455L559.871 269.404L630.037 44.3432Z"/>
	<path fill="#283034" transform="matrix(0.1 0 0 0.1 0 -7.62939e-06)" d="M733.307 1381.33L756.937 1380.99C758.703 1380.98 763.176 1380.4 764.686 1380.96C767.445 1381.97 773.198 1388.75 775.6 1391.01L804.298 1417.03C792.945 1462.37 772.312 1502.25 746.058 1540.63L850.119 1632.95L792.2 1693.94L695.654 1600.84C669.689 1626.94 642.314 1651.25 609.863 1668.96L561.152 1693.72C549.097 1674.81 535.663 1656.16 524.529 1636.75C520.489 1629.71 517.191 1621.98 513.664 1614.66L540.8 1606.1C610.899 1580.63 668.301 1533.64 700.109 1465.68L559.374 1468.67L557.058 1382.95L733.307 1381.33Z"/>
	<path fill="#279F45" transform="matrix(0.1 0 0 0.1 0 -7.62939e-06)" d="M749.492 1398.96C752.371 1398.91 758.55 1397.96 761.053 1398.76C764.64 1399.91 787.073 1422.06 791.692 1426.24C787.326 1438.28 783.505 1450.31 778.305 1462.05C765.491 1490.98 747.434 1519.94 727.161 1544.27L829.524 1635.31L792.72 1673.94L696.288 1580.53C667.76 1610.12 637.631 1636.39 600.846 1655.21L564.215 1673.66L533.984 1627.02L576.674 1609.05C626.236 1583.97 670.341 1545.62 697.274 1496.58C705.879 1480.91 711.9 1464.64 717.439 1447.69C714.445 1446.21 586.323 1449.67 568.165 1450L567.033 1401.2L749.492 1398.96Z"/>
	<path fill="#283034" transform="matrix(0.1 0 0 0.1 0 -7.62939e-06)" d="M426.453 928.223C427.755 928.034 429.035 928.054 430.348 928.038L458.599 996.35L451.66 998.428C455.976 1000.41 464.977 999.281 469.933 999.224L470.551 1072.16L415.987 1072.14C414.708 1099.58 412.42 1127.65 401.923 1153.37C379.672 1207.89 335.141 1252.94 280.777 1275.72C275.312 1271.11 270.087 1260.39 265.988 1254.23L234.379 1207.46C257.288 1198.6 279.751 1188.4 299.15 1173.07C316.711 1159.19 330.927 1141.19 336.908 1119.39C339.076 1111.49 339.749 1103.09 340.725 1094.97L341.069 1072.24L276.492 1072.38L276.978 1148.11L214.957 1147.54L214.856 1073.24C212.762 1071.61 155.802 1073.23 148.266 1073.31L146.537 997.185L214.435 998.186L213.912 937.646L276.955 938.959L276.527 998.798L342.665 999.071L341.925 940.129C349.525 940.237 388.231 942.416 392.001 939.941L391.113 937.358L391.842 935.889L426.453 928.223Z"/>
	<path fill="#279F45" transform="matrix(0.1 0 0 0.1 0 -7.62939e-06)" d="M423.443 946.777L426.27 947.21L441.37 983.296L425.293 988.045L423.665 987.697C420.233 985.006 410.577 956.956 408.255 951.043C410.547 949.002 420.082 947.606 423.443 946.777Z"/>
	<path fill="#279F45" transform="matrix(0.1 0 0 0.1 0 -7.62939e-06)" d="M223.268 956.1L267.447 956.569L267.562 1016.36L351.19 1016.72L351.933 957.943L400.082 958.957C404.457 967.649 403.918 976.447 404.349 985.956L405.693 1017.15L460.748 1017.57L461.069 1053.87L406.706 1054.12C406.107 1084.2 405.691 1113.18 394.396 1141.57C374.628 1191.26 332.635 1233.73 283.691 1255.01L282.617 1255.44C278.287 1253.97 259.754 1223.36 256.086 1217.84C279.21 1205.97 301.258 1194.68 319.255 1175.28C350.616 1141.46 351.481 1098.22 349.829 1054.52L267.57 1054.68L267.532 1129.8L224.006 1129.34L223.643 1054.7L157.102 1054.77L156.293 1015.9L223.55 1015.95L223.268 956.1Z"/>
	<path fill="#283034" transform="matrix(0.1 0 0 0.1 0 -7.62939e-06)" d="M672.92 399.902L675.874 399.902L687.452 460.271L743.531 451.824C743.326 447.842 729.501 426.683 726.724 421.634L769.664 407.943L790.102 442.973C795.317 451.599 802.858 461.44 806.652 470.711C807.556 472.922 807.534 475.665 807.596 478.027C805.207 482.194 791.492 485.45 786.712 487.165L792.315 517.747L701.189 532.523L706.523 560.477C710.563 560.777 715.408 559.454 719.432 558.792L745.351 554.445L820.168 542.047L832.717 613.945L720.309 632.1L731.885 692.669C733.786 702.286 737.669 714.017 737.648 723.642L724.38 725.81L665.336 736.454L648.99 643.177L532.938 662.431C529.952 657.567 529.654 646.022 528.697 640.044L520.18 590.266L636.095 572.106L631.036 543.803L558.133 556.012C550.442 557.32 538.635 561.066 531.093 560.537L519.601 485.867C523.436 483.255 536.312 483.031 541.494 482.272L617.946 470.962L606.851 410.504L672.92 399.902Z"/>
	<path fill="#279F45" transform="matrix(0.1 0 0 0.1 0 -7.62939e-06)" d="M666.292 419.283L668.945 419.006C671.573 422.076 672.102 429.572 672.917 433.698L681.54 478.91C690.941 478.216 760.521 468.159 764.371 465.714C766.581 455.197 749.75 443.379 747.648 433.343L766.972 426.981L790.608 467.481L775.454 472.678C775.154 475.966 776.305 479.742 776.863 483.02L779.827 501.986L688.924 516.955L700.653 579.563L813.655 561.158L818.616 589.214C819.049 591.806 820.424 595.942 819.629 598.346L708.18 616.39C707.297 619.882 722.765 694.373 724.865 705.566L724.942 707.186C721.079 709.707 713.136 710.051 708.403 710.84L671.767 717.112L654.999 624.654L538.572 642.942L532.747 606.811L648.69 587.816L637.231 525.113L537.488 541.131L531.761 502.2L630.425 487.007L619.64 427.062L666.292 419.283Z"/>
</svg>
