<?xml version="1.0" encoding="utf-8" ?>
<svg xmlns="http://www.w3.org/2000/svg" xmlns:xlink="http://www.w3.org/1999/xlink" width="1000" height="400">
	<path fill="#838383" d="M270.937 270.641C274.277 276.841 277.173 282.41 281.632 287.919C280.675 294.781 278.709 300.598 272.962 304.905C267.423 309.055 261.609 312.193 254.456 311.166C250.221 310.557 245.734 308.002 242.569 305.151L247.451 305.23C253.392 305.152 260.847 300.866 264.887 296.671C272.066 289.217 271.099 280.217 270.937 270.641Z"/>
	<path fill="#838383" d="M509.253 228.07C513.528 228.844 517.495 231.065 519.982 234.698C524.204 240.867 525.317 249.183 523.888 256.41C520.32 274.456 510.787 293.017 495.188 303.398C487.779 308.329 478.234 312.465 469.236 313.054C465.176 313.32 461.811 312.56 457.858 312.021C455.183 311.657 452.468 311.518 449.821 310.97C444.572 309.884 440.88 307.012 436.374 304.481C441.647 304.697 447.16 305.858 452.36 306.678C463.868 308.493 477.979 302.205 487.027 295.635C495.234 289.676 501.534 281 506.027 271.996C507.282 269.481 508.842 266.539 509.289 263.776L509.605 263.391C511.153 261.291 513.565 251.455 513.2 249.105C513.554 248.467 513.843 247.801 513.945 247.072C514.796 240.979 512.855 233.052 509.253 228.07Z"/>
	<path fill="#FEFEFE" d="M513.2 249.105C515.324 252.078 514.49 257.428 513.926 260.981C513.671 262.592 513.151 263.824 512 264.988C511 264.77 510.173 264.268 509.289 263.776L509.605 263.391C511.153 261.291 513.565 251.455 513.2 249.105Z"/>
	<path fill="#838383" d="M766.976 105.934C771.191 106.19 774.705 109.351 777.376 112.373C783.628 119.445 786.273 127.468 787.756 136.641C788.834 143.315 788.563 150.328 788.438 157.07L787.702 187.277C787.405 207.054 788.292 226.888 787.008 246.642C786.016 261.904 783.673 277.45 778.763 291.974C776.938 297.37 774.957 303.029 770.575 306.909C768.103 309.097 765 310.322 761.681 310.093C757.316 309.791 754.36 307.115 751.295 304.292C754.554 303.459 756.913 303.253 759.671 301.08C769.371 293.435 773.589 267.28 775.127 254.94C778.339 229.171 777.097 203.073 777.336 177.167C777.494 160.066 779.887 141.964 776.453 125.125C774.994 117.969 771.422 111.643 766.976 105.934Z"/>
	<path fill="#838383" d="M364.856 89.975L367.026 91.1363C376.051 94.3552 381.977 102.342 385.958 110.732C392.033 123.536 394.145 137.626 395.449 151.604L398.044 204.176C398.447 212.732 399.897 221.569 399.997 230.058L400.11 232.051L403.083 271.79C403.47 279.084 404.36 286.902 402.855 294.087C402.225 297.092 400.606 300.031 398.626 302.356C394.238 307.508 386.323 310.587 379.721 311.036C373.135 311.485 367.635 309.341 362.692 305.028L362.279 304.655C360.885 304.067 359.548 303.207 358.227 302.464C365.355 303.015 372.006 302.758 378.412 299.249C383.461 296.483 387.33 292.587 388.948 286.959C391.136 279.349 389.827 270.528 389.448 262.715L384.931 203.382C383.266 176.787 384.603 148.882 379.023 122.738C377.223 114.303 374.671 105.78 370.291 98.2967C368.614 95.4301 366.473 92.8832 364.856 89.975Z"/>
	<path fill="#EC5E31" d="M364.856 89.975L367.026 91.1363C369.192 94.4434 371.683 97.5344 373.633 100.979C377.448 107.716 380.019 115.332 381.727 122.872C387.918 150.198 386.3 179.583 388.197 207.443L392.497 263.469C392.913 270.908 394.085 279.518 392.605 286.813C391.41 292.706 388.495 296.861 383.484 300.121C376.765 304.494 370.09 304.976 362.279 304.655C360.885 304.067 359.548 303.207 358.227 302.464C365.355 303.015 372.006 302.758 378.412 299.249C383.461 296.483 387.33 292.587 388.948 286.959C391.136 279.349 389.827 270.528 389.448 262.715L384.931 203.382C383.266 176.787 384.603 148.882 379.023 122.738C377.223 114.303 374.671 105.78 370.291 98.2967C368.614 95.4301 366.473 92.8832 364.856 89.975Z"/>
	<path fill="#2A3033" d="M399.997 230.058C400.593 228.084 400.183 225.961 400.122 223.932C399.428 200.935 404.731 177.624 412.172 155.985C415.57 146.104 418.931 136.284 426.242 128.508C433.489 120.801 442.537 118.176 452.881 117.939C465.584 117.648 480.998 122.887 490.335 131.738C491.374 132.185 492.4 132.357 492.955 133.367C496.391 134.408 499.461 136.761 502.164 139.062C509.016 144.898 514.779 152.1 519.006 160.046C525.499 172.249 527.964 187.301 523.859 200.671C522.043 206.587 518.929 211.225 513.355 214.169C507.182 217.43 499.578 218.204 492.702 218.476L492.985 218.625C494.399 219.359 495.813 219.402 497.285 219.909C500.522 221.024 503.178 222.514 505.646 224.906L505.831 225.649C506.93 226.105 508.587 226.597 509.136 227.762L509.253 228.07C512.855 233.052 514.796 240.979 513.945 247.072C513.843 247.801 513.554 248.467 513.2 249.105C513.565 251.455 511.153 261.291 509.605 263.391L509.289 263.776C508.842 266.539 507.282 269.481 506.027 271.996C501.534 281 495.234 289.676 487.027 295.635C477.979 302.205 463.868 308.493 452.36 306.678C447.16 305.858 441.647 304.697 436.374 304.481C435.671 303.535 434.156 303.012 433.093 302.501C431.867 301.58 430.087 300.912 428.729 300.135C426.236 298.711 423.939 297.052 421.781 295.157C408.926 283.87 405.961 263.966 403.109 247.924C402.268 243.192 402.131 236.731 400.253 232.372L400.11 232.051L399.997 230.058ZM492.955 133.367C505.459 145.676 515.316 162.049 515.403 180.027C515.441 188.079 513.949 198.231 508.021 204.209C504.944 207.312 500.984 209.249 496.79 210.355C483.086 213.966 450.604 210.92 450.623 231.543C450.627 236.816 451.597 242.123 453.369 247.081C454.069 249.039 456.262 252.125 455.822 253.977C456.518 254.249 457.263 254.523 458.008 254.618C459.871 254.856 461.251 253.869 462.646 252.785L462.702 251.563C464.798 250.549 465.262 249.125 466.237 247.087C469.159 240.977 470.714 234.169 474.242 228.362C475.51 226.276 477.053 224.436 478.895 222.83C479.946 221.913 481.463 221.507 482.138 220.252C485.636 219.255 489.206 219.398 492.702 218.476C499.578 218.204 507.182 217.43 513.355 214.169C518.929 211.225 522.043 206.587 523.859 200.671C527.964 187.301 525.499 172.249 519.006 160.046C514.779 152.1 509.016 144.898 502.164 139.062C499.461 136.761 496.391 134.408 492.955 133.367Z"/>
	<path fill="#EC5E31" d="M505.831 225.649C506.93 226.105 508.587 226.597 509.136 227.762L509.253 228.07C512.855 233.052 514.796 240.979 513.945 247.072C513.843 247.801 513.554 248.467 513.2 249.105C513.565 251.455 511.153 261.291 509.605 263.391L509.289 263.776C508.842 266.539 507.282 269.481 506.027 271.996C501.534 281 495.234 289.676 487.027 295.635C477.979 302.205 463.868 308.493 452.36 306.678C447.16 305.858 441.647 304.697 436.374 304.481C435.671 303.535 434.156 303.012 433.093 302.501C438.6 302.181 444.73 304.296 450.214 304.749C462.798 305.79 477.599 299.413 486.927 291.231C497.492 281.962 504.719 268.878 508.489 255.438C509.502 251.828 510.557 248.207 510.774 244.444C511.136 238.186 510.172 230.518 505.831 225.649Z"/>
	<path fill="#EC5E31" d="M490.335 131.738C491.374 132.185 492.4 132.357 492.955 133.367C505.459 145.676 515.316 162.049 515.403 180.027C515.441 188.079 513.949 198.231 508.021 204.209C504.944 207.312 500.984 209.249 496.79 210.355C483.086 213.966 450.604 210.92 450.623 231.543C450.627 236.816 451.597 242.123 453.369 247.081C454.069 249.039 456.262 252.125 455.822 253.977C455.012 253.238 454.33 252.409 453.688 251.524C449.03 245.102 446.46 233.795 447.807 225.995C448.356 222.812 450.367 219.924 452.897 217.972C461.664 211.208 474.852 211.057 485.397 209.736C491.356 208.989 497.227 208.011 502.221 204.44C508.384 200.033 510.436 193.544 511.628 186.394C514.284 170.478 508.856 154.635 499.195 142.023C496.517 138.527 493.005 135.549 490.514 131.996L490.335 131.738Z"/>
	<path fill="#838383" d="M492.955 133.367C496.391 134.408 499.461 136.761 502.164 139.062C509.016 144.898 514.779 152.1 519.006 160.046C525.499 172.249 527.964 187.301 523.859 200.671C522.043 206.587 518.929 211.225 513.355 214.169C507.182 217.43 499.578 218.204 492.702 218.476C489.206 219.398 485.636 219.255 482.138 220.252C481.463 221.507 479.946 221.913 478.895 222.83C477.053 224.436 475.51 226.276 474.242 228.362C470.714 234.169 469.159 240.977 466.237 247.087C465.262 249.125 464.798 250.549 462.702 251.563L462.646 252.785C461.251 253.869 459.871 254.856 458.008 254.618C457.263 254.523 456.518 254.249 455.822 253.977C456.262 252.125 454.069 249.039 453.369 247.081C451.597 242.123 450.627 236.816 450.623 231.543C450.604 210.92 483.086 213.966 496.79 210.355C500.984 209.249 504.944 207.312 508.021 204.209C513.949 198.231 515.441 188.079 515.403 180.027C515.316 162.049 505.459 145.676 492.955 133.367ZM462.702 251.563C464.798 250.549 465.262 249.125 466.237 247.087C469.159 240.977 470.714 234.169 474.242 228.362C475.51 226.276 477.053 224.436 478.895 222.83C479.946 221.913 481.463 221.507 482.138 220.252C475.287 221.373 467.544 223.621 463.301 229.523C460.193 233.847 460.859 240.236 461.714 245.208C462.013 246.946 463.097 249.917 462.702 251.563Z"/>
	<path fill="#EC5E31" d="M501.274 258.873C501.529 259.979 501.44 260.494 500.972 261.538C494.62 275.7 484.153 286.974 469.563 292.736C465.896 294.184 461.384 295.729 457.446 296.007C455.282 296.16 455.883 295.038 454.346 294.578C453.739 294.396 451.304 294.871 450.547 294.902C443.789 295.185 437.312 294.924 431.027 292.16C422.369 288.351 417.028 280.436 413.711 271.877C411.238 265.496 409.867 258.839 408.5 252.159C406.73 243.51 405.23 234.808 404.827 225.968C403.946 206.659 407.424 187.907 413.016 169.51C415.017 162.925 416.915 156.254 419.706 149.952C423.733 140.86 429.748 132.466 439.335 128.788C450.627 124.456 464.989 126.677 475.753 131.492C477.688 132.358 481.139 133.826 481.894 135.798C486.754 137.775 491.336 142.728 494.615 146.688C495.685 147.98 497.151 149.56 497.741 151.147C497.906 151.591 497.925 151.851 497.862 152.312C501.948 154.551 505.242 163.324 506.507 167.644C508.57 174.687 509.02 184.662 505.373 191.251C502.669 196.135 497.603 198.465 492.438 199.862C478.132 203.73 455.278 200.392 446.521 215.341C441.259 224.325 443.148 237.344 445.717 246.92C447.149 252.256 450.201 259.294 455.193 262.23C456.842 263.2 458.938 263.615 460.798 263.057C464.387 261.981 467.106 257.972 468.705 254.777C472.817 246.56 474.774 232.049 484.619 228.699C489.244 227.126 494.662 227.29 499.074 229.486C502.385 231.133 504.752 233.865 505.886 237.391C507.432 242.2 505.912 247.598 504.578 252.259L503.366 253.454C503.582 254.997 503.402 256.576 502.386 257.88C502.083 258.269 501.671 258.586 501.274 258.873Z"/>
	<path fill="#FEFEFE" d="M471.738 159.457L473.389 159.51L474.122 160.366C475.979 163.028 474.798 169.266 474.231 172.299C473.813 174.53 473.378 176.581 471.387 177.933L471.312 177.955C470.109 177.685 470.023 177.082 469.375 176.068C468.849 172.765 470.054 169.981 470.484 166.789C470.846 164.107 470.286 161.921 471.738 159.457Z"/>
	<path fill="#FEFEFE" d="M501.274 258.873C500.916 258.805 500.811 258.719 500.535 258.47C499.573 257.603 499.36 257.01 499.209 255.694C498.873 252.775 500.09 249.679 499.962 246.71C499.856 244.249 498.522 241.714 498.554 239.322C498.577 237.507 499.518 236.641 500.732 235.528L501.709 235.977C502.252 236.771 502.732 237.567 503.023 238.491C504.109 241.942 505.374 249.958 503.533 253.178L503.366 253.454C503.582 254.997 503.402 256.576 502.386 257.88C502.083 258.269 501.671 258.586 501.274 258.873Z"/>
	<path fill="#FEFEFE" d="M497.862 152.312C498.492 153.511 498.773 154.678 498.641 156.044C498.5 157.499 497.92 158.341 496.826 159.253C494.605 158.663 491.009 152.532 489.105 150.637C485.72 147.269 481.661 144.364 477.295 142.416C475.14 141.455 472.855 140.826 470.882 139.504C470.256 138.413 469.829 137.404 469.753 136.13C469.641 134.268 470.277 133.11 471.436 131.79C474.718 131.613 479.037 134.259 481.894 135.798C486.754 137.775 491.336 142.728 494.615 146.688C495.685 147.98 497.151 149.56 497.741 151.147C497.906 151.591 497.925 151.851 497.862 152.312Z"/>
	<path fill="#2A3033" d="M450.999 142.366C452.929 142.016 455.083 141.811 456.956 142.495C460.887 143.93 464.189 147.446 465.94 151.186C469.262 158.286 468.13 168.566 465.484 175.765C464.225 179.19 462.101 183.452 458.645 185.044C458.528 185.231 458.518 185.272 458.329 185.441C456.97 186.657 454.964 186.837 453.232 186.75C451.392 186.657 449.005 186.133 447.782 184.649C446.87 183.541 446.334 181.797 445.89 180.446C443.735 173.897 443.876 163.977 444.422 157.081C444.881 151.279 446.483 146.194 450.999 142.366Z"/>
	<path fill="#EC5E31" d="M451.854 178.207C451.317 178.07 450.69 177.584 450.206 177.289C448.624 174.67 448.741 169.642 448.552 166.569C448.253 161.688 447.946 155.481 451.368 151.6C452.673 150.887 454.15 150.293 455.658 150.699C457.074 151.081 457.629 151.257 458.359 152.501C456.205 152.909 454.972 152.915 453.567 154.823C450.638 158.8 451.455 167.136 451.919 171.835C452.095 173.622 452.786 176.633 451.854 178.207Z"/>
	<path fill="#838383" d="M458.359 152.501C460.359 153.13 461.414 154.809 462.343 156.578L463.928 159.813C463.268 161.794 462.595 163.77 462.242 165.833C461.368 170.956 461.747 174.988 456.299 177.725C454.84 178.458 453.44 178.349 451.854 178.207C452.786 176.633 452.095 173.622 451.919 171.835C451.455 167.136 450.638 158.8 453.567 154.823C454.972 152.915 456.205 152.909 458.359 152.501Z"/>
	<path fill="#2A3033" d="M725.934 240.223C728.147 238.425 727.983 233.9 728.058 231.249C728.362 220.463 727.027 209.389 726.356 198.614L725.768 160.165C725.95 152.736 726.026 145.183 726.985 137.811C728.686 124.732 733.165 108.263 744.203 99.8733C747.053 97.7069 750.043 96.7426 753.62 97.2925C757.332 97.863 762.523 101.427 764.687 104.399C765.59 104.832 766.498 105.033 766.976 105.934C771.422 111.643 774.994 117.969 776.453 125.125C779.887 141.964 777.494 160.066 777.336 177.167C777.097 203.073 778.339 229.171 775.127 254.94C773.589 267.28 769.371 293.435 759.671 301.08C756.913 303.253 754.554 303.459 751.295 304.292C750.2 303.467 747.068 302.683 745.601 301.986C742.967 300.402 740.561 298.791 738.525 296.457C736.64 294.295 735.126 289.159 732.856 288.127C732.453 289.867 729.896 292.091 728.65 293.462C723.83 298.768 719.017 304.553 712.874 308.381C709.092 310.738 704.596 312.416 700.08 311.457C696.704 310.741 694.346 307.41 691.406 305.866L686.901 304.179C686.04 303.045 683.863 302.099 682.665 301.237C677.5 297.518 673.477 292.652 670.623 286.98C667.54 280.852 665.707 273.98 664.673 267.221C663.798 261.5 663.286 255.679 662.951 249.903C662.681 245.253 661.649 209.192 660.92 207.814C660.729 207.454 660.004 206.87 659.7 206.557L659.799 206.349C660.675 204.293 660.182 200.763 660.17 198.479L659.639 180.874C659.461 178.264 659.503 175.408 658.616 172.925C658.83 172.647 659.484 171.972 659.582 171.673C659.856 170.844 659.643 168.968 659.682 168.037L660.35 160.098C661.18 152.467 662.661 144.923 664.376 137.446C666.088 129.987 667.98 122.498 671.928 115.845C673.972 112.402 677.031 108.429 681.103 107.409C684.871 106.465 688.606 107.53 691.842 109.524C693.335 110.444 697.35 113.101 697.746 114.715C698.381 114.966 699.215 115.18 699.625 115.742C705.393 116.545 709.913 121.371 713.271 125.791C717.809 131.766 719.913 138.429 721.235 145.704C723.164 156.324 723.161 167.243 723.276 177.998L724.127 209.967L725.353 230.015C725.583 232.864 726.465 236.593 726.193 239.32C726.162 239.624 726.047 239.94 725.934 240.223Z"/>
	<path fill="#EC5E31" d="M686.901 304.179C688.458 303.078 691.439 303.376 693.359 302.869C696.22 302.113 698.802 300.644 701.177 298.909C706.53 294.999 710.903 289.773 715.322 284.878C718.05 281.856 721.447 277.344 725.342 275.878C726.753 275.347 727.314 275.621 728.628 276.19L728.863 277.4C724.75 279.865 721.729 283.314 718.541 286.819C710.6 295.549 703.827 304.244 691.406 305.866L686.901 304.179Z"/>
	<path fill="#EC5E31" d="M697.746 114.715C698.381 114.966 699.215 115.18 699.625 115.742C711.644 127.178 712.347 147.099 712.73 162.552L714.325 215.343C715.004 226.072 715.37 238.062 719.649 248.041L719.453 249.11C708.698 243.799 710.157 167.28 709.387 152.927C708.999 145.698 708.241 138.343 706.403 131.327C704.724 124.92 701.565 120.007 697.746 114.715Z"/>
	<path fill="#838383" d="M728.863 277.4C731.402 279.441 732.238 283.367 733.297 286.447L732.856 288.127C732.453 289.867 729.896 292.091 728.65 293.462C723.83 298.768 719.017 304.553 712.874 308.381C709.092 310.738 704.596 312.416 700.08 311.457C696.704 310.741 694.346 307.41 691.406 305.866C703.827 304.244 710.6 295.549 718.541 286.819C721.729 283.314 724.75 279.865 728.863 277.4Z"/>
	<path fill="#EC5E31" d="M745.601 301.986C749.079 301.92 752.225 301.915 755.258 299.971C764.087 294.314 767.312 278.073 769.371 268.567C775.949 238.194 773.798 206.894 774.296 176.062L774.928 146.447C774.968 139.83 775.05 133.227 773.947 126.679C772.475 117.933 769.455 111.808 764.687 104.399C765.59 104.832 766.498 105.033 766.976 105.934C771.422 111.643 774.994 117.969 776.453 125.125C779.887 141.964 777.494 160.066 777.336 177.167C777.097 203.073 778.339 229.171 775.127 254.94C773.589 267.28 769.371 293.435 759.671 301.08C756.913 303.253 754.554 303.459 751.295 304.292C750.2 303.467 747.068 302.683 745.601 301.986Z"/>
	<path fill="#838383" d="M699.625 115.742C705.393 116.545 709.913 121.371 713.271 125.791C717.809 131.766 719.913 138.429 721.235 145.704C723.164 156.324 723.161 167.243 723.276 177.998L724.127 209.967L725.353 230.015C725.583 232.864 726.465 236.593 726.193 239.32C726.162 239.624 726.047 239.94 725.934 240.223C726.545 242.117 725.89 243.734 725.007 245.442C724.256 246.896 723.382 247.931 722.119 248.958C721.125 249.253 720.474 249.298 719.453 249.11L719.649 248.041C715.37 238.062 715.004 226.072 714.325 215.343L712.73 162.552C712.347 147.099 711.644 127.178 699.625 115.742Z"/>
	<path fill="#EC5E31" d="M695.232 123.18C697.16 123.787 698.07 125.584 699.04 127.222C707.299 141.175 705.31 162.516 705.589 178.313C705.894 195.582 706.346 213.089 708.417 230.246C709.021 235.252 709.354 240.456 710.721 245.323C711.621 248.526 713.032 251.768 715.159 254.352C716.431 255.898 718.02 257.627 720.137 257.778C722.091 257.917 724.007 257.053 725.453 255.785C730.121 251.691 731.941 239.428 732.364 233.655C733.23 221.832 731.312 210.088 730.661 198.316C729.76 182.017 729.731 165.51 730.488 149.206C731.124 135.515 734.106 118.041 744.878 108.399C746.786 106.691 749.125 105.733 751.709 105.943C753.233 106.067 754.416 106.241 755.389 107.446C758.832 107.979 761.715 111.258 763.68 113.961C765.981 117.124 769.865 124.002 769.211 128.069L769.068 128.647L769.004 128.885L768.848 129.344L769.881 130.461C770.925 133.352 770.513 137.199 770.495 140.259L770.382 157.448C770.174 186.987 770.663 216.813 768.171 246.258C767.368 255.743 765.978 265.433 763.467 274.634C761.831 280.629 759.085 288.915 753.269 292.109C750.983 293.364 748.952 293.719 746.475 292.929C737.65 290.118 736.82 279.045 733.144 272.026C732.108 270.047 730.514 267.711 728.269 267.057C721.736 265.153 711.892 278.97 707.843 283.24C704.625 286.633 701.25 290.163 697.131 292.457C693.953 294.226 689.918 295.464 686.326 294.344C681.006 292.684 676.627 285.911 674.143 281.268C671.56 276.438 669.873 270.762 668.969 265.372C666.62 251.363 666.941 236.751 666.153 222.573L664.769 197.727C664.447 192.187 663.903 186.61 664.119 181.056C664.422 173.253 666.223 165.756 667.252 158.056C668.423 149.301 668.438 140.652 671.058 132.097C672.759 126.541 674.951 119.437 680.547 116.608C682.632 115.554 684.814 115.433 687.019 116.181C688.877 116.811 690.985 117.74 691.876 119.494C693.194 120.166 694.78 121.212 695.195 122.747C695.232 122.882 695.227 123.046 695.232 123.18Z"/>
	<path fill="#FEFEFE" d="M737.089 236.14L738.88 236.033C739.467 236.355 739.725 236.472 740.059 237.08C741.595 239.87 739.964 245.719 739.15 248.652C738.586 250.686 737.999 252.878 736.05 253.976L735.701 254.166L734.619 253.328C732.72 249.951 734.633 246.87 735.541 243.468C736.178 241.076 736.525 238.561 737.089 236.14Z"/>
	<path fill="#FEFEFE" d="M691.876 119.494C693.194 120.166 694.78 121.212 695.195 122.747C695.232 122.882 695.227 123.046 695.232 123.18C696.587 124.751 697.42 126.825 698.226 128.718C699.516 131.748 702.53 141.316 701.255 144.322C700.721 145.584 700.508 146.054 699.219 146.558L698.083 145.658C696.704 142.079 696.393 138.207 695.083 134.618C693.815 131.142 689.991 127.015 690.096 123.321C690.142 121.703 690.729 120.587 691.876 119.494Z"/>
	<path fill="#FEFEFE" d="M755.389 107.446C758.832 107.979 761.715 111.258 763.68 113.961C765.981 117.124 769.865 124.002 769.211 128.069L769.068 128.647L769.004 128.885L768.848 129.344C769.096 129.895 769.345 130.522 769.339 131.136C769.321 132.948 768.887 134.204 767.661 135.485L766.602 135.274C765.051 133.583 765.126 131.133 764.748 128.962C764.244 126.069 763.605 123.418 762.118 120.859C761.295 119.442 760.196 118.043 758.831 117.113C757.45 116.171 755.407 115.691 754.693 114.123C753.757 112.067 754.594 109.402 755.389 107.446Z"/>
	<path fill="#2A3033" d="M576.015 122.181C578.346 121.646 579.372 119.197 580.811 117.482C585.426 111.98 594.565 107.4 601.727 106.924C611.995 106.241 622.83 112.062 630.399 118.636C630.978 118.917 631.804 119.192 632.134 119.758C639.312 121.933 647.468 129.951 650.977 136.481C655.581 145.049 656.827 154.852 658.173 164.347C658.511 166.73 659.457 170.373 658.716 172.642L658.616 172.925C659.503 175.408 659.461 178.264 659.639 180.874L660.17 198.479C660.182 200.763 660.675 204.293 659.799 206.349L659.7 206.557C661.105 210.481 660.264 216.982 660.224 221.21C660.081 236.283 659.439 251.322 657.426 266.269C656.13 275.895 654.326 285.85 650.146 294.701C647.362 300.598 643.786 306.328 637.325 308.612C634.38 309.653 630.999 309.705 628.175 308.335C625.695 307.132 623.68 305.242 621.371 303.784C620.435 302.9 617.962 302.101 616.702 301.461L611.539 298.216C602.108 291.043 598.784 280.133 597.003 268.864C594.625 253.821 595.454 238.646 595.976 223.503C596.41 210.91 597.06 197.366 595.343 184.901C595.032 182.646 595.089 181.096 593.216 179.68L593.138 179.893C592.485 181.613 591.322 183.08 590.728 184.821C588.486 191.388 588.059 199.609 587.605 206.528C585.759 234.625 590.312 262.557 582.314 290.119C580.423 296.633 577.37 304.824 570.673 307.804C567.913 309.032 564.898 308.98 562.117 307.873C559.451 306.812 557.152 304.748 554.986 302.917C553.425 302.038 551.313 301.419 549.632 300.741C549.109 300.003 547.602 299.37 546.805 298.828C545.11 297.678 543.43 296.273 542.075 294.734C536.608 288.524 534.307 280.752 532.852 272.772C529.889 256.531 531.178 240.558 531.05 224.221C531.025 221.1 530.092 218.042 530.06 214.896L531.038 162.459L531.695 141.019C532.313 131.788 533.568 119.245 540.985 112.857C544.224 110.068 548.137 108.913 552.364 109.232C557.601 109.627 563.312 112.868 566.671 116.858L566.912 117.149C569.254 118.148 574.902 119.89 576.015 122.181Z"/>
	<path fill="#838383" d="M566.912 117.149C569.254 118.148 574.902 119.89 576.015 122.181L576.416 123.52C575.692 124.633 574.942 125.953 574.011 126.897C573.29 127.628 572.57 128.205 571.538 128.205C570.7 124.111 568.569 120.88 566.912 117.149Z"/>
	<path fill="#EC5E31" d="M549.632 300.741C552.823 300.233 555.212 300.746 558.19 299.025C563.966 295.69 566.456 289.049 568.362 283.039C576.227 258.238 573.297 231.75 573.792 206.147C573.969 196.988 574.41 186.727 576.857 177.88C577.72 174.761 579.383 171.476 582.35 169.889C583.769 169.13 585.575 169.164 587.082 169.636C587.977 169.917 587.966 170.074 588.376 170.879C585.136 171.874 583.042 173.232 581.41 176.308C578.919 181.005 578.5 186.83 577.931 192.047C575.553 213.828 577.903 235.731 576.455 257.554C575.783 267.686 574.054 277.975 570.664 287.561C568.736 293.013 565.418 300.06 559.395 301.961L554.986 302.917C553.425 302.038 551.313 301.419 549.632 300.741Z"/>
	<path fill="#838383" d="M588.376 170.879C590.469 171.525 591.689 173.21 592.664 175.092L594.006 178.51L593.216 179.68L593.138 179.893C592.485 181.613 591.322 183.08 590.728 184.821C588.486 191.388 588.059 199.609 587.605 206.528C585.759 234.625 590.312 262.557 582.314 290.119C580.423 296.633 577.37 304.824 570.673 307.804C567.913 309.032 564.898 308.98 562.117 307.873C559.451 306.812 557.152 304.748 554.986 302.917L559.395 301.961C565.418 300.06 568.736 293.013 570.664 287.561C574.054 277.975 575.783 267.686 576.455 257.554C577.903 235.731 575.553 213.828 577.931 192.047C578.5 186.83 578.919 181.005 581.41 176.308C583.042 173.232 585.136 171.874 588.376 170.879Z"/>
	<path fill="#838383" d="M630.399 118.636C630.978 118.917 631.804 119.192 632.134 119.758C639.312 121.933 647.468 129.951 650.977 136.481C655.581 145.049 656.827 154.852 658.173 164.347C658.511 166.73 659.457 170.373 658.716 172.642L658.616 172.925C659.503 175.408 659.461 178.264 659.639 180.874L660.17 198.479C660.182 200.763 660.675 204.293 659.799 206.349L659.7 206.557C661.105 210.481 660.264 216.982 660.224 221.21C660.081 236.283 659.439 251.322 657.426 266.269C656.13 275.895 654.326 285.85 650.146 294.701C647.362 300.598 643.786 306.328 637.325 308.612C634.38 309.653 630.999 309.705 628.175 308.335C625.695 307.132 623.68 305.242 621.371 303.784C620.435 302.9 617.962 302.101 616.702 301.461C619.508 301.167 622.779 301.048 625.324 299.764C632.381 296.202 636.333 288.292 638.767 281.123C646.605 258.039 646.395 231.875 646.711 207.763C646.937 190.471 646.852 173.205 644.577 156.03C643.723 149.585 642.885 142.987 640.98 136.754C639.53 132.011 637.436 127.162 634.236 123.321C633.035 121.88 631.28 120.54 630.485 118.838L630.399 118.636Z"/>
	<path fill="#EC5E31" d="M630.399 118.636C630.978 118.917 631.804 119.192 632.134 119.758C643.239 130.454 645.494 142.575 647.525 157.216C648.907 167.178 649.619 177.304 649.811 187.358C650.317 213.859 651.791 279.185 633.641 297.951C629.973 301.744 626.281 302.549 621.371 303.784C620.435 302.9 617.962 302.101 616.702 301.461C619.508 301.167 622.779 301.048 625.324 299.764C632.381 296.202 636.333 288.292 638.767 281.123C646.605 258.039 646.395 231.875 646.711 207.763C646.937 190.471 646.852 173.205 644.577 156.03C643.723 149.585 642.885 142.987 640.98 136.754C639.53 132.011 637.436 127.162 634.236 123.321C633.035 121.88 631.28 120.54 630.485 118.838L630.399 118.636Z"/>
	<path fill="#EC5E31" d="M567.256 133.814C569.165 135.712 569.405 136.955 572.266 137.291C577.026 134.853 579.17 129.707 582.374 125.716C586.475 120.608 594.074 116.536 600.586 115.88C603.331 115.604 608.866 115.268 611.124 117.115C618.593 118.365 627.944 125.001 632.315 131.115C633.403 132.637 634.511 134.341 634.309 136.251L634.56 136.4C636.917 137.892 638.198 145.043 638.816 147.738C643.477 168.084 642.743 190.758 642.379 211.546C642.079 228.625 641.963 245.929 638.729 262.759C637.323 270.077 635.498 277.824 631.478 284.204C629.348 287.584 625.8 291.73 621.661 292.534C618.857 293.079 615.393 291.936 613.064 290.399C595.412 278.755 600.054 232.483 600.514 213.784C600.795 202.365 601.244 190.232 598.987 178.999C597.803 173.102 595.333 165.659 590.004 162.194C587.903 160.828 585.496 160.203 582.999 160.778C567.702 164.296 569.728 208.345 569.661 220.308L569.174 251.214C568.617 261.95 567.546 277.412 561.411 286.494C559.746 288.959 557.186 291.27 554.156 291.768C551.508 292.203 548.911 291.005 546.816 289.485C541.475 285.607 539.297 279.562 537.79 273.415C534.576 260.314 535.021 246.355 535.218 232.955C535.275 229.09 535.714 225.036 535.432 221.2C535.327 219.767 534.669 218.439 534.463 217.024C534.127 214.722 534.447 211.925 534.474 209.585L534.709 194.155L535.501 158.264C535.713 150.233 535.663 141.689 536.876 133.75C537.415 130.226 538.488 125.995 540.747 123.151C543.039 120.266 546.498 118.126 550.21 117.735C552.399 117.505 555.522 117.904 557.249 119.358L557.423 119.518C560.953 120.631 564.382 124.185 566.023 127.464C566.886 129.188 567.779 131.917 567.256 133.814Z"/>
	<path fill="#FEFEFE" d="M567.256 133.814C566.934 135.017 566.68 135.038 565.674 135.673C563.459 134.149 562.949 129.812 561.273 127.528C560.242 126.124 558.296 125.38 557.538 123.87C556.884 122.568 556.984 120.863 557.423 119.518C560.953 120.631 564.382 124.185 566.023 127.464C566.886 129.188 567.779 131.917 567.256 133.814Z"/>
	<path fill="#FEFEFE" d="M634.309 136.251C634.51 136.927 634.809 137.753 634.766 138.462C634.676 139.958 633.846 140.69 632.812 141.605C631.025 140.739 629.647 137.016 628.442 135.236C626.988 133.089 625.273 131.3 623.097 129.882C617.589 126.295 611.859 125.08 605.469 126.466L604.465 125.763C603.777 124.605 603.46 123.694 603.424 122.329C603.386 120.902 603.443 119.684 604.477 118.619C606.026 117.025 609.026 117.157 611.124 117.115C618.593 118.365 627.944 125.001 632.315 131.115C633.403 132.637 634.511 134.341 634.309 136.251Z"/>
	<path fill="#2A3033" d="M238.265 302.761C235.435 301.732 232.678 299.971 230.393 298.029C209.897 280.609 203.335 240.961 201.148 215.438C198.165 180.644 200.841 142.778 211.938 109.532C215.738 98.147 220.841 86.3583 228.652 77.1482C233.247 71.7302 239.474 66.7633 246.818 66.2222C254.491 65.6568 259.865 69.6035 265.408 74.3225L267.92 75.5708C278.779 79.7644 285.662 90.8785 290.202 101.082C294.451 110.632 297.444 120.681 299.674 130.877C300.854 128.835 301.388 125.896 302.076 123.628C304.717 114.923 307.25 103.928 313.257 96.927C320.09 88.963 332.127 81.9228 342.655 81.17C351.738 80.5206 358.228 84.2428 364.856 89.975C366.473 92.8832 368.614 95.4301 370.291 98.2967C374.671 105.78 377.223 114.303 379.023 122.738C384.603 148.882 383.266 176.787 384.931 203.382L389.448 262.715C389.827 270.528 391.136 279.349 388.948 286.959C387.33 292.587 383.461 296.483 378.412 299.249C372.006 302.758 365.355 303.015 358.227 302.464L357.777 302.29C347.41 297.798 342.05 288.433 339.142 277.908C338.33 274.97 338.021 271.57 336.817 268.801L336.7 268.541C333.836 279.89 328.853 295.354 318.224 301.674C314.558 303.854 310.387 304.478 306.254 303.374C302.58 302.393 299.668 300.169 296.811 297.759C295.277 297.272 293.844 296.296 292.454 295.492C288.234 294.163 284.827 290.815 281.632 287.919C277.173 282.41 274.277 276.841 270.937 270.641C271.099 280.217 272.066 289.217 264.887 296.671C260.847 300.866 253.392 305.152 247.451 305.23L242.569 305.151L238.265 302.761Z"/>
	<path fill="#EC5E31" d="M265.408 74.3225L267.92 75.5708C270.44 79.5999 273.49 83.1936 275.877 87.3268C283.394 100.344 287.72 115.823 290.479 130.541C291.712 137.119 291.824 144.88 293.824 151.163L291.258 159.823C289.077 134.731 285.64 108.148 273.172 85.7932C270.922 81.759 268.046 78.1069 265.408 74.3225Z"/>
	<path fill="#EC5E31" d="M292.454 295.492C296.118 295.651 299.749 295.958 303.134 294.272C310.867 290.422 315.364 282.251 318.516 274.573C328.614 249.978 329.634 221.317 332.245 195.093C333.366 183.826 334.106 172.823 337.709 161.984L337.43 181.425C335.871 188.094 335.615 195.114 334.861 201.917C332.114 226.707 331.212 252.265 321.959 275.736C319.164 282.828 315.003 291.049 308.295 295.196C304.676 297.434 301.003 297.844 296.811 297.759C295.277 297.272 293.844 296.296 292.454 295.492Z"/>
	<path fill="#838383" d="M267.92 75.5708C278.779 79.7644 285.662 90.8785 290.202 101.082C294.451 110.632 297.444 120.681 299.674 130.877C298.539 137.604 296.029 144.7 293.824 151.163C291.824 144.88 291.712 137.119 290.479 130.541C287.72 115.823 283.394 100.344 275.877 87.3268C273.49 83.1936 270.44 79.5999 267.92 75.5708Z"/>
	<path fill="#EC5E31" d="M259.331 231.052C250.941 205.525 250.102 176.603 256.803 150.597C257.597 154.362 258.245 157.75 258.248 161.624L261.727 229.259L265.838 252.373L270.937 270.641C271.099 280.217 272.066 289.217 264.887 296.671C260.847 300.866 253.392 305.152 247.451 305.23L242.569 305.151L238.265 302.761C241.606 303.084 244.716 303.33 248.032 302.644C254.122 301.383 261.16 296.364 264.48 291.14C271.054 280.796 267.473 264.441 264.896 253.133L259.331 231.052Z"/>
	<path fill="#838383" d="M258.248 161.624L261.727 229.259L260.888 226.804C254.518 206.2 253.624 182.651 258.248 161.624Z"/>
	<path fill="#838383" d="M296.811 297.759C301.003 297.844 304.676 297.434 308.295 295.196C315.003 291.049 319.164 282.828 321.959 275.736C331.212 252.265 332.114 226.707 334.861 201.917C335.615 195.114 335.871 188.094 337.43 181.425C337.695 201.186 335.099 220.96 335.214 240.78L335.675 255.545C335.938 259.128 337.49 265.106 336.7 268.541C333.836 279.89 328.853 295.354 318.224 301.674C314.558 303.854 310.387 304.478 306.254 303.374C302.58 302.393 299.668 300.169 296.811 297.759Z"/>
	<path fill="#EC5E31" d="M247.171 74.8502C253.112 74.9041 257.86 77.377 262.005 81.4937C277.341 96.7249 282.495 123.947 285.333 144.553L286.828 161.664C286.949 163.685 286.652 168.138 288.147 169.5C289.606 170.831 290.383 170.909 292.236 170.87C294.358 167.211 295.283 162.419 296.566 158.365L303.886 134.589C306.657 125.219 308.981 112.702 315.095 104.889C320.743 97.6712 332.44 90.9722 341.458 89.9643C347.983 89.2352 354.125 91.1834 359.218 95.2637C372.958 106.27 375.576 127.469 377.451 143.846C379.947 165.648 379.458 187.667 380.926 209.541L384.985 261.234C385.302 267.203 385.884 273.281 385.712 279.256C385.636 281.868 384.969 284.384 383.298 286.447C379.92 290.618 372.886 293.325 367.676 293.861C361.966 294.449 356.822 293.576 352.318 289.832C345.631 284.273 343.177 275.314 341.718 267.095C336.88 239.835 341.18 210.865 341.962 183.368C342.171 176.022 342.589 168.378 341.911 161.068C341.65 158.259 341.453 154.598 339.087 152.697C338.466 152.198 337.908 152.429 337.158 152.51C333.553 155.661 332.742 161.441 331.787 165.903C328.487 181.323 327.621 197.32 326.115 212.997C324.153 230.299 322.734 248.293 316.937 264.803C314.799 270.891 312.271 276.795 307.804 281.566C305.104 284.451 301.342 286.994 297.245 287.039C291.607 287.1 286.545 283.28 283.05 279.181C271.931 266.141 268.557 245.699 266.522 229.164C264.715 214.486 263.89 199.522 263.469 184.743C263.17 174.229 263.425 163.502 262.087 153.058C261.707 150.086 261.32 145.256 258.998 143.122C257.886 142.1 257.283 142.129 255.859 142.161C251.73 145.357 250.966 154.562 250.268 159.572C248.286 173.79 247.141 187.634 248.779 201.986C249.747 210.465 251.303 218.939 253.25 227.244L259.627 252.414C261.835 261.127 265.924 274.025 262.728 282.704L262.605 283.028C262.432 283.495 262.256 283.942 261.983 284.363C259.284 288.521 251.409 293.369 246.578 294.226C241.879 295.06 237.463 293.591 233.619 290.913C229.349 287.939 226.054 283.724 223.303 279.359C215.23 266.552 210.984 250.353 208.363 235.559C204.745 215.139 203.942 194.41 205.056 173.73C206.126 153.842 209.108 133.387 215.539 114.489C218.572 105.577 222.188 96.6222 227.628 88.8709C232.689 81.6587 238.294 76.3979 247.171 74.8502Z"/>
	<path fill="#FEFEFE" d="M360.78 106.149L362.305 106.487C367.313 110.793 370.209 119.716 371.747 125.913C372.702 129.758 374.714 138.471 373.437 142.369C373.193 143.115 372.352 144.181 371.933 144.882C368.753 142.892 369.458 139.748 368.997 136.38C368.162 130.277 366.584 123.567 363.46 118.175C362.399 116.344 360.538 114.63 359.749 112.701C358.874 110.559 359.916 108.106 360.78 106.149Z"/>
	<path fill="#FEFEFE" d="M245.727 83.4722C247.396 83.5439 249.349 84.0867 250.915 84.6644C257.894 87.2396 263.013 93.3273 266.018 99.9463C267.207 102.567 269.279 108.112 268.08 110.867C267.572 112.034 267.006 112.345 265.869 112.807L264.654 111.245L262.388 104.949C260.047 99.6126 255.407 95.2416 249.989 93.1343C246.956 91.9549 245.703 92.4313 242.92 93.657C242.425 93.3596 241.98 93.2139 241.709 92.6902C240.588 90.524 240.525 88.995 241.278 86.6911C242.608 84.942 243.763 84.2924 245.727 83.4722Z"/>
</svg>
