<?xml version="1.0" encoding="utf-8" ?>
<svg xmlns="http://www.w3.org/2000/svg" xmlns:xlink="http://www.w3.org/1999/xlink" width="100" height="40">
	<path fill="#293034" transform="scale(0.1 0.1)" d="M459.807 80.2686C463.557 79.8571 467.721 79.8417 471.485 80.16C485.42 81.3385 500.21 87.1229 509.346 98.0775C513.963 103.614 516.593 110.132 518.802 116.903C522.119 127.073 524.341 137.764 524.815 148.474C525.053 153.866 524.666 159.099 524.531 164.465C524.414 169.107 524.756 173.46 524.354 178.161L462.448 178.148L462.451 200.394C462.387 208.521 461.506 218.589 464.831 226.129C465.444 227.52 466.042 228.838 467.529 229.416C468.538 229.204 469.074 229.146 469.84 228.379C475.92 222.289 474.075 192.863 473.89 184.143L525.447 183.889L524.529 205.007C523.824 221.042 521.062 241.916 511.194 254.976C504.809 263.426 494.784 268.505 484.385 269.894C466.826 272.238 443.939 268.887 429.675 258.006C422.328 252.401 416.906 243.935 415.7 234.676C411.926 205.701 411.976 174.809 414.168 145.695C414.814 137.102 415.28 128.331 417.403 119.955C419.415 112.012 423.045 104.3 428.086 97.8241C436.338 87.2227 446.654 81.9451 459.807 80.2686ZM460.246 90.0358C447.789 91.773 438.382 96.3201 430.644 106.589C426.725 111.791 423.86 117.919 422.286 124.237C418.622 138.938 418.794 155.122 418.565 170.186C418.257 190.477 418.03 211.238 420.947 231.364C421.999 238.623 426.033 244.845 431.886 249.209C441.734 256.552 454.687 259.355 466.705 260.348C472.262 260.807 477.768 261.084 483.309 260.262C492.711 258.867 502.085 255.042 507.884 247.186C510.298 243.916 512.022 239.893 513.442 236.108C518.283 223.211 519.861 207.409 519.517 193.676L479.51 194.131C479.523 204.978 480.405 229.405 472.454 237.159C471.131 238.448 469.793 239.092 467.922 239.076C466.073 239.059 464.529 238.237 463.268 236.908C454.905 228.09 457.034 199.347 457.195 187.182L457.128 168.088L518.981 168.092C520.015 152.645 519.42 139.591 515.011 124.622C512.934 117.57 510.292 110.687 505.41 105.062C497.748 96.2331 483.236 90.6319 471.747 89.8953L460.246 90.0358Z"/>
	<path fill="#FCCB7C" transform="scale(0.1 0.1)" d="M460.246 90.0358L471.747 89.8953C483.236 90.6319 497.748 96.2331 505.41 105.062C510.292 110.687 512.934 117.57 515.011 124.622C519.42 139.591 520.015 152.645 518.981 168.092L457.128 168.088L457.195 187.182C457.034 199.347 454.905 228.09 463.268 236.908C464.529 238.237 466.073 239.059 467.922 239.076C469.793 239.092 471.131 238.448 472.454 237.159C480.405 229.405 479.523 204.978 479.51 194.131L519.517 193.676C519.861 207.409 518.283 223.211 513.442 236.108C512.022 239.893 510.298 243.916 507.884 247.186C502.085 255.042 492.711 258.867 483.309 260.262C477.768 261.084 472.262 260.807 466.705 260.348C454.687 259.355 441.734 256.552 431.886 249.209C426.033 244.845 421.999 238.623 420.947 231.364C418.03 211.238 418.257 190.477 418.565 170.186C418.794 155.122 418.622 138.938 422.286 124.237C423.86 117.919 426.725 111.791 430.644 106.589C438.382 96.3201 447.789 91.773 460.246 90.0358ZM463.856 109.646C461.032 111.081 459.413 113.784 458.438 116.712C455.665 125.043 456.563 134.83 456.425 143.509C456.384 146.06 455.456 149.84 456.626 152.129C456.836 152.539 457.251 153.381 457.689 153.521C460.611 154.458 465.489 153.665 468.622 153.568L476.038 153.583C476.442 143.684 477.548 118.687 470.92 111.582C469.767 110.346 468.243 109.434 466.523 109.401C465.665 109.385 464.686 109.414 463.856 109.646Z"/>
	<path fill="#293034" transform="scale(0.1 0.1)" d="M463.856 109.646C464.686 109.414 465.665 109.385 466.523 109.401C468.243 109.434 469.767 110.346 470.92 111.582C477.548 118.687 476.442 143.684 476.038 153.583L468.622 153.568C465.489 153.665 460.611 154.458 457.689 153.521C457.251 153.381 456.836 152.539 456.626 152.129C455.456 149.84 456.384 146.06 456.425 143.509C456.563 134.83 455.665 125.043 458.438 116.712C459.413 113.784 461.032 111.081 463.856 109.646ZM465.32 118.926C463.277 120.395 462.895 122.173 462.513 124.538C461.5 130.804 461.754 137.502 461.682 143.836C463.224 144.514 466.17 144.106 467.896 144.098L470.459 144.117C471.582 141.643 470.405 125.296 469.451 122.661C468.941 121.251 467.956 119.685 466.515 119.093C466.059 118.906 465.801 118.871 465.32 118.926Z"/>
	<path fill="#293034" transform="scale(0.1 0.1)" d="M664.622 83.022L711.99 82.979L712.799 200.244L712.903 220.955C712.911 222.888 712.471 226.708 713.211 228.437C713.772 229.749 715.626 230.711 716.928 231.168C720.096 232.278 722.809 232.102 725.83 230.593C726.14 230.222 726.45 229.795 726.515 229.304C727.08 225.055 726.564 219.993 726.561 215.678L726.514 184.344L726.175 83.0531L779.094 82.9773L778.717 129.182L777.909 270.621L726.355 270.09L726.267 263.63C717.12 269.871 706.27 272.069 695.344 272.073C687.732 272.076 681.038 269.807 675.589 264.327C668.67 257.369 665.639 247.932 664.22 238.478C663.302 232.364 663.874 226.1 663.932 219.936L664.149 189.275L664.622 83.022Z"/>
	<path fill="#FCCB7C" transform="scale(0.1 0.1)" d="M671.613 93.0403L707.031 93.0304L707.935 195.037L708.06 226.043C708.073 228.247 707.523 232.677 708.111 234.578C708.335 235.303 709.854 236.825 710.398 237.416C712.803 240.03 716.833 241.826 720.373 241.923C724.804 242.044 728.266 240.006 731.387 237.075L731.401 93.0718L773.995 93.0045L773.947 128.977L772.984 260.45L731.4 260.094L731.397 247.503C728.496 250.676 725.595 253.434 721.851 255.599C712.131 261.218 698.584 263.887 687.637 260.909C681.536 259.25 676.878 255.45 673.772 249.965C670.918 244.922 669.28 238.652 668.784 232.906C667.833 221.863 668.878 210.012 668.912 198.866L669.452 123.536L669.596 103.479C669.621 100.365 669.204 96.3535 670.027 93.3837L671.613 93.0403Z"/>
	<path fill="#293034" transform="scale(0.1 0.1)" d="M612.712 80.775L618.239 80.4614C626.489 80.3864 633.192 82.3537 639.163 88.2902C644.552 93.6482 648.29 101.963 649.658 109.401C651.11 117.293 650.979 124.892 650.894 132.871L650.504 160.969L649.969 269.659L602.559 269.607L601.521 123.474C600.143 122.547 598.774 121.675 597.198 121.118C594.144 120.039 591.448 120.716 588.623 122.043C587.305 124.097 588.085 142.378 588.102 145.91L588.274 269.641L535.395 269.574L537.03 82.0292L588.097 82.3708L588.285 88.9617C595.953 83.6663 603.644 81.8846 612.712 80.775Z"/>
	<path fill="#FCCB7C" transform="scale(0.1 0.1)" d="M614.013 90.5395L618.113 90.4032C624.947 90.3131 632.038 92.4085 636.984 97.2885C641.62 101.862 644.256 108.904 645.254 115.218C646.319 121.95 646.034 128.731 646.016 135.527L645.741 165.303L645.021 259.089C643.91 259.872 611.882 259.375 607.592 259.374L607.343 226.935L606.678 134.782L606.53 121.685C606.52 120.874 606.766 118.389 606.482 117.733C606.211 117.107 605.105 116.111 604.626 115.58C602.141 112.828 597.896 110.513 594.086 110.44C589.998 110.362 586.056 112.738 583.209 115.457L583.221 131.746L583.154 259.428L540.631 259.41L541.705 91.9855L583.195 92.3418L583.2 105.123C591.99 95.7044 601.318 92.0502 614.013 90.5395Z"/>
	<path fill="#293034" transform="scale(0.1 0.1)" d="M245.064 44.301L308.209 44.5791L322.703 119.998L336.112 44.8313L397.548 44.8299C397.65 44.9818 397.871 248.883 397.996 267.783L352.079 267.118L352.161 186.545L351.863 163.326L338.184 267.191L309.19 266.824L293.085 166.593L293.111 266.731L246.122 266.226L245.064 44.301Z"/>
	<path fill="#FCCB7C" transform="scale(0.1 0.1)" d="M250.389 54.2399L304.382 54.1843L322.808 149.136L340.084 54.1585L392.126 54.3216L392.681 257.931L357.782 257.795C357.048 255.882 357.464 252.345 357.454 250.221L357.414 231.314L357.36 145.857L357.406 119.137C357.413 114.959 357.805 110.314 357.353 106.177C357.171 104.511 356.518 103.861 355.425 102.723L354.736 103.052L352.397 119.77C352.249 126.113 350.725 133.02 349.826 139.319L345.732 170.182L333.821 257.435L313.143 257.197L296.301 154.97L291.107 122.181C290.196 116.573 289.628 110.699 287.967 105.258C287.073 110.877 287.581 116.926 287.618 122.622L287.788 151.868L288.057 256.941L251.472 256.426L250.389 54.2399Z"/>
	<path fill="#293034" transform="scale(0.1 0.1)" d="M931.14 285.625L998.961 326.079L930.203 364.071L930.648 345.702L294.678 342.479L207.023 342.414L207.004 300.26L931.138 302.318L931.14 285.625Z"/>
	<path fill="#EC5F31" transform="scale(0.1 0.1)" d="M936.544 299.773L979.978 325.534L936.031 349.925L936.027 335.061L269.944 331.797L212.257 331.391L212.208 311.307L936.398 312.966L936.544 299.773Z"/>
</svg>
