<?xml version="1.0" encoding="utf-8" ?>
<svg xmlns="http://www.w3.org/2000/svg" xmlns:xlink="http://www.w3.org/1999/xlink" width="100" height="140">
	<path fill="#293034" transform="scale(0.1 0.1)" d="M332.972 83.4779L386.916 83.8765L388.953 358.175L387.218 358.795L332.153 359.076L332.972 83.4779Z"/>
	<path fill="#EC5E31" transform="scale(0.1 0.1)" d="M339.069 95.1924L380.854 95.2305L383.155 347.176L338.142 347.504L339.069 95.1924Z"/>
	<path fill="#293034" transform="scale(0.1 0.1)" d="M641.987 1004.96L697.897 1004.88L698.188 1206.69L698.487 1254.14L698.587 1267.01C698.603 1269.38 698.942 1272.21 698.223 1274.47L696.172 1274.62C688.411 1273.96 680.313 1274.51 672.518 1274.62L641.077 1275.37L641.987 1004.96Z"/>
	<path fill="#EC5E31" transform="scale(0.1 0.1)" d="M647.532 1015.82L692.316 1015.8L693.074 1225.21L693.083 1254.98C693.083 1256.58 693.591 1261.34 693.084 1262.58C692.873 1263.1 692.409 1263.47 692.071 1263.91L646.627 1264.28L647.532 1015.82Z"/>
	<path fill="#293034" transform="scale(0.1 0.1)" d="M488.09 714.549L544.947 715.058L544.104 985.825L487.526 985.898C486.248 983.444 488.606 740.562 488.09 714.549Z"/>
	<path fill="#EC5E31" transform="scale(0.1 0.1)" d="M494.151 726.465L539.016 726.754L538.288 974.022L492.96 974.041L494.151 726.465Z"/>
	<path fill="#293034" transform="scale(0.1 0.1)" d="M581.73 390.654L596.991 390.251L597.369 425.183L615.303 424.91L615.983 477.84L598.006 477.412L599.562 605.651C605.552 610.155 610.834 610.29 618.023 610.298L618.849 657.522L581.518 657.373C572.755 656.641 563.022 653.574 556.643 647.232C551.799 642.416 545.359 632.508 544.219 625.636C543.489 621.236 544.044 615.884 544.065 611.378L544.091 584.165L544.047 477.466L527.674 477.898L526.249 425.098L543.926 425.305L543.672 390.915L581.73 390.654Z"/>
	<path fill="#FCCB7C" transform="scale(0.1 0.1)" d="M553.952 402.316L591.187 401.971L591.678 436.81L609.619 436.686L610.076 466.089L591.975 466.097C592.097 480.372 592.806 609.847 594.343 612.182C598.789 618.937 604.953 620.934 612.412 622.51L612.67 638.41C612.699 640.73 613.094 643.504 612.176 645.654L609.877 645.968C594.45 646.036 571.427 648.942 559.31 636.991C556.031 633.757 550.694 626.032 550.038 621.524C549.363 616.883 549.819 611.457 549.8 606.746L549.737 576.222L549.78 466.08L533.195 466.043L532.483 436.953L549.763 436.922C549.757 431.839 548.74 404.951 550.581 402.543L553.952 402.316Z"/>
	<path fill="#293034" transform="scale(0.1 0.1)" d="M454.005 130.088C457.322 129.692 461.118 129.719 464.457 130.013C477.792 131.187 489.511 139.729 497.793 149.826C513.697 169.214 519.27 197.559 517.002 222.146L466.907 222.115C466.902 210.556 472.26 192.724 467.142 182.323C466.002 180.006 464.712 179.165 462.406 178.46C461.535 178.927 460.555 179.249 459.994 180.075C458.497 182.276 457.594 184.295 457.363 186.962C456.659 195.093 457.151 203.644 457.159 211.809L457.13 258.882L456.255 286.53C456.153 291.094 455.75 296.565 456.826 301.017C457.472 303.687 458.712 305.903 461.039 307.389L462.748 306.832C469.393 299.85 467.534 266.96 467.522 257.061L516.04 257.002L517.002 258.74C517.27 273.063 516.856 287.548 515.512 301.807C514.145 316.321 511.903 331.22 503.761 343.693C496.857 354.269 485.02 361.069 472.723 363.446C458.01 366.291 438.372 362.941 426.015 354.376C413.744 345.871 408.307 332.234 405.772 318.011C402.611 300.272 403.276 281.878 402.543 263.941C401.034 227.011 392.775 185.693 415.675 153.237C425.06 139.936 438.21 132.776 454.005 130.088Z"/>
	<path fill="#EC5E31" transform="scale(0.1 0.1)" d="M454.998 141.717L457.164 141.609C469.849 141.112 480.337 145.532 489.578 154.221C505.217 168.926 510.811 189.652 511.435 210.443L473.586 210.402C474.075 203.603 475.291 196.7 474.856 189.88C474.371 182.281 473.249 173.908 467.135 168.644C465.1 166.892 463.666 166.681 461.039 166.907C457.517 168.501 455.563 171.134 454.047 174.606C452.064 179.144 451.635 184.5 451.326 189.389C450.053 209.529 451.253 230.39 451.149 250.619C451.067 266.608 449.601 283.006 450.483 298.928C450.703 302.917 451.466 306.69 452.939 310.409C454.481 314.303 456.375 317.307 460.355 319.038C462.52 319.087 464.146 318.571 465.824 317.147C468.27 315.07 469.647 311.282 470.472 308.254C473.912 295.629 473.114 281.589 473.524 268.605L486.329 268.592L511.073 268.566C511.469 289.276 511.397 318.875 499.026 336.138C493.001 344.546 480.617 350.486 470.567 351.974C457.277 353.942 438.484 351.254 427.477 343.157C418.105 336.264 412.966 325.407 411.221 314.111C408.658 297.519 408.997 280.058 408.204 263.298C406.708 231.661 398.984 189.665 419.311 162.535C428.392 150.414 440.163 143.905 454.998 141.717Z"/>
	<path fill="#293034" transform="scale(0.1 0.1)" d="M401.461 1004.1L492.141 1004.29L492.095 1066.23C481.881 1065.11 470.985 1065.87 460.701 1066.03L460.626 1102.11L492.076 1101.91L492.074 1162.83L460.244 1162.48L460.075 1208.84L492.089 1208.61L492.096 1273.05L401.178 1273.49L401.461 1004.1Z"/>
	<path fill="#EC5E31" transform="scale(0.1 0.1)" d="M407.544 1015.83L486.175 1016.08L486.173 1054.27L455.036 1054.11L454.682 1114.05L486.195 1113.75L486.221 1150.98L454.544 1150.63L454.257 1220.62L462.019 1220.38L486.201 1220.28L486.189 1261.32L407.02 1261.48L407.544 1015.83Z"/>
	<path fill="#293034" transform="scale(0.1 0.1)" d="M584.898 129.45C597.024 128.747 609.36 130.994 619.635 137.752C634.111 147.273 642.58 164.973 645.759 181.515C648.982 198.288 648.594 215.512 648.608 232.516C648.63 258.605 648.793 285.189 642.553 310.693C640.547 318.895 637.603 328.571 632.765 335.554C624.521 347.453 611.051 353.483 597.296 356.146L595.315 356.498C582.149 358.416 563.594 355.523 552.886 347.426C541.695 338.964 537.391 323.163 535.687 309.858C532.769 287.082 532.345 264.565 532.153 241.642C531.957 218.149 530.732 193.75 537.168 170.898C539.38 163.042 542.07 155.421 547.153 148.936C557.255 136.044 569.031 131.382 584.898 129.45ZM585.553 141.093C573.002 142.306 560.591 146.432 552.233 156.416C547.175 162.458 543.773 169.878 541.867 177.5C537.405 195.345 537.937 214.712 537.919 232.989C537.899 254.086 538.042 275.098 540.11 296.119C541.412 309.364 543.31 326.918 554.309 335.837C564.562 344.151 581.691 346.147 594.534 344.956L596.065 344.751C609.344 342.209 621.725 336.803 629.694 325.336C632.961 320.634 634.818 314.459 636.366 308.984C643.353 284.277 642.484 256.928 642.569 231.442C642.619 216.427 643.446 201.128 640.51 186.323C637.573 171.513 629.764 156.615 616.877 148.204C608.13 142.495 595.857 140.348 585.553 141.093Z"/>
	<path fill="#EC5E31" transform="scale(0.1 0.1)" d="M585.553 141.093C595.857 140.348 608.13 142.495 616.877 148.204C629.764 156.615 637.573 171.513 640.51 186.323C643.446 201.128 642.619 216.427 642.569 231.442C642.484 256.928 643.353 284.277 636.366 308.984C634.818 314.459 632.961 320.634 629.694 325.336C621.725 336.803 609.344 342.209 596.065 344.751L594.534 344.956C581.691 346.147 564.562 344.151 554.309 335.837C543.31 326.918 541.412 309.364 540.11 296.119C538.042 275.098 537.899 254.086 537.919 232.989C537.937 214.712 537.405 195.345 541.867 177.5C543.773 169.878 547.175 162.458 552.233 156.416C560.591 146.432 573.002 142.306 585.553 141.093ZM584.515 162.069C579.719 164.543 577.702 167.072 576.008 172.196C574.026 178.187 573.813 184.802 573.55 191.064L572.939 216.908C572.635 240.312 571.702 264.205 574.112 287.507C575.17 297.735 576.43 309.121 581.187 318.358C582.971 321.822 585.147 324.536 588.859 325.988C590.278 325.945 591.608 326.019 592.96 325.546C598.045 322.409 599.774 316.835 601.063 311.274C604.907 294.69 604.951 277.014 604.956 260.062L604.251 213.623C603.885 204.385 604.255 194.944 602.897 185.784C602.011 179.806 600.495 173.394 597.287 168.211C595.523 165.361 593.166 163.068 589.794 162.299C588.055 161.903 586.282 161.963 584.515 162.069Z"/>
	<path fill="#293034" transform="scale(0.1 0.1)" d="M584.515 162.069C586.282 161.963 588.055 161.903 589.794 162.299C593.166 163.068 595.523 165.361 597.287 168.211C600.495 173.394 602.011 179.806 602.897 185.784C604.255 194.944 603.885 204.385 604.251 213.623L604.956 260.062C604.951 277.014 604.907 294.69 601.063 311.274C599.774 316.835 598.045 322.409 592.96 325.546C591.608 326.019 590.278 325.945 588.859 325.988C585.147 324.536 582.971 321.822 581.187 318.358C576.43 309.121 575.17 297.735 574.112 287.507C571.702 264.205 572.635 240.312 572.939 216.908L573.55 191.064C573.813 184.802 574.026 178.187 576.008 172.196C577.702 167.072 579.719 164.543 584.515 162.069ZM585.362 173.975C583.129 175.226 581.708 175.894 580.95 178.57C578.217 188.218 579.157 200.85 578.918 210.959C578.328 235.918 577.465 261.21 580.035 286.084C580.851 293.979 581.59 303.573 585.613 310.588C586.709 312.498 587.861 313.493 589.884 314.312C590.717 314.149 591.492 314.038 592.276 313.705C596.185 308.418 596.823 302.028 597.521 295.654C598.592 285.858 598.743 276.089 598.808 266.244C598.841 261.305 599.426 255.59 598.722 250.725C596.695 236.722 602.936 182.655 591.374 175.048C589.466 173.793 587.565 173.524 585.362 173.975Z"/>
	<path fill="#293034" transform="scale(0.1 0.1)" d="M248.967 130.781C252.903 130.279 256.994 130.397 260.958 130.533C275.237 131.025 290.923 138.181 300.564 148.643C307.468 156.136 311.052 165.319 313.881 174.948C321.075 199.428 320.733 222.851 319.877 248.025L252.295 248.049L252.289 277.705C252.242 286.289 251.695 295.613 254.203 303.908C254.924 306.294 255.724 308.392 258.031 309.614C258.759 309.345 259.542 309.221 260.076 308.642C267.368 300.727 265.116 266.35 264.501 255.544L321.07 254.889L319.89 283.178C318.698 301.59 316.05 324.991 305.284 340.473C298.777 349.832 288.573 355.863 277.424 357.861C258.995 361.165 234.899 357.051 219.562 346.234C210.029 339.51 203.573 329.335 201.677 317.835C199.815 306.541 199.538 294.611 199.001 283.176L199.152 216.699C199.831 203.361 200.442 189.593 203.566 176.581C205.711 167.65 209.87 158.496 215.319 151.068C224.048 139.17 234.529 133.058 248.967 130.781ZM250.065 142.412C236.287 144.711 226.453 149.844 218.165 161.459C213.513 167.977 210.191 175.693 208.458 183.502C203.742 204.763 204.452 228.114 204.369 249.811C204.287 271.122 203.557 293.954 207.482 314.968C209.061 323.424 215.127 330.988 222.145 335.67C237.124 345.662 260.882 349.574 278.479 345.88C288.025 343.876 297.047 338.573 302.341 330.219C312.833 313.667 314.383 288.201 314.552 268.994L314.081 266.898C308.928 266.396 303.537 266.778 298.356 266.855L270.926 267.284C270.867 280.719 271.317 294.845 268.11 307.982C267.222 311.621 265.846 316.067 263.235 318.851C261.523 320.677 259.775 321.142 257.348 321.184C253.995 319.963 252.307 317.899 250.853 314.738C247.894 308.306 247.243 300.757 246.837 293.768L246.581 264.509L246.608 236L313.848 236.01C315.333 217.595 314.408 201.329 309.504 183.493C307.092 174.721 304.185 166.38 298.198 159.347C289.972 149.683 274.785 143.255 262.33 142.266C258.43 141.957 253.933 141.866 250.065 142.412Z"/>
	<path fill="#EC5E31" transform="scale(0.1 0.1)" d="M250.065 142.412C253.933 141.866 258.43 141.957 262.33 142.266C274.785 143.255 289.972 149.683 298.198 159.347C304.185 166.38 307.092 174.721 309.504 183.493C314.408 201.329 315.333 217.595 313.848 236.01L246.608 236L246.581 264.509L246.837 293.768C247.243 300.757 247.894 308.306 250.853 314.738C252.307 317.899 253.995 319.963 257.348 321.184C259.775 321.142 261.523 320.677 263.235 318.851C265.846 316.067 267.222 311.621 268.11 307.982C271.317 294.845 270.867 280.719 270.926 267.284L298.356 266.855C303.537 266.778 308.928 266.396 314.081 266.898L314.552 268.994C314.383 288.201 312.833 313.667 302.341 330.219C297.047 338.573 288.025 343.876 278.479 345.88C260.882 349.574 237.124 345.662 222.145 335.67C215.127 330.988 209.061 323.424 207.482 314.968C203.557 293.954 204.287 271.122 204.369 249.811C204.452 228.114 203.742 204.763 208.458 183.502C210.191 175.693 213.513 167.977 218.165 161.459C226.453 149.844 236.287 144.711 250.065 142.412ZM254.57 165.771C251.557 167.076 249.892 169.345 248.692 172.323C244.887 181.767 246.171 192.66 245.797 202.6C245.658 206.318 244.365 213.717 245.987 217.041C246.287 217.656 246.667 218.131 247.095 218.662L257.584 218.741L267.226 218.718C267.332 205.302 268.447 189.779 265.3 176.739C264.568 173.703 263.276 169.929 261.038 167.699C259.658 166.325 257.983 165.605 256.021 165.597C255.208 165.594 255.239 165.619 254.57 165.771Z"/>
	<path fill="#293034" transform="scale(0.1 0.1)" d="M254.57 165.771C255.239 165.619 255.208 165.594 256.021 165.597C257.983 165.605 259.658 166.325 261.038 167.699C263.276 169.929 264.568 173.703 265.3 176.739C268.447 189.779 267.332 205.302 267.226 218.718L257.584 218.741L247.095 218.662C246.667 218.131 246.287 217.656 245.987 217.041C244.365 213.717 245.658 206.318 245.797 202.6C246.171 192.66 244.887 181.767 248.692 172.323C249.892 169.345 251.557 167.076 254.57 165.771ZM254.956 177.393C249.971 182.934 251.455 199.768 251.479 206.787C253.455 207.522 255.936 207.258 258.031 207.261L260.766 207.266C262.434 205.055 261.1 188.394 260.623 184.904C260.209 181.877 259.596 179.373 257.003 177.462C256.374 176.999 255.702 177.307 254.956 177.393Z"/>
	<path fill="#293034" transform="scale(0.1 0.1)" d="M915.994 128.811C932.916 129.286 948.875 134.164 960.871 146.746C968.219 154.454 971.925 164.352 974.782 174.413C981.635 198.54 981.236 221.335 980.682 246.139L913.074 246.413L912.929 277.285C912.86 285.458 911.813 301.539 917.951 307.791C919.467 307.85 919.847 308.007 920.998 306.845C927.801 299.974 925.538 264.638 925.214 254.101L981.697 253.165L980.072 289.072C978.189 306.524 975.081 328.414 963.456 342.226C955.307 351.909 942.961 356.411 930.622 357.329C912.958 358.644 889.867 353.619 876.559 341.734C859.677 326.657 860.914 305.088 859.707 284.286C858.19 258.132 858.44 231.561 860.409 205.437C861.191 195.055 861.689 184.438 864.423 174.349C867.364 163.497 872.418 152.893 880.012 144.512C889.937 133.556 901.623 129.644 915.994 128.811ZM909.692 141.032C896.337 143.418 886.69 148.775 878.719 160.07C873.635 167.274 870.44 175.566 868.655 184.165C864.768 202.894 865.236 223.376 865.023 242.417C864.766 265.431 863.858 290.78 868.156 313.428C869.798 322.079 875.992 329.72 883.241 334.443C897.931 344.014 921.602 348.276 938.821 344.487C948.666 342.321 957.722 337.118 963.129 328.417C973.912 311.066 974.567 286.803 975.284 266.943L974.643 265.382C969.281 264.813 963.685 265.218 958.297 265.305L931.574 265.926C931.661 278.461 932.721 308.594 923.65 317.529C922.193 318.965 920.654 319.576 918.66 319.824C915.84 319.088 913.994 317.578 912.48 315.127C910.071 311.229 909.068 305.927 908.402 301.465C906.604 289.427 907.036 277.064 907.13 264.931L907.112 234.531L974.551 234.563C975.737 216.346 975.1 201.22 970.574 183.5C968.219 174.278 965.045 164.799 958.647 157.523C949.979 147.667 934.61 141.331 921.674 140.697L909.692 141.032Z"/>
	<path fill="#EC5E31" transform="scale(0.1 0.1)" d="M909.692 141.032L921.674 140.697C934.61 141.331 949.979 147.667 958.647 157.523C965.045 164.799 968.219 174.278 970.574 183.5C975.1 201.22 975.737 216.346 974.551 234.563L907.112 234.531L907.13 264.931C907.036 277.064 906.604 289.427 908.402 301.465C909.068 305.927 910.071 311.229 912.48 315.127C913.994 317.578 915.84 319.088 918.66 319.824C920.654 319.576 922.193 318.965 923.65 317.529C932.721 308.594 931.661 278.461 931.574 265.926L958.297 265.305C963.685 265.218 969.281 264.813 974.643 265.382L975.284 266.943C974.567 286.803 973.912 311.066 963.129 328.417C957.722 337.118 948.666 342.321 938.821 344.487C921.602 348.276 897.931 344.014 883.241 334.443C875.992 329.72 869.798 322.079 868.156 313.428C863.858 290.78 864.766 265.431 865.023 242.417C865.236 223.376 864.768 202.894 868.655 184.165C870.44 175.566 873.635 167.274 878.719 160.07C886.69 148.775 896.337 143.418 909.692 141.032ZM914.538 164.404C910.225 167.088 908.755 171.693 907.7 176.41C905.707 185.317 906.315 195.267 906.273 204.364C906.256 208.068 905.605 212.6 906.874 216.075C909.517 218.221 915.645 217.155 919.173 217.075L927.953 216.96C928.071 205.316 929.785 173.959 921.685 166.124C919.586 164.093 917.51 164.062 914.825 164.352L914.538 164.404Z"/>
	<path fill="#293034" transform="scale(0.1 0.1)" d="M914.538 164.404L914.825 164.352C917.51 164.062 919.586 164.093 921.685 166.124C929.785 173.959 928.071 205.316 927.953 216.96L919.173 217.075C915.645 217.155 909.517 218.221 906.874 216.075C905.605 212.6 906.256 208.068 906.273 204.364C906.315 195.267 905.707 185.317 907.7 176.41C908.755 171.693 910.225 167.088 914.538 164.404ZM915.443 176.025C910.899 181.702 911.977 198.129 912.225 205.42C914.461 205.932 916.722 205.794 919.002 205.771L921.907 205.579C922.354 198.958 923.063 182 918.87 176.997C918.165 176.157 917.612 175.654 916.403 175.756L915.443 176.025Z"/>
	<path fill="#293034" transform="scale(0.1 0.1)" d="M678.588 423.393C690.592 421.838 705.236 424.549 715.376 431.14C731.025 441.314 739.918 459.36 743.412 477.213C746.7 494.008 746.302 511.396 746.323 528.438C746.355 555.439 746.537 583.177 740.217 609.587C738.111 618.39 735.146 628.254 730.022 635.782C721.372 648.49 707.272 654.754 692.647 657.46C677.638 659.126 659.494 657.347 647.034 647.998C635.121 639.058 631.585 622.172 629.479 608.265C625.964 585.049 626.13 561.091 625.991 537.671C625.875 518.296 625.159 498.482 628.222 479.283C630.088 467.589 633.603 453.64 640.796 444.148C650.703 431.077 662.688 425.461 678.588 423.393ZM684.219 435.043C670.247 436.026 656.568 439.572 647.044 450.679C641.402 457.258 637.951 465.139 635.889 473.502C631.38 491.778 632 511.912 631.985 530.63C631.969 550.833 632.052 571.032 633.779 591.179C634.998 605.397 636.738 626.044 648.274 635.812C658.931 644.837 675.047 646.313 688.474 645.9C702.924 643.995 716.602 638.876 725.733 626.844C741.199 606.464 740.094 553.781 740.158 527.906C740.193 514.311 740.804 500.506 738.813 487.026C736.324 470.181 729.037 453.83 714.936 443.586C706.053 437.133 694.936 435.4 684.219 435.043Z"/>
	<path fill="#FCCB7C" transform="scale(0.1 0.1)" d="M684.219 435.043C694.936 435.4 706.053 437.133 714.936 443.586C729.037 453.83 736.324 470.181 738.813 487.026C740.804 500.506 740.193 514.311 740.158 527.906C740.094 553.781 741.199 606.464 725.733 626.844C716.602 638.876 702.924 643.995 688.474 645.9C675.047 646.313 658.931 644.837 648.274 635.812C636.738 626.044 634.998 605.397 633.779 591.179C632.052 571.032 631.969 550.833 631.985 530.63C632 511.912 631.38 491.778 635.889 473.502C637.951 465.139 641.402 457.258 647.044 450.679C656.568 439.572 670.247 436.026 684.219 435.043ZM681.729 456.711C677.988 457.797 675.281 458.99 673.33 462.586C671.522 465.917 670.416 469.54 669.808 473.271C667.696 486.24 668.339 500.735 668.162 513.884C667.846 537.388 667.068 561.058 669.153 584.502C669.963 593.6 671.154 602.913 673.918 611.641C675.304 616.018 678.132 623.041 682.502 625.339C684.22 626.243 686.088 626.292 687.97 626.051C691.976 624.351 693.689 621.201 695.222 617.324C700.249 604.607 700.519 588.547 700.959 574.995L700.755 517.48C700.202 501.398 701.834 482.166 695.325 467.251C693.598 463.295 691.177 459.033 686.855 457.533C685.235 456.97 683.428 456.85 681.729 456.711Z"/>
	<path fill="#293034" transform="scale(0.1 0.1)" d="M681.729 456.711C683.428 456.85 685.235 456.97 686.855 457.533C691.177 459.033 693.598 463.295 695.325 467.251C701.834 482.166 700.202 501.398 700.755 517.48L700.959 574.995C700.519 588.547 700.249 604.607 695.222 617.324C693.689 621.201 691.976 624.351 687.97 626.051C686.088 626.292 684.22 626.243 682.502 625.339C678.132 623.041 675.304 616.018 673.918 611.641C671.154 602.913 669.963 593.6 669.153 584.502C667.068 561.058 667.846 537.388 668.162 513.884C668.339 500.735 667.696 486.24 669.808 473.271C670.416 469.54 671.522 465.917 673.33 462.586C675.281 458.99 677.988 457.797 681.729 456.711ZM680.718 469.287C678.084 470.732 677.041 471.634 676.196 474.72C673.32 485.229 674.489 499.093 674.292 510.066C673.9 531.885 670.824 592.172 681.165 610.09C682.12 611.745 683.321 612.79 684.894 613.842C686.921 614.027 686.963 614.008 688.632 612.842C695.301 602.626 694.469 584.823 694.747 572.849C694.927 565.125 695.322 557.238 694.963 549.525C694.856 547.234 694.063 545.033 693.967 542.773C693.806 538.957 694.538 534.803 694.606 530.935C694.895 514.578 695.527 496.347 692.263 480.351C691.544 476.83 690.248 472.168 687.042 470.135C684.935 468.8 683.081 468.838 680.718 469.287Z"/>
	<path fill="#293034" transform="scale(0.1 0.1)" d="M545.749 1006.39L551.606 1006.08C571.91 1005.61 592.676 1007.05 607.997 1022C626.974 1040.51 627.206 1066.23 627.675 1090.97L571.358 1090.99C569.697 1082.01 571.254 1072.67 567.378 1064.12C566.18 1061.48 564.895 1060.03 562.201 1058.99C561.155 1059.49 559.914 1059.8 559.319 1060.82C558.056 1063 557.92 1066.48 557.824 1068.93C557.266 1083.25 564.306 1096.85 574.088 1106.92C577.989 1110.94 582.927 1114.09 587.352 1117.51C603.693 1130.12 618.211 1143.2 624.23 1163.78C632.27 1191.27 628.512 1228.6 614.668 1253.75C612.953 1256.65 610.901 1259.56 608.631 1262.06C601.129 1270.29 591.099 1275.24 579.909 1275.56C575.131 1275.69 570.323 1274.84 565.62 1274.08C549.905 1271.54 533.589 1266.39 521.901 1255.1C499.654 1233.6 504.381 1198.28 504.057 1170.14L538.875 1170.32C544.036 1170.31 550.646 1169.26 555.548 1170.74L556.049 1170.91C555.379 1168.99 551.657 1166.65 550.004 1165.29C528.767 1147.83 512.061 1131.71 506.316 1103.43C503.992 1091.99 503.749 1080.29 504.259 1068.67C504.888 1054.34 506.402 1039.79 514.686 1027.61C522.721 1015.79 531.716 1009.01 545.749 1006.39ZM556.916 1171.54C556.721 1183.43 555.181 1196.82 557.416 1208.48C557.956 1211.29 558.83 1214.26 560.926 1216.33C562.06 1217.45 563.059 1217.8 564.593 1218.07L567.953 1215.52C571.649 1206.87 571.18 1195.67 567.669 1187C565.282 1181.1 561.281 1176.09 556.916 1171.54Z"/>
	<path fill="#EC5E31" transform="scale(0.1 0.1)" d="M544.954 1018L547.063 1017.85C565.996 1016.8 589.191 1017.6 603.978 1030.99C618.537 1044.18 620.593 1060.41 621.398 1078.92L576.754 1078.97C575.666 1069.69 574.724 1058.16 568.403 1050.8C566.762 1048.89 564.418 1047.3 561.819 1047.25C559.582 1047.21 558.184 1048.28 556.714 1049.88C551.212 1055.85 551.653 1066.61 552.073 1074.17C553.034 1091.41 560.953 1108.3 573.952 1119.73C581.983 1126.79 591.14 1132.51 599.098 1139.68C613.627 1152.78 621.338 1168.61 622.263 1188.19C623.21 1208.23 619.232 1237.29 605.263 1252.38C597.051 1261.25 588.562 1263.1 576.965 1263.57C559.201 1262.79 536.504 1257.12 523.663 1244.02C507.889 1227.94 509.891 1202.69 509.975 1181.97L550.923 1181.89L551.203 1207.76C551.928 1215.17 554.185 1224.32 560.68 1228.9C562.101 1229.9 563.308 1230.08 564.996 1229.78C567.493 1229.33 569.925 1226.87 571.247 1224.79C575.793 1217.64 576.715 1207.86 576.191 1199.6C575.746 1192.57 574.677 1184.72 571.832 1178.22C562.933 1157.89 540.855 1148.22 527.19 1131.74C519.471 1122.44 514.544 1111.06 511.942 1099.33C509.565 1088.62 509.506 1077.62 510.222 1066.71C510.878 1056.72 511.857 1046.82 517.407 1038.19C523.961 1028 532.986 1020.51 544.954 1018Z"/>
	<path fill="#293034" transform="scale(0.1 0.1)" d="M546.778 716.209L584.542 716.959C590.972 717.034 598.9 716.1 605.106 717.269L614.446 777.38L622.555 736.369C623.561 731.259 624.194 721.352 626.707 717.117L671.928 717.898L658.769 799.121L655.096 821.325C654.414 825.262 653.211 829.818 653.308 833.81C653.419 838.371 654.907 843.453 655.796 847.939L660.237 871.582L681.396 984.142L657.382 983.705L626.425 983.84L614.572 902.151L602.679 983.77L549.312 983.625L563.765 878.578L567.309 852.274C568.061 847.024 569.582 840.748 569.276 835.484C569.044 831.487 567.83 827.135 567.081 823.192L562.592 799.485L546.778 716.209Z"/>
	<path fill="#EC5E31" transform="scale(0.1 0.1)" d="M555.535 728.182L600.238 728.676C602.033 731.343 602.254 739.018 602.787 742.383L609.804 787.975C610.866 794.904 611.344 802.698 613.337 809.375L613.643 809.375C616.911 801.249 617.798 790.64 619.549 781.933L630.351 728.931L651.048 729.094C655.149 729.153 659.606 728.859 663.643 729.578L651.553 805.628C650.16 814.565 647.37 824.555 647.236 833.539C647.174 837.756 648.497 842.338 649.311 846.473L653.485 868.358L672.944 972.206L642.857 972.08L631.067 972.062L614.495 861.236L598.379 972.003L557.068 971.51L570.927 869.885L574.109 847.101C574.657 843.187 575.716 838.576 575.514 834.634C575.093 826.391 572.082 817.071 570.576 808.86L555.535 728.182Z"/>
	<path fill="#293034" transform="scale(0.1 0.1)" d="M853.951 1008.81L901.155 1008.93L925.617 1102.23L924.316 1009L972.452 1008.98C973.621 1011.14 972.715 1018.53 972.698 1021.31L972.463 1065.75L971.843 1262.43L971.958 1274.18L922.787 1273.64C921.725 1271.99 921.517 1269.45 921.107 1267.52L918.19 1254.33L903.572 1190.24C901.866 1197.48 903.069 1207.32 903.077 1214.82L903.415 1273.43C892.054 1272.49 880.321 1272.79 868.919 1272.83C865.334 1272.84 856.413 1273.91 853.51 1272.58L853.951 1008.81Z"/>
	<path fill="#EC5E31" transform="scale(0.1 0.1)" d="M861.398 1019.58L897.779 1019.67L931.42 1146.43C932.15 1144.39 931.651 1140.33 931.652 1138.09L931.16 1109.93L930.032 1019.82L967.219 1019.89L966.68 1258.61L966.633 1262.26C966.25 1262.62 965.964 1263.13 965.482 1263.35C964.339 1263.88 958.577 1263.29 956.978 1263.28L926.219 1263.09L897.914 1140.79C897.288 1144.9 897.736 1149.5 897.795 1153.66L897.967 1176.27L898.066 1262.57L859.039 1261.97L859.438 1020.26L861.398 1019.58Z"/>
	<path fill="#293034" transform="scale(0.1 0.1)" d="M395.505 711.822C398.003 711.517 400.538 711.544 403.051 711.58C421.311 711.842 440.215 720.787 452.801 733.916C472.806 754.784 474.472 792.996 473.892 820.43L414.876 820.742C414.793 815.682 415.694 810.67 415.986 805.624L416.245 783.131C416.187 778.94 416.331 773.208 414.648 769.329C413.606 766.926 412.042 766.638 409.774 765.831C407.572 766.451 407.066 766.616 405.784 768.674C404.003 771.536 403.647 775.556 403.236 778.821L401.62 794.844L401.097 837.061L401.867 911.707C402.11 916.739 401.45 923.593 402.945 928.254C403.631 930.391 405.169 932.71 407.255 933.685C409.143 934.567 409.662 934.112 411.522 933.447C417.712 926.058 416.759 895.81 417.133 884.786L408.059 885.103L407.438 835.303L450.615 835.623L473.499 835.39L473.012 985.108L439.003 985.059L432.917 972.843C425.943 980.08 417.342 984.813 407.448 986.577C394.391 988.904 380.367 985.857 369.598 978.121C355.076 967.69 350.042 954.198 347.319 937.186C342.372 906.276 343.02 874.943 343.09 843.752C343.147 818.625 342.127 792.743 347.267 768.018C349.812 755.773 354.243 743.706 361.689 733.568C369.914 722.371 381.608 713.87 395.505 711.822Z"/>
	<path fill="#EC5E31" transform="scale(0.1 0.1)" d="M395.221 723.387L399.863 723.093C416.746 722.884 436.045 730.515 448.095 742.308C464.92 758.773 467.942 786.322 468.119 808.853L421.761 808.802C421.808 796.467 425.056 766.507 416.421 757.198C414.768 755.416 412.248 754.062 409.774 754.068C407.464 754.073 405.219 755.343 403.623 756.944C401.335 759.238 400.495 762.6 399.662 765.625C397.275 774.283 396.368 783.119 395.968 792.064L395.527 890.575C395.794 903.294 394.935 917.255 396.922 929.796C397.627 934.24 398.897 938.687 402.051 942.035C403.881 943.977 406.64 946.071 409.433 946.005C411.499 945.956 413.43 944.755 414.831 943.307C416.923 941.144 418.083 938.049 418.993 935.233C422.539 924.259 422.125 911.377 422.446 899.969L423.201 873.315L414.201 873.333L413.888 872.726C413.44 870.742 413.798 867.77 413.774 865.695C413.727 861.575 412.379 850.009 414.559 847.012L421.092 846.995L467.417 847.07L466.96 973.371L441.536 973.19C438.649 967.922 436.624 962.333 434.741 956.651C428.092 964.727 422.292 970.939 411.783 973.706C398.668 977.158 385.199 975.496 373.548 968.469C363.595 962.466 357.002 952.781 354.409 941.554C350.262 923.602 349.454 903.957 349.098 885.603L348.991 831.934C349.264 813.319 348.654 793.884 352.029 775.537C353.935 765.175 357.629 754.882 363.35 746.012C371.214 733.819 381.042 726.488 395.221 723.387Z"/>
	<path fill="#293034" transform="scale(0.1 0.1)" d="M759.44 999.621L765.188 999.339C784.555 999.293 803.57 1007.46 817.157 1021.27C837.515 1041.96 838.981 1080.79 838.598 1108.11L779.248 1108.21C779.369 1104.51 780.218 1100.87 780.45 1097.17L780.864 1071.23C780.748 1066.13 780.839 1060.7 778.775 1055.95C777.08 1054.34 776.087 1053.81 773.753 1053.57C772.875 1053.99 771.754 1054.3 771.225 1055.13C767.567 1060.84 767.26 1070.04 766.711 1076.73C765.385 1092.92 765.665 1109.32 765.785 1125.54L765.909 1164.84L766.549 1201.21C766.733 1205.62 766.483 1211 767.538 1215.25C768.293 1218.29 769.71 1220.11 772.386 1221.66C774.585 1221.74 774.907 1221.67 776.803 1220.56C780.265 1215.28 780.091 1207.85 780.501 1201.72L781.932 1172.44L772.554 1172.92L772.188 1123.09L815.619 1123.36L838.022 1123.12L837.538 1272.94L803.667 1272.84L797.716 1260.32C791.232 1267.06 782.922 1272.42 773.576 1274.05C759.887 1276.43 745.901 1274.21 734.45 1265.99C719.798 1255.48 714.813 1242.26 712.027 1225.07C706.99 1193.98 707.662 1162.53 707.767 1131.17C707.85 1106.05 706.844 1080.13 712.015 1055.41C714.489 1043.59 718.768 1031.64 725.938 1021.82C734.094 1010.65 745.64 1001.85 759.44 999.621Z"/>
	<path fill="#EC5E31" transform="scale(0.1 0.1)" d="M759.518 1011.18L764.26 1010.88C781.537 1010.45 800.84 1018.31 813.129 1030.33C829.727 1046.55 832.486 1074.47 832.776 1096.51L786.431 1096.48C786.753 1082.55 789.463 1061.4 783.499 1048.54C782.13 1045.59 779.972 1043.3 776.828 1042.27C774.606 1041.54 772.359 1041.83 770.352 1043.04C765.36 1046.06 763.944 1053.91 762.894 1059.21C759.834 1074.65 760.138 1091.02 759.885 1106.72L760.255 1182.43C760.539 1194.2 759.906 1206.81 761.727 1218.44C762.278 1221.96 763.581 1225.61 765.632 1228.53C767.297 1230.9 770.384 1233.31 773.299 1233.67C775.355 1233.93 777.619 1232.82 779.087 1231.45C787.787 1223.33 786.632 1200.74 787.04 1189.56L788.052 1160.99L778.508 1160.95C778.432 1156.06 776.976 1138.26 778.879 1134.95L783.835 1134.82L832.002 1134.88L831.711 1261.06L806.263 1261.08L799.351 1244.53C792.64 1253.2 785.746 1259.14 774.917 1261.77C762.913 1264.7 749.099 1262.97 738.532 1256.4C727.873 1249.79 721.578 1240.44 718.827 1228.34C715.37 1213.14 714.484 1196.6 713.985 1181.05L713.517 1127.08C713.645 1107.16 712.967 1086.1 716.197 1066.42C718.062 1055.06 721.441 1044.05 727.636 1034.25C735.433 1021.92 745.342 1014.4 759.518 1011.18Z"/>
	<path fill="#293034" transform="scale(0.1 0.1)" d="M208.569 714.105L265.088 714.283L264.442 759.279L264.013 861.711L264.14 892.897C264.047 902.304 263.523 911.9 264.778 921.249C265.409 925.949 266.997 929.569 269.303 933.686C272.234 921.882 272.415 908.899 272.648 896.79L272.693 845.235L274.745 714.307L331.868 714.452L331.7 767.163L333.437 846.077C333.783 867.892 333.532 889.837 331.494 911.572C330.637 920.705 329.888 930.069 327.329 938.916C324.158 949.884 318.433 960.586 310.369 968.727C300.56 978.631 287.285 984.059 273.379 984.017C255.72 983.963 237.974 977.773 225.517 965C219.098 958.419 215.227 949.77 213.325 940.846C211.278 931.246 210.985 921.209 210.578 911.433L209.465 868.745L208.569 714.105Z"/>
	<path fill="#EC5E31" transform="scale(0.1 0.1)" d="M214.389 726.009L258.598 726.013C259.551 728.26 258.933 732.133 258.897 734.595L258.598 756.034L258.281 854.701L258.227 892.004C258.138 905.509 256.933 921.07 261.046 934.109C262.055 937.309 264.32 941.882 267.523 943.356C268.601 943.852 269.004 943.846 270.042 943.401C275.212 941.185 276.484 930.524 277.129 925.59C278.365 916.136 278.303 906.478 278.453 896.96L278.713 858.204C278.345 819.923 277.292 781.331 279.598 743.102C279.876 738.501 278.941 730.061 280.5 726.077L325.598 726.351L325.934 753.982L327.468 847.251L327.234 885.321C326.558 909.504 325.746 940.196 307.842 958.496C298.493 968.052 285.281 972.121 272.159 972.136C256.888 972.154 240.032 966.516 229.167 955.507C223.219 949.48 220.45 943.354 218.724 935.089C216.763 925.698 216.633 916.328 216.352 906.787L215.435 873.666L214.389 726.009Z"/>
	<path fill="#293034" transform="scale(0.1 0.1)" d="M184.502 136.378L196.193 136.006L173.068 357.079L115.953 356.914L106.34 277.172C104.214 284.731 103.878 293.456 102.814 301.283L95.4906 356.925L37.683 356.971L27.5473 262.699L13.9016 137.236L63.0391 136.999L72.51 224.218L83.4625 137.009L126.879 136.644L135.637 224.283C136.569 221.533 136.587 218.233 136.924 215.332L138.736 200.006L145.93 136.397L184.502 136.378Z"/>
	<path fill="#EC5E31" transform="scale(0.1 0.1)" d="M152.86 147.998L188.771 147.766L168.233 345.234L120.563 345.233L106.396 233.108C104.886 237.365 104.701 242.701 104.111 247.201L100.75 273.083L90.9185 345.217L42.2151 345.051L30.2202 232.585L21.3844 149.086L58.0562 148.906L71.7379 274.416L88.1444 148.451L121.853 148.273L135.359 277.881L140.566 234.72L146.728 182.207L149.362 159.174C149.732 155.883 149.691 151.374 151.05 148.368L152.86 147.998Z"/>
	<path fill="#293034" transform="scale(0.1 0.1)" d="M258.03 1006.49L326.057 1007.03C334.456 1007.03 343.654 1006.18 351.954 1007.18C357.263 1007.82 363.473 1009.35 367.563 1012.86C384.208 1027.18 386.869 1052.8 388.345 1073.44C390.509 1103.69 389.713 1134.41 389.741 1164.75L389.617 1203.39C389.539 1214.49 389.693 1225.98 387.292 1236.87C385.269 1246.05 381.227 1252.7 375.125 1259.72C371.225 1263.85 366.34 1268.74 361.158 1271.22C358.973 1272.26 356.563 1272.57 354.263 1273.25C346.289 1275.58 334.364 1274.12 325.96 1274.13C304.261 1274.16 282.136 1273.35 260.503 1274.7L258.03 1006.49ZM264.01 1018.51L266.382 1262.64L336.553 1262.54L350.738 1262.47C351.835 1262.46 354.347 1262.77 355.328 1262.43C356.468 1262.03 358.01 1260.7 359.086 1259.98C363.577 1257.01 367.681 1253.61 371.683 1250.02C376.674 1244.64 379.901 1239.88 381.651 1232.66C384.975 1218.96 383.438 1205.23 383.661 1191.33L383.503 1095.09C382.692 1073.43 383.249 1039.89 366.099 1024.3C364.425 1022.77 360.772 1019.59 358.575 1018.98C356.628 1018.43 353.124 1018.75 350.991 1018.73L334.682 1018.67L264.01 1018.51Z"/>
	<path fill="#EC5E31" transform="scale(0.1 0.1)" d="M264.01 1018.51L334.682 1018.67L350.991 1018.73C353.124 1018.75 356.628 1018.43 358.575 1018.98C360.772 1019.59 364.425 1022.77 366.099 1024.3C383.249 1039.89 382.692 1073.43 383.503 1095.09L383.661 1191.33C383.438 1205.23 384.975 1218.96 381.651 1232.66C379.901 1239.88 376.674 1244.64 371.683 1250.02C367.681 1253.61 363.577 1257.01 359.086 1259.98C358.01 1260.7 356.468 1262.03 355.328 1262.43C354.347 1262.77 351.835 1262.46 350.738 1262.47L336.553 1262.54L266.382 1262.64L264.01 1018.51ZM313.131 1046.15L312.043 1226.83C319.392 1225.94 323.69 1224.71 328.978 1219.34C332.55 1213.58 334.212 1208.34 335.117 1201.62C337.043 1187.32 336.04 1171.65 336.218 1157.17L336.657 1100.13C336.459 1089.85 336.536 1079.26 334.213 1069.2C332.416 1061.42 329.245 1054.28 322.231 1049.88C319.462 1048.14 316.199 1047.22 313.131 1046.15Z"/>
	<path fill="#293034" transform="scale(0.1 0.1)" d="M313.131 1046.15C316.199 1047.22 319.462 1048.14 322.231 1049.88C329.245 1054.28 332.416 1061.42 334.213 1069.2C336.536 1079.26 336.459 1089.85 336.657 1100.13L336.218 1157.17C336.04 1171.65 337.043 1187.32 335.117 1201.62C334.212 1208.34 332.55 1213.58 328.978 1219.34C323.69 1224.71 319.392 1225.94 312.043 1226.83L313.131 1046.15ZM319.134 1060.19L317.958 1214.33C320.835 1212.99 323.411 1211.86 325.667 1209.56C327.29 1206.87 328.751 1204.19 329.244 1201.04C330.899 1190.52 330.058 1178.31 330.238 1167.64L330.782 1115.35C330.819 1101.49 331.785 1086.45 328.486 1072.87C326.991 1066.72 324.242 1063.72 319.134 1060.19Z"/>
	<path fill="#293034" transform="scale(0.1 0.1)" d="M807.597 128.574L812.714 128.502C819.129 128.882 825.52 132.766 829.656 137.516C838.554 147.735 842.832 165.454 844.84 178.538C848.031 199.341 846.763 221.135 847.194 242.157C847.95 279.027 849.647 316.251 847.681 353.099L795.4 353.527C795.033 347.601 795.491 341.6 795.274 335.645L793.699 238.575L792.841 204.883C792.607 199.605 792.713 194.049 791.821 188.853C791.529 187.152 791.332 184.964 790.349 183.538C789.31 182.029 788.768 182.112 787.081 181.816C785.704 182.36 784.868 182.863 783.976 184.088C782.995 185.438 782.608 186.705 782.378 188.338C779.999 205.306 781.899 223.799 781.95 240.979L782.389 306.865C782.665 322.454 782.779 338.145 785.071 353.592L728.934 354.113L728.572 353.435L728.149 286.824L726.711 206.168L726.118 191.493C725.985 188.968 726.073 185.858 724.92 183.545C723.93 181.559 722.471 180.576 720.437 179.864C719.122 180.209 718.202 180.251 717.233 181.252C714.738 183.827 713.76 187.603 713.328 191.064C711.049 209.346 712.649 228.81 712.762 247.252L713.753 354.093L658.423 354.857C656.945 352.118 659.316 154.165 659.066 131.038L712.092 131.295L712.082 145.795L718.729 138.788C724.588 133.441 732.696 129.504 740.795 130.105C756.697 131.284 768.127 143.406 778.046 154.655C786.578 143.763 793.809 133.068 807.597 128.574Z"/>
	<path fill="#EC5E31" transform="scale(0.1 0.1)" d="M809.046 140.22L812 140.171C817.476 140.244 822.388 143.306 826.042 147.219C833.801 155.525 837.254 169.908 838.994 180.842C842 199.735 840.881 219.751 841.288 238.857L842.049 341.561L801.247 341.89L799.794 261.269L798.977 211.428C798.676 202.646 798.667 193.634 797.496 184.925C796.948 180.848 795.663 175.653 792.805 172.559C791.389 171.026 789.83 170.044 787.714 169.99C785.289 169.929 783.521 171.068 781.883 172.765C778.433 176.338 777.002 181.7 776.388 186.498C775.592 192.721 775.861 199.223 775.866 205.489L775.973 234.356L777.43 341.929L734.564 342.387L733.509 256.071L732.859 217.662C732.722 205.369 733.435 191.613 730.7 179.592C729.964 176.357 728.671 173.469 726.298 171.101C724.46 169.267 722.534 168.154 719.903 168.159C717.722 168.162 716.079 169.149 714.584 170.709C709.979 175.515 707.504 183.98 706.75 190.486C706.134 195.802 706.605 201.561 706.636 206.923L706.814 237.332L707.601 342.497L663.803 342.83L665.065 142.879L706.066 142.955L706.221 169.133L706.638 168.414C712.84 157.77 721.359 145.766 733.931 142.604C746.862 139.351 759.706 147.91 768.128 157.026C770.621 159.726 773.423 164.292 776.572 166.084C777.414 166.563 777.347 166.658 778.358 166.352C781.969 165.257 785.305 159.282 787.633 156.345C793.448 149.011 799.81 142.731 809.046 140.22Z"/>
	<path fill="#293034" transform="scale(0.1 0.1)" d="M22.5641 714.12L92.7302 714.31L108.995 805.272L123.899 714.32L192.034 714.341L192.608 984.465C188.474 985.345 182.518 984.336 178.174 984.239C165.984 983.966 153.715 983.463 141.532 984.088L141.538 883.964L141.265 858.57L125.903 983.852L93.9795 983.593L82.2026 902.54C80.3037 889.382 79.2032 875.155 75.895 862.354L76.1096 983.15L24.037 983.036L22.5641 714.12Z"/>
	<path fill="#EC5E31" transform="scale(0.1 0.1)" d="M28.7206 725.993L88.6458 725.985L109.307 840.777L128.048 725.971L185.988 726.028L186.543 972.806L147.592 972.603L147.462 845.31L147.495 808.748C147.496 802.536 147.981 795.914 147.409 789.769C147.182 787.322 146.695 786.586 145.249 784.723C143.101 786.445 142.12 803.714 141.692 807.219L121.387 972.129L98.52 972.017L70.3883 787.982C69.3924 794.518 69.9418 801.669 69.953 808.3L70.0379 844.637L70.3361 971.591L29.9945 970.996L28.7206 725.993Z"/>
</svg>
