<?xml version="1.0" encoding="utf-8" ?>
<svg xmlns="http://www.w3.org/2000/svg" xmlns:xlink="http://www.w3.org/1999/xlink" width="100" height="180">
	<path fill="#293034" transform="scale(0.1 0.1)" d="M19.5119 204.346C25.2338 204.904 31.3425 207.171 36.9505 208.536L96.6504 224.316C91.5931 229.669 87.3015 235.026 83.3884 241.27L76.6754 252.197C70.3639 249.172 64.0173 245.441 58.3697 241.299C51.3441 236.147 44.7655 230.442 38.1712 224.76C34.5273 221.62 29.5193 216.199 24.7306 215.216C22.7469 214.809 20.826 214.11 18.8928 213.507C17.7639 211.991 17.4689 210.888 17.5083 209.028C17.5643 206.389 17.6081 206.148 19.5119 204.346Z"/>
	<path fill="#E718FA" transform="scale(0.1 0.1)" d="M43.7044 219.505L82.8758 230.048L78.0497 237.282C77.0752 238.823 76.0217 239.978 74.6924 241.222C62.9097 236.439 53.118 227.825 43.7044 219.505Z"/>
	<path fill="#293034" transform="scale(0.1 0.1)" d="M630.017 1144.49C635.333 1144.2 640.273 1144.46 645.523 1145.35C654.283 1146.84 662.681 1149.8 667.895 1157.52C670.888 1161.95 671.883 1167.54 670.827 1172.75L670.705 1173.34C670.255 1175.57 669.686 1177.54 668.586 1179.56C664.11 1187.77 657.536 1191.42 648.879 1193.87C638.677 1195.04 626.402 1191.83 617.548 1186.57C612.449 1183.54 608.236 1178.64 606.892 1172.76C605.618 1167.19 606.901 1161.39 610.028 1156.65C614.83 1149.35 621.739 1146.28 630.017 1144.49Z"/>
	<path fill="#EC5E31" transform="scale(0.1 0.1)" d="M628.223 1155C635.537 1154.27 643.567 1154.39 650.647 1156.51C656.667 1158.31 662.968 1161.45 666.034 1167.19C666.104 1168.91 666.345 1170.03 665.588 1171.61C662.393 1178.29 655.851 1181.17 649.336 1183.61C640.51 1185.31 626.607 1181.62 618.806 1177.12C616.617 1175.86 612.485 1172.52 611.913 1169.98C611.375 1167.59 612.225 1165.26 613.5 1163.23C616.801 1157.99 622.556 1156.32 628.223 1155Z"/>
	<path fill="#293034" transform="scale(0.1 0.1)" d="M239.199 35.5957L240.72 35.356C244.304 37.8509 248.69 50.3534 250.918 54.8773L289.698 135.505C287.928 137.302 284.586 137.071 282.088 137.389L238.079 142.269L237.808 58.8867C237.916 52.6548 236.563 41.0654 239.199 35.5957Z"/>
	<path fill="#E718FA" transform="scale(0.1 0.1)" d="M243.121 51.4116C252.871 67.0423 260.174 85.3278 268.067 102.029C271.933 110.211 277.368 119.133 279.877 127.778L277.464 128.785L242.889 132.655L243.121 51.4116Z"/>
	<path fill="#293034" transform="scale(0.1 0.1)" d="M52.9941 54.9316C55.9058 55.7296 58.391 60.6782 60.7133 62.8418C63.9393 65.8473 67.7725 68.3583 71.2828 71.0238L176.268 147.794L155.049 164.651L128.814 186.051C110.597 152.94 88.5034 122.011 68.6077 89.9049L57.4872 71.749C55.6796 68.7598 53.189 65.4164 52.0401 62.129C50.8794 58.808 51.4755 57.9054 52.9941 54.9316Z"/>
	<path fill="#E718FA" transform="scale(0.1 0.1)" d="M71.2026 81.1065L115.379 114.025L148.564 137.685C152.763 140.652 159.606 144.286 162.627 148.193L148.717 159.521L130.045 174.441L71.2026 81.1065Z"/>
	<path fill="#293034" transform="scale(0.1 0.1)" d="M602.93 1196.97L668.971 1201.07L668.732 1416.08L604.452 1413.1L602.93 1196.97Z"/>
	<path fill="#EC5E31" transform="scale(0.1 0.1)" d="M608.025 1207.44L664.122 1210.88L663.51 1405.82C645.584 1406.24 627.442 1406.05 609.675 1403.43L608.025 1207.44Z"/>
	<path fill="#293034" transform="scale(0.1 0.1)" d="M336.518 190.878L395.254 192.793L394.88 495.707L339.157 496.532L336.518 190.878Z"/>
	<path fill="#EC5E31" transform="scale(0.1 0.1)" d="M341.713 203.944L390.163 204.939L389.617 482.975L344.333 483.371L341.713 203.944Z"/>
	<path fill="#293034" transform="scale(0.1 0.1)" d="M598.037 860.341L668.984 861.468L665.104 1135.99L664.782 1137.46C662.076 1139.37 655.651 1138.85 652.274 1138.96C634.808 1139.51 617.331 1138.44 599.945 1136.83L598.037 860.341Z"/>
	<path fill="#EC5E31" transform="scale(0.1 0.1)" d="M602.965 871.32L664.104 872.073L660.16 1124.56C659.978 1126.28 659.983 1126.64 658.914 1128.08C640.827 1129.47 622.712 1128.34 604.712 1126.47L602.965 871.32Z"/>
	<path fill="#293034" transform="scale(0.1 0.1)" d="M456.955 276.307C472.276 277.154 486.164 282.394 497.305 293.146C517.489 312.624 524.401 342.936 524.942 369.994L474.182 370.077C474.9 363.609 478.067 344.919 474.169 339.997C471.55 336.691 470.208 334.079 466.169 332.341C464.825 332.436 463.623 332.679 462.51 333.489C456.216 338.069 453.413 352.138 451.912 359.491C447.83 379.487 441.37 425.933 453.183 443.175C454.917 445.706 457.065 448.192 460.271 448.657C461.934 448.899 463.558 448.261 464.845 447.237C475.751 438.555 476.176 411.517 477.311 398.85L518.014 402.191L520.565 403.447C519.866 433.255 511.454 465.504 493.064 489.435C484.359 500.761 471.566 511.415 456.951 513.148C446.48 514.389 436.306 512.992 427.983 506.142C410.363 491.639 405.008 463.637 402.811 442.09C399.141 406.096 403.411 368.134 411.307 332.989C414.546 318.57 418.586 301.241 428.206 289.682C435.906 280.43 445.472 277.426 456.955 276.307Z"/>
	<path fill="#EC5E31" transform="scale(0.1 0.1)" d="M455.946 288.576C467.575 288.519 477.055 291.836 486.583 298.461C506.57 312.356 514.893 333.89 518.974 356.907L480.531 357.89C481.242 347.409 481.649 334.821 475.789 325.64C473.655 322.296 471.265 321.013 467.487 320.145C465.042 320.651 463.335 320.725 461.446 322.488C446.134 336.775 441.856 384.64 441.313 404.154C440.898 419.1 441.997 446.938 453.244 458.087C455.22 460.046 456.704 460.985 459.578 460.805C474.081 459.899 478.234 433.819 479.929 422.95C480.427 419.756 479.913 414.699 481.986 412.246L488.961 412.293L515.107 414.501C513.295 436.047 506.43 457.727 493.42 475.179C484.245 487.485 470.696 499.082 455.056 501.255C447.038 502.37 438.196 500.449 431.764 495.389C416.281 483.207 411.301 462.346 408.809 443.716C404.707 413.039 407.973 381.969 412.926 351.625C415.604 335.215 418.293 315.526 428.859 302.039C435.865 293.099 445.081 290.023 455.946 288.576Z"/>
	<path fill="#293034" transform="scale(0.1 0.1)" d="M508.768 1196.43L522.062 1196.02C542.478 1196.7 561.863 1206.29 575.656 1221.17C587.678 1234.14 591.112 1249.36 590.496 1266.59L542.296 1267.31C541.001 1264.66 540.617 1261.46 539.871 1258.61C538.831 1254.62 536.218 1250.25 532.471 1248.25C529.916 1246.88 526.08 1246.58 523.286 1247.5C520.915 1248.29 520.175 1249.49 519.171 1251.56C519.315 1268.73 543.9 1277.66 556.028 1285.53C563.657 1290.48 570.639 1296.13 575.609 1303.88C588.913 1324.62 593.338 1355.07 587.849 1378.9C584.427 1393.76 576.553 1406.84 563.415 1414.94C548.539 1424.1 530.432 1423.48 514.045 1419.66C505.064 1416.51 497.452 1412.14 490.685 1405.38C472.62 1387.32 469.001 1362.58 469.086 1338.22L514.039 1337.73L514.45 1355.71C515.113 1361.48 517.452 1368.87 522.303 1372.49C526.519 1375.65 531.292 1376.2 536.407 1375.38C542.127 1374.45 547.786 1370.38 551.034 1365.67C554.115 1361.2 556.535 1355.12 555.195 1349.61C549.616 1326.68 524.53 1323.62 505.877 1317.92C497.989 1315.51 490.11 1312.08 483.282 1307.42C471.913 1299.67 465.321 1290.09 462.838 1276.44C459.003 1255.38 462.148 1232.69 474.752 1214.97C483.13 1203.19 494.88 1198.82 508.768 1196.43Z"/>
	<path fill="#EC5E31" transform="scale(0.1 0.1)" d="M511.112 1206.14C514.42 1205.37 519.394 1205.81 522.847 1205.87C540.814 1206.18 559.446 1214.99 571.779 1227.87C578.441 1234.83 585.621 1246.45 585.416 1256.45L545.856 1256.91L542.817 1249.02C540.494 1244.15 536.94 1239.2 531.588 1237.49C528.242 1236.42 524.143 1236.92 521.083 1238.62C518.038 1240.32 515.19 1243.82 514.312 1247.22C507.105 1275.1 543.599 1286.38 560.293 1299.07C566.15 1303.52 571.033 1309.56 574.622 1315.96C584.592 1333.73 588.131 1360.63 582.402 1380.23C578.971 1391.96 570.253 1400.79 559.672 1406.5C545.687 1414.05 530.428 1413.82 515.575 1409.37C507.071 1406 499.687 1402.02 492.947 1395.68C478.799 1382.37 475.126 1367.11 474.562 1348.23L508.75 1347.94L509.615 1359.93C510.585 1367.87 513.922 1376.77 520.482 1381.76C524.887 1385.11 530.222 1385.97 535.589 1385.3C542.753 1384.39 548.954 1380.52 553.255 1374.74C559.376 1366.53 561.169 1355.57 559.607 1345.6C558.659 1339.55 556.007 1334.42 552.213 1329.68C534.891 1308.04 504.573 1312.82 483.235 1297.16C473.742 1290.19 468.62 1279.47 466.857 1268.05C464.479 1252.63 469.205 1233.27 478.653 1220.95C485.544 1211.96 500.33 1207.54 511.112 1206.14Z"/>
	<path fill="#293034" transform="scale(0.1 0.1)" d="M258.382 283.151C262.459 282.743 267.054 282.673 271.128 283.13C284.781 284.661 297.348 293.271 305.622 303.956C325.361 329.443 329.637 367.05 325.827 398.21C302.901 399.215 281.725 397.328 259.015 395.196L258.903 395.943C256.884 409.488 254.548 433.058 263.865 444.523C266.192 447.386 267.473 447.959 271.09 448.208C272.087 447.655 273.115 447.056 273.939 446.257C281.203 439.219 279.496 419.067 279.87 409.593L324.008 414.106L319.592 445.687C316.415 457.983 312.285 470.318 305.905 481.354C297.97 495.079 286.454 509.478 270.321 513.528C261.001 515.867 250.17 515.011 241.898 509.887C226.482 500.337 220.157 481.838 216.373 465.056C213.516 452.386 212.43 439.598 211.193 426.703C207.411 387.276 206.008 339.833 228.102 305.128C235.754 293.107 244.244 286.29 258.382 283.151ZM259.459 295.499C247.66 297.83 238.481 302.399 231.663 312.638C225.128 322.45 221.081 334.988 218.493 346.387C210.984 379.461 212.763 415.808 219.749 448.798C223.353 465.82 227.183 486.569 242.721 496.802C250.537 501.949 259.863 503.266 268.985 501.312C282.492 498.417 292.803 488.626 300.078 477.314C307.98 465.027 313.368 450.111 316.154 435.809C316.648 432.89 317.89 429.398 316.507 426.789L284.641 422.578C283.804 433.879 283.814 450.246 274.376 458.22C272.022 460.209 270.126 460.67 267.135 460.374C259.325 455.228 255.699 448.678 253.775 439.616C249.863 421.183 252.703 400.3 255.961 381.942C278.033 385.403 299.325 386.434 321.653 385.828C321.48 358.86 317.576 329.021 297.328 309.177C287.405 299.453 275.108 295.286 261.426 295.422L259.459 295.499Z"/>
	<path fill="#EC5E31" transform="scale(0.1 0.1)" d="M259.459 295.499L261.426 295.422C275.108 295.286 287.405 299.453 297.328 309.177C317.576 329.021 321.48 358.86 321.653 385.828C299.325 386.434 278.033 385.403 255.961 381.942C252.703 400.3 249.863 421.183 253.775 439.616C255.699 448.678 259.325 455.228 267.135 460.374C270.126 460.67 272.022 460.209 274.376 458.22C283.814 450.246 283.804 433.879 284.641 422.578L316.507 426.789C317.89 429.398 316.648 432.89 316.154 435.809C313.368 450.111 307.98 465.027 300.078 477.314C292.803 488.626 282.492 498.417 268.985 501.312C259.863 503.266 250.537 501.949 242.721 496.802C227.183 486.569 223.353 465.82 219.749 448.798C212.763 415.808 210.984 379.461 218.493 346.387C221.081 334.988 225.128 322.45 231.663 312.638C238.481 302.399 247.66 297.83 259.459 295.499ZM275.364 321.755C268.851 323.533 264.56 326.549 261.086 332.499C255.606 341.884 254.026 352.908 253.172 363.572L275.305 365.094L296.235 367.666C296.336 353.94 296.414 337.212 286.048 326.691C282.966 323.562 279.621 322.39 275.364 321.755Z"/>
	<path fill="#293034" transform="scale(0.1 0.1)" d="M275.364 321.755C279.621 322.39 282.966 323.562 286.048 326.691C296.414 337.212 296.336 353.94 296.235 367.666L275.305 365.094L253.172 363.572C254.026 352.908 255.606 341.884 261.086 332.499C264.56 326.549 268.851 323.533 275.364 321.755ZM272.402 334.424C268.523 335.602 265.484 338.259 263.558 341.819C262.009 344.684 261.013 348.046 259.964 351.126L278.54 353.044L290.869 354.329C288.881 347.523 285.879 339.182 279.211 335.545C277.154 334.423 274.687 333.882 272.402 334.424Z"/>
	<path fill="#293034" transform="scale(0.1 0.1)" d="M900.539 282.399C905.355 281.666 911.376 281.702 916.212 282.278C930.928 284.03 943.35 291.834 952.353 303.353C970.868 327.043 975.369 363.942 971.787 392.999L903.895 392.778C902.138 407.148 901.35 426.522 905.176 440.442C906.346 444.698 907.873 447.248 911.687 449.421C913.119 448.937 914.041 448.791 915.107 447.67C923.66 438.688 920.196 417.265 919.982 405.862L959.874 409.589C962.627 409.84 968.226 409.35 970.324 410.676C971.401 420.803 970.714 430.944 969.29 441.009C966.651 455.503 962.219 469.16 953.763 481.384C945.518 493.304 933.127 503.482 918.54 506.026C905.484 508.303 889.097 505.242 878.278 497.409C863.373 486.617 858.23 466.549 855.48 449.286C853.336 435.824 852.768 421.971 852.001 408.377C850.064 374.079 848.214 330.807 869.671 301.465C877.48 290.787 887.45 284.428 900.539 282.399ZM906.083 293.897C892.568 295.347 881.749 300.44 872.987 311.135C853.114 335.393 855.054 375.287 856.855 404.674L859.053 437.335C860.817 454.123 864.476 472.78 878.167 483.97C888.607 492.504 902.566 495.205 915.74 493.642C928.813 492.09 941.092 485.027 949.099 474.658C957.629 463.612 964.232 445.66 964.659 431.755L965.383 423.899C961.669 420.884 932.06 419.486 925.715 418.994C925.346 430.097 925.715 451.731 917.473 459.732C916.148 461.019 914.348 461.851 912.496 461.699C910.083 461.501 907.311 459.498 905.828 457.624C903.653 454.876 902.516 450.834 901.471 447.52C894.926 426.753 897.955 402.093 899.9 380.691L966.939 379.922C967.735 355.842 966.139 331.444 948.815 312.925C937.634 300.972 924.229 294.277 907.755 293.869L906.083 293.897Z"/>
	<path fill="#EC5E31" transform="scale(0.1 0.1)" d="M906.083 293.897L907.755 293.869C924.229 294.277 937.634 300.972 948.815 312.925C966.139 331.444 967.735 355.842 966.939 379.922L899.9 380.691C897.955 402.093 894.926 426.753 901.471 447.52C902.516 450.834 903.653 454.876 905.828 457.624C907.311 459.498 910.083 461.501 912.496 461.699C914.348 461.851 916.148 461.019 917.473 459.732C925.715 451.731 925.346 430.097 925.715 418.994C932.06 419.486 961.669 420.884 965.383 423.899L964.659 431.755C964.232 445.66 957.629 463.612 949.099 474.658C941.092 485.027 928.813 492.09 915.74 493.642C902.566 495.205 888.607 492.504 878.167 483.97C864.476 472.78 860.817 454.123 859.053 437.335L856.855 404.674C855.054 375.287 853.114 335.393 872.987 311.135C881.749 300.44 892.568 295.347 906.083 293.897ZM915.713 319.947C908.184 323.615 904.419 328.278 901.635 336.114C899.549 341.986 896.996 355.36 899.245 361.035L921.573 361.038L940.097 361.479C939.511 348.851 939.169 333.528 929.173 324.259C925.049 320.436 921.194 319.668 915.713 319.947Z"/>
	<path fill="#293034" transform="scale(0.1 0.1)" d="M915.713 319.947C921.194 319.668 925.049 320.436 929.173 324.259C939.169 333.528 939.511 348.851 940.097 361.479L921.573 361.038L899.245 361.035C896.996 355.36 899.549 341.986 901.635 336.114C904.419 328.278 908.184 323.615 915.713 319.947ZM915.424 332.666C909.443 335.536 906.986 340.104 904.888 346.148L904.086 348.54L920.694 348.886L934.3 348.855C932.116 342.774 929.838 336.073 923.55 333.097C920.786 331.789 918.314 332.211 915.424 332.666Z"/>
	<path fill="#293034" transform="scale(0.1 0.1)" d="M589.074 282.366C595.2 281.965 601.586 282.229 607.578 283.664C612.707 284.892 617.169 287.099 622.537 287.472L623.462 287.528C625.925 290.358 628.637 291.475 631.64 293.554C639.795 299.201 645.036 307.631 648.425 316.8C653.928 331.688 655.526 347.994 655.514 363.765C655.49 395.686 648.779 429.964 635.522 459.111C627.303 477.182 616.762 493.414 597.451 500.649C585.101 501.905 572.193 497.991 562.063 490.841C544.639 478.545 535.618 458.643 532.093 438.085C526.209 403.767 530.849 367.389 540.477 334.14C543.586 323.404 546.778 312.366 553.335 303.148C562.237 290.636 574.115 284.879 589.074 282.366ZM588.586 294.72C574.576 296.83 564.712 302.08 556.161 313.693C543.989 330.224 540.179 352.254 537.465 372.101C534.978 390.286 533.367 410.16 536.341 428.4C539.419 447.271 546.431 465.779 562.666 477.271C572.635 484.329 585.315 489.481 597.628 488.232C614.328 482.038 624.461 468.886 631.701 453.076C644.845 424.379 657.134 359.074 646.135 329.465C641.521 317.044 632.468 305.964 620.191 300.477C610.665 296.22 598.995 293.939 588.586 294.72Z"/>
	<path fill="#EC5E31" transform="scale(0.1 0.1)" d="M588.586 294.72C598.995 293.939 610.665 296.22 620.191 300.477C632.468 305.964 641.521 317.044 646.135 329.465C657.134 359.074 644.845 424.379 631.701 453.076C624.461 468.886 614.328 482.038 597.628 488.232C585.315 489.481 572.635 484.329 562.666 477.271C546.431 465.779 539.419 447.271 536.341 428.4C533.367 410.16 534.978 390.286 537.465 372.101C540.179 352.254 543.989 330.224 556.161 313.693C564.712 302.08 574.576 296.83 588.586 294.72ZM600.694 330.029C595.579 332.47 595.507 335.228 592.35 339.32C585.271 348.492 580.738 355.676 576.858 366.658C569.449 387.624 562.3 422.263 572.466 442.994C574.172 446.474 577.049 450.707 580.868 452.087C583.524 453.046 586.575 452.703 589.334 452.495C601.829 445.167 606.855 432.115 612.047 419.314C614.87 412.354 617.736 405.357 619.646 398.081C624.463 379.73 625.748 357.736 615.841 340.802C613.163 336.226 609.855 331.2 604.569 329.49L600.694 330.029Z"/>
	<path fill="#293034" transform="scale(0.1 0.1)" d="M600.694 330.029L604.569 329.49C609.855 331.2 613.163 336.226 615.841 340.802C625.748 357.736 624.463 379.73 619.646 398.081C617.736 405.357 614.87 412.354 612.047 419.314C606.855 432.115 601.829 445.167 589.334 452.495C586.575 452.703 583.524 453.046 580.868 452.087C577.049 450.707 574.172 446.474 572.466 442.994C562.3 422.263 569.449 387.624 576.858 366.658C580.738 355.676 585.271 348.492 592.35 339.32C595.507 335.228 595.579 332.47 600.694 330.029ZM602.155 342.334C600.988 345.282 601.025 346.662 597.979 348.033L597.194 348.339C589.808 351.313 585.368 361.717 582.458 368.708C575.413 385.634 568.563 414.613 575.86 432.109C577.197 435.315 579.286 438.422 582.59 439.828C584.687 440.72 586.223 440.551 588.341 439.893C600.935 433.616 606.506 419.69 610.746 407.063C616.659 389.456 622.277 371.225 613.466 353.364C611.229 348.83 607.757 344.059 602.729 342.494L602.155 342.334Z"/>
	<path fill="#293034" transform="scale(0.1 0.1)" d="M518.812 544.55C521.63 544.307 524.513 543.881 527.307 544.482L527.291 576.313L549.062 576.068L551.085 626.041L528.066 625.816L528.176 675.253L525.45 736.666C525.482 743.169 524.96 751.374 527.125 757.543C529.944 765.575 537.122 769.816 544.334 773.26L537.867 815.451C519.545 816.636 503.634 818.25 486.067 811.349C481.501 808.764 477.12 806.06 473.386 802.315C464.454 793.357 459.375 781.23 456.398 769.108C450.908 746.752 451.413 723.027 451.219 700.149L451.185 625.473L431.375 625.707L433.367 575C437.794 575.362 447.176 576.763 451.083 575.175L450.742 544.989L518.812 544.55Z"/>
	<path fill="#FCCB7C" transform="scale(0.1 0.1)" d="M509.447 554.15L522.556 553.974L522.498 585.988L544.646 586.068L545.509 616.251L522.934 616.141L522.774 687.701C521.964 709.849 517.295 735.247 521.716 756.96C523.956 767.962 529.051 774.929 538.197 781.036L534.105 805.982C521.565 808.102 508.048 807.181 495.736 804.347C487.38 801.994 480.003 797.947 473.854 791.823C467.616 785.609 464.99 777.955 462.525 769.673C454.023 741.109 456.243 711.013 456.169 681.597L456.094 615.905L436.726 615.803L437.739 585.15L456.019 585.347L455.745 554.998L509.447 554.15Z"/>
	<path fill="#293034" transform="scale(0.1 0.1)" d="M374.305 1192.92C380.443 1192.25 386.762 1192.58 392.785 1193.86C413.175 1198.2 429.592 1212.57 440.735 1229.65C457.862 1255.89 457.944 1282.74 451.726 1312.33L375.669 1311.47C374.499 1322.99 372.764 1333.71 373.297 1345.4C373.623 1352.57 374.731 1363.39 380.595 1368.3C382.887 1370.22 384.573 1370.15 387.402 1369.96C388.306 1369.23 389.256 1368.44 389.945 1367.5C391.774 1364.99 391.933 1361.45 392.203 1358.44C393.235 1347 391.547 1334.79 390.156 1323.39L450.009 1323.55C450.102 1333.4 448.514 1343.68 446.997 1353.42C444.37 1367.22 439.358 1380.4 431.726 1392.21C422.123 1407.07 407.2 1421.37 389.317 1424.97C375.23 1427.8 359.054 1425.26 347.006 1417.17C330.432 1406.04 323.379 1385.06 319.932 1366.32C317.42 1352.66 315.99 1338.66 314.577 1324.84C310.99 1289.76 309.207 1248.93 330.672 1218.64C340.591 1204.64 357.852 1195.76 374.305 1192.92ZM371.232 1203.44C355.298 1206.59 342.12 1213.19 332.956 1227C313.364 1256.53 316.918 1292.95 320.482 1326.27C321.836 1338.93 322.676 1351.89 325.31 1364.36C329.019 1381.93 335.764 1398.57 351.531 1408.67C362.117 1415.45 376.511 1417.66 388.784 1414.94C406.278 1411.07 419.067 1401.64 428.435 1386.59C437.424 1372.15 443.527 1353.46 443.876 1336.38L443.025 1333.74L396.888 1333.16C397.549 1345.15 400.502 1366.23 392.028 1375.86C389.998 1378.17 387.657 1379.53 384.556 1379.68C381.356 1379.83 380.114 1378.92 377.783 1376.81C369.61 1369.41 367.899 1357.16 367.575 1346.74C367.113 1331.84 370.226 1316.36 371.856 1301.55L448.758 1302.54C452.573 1277.44 448.444 1252.38 433.208 1231.59C423.416 1218.22 407.937 1206.11 391.194 1203.46C384.93 1202.47 377.561 1202.92 371.232 1203.44Z"/>
	<path fill="#EC5E31" transform="scale(0.1 0.1)" d="M371.232 1203.44C377.561 1202.92 384.93 1202.47 391.194 1203.46C407.937 1206.11 423.416 1218.22 433.208 1231.59C448.444 1252.38 452.573 1277.44 448.758 1302.54L371.856 1301.55C370.226 1316.36 367.113 1331.84 367.575 1346.74C367.899 1357.16 369.61 1369.41 377.783 1376.81C380.114 1378.92 381.356 1379.83 384.556 1379.68C387.657 1379.53 389.998 1378.17 392.028 1375.86C400.502 1366.23 397.549 1345.15 396.888 1333.16L443.025 1333.74L443.876 1336.38C443.527 1353.46 437.424 1372.15 428.435 1386.59C419.067 1401.64 406.278 1411.07 388.784 1414.94C376.511 1417.66 362.117 1415.45 351.531 1408.67C335.764 1398.57 329.019 1381.93 325.31 1364.36C322.676 1351.89 321.836 1338.93 320.482 1326.27C316.918 1292.95 313.364 1256.53 332.956 1227C342.12 1213.19 355.298 1206.59 371.232 1203.44ZM390.411 1234.03C384.42 1236.17 380.1 1239.32 377.35 1245.22C373.2 1254.11 372.978 1266.12 371.278 1275.8C372.97 1276.86 376.581 1276.35 378.61 1276.37L401.848 1276.55L418.772 1276.93C418.196 1262.1 416.826 1250.42 405.322 1239.82C401.168 1236 396.055 1233.98 390.411 1234.03Z"/>
	<path fill="#293034" transform="scale(0.1 0.1)" d="M390.411 1234.03C396.055 1233.98 401.168 1236 405.322 1239.82C416.826 1250.42 418.196 1262.1 418.772 1276.93L401.848 1276.55L378.61 1276.37C376.581 1276.35 372.97 1276.86 371.278 1275.8C372.978 1266.12 373.2 1254.11 377.35 1245.22C380.1 1239.32 384.42 1236.17 390.411 1234.03ZM389.504 1244.09C386.06 1245.08 383.404 1246.6 381.551 1249.79C378.785 1254.57 378.293 1261.05 377.652 1266.45L399.604 1266.65L412.309 1266.81C409.87 1258.59 406.638 1250.52 398.506 1246.32C395.757 1244.9 392.623 1243.87 389.504 1244.09Z"/>
	<path fill="#293034" transform="scale(0.1 0.1)" d="M839.624 1197.04L901.664 1198.68L900.842 1213.93C903.852 1212.62 906.636 1209.92 909.378 1208.06C915.984 1203.56 922.969 1200.68 931.01 1200.55C940.276 1200.39 948.376 1203.31 955.035 1209.85C963.419 1218.09 967.591 1230.1 970.248 1241.32C978.281 1275.25 975.644 1310.86 975.509 1345.41L976.062 1417.71L911.399 1417.01L913.214 1333.75L913.605 1282.46C912.708 1272.91 911.887 1261.17 904.046 1254.64L902.9 1255.17C900.781 1258.68 899.418 1261.59 899.086 1265.73C898.567 1272.2 899.427 1278.42 899.69 1284.86L899.897 1311.63L898.998 1416.95L840.035 1415.97L839.624 1197.04Z"/>
	<path fill="#EC5E31" transform="scale(0.1 0.1)" d="M844.787 1206.85L896.2 1208.67C896.064 1212.33 894.449 1222.22 895.788 1225.35C896.513 1227.04 896.799 1227.05 898.506 1227.66C899.055 1226.79 899.65 1225.97 900.355 1225.22C907.677 1217.46 922.596 1210.27 933.137 1210.09C940.749 1209.95 946.435 1212.55 951.799 1217.88C959.863 1225.9 964.128 1238.61 966.428 1249.55C971.461 1273.51 970.877 1299.5 970.993 1323.91L970.906 1407.25L916.545 1407.1L918.979 1317.46L918.991 1294.37C918.676 1282.82 918.536 1255.45 909.269 1247.61C906.528 1245.29 904.513 1245.49 901.142 1245.63C898.398 1247.94 897.378 1250 896.152 1253.32C892.07 1264.37 894.444 1281.36 894.679 1293.25L895.09 1337.61L894.133 1407.06L845.031 1406.1L844.787 1206.85Z"/>
	<path fill="#293034" transform="scale(0.1 0.1)" d="M191.796 286.14L203.354 285.541L181.717 501.889L144.073 502.708C139.341 502.884 133.263 504.085 128.678 503.201L118.85 433.834L113.138 503.949L52.7874 506.192L43.3425 411.541L30.7692 291.015L78.7955 289.843L88.3745 367.271L97.2392 289.103L138.517 287.893C140.418 290.406 140.563 301.323 140.96 304.952L145.802 348.925C146.662 356.573 147.007 364.863 148.856 372.304L161 287.658C164.263 285.868 186.744 286.294 191.796 286.14Z"/>
	<path fill="#EC5E31" transform="scale(0.1 0.1)" d="M193.523 298.389L195.409 298.356L196.717 299.707L177.717 489.45L132.956 491.132L117.538 393.754L108.984 491.853L57.1231 493.136L44.2897 368.104L37.6589 303.42L74.4172 302.215L88.8013 411.328L100.999 301.195L135.07 300.147L142.145 363.963C143.997 380.035 144.809 396.662 148.588 412.415C152.547 398.278 152.997 381.527 154.788 366.872L164.221 299.25L193.523 298.389Z"/>
	<path fill="#293034" transform="scale(0.1 0.1)" d="M761.895 1196.14L819.834 1197.06L822.839 1261.79C825.943 1310.76 834.207 1389.28 801.417 1430.31C789.113 1445.71 771.344 1455.02 751.757 1457.1C737.07 1458.65 722.387 1458.84 710.368 1448.94C694.446 1435.82 690.523 1414.97 688.659 1395.58L689.367 1392.26L729.257 1394.05C729.998 1398.39 730.365 1403.49 732.485 1407.4C734.139 1410.45 737.57 1413.85 741.041 1414.69C743.988 1415.4 746.138 1415.06 748.629 1413.39C758.543 1406.76 760.982 1386.95 762.94 1376.23C760.191 1376.78 757.203 1379.1 754.587 1380.32C749.61 1382.64 744.204 1384.04 738.792 1384.84C726.96 1386.6 713.08 1385.2 703.365 1377.77C690.505 1367.93 686.475 1351.44 684.341 1336.24C682.2 1320.99 682.622 1305.02 683.107 1289.65C683.928 1263.6 683.926 1233.46 700.609 1211.82C706.592 1204.06 714.644 1199.7 724.35 1198.51C738.565 1196.77 751.841 1203.25 762.782 1211.71L761.895 1196.14ZM766.965 1206.58L768.04 1227.3C756.029 1216.93 743.263 1206.78 726.318 1208.05C718.002 1208.68 710.277 1212.29 704.835 1218.71C699.569 1224.93 696.42 1232.1 693.89 1239.76C685.303 1265.77 686.292 1296.97 688.843 1323.86C690.321 1339.45 690.422 1356.04 703.583 1366.78C712.616 1374.16 724.673 1376.51 736.087 1375.37C749.15 1374.06 759.886 1368.43 769.241 1359.47C768.441 1376.38 766.208 1408.62 753.04 1420.7C750.444 1423.08 747.094 1424.69 743.508 1424.42C738.57 1424.05 734.684 1422.25 731.501 1418.41C729.042 1415.45 727.662 1411.81 726.358 1408.23L725.395 1404.82C722.508 1403.45 718.84 1403.64 715.689 1403.44L694.593 1402.37C696.401 1416.52 700.015 1429.91 711.907 1439.06C723.29 1447.82 738.72 1449.59 752.586 1447.68C768.484 1445.5 787.014 1437.5 797.061 1424.41C803.722 1415.73 808.624 1403.97 811.953 1393.59C825.107 1352.57 820.615 1308.92 818.118 1266.67L815.27 1207.05L766.965 1206.58Z"/>
	<path fill="#EC5E31" transform="scale(0.1 0.1)" d="M766.965 1206.58L815.27 1207.05L818.118 1266.67C820.615 1308.92 825.107 1352.57 811.953 1393.59C808.624 1403.97 803.722 1415.73 797.061 1424.41C787.014 1437.5 768.484 1445.5 752.586 1447.68C738.72 1449.59 723.29 1447.82 711.907 1439.06C700.015 1429.91 696.401 1416.52 694.593 1402.37L715.689 1403.44C718.84 1403.64 722.508 1403.45 725.395 1404.82L726.358 1408.23C727.662 1411.81 729.042 1415.45 731.501 1418.41C734.684 1422.25 738.57 1424.05 743.508 1424.42C747.094 1424.69 750.444 1423.08 753.04 1420.7C766.208 1408.62 768.441 1376.38 769.241 1359.47C759.886 1368.43 749.15 1374.06 736.087 1375.37C724.673 1376.51 712.616 1374.16 703.583 1366.78C690.422 1356.04 690.321 1339.45 688.843 1323.86C686.292 1296.97 685.303 1265.77 693.89 1239.76C696.42 1232.1 699.569 1224.93 704.835 1218.71C710.277 1212.29 718.002 1208.68 726.318 1208.05C743.263 1206.78 756.029 1216.93 768.04 1227.3L766.965 1206.58ZM758.49 1237.58C750.743 1240.78 746.543 1245.12 743.338 1252.85C734.121 1275.08 731.436 1310.77 741.04 1333.16C743.119 1338.01 746.135 1342.28 750.61 1345.15C756.183 1347.3 760.755 1348.37 766.427 1345.85C767.925 1345.19 769.078 1344.29 770.211 1343.11L768.401 1238.82C765.718 1236.75 761.733 1237.6 758.49 1237.58Z"/>
	<path fill="#293034" transform="scale(0.1 0.1)" d="M758.49 1237.58C761.733 1237.6 765.718 1236.75 768.401 1238.82L770.211 1343.11C769.078 1344.29 767.925 1345.19 766.427 1345.85C760.755 1348.37 756.183 1347.3 750.61 1345.15C746.135 1342.28 743.119 1338.01 741.04 1333.16C731.436 1310.77 734.121 1275.08 743.338 1252.85C746.543 1245.12 750.743 1240.78 758.49 1237.58ZM759.675 1247.61C754.854 1248.74 751.453 1251.2 748.829 1255.44C740.578 1268.78 740.599 1289.01 741.323 1304.28C741.614 1310.42 741.821 1316.94 743.267 1322.94C744.315 1327.3 746.395 1330.95 749.412 1334.23C754.615 1336.85 759.217 1337.72 764.938 1336.37C766.652 1330.91 765.477 1322.18 765.454 1316.21L764.379 1270.05C764.102 1262.75 764.404 1254.79 763.181 1247.6L759.675 1247.61Z"/>
	<path fill="#293034" transform="scale(0.1 0.1)" d="M293.4 1151.03L302.912 1150.06L301.071 1408.53C285.475 1407.44 269.499 1408.2 253.852 1408.11C247.782 1408.08 237.523 1406.74 231.884 1408.66C229.8 1409.37 226.832 1412.06 224.816 1413.27C216.188 1418.43 206.51 1421.34 196.416 1420.75C185.402 1420.12 178.622 1416.16 171.305 1408.08C167.898 1402.79 165.344 1397.67 163.881 1391.49C158.91 1370.49 162.87 1348.33 163.25 1327.04C163.935 1288.72 154.765 1246.8 176.586 1212.06C182.167 1203.18 191.371 1196.94 201.582 1194.7C217.288 1191.26 229.593 1197.24 242.475 1205.43L243.175 1151.84C245.286 1150.86 253.286 1152.23 256.12 1152.26L293.4 1151.03ZM294.857 1160.59L248.104 1161.93L247.287 1220.15C234.837 1209.69 221.569 1202.75 204.82 1203.98C195.842 1204.64 187.503 1209.3 181.73 1216.11C176.079 1222.78 173.315 1230.68 171.125 1238.98C163.854 1266.55 168.897 1292.42 168.507 1320.29C168.253 1338.42 165.5 1357.05 167.152 1375.12C168.099 1385.48 170.806 1394.16 177.495 1402.31C186.157 1409.46 194.046 1411.85 205.253 1410.66C218.729 1409.22 230.566 1402.18 238.879 1391.65L244.68 1383.87L244.405 1398.93L296.085 1398.3L297.776 1161.47C296.429 1160.57 296.431 1160.35 294.857 1160.59Z"/>
	<path fill="#EC5E31" transform="scale(0.1 0.1)" d="M294.857 1160.59C296.431 1160.35 296.429 1160.57 297.776 1161.47L296.085 1398.3L244.405 1398.93L244.68 1383.87L238.879 1391.65C230.566 1402.18 218.729 1409.22 205.253 1410.66C194.046 1411.85 186.157 1409.46 177.495 1402.31C170.806 1394.16 168.099 1385.48 167.152 1375.12C165.5 1357.05 168.253 1338.42 168.507 1320.29C168.897 1292.42 163.854 1266.55 171.125 1238.98C173.315 1230.68 176.079 1222.78 181.73 1216.11C187.503 1209.3 195.842 1204.64 204.82 1203.98C221.569 1202.75 234.837 1209.69 247.287 1220.15L248.104 1161.93L294.857 1160.59ZM232.216 1235.3C225.027 1238.67 220.276 1246.48 217.676 1253.75C215.498 1259.85 214.764 1266.46 214.628 1272.9C214.329 1287.1 217.134 1301.33 217.903 1315.48C218.645 1329.14 217.663 1343.16 218.936 1356.75C219.257 1360.18 220.112 1364.16 221.619 1367.28C222.952 1370.03 225.289 1371.92 228.217 1372.79C229.022 1373.03 229.072 1373.01 229.789 1373.06C234.574 1373.05 237.084 1371.87 240.469 1368.47C241.662 1367.28 244.434 1364.82 244.924 1363.2C245.695 1360.63 245.178 1356.09 245.224 1353.25L245.565 1326.71L246.943 1242.74L246.888 1239.7C243.345 1236.33 240.388 1234.6 235.366 1234.79C234.248 1234.83 233.287 1234.98 232.216 1235.3Z"/>
	<path fill="#293034" transform="scale(0.1 0.1)" d="M232.216 1235.3C233.287 1234.98 234.248 1234.83 235.366 1234.79C240.388 1234.6 243.345 1236.33 246.888 1239.7L246.943 1242.74L245.565 1326.71L245.224 1353.25C245.178 1356.09 245.695 1360.63 244.924 1363.2C244.434 1364.82 241.662 1367.28 240.469 1368.47C237.084 1371.87 234.574 1373.05 229.789 1373.06C229.072 1373.01 229.022 1373.03 228.217 1372.79C225.289 1371.92 222.952 1370.03 221.619 1367.28C220.112 1364.16 219.257 1360.18 218.936 1356.75C217.663 1343.16 218.645 1329.14 217.903 1315.48C217.134 1301.33 214.329 1287.1 214.628 1272.9C214.764 1266.46 215.498 1259.85 217.676 1253.75C220.276 1246.48 225.027 1238.67 232.216 1235.3ZM232.074 1244.97C227.981 1246.53 225.066 1249.21 223.31 1253.29C221.37 1257.79 220.65 1262.64 220.462 1267.5C219.92 1281.53 221.797 1295.9 222.425 1309.94L224.343 1349.05C224.584 1352.03 224.353 1356.78 225.599 1359.41C226.642 1361.61 228.632 1362.14 230.668 1363.12C233.731 1363.07 236.214 1363.16 238.576 1360.83C239.081 1360.33 239.674 1359.46 239.876 1358.79C240.37 1357.14 239.975 1353.56 240.01 1351.69L240.346 1333.75L241.288 1278.19C241.446 1267.93 242.102 1257.4 241.461 1247.17C239.178 1245.34 237.177 1244.33 234.174 1244.62L232.074 1244.97Z"/>
	<path fill="#293034" transform="scale(0.1 0.1)" d="M686.877 856.977L742.629 857.823L751.668 920.085L767.528 857.912L830.941 858.584L805.506 957.967L800.171 978.832C799.364 982.042 797.905 986.049 797.851 989.355C797.795 992.719 799.13 996.562 799.816 999.881L804.157 1020.93L822.957 1110.94C824.665 1119.05 828.537 1129.87 828.502 1138.01L825.352 1138.23L767.056 1137.64C765.447 1136.15 750.914 1067.04 749.443 1059.71L736.971 1137.22L676.508 1136.61L693.022 1043.93L698.604 1012.67C699.69 1006.62 701.384 1000.06 701.527 993.932C701.657 988.327 700.572 982.474 699.955 976.904L696.994 948.855L686.877 856.977Z"/>
	<path fill="#EC5E31" transform="scale(0.1 0.1)" d="M693.354 868.16L738.792 868.303L750.169 946.495L770.285 868.489L822.615 869.103L800.397 956.855L795.216 976.968C794.219 980.631 792.518 985.094 792.367 988.874C792.219 992.568 793.676 996.918 794.467 1000.56L799.466 1023.75L820.759 1126.32L819.859 1127.48L813.928 1127.6L769.945 1126.93L748.565 1033.18L733.568 1126.55L683.555 1125.86L699.606 1034.85L704.33 1008.83C705.179 1004.12 706.481 999.239 706.644 994.455C707.089 981.398 703.972 966.78 702.547 953.726L693.354 868.16Z"/>
	<path fill="#293034" transform="scale(0.1 0.1)" d="M664.822 281.993L712.843 282.969L712.428 303.951L725.479 283.192L767.202 284.407C770.938 289.963 773.656 296.823 776.642 302.851L786.052 284.86C796.533 285.775 807.129 285.662 817.646 285.866C820.812 285.928 826.127 285.301 828.883 286.382C830.018 286.828 832.224 292.723 832.794 294.06C837.997 306.258 840.366 320.404 841.419 333.549C843.784 363.081 839.999 392.227 840.2 421.677L841.915 469.51C842.122 473.968 843.833 484.149 842.263 488.049L785.542 487.278C784.342 475.193 784.574 462.733 784.564 450.598L785.654 390.858C786.181 375.97 787.183 360.613 786.084 345.745C785.775 341.563 785.277 336.697 782.994 333.084C782.203 331.832 781.947 331.947 780.523 331.581C777.999 335.43 778.113 340.321 777.948 344.774L778.156 377.71L778.211 487.069L721.398 486.292C719.113 473.488 720.83 459.042 721.356 446.045L723.06 386.721C723.041 373.936 724.427 347.182 715.148 337.939L714.52 338.379L710.948 486.084L661.944 485.963L664.822 281.993Z"/>
	<path fill="#EC5E31" transform="scale(0.1 0.1)" d="M669.89 294.625L707.5 295.733C707.243 302.073 705.848 312.468 709.823 317.725L711.223 317.725C717.214 311.601 721.247 303.366 725.799 296.131C730.068 296.262 763.862 296.422 764.734 297.052C765.316 297.472 766.743 301.156 767.154 301.979C769.462 306.606 771.686 311.474 775.47 315.088L777.241 314.648C781.185 309.978 783.951 303.221 786.786 297.764L826.414 298.77C842.993 336.196 835.973 377.423 835.104 416.922L836.733 475.508L790.199 474.912L789.551 430.075L791.083 374.977C791.477 360.335 793.355 339.175 788.124 325.46C786.75 321.856 785.066 320.946 781.74 319.482C779.88 319.805 779.199 319.803 777.86 321.277C775.38 324.008 774.565 328.391 774.015 331.919C772.308 342.846 772.563 354.055 772.638 365.084L773.026 474.641L725.914 473.919L726.825 424.804L727.704 376.135C727.678 363.246 727.857 348.824 724.13 336.401C722.761 331.837 721.037 327.884 716.684 325.576C713.763 325.278 712.888 325.299 710.084 326.514C708.668 331.205 709.32 337.801 709.229 342.733L708.534 373.669L705.912 473.748L667.199 472.921L669.89 294.625Z"/>
	<path fill="#293034" transform="scale(0.1 0.1)" d="M493.22 856.279L503.076 856.067C523.108 856.53 541.695 868.497 555.169 882.527C578.794 907.126 583.169 940.556 582.515 973.23L520.154 974.401C518.588 974.182 519.324 971.324 519.386 970.079C519.933 959.178 521.704 941.355 514.776 932.08C513.441 930.292 512.139 930.309 510.105 929.983C508.868 930.458 507.581 931.025 506.644 931.994C502.496 936.286 501.459 944.698 500.624 950.474C497.105 974.838 498.499 999.512 499.034 1024.02L499.233 1051.14C499.536 1059.13 501.472 1066.91 507.469 1072.48C508.191 1072.41 509.017 1072.52 509.575 1072.02C514.816 1067.34 515.477 1042.92 515.929 1035.71C513.138 1035.71 506.005 1036.5 503.77 1035.18C502.804 1034.61 502.642 1033.66 502.382 1032.61C501.741 1030 503.208 1025.88 503.293 1023.05C503.566 1013.97 502.508 1004.54 502.5 995.385C502.497 991.872 502.005 988.142 503.954 985.061C507.798 983.786 511.384 991.167 516.233 991.199L576.011 990.601L576.446 993.824L576.626 1149.44C567.606 1149.42 541.467 1152.78 535.027 1149.17C532.732 1146.49 532.797 1142.43 532.356 1139.07L529.978 1121.67C526.853 1123.04 523.932 1126.08 521.115 1128.08C513.589 1133.41 504.171 1137.55 495.138 1139.41C483.742 1141.76 473.624 1141.58 463.812 1134.88C447.229 1123.57 440.315 1104.79 436.667 1085.86C433.02 1066.93 432.898 1046.99 432.456 1027.78C431.596 990.448 431.055 951.854 440.742 915.515C444.024 903.203 448.339 890.674 455.588 880.088C464.814 866.616 477.317 859.258 493.22 856.279Z"/>
	<path fill="#EC5E31" transform="scale(0.1 0.1)" d="M494.628 865.953C513.654 864.914 532.102 873.182 546.103 885.685C569.817 906.861 576.201 931.944 577.927 962.582L524.53 963.743C524.67 951.618 525.257 938.372 519.938 927.132C518.218 923.498 516.243 920.078 512.302 918.661C510.235 918.603 508.725 918.942 507.018 920.118C499.372 925.385 497.28 941.288 495.826 949.848C492.106 971.736 493.871 994.768 494.035 1016.87C494.142 1031.32 492.949 1046.23 495.279 1060.55C496.373 1067.26 498.598 1074.7 502.775 1080.18C504.493 1082.43 505.69 1082.38 508.348 1082.79C509.767 1082.27 511.192 1081.71 512.257 1080.6C515.806 1076.89 517.001 1071.12 517.923 1066.27C520.467 1052.89 520.448 1039.35 520.897 1025.77L507.954 1025.16L507.101 997.725C511.113 1000.18 516.22 1004.64 521.09 1003.83C521.898 1003.07 522.804 1002.23 523.898 1001.93C527.098 1001.04 531.614 1001.55 535.005 1001.5L559.746 1001.21L571.218 1001.16L571.535 1138.59L537.877 1139.9L532.839 1105.98C521.289 1117.99 509.563 1126.47 492.809 1129.73C483.803 1131.48 473.256 1130.34 465.57 1125.13C450.096 1114.63 444.407 1094.04 441.142 1076.66C436.955 1054.36 436.823 1031.32 436.832 1008.71C436.847 970.882 435.986 921.842 458.379 889.432C467.089 876.824 479.613 868.701 494.628 865.953Z"/>
	<path fill="#293034" transform="scale(0.1 0.1)" d="M627.579 562.671C645.72 560.843 661.097 567.875 676.319 577.075C701.599 592.352 719.755 616.525 726.79 645.253C729.184 655.029 729.884 665.418 730.534 675.432C732.763 709.761 729.951 752.192 711.559 782.193C700.079 800.92 685.436 812.591 663.865 817.789C645.578 822.396 620.269 819.863 604.036 810.064C582.222 796.895 571.208 771.84 565.509 748.014C555.218 704.993 556.297 636.353 580.153 598.096C591.446 579.986 606.605 567.455 627.579 562.671ZM631.089 572.492C624.337 573.201 617.662 574.197 611.778 577.881C609.501 579.307 603.702 585.506 601.892 585.943C601.128 586.127 599.54 585.394 598.858 585.65C596.962 586.362 592.239 592.213 590.806 593.973C566.326 624.046 561.093 677.089 565.118 714.074C568.348 743.749 576.932 778.403 601.497 797.877C617.183 810.312 637.537 811.323 656.712 808.911L660.592 808.288C679.554 804.348 695.964 796.111 706.831 779.468C712.989 770.038 716.244 758.634 719.02 747.799C726.704 717.803 729.625 685.731 722.916 655.251C720.628 644.857 717.605 633.398 712.504 624.023C704.368 609.07 689.473 595.728 675.26 586.689C662.045 578.283 646.985 572.156 631.089 572.492Z"/>
	<path fill="#FCCB7C" transform="scale(0.1 0.1)" d="M631.089 572.492C646.985 572.156 662.045 578.283 675.26 586.689C689.473 595.728 704.368 609.07 712.504 624.023C717.605 633.398 720.628 644.857 722.916 655.251C729.625 685.731 726.704 717.803 719.02 747.799C716.244 758.634 712.989 770.038 706.831 779.468C695.964 796.111 679.554 804.348 660.592 808.288L656.712 808.911C637.537 811.323 617.183 810.312 601.497 797.877C576.932 778.403 568.348 743.749 565.118 714.074C561.093 677.089 566.326 624.046 590.806 593.973C592.239 592.213 596.962 586.362 598.858 585.65C599.54 585.394 601.128 586.127 601.892 585.943C603.702 585.506 609.501 579.307 611.778 577.881C617.662 574.197 624.337 573.201 631.089 572.492ZM646.53 615.674C632.005 623.784 624.838 644.733 620.546 659.822C614.681 680.443 611.617 702.183 613.065 723.618C613.716 733.258 615.171 743.354 619.851 751.956C622.706 757.202 626.815 761.774 632.74 763.386C634.631 763.901 636.56 764.022 638.509 764.067C648.431 760.996 653.709 754.668 658.415 745.736C669.472 724.75 672.481 697.111 672.428 673.751C672.398 660.943 671.503 647.693 667.669 635.401C665.424 628.202 661.789 619.713 654.657 616.139C651.82 614.717 649.564 614.696 646.53 615.674Z"/>
	<path fill="#293034" transform="scale(0.1 0.1)" d="M646.53 615.674C649.564 614.696 651.82 614.717 654.657 616.139C661.789 619.713 665.424 628.202 667.669 635.401C671.503 647.693 672.398 660.943 672.428 673.751C672.481 697.111 669.472 724.75 658.415 745.736C653.709 754.668 648.431 760.996 638.509 764.067C636.56 764.022 634.631 763.901 632.74 763.386C626.815 761.774 622.706 757.202 619.851 751.956C615.171 743.354 613.716 733.258 613.065 723.618C611.617 702.183 614.681 680.443 620.546 659.822C624.838 644.733 632.005 623.784 646.53 615.674ZM646.96 624.463C627.612 641.231 619.593 675.947 617.807 700.497C616.66 716.268 616.488 737.568 627.689 750.213C630.363 753.232 632.69 754.056 636.671 754.196L639.279 754.221C645.681 752.665 649.532 748.517 652.916 743.034C658.475 734.029 661.347 723.49 663.558 713.232C668.217 691.624 670.051 666.642 664.568 644.989C662.947 638.588 659.837 629.634 653.808 626.077C651.698 624.832 649.407 624.114 646.96 624.463Z"/>
	<path fill="#293034" transform="scale(0.1 0.1)" d="M402.84 863.565L416.897 862.992L418.893 939.111L418.667 1000.32C417.959 1032.13 416.398 1066.66 404.808 1096.63C400.639 1107.41 395.231 1117.69 387.064 1126C376.273 1136.99 361.743 1142.34 346.46 1142.39C339.804 1142.41 333.117 1141.22 326.575 1140.11C311.296 1137.53 297.8 1134.34 286.503 1122.83C265.753 1101.69 266.005 1067.07 266.165 1039.49L267.635 979.676L266.121 922.412C265.434 903.636 264.116 883.622 266.218 864.942L333.054 864.132L332.821 876.483L330.465 992.113L329.861 1017.16C329.794 1020.14 329.178 1025.38 330.288 1028.15C330.932 1029.76 333.932 1033.04 335.237 1034.29C337.587 1036.53 339.603 1036.81 342.707 1036.9C345.035 1035.65 347.004 1034 347.884 1031.4C348.412 1029.83 348.031 1026.29 348.082 1024.55L348.771 1006.23L351.516 899.186L352.014 874.512C352.067 871.394 351.542 866.846 352.627 864.036L402.84 863.565Z"/>
	<path fill="#EC5E31" transform="scale(0.1 0.1)" d="M374.787 874.052L412.199 873.796L414.649 988.336C414.552 1021.36 413.217 1058.45 401.201 1089.57C397.245 1099.81 391.901 1109.83 383.956 1117.54C373.877 1127.33 361.353 1131.32 347.545 1131.06C326.978 1130.68 303.11 1127.98 288.155 1112.26C268.072 1091.15 270.209 1055.49 271.487 1028.53L272.23 997.833L270.551 875.552L327.954 874.598L326.015 987.827C325.783 1002.11 323.872 1017.44 325.137 1031.6C325.411 1034.66 327.804 1038.38 329.689 1040.74C332.168 1043.84 336.337 1047.17 340.51 1047.35C343.417 1047.48 345.871 1046.28 347.955 1044.31C350.018 1042.35 352.264 1038.76 352.718 1035.92C353.56 1030.67 353.113 1024.73 353.238 1019.38L353.978 986.845L356.844 874.324L374.787 874.052Z"/>
	<path fill="#293034" transform="scale(0.1 0.1)" d="M198.972 856.472L246.255 855.927L245.092 1129.1C237.029 1128.32 228.567 1128.97 220.457 1129.06L180.301 1129.87C179.06 1122.04 180.311 1112.33 180.442 1104.34L181.031 1048.68L164.691 1130.16L117.236 1130.58L104.771 1034.58L103.991 1074.46L102.888 1131.05L42.2299 1131.91L47.1208 857.21L126.741 856.889L142.159 963.278C145.695 953.718 146.663 940.938 148.696 930.762L163.354 856.707L198.972 856.472Z"/>
	<path fill="#EC5E31" transform="scale(0.1 0.1)" d="M168.816 867.041L241.259 866.669L239.995 1118.08L185.046 1118.96L185.901 1000.46L161.204 1119.41L121.218 1119.92L103.683 985.049L101.381 971.404L98.426 1120.2L47.4574 1120.86L51.8398 868.135L122.811 867.474L141.36 993.537L166.52 868.139L168.816 867.041Z"/>
	<path fill="#293034" transform="scale(0.1 0.1)" d="M916.418 1657.47C935.533 1657.53 956.096 1659.17 975.027 1656.93L973.896 1688.89C973.952 1690.83 974.003 1692.64 973.478 1694.53C971.197 1702.75 965.98 1711.51 962.528 1719.5C955.242 1736.36 948.757 1754.27 940.447 1770.6L559.663 1770.02L559.868 1749.33C559.885 1747.37 559.431 1743.82 559.933 1742.02C560.327 1740.61 561.991 1738.56 562.753 1737.17L569.195 1724.66L603.553 1656.63C606.537 1656.69 609.508 1656.87 612.451 1656.3L614.108 1541.8C616.289 1538.29 618.625 1535.2 621.854 1532.58C636.111 1521.03 660.737 1518.82 678.383 1518.22C680.728 1518.14 693.74 1518.68 694.832 1517.94C695.407 1517.55 697.226 1512.6 697.715 1511.5L708.674 1486.37C710.443 1482.3 712.206 1476.89 714.86 1473.4C717.722 1469.64 722.817 1466.16 727.153 1464.38C729.934 1463.23 732.672 1463.15 735.406 1464.5C738.346 1465.96 740.302 1468.58 741.416 1471.6C741.968 1473.1 742.647 1475.13 742.325 1476.73C741.362 1481.52 737.804 1487.35 735.682 1491.82L723.447 1518.47C730.834 1519.37 737.49 1520.85 744.413 1523.59C746.429 1521.61 747.612 1519.07 749.511 1516.99C761.54 1503.79 787.182 1500.3 804.129 1499.09C814.798 1498.33 825.537 1498.47 836.229 1498.51C856.161 1498.57 877.057 1497.69 893.064 1511.58C896.08 1514.62 896.352 1518.41 896.335 1522.62L896.345 1656.85C899.78 1658.74 911.992 1657.45 916.418 1657.47Z"/>
	<path fill="#B39158" transform="scale(0.1 0.1)" d="M757.401 1547.77C759.975 1556.15 759.442 1566.76 759.796 1575.49C760.213 1585.75 761.194 1596.25 761.005 1606.5L757.909 1604.52C756.307 1602.35 756.821 1599.13 756.773 1596.52L756.468 1572.85C756.793 1565.3 754.89 1554.78 757.401 1547.77Z"/>
	<path fill="#A34926" transform="scale(0.1 0.1)" d="M622.067 1612.51C612.364 1595.86 615.764 1572.5 616.928 1554L624.205 1560.23L622.067 1612.51Z"/>
	<path fill="#B459AE" transform="scale(0.1 0.1)" d="M619.113 1702.62C618.189 1701.64 614.717 1698.59 614.3 1697.51C613.998 1696.73 614.323 1693.92 614.329 1692.93L614.424 1679.72L615.087 1603.96C617.892 1607.34 619.916 1614.7 622.374 1618.93C617.871 1646.65 621.244 1674.86 619.113 1702.62Z"/>
	<path fill="#FCCB7C" transform="scale(0.1 0.1)" d="M757.401 1547.77L757.949 1545.34C762.036 1546.44 765.802 1549.15 769.812 1550.64L769.131 1606.14C766.264 1606.71 763.896 1607.27 761.005 1606.5C761.194 1596.25 760.213 1585.75 759.796 1575.49C759.442 1566.76 759.975 1556.15 757.401 1547.77Z"/>
	<path fill="#762C07" transform="scale(0.1 0.1)" d="M732.925 1468.81C735.88 1469.78 736.98 1470.55 738.786 1473.09C738.889 1473.74 739.293 1475.09 739.194 1475.68C738.839 1477.81 737.081 1480.77 736.166 1482.81L729.142 1498.16L709.53 1541.82L701.24 1537.32L701.672 1536.7C704.525 1532.51 706.74 1527.04 708.995 1522.49L725.696 1486.85C727.708 1482.58 732.478 1475.37 733.304 1470.91C733.385 1470.48 733.013 1469.3 732.925 1468.81Z"/>
	<path fill="#A34926" transform="scale(0.1 0.1)" d="M738.249 1563.8C744.705 1561.05 749.194 1557.26 754.309 1552.6L754.853 1561.79L754.85 1589.25C754.838 1596.95 755.785 1609.16 750 1615.15C748.191 1614.33 747.918 1613.18 747.26 1611.37C745.262 1605.87 745.18 1597.53 739.04 1594.74L738.096 1594.38L738.375 1593.84C739.231 1591.59 738.791 1587.82 738.835 1585.4C738.942 1579.49 740.473 1569.19 738.249 1563.8Z"/>
	<path fill="#B39158" transform="scale(0.1 0.1)" d="M880.614 1544.63L881.377 1544.26C885.644 1542.1 889.257 1538.92 892.937 1535.91C893.106 1547 896.545 1593.95 889.138 1600.56C888.751 1600.9 888.437 1601.02 887.961 1601.27C882.545 1595.77 885.107 1586.12 877.905 1580.32L879.435 1579.29L877.947 1546.21L880.614 1544.63Z"/>
	<path fill="#EC5E31" transform="scale(0.1 0.1)" d="M624.205 1560.23C627.66 1562.28 633.986 1566.73 637.892 1567.01L637.266 1619.77C635.257 1620.25 632.944 1620.91 630.893 1620.4C626.73 1619.36 624.215 1615.94 622.067 1612.51L624.205 1560.23Z"/>
	<path fill="#531E04" transform="scale(0.1 0.1)" d="M971.755 1664.21C971.885 1673.06 972.717 1683.7 970.92 1692.33C969.577 1698.79 965.145 1706.09 962.489 1712.21L939.524 1765.37C938.832 1759.39 938.477 1749.42 939.72 1743.59C941.127 1736.98 945.013 1729.87 947.514 1723.54L971.755 1664.21Z"/>
	<path fill="#A34926" transform="scale(0.1 0.1)" d="M701.24 1537.32L691.268 1533.44L708.552 1494.74C711.487 1488.19 713.973 1480.02 719.075 1474.94C723.281 1470.75 726.979 1468.84 732.925 1468.81C733.013 1469.3 733.385 1470.48 733.304 1470.91C732.478 1475.37 727.708 1482.58 725.696 1486.85L708.995 1522.49C706.74 1527.04 704.525 1532.51 701.672 1536.7L701.24 1537.32Z"/>
	<path fill="#439BAA" transform="scale(0.1 0.1)" d="M762.617 1703.55L757.985 1700.24C756.023 1686.56 757.368 1670.91 757.217 1657.01C757.052 1641.84 755.292 1624.98 757.03 1609.98L759.288 1610.19C761.77 1611.56 764.57 1611.35 767.32 1611.37L768.909 1610.56L767.917 1706.23L763.493 1703.59L762.617 1703.55Z"/>
	<path fill="#79ECFD" transform="scale(0.1 0.1)" d="M768.909 1610.56L767.917 1706.23L763.493 1703.59L762.823 1642.09C762.495 1632.55 760.977 1621.77 761.955 1612.35L767.32 1611.37L768.909 1610.56Z"/>
	<path fill="#439BAA" transform="scale(0.1 0.1)" d="M880.3 1588.85C882.229 1593.86 883.153 1600.97 886.342 1605.19C887.464 1605.63 887.64 1606.02 888.826 1605.51C890.465 1604.8 891.483 1602.57 892.355 1601.09L893.442 1601.37L894.31 1688.46C890.083 1691.43 885.928 1694.55 881.239 1696.76L880.3 1588.85Z"/>
	<path fill="#E718FA" transform="scale(0.1 0.1)" d="M674.301 1522.64C679.48 1522.52 687.088 1521.51 692.004 1522.87L692.004 1524.42C691.696 1524.82 690.589 1526.55 690.246 1526.7C688.776 1527.34 683.491 1526.81 681.652 1526.84C665.08 1527.1 640.389 1526.53 627.783 1539.11C624.964 1541.92 624.921 1544.47 624.936 1548.19C627.654 1553.32 633.546 1556.33 638.779 1558.3C651.595 1563.14 666.892 1563.08 680.445 1562.97C698.402 1562.83 717.684 1562.83 734.231 1555C738.685 1552.89 746.097 1547.94 747.684 1543.36C747.495 1542.34 747.404 1540.79 747.036 1539.84C745.589 1536.13 732.04 1530.87 728.471 1529.93C725.618 1529.18 721.961 1529.1 719.708 1527.1L721.002 1524.17L723.638 1523C734.364 1524.12 746.654 1526.58 753.919 1535.32C755.154 1536.81 755.178 1540.99 754.998 1542.88C754.557 1547.51 753.643 1549.5 749.949 1552.47C732.177 1566.76 703.449 1567.84 681.525 1567.94C673.385 1567.98 664.951 1568.26 656.854 1567.36C641.513 1565.67 627.199 1560.81 617.311 1548.46C616.754 1545.56 617.132 1543.9 618.038 1541.16C633.419 1526.26 653.935 1523.92 674.301 1522.64Z"/>
	<path fill="#FE7EF5" transform="scale(0.1 0.1)" d="M622.374 1618.93C624.956 1621.6 627.627 1624.64 631.614 1624.77C633.416 1624.83 635.297 1624.4 637.03 1623.93L635.966 1714.19C629.761 1710.82 624.413 1707.27 619.113 1702.62C621.244 1674.86 617.871 1646.65 622.374 1618.93Z"/>
	<path fill="#439BAA" transform="scale(0.1 0.1)" d="M879.664 1540.85C858.759 1550.25 835.265 1551.28 812.66 1551.24C799.703 1551.21 787.748 1551.15 775.122 1547.84C770.458 1546.61 760.015 1543.38 757.454 1538.96C757.248 1536.79 756.659 1535.14 757.909 1533.26L758.986 1534.42C771.15 1545.77 795.011 1546.38 810.771 1546.33C836.188 1546.26 866.421 1546.85 885.631 1527.54C885.834 1525.1 886.173 1523.2 884.998 1520.95C875.564 1514.26 866.628 1510.42 855.093 1508.83C842.564 1507.1 829.556 1507.4 816.937 1507.68C799.393 1508.08 776.154 1507.42 761.52 1518.85C757.958 1521.63 755.552 1523.65 755.125 1528.38C755.011 1529.64 755.289 1529.05 754.394 1530.01C752.329 1528.42 750.433 1526.97 748.814 1524.9C749.108 1524.05 749.331 1523.43 749.885 1522.71C758.745 1511.09 778.381 1506.64 792.178 1504.68C805.883 1502.74 820.207 1503.2 834.034 1503.22C846.749 1503.24 860.623 1502.56 873.023 1505.71C880.39 1507.58 886.212 1511.18 892.161 1515.7C894.084 1520.11 893.462 1525.02 893.279 1529.72C889.277 1533.85 884.919 1538.36 879.664 1540.85Z"/>
	<path fill="#B459AE" transform="scale(0.1 0.1)" d="M737.186 1599.48L739.149 1599.19C745.436 1604.49 742.989 1614.96 749.121 1619.17C752.025 1618.15 753 1615.73 754.761 1613.25L755.145 1665.68C755.296 1676.07 756.347 1687.05 755.371 1697.35C749.521 1701.76 742.622 1706.74 735.529 1708.85C735.745 1702.12 736.975 1695.53 737.236 1688.82L738.177 1626.02C738.264 1619.24 740.118 1604.83 737.186 1599.48Z"/>
	<path fill="#EC5E31" transform="scale(0.1 0.1)" d="M669.33 1531.57C674.176 1531.29 684.445 1529.49 688.633 1531.27L686.742 1536.77L688.108 1538.7C696.377 1538.77 703.636 1543.49 710.504 1547.63L717.583 1531.64C727.898 1534.08 736.407 1536.77 745.182 1542.94C738.743 1548.02 732.699 1551.94 724.728 1554.35L716.134 1556.63C697.383 1559.81 676.548 1560.07 657.621 1558.04C649.624 1557.18 633.843 1554.75 628.83 1548.35C627.366 1546.48 627.285 1546.04 627.541 1543.8C639.136 1533.22 654.481 1532.37 669.33 1531.57Z"/>
	<path fill="#FEFEFE" transform="scale(0.1 0.1)" d="M668.783 1535.01C669.18 1534.88 669.329 1534.81 669.793 1534.76C672.554 1534.44 675.584 1534.25 677.792 1535.89L677.065 1538.81C673.892 1538.87 670.934 1539.57 668.278 1537.73L668.783 1535.01Z"/>
	<path fill="#FEFEFE" transform="scale(0.1 0.1)" d="M653.567 1535.62C656.034 1535.37 658.176 1535.33 660.656 1535.62L661.306 1537.65C659.298 1540.21 654.834 1539.8 651.603 1540.68C648.72 1541.46 646.02 1542.78 643.339 1544.08L638.899 1547.23L637.891 1546.44L638.401 1543.92C642.943 1539.16 647.347 1537.47 653.567 1535.62Z"/>
	<path fill="#FCCB7C" transform="scale(0.1 0.1)" d="M814.911 1512.09C838.965 1510.77 862.875 1510.91 883.48 1524.85C867.032 1539.2 846.926 1540.99 826.033 1541.8C814.413 1542.16 801.595 1542.34 790.083 1540.73C781.076 1539.47 765.349 1537.71 759.757 1530.03C758.488 1528.29 758.426 1528 758.787 1525.92C774.462 1512.24 795.346 1513.27 814.911 1512.09Z"/>
	<path fill="#FEFEFE" transform="scale(0.1 0.1)" d="M802.777 1516.55C805.58 1515.92 809.105 1515.99 811.709 1517.22L811.511 1520.14C810.968 1520.32 810.841 1520.38 810.193 1520.46C807.169 1520.84 804.565 1520.86 802.078 1519.19L802.777 1516.55Z"/>
	<path fill="#FEFEFE" transform="scale(0.1 0.1)" d="M788.605 1517.12C790.522 1516.92 791.99 1516.99 793.867 1517.43L794.282 1519.63L793.285 1520.95C786.754 1521.26 781.168 1522.68 775.557 1526.1C773.915 1527.28 772.264 1528.82 770.211 1529.1C769.923 1527.88 769.669 1527.49 770.365 1526.35C773.843 1520.67 782.613 1518.45 788.605 1517.12Z"/>
	<path fill="#EC5E31" transform="scale(0.1 0.1)" d="M738.249 1563.8C740.473 1569.19 738.942 1579.49 738.835 1585.4C738.791 1587.82 739.231 1591.59 738.375 1593.84L738.096 1594.38C735.394 1596.08 734.683 1597.4 733.54 1600.27C732.021 1606.45 731.525 1620.58 726.274 1624.1C724.006 1623.03 723.036 1620.43 721.739 1618.3C718.17 1612.44 713.746 1603.01 706.503 1602.08C702.159 1604.71 700.775 1609.78 699.625 1614.55C695.907 1629.96 698.087 1647.3 691.416 1661.85C690.173 1664.56 688.819 1667.61 686.184 1669.24C684.22 1670.46 682.509 1670.99 680.141 1670.53C677.257 1669.96 674.69 1667.17 673.344 1664.67C671.673 1661.56 672.054 1657.17 672.023 1653.73C671.953 1645.67 673.063 1626.38 666.081 1621.64C661.406 1622.4 659.508 1626.04 656.839 1629.65C655.336 1624.76 653.242 1613.75 648.602 1611.39C647.646 1610.91 647.148 1611 646.121 1611.36C644.793 1611.81 643.521 1612.9 642.404 1613.73L643.224 1569.11C656.671 1572.31 668.864 1572.08 682.585 1571.83C701.801 1571.48 720.026 1570.45 738.249 1563.8Z"/>
	<path fill="#FCCB7C" transform="scale(0.1 0.1)" d="M877.947 1546.21L879.435 1579.29L877.905 1580.32L875.289 1579.7C873.887 1580.86 873.235 1581.23 872.559 1582.96L872.233 1583.54C868.077 1591.35 870.294 1605.15 863.667 1610.77L862.238 1610.6C857.445 1602.99 852.517 1591.86 844.464 1587.51C842.063 1587.72 841.398 1587.67 839.709 1589.59C828.875 1601.91 836.142 1659.38 816.784 1660.22C814.244 1660.33 811.613 1658.87 809.863 1657.12C805.571 1652.83 805.888 1646.7 805.855 1641.07C805.804 1632.44 806.871 1619.57 803.113 1611.74C802.724 1610.93 801.335 1608.91 800.512 1608.6C799.846 1608.35 798.225 1608.51 797.452 1608.48C794.112 1610.27 792.074 1613.67 789.908 1616.68C788.289 1611.56 786.086 1599.85 781.203 1597.4C780.168 1596.88 779.524 1597.04 778.443 1597.39C777.073 1597.85 776.019 1599.06 775.024 1600.06L774.754 1603.25L774.325 1603.29L775.063 1552.4C788.039 1556.23 800.015 1555.83 813.438 1555.66C835.535 1555.37 857.182 1554.52 877.947 1546.21Z"/>
	<path fill="#762C07" transform="scale(0.1 0.1)" d="M563.807 1743.31C573.229 1741.94 584.749 1743.38 594.444 1743.44L666.894 1743.83L936.763 1745.73L936.645 1764.4L934.534 1765.39L562.205 1764.84C562.283 1759.56 561.077 1747.54 563.807 1743.31Z"/>
	<path fill="#FE7EF5" transform="scale(0.1 0.1)" d="M637.892 1567.01L643.224 1569.11L642.404 1613.73L642.455 1617.78L646.309 1615.44C653.901 1616.84 651.483 1628.45 656.437 1632.73C659.453 1632.09 661.556 1628.52 663.57 1626.16L665.641 1626.05C675.427 1635.24 665.777 1657.22 672.488 1668.95C674 1671.59 677.148 1674.24 680.141 1674.94C682.357 1675.45 684.48 1674.96 686.31 1673.7C688.853 1671.95 690.839 1668.64 692.242 1665.95C699.401 1652.19 697.347 1636.47 700.117 1621.7C701.002 1616.97 702.427 1609.21 706.503 1606.42C717.239 1606.9 717.484 1625.03 725.835 1628.37L728.032 1627.35C733.818 1619.71 732.545 1610.3 735.349 1601.45L737.186 1599.48C740.118 1604.83 738.264 1619.24 738.177 1626.02L737.236 1688.82C736.975 1695.53 735.745 1702.12 735.529 1708.85L735.32 1709.24C711.455 1717.94 687.675 1719.59 662.466 1717.95C655.776 1717.52 647.862 1715.42 641.334 1715.79L635.966 1714.19L637.03 1623.93L637.266 1619.77L637.892 1567.01Z"/>
	<path fill="#FEFEFE" transform="scale(0.1 0.1)" d="M637.892 1567.01L643.224 1569.11L642.404 1613.73L642.455 1617.78L641.334 1715.79L635.966 1714.19L637.03 1623.93L637.266 1619.77L637.892 1567.01Z"/>
	<path fill="#79ECFD" transform="scale(0.1 0.1)" d="M769.812 1550.64L775.063 1552.4L774.325 1603.29L774.754 1603.25L775.507 1603.4C777.166 1602.51 778.453 1601.95 780.316 1601.64C785.187 1604.7 787.102 1616.67 789.088 1622.28C791.76 1619.47 795.177 1613.61 798.77 1612.8C808.536 1619.71 801.145 1645.54 805.564 1656.59C806.864 1659.84 809.849 1663 813.155 1664.29C815.232 1665.1 818.21 1665.13 820.21 1664.11C835.23 1656.37 833.265 1616.48 837.586 1601.15C838.566 1597.67 839.567 1593.91 842.915 1592.03C854.254 1594.14 853.727 1610.71 861.992 1615.13C862.806 1615.56 864.244 1614.76 865.114 1614.46C871.993 1606.9 868.8 1597.39 872.536 1588.9C873.813 1586 874.177 1585.58 877.121 1584.4C878.732 1585.84 879.84 1586.68 880.3 1588.85L881.239 1696.76L880.636 1697.42C853.124 1710.1 825.889 1712.11 795.939 1710.27C789.18 1709.86 779.702 1707.18 773.257 1707.91L767.917 1706.23L768.909 1610.56L769.131 1606.14L769.812 1550.64Z"/>
	<path fill="#FEFEFE" transform="scale(0.1 0.1)" d="M769.812 1550.64L775.063 1552.4L774.325 1603.29L773.849 1669.01C773.577 1681.5 771.89 1695.58 773.257 1707.91L767.917 1706.23L768.909 1610.56L769.131 1606.14L769.812 1550.64Z"/>
	<path fill="#762C07" transform="scale(0.1 0.1)" d="M968.223 1663.01C967.196 1671.57 961.046 1682.44 957.715 1690.54L937.196 1740.98L565.904 1738.38C570.364 1729.69 603.846 1662.48 606.015 1661.78C607.597 1661.27 609.949 1661.69 611.599 1661.81C613.024 1664.26 612.517 1667.88 612.539 1670.75L612.115 1700.56C618.947 1707.41 625.266 1713.89 634.254 1717.94C639.81 1720.45 647 1721.02 653.022 1721.55L679.688 1722.82C698.687 1722.85 716.91 1720.6 734.723 1713.71C741.658 1710.77 748.116 1707.2 754.373 1703.02L762.91 1708.79C764.798 1709.73 766.728 1710.65 768.749 1711.27C775.23 1713.27 782.595 1713.77 789.315 1714.48C818.588 1717.57 854.459 1716.2 880.629 1701.86C886.292 1699.39 892.363 1695.67 896.869 1691.41L896.288 1662.24L917.953 1662.15C924.29 1662.14 965.816 1661.02 968.223 1663.01Z"/>
	<path fill="#531E04" transform="scale(0.1 0.1)" d="M917.953 1662.15C924.29 1662.14 965.816 1661.02 968.223 1663.01L918.155 1662.81C919.47 1674.9 918.471 1687.21 910.635 1697.16C900.949 1709.46 883.943 1713.78 869.631 1717.95C851.25 1723.29 832.554 1727.52 813.495 1729.52C798.761 1731.06 783.49 1731.4 768.806 1729.16C764.614 1728.52 760.476 1727.7 756.368 1726.65C754.545 1726.19 751.763 1725.09 749.952 1725.17C746.489 1725.34 740.582 1728.89 737.008 1730.06C731.262 1731.96 725.384 1733.31 719.44 1734.41C688.378 1740.13 654.758 1735.81 624.866 1726.29C619.561 1724.59 612.128 1722.79 607.737 1719.33C602.345 1715.09 600.711 1710.74 600.033 1704.09C599.037 1694.3 599.887 1683.05 606.453 1675.19C608.072 1673.25 610.154 1671.64 612.539 1670.75L612.115 1700.56C618.947 1707.41 625.266 1713.89 634.254 1717.94C639.81 1720.45 647 1721.02 653.022 1721.55L679.688 1722.82C698.687 1722.85 716.91 1720.6 734.723 1713.71C741.658 1710.77 748.116 1707.2 754.373 1703.02L762.91 1708.79C764.798 1709.73 766.728 1710.65 768.749 1711.27C775.23 1713.27 782.595 1713.77 789.315 1714.48C818.588 1717.57 854.459 1716.2 880.629 1701.86C886.292 1699.39 892.363 1695.67 896.869 1691.41L896.288 1662.24L917.953 1662.15Z"/>
</svg>
