<?xml version="1.0" encoding="UTF-8" standalone="no"?>
<!DOCTYPE svg PUBLIC "-//W3C//DTD SVG 1.1//EN" "http://www.w3.org/Graphics/SVG/1.1/DTD/svg11.dtd">
<svg width="100%" height="100%" viewBox="0 0 320 320" version="1.1" xmlns="http://www.w3.org/2000/svg" xmlns:xlink="http://www.w3.org/1999/xlink" xml:space="preserve" xmlns:serif="http://www.serif.com/" style="fill-rule:evenodd;clip-rule:evenodd;stroke-linejoin:round;stroke-miterlimit:2;">
    <g transform="matrix(1.19789,0,0,1.21309,-16.6757,-33.2666)">
        <path d="M134.61,79.874C130.451,74.614 107.108,33.284 87.11,41.956C72.307,48.375 99.509,101.553 99.813,106.003C100.767,119.98 92.054,130.9 74.056,130.917C67.165,130.923 33.28,131.433 28.481,139.529C15.824,160.879 53.344,174.422 51.348,181.198C50.307,184.733 18.9,179.66 21.239,190.807C23.521,201.679 50.547,193.526 56.636,203.417C63.116,213.943 50.653,225.324 59.54,235.093C67.506,243.849 79.066,229.689 98.538,242.93C111.957,252.056 105.26,282.096 121.602,285.619C136.538,288.84 136.238,252.713 154.297,259.737C169.283,265.566 184.349,284.646 191.22,282.951C211.754,277.885 189.473,245.176 210.771,223.536C216.237,217.982 261.473,234.944 272.096,218.543C281.126,204.603 238.795,190.915 228.878,184.253C209.212,171.043 215.388,163.462 229.798,153.388C234.395,150.175 246.017,130.872 244.441,123.893C241.588,111.264 206.828,137.95 203.765,123.655C201.966,115.259 220.63,54.931 212.636,49.478C207.512,45.982 173.086,78.729 169.525,82.329C154.636,97.382 143.511,91.13 134.61,79.874Z" style="fill:rgb(235,94,48);"/>
    </g>
    <path d="M43.26,49.93C53.275,49.93 77.591,81.124 71.312,88.133C62.219,98.285 26.508,76.806 26.508,67.396C26.508,57.986 33.245,49.93 43.26,49.93Z" style="fill:rgb(235,94,48);"/>
    <g transform="matrix(1.87858,0,0,2.36954,-148.402,-233.377)">
        <path d="M174.586,180.189C179.233,180.085 182.667,179.982 184.888,179.879L184.888,194.519L143.912,194.519L143.912,179.879C149.489,180.085 153.698,180.189 156.538,180.189L156.538,153.465C154.679,157.545 150.883,160.179 145.151,161.366C144.996,155.273 144.428,149.722 143.447,144.713C147.578,144.145 150.457,143.435 152.084,142.583C153.711,141.73 154.976,140.788 155.879,139.755C156.783,138.723 157.39,138.025 157.7,137.664L157.7,137.509L174.586,137.509L174.586,180.189Z" style="fill:white;fill-rule:nonzero;"/>
    </g>
</svg>
