<?xml version="1.0" encoding="UTF-8" standalone="no"?>
<!DOCTYPE svg PUBLIC "-//W3C//DTD SVG 1.1//EN" "http://www.w3.org/Graphics/SVG/1.1/DTD/svg11.dtd">
<svg width="100%" height="100%" viewBox="0 0 320 320" version="1.1" xmlns="http://www.w3.org/2000/svg" xmlns:xlink="http://www.w3.org/1999/xlink" xml:space="preserve" xmlns:serif="http://www.serif.com/" style="fill-rule:evenodd;clip-rule:evenodd;stroke-linejoin:round;stroke-miterlimit:2;">
    <g transform="matrix(1.43401,0,0,1.61393,-39.6952,-98.6697)">
        <path d="M115.316,102.953C111.157,97.694 80.411,63.175 60.414,71.846C45.611,78.265 78.328,120.361 80.888,124.036C89.981,137.089 86.084,151.542 70.308,160.273C64.297,163.6 38.454,166.719 33.655,174.815C20.998,196.165 82.17,188.399 88.259,198.29C94.739,208.816 74.822,234.623 84.434,243.699C97.707,256.232 116.837,211.981 136.308,225.222C149.727,234.347 148.967,254.836 174.226,252.99C190.289,251.816 179.61,219.447 191.529,215.656C198.995,213.28 231.578,232.08 235.891,223.539C243.368,208.729 226.421,201.543 216.503,194.882C196.838,181.672 213.019,176.927 225.503,171.869C234.414,168.258 241.58,163.981 234.186,154.759C226.053,144.614 213.943,145.928 210.88,131.633C209.081,123.236 243.351,91.857 235.356,86.403C230.232,82.908 196.349,99.926 192.789,103.525C188.552,107.809 178.835,110.388 171.248,103.861C164.592,98.136 175.956,79.789 158.4,78.649C150.822,78.157 142.636,97.319 136.678,103.293C131.816,108.167 117.179,105.309 115.316,102.953Z" style="fill:rgb(235,94,48);"/>
    </g>
    <g transform="matrix(1,0,0,1,-3.21354,-18.4531)">
        <path d="M43.917,113.888C53.932,113.888 55.666,125.955 49.388,132.964C40.294,143.116 27.164,140.764 27.164,131.355C27.164,121.945 33.902,113.888 43.917,113.888Z" style="fill:rgb(235,94,48);"/>
    </g>
    <path d="M239.924,37.451C249.939,37.451 248.906,49.767 242.628,56.776C233.534,66.928 223.172,64.327 223.172,54.917C223.172,45.507 229.91,37.451 239.924,37.451Z" style="fill:rgb(235,94,48);"/>
    <g transform="matrix(1,0,0,1,-244.927,81.1667)">
        <path d="M296.875,163.839C306.89,163.839 302.716,181.97 296.438,188.98C287.344,199.132 280.122,190.715 280.122,181.305C280.122,171.895 286.86,163.839 296.875,163.839Z" style="fill:rgb(235,94,48);"/>
    </g>
    <g transform="matrix(1.87858,0,0,2.36954,-164.409,-233.377)">
        <path d="M162.889,180.963C179.672,180.034 192.685,179.001 201.929,177.865C201.051,180.55 200.379,183.39 199.915,186.385C199.45,189.381 199.218,192.092 199.218,194.519L143.835,194.519L143.757,192.892C143.757,187.831 145.242,183.442 148.211,179.724C151.18,176.006 155.324,172.572 160.643,169.422C162.192,168.492 164.619,167.305 167.924,165.859C172.21,164 175.515,162.36 177.839,160.94C180.163,159.52 181.325,158.113 181.325,156.719C181.325,154.963 180.602,153.569 179.156,152.536C177.71,151.503 175.464,150.987 172.417,150.987C169.06,150.987 166.517,151.839 164.787,153.543C163.057,155.247 162.192,157.416 162.192,160.049C162.192,160.876 162.27,161.728 162.425,162.606C155.918,161.779 149.592,161.211 143.447,160.902C143.447,156.512 144.596,152.549 146.894,149.012C149.192,145.474 152.652,142.673 157.274,140.607C161.895,138.542 167.563,137.509 174.276,137.509C180.421,137.509 185.546,138.348 189.651,140.026C193.757,141.705 196.778,143.822 198.714,146.378C200.651,148.934 201.619,151.555 201.619,154.24C201.619,157.338 200.935,159.998 199.566,162.218C198.198,164.439 196.235,166.414 193.679,168.144C191.123,169.874 187.702,171.746 183.416,173.76C182.796,174.07 181.789,174.418 180.395,174.805C179.001,175.193 178.123,175.438 177.762,175.541C174.095,176.626 171.178,177.529 169.009,178.252C166.84,178.975 164.8,179.879 162.889,180.963Z" style="fill:white;fill-rule:nonzero;"/>
    </g>
</svg>
