<?xml version="1.0" encoding="UTF-8" standalone="no"?>
<!DOCTYPE svg PUBLIC "-//W3C//DTD SVG 1.1//EN" "http://www.w3.org/Graphics/SVG/1.1/DTD/svg11.dtd">
<svg width="100%" height="100%" viewBox="0 0 320 320" version="1.1" xmlns="http://www.w3.org/2000/svg" xmlns:xlink="http://www.w3.org/1999/xlink" xml:space="preserve" xmlns:serif="http://www.serif.com/" style="fill-rule:evenodd;clip-rule:evenodd;stroke-linejoin:round;stroke-miterlimit:2;">
    <g transform="matrix(1.47148,0,0,1.82009,-49.0325,-126.128)">
        <path d="M111.876,88.07C107.717,82.81 98.435,73.539 93.44,75.817C84.454,79.916 106.809,104.915 97.505,112.194C84.895,122.058 69,108.287 61.301,117.44C52.15,128.319 75.009,142.276 66.789,148.386C51.641,159.647 43.852,150.77 41.819,159.518C40.379,165.713 57.404,164.303 62.475,169.423C67.277,174.27 54.718,176.767 55.871,184.82C56.847,191.634 69.105,195.956 64.697,205.724C54.591,228.122 93.9,199.137 99.989,209.029C106.469,219.555 98.051,228.022 107.663,237.098C120.936,249.631 119.785,202.345 139.256,215.586C152.675,224.711 160.771,236.224 169.323,235.502C185.367,234.149 158.06,211.083 169.978,207.291C177.444,204.916 217.702,232.663 222.015,224.121C229.492,209.312 202.673,198.718 192.755,192.056C173.09,178.846 229.141,188.985 241.625,183.927C250.536,180.316 251.72,178.561 244.327,169.339C236.193,159.194 194.821,169.884 191.442,149.144C190.064,140.685 222.615,128.952 218.035,120.975C213.043,112.281 200.938,123.041 190.205,121.828C183.838,121.108 171.72,109.732 174.758,101.433C177.516,93.899 168.211,82.729 142.4,99.047C132.246,105.467 113.739,90.426 111.876,88.07Z" style="fill:rgb(235,94,48);"/>
    </g>
    <g transform="matrix(0.260111,0.965579,-0.965579,0.260111,176.783,-9.13333)">
        <path d="M43.917,113.888C53.932,113.888 55.666,125.955 49.388,132.964C40.294,143.116 27.164,140.764 27.164,131.355C27.164,121.945 33.902,113.888 43.917,113.888Z" style="fill:rgb(235,94,48);"/>
    </g>
    <g transform="matrix(0.552772,0.544786,-0.550861,0.558936,196.65,-51.7538)">
        <path d="M239.924,37.451C249.939,37.451 248.906,49.767 242.628,56.776C233.534,66.928 223.172,64.327 223.172,54.917C223.172,45.507 229.91,37.451 239.924,37.451Z" style="fill:rgb(235,94,48);"/>
    </g>
    <g transform="matrix(0.884449,0,0,0.799777,16.1992,-0.466487)">
        <path d="M293.398,173.06C301.608,179.402 302.716,181.97 296.438,188.98C287.344,199.132 280.122,190.715 280.122,181.305C280.122,171.895 284.228,165.978 293.398,173.06Z" style="fill:rgb(235,94,48);"/>
    </g>
    <g transform="matrix(1.87858,0,0,2.36954,-167.828,-234.295)">
        <path d="M186.669,166.014C188.528,165.652 190.361,165.472 192.169,165.472C195.319,165.472 197.888,166.001 199.876,167.059C201.864,168.118 203.297,169.461 204.175,171.087C205.053,172.714 205.492,174.405 205.492,176.161C205.492,180.24 204.149,183.713 201.464,186.579C198.779,189.445 195.138,191.614 190.542,193.086C185.946,194.557 180.834,195.293 175.205,195.293C158.887,195.293 148.327,189.613 143.525,178.252L147.862,177.168C151.064,176.393 153.788,175.657 156.034,174.96C158.281,174.263 160.256,173.476 161.96,172.598C162.993,175.18 164.477,177.026 166.414,178.136C168.35,179.246 171.023,179.801 174.431,179.801C178.046,179.801 180.989,179.388 183.261,178.562C185.533,177.736 186.669,176.497 186.669,174.844C186.669,173.966 186.23,173.295 185.352,172.83C184.475,172.365 183.08,172.043 181.17,171.862C179.259,171.681 176.574,171.591 173.114,171.591L167.227,171.591L167.227,158.036L170.79,158.036C174.715,158.036 177.916,157.868 180.395,157.532C182.874,157.196 184.113,156.461 184.113,155.324C184.113,154.034 183.455,152.988 182.138,152.187C180.821,151.387 178.769,150.987 175.98,150.987C172.365,150.987 169.435,151.736 167.188,153.233C164.942,154.731 163.199,156.899 161.96,159.74C156.435,157.519 150.548,155.944 144.299,155.015C146.778,149.438 150.586,145.126 155.725,142.079C160.863,139.032 167.485,137.509 175.593,137.509C180.86,137.509 185.598,138.193 189.806,139.562C194.015,140.93 197.32,142.828 199.721,145.255C202.122,147.682 203.323,150.393 203.323,153.388C203.323,155.144 202.91,156.706 202.084,158.074C201.257,159.443 199.631,160.785 197.204,162.102C194.777,163.419 191.265,164.723 186.669,166.014Z" style="fill:white;fill-rule:nonzero;"/>
    </g>
</svg>
