<?xml version="1.0" encoding="utf-8" ?>
<svg xmlns="http://www.w3.org/2000/svg" xmlns:xlink="http://www.w3.org/1999/xlink" width="80" height="80">
	<path fill="#51B545" transform="scale(0.078125 0.078125)" d="M101.551 246.35C102.034 246.567 102.477 246.916 103 247C106.138 247.508 111.633 245.237 114.873 244.513L128.254 242.09C139.365 240.505 150.54 239.822 161.735 239.181C170.136 238.7 178.606 239.535 187 239.882C239.393 242.05 287.895 256.226 334.654 279.624L348.122 286.626C351.248 288.181 355.508 289.597 357.922 292.117C350.982 291.297 344.356 289.387 337.492 288.45C324.823 286.72 311.947 285.415 299.153 285.493C288.819 285.556 278.263 286.643 268.022 287.977L285.839 262.906L248.992 284.524L214.383 275.716C209.22 274.537 202.532 273.937 197.804 271.881C208.022 265.815 216.588 257.704 225.939 250.463L193.092 262.929C189.81 264.208 186.08 266.087 182.596 266.583C177.819 267.265 171.969 265.567 167.186 265.046L153.721 263.652C151.869 263.458 149.617 263.488 147.918 262.742L163.398 248.997L150.225 252.235C146.754 253.205 142.988 254.637 139.401 254.982C133.499 255.551 127.04 254.824 121.064 254.85L86.8108 255.497L101.551 246.35Z"/>
	<path fill="#51B545" transform="scale(0.078125 0.078125)" d="M460.904 214.382C459.913 209.661 458.006 205.507 455.998 201.161L489.931 212.754C475.243 202.081 462.372 190.12 451.064 175.91L429.155 147.729C439.517 151.367 449.297 153.655 460.097 155.411C452.452 151.697 444.479 147.839 437.534 142.922C424.996 134.045 415.883 121.786 408.885 108.249C420.909 111.3 432.693 112.756 445.095 111.939C434.544 109.105 424.805 106.061 415.403 100.329C399.103 90.3906 386.776 73.5344 374.783 58.9682L354.805 35.3534L361.889 37.7469L362.195 38.2491C364.886 42.5094 371.966 44.7106 376.314 47.375C388.063 54.5762 399.59 62.4113 409.88 71.6197C432.914 92.2318 452.829 115.097 468.498 141.836C492.471 182.743 504.425 232.789 507.79 279.797L509.008 314.581C508.991 319.944 509.272 325.628 508.233 330.908L506.955 332.094C505.022 321.767 503.415 311.542 500.837 301.335C496.973 286.041 491.562 271.161 485.127 256.769C480.687 246.839 475.551 237.369 469.563 228.291L463.663 219.334C462.684 217.836 461.212 216.152 460.904 214.382Z"/>
	<path fill="#9C4504" transform="scale(0.078125 0.078125)" d="M493.848 368.353L495.903 367.003C500.512 364.229 505.049 364.517 510.052 365.733L516.059 368.057C520.606 370.793 525.22 374.807 526.445 380.25C526.636 381.097 526.651 382.001 526.661 382.866L526.223 385.045L524.03 390.718L519.866 402.059C518.113 408.177 515.581 416.211 515.613 422.538L514.758 427.939L513.507 437.919L512.058 480.054L512.57 491.439L515.73 540.275L517.583 552.635C512 554.438 506.29 554.734 500.48 555.013C492.49 555.757 484.502 555.48 476.5 555.18C472.053 555.014 467.591 555.111 463.249 554.008L463.394 528.896L464.659 489.807L465.967 474.542L471.53 435.714L473.279 427.014C473.893 426.116 474.257 424.353 474.612 423.284L477.722 408.03L482.424 392.267L482.512 391.064L482.938 390.657L486.824 381.047L493.848 368.353Z"/>
	<path fill="#842F00" transform="scale(0.078125 0.078125)" d="M500.503 427.006L514.758 427.939L513.507 437.919C508.708 438.694 504.316 439.07 499.447 438.975L500.503 427.006Z"/>
	<path fill="#842F00" transform="scale(0.078125 0.078125)" d="M512.57 491.439C507.493 492.218 502.101 492.134 496.961 492.331L496.938 479.766L512.058 480.054L512.57 491.439Z"/>
	<path fill="#842F00" transform="scale(0.078125 0.078125)" d="M515.73 540.275L517.583 552.635C512 554.438 506.29 554.734 500.48 555.013C500.67 550.778 499.682 545.788 499.369 541.519C504.728 540.95 510.346 540.14 515.73 540.275Z"/>
	<path fill="#9C4504" transform="scale(0.078125 0.078125)" d="M482.424 392.267C494.364 398.566 506.348 401.809 519.866 402.059C518.113 408.177 515.581 416.211 515.613 422.538L514.758 427.939L500.503 427.006L474.612 423.284L477.722 408.03L482.424 392.267Z"/>
	<path fill="#BC6B1B" transform="scale(0.078125 0.078125)" d="M477.722 408.03C486.237 410.206 493.852 411.092 502.668 411.021L500.503 427.006L474.612 423.284L477.722 408.03Z"/>
	<path fill="#BC6B1B" transform="scale(0.078125 0.078125)" d="M471.53 435.714C475.503 436.472 479.452 437.6 483.447 438.186C488.497 438.926 493.986 439.058 499.089 439.016L496.915 479.526C491.211 479.477 485.83 479.032 480.25 477.845C475.459 476.826 470.803 475.365 465.967 474.542L471.53 435.714Z"/>
	<path fill="#BC6B1B" transform="scale(0.078125 0.078125)" d="M493.848 368.353L495.903 367.003C500.512 364.229 505.049 364.517 510.052 365.733L516.059 368.057C520.606 370.793 525.22 374.807 526.445 380.25C526.636 381.097 526.651 382.001 526.661 382.866L526.223 385.045L524.03 390.718L519.866 402.059C506.348 401.809 494.364 398.566 482.424 392.267L482.512 391.064L482.938 390.657L486.824 381.047L493.848 368.353Z"/>
	<path fill="#BC6B1B" transform="scale(0.078125 0.078125)" d="M464.659 489.807C475.361 491.89 486.053 492.574 496.953 492.507L499.073 541.518L463.425 539.376C463.46 536.001 463.834 532.222 463.394 528.896L464.659 489.807Z"/>
	<path fill="#51B545" transform="scale(0.078125 0.078125)" d="M110.667 520.555C112.755 520.032 114.385 518.086 115.884 516.623C119.622 512.975 122.39 508.562 125.964 504.797L154.122 477.559C166.384 466.32 180.771 456.405 195.051 447.916C206.4 441.169 218.246 435.512 230.246 430.053L253.486 419.64C283.79 407.751 316.37 399.835 348.327 393.819C362.373 391.174 376.517 388.589 390.761 387.286C403.971 386.079 417.105 385.953 430.354 385.965C442.955 385.976 454.906 386.811 467.422 388.426C471.137 388.905 475.038 389.045 478.663 389.984C479.937 390.314 481.117 390.501 482.43 390.616L482.938 390.657L482.512 391.064C475.706 391.255 468.688 392.711 461.946 393.706C452.048 395.167 442.145 396.719 432.406 399.04C408.982 404.623 386.477 412.969 364.454 422.622C356.14 426.266 346.847 429.737 339.953 435.787L337.25 435.379C337.697 431.528 339.035 427.685 339.948 423.914L345.2 401.932L330.672 424.198C327.925 428.394 324.28 435.838 320.249 438.66C318.622 439.798 316.146 440.397 314.25 441.008L303.016 444.54L276.75 453.124L281.04 428.25C281.295 426.503 282.277 423.44 281.977 421.787L273.101 445.222C271.836 448.598 270.75 452.44 268.898 455.532L227.717 469.985L230.743 435.432L219.779 462.097C218.399 465.595 217.378 469.965 215.457 473.143C214.569 474.613 213.609 475.024 212.065 475.623L181.743 487.092L186.574 458.652L173.018 481.438C170.972 484.91 169.152 489.334 166.475 492.274C163.185 495.888 157.977 497.291 153.693 499.369L134.05 509.281L109.75 523.565L109.442 523L110.626 520.553L110.667 520.555Z"/>
	<path fill="#51B545" transform="scale(0.078125 0.078125)" d="M526.223 385.045C543.43 385.001 560.855 385.635 577.933 387.903C607.411 391.818 637.037 399.68 665.117 409.327C731.406 432.101 791.462 466.419 841.345 516.068L874.263 551.057C877.433 554.487 879.701 559.415 883.844 561.745L884.765 561.511L889.909 574.508L862.091 552.445C856.951 548.399 851.944 544.063 846.512 540.412C842.752 537.886 838.861 535.694 834.651 534.008C832.994 533.345 828.3 532.214 827.172 531.168C827.041 531.046 826.593 528.313 826.526 528C825.966 525.377 825.256 522.874 824.317 520.358C821.606 513.096 817.287 506.415 813.152 499.893C816.594 509.106 816.94 518.993 819.313 528.464L784.763 508.468C781.642 506.608 776.085 504.21 773.739 501.611C771.146 498.738 769.297 493.619 767.296 490.198L751.833 464.829L757.712 495.001L755.196 493.952L722.604 478.869L714.729 475.272C714.173 475.011 712.713 474.53 712.379 474.156C710.641 472.207 709.301 466.683 708.308 464.158L698.607 440.657L698.873 469.329C695.86 468.967 692.322 466.863 689.523 465.663L671.589 458.166C666.364 453.847 660.427 449.973 654.901 446.01C651.462 443.543 648.205 440.675 644.554 438.525L623.313 427.347C605.782 418.191 587.873 409.835 569.199 403.253C554.402 398.037 539.319 394.17 524.03 390.718L526.223 385.045Z"/>
	<path fill="#65D256" transform="scale(0.078125 0.078125)" d="M101.551 246.35C152.554 216.836 215.794 203.381 274.5 209.534C292.225 211.391 309.246 216.022 326.752 218.98L350.113 233.858C356.505 237.957 363.124 242.7 370.297 245.313C373.874 246.616 377.924 246.866 381.642 247.748L381.116 248.307L367.362 250.422C369.48 250.845 374.72 251.332 376.337 252.458C387.241 261.853 399.067 269.832 410.265 278.802C428.586 293.477 445.23 310.141 460.362 328.07C465.175 333.773 470.908 339.537 474.846 345.855C470.985 345.447 465.719 340.21 462.296 338.06C449.666 330.125 437.233 322.54 423.827 315.966C402.749 305.63 380.473 298.426 357.922 292.117C355.508 289.597 351.248 288.181 348.122 286.626L334.654 279.624C287.895 256.226 239.393 242.05 187 239.882C178.606 239.535 170.136 238.7 161.735 239.181C150.54 239.822 139.365 240.505 128.254 242.09L114.873 244.513C111.633 245.237 106.138 247.508 103 247C102.477 246.916 102.034 246.567 101.551 246.35Z"/>
	<path fill="#65D256" transform="scale(0.078125 0.078125)" d="M361.889 37.7469C404.47 50.9336 445.129 72.4824 479.171 101.328C500.621 119.504 519.39 140.626 532.532 165.63L540.249 180.887L540.564 181.846C542.998 189.056 546.409 195.915 548.745 203.23C555.974 225.864 558.49 250.364 558.572 274.04C546.378 288.735 534.639 303.632 524.457 319.816L514.49 336.5C512.643 339.914 511.143 344.378 508.608 347.293L506.955 332.094L508.233 330.908C509.272 325.628 508.991 319.944 509.008 314.581L507.79 279.797C504.425 232.789 492.471 182.743 468.498 141.836C452.829 115.097 432.914 92.2318 409.88 71.6197C399.59 62.4113 388.063 54.5762 376.314 47.375C371.966 44.7106 364.886 42.5094 362.195 38.2491L361.889 37.7469Z"/>
	<path fill="#65D256" transform="scale(0.078125 0.078125)" d="M283.918 360.761L323.25 353.013C350.562 348.811 379.234 348.42 406.479 353.172C423.836 356.2 440.977 361.71 457.217 368.446L474.378 375.559C478.52 377.218 483.019 378.735 486.824 381.047L482.938 390.657L482.43 390.616C481.117 390.501 479.937 390.314 478.663 389.984C475.038 389.045 471.137 388.905 467.422 388.426C454.906 386.811 442.955 385.976 430.354 385.965C417.105 385.953 403.971 386.079 390.761 387.286C376.517 388.589 362.373 391.174 348.327 393.819C316.37 399.835 283.79 407.751 253.486 419.64L230.246 430.053C218.246 435.512 206.4 441.169 195.051 447.916C180.771 456.405 166.384 466.32 154.122 477.559L125.964 504.797C122.39 508.562 119.622 512.975 115.884 516.623C114.385 518.086 112.755 520.032 110.667 520.555L110.781 520.186C114.25 510.171 120.923 499.887 126.275 490.698C144.042 460.199 166.839 432.317 194.112 409.799C213.635 393.68 235.267 380.504 258.128 369.711C263.915 368.894 270.716 365.587 275.996 363.137L283.918 360.761Z"/>
	<path fill="#65D256" transform="scale(0.078125 0.078125)" d="M526.661 382.866L527.037 382.669C534.893 379.508 543.811 377.524 552 375.371C597.4 363.434 645.891 358.917 692.25 368C704.922 370.483 716.665 374.948 728.883 378.919L729.359 379.269C734.339 382.866 740.205 385.482 745.503 388.631C754.778 394.143 763.611 400.241 772.186 406.782C813.422 438.237 846.178 480.997 869.57 527C875.199 538.07 880.824 549.73 884.765 561.511L883.844 561.745C879.701 559.415 877.433 554.487 874.263 551.057L841.345 516.068C791.462 466.419 731.406 432.101 665.117 409.327C637.037 399.68 607.411 391.818 577.933 387.903C560.855 385.635 543.43 385.001 526.223 385.045L526.661 382.866Z"/>
	<path fill="#51B545" transform="scale(0.078125 0.078125)" d="M548.044 909.284L568.97 912.772L600.57 918.817L635.472 928.812C660.345 936.372 685.402 945.086 708.635 956.815C721.75 963.436 734.105 971.319 746.289 979.495L722.975 971.264C682.334 957.66 640.535 950.767 598.508 962.326L566.611 972.525C547.868 977.703 528.377 978.691 509.04 978.601C490.836 978.516 472.642 977.374 455.007 972.507C442.993 969.192 431.261 964.598 419.111 961.805C394.78 956.21 369.655 954.605 344.75 955.138C324.485 955.572 303.646 957.466 283.753 961.414L237.848 972.551L217.722 978.89C229.711 971.438 241.75 964.025 254.306 957.55C305.742 931.025 363.965 914.725 421.571 909.41C417.311 916.408 413.045 923.418 407.994 929.886L402.488 936.44C401.575 937.454 400.181 938.596 399.696 939.87L491.253 939.371C495.969 939.926 501.352 939.436 506.13 939.456L539.881 939.6C541.078 938.777 547.171 912.603 548.044 909.284Z"/>
	<path fill="#0E6226" transform="scale(0.078125 0.078125)" d="M339.953 435.787C346.847 429.737 356.14 426.266 364.454 422.622C386.477 412.969 408.982 404.623 432.406 399.04C442.145 396.719 452.048 395.167 461.946 393.706C468.688 392.711 475.706 391.255 482.512 391.064L482.424 392.267L477.722 408.03L474.612 423.284C474.257 424.353 473.893 426.116 473.279 427.014C456.439 445.984 437.771 463.248 418.773 480.021C409.719 488.014 400.935 496.013 391.277 503.31L386.452 484.969L382.473 503.25C381.959 505.646 381.566 509.729 380.34 511.798C379.19 513.739 375.216 516.312 373.345 517.873L352.568 535.283L333.735 552.184L340.126 518.479C335.955 526.821 332.636 535.539 328.936 544.091C327.062 548.422 325.322 553.019 322.777 557.012C319.832 561.633 315.188 565.494 311.43 569.465L295.866 586.521C296.98 576.445 298.642 565.54 298.496 555.447C295.146 562.355 291.871 569.679 287.582 576.058C283.027 582.833 276.967 588.458 271.776 594.734L231.089 643.691C237.609 578.976 264.068 515.851 307.364 467.094C313.271 460.441 319.471 454.108 326.103 448.172C330.682 444.073 335.71 440.22 339.953 435.787Z"/>
	<path fill="#07A96C" transform="scale(0.078125 0.078125)" d="M268.022 287.977C278.263 286.643 288.819 285.556 299.153 285.493C311.947 285.415 324.823 286.72 337.492 288.45C344.356 289.387 350.982 291.297 357.922 292.117C380.473 298.426 402.749 305.63 423.827 315.966C437.233 322.54 449.666 330.125 462.296 338.06C465.719 340.21 470.985 345.447 474.846 345.855L493.848 368.353L486.824 381.047C483.019 378.735 478.52 377.218 474.378 375.559L457.217 368.446C440.977 361.71 423.836 356.2 406.479 353.172C379.234 348.42 350.562 348.811 323.25 353.013L283.918 360.761L275.996 363.137C270.716 365.587 263.915 368.894 258.128 369.711C253.969 369.118 247.643 371.405 243.502 372.468C231.493 375.552 219.582 378.825 207.895 382.988L226.436 352.076L203.934 374.75C201.482 377.304 199.063 380.9 196.219 382.949C194.889 383.907 192.695 384.302 191.106 384.743L181.43 387.706C172.495 390.9 163.952 395.405 155.395 399.492L169.805 371.885C162.583 379.377 154.281 386.774 145.353 392.185C135.013 398.451 122.578 402.638 111.445 407.429L75.1991 424.057C76.4748 421.137 78.9972 418.114 80.7537 415.381L93.0319 396.293C101.933 382.969 112.648 370.883 124.151 359.763C151.115 333.698 183.658 312.838 219.062 300.278C235.021 294.616 251.46 291.3 268.022 287.977ZM275.996 363.137L283.918 360.761L291.831 349.065L275.996 363.137Z"/>
	<path fill="#0E6226" transform="scale(0.078125 0.078125)" d="M326.752 218.98L309.739 207.575L309.252 207.299C313.254 206.175 318.387 206.363 322.577 206.102L345 204.606C334.773 202.882 323.369 201.231 313.594 197.776C308.844 196.097 304.31 193.346 299.879 190.95C285.388 183.113 272.128 174.303 258.595 164.966C263.977 165.335 269.69 167.085 275.097 167.867C284.174 169.181 293.257 169.038 302.402 168.926L204.226 122.596L204.675 122.585L247.584 122.764C258.182 122.835 269.093 122.409 279.644 123.389C331.358 128.193 384.386 146.921 425.065 179.624C433.876 186.709 442.083 194.612 449.931 202.733C453.524 206.451 456.824 210.521 460.573 214.073L460.904 214.382C461.212 216.152 462.684 217.836 463.663 219.334L469.563 228.291C475.551 237.369 480.687 246.839 485.127 256.769C491.562 271.161 496.973 286.041 500.837 301.335C503.415 311.542 505.022 321.767 506.955 332.094L508.608 347.293L510.052 365.733C505.049 364.517 500.512 364.229 495.903 367.003L493.848 368.353L474.846 345.855C470.908 339.537 465.175 333.773 460.362 328.07C445.23 310.141 428.586 293.477 410.265 278.802C399.067 269.832 387.241 261.853 376.337 252.458C374.72 251.332 369.48 250.845 367.362 250.422L381.116 248.307L381.642 247.748C377.924 246.866 373.874 246.616 370.297 245.313C363.124 242.7 356.505 237.957 350.113 233.858L326.752 218.98ZM381.116 248.307L367.362 250.422C369.48 250.845 374.72 251.332 376.337 252.458C385.752 252.917 395.907 250.778 405.249 249.467C397.36 247.942 389.127 248.468 381.116 248.307Z"/>
	<path fill="#0E6226" transform="scale(0.078125 0.078125)" d="M664.61 292.311L665.321 292.268C668.909 292.025 672.527 291.207 676.109 290.767C686.545 289.486 697.016 288.202 707.544 288.142C770.895 287.779 835.791 310.871 883.998 352.22C894.588 361.304 904.774 371.07 913.716 381.8C924.871 395.185 934.174 409.729 943.363 424.487L903.477 403.879C888.777 396.876 871.558 392.602 858.115 383.393C853.861 380.479 850.079 376.699 846.376 373.132C849.795 381.492 854.035 389.223 859.31 396.537C854.267 396.042 849.11 395.711 844.165 394.581C819.952 389.048 799.979 372.961 780.913 357.938C789.178 369.407 797.64 379.554 807.72 389.494C800.732 389.1 793.413 388.966 786.5 387.903C761.179 384.009 740.557 372.81 719.762 358.42L739.182 378.893L728.883 378.919C716.665 374.948 704.922 370.483 692.25 368C645.891 358.917 597.4 363.434 552 375.371C543.811 377.524 534.893 379.508 527.037 382.669L526.661 382.866C526.651 382.001 526.636 381.097 526.445 380.25C525.22 374.807 520.606 370.793 516.059 368.057C516.793 367.021 518.575 365.921 519.583 365.102L529.759 357.126L549.83 341.711C573.797 325.117 600.728 311.876 628.31 302.51L649.378 296.312C654.092 295.102 660.368 294.552 664.61 292.311Z"/>
	<path fill="#07A96C" transform="scale(0.078125 0.078125)" d="M524.03 390.718C539.319 394.17 554.402 398.037 569.199 403.253C587.873 409.835 605.782 418.191 623.313 427.347L644.554 438.525C648.205 440.675 651.462 443.543 654.901 446.01C660.427 449.973 666.364 453.847 671.589 458.166C673.215 460.043 675.611 461.78 677.472 463.473L691.805 476.796C738.657 523.53 769.673 590.406 773.953 656.537C774.37 662.983 773.888 669.486 773.729 675.936L772.955 716.273L751.827 680.649C744.742 668.998 736.77 657.361 730.846 645.101C725.764 634.585 721.991 623.594 718.084 612.61L715.365 636.398L706.66 627.843C689.526 609.204 680.222 584.813 681.041 559.57C679.523 562.066 678.638 565.359 677.696 568.138C675.155 575.632 673.259 583.082 671.781 590.846L652.931 573.592C647.181 567.729 641.788 561.327 637.89 554.068C631.271 541.739 628.372 525.194 628.481 511.312C623.966 519.871 620.745 527.389 618.234 536.754L595.067 514.282C590.106 509.223 589.054 504.558 587.492 497.854C585.288 488.398 584.427 479.007 584.521 469.31C580.59 478.803 575.954 487.692 575.307 498.131L554.308 475.062C539.897 458.371 527.398 441.148 515.613 422.538C515.581 416.211 518.113 408.177 519.866 402.059L524.03 390.718Z"/>
	<path fill="#9C4504" transform="scale(0.078125 0.078125)" d="M500.48 555.013C506.29 554.734 512 554.438 517.583 552.635L525.833 602.03L528.778 615.584L538.73 665.996L541.087 678.087L550.292 736.095L552.133 751.111L555.079 800.467C555.893 806.681 555.926 813.586 555.546 819.846L552.553 879.125L550.293 895.866L548.044 909.284C547.171 912.603 541.078 938.777 539.881 939.6L506.13 939.456C501.352 939.436 495.969 939.926 491.253 939.371L399.696 939.87C400.181 938.596 401.575 937.454 402.488 936.44L407.994 929.886C413.045 923.418 417.311 916.408 421.571 909.41L440.16 874.569L446.658 859.649L460.594 815.789L464.688 799.302C468.751 784.294 470.282 767.655 472.023 752.23C472.848 747.181 472.751 741.798 472.979 736.681L471.988 682.443L471.169 667.286L467.28 619.364C466.263 614.495 466.379 608.921 465.962 603.928L463.249 554.008C467.591 555.111 472.053 555.014 476.5 555.18C484.502 555.48 492.49 555.757 500.48 555.013Z"/>
	<path fill="#842F00" transform="scale(0.078125 0.078125)" d="M525.833 602.03L528.778 615.584C523.036 617.762 516.18 618.01 510.109 618.638L507.701 604.126L525.147 602.144L525.833 602.03Z"/>
	<path fill="#842F00" transform="scale(0.078125 0.078125)" d="M541.087 678.087C534.564 680.454 527.108 681.114 520.254 682.165L518.029 667.113L538.73 665.996L541.087 678.087Z"/>
	<path fill="#842F00" transform="scale(0.078125 0.078125)" d="M550.292 736.095L552.133 751.111L528.548 754.439L527.381 739.079L549.5 737.036L550.292 736.095Z"/>
	<path fill="#842F00" transform="scale(0.078125 0.078125)" d="M555.079 800.467C555.893 806.681 555.926 813.586 555.546 819.846C545.42 820.481 535.67 822.54 525.456 822.505L527.099 806.188C534.029 805.564 541.163 805.78 548.14 805.37C550.249 805.246 553.021 805.432 555.012 804.75L555.079 800.467Z"/>
	<path fill="#842F00" transform="scale(0.078125 0.078125)" d="M550.293 895.866C547.07 894.75 541.848 895.186 538.287 894.977C529.479 894.46 520.604 894.145 511.88 892.781C513.213 889.44 514.204 886.136 515.019 882.633C515.496 880.578 515.768 877.611 516.869 875.901L552.553 879.125L550.293 895.866Z"/>
	<path fill="#BC6B1B" transform="scale(0.078125 0.078125)" d="M463.249 554.008C467.591 555.111 472.053 555.014 476.5 555.18C484.502 555.48 492.49 555.757 500.48 555.013L507.623 604.219C493.46 605.537 480.097 604.758 465.962 603.928L463.249 554.008Z"/>
	<path fill="#BC6B1B" transform="scale(0.078125 0.078125)" d="M467.28 619.364L467.75 617.977L468.561 618.163C473.34 619.213 478.326 619.12 483.196 619.212L510.258 618.843L518.258 667.267C509.074 668.296 499.284 668.852 490.03 668.394L478.899 667.715C476.416 667.489 473.649 666.956 471.169 667.286L467.28 619.364Z"/>
	<path fill="#BC6B1B" transform="scale(0.078125 0.078125)" d="M471.988 682.443C488.099 683.856 504.102 683.597 520.217 682.367L527.096 739.097C509.064 741.206 490.91 737.849 472.979 736.681L471.988 682.443Z"/>
	<path fill="#BC6B1B" transform="scale(0.078125 0.078125)" d="M472.023 752.23C490.504 756.127 509.665 756.808 528.409 754.675C529.476 771.933 529.242 789.302 526.91 806.46C505.695 806.156 485.324 804.328 464.688 799.302C468.751 784.294 470.282 767.655 472.023 752.23Z"/>
	<path fill="#BC6B1B" transform="scale(0.078125 0.078125)" d="M460.594 815.789C481.658 820.564 503.475 823.524 525.115 822.519C523.953 840.321 521.167 858.458 516.677 875.717C495.538 873.564 473.852 868.971 453.745 862.055C451.529 861.293 448.674 860.729 446.658 859.649L460.594 815.789Z"/>
	<path fill="#BC6B1B" transform="scale(0.078125 0.078125)" d="M421.571 909.41L440.16 874.569L454 879.497C466.869 883.723 479.847 887.566 493.152 890.141C499.343 891.34 505.169 892.551 511.505 892.567C509.988 898.123 507.371 902.58 504.546 907.563C500.573 914.569 496.441 921.358 491.631 927.833L482.391 939.198C485.288 939.215 488.388 939.032 491.253 939.371L399.696 939.87C400.181 938.596 401.575 937.454 402.488 936.44L407.994 929.886C413.045 923.418 417.311 916.408 421.571 909.41Z"/>
	<path fill="#07A96C" transform="scale(0.078125 0.078125)" d="M540.249 180.887C549.18 168.895 558.307 157.255 568.75 146.522C601.113 113.258 644.009 87.987 687.612 72.6422C696.986 69.3437 706.666 66.7014 716.286 64.225C723.132 62.4628 730.304 60.8993 736.896 58.3577C731.103 66.0987 724.82 73.2362 718.242 80.3185C707.725 91.6421 696.012 102.714 682.127 109.804C673.239 114.343 663.44 117.282 653.767 119.597C666.185 120.745 676.458 120.504 688.451 116.512C684.249 124.192 680.008 132.039 674.29 138.72C666.073 148.32 654.516 154.996 642.462 158.498C635.407 160.547 628.797 161.622 621.431 161.639C634.19 164.597 648.718 164.326 661.605 162.037C653.769 176.087 641.573 189.763 628.238 198.754C620.531 203.951 612.062 207.692 603.695 211.659L584.43 221.086L618.764 213.673C624.745 212.304 631.729 210.042 637.805 209.712L633.551 215.849C652.483 206.932 671.476 199.878 691.934 195.222C736.383 185.106 785.677 187.982 828.599 203.445L859.009 216.568C856.804 217.63 853.964 218.095 851.589 218.662L838.072 221.758C819.042 226.088 800.462 231.113 780.959 232.966C774.01 233.626 767.221 234.215 760.265 233.327C771.071 237.9 780.986 241.831 792.643 243.623L772.904 253.999C765.985 257.626 759.071 261.473 751.25 262.586L750.416 262.711C733.935 265.059 716.598 258.817 701.816 252.088C710.603 260.593 719.104 266.96 730.524 271.524L697.629 282.493C689.213 285.077 679.684 289.159 670.723 288.295C661.562 287.411 652.728 284.519 644.045 281.605C643.223 281.329 640.912 280.221 640.529 280.893L664.61 292.311C660.368 294.552 654.092 295.102 649.378 296.312L628.31 302.51C600.728 311.876 573.797 325.117 549.83 341.711L529.759 357.126L519.583 365.102C518.575 365.921 516.793 367.021 516.059 368.057L510.052 365.733L508.608 347.293C511.143 344.378 512.643 339.914 514.49 336.5L524.457 319.816C534.639 303.632 546.378 288.735 558.572 274.04C558.49 250.364 555.974 225.864 548.745 203.23C546.409 195.915 542.998 189.056 540.564 181.846L540.249 180.887Z"/>
</svg>
