<?xml version="1.0" encoding="UTF-8" standalone="no"?>
<!DOCTYPE svg PUBLIC "-//W3C//DTD SVG 1.1//EN" "http://www.w3.org/Graphics/SVG/1.1/DTD/svg11.dtd">
<svg width="100%" height="100%" viewBox="0 0 80 160" version="1.1" xmlns="http://www.w3.org/2000/svg" xmlns:xlink="http://www.w3.org/1999/xlink" xml:space="preserve" xmlns:serif="http://www.serif.com/" style="fill-rule:evenodd;clip-rule:evenodd;stroke-linejoin:round;stroke-miterlimit:2;">
    <g transform="matrix(0.2,0,0,0.2,1.90735e-06,0)">
        <path d="M163.503,419.699C165.818,419.313 168.642,419.542 171.003,419.521L189.258,419.764C209.049,420.351 229.014,420.857 248.553,424.327C259.858,426.335 271.373,429.372 281.662,434.565C291.821,439.693 300.983,447.22 306.684,457.192C308.991,461.227 310.486,465.475 311.932,469.866C311.308,470.225 309.923,470.078 309.188,470.094L301.449,470.262C275.071,470.993 248.373,471.866 222.012,470.327C220.856,467.814 219.379,465.017 217.552,462.937C211.871,456.465 204.121,451.671 195.371,451.109C192.233,450.907 188.838,451.737 186.475,453.862C184.533,455.609 183.856,457.468 183.722,460.038C182.65,480.685 232.084,487.733 247.163,491.217C257.021,493.495 267.12,496.049 276.566,499.691C286.538,503.536 295.775,509.008 302.92,517.058C311.564,526.798 317.817,540.679 316.937,553.905C316.326,563.103 311.767,571.412 304.882,577.398C285.179,594.531 253.124,595.895 228.301,596.037L198.925,595.366C181.112,594.146 163.577,593.096 146.094,589.116C134.245,586.419 122.434,582.401 112.463,575.283C96.39,563.81 88.377,542.205 85.313,523.476L180.805,522.892L181.413,535.326C182.329,543.057 184.741,551.802 191.165,556.754C195.741,560.283 201.517,561.167 207.155,560.403C212.526,559.676 217.083,557.759 221.62,554.832C223.121,553.863 224.856,552.777 225.942,551.338C227.541,549.217 228.345,547.728 228.207,545.015C227.956,540.083 223.976,535.452 220.525,532.248C217.039,529.012 213.293,526.025 209.054,523.833C202.512,520.453 195.504,518.6 188.381,516.911C185.76,516.289 183.162,515.31 180.531,514.812C177.519,514.243 174.438,514.147 171.405,513.711C150.018,510.641 127.955,509.672 107.265,503.039C100.551,500.886 94.014,498.473 88.711,493.692C80.891,486.642 75.838,475.88 75.381,465.362C74.996,456.518 78.461,447.389 84.456,440.899C92.284,432.427 103.159,428.495 114.062,425.702C130.218,421.562 146.904,420.35 163.503,419.699Z" style="fill:rgb(39,49,52);fill-rule:nonzero;stroke:rgb(38,47,52);stroke-width:10px;"/>
    </g>
    <g transform="matrix(0.2,0,0,0.2,1.90735e-06,0)">
        <path d="M169.916,426.758C201.015,426.548 234.112,426.042 264.189,434.957C273.504,437.718 283.145,441.594 290.902,447.559C295.549,451.132 299.904,455.305 303.017,460.307C303.501,461.085 304.37,462.225 304.487,463.128L223.814,463.611C222.53,461.064 220.884,458.603 219.041,456.425C214.041,450.518 205.921,444.884 198,444.241C193.362,443.865 188.502,444.476 184.864,447.646C181.502,450.575 180.231,454.634 179.98,458.966C178.382,486.524 220.155,492.527 239.704,496.676C249.715,498.801 259.817,500.942 269.531,504.21C281.605,508.27 293.152,514.262 301.663,523.948C308.089,531.262 313.789,541.954 313.065,551.958C312.497,559.806 309.08,566.34 303.186,571.489C278.996,592.619 219.844,589.888 188.967,587.778C170.837,586.521 152.285,584.656 134.961,578.891C128.966,576.896 122.683,574.493 117.283,571.186C103.251,562.592 94.231,545.752 90.504,530.182L177.265,529.793C177.929,540.62 178.994,552.662 187.041,560.785C191.592,565.379 197.31,567.617 203.773,567.613C211.564,567.609 221.544,563.97 227.078,558.338C230.283,555.076 231.997,550.51 231.914,545.934C231.768,537.825 227.854,531.041 222.001,525.649C210.348,514.914 196.468,511.269 181.272,508.424L146.745,503.515C133.467,501.863 120.181,499.984 107.383,495.945C100.974,493.923 94.845,491.846 89.918,487.063C84.277,481.586 78.945,472.349 78.955,464.26C78.964,457.369 82.635,450.687 87.41,445.911C104.53,428.787 146.79,426.823 169.916,426.758Z" style="fill:rgb(39,159,69);fill-rule:nonzero;"/>
    </g>
    <g transform="matrix(0.2,0,0,0.2,1.90735e-06,0)">
        <path d="M89.612,10.992C117.78,9.7 146.238,12.005 174.396,12.832C197.459,13.51 220.838,12.096 243.738,15.662C257.634,17.825 272.058,21.053 283.751,29.205C295.65,37.5 305.263,49.156 307.775,63.688C309.934,76.18 306.298,90.574 299.034,100.855C284.633,121.238 258.068,128.894 234.674,132.863C225.922,134.042 217.259,134.939 208.428,135.235C204.323,135.372 200.183,135.648 196.095,135.151L196.029,205.229L127.888,205.134L103.519,205.163C98.717,205.175 93.769,204.938 88.998,205.436L89.612,10.992ZM95.062,17.779L93.555,17.901C92.447,20.039 92.57,182.257 92.549,198.199L192.173,198.357L192.682,128.417L229.386,126.507C252.954,122.981 280.931,116.538 295.951,96.289C302.27,87.769 305.763,77.59 304.211,66.945C302.384,54.41 293.917,44.01 283.942,36.72C273.935,29.407 261.074,25.583 249.023,23.457C224.899,19.199 199.545,20.326 175.111,19.628C148.509,18.868 121.668,17.004 95.062,17.779Z" style="fill:rgb(39,49,52);fill-rule:nonzero;stroke:rgb(38,47,52);stroke-width:15px;stroke-linejoin:miter;"/>
    </g>
    <g transform="matrix(0.2,0,0,0.2,1.90735e-06,0)">
        <path d="M95.062,17.779C121.668,17.004 148.509,18.868 175.111,19.628C199.545,20.326 224.899,19.199 249.023,23.457C261.074,25.583 273.935,29.407 283.942,36.72C293.917,44.01 302.384,54.41 304.211,66.945C305.763,77.59 302.27,87.769 295.951,96.289C280.931,116.538 252.954,122.981 229.386,126.507L192.682,128.417L192.173,198.357L92.549,198.199C92.57,182.257 92.447,20.039 93.555,17.901L95.062,17.779ZM193.319,39.987L192.96,98.126C201.834,96.57 210.845,94.54 218.154,88.983C223.536,83.909 227.17,77.937 227.389,70.307C227.61,62.585 225.08,55.749 219.73,50.132C212.331,42.366 203.562,40.691 193.319,39.987Z" style="fill:rgb(39,159,69);fill-rule:nonzero;"/>
    </g>
    <g transform="matrix(0.2,0,0,0.2,1.90735e-06,0)">
        <path d="M193.319,39.987C203.562,40.691 212.331,42.366 219.73,50.132C225.08,55.749 227.61,62.585 227.389,70.307C227.17,77.937 223.536,83.909 218.154,88.983C210.845,94.54 201.834,96.57 192.96,98.126L193.319,39.987ZM196.848,47.147L196.489,90.431C203.928,88.743 209.797,87.08 216.185,82.857C220.367,79.427 223.305,75.151 223.772,69.617C224.126,65.414 221.712,60.651 219.032,57.578C214.998,52.952 210.402,49.822 204.399,48.387C201.911,47.792 199.358,47.609 196.848,47.147Z" style="fill:rgb(39,49,52);fill-rule:nonzero;stroke:rgb(38,47,52);stroke-width:7.5px;"/>
    </g>
    <g transform="matrix(0.2,0,0,0.2,1.90735e-06,0)">
        <path d="M265.462,222.07L315.594,221.706C315.111,225.293 315.246,229.098 315.212,232.714L315.162,250.973L317.3,334.692C317.722,352.41 317.074,370.289 304.084,383.809C281.598,407.211 243.733,410.903 213.02,411.576C188.671,412.11 162.106,408.347 139.143,400.074C135.106,398.619 131.06,397.325 127.234,395.356C122.227,392.779 117.655,389.541 113.607,385.621C92.319,365.002 90.561,332.006 90.179,304.167L94.233,223.246L183.954,222.749L183.353,270.628L183.091,307.834C183.146,326.649 180.836,359.91 194.577,374.503C197.889,378.02 200.955,379.911 205.9,380.004C208.643,380.056 210.893,378.926 212.815,377.008C216.86,372.971 218.283,366.241 219.29,360.784C220.852,352.323 220.981,343.416 221.434,334.831L221.794,278.039L219.947,222.381L265.462,222.07Z" style="fill:rgb(39,49,52);fill-rule:nonzero;stroke:rgb(38,47,52);stroke-width:12.5px;"/>
    </g>
    <g transform="matrix(0.2,0,0,0.2,1.90735e-06,0)">
        <path d="M304.308,228.711L311.731,228.641L313.469,350.125C312.534,363.364 307.799,373.569 297.673,382.288C287.003,391.474 272.874,396.227 259.375,399.323C238.088,404.206 215.505,405.798 193.75,404.104C184.101,403.352 174.567,401.793 165.08,399.917C145.915,396.126 124.025,390.307 110.834,374.838C103.686,366.456 100.25,356.002 97.896,345.405C91.428,316.292 93.302,285.164 95.615,255.651L97.681,230.182L180.127,229.579L179.016,305.983C178.844,325.385 178.735,346.539 184.578,365.21C186.429,371.125 188.945,377.109 193.366,381.574C196.525,384.766 200.829,387.148 205.423,387.118C209.193,387.093 212.233,385.488 214.796,382.81C219.637,377.753 221.465,369.99 222.68,363.29C224.149,355.186 224.309,346.832 224.799,338.629C226.978,302.199 224.552,265.664 223.828,229.224L304.308,228.711Z" style="fill:rgb(39,159,69);fill-rule:nonzero;"/>
    </g>
    <g transform="matrix(0.2,0,0,0.2,1.90735e-06,0)">
        <path d="M76.967,600.902L181.041,601.335L180.863,662.216C192.959,664.395 206.217,664.027 218.476,663.779L217.943,601.614L329.039,602.06L326.245,787.488L315.43,787.147L219.499,786.487L219.032,712.071L180.761,711.792L180.555,786.292C176.422,785.748 172.069,786.007 167.9,785.987L145.7,785.849L73.886,785.222L76.967,600.902Z" style="fill:rgb(39,49,52);fill-rule:nonzero;stroke:rgb(38,47,52);stroke-width:15px;stroke-linecap:square;stroke-linejoin:miter;"/>
    </g>
    <g transform="matrix(0.2,0,0,0.2,1.90735e-06,0)">
        <path d="M80.282,607.848L177.326,608.279L177.258,668.424C192.336,670.743 206.905,670.834 222.126,670.74L221.624,608.551L325.201,609.052L322.721,780.385L310.677,780.273L223.07,779.591L222.474,704.996L177.099,704.597L176.957,779.205L77.389,778.148L80.282,607.848Z" style="fill:rgb(39,159,69);fill-rule:nonzero;"/>
    </g>
</svg>
