<?xml version="1.0" encoding="utf-8" ?>
<svg xmlns="http://www.w3.org/2000/svg" xmlns:xlink="http://www.w3.org/1999/xlink" width="400" height="800">
	<path fill="#269F44" d="M172.564 418.796C173.866 419.5 175.443 419.28 176.887 419.306L186.896 419.504L207.422 420.255L231.445 421.861C248.83 423.616 267.464 426.86 283.026 435.172C297.804 443.066 307.127 453.848 312.011 469.913L235.35 470.807L225.956 470.615C224.95 470.578 223.279 470.701 222.362 470.313C221.383 469.898 218.935 464.859 218.044 463.682C216.269 461.339 213.65 458.834 211.222 457.194C205.997 453.663 198.576 450.123 192.063 451.426C189.324 451.973 186.54 453.188 184.994 455.656C183.617 457.852 183.582 460.76 184.18 463.231C188.81 482.395 235.877 488.276 252.312 492.317C264.621 495.344 277.526 498.783 288.524 505.243C301.673 512.966 312.026 525.724 315.808 540.653C318.232 550.222 317.381 560.257 312.317 568.807C304.862 581.394 289.559 588.024 275.984 591.429C268.091 593.408 259.795 594.459 251.695 595.129C234.286 596.569 216.234 596.343 198.773 595.46C195.973 595.318 190.868 595.681 188.477 594.269C188.184 594.451 187.866 594.605 187.521 594.655C186.289 594.834 184.661 594.511 183.409 594.413L175.031 593.668C153.77 591.574 129.222 587.911 111.675 574.889C96.172 563.383 88.0202 541.817 85.2714 523.427C88.8347 522.982 92.5504 523.11 96.1412 523.086L113.031 522.983L143.638 522.68L180.859 522.584C180.771 531.851 181.505 542.116 185.931 550.452C188.178 554.683 192.273 558.288 196.908 559.631C203.824 561.635 211.564 560.273 217.798 556.89C221.33 554.974 226.913 551.832 227.994 547.727C228.657 545.209 227.79 542.105 226.572 539.894C224.714 536.521 222.089 533.827 219.264 531.246C210.026 522.805 199.476 519.634 187.583 516.817C184.741 516.143 181.934 515.127 179.058 514.624C176.19 514.122 173.206 513.998 170.309 513.609L137.785 509.538C127.996 508.234 118.496 506.325 108.998 503.608C96.4658 500.024 86.9435 495.014 80.4346 483.249C75.6498 474.6 73.8524 464.105 76.6464 454.523C83.0397 432.599 106.852 426.306 126.743 422.989C134.963 421.619 143.412 420.433 151.746 420.1L165.416 419.545C167.289 419.502 170.793 419.867 172.383 418.917L172.564 418.796Z"/>
	<path fill="#269F44" d="M95.8828 10.7572C104.103 9.97737 112.886 10.7135 121.161 10.8986L175.977 12.7745C199.483 13.6772 223.158 11.9363 246.484 15.983C260.295 18.379 273.723 21.7352 285.176 30.1193C296.668 38.5322 305.993 50.1353 308.082 64.5321C309.958 77.4646 305.904 92.0907 298.026 102.44C281.864 123.669 252.89 130.444 227.826 133.83C226.011 134.342 223.496 134.272 221.585 134.447C213.101 135.225 204.58 135.617 196.059 135.464L196.007 205.171C193.771 205.971 189.192 205.334 186.669 205.323L162.054 205.251L89.0196 205.479L89.3775 11.0014L95.8828 10.7572ZM196.917 47.2598L196.611 90.3102C203.888 88.6541 209.91 86.8605 216.207 82.6831C220.265 78.9623 223.324 75.2905 223.596 69.519C223.819 64.7996 221.512 60.3706 218.359 57.0044C215.057 53.4797 211.511 50.6409 206.836 49.1601C203.556 48.1212 200.275 47.8622 196.917 47.2598Z"/>
	<path fill="#269F44" d="M305.837 221.68L315.641 221.445L317.322 348.478C316.867 363.248 312.642 376.217 301.666 386.436C281.751 404.977 251.135 409.79 224.936 411.18C217.095 411.596 209.219 411.926 201.367 411.643C182.253 410.955 162.348 407.447 144.101 401.783C138.702 400.107 133.033 398.367 127.975 395.839C121.648 392.677 116.285 388.724 111.48 383.542C95.4408 366.244 92.0529 342.588 90.6672 320.006C89.5188 301.293 90.4004 282.682 91.1315 263.971L94.1843 223.093L183.967 222.468L183.326 275.568L183.087 307.513C183.095 318.68 183.017 329.731 183.944 340.87C184.907 352.426 186.667 365.942 194.951 374.805C197.805 377.859 201.401 379.899 205.653 379.979C208.617 380.034 210.831 378.773 212.89 376.733C216.748 372.913 218.298 366.087 219.22 360.898C220.942 351.205 221.018 340.842 221.425 331.003L221.742 280.75L219.917 222.181L305.837 221.68Z"/>
	<path fill="#269F44" d="M77.06 600.439C79.6357 601.639 100.2 600.952 104.378 600.966L181.042 601.155L180.972 662.023C192.997 664.274 206.008 663.929 218.212 663.6C218.616 662.28 218.31 660.289 218.283 658.87L218.171 648.315L217.949 601.623C218.363 601.34 318.784 601.979 329.017 601.989L326.49 787.552C323.529 787.514 317.003 788.219 314.65 786.579C314.174 786.923 313.636 787.229 313.036 787.266C310.319 787.432 307.349 787.13 304.604 787.102L285.789 786.971L219.381 786.604L219.071 712.048L180.872 712.025L180.892 786.012L73.6206 785.451L74.2653 738.081L75.9052 651.023L76.3153 615.386C76.3875 610.933 75.6551 604.646 77.06 600.439Z"/>
</svg>
