<?xml version="1.0" encoding="utf-8" ?>
<svg xmlns="http://www.w3.org/2000/svg" xmlns:xlink="http://www.w3.org/1999/xlink" width="200" height="100">
	<path fill="#273034" transform="matrix(0.1 0 0 0.1 0 -7.62939e-06)" d="M1067.21 911.621C1071.02 911.502 1074.76 914.624 1077.89 916.552C1084.96 920.916 1091.84 925.259 1099.33 928.903C1110.41 934.299 1122.94 938.783 1135.06 941.011C1147.92 943.373 1161.47 944.319 1174.51 945.402L1256.06 948.423L1281.07 948.088C1285.86 947.906 1291.17 947.117 1295.9 947.418C1298.01 947.552 1299.52 948.866 1300.72 950.492C1302.87 953.411 1302.79 958.061 1302.15 961.461C1301.43 965.234 1300.6 968.039 1297.36 970.313C1282.13 973.096 1264.87 971.963 1249.45 971.755C1218.93 971.343 1187.61 970.727 1157.28 967.081C1129.26 963.713 1101.38 957.164 1077.56 941.366C1072.64 938.1 1066.46 933.999 1062.88 929.261C1061.2 927.033 1061.59 922.35 1062 919.761C1062.65 915.584 1063.91 914.018 1067.21 911.621Z"/>
	<path fill="#273034" transform="matrix(0.1 0 0 0.1 0 -7.62939e-06)" d="M67.8473 704.59L70.3274 703.956C72.6542 704.823 73.5269 705.621 74.5112 707.989C80.2507 721.799 65.6678 730.314 61.2947 741.699C58.007 750.259 59.4746 758.838 63.1321 766.965C67.5405 776.761 74.3866 785.408 81.3762 793.475C93.8891 807.916 107.452 817.617 125.116 824.893C157.859 838.38 194.744 840.399 225.597 858.742C243.06 869.123 251.276 884.064 265.137 897.745C272.693 905.204 283.237 910.414 292.451 915.567C311.328 926.124 330.084 935.922 350.303 943.674C352.994 946.555 354.098 949.246 354.294 953.201C354.526 957.856 353.177 961.374 350.098 964.802L348.083 965.664C341.498 964.651 334.318 960.852 328.176 958.108C310.467 950.197 293.181 941.103 276.865 930.602C271.681 927.264 265.573 923.968 260.992 919.846C245.415 905.831 236.131 887.914 216.761 877.57C207.462 872.604 196.528 869.506 186.45 866.508C146.815 854.719 107.365 849.07 77.5912 817.179C59.7495 798.07 46.7699 773.774 47.8671 747.07C48.5175 731.24 56.1761 715.251 67.8473 704.59Z"/>
	<path fill="#273034" transform="matrix(0.1 0 0 0.1 0 -7.62939e-06)" d="M427.039 920.41L429.247 919.793C433.835 921.431 435.897 927.723 439.132 931.461C442.335 935.161 446.114 938.247 450.175 940.957C475.011 957.532 511.438 962.932 540.586 965.828L599.85 970.156C608.08 970.56 616.522 971.569 624.745 971.392C648.394 970.885 672.641 966.608 695.81 962.183L745.117 952.204C768.307 946.68 790.797 938.506 814.253 933.924L844.369 929.449C850.362 928.677 856.383 926.476 861.847 930.145C863.17 931.896 864.068 933.455 864.256 935.694C864.701 940.982 864.342 945.184 860.84 949.278C856.338 952.651 845.033 952.249 839.355 953.018L809.209 958.071C790.028 961.938 771.335 968.43 752.362 973.273C721.259 981.213 688.886 987.466 657.042 991.673C625.473 995.845 596.078 993.684 564.556 991.027C535.999 988.62 506.883 985.231 479.309 977.206C465.257 973.117 451.117 967.95 439.453 958.879C431.253 952.501 425.373 944.446 424.165 933.953C423.54 928.525 423.666 924.74 427.039 920.41Z"/>
	<path fill="#273034" transform="matrix(0.1 0 0 0.1 0 -7.62939e-06)" d="M912.75 136.13C930.845 134.812 948.415 135.459 966.265 138.846C973.686 140.255 981.573 141.868 987.984 146.075C990.033 147.419 991.897 149.145 993.614 150.886C1012.56 170.104 999.213 205.451 992.804 227.625L982.916 261.488C981.843 264.711 976.992 273.885 977.227 276.306C977.29 276.95 979.083 279.247 979.536 279.941L986.974 291.69C990.95 298.426 994.449 305.522 997.559 312.695C1006.03 332.233 1011.05 354.091 1015.3 374.906L1085.19 386.009C1091.08 386.914 1097.99 385.974 1103.4 388.594L1106.93 390.354C1138.53 389.217 1169.66 384.43 1201.11 381.685C1210.67 380.851 1220.21 379.986 1229.81 379.929C1238.51 379.877 1248.04 380.795 1256.63 379.497C1267.3 377.885 1277.75 372.692 1286.74 366.945C1310.75 351.603 1330.39 328.626 1347.46 306.078L1366.78 278.622L1379.89 257.863C1382.29 253.867 1384.69 248.468 1388.03 245.297C1400.06 233.895 1418.68 226.772 1434.38 222.29C1437.35 221.44 1444.72 220.456 1447 218.844C1448.91 217.494 1451.16 213.186 1452.53 211.194C1456.37 205.61 1460.21 200.389 1465.52 196.104C1480.38 184.112 1502.79 190.292 1517.72 198.835C1520.76 200.576 1525.01 204.964 1528.01 205.939C1530.14 206.631 1534.49 206.259 1536.9 206.366L1558.02 207.744C1618.6 213.848 1673.66 247.259 1720.03 284.779C1733.57 295.729 1746.97 306.646 1758.92 319.352C1765.97 326.837 1772.61 334.716 1778.62 343.061L1787.73 356.91C1788.7 358.448 1790.15 361.57 1791.4 362.638C1792.29 363.391 1795.61 364.143 1796.82 364.596C1802.59 366.752 1810.83 369.575 1814.72 374.558C1821.61 383.413 1818.38 398.126 1812.97 406.787C1811.93 408.465 1808.2 412.293 1807.8 413.854C1807.24 416.033 1808.33 421.102 1808.38 423.573C1808.49 428.641 1807.96 433.903 1807.34 438.935C1805.29 455.47 1796.56 473.232 1791.18 489.121C1785.26 506.626 1780.79 523.868 1776.99 541.931L1762.36 605.487C1758.37 626.401 1758.18 648.757 1750.22 668.713C1742.99 686.856 1727.06 701.01 1713.51 714.73C1683.68 744.924 1651.7 774.582 1615.48 797.028L1549.16 834.468C1540.51 839.258 1530.77 843.759 1522.64 849.33C1519.41 851.55 1518.13 855.881 1514.65 858.521C1510.25 861.854 1504.3 863.679 1499.17 865.708C1484.78 871.405 1469.95 875.767 1454.9 879.647C1431.73 885.62 1408.11 889.853 1384.52 893.713C1341 900.831 1296.27 905.255 1252.13 903.317C1212.03 901.555 1171.36 895.492 1131.6 890.081L950.278 867.782C928.794 865.975 908.038 863.808 886.412 864.43C790.117 867.202 698.454 901.861 602.894 910.419C574.313 912.979 545.725 913.166 517.348 908.55L494.986 903.791C491.707 902.995 487.334 901.311 483.983 901.311C477.141 901.311 468.074 904.486 461.268 905.862C441.097 909.94 414.7 911.299 395.564 902.459C388.117 899.019 381.189 893.817 378.402 885.824C375.432 877.302 377.473 868.862 381.127 860.968C349.699 849.324 317.704 842.57 284.406 839.075L242.767 836.266C233.063 835.945 222.874 836.268 213.293 834.809C197.941 832.471 181.305 826.698 167.561 819.518C144.942 807.702 124.307 787.709 110.694 766.226C106.671 759.878 102.37 752.518 100.209 745.298C95.0765 728.147 98.1483 709.697 106.531 694.121C108.043 691.313 110.179 686.851 112.589 684.827C124.644 674.703 143.494 667.79 158.13 662.039L236.533 634.903C234.539 633.351 229.71 632.689 227.177 631.837C222.309 630.202 217.104 627.528 213.066 624.373C208.231 620.596 204.912 613.957 204.254 607.91C203.597 601.874 204.565 594.622 208.496 589.77C215.167 581.537 225.806 577.578 235.33 573.682C261.764 562.867 287.02 558.18 315.073 553.735C335.352 550.522 355.617 547.601 376.169 546.971L407.61 547.392C411.165 547.573 418.447 549.001 421.687 548.187C423.187 547.81 428.565 542.241 430.025 540.967L485.502 489.843C494.459 481.973 503.724 474.364 513.435 467.437C528.159 456.934 544.55 448.427 560.639 440.208C645.018 397.105 737.354 377.006 831.094 368.023C835.685 342.221 842.959 320.136 855.276 296.956C859.555 288.902 864.341 281.157 869.301 273.508C870.154 272.193 874.967 265.616 874.936 264.932C874.873 263.523 872.233 259.332 871.55 257.863L863.614 238.672C858.548 225.472 853.553 211.551 851.67 197.472C849.876 184.057 850.044 167.541 858.787 156.36C871.58 140.002 893.598 138.243 912.75 136.13ZM1019.46 398.781L1021 409.803L1045.58 404.491L1049.04 403.809C1039.57 401.082 1029.22 400.251 1019.46 398.781Z"/>
	<path fill="#FEFEFF" transform="matrix(0.1 0 0 0.1 0 -7.62939e-06)" d="M917.5 158.609C934.836 156.131 955.02 159.299 971.907 163.149C964.315 166.714 951.9 166.736 943.604 167.063C924.329 167.825 904.139 167.635 885.189 163.727C895.872 160.765 906.472 159.5 917.5 158.609Z"/>
	<path fill="#FEFEFF" transform="matrix(0.1 0 0 0.1 0 -7.62939e-06)" d="M1076.71 424.238C1094.91 423.169 1110.93 426.213 1127.78 432.815C1106.52 439.095 1083.36 440.264 1061.35 441.581C1042.95 443.819 1025.15 441.517 1007.25 437.477C1029.46 428.875 1053.1 425.894 1076.71 424.238Z"/>
	<path fill="#FEFEFF" transform="matrix(0.1 0 0 0.1 0 -7.62939e-06)" d="M846.047 475.97C890.25 483.512 935.262 485.907 979.799 480.165L982.831 490.813C964.434 495.506 944.505 496.047 925.622 496.037C899.65 496.024 874.248 494.695 848.878 488.682L846.047 475.97Z"/>
	<path fill="#3993CD" transform="matrix(0.1 0 0 0.1 0 -7.62939e-06)" d="M993.185 480.471C1037.28 498.395 1085.82 495.747 1129.88 479.074C1122.16 494.576 1111.61 506.279 1094.8 511.974C1071.15 519.987 1039.35 514.282 1017.36 503.409C1007.1 498.339 998.308 490.818 993.185 480.471Z"/>
	<path fill="#3993CD" transform="matrix(0.1 0 0 0.1 0 -7.62939e-06)" d="M842.866 452.379C856.178 455.387 869.61 456.738 883.164 458.122C915.177 461.391 945.745 461.719 977.68 457.139L978.306 443.98C978.385 456.23 977.847 468.001 979.799 480.165C935.262 485.907 890.25 483.512 846.047 475.97L842.866 452.379Z"/>
	<path fill="#FEFEFF" transform="matrix(0.1 0 0 0.1 0 -7.62939e-06)" d="M993.185 480.471C988.73 471.589 989.092 462.355 989.094 452.709L991.735 454.124C1019.79 468.271 1052.34 465.669 1082.64 462.67C1101.33 460.818 1119.47 458.628 1137.41 452.767C1136.4 461.9 1133.24 470.582 1129.88 479.074C1085.82 495.747 1037.28 498.395 993.185 480.471Z"/>
	<path fill="#E1D5B8" transform="matrix(0.1 0 0 0.1 0 -7.62939e-06)" d="M369.848 569.757C377.012 568.677 385.268 569.297 392.57 569.143C363.746 587.32 332.642 602.165 300.804 614.222C295.89 616.083 289.492 619.347 284.316 620.018C281.012 620.447 276.048 618.919 272.738 618.328L248.181 614.008C238.083 612.082 229.16 609.234 219.895 604.745C225.279 600.763 232.76 597.862 238.929 595.257C260.005 586.359 281.396 581.853 303.807 577.948C325.832 574.109 347.547 571.224 369.848 569.757Z"/>
	<path fill="#E1D5B8" transform="matrix(0.1 0 0 0.1 0 -7.62939e-06)" d="M1630.22 536.621L1631.29 537.405C1626.17 547.884 1618.03 556.696 1612.46 566.885C1610.43 570.616 1609.92 576.404 1611.25 580.463C1612.18 583.334 1613.61 584.657 1616.21 585.96C1617.14 585.719 1617.91 585.38 1618.65 584.743C1621.38 582.405 1624.05 576.918 1626.1 573.796C1632.6 563.866 1644.18 549.873 1645.63 538.056L1645.75 537.109L1647.46 536.071L1656.95 538.939L1642.07 570.893C1640.57 574.669 1640.29 580.372 1642 584.141C1643.3 586.985 1644.09 587.523 1646.97 588.616L1648.12 587.907C1650.92 585.842 1652.61 580.714 1654.13 577.607C1659.68 566.29 1665.94 554.993 1668.33 542.512L1678.59 547.243L1675.52 563.426C1675.07 567.623 1675.57 571.021 1678.22 574.348C1680.59 575.47 1680.52 575.557 1682.98 574.707C1686.38 570.297 1686.89 563.406 1688.66 558.105L1689.94 557.851C1697.62 572.654 1663.36 633.657 1657.3 651.567C1651.05 669.984 1647.09 689.586 1642.52 708.496L1640.43 716.141C1636.06 731.554 1629.86 745.889 1622.49 760.074C1620.45 763.996 1617.95 769.781 1614.75 772.807C1611.39 775.982 1606.13 778.364 1602.11 780.7L1574.12 796.485L1557.47 791.045C1542.53 784.932 1523.15 772.249 1516.96 756.565C1510.76 740.868 1516.91 720.199 1523.25 705.414C1535.41 677.085 1554.58 652.777 1569.58 626.044L1595.45 576.523C1599.68 568.523 1603.92 559.443 1609.42 552.273C1615.16 544.794 1621.48 540.116 1630.22 536.621Z"/>
	<path fill="#FEFEFF" transform="matrix(0.1 0 0 0.1 0 -7.62939e-06)" d="M842.866 452.379C840.779 423.042 838.109 390.685 844.345 361.744C849.892 335.997 862.83 312.189 877.162 290.343L893.021 267.504C893.27 267.159 893.846 266.887 893.768 266.469C893.636 265.756 891.912 263.575 891.466 262.862L884.565 251.345C876.696 237.256 870.654 221.509 866.355 205.983C864.189 198.158 862.118 191.295 862.32 183.105C862.461 182.856 863.4 181.043 863.505 181.003C864.063 180.788 871.374 183.032 872.548 183.327C880.517 185.326 888.621 186.817 896.777 187.798C929.086 191.688 961.969 192.714 992.046 178.755C990.293 191.961 986.131 204.908 982.441 217.684C976.482 238.316 971.649 257.424 960.284 275.931C959.668 276.935 958.079 277.812 958.425 278.938C959.149 281.288 964.112 286.24 965.75 288.439C970.492 294.802 974.963 301.468 979.008 308.297C997.614 339.714 1004.66 377.854 1009.79 413.544L979.548 427.399C978.236 432.479 978.548 438.704 978.306 443.98L977.68 457.139C945.745 461.719 915.177 461.391 883.164 458.122C869.61 456.738 856.178 455.387 842.866 452.379Z"/>
	<path fill="#E1D5B8" transform="matrix(0.1 0 0 0.1 0 -7.62939e-06)" d="M1483.2 212.124C1489.24 211.812 1495.76 213.034 1501.46 215.018C1510.05 218.005 1523.47 224.898 1529.19 231.986C1531.59 234.955 1533.12 239.243 1534.79 242.678C1536.19 245.554 1537.45 247.846 1540.53 248.896L1543.46 246.917C1546.47 241.026 1545.82 236.669 1545.09 230.372C1547.08 229.951 1549.35 230.378 1551.36 230.544C1574.36 232.448 1596.93 237.203 1618.45 245.668C1634.18 251.859 1648.37 260.266 1662.77 269.009C1701.17 292.317 1737.88 320.594 1766.98 354.98L1762.72 358.887C1760.44 363.908 1760.2 369.363 1762.09 374.585C1762.47 375.62 1763.71 377.87 1764.66 378.418C1767.6 380.105 1775.46 380.265 1779.21 381.297C1787.84 383.671 1796.07 387.61 1804.16 391.385L1793.25 403.687C1789.92 407.632 1788.52 412.306 1789.13 417.48C1789.44 420.135 1790.91 424.55 1793.46 425.956C1794.73 426.658 1795.54 426.101 1796.91 427.246L1796.71 430.852C1794.72 445.043 1786.65 460.437 1781.92 474.119C1777.05 488.25 1773.43 502.793 1770 517.331L1752.39 594.835C1748.6 614.172 1748.32 637.541 1740.36 655.399C1732.55 672.932 1715.04 687.784 1701.41 700.968C1681.82 719.909 1662.29 738.283 1640.77 755.043C1653.29 723.897 1657.64 690.717 1668.57 659.153C1677.44 633.523 1693.3 610.912 1699.88 584.325C1702.76 572.681 1703.67 559.504 1700.58 547.825C1697.96 537.926 1690.53 530.57 1681.88 525.55C1668.19 517.601 1644.76 509.393 1629.16 513.741C1618.8 516.626 1610.76 523.775 1604.21 532.015C1590.73 548.996 1582.9 570.883 1572.35 589.844L1529.37 663.099C1513.09 692.498 1495.63 728.546 1505.71 763.001C1512.54 786.312 1528.65 799.412 1549.14 810.67L1500.47 838.064C1496.16 840.545 1492.3 844.598 1487.8 846.547C1476.55 851.418 1463.77 854.479 1451.89 857.479C1430.2 862.957 1408.07 867.315 1385.94 870.582C1344.03 876.766 1301.56 882.055 1259.12 880.828C1226.66 879.889 1193.8 875.436 1161.62 871.191L987.352 848.415C947.096 844.092 907.192 840.186 866.625 842.047C831.398 843.663 796.187 851.48 761.737 858.741C693.653 873.089 625.689 889.461 555.672 888.899C570.162 885.804 584.762 883.001 598.971 878.761C613.493 874.428 627.322 868.77 641.411 863.259C659.902 856.025 677.925 848.833 695.205 838.95C701.316 835.455 708.104 832.021 713.09 826.996C716.895 823.161 717.923 819.188 717.727 813.833C717.578 809.73 716.464 807.901 713.644 805.176C707.611 805.176 697.648 813.929 691.895 817.294C687.429 819.907 682.756 822.143 678.113 824.417C650.355 838.012 621.58 849.116 591.924 857.829C562.419 866.497 532.086 869.297 501.922 874.674C478.132 878.914 454.012 887.112 429.653 886.433C414.836 886.02 403.047 882.28 390.111 875.218C417.953 850.398 449.028 834.069 481.646 816.679C514.431 799.2 547.115 782.855 581.445 768.566L609.84 757.11C614.683 755.206 621.342 753.951 623.779 748.904C626.104 744.088 625.227 738.306 623.535 733.458C622.824 732.755 621.273 730.848 620.368 730.71C615.787 730.013 601.446 737.98 596.703 739.956C549.206 759.746 503.494 781.272 458.471 806.254C437.394 817.949 416.861 829.089 397.639 843.811C358.47 828.116 317.99 818.41 275.892 815.354C248.322 813.353 219.679 814.527 193.115 806.352C156.61 795.117 128.431 768.989 110.728 735.512C107.986 726.362 110.462 718.607 114.61 710.449C115.224 709.241 115.81 708.073 116.703 707.039C119.773 703.483 126.062 700.71 130.176 698.479C147.204 689.244 165.346 682.582 183.553 676.106L286.029 642.609C307.392 635.175 328.587 626.828 348.996 617.053C378.428 602.957 407.114 586.012 432.004 564.78L498.644 503.991C518.909 486.885 541.439 473.97 564.975 461.977C646.74 420.309 738.957 398.627 830.067 391.294C829.013 431.099 831.206 470.286 841.264 508.951C867.579 516.692 894.94 518.561 922.268 518.586C947.107 518.609 970.722 517.457 994.725 510.598C999.835 515.738 1005.76 520.469 1012.16 523.913C1014.67 525.267 1020.32 526.874 1022.18 528.631C1025.12 531.417 1026.54 537.636 1029.79 541.099C1037.77 549.622 1049.32 551.883 1060.47 552.147C1075.21 552.497 1092.71 551.358 1102.82 539.233C1105.33 536.216 1106.24 532.224 1108.6 529.483C1111.66 525.93 1116.71 523.253 1120.22 519.884C1146.75 494.441 1150.51 455.474 1151.32 420.864L1132.6 411.366L1247.65 403.087L1191.14 464.649C1175.71 484.173 1168.18 509.788 1171.23 534.546C1175.09 565.897 1192.83 586.984 1214.66 608.044C1223.74 616.804 1232.8 625.443 1242.79 633.188C1248.14 637.338 1259.62 646.767 1266.53 645.843C1275.16 644.689 1282.19 641.163 1289.07 635.954C1302.5 625.78 1313.95 612.311 1325.48 600.045C1362.71 560.463 1399.37 518.605 1422.7 469.03C1428.18 457.385 1433.51 445.782 1435.22 432.924C1438.09 411.443 1432.54 382.611 1418.81 365.127C1414.36 359.465 1405.62 356.726 1398.76 355.886C1360.2 351.162 1330.11 392.923 1308.82 419.13C1297.18 433.447 1285.71 447.714 1272.55 460.681C1265.02 468.104 1257.07 475.273 1247.68 480.246C1243.55 482.428 1237.6 483.838 1234.11 486.818C1231.38 489.144 1230.51 492.386 1230.38 495.839C1230.2 500.795 1231.04 504.592 1234.39 508.301C1238.23 509.054 1241.95 506.723 1245.46 505.087C1263.51 496.679 1278.57 481.628 1291.43 466.762C1310.56 444.658 1327.78 419.154 1349.21 399.3C1358.56 390.632 1368.4 385.26 1379.87 379.954L1366.61 394.638C1364.08 397.349 1360.47 400.485 1358.67 403.725C1356.45 407.734 1356.16 414.219 1357.8 418.457C1358.87 421.216 1360.14 422.133 1362.72 423.34C1363.55 423.006 1364.45 422.614 1365.16 422.07C1369.67 418.652 1373.98 412.427 1377.8 408.137C1383.09 402.178 1391.9 394.488 1395.53 387.557C1396.89 384.954 1397.23 381.098 1397.67 378.206L1398.93 378.288C1402.14 378.76 1407.85 380.289 1409.89 382.812C1406.22 395.827 1394.41 408.204 1392.55 421.387C1392 425.231 1392.15 429.801 1394.59 433.013C1396.04 434.917 1396.43 434.705 1398.69 434.986C1401.94 433.345 1403.25 429.122 1404.8 425.985L1419 396.328C1424.14 410.59 1426.9 425.976 1420.5 440.365C1394.4 499.011 1352.88 547.396 1308.06 592.504C1298.44 602.19 1286.01 617.188 1272.95 621.913C1268.05 623.686 1264.12 622.742 1259.59 620.506C1249.29 615.428 1239.83 606.004 1231.42 598.256C1213.16 581.448 1193.22 564.571 1184.76 540.387C1180.03 526.868 1180.66 514.531 1186.93 501.504C1194.46 485.886 1206.67 472.285 1218.16 459.429C1235.96 439.513 1254.9 420.213 1275.2 402.845C1279.17 399.447 1283.53 396.679 1287.6 393.445C1291.14 390.627 1293.95 386.969 1297.42 384.054C1308.73 374.563 1319.29 366 1329.3 355.076C1347.53 335.163 1362.36 312.948 1377.59 290.748C1383.19 282.597 1388.81 271.157 1395.73 264.432C1404.64 255.787 1418.02 251.79 1429.44 247.766C1429.42 252.862 1429.23 258.459 1433.15 262.282C1433.89 263.006 1435.49 262.694 1436.52 262.698C1441.47 258.466 1444.61 251.037 1448.24 245.539C1454.09 236.661 1462.65 221.789 1471.6 216.092C1475.15 213.835 1479.14 212.951 1483.2 212.124Z"/>
	<path fill="#273034" transform="matrix(0.1 0 0 0.1 0 -7.62939e-06)" d="M1552.46 419.434L1555.09 419.186L1557.89 421.443C1560.7 423.926 1561.77 426.984 1561.97 430.664C1562.24 435.936 1561.64 439.779 1558.11 443.79L1557.28 443.881C1555.41 443.902 1554.37 443.335 1553.02 442.137C1549.99 439.431 1548.98 436.339 1548.77 432.336C1548.51 427.11 1548.97 423.414 1552.46 419.434Z"/>
	<path fill="#FF3E5B" transform="matrix(0.1 0 0 0.1 0 -7.62939e-06)" d="M1435.87 332.52C1438.54 332.539 1440.56 333.205 1442.82 334.631C1450.15 339.271 1456.97 346.402 1463.83 351.833C1470.25 356.912 1477.66 361.277 1483.74 366.679C1487.34 369.867 1487.77 375.31 1487.99 379.857C1488.24 384.951 1487.61 390.182 1484.12 394.043L1483.31 394.136C1480.13 393.968 1477.12 389.358 1475.1 387.096C1464.37 386.137 1453.02 376.998 1446.75 368.413C1444.17 364.876 1443.25 361.871 1439.87 358.738C1435.24 354.446 1431.73 349.517 1431.6 342.999C1431.51 338.243 1432.68 335.759 1435.87 332.52Z"/>
	<path fill="#FF3E5B" transform="matrix(0.1 0 0 0.1 0 -7.62939e-06)" d="M1653.3 458.496L1655.79 457.838C1668.83 464.965 1682.59 469.668 1696.4 475.084C1703.22 477.76 1714.76 480.657 1719.35 486.269C1722.23 489.786 1722.43 494.986 1721.84 499.301C1721.36 502.81 1720.18 504.215 1717.48 506.348C1712.6 505.671 1705.67 501.651 1700.98 499.744L1666.79 486.115C1662.87 484.368 1657.46 482.444 1654.24 479.591C1651.15 476.858 1649.92 471.737 1649.87 467.773C1649.83 464.061 1650.69 461.15 1653.3 458.496Z"/>
	<path fill="#273034" transform="matrix(0.1 0 0 0.1 0 -7.62939e-06)" d="M1479.88 266.113C1486.86 264.707 1486.13 272.898 1489.48 276.829C1490.38 277.889 1498.06 279.032 1500.19 280.382C1504.81 283.301 1507.42 288.046 1508.57 293.258C1510.11 300.258 1509.25 309.669 1505.42 315.918C1503.34 319.313 1500.48 322.252 1498.33 325.684C1497.18 327.174 1496.7 328.078 1494.63 328.218C1489.58 328.56 1483.35 325.803 1479.58 322.651C1471.8 316.159 1470.43 303.542 1473.62 294.434C1474.61 291.623 1477.07 287.984 1477.44 285.147C1477.69 283.29 1476.32 280.498 1476.17 278.477C1475.8 273.59 1476.71 269.864 1479.88 266.113Z"/>
	<path fill="#273034" transform="matrix(0.1 0 0 0.1 0 -7.62939e-06)" d="M1704.93 405.363C1707.67 405.146 1711.21 404.68 1713.87 405.309C1716.67 405.971 1718.88 408.116 1721.86 408.819C1726.45 409.898 1730.9 410.027 1735.4 411.621C1737.95 414.29 1738.87 417.226 1739.05 420.898C1739.2 423.939 1738.65 428.999 1736.34 431.219C1733.43 434.009 1730.65 432.11 1727.05 432.39C1726.6 432.426 1725.42 432.737 1725.1 433.067C1724.31 433.873 1723.21 440.046 1722.45 441.697C1720.8 445.26 1718.41 448.081 1715.84 450.999L1712.59 455.566C1710.65 457.678 1708.57 459.102 1705.66 459.219C1702.3 459.354 1699.33 457.691 1696.9 455.566C1692.11 444.301 1688.02 435.12 1691.42 422.614C1693.72 414.139 1697.45 409.65 1704.93 405.363Z"/>
	<path fill="#273034" transform="matrix(0.1 0 0 0.1 0 -7.62939e-06)" d="M1448.37 465.332L1450.72 464.84C1457.32 467.21 1464.78 483.671 1468.61 489.926C1469.44 491.285 1470.86 494.478 1471.99 495.451C1474.8 497.861 1479.55 497.222 1482.74 500.715L1483.17 501.195C1488.87 507.426 1492.14 515.13 1496.74 522.125C1503.7 532.724 1507.47 530.463 1518.36 532.882C1527.29 534.862 1531.58 548.38 1536.06 555.577C1544.07 555.997 1551.65 554.46 1559.59 554.169C1561.44 554.101 1562.71 553.732 1564.11 555.111C1566.86 557.825 1567.31 562.126 1567.41 565.813C1567.51 570.064 1566.54 572.63 1563.63 575.684C1562.94 576.014 1562.4 576.269 1561.66 576.44C1556.65 577.588 1550.7 577.794 1545.55 578.011C1529.96 578.669 1529.16 573.144 1522.33 561.05C1521.67 559.899 1520.2 556.585 1519.33 555.902C1515.42 552.827 1505.92 555.126 1500.68 551.831L1500.16 551.492C1491.31 545.825 1487.78 535.203 1482.17 526.835C1481.13 525.273 1479.26 521.812 1477.85 520.718C1475.87 519.175 1471.8 518.719 1469.38 517.166C1462.36 512.642 1459.28 503.11 1454.92 496.336C1451.75 491.397 1446.22 485.405 1445.1 479.654C1444.09 474.43 1445.49 469.681 1448.37 465.332Z"/>
	<path fill="#273034" transform="matrix(0.1 0 0 0.1 0 -7.62939e-06)" d="M1572.71 355.837L1572.85 355.79C1582.64 354.78 1593.79 355.574 1602.05 361.416C1611.46 368.071 1620.04 381.846 1621.83 393.13C1622.73 398.812 1622.02 405.292 1618.54 410.03C1613.64 416.711 1603.95 418.514 1596.27 419.871L1594.7 419.913C1581.58 420.225 1569.87 416.353 1560.32 407.028C1552.45 399.348 1549.95 391.97 1549.75 381.348C1547.14 379.105 1545.4 377.062 1544.94 373.535C1544.41 369.507 1544.51 363.605 1547.18 360.238C1549.91 356.786 1567.43 356.416 1572.71 355.837Z"/>
</svg>
