<?xml version="1.0" encoding="utf-8" ?>
<svg xmlns="http://www.w3.org/2000/svg" xmlns:xlink="http://www.w3.org/1999/xlink" width="320" height="320">
	<path fill="#FEFEFE" d="M190.664 24.6149C192.746 24.4978 194.816 24.8231 196.892 24.9439C198.228 25.0216 199.545 24.8247 200.911 24.941C202.723 25.0953 204.503 25.5748 206.302 25.8438C207.537 26.0286 208.885 25.8455 210.083 26.0889C211.012 26.2776 211.887 26.6983 212.816 26.8997L219.13 28.1868C222.829 29.049 226.659 30.5089 230.188 31.9198C238.445 35.2208 246.316 39.2618 253.589 44.4318C254.276 44.9207 254.817 45.6014 255.496 46.1112C256.263 46.6885 257.168 47.0792 257.908 47.6684C258.861 48.4279 259.573 49.4016 260.483 50.195C261.615 51.1823 262.988 51.8829 264.126 52.8609C264.945 53.5642 265.537 54.4731 266.347 55.1854C276.857 64.4305 286.472 73.9879 293.793 86.0154C297.31 91.7937 299.973 98.6282 301.956 105.095C302.413 106.586 302.632 108.121 303.048 109.616C308.804 130.326 309.314 152.461 305.774 173.645C304.632 180.477 302.894 187.163 301.217 193.875C299.721 199.864 297.712 205.754 295.59 211.545C292.222 220.74 288.216 229.831 282.948 238.125C274.03 252.167 261.304 264.923 247 273.475C232.282 282.274 214.992 285.769 198.028 286.387C194.993 286.498 191.847 285.864 188.868 286.016C187.422 286.09 186.072 286.995 184.68 287.375C182.421 287.992 179.832 288.296 177.489 288.452C161.947 289.487 146.374 287.465 131.25 283.921L122.259 281.442L110.607 277.39C109.499 276.973 108.483 276.349 107.403 275.875C95.8585 270.812 85.1068 264.175 75.981 255.421L70.7022 257.938C64.2743 260.612 57.0974 262.031 50.25 263.066C42.3807 264.255 34.6082 265.377 26.6098 265.179C25.0956 265.142 22.7608 265.34 21.375 264.765C21.375 263.289 23.9033 262.23 25.0467 261.507C30.8982 257.807 36.1549 252.967 40.7313 247.794C45.6481 242.236 48.8672 236.479 51.2962 229.5C51.6003 228.626 52.4304 227.055 52.4752 226.192C52.4833 226.035 52.0287 225.292 51.9277 225.073L49.6394 220.527C47.075 215.454 44.9042 209.979 43.167 204.563C39.9213 194.444 38.1104 184.253 37.4922 173.667C37.0086 165.386 37.6376 156.873 38.6699 148.666C38.841 147.305 38.852 145.919 39.0572 144.564C43.3341 116.328 55.8025 88.8997 74.9365 67.625C76.7785 65.577 78.9385 63.6022 80.9451 61.7103C86.0559 56.8915 91.382 52.3947 97.25 48.4985C103.615 44.2723 110.838 40.7937 117.875 37.8383C122.158 36.0395 126.767 34.6955 131.218 33.3974C142.147 30.2108 153.117 28.2443 164.407 26.8527L180.987 24.8913L190.664 24.6149Z"/>
	<path fill="#EC5E31" d="M166.555 55.1006L243.327 129.986L197.843 129.692L197.233 235.543L175.875 235.674L140.376 236.006C140.638 225.639 143.903 130.362 143.404 129.225L101.503 128.968L166.555 55.1006Z"/>
</svg>
