<?xml version="1.0" encoding="utf-8" ?>
<svg xmlns="http://www.w3.org/2000/svg" xmlns:xlink="http://www.w3.org/1999/xlink" width="574" height="574">
	<path fill="#2D3337" transform="matrix(1.79375 0 0 1.79375 0 -0.00012207)" d="M245.98 250.47C247.227 251.272 247.975 252.136 248.853 253.31C247.949 254.447 247.07 255.724 245.951 256.657C245.307 256.633 245.036 256.338 244.472 256.129C244.355 255.719 243.826 255.257 243.533 254.93C244.009 253.279 245.119 251.942 245.98 250.47Z"/>
	<path fill="#FEFEFE" transform="matrix(1.79375 0 0 1.79375 0 -0.00012207)" d="M244.472 256.129C243.399 256.997 242.064 257.69 240.881 258.406L233.408 262.625C223.838 267.506 214.241 271.501 204.017 274.812L192.124 278.103C188.094 279.337 183.801 280.047 179.665 280.826C169.912 282.661 160.014 284.316 150.064 284.403C148.251 284.419 146.434 284.189 144.625 284.094C139.067 283.8 133.399 283.401 127.904 282.459L115.676 280.107L105.728 278.932C92.6488 277.103 78.158 274.598 66.4371 268.305C61.708 265.766 57.035 263.032 52.793 259.724C39.5415 249.391 29.3203 235.302 23.2351 219.679C21.6088 215.503 20.4796 211.219 19.2602 206.918C18.9511 205.828 18.8751 204.667 18.6858 203.552C18.5168 202.556 18.1716 201.605 18.0399 200.6C17.5729 197.035 17.4719 193.29 16.7997 189.764C15.902 185.055 14.6507 180.392 14.072 175.627C13.8873 174.106 13.9226 172.503 13.826 170.969C13.4956 165.721 13.3732 160.363 14.0044 155.125C14.1625 153.813 14.5563 152.549 14.7479 151.25C15.5289 145.954 16.9597 140.108 19.1714 135.188C22.5884 127.588 27.1441 120.486 31.1969 113.213C43.813 90.5719 67.1494 74.7654 90.9448 65.8507C96.2158 63.876 101.744 62.2283 107.181 60.7829L112.175 59.6458C113.392 59.3056 114.694 59.2276 115.933 58.9794C120.677 58.0294 125.345 57.4139 130.151 56.9402C136.984 56.2669 143.743 55.8255 150.618 56.0854L160.625 56.9629C161.989 57.0814 163.373 56.9302 164.734 57.0848C166.05 57.2341 167.317 57.7298 168.625 57.9364C171.411 58.3765 174.283 58.5362 177.049 59.1629C177.785 59.3294 178.472 59.681 179.204 59.8573L184.75 61.0419C187.991 61.8778 191.139 63.0665 194.298 64.1123C195.361 64.4642 196.476 64.6507 197.527 65.0195C203.937 67.2685 210.305 70.112 216.406 73.1033C221.791 75.7437 227.197 78.7726 232.254 81.9844C234.77 83.5822 237.191 85.6042 239.801 87.0234C240.846 87.5916 241.567 88.4392 242.513 89.125C243.224 89.6407 244.037 90.0082 244.75 90.5194C245.91 91.3511 246.923 92.2975 248.131 93.1106C248.942 93.657 249.506 94.4071 250.244 95.0321C251.492 96.0888 252.917 96.9131 254.165 97.9646C254.9 98.5838 255.441 99.3637 256.152 100.002C258.971 102.535 261.948 105.275 264.416 108.157C265.147 109.01 265.689 110.002 266.369 110.893C267.002 111.723 267.865 112.364 268.478 113.21C278.25 126.687 284.665 142.069 287.895 158.369C288.43 161.07 288.81 164.19 289.077 166.946C289.31 169.358 288.722 172.678 289.791 174.899C291.265 177.961 293.484 180.823 295.353 183.666L306.896 201.362C307.631 202.537 309.003 204.04 309.265 205.375C309.192 205.559 309.057 206.072 308.938 206.197C308.208 206.961 305.92 207.899 304.918 208.432L287.961 216.991C285.031 218.387 281.691 219.559 278.918 221.212C278.455 221.487 278.122 221.864 277.807 222.293C276.65 223.866 275.724 225.599 274.625 227.212C272.214 230.751 269.583 234.264 266.704 237.441C264.073 240.344 261.146 243.312 258.167 245.839L248.853 253.31C247.975 252.136 247.227 251.272 245.98 250.47C245.119 251.942 244.009 253.279 243.533 254.93C243.826 255.257 244.355 255.719 244.472 256.129Z"/>
	<path fill="#2D3337" transform="matrix(1.79375 0 0 1.79375 0 -0.00012207)" d="M196.275 109.833C198.473 111.349 199.871 112.689 200.898 115.171L200.45 115.129L200.127 114.625L199.83 115.166L198.484 114.156L198.251 113.625C197.769 112.329 196.467 111.051 196.275 109.833Z"/>
	<path fill="#2D3337" transform="matrix(1.79375 0 0 1.79375 0 -0.00012207)" d="M153.144 256.278C154.204 256.847 155.105 257.734 155.744 258.75L155.475 259.175C153.059 259.224 151.653 258.675 149.766 257.18C150.614 257.089 151.524 257.212 152.375 257.262L153.144 256.278Z"/>
	<path fill="#2D3337" transform="matrix(1.79375 0 0 1.79375 0 -0.00012207)" d="M118.59 176.266C119.874 176.815 120.823 177.829 121.821 178.775C120.712 179.256 119.026 180.142 117.823 180.163C117.506 180.168 116.71 179.766 116.395 179.639C115.593 179.316 114.891 178.84 114.187 178.346C115.924 178.061 117.312 177.501 118.59 176.266Z"/>
	<path fill="#2D3337" transform="matrix(1.79375 0 0 1.79375 0 -0.00012207)" d="M77.7697 175.497C80.4801 175.862 82.3009 176.546 85.125 176.279C85.4264 175.952 85.6724 175.676 85.8676 175.269C87.1327 176.112 88.0992 177.068 89.1331 178.166C84.6994 178.689 81.5369 177.954 77.7697 175.497Z"/>
	<path fill="#EF6233" transform="matrix(1.79375 0 0 1.79375 0 -0.00012207)" d="M243.533 254.93C243.098 254.867 242.735 254.768 242.355 254.538C241.383 253.951 240.507 252.972 240.281 251.875C240.939 250.514 241.806 249.429 242.751 248.264C243.581 248.898 244.774 250.076 245.742 250.398L245.98 250.47C245.119 251.942 244.009 253.279 243.533 254.93Z"/>
	<path fill="#2D3337" transform="matrix(1.79375 0 0 1.79375 0 -0.00012207)" d="M234.115 123.758C235.306 124.108 236.236 125.343 237.077 126.217L232.402 129.895L229.745 127.784C231.095 126.451 233.143 125.37 234.115 123.758Z"/>
	<path fill="#EF6233" transform="matrix(1.79375 0 0 1.79375 0 -0.00012207)" d="M229.745 127.784C228.393 127.372 227.329 126.174 226.305 125.237L230.79 121.491C231.967 122.023 233.07 122.996 234.115 123.758C233.143 125.37 231.095 126.451 229.745 127.784Z"/>
	<path fill="#2D3337" transform="matrix(1.79375 0 0 1.79375 0 -0.00012207)" d="M114.793 125.795C116.058 126.403 116.849 127.41 117.668 128.521C114.378 129.69 109.376 131.499 106.027 129.875C105.14 129.445 104.262 128.905 103.477 128.309C104.923 128.234 106.257 128.57 107.727 128.376C109.685 128.117 113.555 127.388 114.793 125.795Z"/>
	<path fill="#2D3337" transform="matrix(1.79375 0 0 1.79375 0 -0.00012207)" d="M119.44 215.116C120.152 215.442 121.782 216.287 122.042 217.048L122.101 217.254C121.37 217.93 120.283 218.153 119.348 218.438C117.242 219.077 115.064 219.796 112.838 219.737C110.229 219.666 107.945 218.336 105.753 217.047C106.788 217.052 107.765 217.464 108.774 217.67C111.178 218.16 113.961 217.148 116.195 216.395C117.358 216.003 118.394 215.794 119.44 215.116Z"/>
	<path fill="#2D3337" transform="matrix(1.79375 0 0 1.79375 0 -0.00012207)" d="M152.009 175.41C152.834 175.267 153.827 175.817 154.627 176.036C156.136 176.449 157.631 176.635 159.185 176.37C161.533 175.969 165.097 174.328 166.485 172.311C167.692 172.999 168.617 173.823 169.62 174.769C166.693 176.831 162.881 179.074 159.158 178.38C156.691 177.919 154.044 176.894 152.009 175.41Z"/>
	<path fill="#2B363C" transform="matrix(1.79375 0 0 1.79375 0 -0.00012207)" d="M198.484 114.156L199.83 115.166L200.127 114.625L200.45 115.129L200.898 115.171C201.808 116.914 201.624 119.41 201.585 121.34C201.517 124.66 201.22 128.126 201.847 131.404C201.061 131.169 199.678 129.803 199.06 129.212C198.245 124.218 199.339 119.101 198.484 114.156Z"/>
	<path fill="#2D3337" transform="matrix(1.79375 0 0 1.79375 0 -0.00012207)" d="M139.098 169.353C141.126 170.665 142.72 172.113 143.379 174.5C143.057 175.888 142.376 176.814 141.17 177.572C139.076 178.887 135.918 179.656 133.472 179.041C131.444 178.532 129.517 177.602 127.779 176.451C128.969 176.532 130.083 177.011 131.255 177.198C133.129 177.495 135.38 176.932 137.082 176.124C138.389 175.502 139.8 174.511 140.267 173.085C140.669 171.86 139.65 170.429 139.098 169.353Z"/>
	<path fill="#2D3337" transform="matrix(1.79375 0 0 1.79375 0 -0.00012207)" d="M143.686 125.348C144.795 126.024 145.667 126.752 146.578 127.675C145.285 130.272 142.991 132.938 140.25 134.041L139.962 134.164C138.406 134.812 136.493 134.633 134.972 133.971C133.873 133.491 132.745 132.846 131.766 132.155C133.559 132.229 134.927 132.885 136.75 132.254C139.899 131.162 142.297 128.257 143.686 125.348Z"/>
	<path fill="#2D3337" transform="matrix(1.79375 0 0 1.79375 0 -0.00012207)" d="M109.792 108.823C111.67 109.974 114.025 111.964 114.583 114.188C114.963 115.706 114.735 117.392 113.914 118.725C113.264 119.78 112.353 120.496 111.25 121.037L111.004 121.161C109.127 122.059 106.374 121.957 104.461 121.256C103.686 120.972 102.946 120.581 102.248 120.142L102.081 119.417C102.954 119.659 103.938 119.826 104.846 119.801C106.887 119.744 108.86 119.092 110.267 117.557C111.553 116.155 112.027 114.491 111.977 112.625C111.943 111.335 110.45 109.975 109.792 108.823Z"/>
	<defs>
		<linearGradient id="gradient_0" gradientUnits="userSpaceOnUse" x1="164.25137" y1="165.02707" x2="154.49263" y2="160.20523">
			<stop offset="0" stop-color="#2F3033"/>
			<stop offset="1" stop-color="#263739"/>
		</linearGradient>
	</defs>
	<path fill="url(#gradient_0)" transform="matrix(1.79375 0 0 1.79375 0 -0.00012207)" d="M162.311 156.366C163.978 157.556 165.916 159.156 166.231 161.328C166.365 162.254 165.983 163.156 165.407 163.863C163.763 165.882 161.174 166.474 158.708 166.701C156.473 166.907 154.093 166.766 151.953 166.079L150.031 165.39L150.703 164.618C153.586 164.948 156.555 164.989 159.319 163.959C160.759 163.422 162.41 162.401 163.016 160.915C163.43 159.898 163.3 158.776 162.835 157.805C162.609 157.332 162.459 156.868 162.311 156.366Z"/>
	<path fill="#2D3337" transform="matrix(1.79375 0 0 1.79375 0 -0.00012207)" d="M82.2457 216.175C84.8093 216.335 86.8448 217.358 89.5384 216.934C91.4672 216.631 93.3454 215.945 94.5132 214.283C95.867 212.357 94.8569 209.596 93.543 207.931C93.1285 207.406 92.1563 206.468 92.0844 205.819L92.0645 205.532C94.5921 207.637 97.6481 210.401 98.0177 213.875C98.1438 215.06 97.9293 215.859 97.1603 216.772C95.7393 218.458 93.5982 218.794 91.5195 218.926C88.1826 219.139 84.9739 218.027 82.2457 216.175Z"/>
	<path fill="#2D3337" transform="matrix(1.79375 0 0 1.79375 0 -0.00012207)" d="M87.2876 155.836C89.3945 157.213 91.9055 159.107 92.4426 161.716C92.6 162.48 92.2101 163.343 91.7831 163.969C90.2918 166.157 87.2416 166.943 84.7922 167.353C82.5006 167.736 78.5895 167.682 76.5179 166.557L75.9429 165.304C79.5978 165.765 84.1358 165.618 87.2236 163.41C88.3343 162.616 89.34 161.507 89.5047 160.095C89.6766 158.622 88.1429 156.946 87.2876 155.836Z"/>
	<path fill="#2D3337" transform="matrix(1.79375 0 0 1.79375 0 -0.00012207)" d="M220.823 108.559C222.832 109.878 225.519 112.087 225.957 114.591C226.139 115.634 225.71 116.833 225.072 117.661C223.502 119.701 220.275 121.142 217.75 121.44C214.354 121.84 211.432 120.589 208.541 118.945L208.734 118.557C212.185 119.657 214.978 119.904 218.371 118.349C220.085 117.563 222.295 116.07 222.917 114.189C223.779 111.587 221.98 110.68 220.911 108.725L220.823 108.559Z"/>
	<path fill="#2D3337" transform="matrix(1.79375 0 0 1.79375 0 -0.00012207)" d="M231.535 230.585C234.324 232.385 235.964 234.467 236.694 237.756C237.165 239.874 236.998 242.14 236.986 244.297C236.961 248.644 236.752 253.026 237.37 257.342C236.403 256.634 235.361 255.974 234.713 254.942C234.36 252.229 234.044 249.567 234.03 246.827C234.011 243.001 234.44 239.115 233.865 235.313L233.816 235C233.574 233.362 232.315 232.318 231.645 230.833L231.535 230.585Z"/>
	<path fill="#2D3337" transform="matrix(1.79375 0 0 1.79375 0 -0.00012207)" d="M207.44 229.661C208.92 230.33 209.847 231.337 210.402 232.875C212.493 238.671 212.646 244.932 209.907 250.555C208.697 253.039 207.344 254.891 204.653 255.815C203.992 256.043 203.113 255.507 202.49 255.206C201.855 254.9 201.294 254.44 200.755 253.99L201.875 253.754C204.077 253.118 205.658 251.065 206.691 249.125C209.944 243.015 209.441 236.057 207.44 229.661Z"/>
	<path fill="#2D3337" transform="matrix(1.79375 0 0 1.79375 0 -0.00012207)" d="M153.787 131.183C154.929 131.261 156.249 131.471 157.379 131.286C159.63 130.918 161.784 129.299 163.094 127.479C165.954 123.502 167.619 116.523 165.925 111.804C165.512 110.653 164.231 109.89 164.074 108.669L164.064 108.534C166.566 110.394 168.898 112.897 169.395 116.11C169.564 117.203 169.426 118.475 169.299 119.574L168.628 123.683C167.684 127.044 166.247 130.46 163.066 132.252C161.326 133.233 159.363 133.674 157.401 133.112C156.128 132.748 154.829 131.997 153.787 131.183Z"/>
	<path fill="#2D3337" transform="matrix(1.79375 0 0 1.79375 0 -0.00012207)" d="M173.82 234.114C176.248 235.803 178.709 238.345 179.239 241.379C180.107 246.341 178.452 252.226 175.563 256.289C174.161 258.26 172.199 260.07 169.724 260.437C167.651 260.745 165.664 259.648 164.053 258.439L163.947 258.357C164.252 258.348 164.144 258.342 164.412 258.364C165.361 258.44 166.38 258.625 167.312 258.366C170.124 257.583 172.276 255.059 173.652 252.609C175.838 248.716 178.017 241.735 175.957 237.375C175.411 236.219 174.181 235.528 173.856 234.274L173.82 234.114Z"/>
	<path fill="#2D3337" transform="matrix(1.79375 0 0 1.79375 0 -0.00012207)" d="M165.835 193.571C168.055 194.984 170.479 197.624 171.115 200.241C171.978 203.795 170.411 208.546 168.526 211.505C166.841 214.148 164.243 216.804 161.067 217.506C159.434 217.867 157.534 218.001 155.975 217.316C154.886 216.839 153.959 216.271 152.982 215.593C154.772 215.623 156.102 215.908 157.922 215.534C161.024 214.895 163.728 212.286 165.387 209.712C167.825 205.929 168.796 201.809 167.999 197.375C167.731 195.883 166.266 195.169 165.87 193.725L165.835 193.571Z"/>
	<path fill="#2D3337" transform="matrix(1.79375 0 0 1.79375 0 -0.00012207)" d="M233.335 86.3289C234.673 87.156 236.116 88.2086 236.523 89.8253C237.41 93.3435 235.685 98.2361 235.365 101.856C235.04 105.531 235.211 109.329 235.272 113.015C235.296 114.517 235.508 116.273 235.288 117.75L234.875 117.963L233.5 117.233L233.04 117.5L232.926 118.962L232.5 119.25C231.558 118.81 230.815 118.045 230.009 117.4C230.025 116.554 229.86 115.746 230.375 115.059L231.75 115.978L232.178 115.717C232.529 111.143 232.06 106.476 232.256 101.885C232.479 96.6611 234.309 91.5399 233.335 86.3289Z"/>
	<path fill="#2D3337" transform="matrix(1.79375 0 0 1.79375 0 -0.00012207)" d="M64.5024 141.775C65.7005 142.491 66.9123 143.287 67.4636 144.625L63.1209 180.209C62.0926 179.515 61.0915 178.858 60.2373 177.946C60.1381 175.333 60.6361 172.591 60.9505 170L63.0079 154.795C63.6538 150.487 64.5746 146.141 64.5024 141.775Z"/>
	<path fill="#2D3337" transform="matrix(1.79375 0 0 1.79375 0 -0.00012207)" d="M146.279 192.337C147.461 193.021 148.646 194.073 149.12 195.389L148.939 195.729C142.691 196.787 137.654 198.765 133.86 204.11C133.28 204.926 132.635 205.794 132.406 206.784C132.054 208.307 132.157 210.098 132.03 211.669C131.765 214.945 131.43 218.243 130.859 221.479C129.994 220.706 129.137 219.849 128.193 219.178C128.169 216.071 128.777 212.849 129.057 209.75C129.203 208.127 129.034 206.111 129.523 204.582C130.989 199.991 136.792 195.883 141.227 194.661C142.5 194.31 144.762 194.245 145.824 193.616C146.128 193.435 146.194 192.698 146.279 192.337Z"/>
	<path fill="#2D3337" transform="matrix(1.79375 0 0 1.79375 0 -0.00012207)" d="M186.815 215.832C187.896 202.68 191.238 189.768 191.459 176.528C192.397 177.046 193.981 178.153 194.406 179.152C194.697 179.837 194.251 182.104 194.182 182.908L191.515 203.666C190.846 208.431 190.524 213.406 189.469 218.093L186.815 215.832Z"/>
	<path fill="#2D3337" transform="matrix(1.79375 0 0 1.79375 0 -0.00012207)" d="M181.096 176.511C182.324 177.164 183.163 178.062 184.104 179.059L180.859 198.012L179.354 209.706C179.005 212.937 178.879 216.573 178.09 219.707L175.369 217.361L181.096 176.511Z"/>
	<path fill="#EF6233" transform="matrix(1.79375 0 0 1.79375 0 -0.00012207)" d="M60.2373 177.946C58.8001 177.591 58.0422 176.687 57.0746 175.64C56.5387 172.284 57.4899 167.968 57.9413 164.591C59.048 156.308 60.7169 147.914 61.2275 139.582L64.5024 141.775C64.5746 146.141 63.6538 150.487 63.0079 154.795L60.9505 170C60.6361 172.591 60.1381 175.333 60.2373 177.946Z"/>
	<path fill="#EF6233" transform="matrix(1.79375 0 0 1.79375 0 -0.00012207)" d="M230.009 117.4C229.089 117.03 228.01 116.454 227.406 115.641C226.988 115.078 226.855 114.457 226.888 113.767C227.136 108.536 228.324 103.262 228.84 98.0391C229.303 93.3518 229.049 88.6675 229.744 83.9883C231.009 84.6212 232.173 85.5259 233.335 86.3289C234.309 91.5399 232.479 96.6611 232.256 101.885C232.06 106.476 232.529 111.143 232.178 115.717L231.75 115.978L230.375 115.059C229.86 115.746 230.025 116.554 230.009 117.4Z"/>
	<path fill="#2D3337" transform="matrix(1.79375 0 0 1.79375 0 -0.00012207)" d="M34.9973 180.988L37.1122 162.43L38.125 162.22C40.3376 161.559 42.5411 160.496 44.625 159.51C47.8855 157.966 51.8445 156.11 53.5751 152.74C54.5777 150.788 54.3313 148.27 53.0453 146.5C52.4662 145.703 51.6336 144.893 51.3602 143.934L51.3282 143.804C54.0193 145.8 56.7164 148.653 57.1402 152.128C57.3209 153.609 56.4473 155.235 55.5193 156.332C52.5566 159.836 46.5779 162.248 42.3001 163.813C41.9005 163.959 40.0065 164.409 39.8103 164.61C39.6945 164.729 39.4754 167.417 39.4362 167.748L37.86 183.241L34.9973 180.988Z"/>
	<path fill="#EF6233" transform="matrix(1.79375 0 0 1.79375 0 -0.00012207)" d="M186.815 215.832C185.277 215.395 184.453 214.383 183.379 213.265L188.147 174.155L191.459 176.528C191.238 189.768 187.896 202.68 186.815 215.832Z"/>
	<path fill="#EF6233" transform="matrix(1.79375 0 0 1.79375 0 -0.00012207)" d="M175.369 217.361C173.932 217.182 173.036 215.91 172.145 214.889C171.864 212.47 172.565 209.484 172.848 207.026C174.105 196.108 175.358 184.798 178.044 174.138C178.679 174.729 180.031 176.299 180.837 176.468L181.096 176.511L175.369 217.361Z"/>
	<path fill="#EF6233" transform="matrix(1.79375 0 0 1.79375 0 -0.00012207)" d="M128.193 219.178C127.579 219.024 126.959 218.701 126.476 218.289C122.591 214.974 123.973 208.236 125.199 203.994C125.469 203.061 126.049 202.055 126.198 201.125C126.35 200.179 126.148 199.023 126.096 198.059L125.743 191.708L128.5 194.5L129.5 194.43L130.258 195.125C131.138 195.232 132.558 193.981 133.359 193.48C134.379 192.842 135.438 192.305 136.562 191.875C138.394 191.174 140.217 190.747 142.159 190.48C142.452 190.44 143.356 190.228 143.583 190.293C144.231 190.479 145.195 191.891 146.105 192.271L146.279 192.337C146.194 192.698 146.128 193.435 145.824 193.616C144.762 194.245 142.5 194.31 141.227 194.661C136.792 195.883 130.989 199.991 129.523 204.582C129.034 206.111 129.203 208.127 129.057 209.75C128.777 212.849 128.169 216.071 128.193 219.178Z"/>
	<path fill="#EF6233" transform="matrix(1.79375 0 0 1.79375 0 -0.00012207)" d="M124.066 162.291C123.118 161.48 122.175 160.483 121.466 159.456C120.846 158.559 120.476 157.603 120.723 156.497C120.984 155.326 121.901 154.383 122.868 153.741C124.974 152.343 127.772 152.143 130.21 152.682C134.292 153.584 138.886 156.849 141.077 160.344C139.213 159.67 138.272 158.044 136.281 157.609C133.926 157.18 131.155 157.107 129.107 158.559C127.683 159.57 127.072 160.87 126.761 162.547C130.85 164.617 134.863 166.268 138.633 168.947L139.098 169.353C139.65 170.429 140.669 171.86 140.267 173.085C139.8 174.511 138.389 175.502 137.082 176.124C135.38 176.932 133.129 177.495 131.255 177.198C130.083 177.011 128.969 176.532 127.779 176.451C124.732 174.957 122.074 172.345 120.552 169.339C121.98 169.946 122.868 170.972 124.125 171.797C124.62 172.121 125.206 172.278 125.676 172.636C126.464 173.235 127.064 173.983 128.053 174.255C130.054 174.806 132.846 173.925 134.578 172.879C136.087 171.966 136.811 171.097 137.235 169.383C136.038 169.267 134.701 168.526 133.625 168.02C130.158 166.389 127.155 164.547 124.066 162.291Z"/>
	<path fill="#2D3337" transform="matrix(1.79375 0 0 1.79375 0 -0.00012207)" d="M124.565 161.151C124.292 160.815 124.172 160.4 124.022 160C124.069 158.858 124.47 158.087 125.248 157.279C126.725 155.744 128.58 155.256 130.658 155.25C133.138 155.242 134.524 155.887 136.281 157.609C133.926 157.18 131.155 157.107 129.107 158.559C127.683 159.57 127.072 160.87 126.761 162.547C125.897 162.24 125.272 161.717 124.565 161.151Z"/>
	<path fill="#EF6233" transform="matrix(1.79375 0 0 1.79375 0 -0.00012207)" d="M82.2457 216.175C78.4809 214.612 75.0426 210.519 73.1451 207.028C76.1748 208.872 78.8419 210.768 81.067 213.549C83.4167 214.117 86.0099 214.172 88.3275 213.387C89.5811 212.963 90.8314 212.158 91.375 210.909C94.0732 204.71 78.5615 199.248 76.5036 193.677C76.088 192.552 75.9381 191.295 76.514 190.197C77.2164 188.858 78.5679 187.795 80.0149 187.375C83.3126 186.418 86.4478 187.782 89.3205 189.288C92.1571 191.287 95.2042 192.968 96.3317 196.453C95.1245 195.694 94.0519 194.656 92.875 193.94C91.9258 193.361 90.5674 193.15 90.0761 191.941C87.5698 192.017 85.2282 192.334 83.4341 194.249C82.7824 194.944 82.4532 195.654 82.4996 196.614C82.5316 197.275 82.68 197.864 82.8958 198.489L92.0645 205.532L92.0844 205.819C92.1563 206.468 93.1285 207.406 93.543 207.931C94.8569 209.596 95.867 212.357 94.5132 214.283C93.3454 215.945 91.4672 216.631 89.5384 216.934C86.8448 217.358 84.8093 216.335 82.2457 216.175Z"/>
	<path fill="#2D3337" transform="matrix(1.79375 0 0 1.79375 0 -0.00012207)" d="M82.8958 198.489L82.7185 198.472C81.7591 198.303 81.1581 197.865 80.6053 197.092C80.0496 196.315 79.3513 194.799 79.5733 193.844C79.886 192.499 81.0231 191.522 82.1768 190.875C84.0252 189.838 86.4905 189.778 88.4809 190.354C89.0699 190.838 89.687 191.273 90.0761 191.941C87.5698 192.017 85.2282 192.334 83.4341 194.249C82.7824 194.944 82.4532 195.654 82.4996 196.614C82.5316 197.275 82.68 197.864 82.8958 198.489Z"/>
	<path fill="#EF6233" transform="matrix(1.79375 0 0 1.79375 0 -0.00012207)" d="M98.934 109.029C100.77 107.629 102.524 105.969 105.028 106.317C106.512 106.523 108.744 107.744 109.792 108.823C110.45 109.975 111.943 111.335 111.977 112.625C112.027 114.491 111.553 116.155 110.267 117.557C108.86 119.092 106.887 119.744 104.846 119.801C103.938 119.826 102.954 119.659 102.081 119.417L102.248 120.142C101.97 121.844 101.91 123.766 102.303 125.454C104.265 125.598 105.978 125.215 107.856 124.708C108.693 124.482 111.018 123.421 111.687 123.548C112.283 123.661 114.115 125.402 114.793 125.795C113.555 127.388 109.685 128.117 107.727 128.376C106.257 128.57 104.923 128.234 103.477 128.309C99.4852 126.447 97.9232 123.34 96.03 119.671C95.8661 115.711 96.9236 112.438 98.934 109.029Z"/>
	<path fill="#FEFEFE" transform="matrix(1.79375 0 0 1.79375 0 -0.00012207)" d="M108.73 111.277C108.764 112.604 107.83 114.021 106.927 114.947C106.109 115.784 104.589 116.655 103.399 116.682C104.729 114.189 106.258 112.642 108.73 111.277Z"/>
	<path fill="#2B363C" transform="matrix(1.79375 0 0 1.79375 0 -0.00012207)" d="M102.303 125.454L101.642 125.281C100.948 125.054 100.371 124.464 100.071 123.801C99.4551 122.442 98.8755 119.98 99.375 118.537C100.18 118.515 101.323 119.117 102.081 119.417L102.248 120.142C101.97 121.844 101.91 123.766 102.303 125.454Z"/>
	<path fill="#2D3337" transform="matrix(1.79375 0 0 1.79375 0 -0.00012207)" d="M103.399 116.682C102.239 116.892 100.902 116.742 99.7187 116.715C100.421 114.707 101.304 112.887 102.773 111.329C103.771 110.269 105.612 109.034 107.125 109.087C107.842 109.112 108.326 109.468 108.802 109.965C108.985 110.611 108.978 110.652 108.73 111.277C106.258 112.642 104.729 114.189 103.399 116.682Z"/>
	<path fill="#EF6233" transform="matrix(1.79375 0 0 1.79375 0 -0.00012207)" d="M105.753 217.047C103.7 216.093 101.372 214.136 99.9086 212.44C97.7285 209.913 96.998 207.006 97.2595 203.717C97.5743 199.76 99.5733 196.044 102.615 193.521C104.508 191.952 106.875 191.1 109.334 191.335C113.365 191.72 118.687 196.178 121.179 199.196C119.006 198.413 117.19 196.708 115.088 195.682C111.508 196.219 109.068 197.603 106.916 200.54C104.861 203.347 103.492 207.508 104.04 211.007C104.248 212.331 104.772 213.683 105.208 214.951C107.24 215.158 108.912 214.993 110.875 214.432C112.233 214.043 114.65 212.838 115.967 212.961C116.967 213.054 118.697 214.464 119.44 215.116C118.394 215.794 117.358 216.003 116.195 216.395C113.961 217.148 111.178 218.16 108.774 217.67C107.765 217.464 106.788 217.052 105.753 217.047Z"/>
	<path fill="#2D3337" transform="matrix(1.79375 0 0 1.79375 0 -0.00012207)" d="M105.208 214.951C104.864 214.944 104.527 214.854 104.223 214.688C102.996 214.018 101.964 212.478 101.58 211.162C100.497 207.447 101.063 203.359 102.972 200.002C104.327 197.618 106.668 194.958 109.429 194.24C110.102 194.065 110.853 193.792 111.552 193.796C113.124 193.805 114.053 194.645 115.088 195.682C111.508 196.219 109.068 197.603 106.916 200.54C104.861 203.347 103.492 207.508 104.04 211.007C104.248 212.331 104.772 213.683 105.208 214.951Z"/>
	<path fill="#EF6233" transform="matrix(1.79375 0 0 1.79375 0 -0.00012207)" d="M123.264 115.01C123.663 114.454 123.941 113.824 124.259 113.219C126.155 109.618 129.449 105.923 133.448 104.745C135.367 104.18 137.063 104.484 138.781 105.424C141.741 107.045 144.57 108.908 145.584 112.274L142.583 109.565C141.764 109.549 140.957 109.413 140.147 109.298C135.768 110.977 132.325 113.855 130.368 118.186C128.654 121.981 129.059 125.529 130.168 129.396L130.572 129.481C131.607 129.734 132.384 129.709 133.427 129.473C136.648 128.743 138.788 125.625 140.469 123.023L143.686 125.348C142.297 128.257 139.899 131.162 136.75 132.254C134.927 132.885 133.559 132.229 131.766 132.155C129.228 131.165 126.543 128.474 125.126 126.241L123.685 124.087C122.86 121.265 122.693 117.893 123.264 115.01Z"/>
	<path fill="#2D3337" transform="matrix(1.79375 0 0 1.79375 0 -0.00012207)" d="M126.262 122.722C126.128 119.76 126.77 116.883 128.372 114.346C130.247 111.377 133.676 107.959 137.25 107.306C138.179 107.136 138.957 107.166 139.75 107.73C140.232 108.072 140.841 108.623 140.954 109.209L140.147 109.298C135.768 110.977 132.325 113.855 130.368 118.186C128.654 121.981 129.059 125.529 130.168 129.396C129.818 129.291 129.444 129.181 129.125 128.999C127.171 127.882 126.661 124.718 126.262 122.722Z"/>
	<path fill="#EF6233" transform="matrix(1.79375 0 0 1.79375 0 -0.00012207)" d="M72.6283 171.469C70.8459 169.473 69.708 167.207 69.5672 164.5C69.3997 161.282 70.4542 158.084 72.6681 155.697C74.412 153.817 76.8062 152.623 79.3793 152.524C82.1197 152.419 85.3232 154 87.2876 155.836C88.1429 156.946 89.6766 158.622 89.5047 160.095C89.34 161.507 88.3343 162.616 87.2236 163.41C84.1358 165.618 79.5978 165.765 75.9429 165.304L76.5179 166.557C75.8203 167.196 75.9286 167.757 75.8949 168.697C75.8457 170.074 75.9611 171.449 76.59 172.689C77.9656 173.36 79.56 173.536 81.0776 173.454C81.4368 173.435 82.6156 173.225 82.8826 173.328C83.9263 173.73 84.7676 174.881 85.8676 175.269C85.6724 175.676 85.4264 175.952 85.125 176.279C82.3009 176.546 80.4801 175.862 77.7697 175.497C75.8609 174.502 74.127 172.995 72.6283 171.469Z"/>
	<path fill="#2B363C" transform="matrix(1.79375 0 0 1.79375 0 -0.00012207)" d="M73.4236 169.8C72.8954 168.119 73.0053 166.364 73.0549 164.628L75.9429 165.304L76.5179 166.557C75.8203 167.196 75.9286 167.757 75.8949 168.697C75.8457 170.074 75.9611 171.449 76.59 172.689C76.249 172.631 75.927 172.548 75.601 172.431C74.3773 171.99 73.9379 170.895 73.4236 169.8Z"/>
	<path fill="#FEFEFE" transform="matrix(1.79375 0 0 1.79375 0 -0.00012207)" d="M77.3135 162.487L78.7514 160.71C80.6112 158.593 83.2719 157.583 86.0239 157.38C86.0304 158.432 85.7625 159.028 85.0346 159.766C83.4266 161.396 79.9094 162.577 77.6191 162.504L77.3135 162.487Z"/>
	<path fill="#2D3337" transform="matrix(1.79375 0 0 1.79375 0 -0.00012207)" d="M77.3135 162.487C76.2679 162.677 75.1925 162.568 74.1572 162.375L73.9757 161.875C74.1881 160.208 75.7929 158.432 77.0766 157.45C78.807 156.125 81.4341 155.08 83.6492 155.437C84.738 155.612 85.4862 155.973 86.125 156.837L86.0239 157.38C83.2719 157.583 80.6112 158.593 78.7514 160.71L77.3135 162.487Z"/>
	<path fill="#EF6233" transform="matrix(1.79375 0 0 1.79375 0 -0.00012207)" d="M206.385 123.966C204.983 122.533 203.305 120.249 202.739 118.294C202.555 117.656 202.362 117.054 202.297 116.387C202.014 113.494 203.182 110.858 205.027 108.682C206.749 106.65 208.986 105.396 211.65 105.194C215.143 104.928 218.19 106.331 220.823 108.559L220.911 108.725C221.98 110.68 223.779 111.587 222.917 114.189C222.295 116.07 220.085 117.563 218.371 118.349C214.978 119.904 212.185 119.657 208.734 118.557L208.541 118.945L208.151 119.278L208.226 119.52C208.56 120.611 208.549 121.716 208.86 122.792C209.13 123.73 209.702 124.592 210.201 125.423C212.001 126.933 213.829 126.736 215.875 127.54C218.28 128.486 220.408 130.622 222.325 132.304C220.767 132.08 219.26 131.804 217.75 131.356C213.901 130.217 209.085 126.996 206.385 123.966Z"/>
	<path fill="#2D3337" transform="matrix(1.79375 0 0 1.79375 0 -0.00012207)" d="M206.475 121.617C205.903 120.235 205.721 118.606 205.439 117.135C206.332 117.147 207.891 118.156 208.734 118.557L208.541 118.945L208.151 119.278C207.459 120.03 206.936 120.703 206.475 121.617Z"/>
	<path fill="#2B363C" transform="matrix(1.79375 0 0 1.79375 0 -0.00012207)" d="M206.475 121.617C206.936 120.703 207.459 120.03 208.151 119.278L208.226 119.52C208.56 120.611 208.549 121.716 208.86 122.792C209.13 123.73 209.702 124.592 210.201 125.423L210.072 125.425C208.697 125.313 207.625 123.502 206.838 122.494L206.475 121.617Z"/>
	<path fill="#FEFEFE" transform="matrix(1.79375 0 0 1.79375 0 -0.00012207)" d="M209.067 116.54C209.777 115.22 210.686 113.899 211.756 112.846C214.095 110.544 216.734 109.802 219.938 109.861C219.733 111.608 219.358 112.841 217.946 113.981C216.728 114.965 215.248 115.583 213.785 116.098C212.251 116.637 210.669 116.561 209.067 116.54Z"/>
	<path fill="#2D3337" transform="matrix(1.79375 0 0 1.79375 0 -0.00012207)" d="M209.067 116.54C207.963 116.568 206.822 116.13 205.772 115.823C206.917 112.722 208.541 110.346 211.569 108.795C213.253 107.933 216.039 107.54 217.835 108.178C218.719 108.492 219.507 109.012 219.938 109.861C216.734 109.802 214.095 110.544 211.756 112.846C210.686 113.899 209.777 115.22 209.067 116.54Z"/>
	<path fill="#EF6233" transform="matrix(1.79375 0 0 1.79375 0 -0.00012207)" d="M121.305 135.455C120.324 135.304 119.601 134.696 118.94 133.995C118.774 133.818 118.256 133.364 118.179 133.154C117.987 132.626 118.034 131.527 117.983 130.934L117.672 122.585L117.352 85.214L120.829 87.656C121.951 88.0691 122.715 88.9238 123.555 89.7393L123.264 115.01C122.693 117.893 122.86 121.265 123.685 124.087L124.26 137.784C123.241 137.067 122.146 136.38 121.305 135.455Z"/>
	<path fill="#2D3337" transform="matrix(1.79375 0 0 1.79375 0 -0.00012207)" d="M120.829 87.656C121.951 88.0691 122.715 88.9238 123.555 89.7393L123.264 115.01C122.693 117.893 122.86 121.265 123.685 124.087L124.26 137.784C123.241 137.067 122.146 136.38 121.305 135.455L120.822 119.596C120.419 108.928 119.857 98.311 120.829 87.656Z"/>
	<path fill="#EF6233" transform="matrix(1.79375 0 0 1.79375 0 -0.00012207)" d="M152.009 175.41C151.565 175.292 151.179 174.971 150.801 174.715C147.126 172.236 143.408 168.956 142.572 164.373C142.085 161.708 142.665 159.008 144.244 156.807C145.858 154.556 148.34 152.808 151.106 152.371C155.569 151.666 158.893 153.838 162.311 156.366C162.459 156.868 162.609 157.332 162.835 157.805C163.3 158.776 163.43 159.898 163.016 160.915C162.41 162.401 160.759 163.422 159.319 163.959C156.555 164.989 153.586 164.948 150.703 164.618L150.031 165.39L149.125 165.094C148.572 165.748 148.632 166.879 148.699 167.728C148.85 169.661 149.514 171.003 150.399 172.678C153.231 173.91 155.885 173.725 158.735 172.62C160.408 171.972 161.892 170.977 163.443 170.091C164.368 170.797 165.438 171.835 166.485 172.311C165.097 174.328 161.533 175.969 159.185 176.37C157.631 176.635 156.136 176.449 154.627 176.036C153.827 175.817 152.834 175.267 152.009 175.41Z"/>
	<path fill="#2B363C" transform="matrix(1.79375 0 0 1.79375 0 -0.00012207)" d="M150.399 172.678C149.68 172.399 148.89 172.1 148.356 171.524C145.985 168.973 145.836 166.24 145.901 162.945L150.703 164.618L150.031 165.39L149.125 165.094C148.572 165.748 148.632 166.879 148.699 167.728C148.85 169.661 149.514 171.003 150.399 172.678Z"/>
	<path fill="#FEFEFE" transform="matrix(1.79375 0 0 1.79375 0 -0.00012207)" d="M150.246 161.703C153.137 158.491 155.707 157.209 160.048 156.882C159.79 158.361 159.127 159.338 157.875 160.187C156.419 161.174 152.359 162.409 150.638 161.903C150.514 161.866 150.348 161.761 150.246 161.703Z"/>
	<path fill="#2D3337" transform="matrix(1.79375 0 0 1.79375 0 -0.00012207)" d="M150.246 161.703C150.147 161.754 149.978 161.852 149.857 161.882C149.16 162.058 147.473 161.783 146.844 161.414C146.837 161.114 146.837 160.913 146.931 160.625C147.625 158.493 150.41 156.507 152.392 155.732C154.097 155.066 156.74 154.592 158.449 155.37C159.263 155.741 159.739 156.036 160.048 156.882C155.707 157.209 153.137 158.491 150.246 161.703Z"/>
	<path fill="#EF6233" transform="matrix(1.79375 0 0 1.79375 0 -0.00012207)" d="M217.392 254.999L217.064 254.931C216.32 254.745 214.356 253.404 214.167 252.7C213.978 251.992 214.46 250.258 214.595 249.461C215.574 243.682 217.551 235.966 215.325 230.316C214.874 229.171 213.858 227.971 213.201 226.9C214.263 227.617 215.219 228.477 216.246 229.242C216.715 229.591 217.297 229.765 217.79 230.097C218.877 230.828 219.689 231.877 220.332 233.003L220.477 233.259C221.892 231.566 223.96 228.607 226.343 228.256C228.325 227.964 230.04 229.475 231.535 230.585L231.645 230.833C232.315 232.318 233.574 233.362 233.816 235L233.865 235.313C234.44 239.115 234.011 243.001 234.03 246.827C234.044 249.567 234.36 252.229 234.713 254.942L233.375 254.655C232.925 254.228 232.03 253.565 231.704 253.068C231.341 252.517 231.279 251.121 231.211 250.474C230.865 247.164 230.966 243.928 231.043 240.607C231.085 238.771 231.566 235.299 230.7 233.688C223.599 239.405 221.948 248.904 219.966 257.292L217.392 254.999Z"/>
	<path fill="#2D3337" transform="matrix(1.79375 0 0 1.79375 0 -0.00012207)" d="M217.392 254.999C217.766 249.54 219.761 243.241 222.292 238.428C223.659 235.826 226.122 231.854 229.13 231.085C229.659 230.95 229.775 231.115 230.194 231.375C230.606 232.225 230.81 232.721 230.7 233.688C223.599 239.405 221.948 248.904 219.966 257.292L217.392 254.999Z"/>
	<path fill="#EF6233" transform="matrix(1.79375 0 0 1.79375 0 -0.00012207)" d="M200.532 250.098C202.132 249.209 203.126 247.53 203.87 245.916C206.883 239.375 206.36 233.567 203.941 227.017L207.44 229.661C209.441 236.057 209.944 243.015 206.691 249.125C205.658 251.065 204.077 253.118 201.875 253.754L200.755 253.99L197.345 251.649C196.568 253.664 195.269 256.121 193.21 257.071C192.285 257.498 191.611 257.496 190.668 257.139C189.723 256.78 188.757 256.1 187.954 255.484L185.914 254.177C183.615 252.549 182.041 249.75 181.603 246.969C180.947 242.8 181.656 238.755 182.48 234.67C182.627 233.942 182.721 232.663 183.146 232.079C183.738 232.686 184.93 234.189 185.703 234.4L185.976 234.463C187.142 234.657 188.113 236.003 188.9 236.838C188.341 240.256 187.487 243.569 187.287 247.04C187.19 248.712 187.389 250.295 187.498 251.953L187.679 251.852C189.033 251.059 189.985 249.703 190.773 248.375C193.57 243.659 194.954 237.908 196.302 232.645L199.499 234.998C200.557 235.352 201.715 236.274 202.23 237.278C202.981 238.74 200.84 243.53 200.585 245.458C200.386 246.966 200.495 248.578 200.532 250.098Z"/>
	<path fill="#2D3337" transform="matrix(1.79375 0 0 1.79375 0 -0.00012207)" d="M187.954 255.484L189.103 255.383C192.574 254.936 193.686 250.521 195.54 248.176L197.345 251.649C196.568 253.664 195.269 256.121 193.21 257.071C192.285 257.498 191.611 257.496 190.668 257.139C189.723 256.78 188.757 256.1 187.954 255.484Z"/>
	<path fill="#2D3337" transform="matrix(1.79375 0 0 1.79375 0 -0.00012207)" d="M199.499 234.998C200.557 235.352 201.715 236.274 202.23 237.278C202.981 238.74 200.84 243.53 200.585 245.458C200.386 246.966 200.495 248.578 200.532 250.098L199.375 250.716C198.751 250.573 198.498 250.326 198.055 249.875C197.038 247.005 197.414 243.7 198.203 240.815C198.701 238.99 199.435 237.193 199.492 235.288L199.499 234.998Z"/>
	<path fill="#2B363C" transform="matrix(1.79375 0 0 1.79375 0 -0.00012207)" d="M185.976 234.463C187.142 234.657 188.113 236.003 188.9 236.838C188.341 240.256 187.487 243.569 187.287 247.04C187.19 248.712 187.389 250.295 187.498 251.953L186.625 252.506L185.991 252.261C184.963 250.904 184.866 249.679 184.7 248.017C184.413 245.136 184.671 242.476 185.157 239.632C185.436 238.005 185.937 236.327 185.973 234.676L185.976 234.463Z"/>
	<path fill="#EF6233" transform="matrix(1.79375 0 0 1.79375 0 -0.00012207)" d="M169.299 119.574L169.799 119.189C170.557 117.532 171.919 111.602 170.789 110.125C169.889 108.949 168.076 108.568 167.511 107L167.75 106.502C169.762 106.249 172.761 108.7 174.367 109.884L176.271 107.893C177.264 106.949 178.577 106.033 180.01 106.106C182.027 106.21 185.718 108.945 187.028 110.419L187.169 110.583C188.534 109.105 189.462 107.786 191.5 107.287C193.23 107.407 194.904 108.849 196.275 109.833C196.467 111.051 197.769 112.329 198.251 113.625L198.484 114.156C199.339 119.101 198.245 124.218 199.06 129.212C193.854 127.382 195.434 120.765 195.492 116.422C195.507 115.351 195.672 114.17 195.186 113.185C192.625 116.005 190.657 119.616 189.723 123.328C189.288 125.058 189.088 126.91 188.772 128.67L185.932 126.571C184.76 126.013 183.236 125.107 182.625 123.902C182.235 123.133 182.846 121.309 182.999 120.51C183.406 118.379 184.354 113.611 183.435 111.703C180.965 113.904 178.604 116.861 177.472 120C176.436 122.872 176.249 125.89 175.112 128.771L172.358 126.518C170.879 126.046 169.697 124.75 168.628 123.683L169.299 119.574Z"/>
	<path fill="#2D3337" transform="matrix(1.79375 0 0 1.79375 0 -0.00012207)" d="M185.932 126.571C186.542 121.723 187.712 116.921 190.687 112.921C191.335 112.049 192.815 110.352 193.966 110.261C194.37 110.228 194.52 110.46 194.824 110.696C195.168 111.612 195.387 112.195 195.186 113.185C192.625 116.005 190.657 119.616 189.723 123.328C189.288 125.058 189.088 126.91 188.772 128.67L185.932 126.571Z"/>
	<path fill="#2D3337" transform="matrix(1.79375 0 0 1.79375 0 -0.00012207)" d="M172.358 126.518C173.672 122.608 173.704 118.84 175.903 115.213C177.188 113.093 179.46 109.468 182.038 108.985C182.58 108.884 182.681 108.999 183.125 109.303C183.336 110.129 183.412 110.855 183.435 111.703C180.965 113.904 178.604 116.861 177.472 120C176.436 122.872 176.249 125.89 175.112 128.771L172.358 126.518Z"/>
	<path fill="#EF6233" transform="matrix(1.79375 0 0 1.79375 0 -0.00012207)" d="M153.787 131.183L151.588 129.801C148.87 127.879 146.994 125.182 146.46 121.865C145.717 117.257 147.154 111.581 149.873 107.835C151.139 106.091 152.796 105.555 154.866 105.266C158.577 104.749 161.193 106.397 164.064 108.534L164.074 108.669C164.231 109.89 165.512 110.653 165.925 111.804C167.619 116.523 165.954 123.502 163.094 127.479C161.784 129.299 159.63 130.918 157.379 131.286C156.249 131.471 154.929 131.261 153.787 131.183Z"/>
	<path fill="#2D3337" transform="matrix(1.79375 0 0 1.79375 0 -0.00012207)" d="M152.942 128.082L152.806 128.248C152.647 128.378 152.428 128.5 152.226 128.45C151.445 128.259 150.849 127.609 150.475 126.915C148.783 123.776 149.582 118.47 150.691 115.264C151.785 112.102 153.39 109.931 156.464 108.487C157.658 107.926 159.825 107.543 161.087 108.087C161.843 108.414 162.357 108.931 162.668 109.688C159.974 110.177 157.009 111.297 155.358 113.647C152.874 117.183 151.869 122.733 152.686 126.945L152.942 128.082Z"/>
	<path fill="#FEFEFE" transform="matrix(1.79375 0 0 1.79375 0 -0.00012207)" d="M162.668 109.688C164.153 113.38 163.004 118.329 161.534 121.84C160.342 124.686 158.477 126.903 155.598 128.104C154.78 128.445 153.975 128.581 153.098 128.397L152.942 128.082L152.686 126.945C151.869 122.733 152.874 117.183 155.358 113.647C157.009 111.297 159.974 110.177 162.668 109.688Z"/>
	<path fill="#EF6233" transform="matrix(1.79375 0 0 1.79375 0 -0.00012207)" d="M163.947 258.357L161.244 256.541C158.742 254.692 156.804 251.35 156.379 248.272C155.789 243.994 157.117 238.697 159.751 235.252C161.085 233.508 164.335 230.933 166.589 230.693C168.978 230.438 172.047 232.731 173.82 234.114L173.856 234.274C174.181 235.528 175.411 236.219 175.957 237.375C178.017 241.735 175.838 248.716 173.652 252.609C172.276 255.059 170.124 257.583 167.312 258.366C166.38 258.625 165.361 258.44 164.412 258.364C164.144 258.342 164.252 258.348 163.947 258.357Z"/>
	<path fill="#2B363C" transform="matrix(1.79375 0 0 1.79375 0 -0.00012207)" d="M159.775 251.658L160.771 252.567C161.17 252.58 161.499 252.609 161.875 252.443C161.869 251.985 161.813 251.456 161.999 251.027L162.101 250.813L162.827 255.579L161.875 255.397C160.519 254.384 160.156 253.264 159.775 251.658Z"/>
	<path fill="#2D3337" transform="matrix(1.79375 0 0 1.79375 0 -0.00012207)" d="M159.775 251.658C159.405 249.919 159.322 248.08 159.565 246.314C159.889 243.967 160.898 240.356 162.536 238.6C163.225 237.862 164.128 237.323 164.875 236.642C165.686 235.902 166.425 234.976 167.321 234.343C168.114 233.783 169.536 233.485 170.48 233.692C171.719 233.964 172.173 234.585 172.838 235.576C169.486 236.046 168.325 238.912 165.475 240.392C163.38 243.753 162.518 246.902 162.101 250.813L161.999 251.027C161.813 251.456 161.869 251.985 161.875 252.443C161.499 252.609 161.17 252.58 160.771 252.567L159.775 251.658Z"/>
	<path fill="#FEFEFE" transform="matrix(1.79375 0 0 1.79375 0 -0.00012207)" d="M162.101 250.813C162.518 246.902 163.38 243.753 165.475 240.392C168.325 238.912 169.486 236.046 172.838 235.576C174.389 238.892 173.2 243.497 172.005 246.75C170.799 250.029 168.79 253.548 165.477 255.056C164.641 255.436 163.746 255.772 162.827 255.579L162.101 250.813Z"/>
	<path fill="#EF6233" transform="matrix(1.79375 0 0 1.79375 0 -0.00012207)" d="M149.12 195.389C150.031 195.16 151.318 193.179 152.202 192.522C152.774 192.096 153.473 191.948 154.118 191.67C155.227 191.192 156.496 190.466 157.699 190.285C160.719 189.832 163.551 191.849 165.835 193.571L165.87 193.725C166.266 195.169 167.731 195.883 167.999 197.375C168.796 201.809 167.825 205.929 165.387 209.712C163.728 212.286 161.024 214.895 157.922 215.534C156.102 215.908 154.772 215.623 152.982 215.593C150.018 213.874 147.381 211.585 146.135 208.3C144.33 203.54 147.113 199.855 148.939 195.729L149.12 195.389Z"/>
	<path fill="#2D3337" transform="matrix(1.79375 0 0 1.79375 0 -0.00012207)" d="M151.984 212.629L151.012 212.399C150.191 212.111 149.727 211.391 149.405 210.625C148.407 208.251 149.165 204.816 150.156 202.535C151.932 198.448 155.475 195.384 159.625 193.825C161.166 193.246 162.099 193.018 163.625 193.76C164.343 194.11 164.711 194.506 164.984 195.253C161.202 195.952 157.008 198.453 154.796 201.625C152.41 205.047 151.638 208.516 151.984 212.629Z"/>
	<path fill="#FEFEFE" transform="matrix(1.79375 0 0 1.79375 0 -0.00012207)" d="M151.984 212.629C151.638 208.516 152.41 205.047 154.796 201.625C157.008 198.453 161.202 195.952 164.984 195.253C165.275 200.212 163.986 204.771 160.653 208.556C158.446 211.06 156.043 212.424 152.694 212.599L151.984 212.629Z"/>
	<path fill="#EF6233" transform="matrix(1.79375 0 0 1.79375 0 -0.00012207)" d="M99.5043 177.458L98.7326 177.039C96.467 175.628 94.5608 173.697 93.9084 171.047L93.747 170.295C93.1812 166.271 95.186 160.507 97.6326 157.332C99.1868 155.315 101.443 153.506 104.042 153.197C107.195 152.822 109.697 154.763 112.063 156.568C113.388 157.654 114.654 158.666 115.696 160.041C115.193 162.758 114.126 165.328 113.642 168.061C113.258 170.225 113.38 172.399 113.59 174.574C114.649 174.375 115.373 173.998 116.324 174.625L118.59 176.266C117.312 177.501 115.924 178.061 114.187 178.346C112.693 177.502 111.349 176.342 110.06 175.218C108.246 177.627 106.752 178.904 103.787 179.597C102.104 179.145 100.873 178.526 99.5043 177.458Z"/>
	<path fill="#2D3337" transform="matrix(1.79375 0 0 1.79375 0 -0.00012207)" d="M99.5043 177.458C100.277 177.474 101.247 177.571 101.986 177.338C104.782 176.456 106.342 174.293 107.729 171.871L110.06 175.218C108.246 177.627 106.752 178.904 103.787 179.597C102.104 179.145 100.873 178.526 99.5043 177.458Z"/>
	<path fill="#2D3337" transform="matrix(1.79375 0 0 1.79375 0 -0.00012207)" d="M113.59 174.574C113.503 174.671 113.475 174.714 113.348 174.789C112.798 175.112 112.546 175.04 111.982 174.875C109.245 172.188 110.543 165.944 111.499 162.625C111.863 161.359 112.572 159.811 112.6 158.498C112.612 157.903 112.205 157.172 112.063 156.568C113.388 157.654 114.654 158.666 115.696 160.041C115.193 162.758 114.126 165.328 113.642 168.061C113.258 170.225 113.38 172.399 113.59 174.574Z"/>
	<path fill="#2D3337" transform="matrix(1.79375 0 0 1.79375 0 -0.00012207)" d="M99.9554 174C99.4324 174.325 98.9635 174.504 98.375 174.681C97.7357 174.393 97.6235 174.175 97.2116 173.625C96.7541 170.179 97.503 166.545 98.9551 163.399C100.275 160.539 102.567 157.457 105.646 156.383C106.496 156.087 107.678 155.723 108.52 156.125C108.649 156.982 108.053 157.91 107.703 158.678C107.784 162.967 105.254 169.125 102.241 172.243C101.58 172.928 100.841 173.63 99.9554 174Z"/>
	<path fill="#FEFEFE" transform="matrix(1.79375 0 0 1.79375 0 -0.00012207)" d="M107.703 158.678C107.784 162.967 105.254 169.125 102.241 172.243C101.58 172.928 100.841 173.63 99.9554 174L100.113 171.863C100.989 166.188 103.011 162.118 107.703 158.678Z"/>
	<path fill="#EF6233" transform="matrix(1.79375 0 0 1.79375 0 -0.00012207)" d="M30.6869 142.604C29.245 141.939 28.2507 141.005 27.192 139.838L26.9506 139.562L37 138.279C37.3046 137.804 37.5184 137.425 37.6574 136.875C38.0743 136.875 38.1003 136.803 38.4421 137.073C39.9941 138.3 41.5916 138.381 43.375 139.018C45.7253 139.858 49.7474 141.856 51.3282 143.804L51.3602 143.934C51.6336 144.893 52.4662 145.703 53.0453 146.5C54.3313 148.27 54.5777 150.788 53.5751 152.74C51.8445 156.11 47.8855 157.966 44.625 159.51C42.5411 160.496 40.3376 161.559 38.125 162.22L37.1122 162.43L34.9973 180.988C33.6685 180.465 32.7572 179.501 31.7458 178.532L36.1802 143.851L33.4962 144.555C32.4823 144.075 31.5773 143.282 30.6869 142.604Z"/>
	<path fill="#2D3337" transform="matrix(1.79375 0 0 1.79375 0 -0.00012207)" d="M30.6869 142.604C31.9831 141.918 34.9529 141.682 36.4209 141.811C36.5421 142.563 36.3771 143.136 36.1802 143.851L33.4962 144.555C32.4823 144.075 31.5773 143.282 30.6869 142.604Z"/>
	<path fill="#2D3337" transform="matrix(1.79375 0 0 1.79375 0 -0.00012207)" d="M40.9844 156.679C40.0188 157.528 38.6358 157.955 37.4571 158.443L40.5843 141.125C42.5774 141.23 44.5045 141.327 46.388 142.051C47.2774 142.393 48.0742 142.781 48.471 143.661C46.8145 143.342 45.2916 143.206 43.6088 143.187L40.9844 156.679Z"/>
	<path fill="#FEFEFE" transform="matrix(1.79375 0 0 1.79375 0 -0.00012207)" d="M40.9844 156.679L43.6088 143.187C45.2916 143.206 46.8145 143.342 48.471 143.661C49.4773 144.057 50.0753 144.444 50.5141 145.503C51.0741 146.854 51.0168 148.193 50.4723 149.536C49.1691 152.748 44.9775 155.198 41.8489 156.412C41.5727 156.519 41.2781 156.641 40.9844 156.679Z"/>
	<path fill="#EF6233" transform="matrix(1.79375 0 0 1.79375 0 -0.00012207)" d="M138.487 256.821C134.739 254.414 132.159 252.255 131.129 247.687C130.287 243.951 130.938 239.607 133.048 236.375C134.231 234.563 136.361 232.909 138.538 232.541C140.727 232.171 142.362 233.036 144.099 234.246L146.67 216.875C147.697 217.53 148.597 218.454 149.5 219.273L149.996 219.222C150.986 219.864 151.727 220.589 152.524 221.455C152.478 227.414 151.816 233.777 150.693 239.645C150.105 242.717 149.125 245.78 148.8 248.891C148.628 250.542 148.613 252.577 149.129 254.163C150.922 254.409 151.645 255.523 153.144 256.278L152.375 257.262C151.524 257.212 150.614 257.089 149.766 257.18C148.499 256.545 147.438 255.403 146.151 254.932C145.403 256.445 144.684 257.719 143.125 258.49C141.349 258.658 139.883 257.864 138.487 256.821Z"/>
	<path fill="#2D3337" transform="matrix(1.79375 0 0 1.79375 0 -0.00012207)" d="M138.487 256.821C138.766 256.717 138.691 256.727 138.922 256.69C139.403 256.614 139.912 256.555 140.369 256.375C141.942 255.755 143.187 253.167 143.865 251.712C144.623 252.126 145.874 254.115 146.151 254.932C145.403 256.445 144.684 257.719 143.125 258.49C141.349 258.658 139.883 257.864 138.487 256.821Z"/>
	<path fill="#2D3337" transform="matrix(1.79375 0 0 1.79375 0 -0.00012207)" d="M149.996 219.222C150.986 219.864 151.727 220.589 152.524 221.455C152.478 227.414 151.816 233.777 150.693 239.645C150.105 242.717 149.125 245.78 148.8 248.891C148.628 250.542 148.613 252.577 149.129 254.163C148.649 254.227 148.093 254.186 147.625 254.061C147.074 253.915 146.689 253.435 146.428 252.955C145.63 251.484 145.632 249.153 145.772 247.5C146.191 242.558 147.857 237.646 148.464 232.669L149.58 223.268C149.726 221.95 149.572 220.477 149.996 219.222Z"/>
	<path fill="#2D3337" transform="matrix(1.79375 0 0 1.79375 0 -0.00012207)" d="M137.07 253.556L136.5 253.74C136.307 253.657 136.12 253.569 135.947 253.447C134.871 252.691 134.424 250.714 134.197 249.495C133.568 246.125 134.089 242.028 136.06 239.192C137.38 237.294 139.34 235.744 141.663 235.361C142.436 235.233 143.101 235.304 143.736 235.75C143.954 236.427 143.714 236.966 143.513 237.617C143.271 242.051 141.624 250.003 138.171 252.996C137.819 253.302 137.514 253.435 137.07 253.556Z"/>
	<path fill="#FEFEFE" transform="matrix(1.79375 0 0 1.79375 0 -0.00012207)" d="M143.513 237.617C143.271 242.051 141.624 250.003 138.171 252.996C137.819 253.302 137.514 253.435 137.07 253.556C136.624 250.172 136.593 246.886 137.717 243.617C138.676 240.827 140.931 238.872 143.513 237.617Z"/>
	<path fill="#EF6233" transform="matrix(1.79375 0 0 1.79375 0 -0.00012207)" d="M81.1024 127.808C81.6073 127.67 81.9941 127.46 82.4153 127.146C83.9921 125.971 85.1196 124.249 86.1603 122.607C89.4672 117.39 91.8601 111.298 92.7916 105.194C93.0819 103.292 93.5713 98.6681 92.4327 97.125C92.2984 97.2381 92.2391 97.3025 92.0632 97.375C91.1641 97.7455 89.4966 95.9126 88.625 95.4659C87.6344 94.9581 86.2139 94.052 85.853 92.9477C85.7237 92.5522 85.8544 92.4825 86.052 92.125L87.3679 91.6217C89.1574 91.2541 91.9047 93.5678 93.2875 94.5701C96.6187 96.9368 98.2314 99.4589 98.9028 103.484C99.2152 105.358 99.1475 107.158 98.934 109.029C96.9236 112.438 95.8661 115.711 96.03 119.671C94.7152 123.454 91.1139 130.962 87.4198 132.73C86.5342 133.154 85.5696 133.12 84.6666 132.769C83.7641 132.419 82.9656 131.948 82.2077 131.351C78.8375 129.605 77.0559 127.049 75.3624 123.767C74.2434 126.287 72.6031 129.083 69.8873 130.115C67.6895 130.95 65.3609 130.084 63.125 130.784C62.0679 130.511 61.5344 129.796 60.7548 129.059C59.354 128.638 58.4625 127.778 57.4497 126.771C57.456 123.34 57.9516 119.892 58.3112 116.483C59.1067 108.945 59.9812 101.423 62.1196 94.126L65.3445 96.391C66.5342 97.0518 67.6475 97.9452 68.3888 99.1038C66.8604 101.82 66.5122 105.198 66.0004 108.25C65.0714 113.79 64.1696 119.588 63.9746 125.203L64.8808 124.69C71.7208 120.402 74.5239 102.784 76.2195 95.38C76.9472 96.0456 77.8395 97.0574 78.7121 97.486L78.9923 97.616C80.2218 98.0371 81.108 99.077 82.0134 99.9698C81.4919 106.798 80.0305 113.498 80.1726 120.375C80.2245 122.891 80.6239 125.344 81.1024 127.808Z"/>
	<path fill="#2D3337" transform="matrix(1.79375 0 0 1.79375 0 -0.00012207)" d="M60.7548 129.059C61.5753 127.989 64.6241 128.74 66.0113 128.361L66.25 128.29L66.7887 128.139C70.8628 126.743 72.5155 121.353 74.3471 117.877C74.3669 119.948 74.8354 121.777 75.3624 123.767C74.2434 126.287 72.6031 129.083 69.8873 130.115C67.6895 130.95 65.3609 130.084 63.125 130.784C62.0679 130.511 61.5344 129.796 60.7548 129.059Z"/>
	<path fill="#2D3337" transform="matrix(1.79375 0 0 1.79375 0 -0.00012207)" d="M78.9923 97.616C80.2218 98.0371 81.108 99.077 82.0134 99.9698C81.4919 106.798 80.0305 113.498 80.1726 120.375C80.2245 122.891 80.6239 125.344 81.1024 127.808C80.6914 127.988 80.3171 127.966 79.875 127.984L79.7543 127.866C78.4961 126.551 78.0721 124.374 77.7768 122.638C77.1621 119.023 77.0362 115.543 77.4165 111.883C77.9089 107.143 79.0498 102.382 78.9923 97.616Z"/>
	<path fill="#2D3337" transform="matrix(1.79375 0 0 1.79375 0 -0.00012207)" d="M65.3445 96.391C66.5342 97.0518 67.6475 97.9452 68.3888 99.1038C66.8604 101.82 66.5122 105.198 66.0004 108.25C65.0714 113.79 64.1696 119.588 63.9746 125.203L60.9872 125.753C60.9182 123.01 61.3376 120.176 61.6323 117.449C62.4116 110.241 63.6252 103.419 65.3445 96.391Z"/>
	<path fill="#2D3337" transform="matrix(1.79375 0 0 1.79375 0 -0.00012207)" d="M82.2077 131.351C84.4449 131.042 85.932 129.881 87.311 128.128C93.2451 120.584 97.5987 108.916 95.7935 99.337C95.6281 98.4595 95.2529 97.5445 94.7032 96.8376C94.191 96.1789 93.3656 95.5736 93.2913 94.7014L93.2875 94.5701C96.6187 96.9368 98.2314 99.4589 98.9028 103.484C99.2152 105.358 99.1475 107.158 98.934 109.029C96.9236 112.438 95.8661 115.711 96.03 119.671C94.7152 123.454 91.1139 130.962 87.4198 132.73C86.5342 133.154 85.5696 133.12 84.6666 132.769C83.7641 132.419 82.9656 131.948 82.2077 131.351Z"/>
</svg>
