<?xml version="1.0" encoding="UTF-8" standalone="no"?>
<!DOCTYPE svg PUBLIC "-//W3C//DTD SVG 1.1//EN" "http://www.w3.org/Graphics/SVG/1.1/DTD/svg11.dtd">
<svg width="100%" height="100%" viewBox="0 0 80 60" version="1.1" xmlns="http://www.w3.org/2000/svg" xmlns:xlink="http://www.w3.org/1999/xlink" xml:space="preserve" xmlns:serif="http://www.serif.com/" style="fill-rule:evenodd;clip-rule:evenodd;stroke-linejoin:round;stroke-miterlimit:2;">
    <g transform="matrix(1,0,0,0.75,0,0)">
        <path d="M80,34.492C80,15.456 62.077,0 40,0C17.923,0 0,15.456 0,34.492C0,43.92 4.475,52.937 12.385,59.446L0,80L19.602,64.163C25.777,67.319 32.822,68.985 40,68.985C62.077,68.985 80,53.529 80,34.492Z" style="fill:white;"/>
        <path d="M80,34.492C80,15.456 62.077,0 40,0C17.923,0 0,15.456 0,34.492C0,43.92 4.475,52.937 12.385,59.446L0,80L19.602,64.163C25.777,67.319 32.822,68.985 40,68.985C62.077,68.985 80,53.529 80,34.492ZM79,34.492C79,41.741 76.238,48.423 71.617,53.858C64.487,62.243 52.971,67.651 40,67.651C32.948,67.651 26.026,66.019 19.96,62.918C19.672,62.771 19.348,62.809 19.084,63.023L4.33,74.943C4.33,74.943 13.164,60.281 13.164,60.281C13.344,59.983 13.419,59.596 13.37,59.22C13.322,58.843 13.154,58.512 12.91,58.311C5.343,52.084 1,43.512 1,34.492C1,27.243 3.762,20.562 8.383,15.127C15.513,6.742 27.029,1.333 40,1.333C52.971,1.333 64.487,6.742 71.617,15.127C76.238,20.562 79,27.243 79,34.492Z"/>
    </g>
</svg>
