<?xml version="1.0" encoding="utf-8" ?>
<svg xmlns="http://www.w3.org/2000/svg" xmlns:xlink="http://www.w3.org/1999/xlink" width="331" height="1060">
	<path fill="#293135" transform="scale(3.31 3.3125)" d="M42.2259 319.672C41.8279 318.911 41.5847 318.086 41.8425 317.234C42.7469 314.245 44.9659 311.111 46.4773 308.33L56.7129 289.552L36.0324 297.292L31.24 299.149C30.8695 299.298 29.9925 299.792 29.625 299.806C29.4773 299.811 29.0795 299.635 28.9224 299.585C28.3065 298.878 28.2644 298.289 28.2246 297.375C28.4204 296.728 28.6667 296.231 29.1958 295.794C30.6814 294.568 32.8045 293.644 34.4915 292.689L45.2516 286.549C43.7688 283.837 41.7893 280.806 39.7834 278.454L23.6503 294.569C21.8633 296.278 17.5512 300.907 15.125 301.018C14.6463 300.344 14.369 299.923 14.5291 299.044C15.0009 296.453 19.6064 293.304 21.5554 291.57L26.5632 286.798C28.4033 284.917 30.0378 282.92 31.5369 280.756C23.2121 282.22 15.1044 283.946 6.65323 284.574C5.50325 284.66 3.65127 285.068 2.625 284.61C2.08883 284.006 1.77723 283.492 1.79703 282.625C1.80968 282.072 2.0664 281.548 2.47319 281.199C3.80101 280.06 5.91843 279.901 7.59294 279.519L13.7728 277.876C19.6523 276.055 25.4454 273.61 31.0844 271.147C32.2003 270.66 34.5427 269.947 35.3076 269.037C35.5752 268.718 35.581 268.472 35.6393 268.068C35.879 266.405 35.8272 264.646 35.9173 262.965L36.3946 250.642L37.6503 224.407L39.4006 193.202C39.5009 190.287 39.9361 187.029 39.744 184.141C39.7092 183.618 39.0459 182.858 38.7318 182.433L35.0479 177.514L31.2636 171.599C27.0529 164.298 24.0436 156.49 22.5277 148.185C19.7703 133.079 22.0281 117.489 25.7901 102.761C27.5634 95.8184 29.4322 88.7038 32.4744 82.1979C30.7279 83.7816 29.3732 85.8566 27.7426 87.5922C24.0495 91.5231 19.8933 94.5674 15.0392 96.9234C12.9711 97.9271 11.0239 98.8205 8.75 99.2393C7.19574 98.7616 6.44855 97.4087 5.70121 96.0085C3.71536 92.2878 4.52687 87.1536 5.70998 83.29C8.20104 75.1553 13.424 68.1285 16.1221 60.0696C17.9168 54.7094 18.0386 48.7599 18.5803 43.1877C19.6858 31.8158 25.0595 23.0054 35.2703 17.6028C38.7598 15.7565 49.6159 11.2595 53.3485 12.4064C54.3601 12.7173 55.3711 13.235 56.325 13.6935C58.4937 11.5243 65.2894 4.73752 68.1597 4.74468C68.568 4.7457 68.6877 4.89079 69.0126 5.125C69.545 6.4473 69.3865 7.36137 68.8359 8.65306C68.5819 9.24901 67.1911 11.318 67.2623 11.729C69.5144 10.9001 73.3997 9.79775 75.7873 10.375C76.479 10.9382 76.7843 11.2539 76.8999 12.1944C76.9842 12.8802 76.703 13.5981 76.2758 14.125C75.1771 15.4801 72.8011 16.6731 71.2748 17.5467C74.1304 18.1743 79.5665 19.2149 81.2576 21.8422C81.712 22.5481 81.8568 23.5984 81.6634 24.4066C81.5299 24.9645 81.1529 25.3502 80.75 25.7355C79.1708 26.2563 77.3603 26.2253 75.7093 26.3326C72.453 26.544 69.396 26.7516 66.3907 28.1737C67.0633 30.2606 67.2941 32.3467 67.6421 34.4965C69.4232 45.5014 68.5537 57.2437 67.8558 68.3342C67.4532 74.734 66.8984 81.5713 67.7919 87.9411C68.7949 95.0915 71.5669 102.464 75.1461 108.701C77.8846 113.473 81.0422 117.933 83.5506 122.85C88.2952 132.152 90.185 142.575 90.7755 152.929C91.3552 163.091 90.7261 173.064 88.3518 182.975C86.5428 190.526 83.6179 198.07 80.0748 204.982C78.6463 207.769 77.0803 211.394 75.0087 213.745L65.0458 205.693L64.6589 227.87C64.5076 232.986 62.5 280.404 63.231 281.507C64.2301 283.014 65.8447 284.505 67.0209 285.911C70.2784 289.806 73.3773 293.841 76.968 297.444C78.5569 299.039 80.3578 300.45 82.2369 301.689L88.0193 305.13C88.8427 305.595 90.2337 306.197 90.8082 306.955C91.0172 307.23 91.132 307.794 91.1313 308.129C91.1296 308.958 91.1449 309.486 90.625 310.153C90.0573 310.163 89.5347 310.136 89.0044 309.917C86.7903 309 84.7068 307.439 82.5611 306.336C81.7024 305.895 80.7261 305.76 79.9174 305.275C77.2278 303.662 74.677 301.709 72.0958 299.921C70.2071 298.613 67.9977 297.334 66.3335 295.754C64.8102 294.309 63.6413 291.715 62.4625 289.935C62.1643 289.484 61.7895 288.699 61.3326 288.46C59.7216 290.555 58.5242 293.09 57.1798 295.371L46.8208 313.486C45.7929 315.287 44.6224 318.195 43.2247 319.664L42.2259 319.672ZM45.3909 190.043C45.6572 192.952 45.3233 195.997 45.1825 198.914L44.6094 211.955L42.6943 255.449L42.2483 265.703C42.1786 267.258 41.8704 269.239 42.1658 270.75C42.4037 271.967 43.5603 273.497 44.1988 274.572C46.0653 277.713 48.2332 280.873 49.2978 284.401C50.5341 283.584 52.7623 282.521 53.6294 281.397C54.663 281.266 56.6143 280.13 57.2504 279.316L58.6412 231.931L59.3942 208.969C59.4419 206.803 59.88 203.756 59.4492 201.705C57.1546 199.483 54.4183 197.671 51.9652 195.622C49.9183 193.912 47.6838 191.316 45.3909 190.043ZM62.0348 203.589C61.9032 203.806 61.6283 204.144 61.5592 204.375C61.2321 205.47 61.4485 207.6 61.425 208.783L61.202 222.748L60.4361 238.968L60.1594 257.09L59.3858 276.35C59.3454 278.63 59.0728 281.49 59.5019 283.702L59.8748 283.417L60.125 282.196L60.5169 282.006C60.8307 281.003 60.761 279.833 60.7988 278.787L61.0016 273.075L61.6286 259.85L61.7777 246.136L62.5696 229.778L62.7664 211.92C62.7846 209.545 63.3407 206.117 62.625 203.916L62.0348 203.589Z"/>
	<path fill="#838CA1" transform="scale(3.31 3.3125)" d="M67.1514 15.5309C67.185 15.7689 67.4473 16.1684 67.4409 16.375C67.4249 16.8881 66.0687 18.2235 65.9655 19.1308C65.9018 19.6912 65.9303 20.2608 66.2902 20.7195C67.6318 21.6114 69.5147 21.4451 71.125 21.6156C71.3325 22.3085 71.92 22.0467 72.2454 22.625L67.8498 23.5879L65.3061 24.7438C64.6766 23.3859 63.9867 21.9756 63.2401 20.677C62.7633 19.8477 62.1306 19.1449 61.875 18.2029C63.692 17.5591 65.2626 16.2154 67.1514 15.5309Z"/>
	<path fill="#656C7C" transform="scale(3.31 3.3125)" d="M46.6912 56.553C46.8881 57.2531 46.683 58.3019 46.6311 59.0365C50.9097 56.3562 54.0694 51.9279 58.2555 49.0572C58.7309 50.4109 59.2227 51.9022 58.6419 53.2869C57.5145 53.4858 57.0676 53.876 56.409 54.8187C54.1906 57.994 51.6734 60.7205 48.8847 63.4024C47.32 64.9071 45.4655 66.6611 43.5477 67.6575C43.4027 66.0669 44.2887 65.037 44.824 63.625C45.3184 62.3209 45.7001 60.9999 46.0556 59.6414C46.2424 58.9275 46.3846 57.035 46.6912 56.553Z"/>
	<path fill="#9F7339" fill-opacity="0.98823529" transform="scale(3.31 3.3125)" d="M62.0348 203.589L62.625 203.916C63.3407 206.117 62.7846 209.545 62.7664 211.92L62.5696 229.778L61.7777 246.136L61.6286 259.85L61.0016 273.075L60.7988 278.787C60.761 279.833 60.8307 281.003 60.5169 282.006L60.125 282.196L59.8748 283.417L59.5019 283.702C59.0728 281.49 59.3454 278.63 59.3858 276.35L60.1594 257.09L60.4361 238.968L61.202 222.748L61.425 208.783C61.4485 207.6 61.2321 205.47 61.5592 204.375C61.6283 204.144 61.9032 203.806 62.0348 203.589Z"/>
	<path fill="#9F7339" transform="scale(3.31 3.3125)" d="M41.5963 186.412L41.8847 186.66L42.2701 186.599C42.4702 186.702 42.6681 186.825 42.8313 186.982C43.3191 187.452 43.6423 188.205 43.6436 188.875L43.1209 202.504L41.2914 243.888L40.1925 268.43C40.1065 269.95 40.3443 272.312 39.9475 273.721C39.7734 274.339 38.9654 275.066 38.53 275.52L34.3224 279.798C33.8419 278.699 33.2805 277.724 32.6251 276.721C30.7904 276.794 29.1108 277.289 27.2596 277.194C29.3817 274.461 34.5549 274.485 37.1099 272.183C37.2999 272.012 37.6658 271.612 37.76 271.375C38.0101 270.745 37.7135 268.392 37.7157 267.621L37.9691 255.883L39.9875 216.321L41.5963 186.412Z"/>
	<path fill="#FDCC7C" transform="scale(3.31 3.3125)" d="M22.1073 45.24C29.9734 47.0328 35.2157 54.6431 42.9684 57.2334C42.8146 58.2168 42.2704 59.3234 41.856 60.2296C40.282 63.6712 37.9314 66.4915 35.6865 69.4882C31.449 75.145 27.2255 81.4436 21.5 85.7097C21.3463 85.5414 21.1878 85.4174 21 85.2889L19.75 86.2388L19.5339 86.125C21.9749 83.7875 24.1481 81.1599 26.249 78.518C29.7743 74.0849 32.9388 69.5646 34.8742 64.1939C35.1926 63.0011 35.8086 61.295 35.3099 60.125L34.625 59.9105C33.896 60.4799 33.5178 62.0918 33.131 62.9507C32.2485 64.9104 31.361 66.8896 30.2202 68.715C26.6422 74.4404 22.238 79.6583 17.304 84.2642C15.214 86.2153 12.9189 88.0919 10.5992 89.7625C9.92064 90.2511 9.12657 90.9566 8.25 90.926C7.93114 90.3395 8.07559 89.8969 8.17086 89.2539C8.45719 87.3212 9.25705 85.4466 9.95655 83.6343C12.3875 77.3361 16.1873 71.6059 18.4664 65.25C20.8213 58.683 20.9355 52.0261 22.1073 45.24Z"/>
	<path fill="#838CA1" transform="scale(3.31 3.3125)" d="M46.6912 56.553C46.7415 54.4617 47.2607 50.3579 45.7282 48.753C45.5711 48.5884 45.3234 48.4629 45.125 48.36C44.2007 48.5918 43.2079 50.4585 42.7592 50.4944C42.1769 50.5411 38.9832 48.5983 38.3361 48.2105C35.0298 46.229 32.1418 43.6784 28.8936 41.6244C27.1175 40.5013 25.1327 39.6236 23.1843 38.8482C25.3504 32.0181 30.6892 27.0402 36.9308 23.8122C40.1391 22.153 43.6381 21.0081 47.1327 20.1384C49.3962 19.5751 51.4344 19.0331 53.7165 19.7628C57.5917 21.0018 60.0885 23.8428 61.8877 27.3594C65.0916 33.6213 65.0057 41.8445 65.0082 48.729L64.4432 70.625C64.1673 77.2406 63.6889 83.6955 64.503 90.3116C65.243 96.3263 67.607 102.264 69.7673 107.875C69.6323 108.177 69.5782 108.44 69.2997 108.625L69.2881 108.542C69.144 107.587 68.6409 107.515 68.2467 106.809L64.0798 99.9265L59.375 91.0828L58.768 90.8195C58.3277 91.3629 58.0616 91.8182 58.1312 92.5374C58.2727 93.9992 58.8604 94.9851 59.4693 96.2802C60.9576 99.4458 62.9729 102.591 64.7728 105.604C65.052 106.071 66.5092 108.182 66.4642 108.625C66.4463 108.802 66.1399 109.251 66.0248 109.389C65.2048 110.365 64.5426 110.052 64.634 111.691C64.7851 114.402 67.2195 118.121 68.387 120.601C68.5562 120.96 69.1403 121.893 69.1605 122.25C69.165 122.33 68.9182 122.789 68.875 122.885C67.9551 123.015 67.6456 122.956 67.0037 123.625C66.2796 125.691 66.7332 128.955 66.7731 131.167L66.964 131.417L67.0245 132.625C67.3275 133.07 67.3708 133.259 67.916 133.401C68.9373 131.883 68.381 128.778 68.2801 126.954C69.5669 126.894 70.6488 127.473 71.875 126.826C73.2048 123.366 69.651 119.242 68.7593 116.125L69.3014 115.625C69.7539 115.968 70.1925 116.356 70.75 116.506C72.8493 114.705 70.663 113.619 71.0301 111.793L71.625 111.629C76.3651 119.859 82.3254 128.149 84.9327 137.367C86.6625 143.483 87.3513 149.792 87.523 156.131C87.6215 159.772 87.7202 163.546 87.3882 167.17C86.1284 180.921 81.3505 193.715 74.6404 205.691L62.9893 196.867C56.7063 192.135 50.4985 187.39 45.033 181.696C38.4448 174.833 33.3987 166.847 29.4652 158.222C22.9251 143.882 24.2967 127.403 27.375 112.428C28.8226 105.386 30.6355 98.433 33.1467 91.6961C34.1259 88.7401 35.3517 85.9119 36.5364 83.0354C37.2525 81.2968 37.9761 79.0577 39.1909 77.6079C40.1881 76.4177 42.6772 75.4622 44.0515 74.6588C45.4416 73.8463 46.8388 72.8084 48.1242 71.8373C51.3602 69.3925 54.179 66.1287 56.8975 63.1282C58.2346 61.0974 59.823 59.1928 60.1026 56.7029C60.219 55.6671 59.2604 54.0685 58.6419 53.2869C59.2227 51.9022 58.7309 50.4109 58.2555 49.0572C54.0694 51.9279 50.9097 56.3562 46.6311 59.0365C46.683 58.3019 46.8881 57.2531 46.6912 56.553Z"/>
	<path fill="#293135" transform="scale(3.31 3.3125)" d="M52.5506 39.5129C53.3471 39.5117 53.6335 39.4362 54.3162 39.875C54.8508 40.9746 54.8444 42.1419 54.6231 43.3302C54.5641 43.6474 55.7339 45.3333 55.7696 46.1147C55.8021 46.8262 55.5853 47.2293 55.125 47.7402C53.9831 47.6408 54.266 47.0084 53.25 46.7348C52.7759 46.952 52.3671 46.9723 51.8573 46.9895C51.5677 46.2767 51.5144 45.8164 51.497 45.0615C51.4834 44.4695 51.422 44.1955 51 43.7869C50.1317 43.9373 49.3478 44.2818 48.5 44.4274L47.8142 43.9263C47.3479 42.9324 47.3742 42.3374 47.5684 41.293C48.8661 40.0776 50.8303 39.9331 52.5506 39.5129Z"/>
	<path fill="#293135" transform="scale(3.31 3.3125)" d="M35.2259 33.648C37.4045 33.4358 39.9578 33.2262 42.125 33.5191L42.4746 34C42.5268 35.0787 42.1514 35.8549 41.874 36.869C41.4048 38.585 40.9965 40.5084 40.0008 42.0193C39.2584 43.1459 38.0363 43.4764 36.7727 43.7345C35.9222 43.3178 34.9747 42.9779 34.2742 42.3196C33.3333 41.4354 32.6636 39.9913 32.632 38.701L32.6305 38.625C31.7648 37.9267 31.508 37.7142 30.375 37.5538C29.8934 37.0827 29.7195 36.9229 29.6316 36.2241C29.5342 35.4496 29.8149 34.664 30.2829 34.0582L35.2259 33.648Z"/>
	<path fill="#293135" transform="scale(3.31 3.3125)" d="M66.4678 162.043C66.9773 162.122 67.285 162.244 67.6967 162.555C69.1869 168.014 67.9377 172.918 68.0491 178.375L68.5 178.697C70.215 177.91 72.0065 173.802 72.9099 172.077C73.3513 171.234 73.6066 170.431 74.5 169.986L74.9558 170.257C75.7951 171.338 75.7446 172.591 75.7005 173.883C75.654 175.249 75.6163 176.647 75.4455 178.004C75.2637 179.448 74.9376 180.666 75.1073 182.148C76.2285 181.859 77.8757 179.268 78.7654 178.375L79.2902 178.416L80.2372 179.561L80.75 179.527C81.3912 178.651 81.8764 177.605 82.4324 176.669L82.9992 176.605L83.1077 176.846C83.7473 178.308 83.4119 179.501 82.833 180.94C82.3409 182.163 80.9245 185.249 79.75 185.763C79.053 185.416 79.0206 185.066 78.6944 184.375C78.259 184.603 77.7753 184.421 77.375 184.576C76.5026 184.912 76.1374 186.441 74.784 186.71C74.231 186.82 74.0836 186.643 73.6504 186.346C72.3799 184.236 73.0312 181.085 73.3593 178.75L72.6437 178.375C70.886 179.812 70.6634 181.772 68.25 182.751C67.5236 182.531 67.0492 182.27 66.6567 181.564L66.5986 181.446C66.0966 180.305 66.1932 178.654 66.2543 177.435C66.3958 174.611 66.9102 171.742 66.854 168.914C66.8118 166.79 65.8968 164.051 66.4678 162.043Z"/>
	<path fill="#656C7C" transform="scale(3.31 3.3125)" d="M56.8975 63.1282C57.4802 66.5825 54.0766 72.1063 52.1448 74.8216C48.0492 80.578 42.4669 86.5109 36.4043 90.1911C35.5073 90.7356 34.5921 91.4644 33.5464 91.6411L33.1467 91.6961C34.1259 88.7401 35.3517 85.9119 36.5364 83.0354C37.2525 81.2968 37.9761 79.0577 39.1909 77.6079C40.1881 76.4177 42.6772 75.4622 44.0515 74.6588C45.4416 73.8463 46.8388 72.8084 48.1242 71.8373C51.3602 69.3925 54.179 66.1287 56.8975 63.1282Z"/>
	<path fill="#293135" transform="scale(3.31 3.3125)" d="M27.7143 130.291L27.8183 130.312C28.1072 130.377 28.6428 130.592 28.7852 130.875C29.1039 131.508 29.1786 132.987 29.264 133.711L30.0354 139.735C30.1238 140.4 30.132 141.489 30.5172 142.046L30.5745 142.125L30.6556 142.25L31 141.877L31.625 142.309C31.7625 141.584 32.0128 141.293 32.5734 140.828L33.0103 140.875C34.4359 141.837 34.62 144.158 34.9947 145.696C35.1675 146.405 35.476 147.096 35.619 147.808C35.752 148.47 36.1752 148.884 36.6135 149.375C36.8182 147.969 36.8344 145.942 37.788 144.828C38.127 144.432 38.2344 144.467 38.7512 144.427C41.2052 146.497 42.3412 149.097 43.9219 151.808C44.7485 149.465 43.4936 146.274 45.375 144.379C48.1505 144.761 50.4059 150.546 52.1092 152.672C52.4015 150.387 50.989 148.13 51.4759 145.778C51.5914 145.22 52.0303 144.78 52.5 144.491C54.793 145.724 55.9546 148.439 57.5389 150.375L58.0566 150.176C58.6327 149.9 57.1465 144.903 57.7137 143.5C57.9101 143.014 58.1772 142.882 58.625 142.678L59.221 142.988C60.6124 143.816 62.767 147.286 63.1712 148.875L63.75 149.043L64.5728 148.589C67.0189 148.819 68.5448 153.791 69.612 155.797C69.9633 156.458 69.8718 156.881 70.5335 157.375L71.5 157.182C72.1899 157.601 72.2778 158.076 72.5975 158.788C72.2365 160.04 72.1347 160.931 70.9231 161.625C67.8243 160.637 67.9315 154.838 65.5 153.292C65.137 153.606 64.8385 153.855 64.375 154.016C62.9907 153.521 62.1784 151.58 61.3961 150.375L61 150.765L60.6912 150.507C60.5755 150.606 60.7137 154.702 60.4893 155.425C60.3405 155.905 59.9291 156.247 59.5 156.473C56.9509 155.051 55.8421 152.073 53.9357 149.97C54.2755 151.788 55.0399 154.701 53.9349 156.35C53.6102 156.835 53.4198 156.836 52.875 156.951C50.7402 156.576 49.2623 153.018 48.3085 151.394C47.7097 150.374 46.9733 149.426 46.2463 148.495L45.8952 154.338C45.7426 155.512 45.5862 156.026 44.625 156.767C42.96 156.302 42.3735 153.935 41.6416 152.513C41.0628 151.389 40.4209 150.338 39.6835 149.31C39.6017 149.318 39.1635 149.332 39.125 149.364C39.0041 149.466 38.7319 150.372 38.6505 150.573C38.2556 151.548 37.7333 152.665 36.984 153.403C36.611 153.77 36.3706 153.674 35.875 153.671C34.3965 152.042 34.1999 150.63 33.7022 148.563L31.5 150.793C30.9336 150.806 30.8542 150.795 30.375 150.496C30.0681 149.891 29.6861 149.222 29.5074 148.568C28.7045 145.629 28.5737 142.074 28.228 139.027C27.9198 136.311 27.0211 132.957 27.7143 130.291Z"/>
</svg>
