<?xml version="1.0" encoding="utf-8" ?>
<svg xmlns="http://www.w3.org/2000/svg" xmlns:xlink="http://www.w3.org/1999/xlink" width="1000" height="600">
	<path fill="#838383" d="M92.0482 276.314C94.9031 281.02 97.7161 285.21 101.269 289.443C101.614 297.106 100.622 303.898 95.1757 309.76C91.3019 313.929 83.9755 317.636 78.3007 317.8C72.6023 317.964 67.1419 314.869 63.2018 310.993C61.7049 309.52 60.2288 308.056 59.0512 306.308L63.8025 308.016C69.0866 309.468 74.1187 308.761 78.8574 305.969C85.301 302.172 89.6154 298.095 91.5194 290.634C92.6936 286.033 92.1993 281.03 92.0482 276.314Z"/>
	<path fill="#838383" d="M592.879 363.75C599.732 368.905 604.71 375.999 605.923 384.62C607.358 394.814 605.134 405.596 598.745 413.826C595.341 418.211 590.419 422.313 584.717 423.049C579.02 423.784 573.325 422.335 568.8 418.727C566.499 416.892 564.739 414.548 563.102 412.123C568.973 414.248 574.02 415.241 579.993 412.812C586.631 410.112 591.659 403.147 594.285 396.717C599.058 385.025 597.677 374.999 592.879 363.75Z"/>
	<path fill="#838383" d="M487.928 114.756C498.287 123.065 504.653 136.422 506.13 149.507C506.817 155.592 508.019 164.303 503.833 169.335C500.905 172.854 493.885 174.822 489.453 175.184C478.235 176.103 466.395 172.164 457.929 164.687C456.475 163.403 455.25 161.803 454.253 160.144L462.727 163.752C471.421 166.969 481.471 167.574 490.013 163.566C492.945 162.19 495.449 160.429 496.56 157.251C497.731 153.902 497.709 150.168 497.596 146.665C497.204 134.413 492.926 125.562 487.928 114.756Z"/>
	<path fill="#838383" d="M808.48 367.657C813.385 369.431 818.517 378.184 820.604 382.648C825.487 393.093 824.75 407.426 820.825 418.117C818.623 424.113 814.666 429.913 808.694 432.614C807.546 433.133 806.377 433.381 805.172 433.71C800.158 435.079 794.063 433.303 789.746 430.724C786.035 428.506 783.845 425.617 780.779 422.738C782.088 422.817 783.066 423.184 784.292 423.591C790.045 425.502 795.468 425.796 800.977 422.961C806.934 419.894 810.512 413.021 812.485 406.908C815.132 398.705 815.822 387.543 813.534 379.226C812.401 375.109 810.44 371.422 808.48 367.657Z"/>
	<path fill="#838383" d="M817.681 457.535C821.646 458.73 825.523 464.398 827.416 467.941C830.24 473.229 831.749 478.869 832.522 484.787C832.768 486.677 833.265 488.764 832.735 490.632C833.361 494.421 833.184 498.432 833.22 502.27C833.235 503.876 833.467 505.654 832.843 507.163C833.882 509.97 833.47 513.46 833.428 516.444C833.274 527.295 832.785 538.693 828.185 548.681C825.964 553.505 822.921 559.293 817.581 561.147C815.24 561.96 812.789 561.682 810.602 560.583C806.89 558.717 805.397 554.733 802.161 552.691C804.755 552.762 807.111 552.92 809.508 551.763C815.299 548.969 818.812 541.136 820.828 535.324C824.956 523.422 824.325 509.606 824.246 497.145C824.196 489.16 824.402 480.82 822.96 472.936C821.952 467.422 820.126 462.552 817.681 457.535Z"/>
	<path fill="#838383" d="M483.58 531.689C485.643 534.481 487.725 536.869 490.278 539.225C490.89 540.489 491.442 541.545 492.407 542.593C491.357 551.651 487.519 559.564 480.295 565.326C478.064 567.106 475.639 568.347 472.9 569.162C468.695 570.413 464.06 570.633 459.717 571.11C447.872 572.412 434.785 573.645 422.911 572.233C412.863 571.038 402.447 567.049 396.098 558.86L395.177 557.603C401.489 560.095 407.057 562.321 413.85 563.203C424.726 564.616 436.784 563.495 447.672 562.412C455.246 561.659 464.675 561.531 470.908 556.611C478.992 550.229 482.469 541.735 483.58 531.689Z"/>
	<path fill="#838383" d="M489.809 201.147C494.118 203 496.771 205.718 498.51 210.058C501.265 216.937 501.038 225.102 501.39 232.431C502.129 247.827 502.715 263.48 500.406 278.78C499.547 284.472 497.955 290.322 495.661 295.606C493.862 299.75 491.007 305.021 486.52 306.717C484.681 307.413 482.169 307.249 480.414 306.365C476.992 304.642 474.796 301.622 472.881 298.415L475.752 298.135C479.404 297.406 481.848 294.929 483.8 291.877C486.74 287.281 488.503 281.931 489.827 276.671C493.563 261.836 493.216 245.639 492.613 230.446C492.221 220.554 491.857 210.862 489.809 201.147Z"/>
	<path fill="#838383" d="M954.507 361.739C958.139 362.697 961.704 367.692 963.546 370.828C967.342 377.287 968.991 384.986 970.516 392.243C978.593 430.653 975.874 471.511 973.569 510.415L971.671 536.625C971.162 542.224 970.838 547.821 969.403 553.283C967.721 559.689 964.211 564.963 958.378 568.27C954.142 570.672 948.317 571.901 943.574 570.512C936.016 568.298 932.403 563.125 926.565 558.619C929.162 558.829 931.088 560.363 933.47 561.239C938.238 562.994 944.116 561.833 948.546 559.658C954.159 556.903 957.668 552.206 959.625 546.367C961.511 540.745 961.867 535.049 962.406 529.211L964.261 504.583C966.37 470.412 968.373 435.958 964.437 401.842C962.881 388.356 960.565 374.006 954.507 361.739Z"/>
	<path fill="#838383" d="M558.127 93.9011C566.84 100.104 569.721 108.499 572.535 118.281C574.471 125.013 575.991 131.868 577.15 138.776C578.829 148.782 579.72 159.009 580.021 169.152C580.804 195.433 579.155 221.859 578.321 248.127L577.38 274.674C577.263 279.655 577.733 284.422 577.131 289.412C576.745 292.613 575.715 296.744 573.837 299.399C570.459 304.178 564.652 307.027 558.94 307.933C553.978 308.719 548.208 308.197 544.086 305.124C541.654 303.31 539.208 300.581 537.529 298.052C542.756 299.284 547.307 299.823 552.6 298.288C557.698 296.81 562.882 294.145 565.467 289.272C567.133 286.131 567.847 282.126 568.235 278.599C568.745 273.95 568.299 269.046 568.359 264.361L569.074 243.82L570.773 190.911C571.164 174.332 571.448 157.678 569.589 141.167C568.144 128.331 565.595 115.943 561.722 103.611C560.681 100.295 559.145 97.2189 558.127 93.9011Z"/>
	<path fill="#838383" d="M697.695 102.036C701.349 103.132 704.383 106.432 706.141 109.718C714.141 124.67 706.227 152.366 701.915 168.118L696.533 187.497C695.788 189.89 693.497 194.542 693.586 196.944C693.631 198.153 694.589 200.097 694.98 201.334L698.671 213.344L710.185 258.917C712.265 268.879 715.04 279.719 713.615 289.911C712.381 298.737 707.335 307.577 699.219 311.793C695.717 313.612 691.532 314.154 687.744 312.866C683.123 311.294 678.688 308.631 675.248 305.151C673.987 303.875 672.82 302.234 671.331 301.249C674.714 301.83 677.556 303.751 680.908 304.413C684.995 305.22 689.033 303.79 692.394 301.48C698.212 297.48 702.817 290.271 704.149 283.392C706.366 271.938 703.139 259.406 700.747 248.22L689.38 203.865L685.791 192.081C685.468 191.052 684.444 188.86 684.463 187.853C684.484 186.757 685.296 185.073 685.652 183.995L688.183 175.897C691.668 163.574 695.377 151.115 697.824 138.54C699.513 129.864 702.74 109.535 697.695 102.036Z"/>
	<path fill="#838383" d="M672.765 356.398C677.135 357.997 680.993 363.418 682.89 367.447C685.135 372.214 685.117 377.269 685.506 382.386L686.589 408.816L687.681 456.225L688.778 479.872C689.035 484.149 689.651 488.562 689.618 492.84C689.6 495.171 688.799 497.772 688.59 500.163C687.294 514.953 687.023 531.22 681.781 545.256C678.615 553.731 672.999 561.095 664.621 564.939C660.503 566.829 654.79 568.275 650.36 566.6C645.345 564.703 642.764 561.041 639.112 557.475C640.979 557.478 642.716 558.107 644.554 558.296C649.138 558.768 654.623 556.801 658.463 554.41C676.271 543.319 677.368 518.023 678.978 499.28C679.398 494.389 679.496 489.772 680.483 484.942C681.172 481.574 680.048 476.842 679.849 473.36L678.568 445.737C677.55 420.04 678.503 394.052 676.05 368.44C675.655 364.313 675.077 359.953 672.765 356.398Z"/>
	<path fill="#838383" d="M185.717 107.439L188.987 110.493C201.32 119.208 206.132 137.209 208.553 151.299C212.448 173.967 211.436 197.699 212.948 220.612L216.877 269.961C217.47 278.54 218.287 287.629 217.891 296.227C217.709 300.177 216.76 304.285 214.465 307.572C210.825 312.785 204.131 315.98 197.986 316.972C191.951 317.945 186.459 317.325 181.413 313.706C178.89 311.897 176.501 309.314 174.888 306.669C171.802 304.312 169.03 302.331 167.018 298.938C169.162 299.806 171.167 301.024 173.398 301.681C178.041 303.049 183.683 302.467 188.243 300.979C193.571 299.241 199.112 295.598 201.588 290.428C203.278 286.899 203.767 283.327 203.821 279.463C204.156 255.281 200.486 230.862 198.933 206.744C197.455 183.787 198.054 160.511 194.591 137.726C193.679 131.723 192.47 125.609 190.548 119.841L185.717 107.439Z"/>
	<path fill="#EC5E31" d="M185.717 107.439L188.987 110.493L193.973 121.642C196.448 127.937 198.048 134.555 199.175 141.216C203.169 164.819 202.433 189.15 203.977 212.98L208.046 266.314C208.395 272.417 208.946 278.676 208.901 284.791C208.874 288.476 208.362 292.45 206.864 295.842C204.568 301.039 199.487 304.618 194.29 306.563C187.497 309.106 181.648 308.748 174.888 306.669C171.802 304.312 169.03 302.331 167.018 298.938C169.162 299.806 171.167 301.024 173.398 301.681C178.041 303.049 183.683 302.467 188.243 300.979C193.571 299.241 199.112 295.598 201.588 290.428C203.278 286.899 203.767 283.327 203.821 279.463C204.156 255.281 200.486 230.862 198.933 206.744C197.455 183.787 198.054 160.511 194.591 137.726C193.679 131.723 192.47 125.609 190.548 119.841L185.717 107.439Z"/>
	<path fill="#2A3034" d="M529.438 290.076L523.933 283.708C518.307 276.089 515.681 266.03 514.339 256.771C510.891 232.965 513.191 208.452 513.254 184.484L513.268 142.344C513.282 130.418 513.094 118.172 514.849 106.348C516.272 96.7573 520.107 84.8279 528.34 78.8886C531.742 76.4338 535.175 75.8549 539.234 76.6268C545.725 77.8615 550.534 84.5596 554.008 89.7226L558.127 93.9011C559.145 97.2189 560.681 100.295 561.722 103.611C565.595 115.943 568.144 128.331 569.589 141.167C571.448 157.678 571.164 174.332 570.773 190.911L569.074 243.82L568.359 264.361C568.299 269.046 568.745 273.95 568.235 278.599C567.847 282.126 567.133 286.131 565.467 289.272C562.882 294.145 557.698 296.81 552.6 298.288C547.307 299.823 542.756 299.284 537.529 298.052C534.412 295.996 531.555 293.148 529.438 290.076Z"/>
	<path fill="#EC5E31" d="M554.008 89.7226L558.127 93.9011C559.145 97.2189 560.681 100.295 561.722 103.611C565.595 115.943 568.144 128.331 569.589 141.167C571.448 157.678 571.164 174.332 570.773 190.911L569.074 243.82L568.359 264.361C568.299 269.046 568.745 273.95 568.235 278.599C567.847 282.126 567.133 286.131 565.467 289.272C562.882 294.145 557.698 296.81 552.6 298.288C547.307 299.823 542.756 299.284 537.529 298.052C534.412 295.996 531.555 293.148 529.438 290.076L531.701 291.216C537.456 293.972 544.075 293.756 550.014 291.583C554.36 289.992 558.856 286.949 560.793 282.609C562.248 279.35 563.011 275.494 563.338 271.948C563.845 266.452 563.381 260.693 563.472 255.16L564.475 225.395C565.333 196.115 567.753 166.329 564.81 137.129C563.172 120.884 559.677 105.049 554.008 89.7226Z"/>
	<path fill="#EC5E31" d="M560.156 136.408C560.426 137.164 560.626 137.91 560.748 138.706C562.299 148.81 562.082 160.1 562.032 170.311L560.228 225.052L559.129 258.923C558.947 264.366 559.131 270.106 558.587 275.502C558.52 276.167 558.323 276.639 557.913 277.162C556.54 278.911 555.466 280.234 553.536 281.447C548.869 284.379 541.548 285.658 536.178 284.292C531.208 283.027 527.454 279.118 524.926 274.834C520.703 267.675 518.87 258.351 518.03 250.146C516.272 232.981 518.002 214.966 518.152 197.712L518.178 155.852C518.122 139.12 517.287 120.483 521.538 104.249C523.093 98.3085 527.381 88.0829 533.237 85.1923C535.507 84.0719 538.246 84.5742 540.472 85.5174C545.477 87.6378 549.19 92.6296 551.187 97.5245C556.571 109.192 558.937 123.661 560.156 136.408Z"/>
	<path fill="#FEFEFE" d="M560.156 136.408C559.86 139.34 560.073 142.324 557.861 144.465L556.605 144.065C554.577 141.361 555.342 127.128 554.936 122.862C554.538 118.685 553.745 114.453 551.957 110.63C548.992 104.289 544.902 101.232 538.524 98.8609C538.082 98.2955 537.78 97.7592 537.668 97.0366C537.429 95.4882 537.751 93.4601 538.711 92.189C539.146 91.6136 539.379 91.3057 540.11 91.2478C543.961 90.9425 548.514 95.1069 551.187 97.5245C556.571 109.192 558.937 123.661 560.156 136.408Z"/>
	<path fill="#2A3034" d="M614.726 487.326C614.949 487.052 615.727 486.29 615.803 486.005C616.2 484.516 615.738 481.496 615.717 479.881L615.589 460.864L617.212 403.124C617.773 389.634 617.838 375.724 620.217 362.405C621.285 356.424 622.717 349.623 626.671 344.867C630.809 339.889 637.129 335.517 643.714 334.95C649.853 334.421 656.565 338.698 661.143 342.563C663.436 344.498 668.23 349.011 668.49 351.994C670.333 352.819 671.348 354.06 672.63 355.564L672.765 356.398C675.077 359.953 675.655 364.313 676.05 368.44C678.503 394.052 677.55 420.04 678.568 445.737L679.849 473.36C680.048 476.842 681.172 481.574 680.483 484.942C679.496 489.772 679.398 494.389 678.978 499.28C677.368 518.023 676.271 543.319 658.463 554.41C654.623 556.801 649.138 558.768 644.554 558.296C642.716 558.107 640.979 557.478 639.112 557.475C638.703 556.175 635.894 554.538 634.799 553.545C633.372 552.253 632.103 550.716 630.764 549.325C629.848 546.658 626.024 543.644 624.464 540.999C622.889 538.328 621.638 535.314 620.676 532.368C619.872 529.908 619.726 526.423 617.778 524.796C617.951 524.436 618.096 524.079 618.174 523.684C618.42 522.441 617.96 520.938 617.802 519.691L617.013 512.203L616.252 496.132C616.193 494.273 616.38 490.381 615.717 488.69C615.555 488.276 615.001 487.704 614.726 487.326Z"/>
	<path fill="#EC5E31" d="M668.49 351.994C670.333 352.819 671.348 354.06 672.63 355.564L672.765 356.398C675.077 359.953 675.655 364.313 676.05 368.44C678.503 394.052 677.55 420.04 678.568 445.737L679.849 473.36C680.048 476.842 681.172 481.574 680.483 484.942C679.496 489.772 679.398 494.389 678.978 499.28C677.368 518.023 676.271 543.319 658.463 554.41C654.623 556.801 649.138 558.768 644.554 558.296C642.716 558.107 640.979 557.478 639.112 557.475C638.703 556.175 635.894 554.538 634.799 553.545C633.372 552.253 632.103 550.716 630.764 549.325C633.171 549.606 635.074 551.268 637.373 551.952C642.059 553.347 648.579 551.233 652.644 548.919C671.312 538.295 672.207 512.07 673.958 493.192C674.335 489.133 674.044 484.288 675.134 480.38C675.35 479.605 675.569 478.828 675.636 478.022C675.884 475.037 675.097 471.669 674.927 468.653L673.755 443.922L673.026 420.266C672.843 409.418 673.231 357.673 668.49 351.994Z"/>
	<path fill="#EC5E31" d="M667.292 380.734C668.79 383.505 668.244 389.671 668.324 392.863L669.032 424.354C669.536 443.575 671.06 462.866 670.338 482.099C669.883 494.235 669.003 507.851 665.831 519.573C663.531 528.076 659.264 536.363 651.303 540.795C646.848 543.275 642.101 544.717 637.03 543.271C632.416 541.955 629.255 538.76 626.957 534.642C624.308 529.896 622.83 524.125 622.119 518.75C620.52 506.652 620.63 493.674 620.601 481.458L621.96 418.145L623.565 383.238C624.198 375.716 624.752 368.066 626.921 360.788C628.984 353.864 632.171 348.441 638.807 344.94C642.179 343.161 645.439 342.681 649.078 343.914C650.923 344.538 654.433 345.934 655.265 347.639C660.108 349.877 664.352 354.608 666.148 359.654C667.797 364.285 667.62 369.608 667.778 374.474C667.846 376.557 668.151 378.786 667.292 380.734Z"/>
	<path fill="#FEFEFE" d="M667.292 380.734C666.321 379.128 666.148 376.862 665.801 375.037C664.786 369.689 663.375 364.219 659.646 360.049C658.081 358.299 656.034 356.698 653.926 355.655C651.723 354.566 648.903 353.879 647.217 352.044C646.594 350.111 646.313 348.535 647.123 346.588C647.558 345.546 647.655 345.467 648.682 345.015C651.071 345.551 653.087 346.541 655.265 347.639C660.108 349.877 664.352 354.608 666.148 359.654C667.797 364.285 667.62 369.608 667.778 374.474C667.846 376.557 668.151 378.786 667.292 380.734Z"/>
	<path fill="#2A3034" d="M376.675 451.614C377.521 445.91 376.789 439.514 376.676 433.748C376.267 412.928 373.592 390.308 377.96 369.813C380.157 359.51 384.932 349.362 394.054 343.491C406.974 335.175 425.148 336.565 439.525 339.659C451.056 342.141 461.597 346.702 468.16 356.915C469.961 358.591 471.463 360.189 472.845 362.229C477.858 365.743 480.382 368.818 482.993 374.372L478.477 394.831C475.224 397.476 472.139 399.809 468.26 401.508C458.875 405.62 441.534 406.907 436.548 416.808C438.624 418.89 445.41 419.525 448.441 420.357C453.468 421.737 459.852 423.887 463.85 427.265C466.117 429.18 467.635 431.57 469.38 433.928C471.263 435.756 472.743 437.667 474.231 439.826C479.253 443.04 482.826 446.639 484.154 452.655C485.71 459.709 483.767 466.844 479.861 472.783C477.491 476.388 474.005 479.441 470.061 481.215C461.305 485.154 444.447 484.972 440.564 495.152L439.908 496.897L440.34 497.074C443.608 498.367 447.319 498.493 450.758 499.123C461.143 501.025 470.748 505.6 476.207 515.068L478.537 516.909C479.916 522.037 481.094 526.951 483.58 531.689C482.469 541.735 478.992 550.229 470.908 556.611C464.675 561.531 455.246 561.659 447.672 562.412C436.784 563.495 424.726 564.616 413.85 563.203C407.057 562.321 401.489 560.095 395.177 557.603C391.77 554.952 388.928 552.383 386.409 548.85C383.188 545.619 380.157 542.152 378.529 537.824C376.193 531.615 376.779 524.746 376.918 518.227L377.288 496.98C377.348 492.817 377.632 488.479 377.191 484.343L377.144 483.927C376.754 480.455 377.206 476.605 377.261 473.092C377.372 465.996 377.403 458.676 376.675 451.614Z"/>
	<path fill="#EC5E31" d="M468.16 356.915C469.961 358.591 471.463 360.189 472.845 362.229C474.914 368.67 476.278 374.742 472.925 381.091C465.595 394.971 446.022 394.913 433.662 401.669C431.579 402.808 429.066 404.341 428.071 406.602C427.485 407.935 427.798 409.54 427.983 410.937C426.121 409.188 423.654 406.396 423.021 403.872C420.595 394.201 448.778 389.055 454.975 386.15C459.872 383.855 464.913 380.305 467.666 375.52C471.102 369.548 469.865 363.181 468.16 356.915Z"/>
	<path fill="#EC5E31" d="M432.434 492.928C429.853 490.211 426.89 486.327 426.384 482.488C424.931 471.451 449.512 469.383 456.858 465.805C460.058 464.245 463.015 461.557 465.145 458.731C468.473 454.314 470.763 448.078 470.624 442.517C470.552 439.627 469.791 436.786 469.38 433.928C471.263 435.756 472.743 437.667 474.231 439.826C476.207 448.374 476.127 455.434 471.224 463.136C469.032 466.579 465.866 469.726 462.214 471.598C454.962 475.316 428.765 477.459 431.48 489.422L432.434 492.928Z"/>
	<path fill="#EC5E31" d="M476.207 515.068L478.537 516.909C479.916 522.037 481.094 526.951 483.58 531.689C482.469 541.735 478.992 550.229 470.908 556.611C464.675 561.531 455.246 561.659 447.672 562.412C436.784 563.495 424.726 564.616 413.85 563.203C407.057 562.321 401.489 560.095 395.177 557.603C391.77 554.952 388.928 552.383 386.409 548.85L393.251 552.76C398.048 555.098 403.61 556.626 408.895 557.274C420.867 558.742 434.091 557.362 446.05 556.032C450.789 555.505 455.739 555.285 460.273 553.701C466.889 551.39 472.251 545.14 475.225 538.984C479.052 531.059 479.11 523.264 476.207 515.068Z"/>
	<path fill="#838383" d="M472.845 362.229C477.858 365.743 480.382 368.818 482.993 374.372L478.477 394.831C475.224 397.476 472.139 399.809 468.26 401.508C458.875 405.62 441.534 406.907 436.548 416.808L436.318 417.182C432.77 416.04 430.487 413.546 427.983 410.937C427.798 409.54 427.485 407.935 428.071 406.602C429.066 404.341 431.579 402.808 433.662 401.669C446.022 394.913 465.595 394.971 472.925 381.091C476.278 374.742 474.914 368.67 472.845 362.229Z"/>
	<path fill="#838383" d="M474.231 439.826C479.253 443.04 482.826 446.639 484.154 452.655C485.71 459.709 483.767 466.844 479.861 472.783C477.491 476.388 474.005 479.441 470.061 481.215C461.305 485.154 444.447 484.972 440.564 495.152L439.908 496.897L439.677 496.95C437.607 497.1 433.991 494.161 432.434 492.928L431.48 489.422C428.765 477.459 454.962 475.316 462.214 471.598C465.866 469.726 469.032 466.579 471.224 463.136C476.127 455.434 476.207 448.374 474.231 439.826Z"/>
	<path fill="#EC5E31" d="M462.417 372.639C458.988 375.166 455.714 377.348 451.718 378.937C444.416 381.84 436.447 383.095 429.399 386.616C424.74 388.943 420.65 391.828 418.998 396.995C417.485 401.731 418.999 407.423 421.229 411.681C423.972 416.919 428.607 422.245 434.036 424.763C439.552 427.321 445.992 428.128 451.757 430.015C456.663 431.62 463.187 433.751 465.53 438.789C466.806 441.533 466.452 444.154 465.48 446.915C460.44 461.233 443.7 459.494 432.305 465.198C427.726 467.49 424.193 471.372 422.702 476.307C420.953 482.098 422.494 488.14 425.312 493.288C432.766 506.908 443.723 505.225 456.464 508.967C462.551 510.755 469.713 514.667 472.772 520.432C474.274 523.262 474.656 526.77 473.643 529.837C471.779 535.479 467.115 541.981 461.645 544.577C455.328 547.575 446.309 547.82 439.355 548.302C425.661 549.251 410.567 550.913 397.341 546.223C391.289 544.077 385.765 540.34 382.952 534.395C382.295 533.008 381.818 531.487 381.804 529.943L382.28 504.053L382.062 459.59C381.646 436.406 379.73 412.712 381.081 389.585C381.562 381.355 383.179 373.916 385.866 366.151C387.451 361.574 390.61 356.457 394.282 353.214C399.3 348.784 403.948 348.363 410.156 347.208C414.54 346.392 417.907 345.638 422.419 345.863C434.846 346.484 453.881 349.439 462.481 359.248C464.799 361.892 465.843 364.12 465.665 367.629C464.746 369.546 463.871 371.079 462.417 372.639Z"/>
	<path fill="#FEFEFE" d="M459.247 511.835L460.213 511.971C461.298 512.12 462.181 512.307 463.15 512.825C467.461 515.131 471.12 519.339 472.483 524.072C473.415 527.311 472.998 528.659 471.438 531.514C468.704 529.829 468.238 526.106 465.915 523.751C463.84 521.647 460.983 521.124 458.95 519.203C457.896 516.266 458.199 514.711 459.247 511.835Z"/>
	<path fill="#FEFEFE" d="M441.834 430.125C446.917 430.143 453.053 430.948 457.605 433.196C459.168 433.968 462.411 435.734 462.927 437.522L463.021 437.917C463.636 440.247 463.027 441.843 462.278 444.076C459.914 443.898 457.086 441.495 454.773 440.591C452.402 439.664 449.989 439.21 447.475 438.9C445.375 438.642 442.965 438.88 441.407 437.429C440.378 434.724 440.77 432.738 441.834 430.125Z"/>
	<path fill="#FEFEFE" d="M462.417 372.639C461.763 371.207 461.088 369.768 460.17 368.482C456.209 362.934 447.91 361.892 441.65 360.765C440.89 360.077 440.332 359.722 439.975 358.737C439.211 356.63 439.9 354.818 440.849 352.921C443.717 351.729 452.058 354.486 454.856 355.591C460.695 357.896 463.293 362.143 465.665 367.629C464.746 369.546 463.871 371.079 462.417 372.639Z"/>
	<path fill="#2A3034" d="M638.786 126.928C639.035 126.789 639.96 126.388 640.088 126.2C640.834 125.11 641.11 120.952 641.471 119.388C643.323 111.37 646.507 103.109 651.779 96.7004C656.875 90.5069 665.591 85.9079 673.609 85.2136C678.774 84.7664 684.013 86.0082 687.954 89.4689C689.696 90.9985 692.762 94.2283 692.91 96.6017C695.024 97.4245 696.722 99.1527 697.563 101.301C697.689 101.623 697.677 101.73 697.695 102.036C702.74 109.535 699.513 129.864 697.824 138.54C695.377 151.115 691.668 163.574 688.183 175.897L685.652 183.995C685.296 185.073 684.484 186.757 684.463 187.853C684.444 188.86 685.468 191.052 685.791 192.081L689.38 203.865L700.747 248.22C703.139 259.406 706.366 271.938 704.149 283.392C702.817 290.271 698.212 297.48 692.394 301.48C689.033 303.79 684.995 305.22 680.908 304.413C677.556 303.751 674.714 301.83 671.331 301.249C670.977 300.05 669.18 298.948 668.213 298.101C666.55 296.643 665.049 294.973 663.538 293.36L663.419 292.936C662.201 290.374 658.571 287.483 656.785 285.012C655.31 282.97 653.885 278.728 651.698 277.713C652.029 279.458 651.359 281.071 650.835 282.714C649.23 287.739 646.874 292.375 643.908 296.73C639.522 303.171 633.335 308.224 625.58 309.843C620.301 310.945 614.308 309.505 609.934 306.463C607.175 304.544 605.401 301.905 603.006 299.632C602.338 298.296 600.532 297.319 599.403 296.345C597.614 294.801 596.281 293.208 594.992 291.234C577.199 275.813 582.901 247.384 586.548 227.265L592.717 195.248C593.671 190.449 595.694 184.671 595.779 179.86C595.816 177.695 594.647 175.134 593.968 173.083L589.76 160.157L584.13 139.602C580.92 125.294 577.008 110.488 585.524 97.2364C588.685 92.3177 593.856 86.9214 599.77 85.7021C603.671 84.8978 607.291 85.8705 610.539 88.112C613.391 90.0797 618.939 95.5728 619.608 99.0635C621.672 100.002 622.645 101.551 624.268 103.027C626.269 104.847 628.244 106.159 629.98 108.353C633.873 113.27 636.486 120.055 638.897 125.824L638.786 126.928Z"/>
	<path fill="#838383" d="M619.608 99.0635C621.672 100.002 622.645 101.551 624.268 103.027C626.269 104.847 628.244 106.159 629.98 108.353C633.873 113.27 636.486 120.055 638.897 125.824L638.786 126.928C638.968 127.208 639.525 127.865 639.585 128.153C639.717 128.786 639.254 130.479 639.146 131.228L637.572 141.57L619.765 99.3559L619.608 99.0635Z"/>
	<path fill="#EC5E31" d="M594.992 291.234C598.547 293.002 601.721 294.623 605.738 295.064C611.787 295.728 618.02 293.302 622.665 289.53C642.744 273.226 639.679 244.687 641.839 221.776C643.694 227.886 643.872 235.098 644.611 241.432C644.954 244.367 646.073 248.123 645.064 250.962C646.155 252.994 645.392 255.448 645.046 257.616C644.184 263.016 643.388 268.319 641.797 273.567C638.887 283.165 632.344 293.578 623.347 298.412C617.79 301.398 611.688 301.88 605.681 300.07C604.736 299.786 604.001 299.656 603.006 299.632C602.338 298.296 600.532 297.319 599.403 296.345C597.614 294.801 596.281 293.208 594.992 291.234Z"/>
	<path fill="#838383" d="M645.064 250.962C646.424 252.509 646.444 255.162 646.773 257.138L648.665 265.865C649.592 269.486 650.799 273.029 652 276.566L651.698 277.713C652.029 279.458 651.359 281.071 650.835 282.714C649.23 287.739 646.874 292.375 643.908 296.73C639.522 303.171 633.335 308.224 625.58 309.843C620.301 310.945 614.308 309.505 609.934 306.463C607.175 304.544 605.401 301.905 603.006 299.632C604.001 299.656 604.736 299.786 605.681 300.07C611.688 301.88 617.79 301.398 623.347 298.412C632.344 293.578 638.887 283.165 641.797 273.567C643.388 268.319 644.184 263.016 645.046 257.616C645.392 255.448 646.155 252.994 645.064 250.962Z"/>
	<path fill="#EC5E31" d="M692.91 96.6017C695.024 97.4245 696.722 99.1527 697.563 101.301C697.689 101.623 697.677 101.73 697.695 102.036C702.74 109.535 699.513 129.864 697.824 138.54C695.377 151.115 691.668 163.574 688.183 175.897L685.652 183.995C685.296 185.073 684.484 186.757 684.463 187.853C684.444 188.86 685.468 191.052 685.791 192.081L689.38 203.865L700.747 248.22C703.139 259.406 706.366 271.938 704.149 283.392C702.817 290.271 698.212 297.48 692.394 301.48C689.033 303.79 684.995 305.22 680.908 304.413C677.556 303.751 674.714 301.83 671.331 301.249C670.977 300.05 669.18 298.948 668.213 298.101C666.55 296.643 665.049 294.973 663.538 293.36C666.408 293.308 671.554 297.259 674.805 298.144C678.824 299.238 682.524 298.432 686.074 296.345C693.04 292.251 698.072 283.922 699.39 276.08C701.271 264.889 697.882 252.16 695.52 241.235L684.424 197.906L680.964 186.526C680.548 185.218 679.509 183.082 679.426 181.766C679.394 181.265 680.059 179.874 680.253 179.289L682.75 171.359L689.443 146.949C692.798 134.009 695.852 120.538 695.12 107.078C694.925 103.492 694.773 99.7754 692.91 96.6017Z"/>
	<path fill="#EC5E31" d="M688.28 128.928C689.272 131.617 687.529 136.361 686.84 139.143L678.069 170.79L675.187 178.774C674.988 179.329 674.253 180.837 674.27 181.325C674.311 182.523 675.286 184.598 675.699 185.814L679.241 196.711C683.883 212.382 698.997 261.709 695.047 275.32C693.417 280.933 688.512 286.399 683.338 289.096C680.32 290.67 676.498 290.514 673.34 289.429C653.062 282.465 650.801 255.745 648.576 237.829L645.43 215.742C644.82 211.784 644.613 205.994 642.821 202.498C642.233 201.352 641.85 201.034 640.625 200.632C639.658 201.312 639.161 201.695 638.789 202.907C637.496 207.117 637.707 213.306 637.563 217.775C637.241 227.774 637.03 237.772 636.004 247.73C635.193 255.604 634.098 263.354 630.198 270.378C626.364 277.285 620.639 283.967 612.793 286.107C607.95 287.428 602.648 286.764 598.32 284.253C592.733 281.011 589.079 274.424 588.05 268.164C587.455 264.54 587.843 260.92 588.064 257.282C588.616 248.173 590.405 239.221 592.102 230.269L598.52 197.231C599.183 193.893 601.424 187.334 600.578 184.265C599.945 181.969 601.1 179.734 600.538 177.486C599.578 173.641 597.876 169.8 596.629 166.018L589.533 142.29C586.304 129.972 582.363 116.756 589.338 104.951C591.401 101.459 596.056 95.0141 600.113 94.1362L600.569 94.0554C602.848 93.608 604.922 93.8727 607.02 94.8672C616.53 99.3745 621.055 114.348 624.874 123.472L635.088 148.991C635.706 150.597 636.38 151.427 637.939 152.121C641.99 149.611 641.155 142.61 642.93 138.8L643.061 138.524L643.373 137.673C644.685 134.909 645.063 131.61 645.735 128.618C647.864 119.142 650.579 110.127 656.872 102.522L657.24 102.073C661.204 97.3379 668.025 94.05 674.13 93.5345C678.437 93.1708 683.035 94.213 686.279 97.2124C687.544 98.3812 688.353 99.2238 688.387 100.946C690.646 102.949 690.76 105.33 690.921 108.296C691.198 113.377 690.75 118.532 690.035 123.561C689.788 125.297 689.729 127.251 688.555 128.632L688.28 128.928Z"/>
	<path fill="#FEFEFE" d="M688.28 128.928C689.324 123.86 689.361 117.687 688.208 112.634C687.623 110.072 685.668 107.203 686.01 104.553C686.231 102.84 687.021 101.861 688.387 100.946C690.646 102.949 690.76 105.33 690.921 108.296C691.198 113.377 690.75 118.532 690.035 123.561C689.788 125.297 689.729 127.251 688.555 128.632L688.28 128.928Z"/>
	<path fill="#FEFEFE" d="M602.355 101.246C603.647 101.101 605.074 100.89 606.353 101.194C611.082 102.318 615.254 109.148 617.7 113.075C620.526 117.612 627.227 128.67 625.845 133.832C625.488 135.165 624.672 135.892 623.535 136.582C622.661 135.898 621.953 135.165 621.211 134.341C621.247 134.161 621.32 133.87 621.314 133.67C621.275 132.301 620.119 130.327 619.524 129.045C616.903 123.396 613.747 116.819 609.312 112.378C607.934 110.997 605.444 108.873 603.271 109.366C601.698 109.722 601.259 110.899 599.365 110.893C598.325 109.605 598.075 108.358 598.275 106.728C598.619 103.916 600.256 102.851 602.355 101.246Z"/>
	<path fill="#2A3034" d="M712.795 546.752C712.532 545.247 708.916 542.009 707.808 540.672C706.107 538.619 704.656 536.433 703.497 534.029C701.396 529.668 700.649 524.584 699.838 519.841C697.212 504.491 696.918 488.615 696.087 473.077C694.669 446.55 692.616 419.649 694.499 393.109C695.2 383.231 696.927 373.08 700.178 363.71C703.687 353.592 707.628 345.599 717.711 340.733C733.643 333.045 754.072 332.304 770.688 338.18C782.213 342.255 792.684 348.8 800.638 358.159C801.874 359.613 803.737 361.506 804.429 363.236L804.665 364.195C806.101 364.705 807.713 365.612 808.356 367.105L808.48 367.657C810.44 371.422 812.401 375.109 813.534 379.226C815.822 387.543 815.132 398.705 812.485 406.908C810.512 413.021 806.934 419.894 800.977 422.961C795.468 425.796 790.045 425.502 784.292 423.591C783.066 423.184 782.088 422.817 780.779 422.738L780.555 422.075C777.452 419.893 775.145 417.128 772.428 414.528C772.09 413.231 770.419 411.761 769.527 410.737C767.963 408.942 766.567 407.097 765.479 404.962C764.33 402.709 763.695 400.088 763.385 397.586C763.272 396.678 763.304 394.422 762.966 393.735C762.794 393.386 762.019 392.804 761.713 392.503C761.943 394.642 760.833 396.809 760.282 398.861C759.591 401.438 759.183 404.126 758.812 406.765L756.47 428.955C756.123 431.918 756.058 435.741 754.784 438.413L755.77 439.138C761.13 433.933 767.437 432.359 774.738 432.469C785.947 432.638 800.312 437.614 808.207 445.724C810.38 447.957 813.051 451.114 814.421 453.915C815.652 454.807 817.194 456.039 817.681 457.535C820.126 462.552 821.952 467.422 822.96 472.936C824.402 480.82 824.196 489.16 824.246 497.145C824.325 509.606 824.956 523.422 820.828 535.324C818.812 541.136 815.299 548.969 809.508 551.763C807.111 552.92 804.755 552.762 802.161 552.691C801.491 551.723 800.277 551.471 799.216 551.09C797.044 550.602 794.709 550.212 792.694 551.44C789.514 553.378 787.011 556.66 783.879 558.813C773.2 566.155 756.281 571.649 743.417 569.024C737.02 567.719 730.386 563.825 725.539 559.462C724.033 558.105 722.719 556.297 721.084 555.14C720.727 553.579 714.277 548.284 712.795 546.752ZM750.501 465.284C751.554 468.044 750.361 471.732 750.006 474.604L748.987 485.886C748.647 491.524 748.461 497.07 749.347 502.68C749.471 503.46 749.25 504.066 748.979 504.79C749.32 505.175 749.633 505.571 750.074 505.846C751.358 506.647 755.353 505.778 756.919 505.445C763.876 503.965 769.612 499.61 773.36 493.652C774.558 491.749 775.701 490.624 775.185 488.4L776.721 487.469C777.232 486.091 777.604 485.212 777.112 483.737C773.894 482.196 768.468 479.515 764.973 479.492C764.456 478.008 761.373 476.416 760.155 475.39C758.893 474.327 757.806 472.91 756.763 471.639L756.667 471.31C755.688 469.398 752.485 465.994 750.501 465.284Z"/>
	<path fill="#EC5E31" d="M756.763 471.639C758.991 471.838 776.495 479.035 777.624 480.443C778.122 481.064 778 481.445 777.845 482.168C777.715 482.773 777.429 483.213 777.112 483.737C773.894 482.196 768.468 479.515 764.973 479.492C764.456 478.008 761.373 476.416 760.155 475.39C758.893 474.327 757.806 472.91 756.763 471.639Z"/>
	<path fill="#EC5E31" d="M804.665 364.195C806.101 364.705 807.713 365.612 808.356 367.105L808.48 367.657C810.44 371.422 812.401 375.109 813.534 379.226C815.822 387.543 815.132 398.705 812.485 406.908C810.512 413.021 806.934 419.894 800.977 422.961C795.468 425.796 790.045 425.502 784.292 423.591C783.066 423.184 782.088 422.817 780.779 422.738L780.555 422.075C777.452 419.893 775.145 417.128 772.428 414.528C775.882 415.154 778.796 417.768 782.366 418.465C787.547 419.478 792.799 419.237 797.269 416.163C804.123 411.449 807.414 403.233 808.855 395.322C810.657 385.425 810.647 372.781 804.665 364.195Z"/>
	<path fill="#EC5E31" d="M712.795 546.752C714.572 546.785 715.994 548.06 717.525 548.946C719.939 550.343 722.47 551.63 725.069 552.64C738.604 557.902 758.065 552.026 769.607 543.92C772.795 541.681 776.363 537.15 779.895 535.84C781.973 535.069 785.458 535.915 787.378 536.885C789.072 537.74 791.839 541.023 792.388 542.804C790.062 542.038 786.86 540.939 784.492 542.013C781.035 543.58 777.678 547.749 774.425 550.006C763.92 557.293 745.257 563.451 732.611 559.527C729.215 558.473 724.319 555.232 721.084 555.14C720.727 553.579 714.277 548.284 712.795 546.752Z"/>
	<path fill="#EC5E31" d="M794.703 544.961L800.717 547.065C805.53 545.872 808.473 543.376 811.174 539.229C814.555 534.038 816.756 527.584 817.905 521.52C819.672 512.192 819.385 501.796 819.33 492.33C819.286 484.705 819.446 476.63 818.307 469.081C817.524 463.891 815.504 459.261 814.48 454.225L814.421 453.915C815.652 454.807 817.194 456.039 817.681 457.535C820.126 462.552 821.952 467.422 822.96 472.936C824.402 480.82 824.196 489.16 824.246 497.145C824.325 509.606 824.956 523.422 820.828 535.324C818.812 541.136 815.299 548.969 809.508 551.763C807.111 552.92 804.755 552.762 802.161 552.691C801.491 551.723 800.277 551.471 799.216 551.09C799.099 549.311 795.971 546.454 794.703 544.961Z"/>
	<path fill="#838383" d="M764.973 479.492C768.468 479.515 773.894 482.196 777.112 483.737C777.604 485.212 777.232 486.091 776.721 487.469L775.185 488.4C770.867 485.849 768.109 483.391 764.973 479.492Z"/>
	<path fill="#EC5E31" d="M741.979 502.843C738.322 497.877 736.093 493.362 735.184 487.185C734.161 480.234 734.731 473.109 735.323 466.143C736.598 451.134 739.457 436.313 741.414 421.388L743.391 404.119C744.152 396.053 744.314 382.748 749.338 376.146C750.523 374.589 752.16 373.19 754.207 373.033C755.938 372.901 757.831 373.937 759.033 375.143C760.342 376.457 761.185 377.399 761.117 379.232C758.939 379.024 757.649 379.103 755.865 380.561C753.499 382.496 752.325 385.521 751.57 388.391C748.216 401.143 747.956 415.134 746.286 428.22C744.335 443.51 741.357 458.653 740.081 474.029C739.311 483.312 739.145 492.847 742.367 501.719L741.979 502.843Z"/>
	<path fill="#838383" d="M721.084 555.14C724.319 555.232 729.215 558.473 732.611 559.527C745.257 563.451 763.92 557.293 774.425 550.006C777.678 547.749 781.035 543.58 784.492 542.013C786.86 540.939 790.062 542.038 792.388 542.804C793.409 543.484 794.203 543.796 794.703 544.961C795.971 546.454 799.099 549.311 799.216 551.09C797.044 550.602 794.709 550.212 792.694 551.44C789.514 553.378 787.011 556.66 783.879 558.813C773.2 566.155 756.281 571.649 743.417 569.024C737.02 567.719 730.386 563.825 725.539 559.462C724.033 558.105 722.719 556.297 721.084 555.14Z"/>
	<path fill="#838383" d="M741.979 502.843L742.367 501.719C739.145 492.847 739.311 483.312 740.081 474.029C741.357 458.653 744.335 443.51 746.286 428.22C747.956 415.134 748.216 401.143 751.57 388.391C752.325 385.521 753.499 382.496 755.865 380.561C757.649 379.103 758.939 379.024 761.117 379.232C762.216 380.415 763.166 381.482 763.111 383.238C763.083 384.121 762.687 384.925 762.67 385.859C762.643 387.362 763.053 389.922 762.694 391.294C762.626 391.553 761.915 392.254 761.713 392.503C761.943 394.642 760.833 396.809 760.282 398.861C759.591 401.438 759.183 404.126 758.812 406.765L756.47 428.955C756.123 431.918 756.058 435.741 754.784 438.413C754.855 440.811 752.963 442.632 751.825 444.721C750.759 446.678 749.895 449.141 749.545 451.343C749.162 453.747 749.143 456.218 749.483 458.627C749.785 460.768 751.166 463.206 750.501 465.284C751.554 468.044 750.361 471.732 750.006 474.604L748.987 485.886C748.647 491.524 748.461 497.07 749.347 502.68C749.471 503.46 749.25 504.066 748.979 504.79L749.226 505.849C747.114 506.238 743.688 503.92 741.979 502.843Z"/>
	<path fill="#EC5E31" d="M780.201 474.621C778.748 469.915 765.248 467.015 760.799 464.717C758.104 463.325 756.139 461.726 754.523 459.154C754.204 455.801 756.122 451.127 758.004 448.382L758.323 447.925C759.497 446.205 761.187 444.37 762.974 443.272C768.697 439.753 778.983 440.659 785.301 442.169C794.565 444.384 805.379 449.51 810.379 457.945C815.935 467.316 814.996 480.909 815.067 491.479C815.137 501.733 815.48 512.609 812.858 522.59C811.4 528.142 808.886 534.249 803.622 537.196C797.004 540.9 794.55 534.457 790.726 530.786C789.143 529.266 787.045 528.18 784.927 527.642C776.569 525.518 772.289 533.496 765.967 537.32C756.955 542.772 740.264 548.531 729.824 545.916L728.435 545.557C720.793 543.352 711.092 537.404 707.348 530.322C703.565 523.166 703.219 513.312 702.609 505.36L700.903 476.835C699.642 453.726 698.038 430.267 698.923 407.123C699.289 397.534 700.078 385.899 703.023 376.768C705.512 369.051 707.392 362.004 712.002 355.167C715.553 349.901 721.375 347.574 727.23 345.833C745.54 340.39 764.197 341.944 781.006 351.047L781.585 352.058C790.432 355.491 798.938 363.864 802.742 372.459C804.956 377.46 807.065 386.122 804.932 391.559C804.715 392.112 804.414 392.542 804.009 392.968C804.72 395.974 802.58 400.142 800.966 402.721C798.695 406.348 795.172 409.363 790.942 410.343C785.71 411.556 780 410.135 775.582 407.226C772.85 405.426 770.894 403.199 768.987 400.592C769.621 389.414 768.743 376.956 760.983 368.083C759.45 366.331 757.321 364.753 754.912 364.641C752.367 364.522 749.987 365.753 748.181 367.476C744.693 370.805 743.306 375.509 742.201 380.065C740.631 386.54 740.159 393.199 739.506 399.807L737.089 420.49C734.766 438.701 730.513 457.453 730.37 475.782C730.273 488.1 731.907 500.958 740.972 510.211C743.859 513.158 747.886 514.578 751.984 514.526C759.859 514.427 769.06 510.245 774.471 504.607L776.401 502.394C778.986 499.311 781.141 495.243 782.253 491.375L782.017 490.947C781.744 490.434 781.425 489.968 781.582 489.391C782.156 487.285 782.577 484.492 781.733 482.402L781.833 482.122L781.961 481.645C782.071 481.262 782.198 480.896 782.22 480.492C782.317 478.676 781.404 475.988 780.201 474.621Z"/>
	<path fill="#FEFEFE" d="M780.201 474.621C783.228 474.457 785.789 475.036 788.074 477.148C790.807 479.673 793.479 484.657 793.567 488.4C793.636 491.324 792.391 496.909 790.512 499.198C790.327 499.424 790.007 499.662 789.795 499.837C788.736 499.454 788.182 499.047 787.739 497.936C786.379 494.53 789.374 491.881 789.234 488.968C789.164 487.504 786.138 484.48 784.833 483.746L781.733 482.402L781.833 482.122L781.961 481.645C782.071 481.262 782.198 480.896 782.22 480.492C782.317 478.676 781.404 475.988 780.201 474.621Z"/>
	<path fill="#FEFEFE" d="M804.009 392.968C801.928 388.873 801.48 383.491 799.831 379.089C797.411 372.626 791.443 365.808 785.406 362.375C783.178 361.108 780.651 360.391 778.32 359.315C777.336 357.923 777.184 356.704 777.277 355.031C777.371 353.341 777.844 352.726 779.053 351.662L781.585 352.058C790.432 355.491 798.938 363.864 802.742 372.459C804.956 377.46 807.065 386.122 804.932 391.559C804.715 392.112 804.414 392.542 804.009 392.968Z"/>
	<path fill="#2A3034" d="M361.921 138.845C364.946 123.987 367.134 107.825 376.527 95.3642C379.35 91.6183 382.906 88.4932 386.599 85.6231C398.077 76.7051 412.655 73.8598 426.897 75.7132C449.792 78.6929 470.698 93.4576 484.536 111.366C485.715 112.448 486.946 113.487 487.928 114.756C492.926 125.562 497.204 134.413 497.596 146.665C497.709 150.168 497.731 153.902 496.56 157.251C495.449 160.429 492.945 162.19 490.013 163.566C481.471 167.574 471.421 166.969 462.727 163.752L454.253 160.144C451.053 157.521 447.627 155.236 445.595 151.55C443.08 149.061 441.009 146.869 439.318 143.719C437.096 144.887 435.632 145.939 434.092 147.925L433.873 148.204C430.37 152.725 428.032 159.868 426.392 165.311C420.055 186.332 417.288 210.812 420.193 232.628C420.941 238.24 422.847 242.857 425.159 247.958C425.58 248.175 426.03 248.321 426.501 248.394C428.189 248.655 430.234 247.83 431.609 246.918C436.908 243.405 441.036 234.791 442.169 228.803C442.766 225.646 442.656 220.577 441.109 217.708C440.433 216.454 438.3 215.259 437.256 214.218C434.589 211.557 431.171 207.834 429.061 204.724C427.137 201.889 426.954 198.071 427.66 194.793C428.678 190.062 431.965 186.898 435.937 184.401C444.735 178.868 454.175 179.577 463.873 181.858C472.68 183.93 479.598 186.417 484.55 194.38C486.756 196.342 488.701 198.356 489.809 201.147C491.857 210.862 492.221 220.554 492.613 230.446C493.216 245.639 493.563 261.836 489.827 276.671C488.503 281.931 486.74 287.281 483.8 291.877C481.848 294.929 479.404 297.406 475.752 298.135L472.881 298.415C469.583 296.348 467.431 294.678 465.081 291.515C457.706 303.197 450.078 315.604 435.622 318.931C426.248 321.088 418.428 318.843 410.533 313.833C406.024 310.972 401.392 307.486 398.113 303.228C394.916 300.56 391.519 297.489 389.19 294.022C386.465 291.797 384.139 288.777 381.891 286.08C367.514 268.835 363.28 247.559 359.957 225.99L361.921 138.845Z"/>
	<path fill="#EC5E31" d="M484.536 111.366C485.715 112.448 486.946 113.487 487.928 114.756C492.926 125.562 497.204 134.413 497.596 146.665C497.709 150.168 497.731 153.902 496.56 157.251C495.449 160.429 492.945 162.19 490.013 163.566C481.471 167.574 471.421 166.969 462.727 163.752L454.253 160.144C451.053 157.521 447.627 155.236 445.595 151.55L455.065 156.627C463.978 160.589 474.215 161.904 483.453 158.249C487.023 156.837 489.923 155.215 491.447 151.532C492.851 148.139 492.834 143.877 492.602 140.246C492.181 133.686 490.913 126.963 488.669 120.779C487.505 117.572 485.819 114.537 484.536 111.366Z"/>
	<path fill="#EC5E31" d="M389.19 294.022C391.976 295.479 394.605 297.594 397.293 299.265C403.484 303.114 409.385 305.085 416.748 304.677C428.39 304.033 437.403 296.401 443.905 287.307C447.696 282.004 450.852 276.277 455.237 271.42L457.751 280.505C447.946 293.231 441.544 308.054 423.514 310.529C413.309 311.929 406.822 307.45 398.113 303.228C394.916 300.56 391.519 297.489 389.19 294.022Z"/>
	<path fill="#EC5E31" d="M484.55 194.38C486.756 196.342 488.701 198.356 489.809 201.147C491.857 210.862 492.221 220.554 492.613 230.446C493.216 245.639 493.563 261.836 489.827 276.671C488.503 281.931 486.74 287.281 483.8 291.877C481.848 294.929 479.404 297.406 475.752 298.135L472.881 298.415C469.583 296.348 467.431 294.678 465.081 291.515L465.2 290.94C467.306 291.782 469.656 292.427 471.924 291.881C474.757 291.198 477.349 288.268 478.813 285.903C481.566 281.459 483.201 276.573 484.561 271.56C488.957 255.356 488.358 236.975 487.458 220.329C486.981 211.496 486.692 203 484.55 194.38Z"/>
	<path fill="#EC5E31" d="M417.695 242.928L415.365 239.949C406.587 227.615 405.224 214.916 405.228 200.186C405.231 189.569 406.182 179.203 407.925 168.732C409.657 158.334 414.477 135.951 423.34 129.78C425.221 128.47 427.479 127.951 429.744 128.485C432.3 129.086 434.061 132.115 435.243 134.2C431.545 134.207 428.978 134.719 426.321 137.429C423.436 140.369 421.753 144.536 420.183 148.297C412.249 167.301 409.742 190.152 410.188 210.574C410.364 218.662 410.84 226.633 413.922 234.202C415.068 237.015 417.171 240.007 417.695 242.928Z"/>
	<path fill="#838383" d="M457.751 280.505C459.719 285.016 461.546 287.637 465.2 290.94L465.081 291.515C457.706 303.197 450.078 315.604 435.622 318.931C426.248 321.088 418.428 318.843 410.533 313.833C406.024 310.972 401.392 307.486 398.113 303.228C406.822 307.45 413.309 311.929 423.514 310.529C441.544 308.054 447.946 293.231 457.751 280.505Z"/>
	<path fill="#838383" d="M435.243 134.2L439.318 143.719C437.096 144.887 435.632 145.939 434.092 147.925L433.873 148.204C430.37 152.725 428.032 159.868 426.392 165.311C420.055 186.332 417.288 210.812 420.193 232.628C420.941 238.24 422.847 242.857 425.159 247.958C422.128 247.593 419.688 245.031 417.695 242.928C417.171 240.007 415.068 237.015 413.922 234.202C410.84 226.633 410.364 218.662 410.188 210.574C409.742 190.152 412.249 167.301 420.183 148.297C421.753 144.536 423.436 140.369 426.321 137.429C428.978 134.719 431.545 134.207 435.243 134.2Z"/>
	<path fill="#EC5E31" d="M414.079 83.6713L418.531 83.5325C439.193 83.2375 459.626 94.8731 474.042 108.925C481.931 116.615 487.138 126.472 487.242 137.614C487.26 139.622 487.598 142.412 487.216 144.346C486.931 145.785 484.542 148.193 483.526 149.192C480.984 151.692 475.248 151.939 471.887 151.931C462.367 151.908 447.55 146.982 442.619 137.937C439.984 133.103 438.881 126.94 434.814 122.992C432.587 120.83 430.275 119.966 427.167 120.117C423.818 120.281 420.881 122.44 418.712 124.838C404.582 140.456 399.968 188.389 401.005 209.293C401.792 225.15 406.071 241.74 418.373 252.683C421.18 255.18 424.109 257.12 427.99 256.818C432.11 256.496 437.012 252.982 439.614 249.959L440.343 249.092C444.478 243.712 447.601 237.664 447.472 230.675C447.344 223.763 446.428 212.733 441.544 207.429C438.839 204.492 435.41 202.033 432.524 199.22C434.497 196.052 436.238 193.688 439.404 191.567C445.884 187.226 454.079 188.29 461.295 189.742C466.02 190.842 471.615 192.219 475.834 194.613C479.036 196.43 480.911 199.471 481.834 202.984C483.05 207.608 482.772 212.478 483.058 217.208C483.934 231.658 484.745 247.099 482.433 261.432C481.557 266.858 480.171 272.573 477.387 277.358C475.843 280.01 473.561 283.138 470.459 283.953C465.054 283.299 461.778 278.387 460.608 273.424C459.862 270.262 459.682 266.576 457.371 264.115C456.427 263.109 456.171 263.247 454.834 263.199C449.223 266.701 445.542 275.033 441.617 280.365C436.248 287.659 429.048 294.916 419.642 296.208C410.821 297.42 401.965 294.565 395.028 289.116C375.731 273.959 367.581 250.869 364.828 227.235C363.588 216.59 363.717 205.989 363.766 195.295C363.886 169.071 365.357 121.787 382.003 100.57L382.318 100.164C390.313 90.0443 401.596 85.1065 414.079 83.6713Z"/>
	<path fill="#FEFEFE" d="M457.69 100.68C458.358 100.885 459.015 101.084 459.621 101.444C466.884 105.754 473.74 115.024 478.175 122.109C479.796 124.698 481.632 127.574 482.286 130.587C482.911 133.464 482.296 135.131 480.718 137.547C480.455 137.443 479.316 137.101 479.186 136.941C478.534 136.136 478.022 133.935 477.577 132.895C476.733 130.923 475.548 129.186 474.297 127.457C471.272 123.277 468.166 119.025 464.569 115.314C462.091 112.757 459.238 110.549 456.617 108.137C455.733 105.176 456.426 103.373 457.69 100.68Z"/>
	<path fill="#FEFEFE" d="M458.853 192.323C464.432 192.421 470.025 193.638 474.35 197.378C478.523 200.985 481.106 207.164 481.447 212.612C481.802 218.287 482.998 227.048 479.086 231.435C476.171 228.315 477.533 223.503 477.449 219.52C477.38 216.224 476.883 212.706 475.546 209.665C473.239 204.416 468.156 201.745 462.658 201.063C461.479 200.917 459.361 200.967 458.358 200.454C457.566 200.048 457.513 199.18 457.336 198.388C456.789 195.932 457.577 194.381 458.853 192.323Z"/>
	<path fill="#2A3034" d="M832.735 490.632L833.819 490.887C835.03 488.33 834.322 484.881 834.164 482.124L833.533 468.623L834.063 397.737C834.27 388.287 833.448 378.53 834.683 369.138C835.461 363.226 837.088 357.325 840.266 352.232C843.516 347.025 848.8 342.716 854.868 341.374C858.982 340.463 862.744 341.097 866.259 343.44C870.238 346.093 873.255 349.691 876.168 353.426C877.233 354.791 878.487 356.087 878.85 357.816C879.898 358.271 881.221 358.685 881.66 359.849L881.751 360.304C887.3 361.993 892.886 372.594 895.521 377.548C897.91 382.037 900.001 386.706 901.962 391.396C902.531 392.759 903.55 394.454 903.275 395.948C903.526 395.651 904.202 395.038 904.324 394.711C904.826 393.365 904.495 389.718 904.574 388.162L905.845 373.735C906.882 366.135 909.207 357.576 914.183 351.607C917.859 347.197 923.208 343.643 929.058 343.221C934.591 342.821 938.724 344.267 942.894 347.881C945.097 349.79 950.035 354.487 950.238 357.36C952.066 358.199 953.091 359.464 954.369 360.964L954.507 361.739C960.565 374.006 962.881 388.356 964.437 401.842C968.373 435.958 966.37 470.412 964.261 504.583L962.406 529.211C961.867 535.049 961.511 540.745 959.625 546.367C957.668 552.206 954.159 556.903 948.546 559.658C944.116 561.833 938.238 562.994 933.47 561.239C931.088 560.363 929.162 558.829 926.565 558.619C926.215 557.499 924.632 556.389 923.762 555.588L917.898 549.722C916.991 547.597 913.765 544.811 912.22 542.962C909.801 540.068 907.678 537.03 905.842 533.734C904.794 531.852 903.797 528.673 901.858 527.707C902.488 530.01 901.857 532.288 901.469 534.581C900.205 542.054 898.459 549.019 894.64 555.673C891.399 561.321 886.234 565.962 879.869 567.702C874.658 569.126 870.385 569.477 865.586 566.693C862.134 564.691 860.213 561.505 857.291 559.017C857.141 558.554 857.004 558.307 856.616 558.002C853.92 555.89 851.743 553.861 849.457 551.3C848.905 549.322 845.013 545.957 843.665 543.941C841.616 540.878 840.112 537.332 838.998 533.824C837.83 530.148 836.958 526.392 836.257 522.601C835.642 519.283 835.15 509.16 832.843 507.163C833.467 505.654 833.235 503.876 833.22 502.27C833.184 498.432 833.361 494.421 832.735 490.632Z"/>
	<path fill="#EC5E31" d="M878.85 357.816C879.898 358.271 881.221 358.685 881.66 359.849L881.751 360.304C889.565 373.567 895.047 387.494 900.474 401.836C901.243 403.87 903.258 407.542 903.112 409.568C904.026 411.276 904.022 412.092 903.684 413.931L902.918 413.942C899.269 407.861 897.116 400.053 894.594 393.387C889.973 381.175 885.216 369.238 878.85 357.816Z"/>
	<path fill="#838383" d="M881.751 360.304C887.3 361.993 892.886 372.594 895.521 377.548C897.91 382.037 900.001 386.706 901.962 391.396C902.531 392.759 903.55 394.454 903.275 395.948C903.54 396.441 904.038 397.121 904.185 397.64C904.625 399.191 904.418 406.288 904.022 407.916C903.875 408.519 903.469 409.071 903.112 409.568C903.258 407.542 901.243 403.87 900.474 401.836C895.047 387.494 889.565 373.567 881.751 360.304Z"/>
	<path fill="#EC5E31" d="M849.457 551.3C852.096 551.693 854.233 553.346 856.758 553.721C862.601 554.589 869.647 552.023 874.098 548.367C889.568 535.659 888.216 509.177 889.932 491.117L890.24 491.7C891.378 494.207 894.788 503.234 893.829 505.773C894.488 508.174 893.895 511.27 893.71 513.742C892.873 524.937 891.351 536.571 885.718 546.499C882.406 552.337 877.041 557.009 870.502 558.796C867.865 559.517 864.937 560.143 862.192 559.847C860.448 559.658 859.136 558.987 857.291 559.017C857.141 558.554 857.004 558.307 856.616 558.002C853.92 555.89 851.743 553.861 849.457 551.3Z"/>
	<path fill="#838383" d="M857.291 559.017C859.136 558.987 860.448 559.658 862.192 559.847C864.937 560.143 867.865 559.517 870.502 558.796C877.041 557.009 882.406 552.337 885.718 546.499C891.351 536.571 892.873 524.937 893.71 513.742C893.895 511.27 894.488 508.174 893.829 505.773C895.907 507.453 896.585 511.658 897.458 514.146L902.1 526.428L901.858 527.707C902.488 530.01 901.857 532.288 901.469 534.581C900.205 542.054 898.459 549.019 894.64 555.673C891.399 561.321 886.234 565.962 879.869 567.702C874.658 569.126 870.385 569.477 865.586 566.693C862.134 564.691 860.213 561.505 857.291 559.017Z"/>
	<path fill="#EC5E31" d="M950.238 357.36C952.066 358.199 953.091 359.464 954.369 360.964L954.507 361.739C960.565 374.006 962.881 388.356 964.437 401.842C968.373 435.958 966.37 470.412 964.261 504.583L962.406 529.211C961.867 535.049 961.511 540.745 959.625 546.367C957.668 552.206 954.159 556.903 948.546 559.658C944.116 561.833 938.238 562.994 933.47 561.239C931.088 560.363 929.162 558.829 926.565 558.619C926.215 557.499 924.632 556.389 923.762 555.588L917.898 549.722C922.184 550.453 925.751 554.836 930.47 555.763C935.87 556.825 941.903 555.069 946.362 551.988C952.264 547.911 954.823 541.403 956.09 534.581C956.949 529.958 957.134 525.328 957.592 520.667L959.622 492.36C961.804 453.151 964.431 412.634 955.713 374.014C954.548 368.856 953.261 361.748 950.238 357.36Z"/>
	<path fill="#EC5E31" d="M953.434 388.638L954.353 389.659C956.624 399.303 956.797 410.199 957.103 420.09C957.939 447.097 956.696 474.212 954.934 501.163L952.864 524.634C952.324 529.189 951.928 535.165 949.533 539.154C947.174 543.082 942.237 546.162 937.859 547.213C932.584 548.481 926.923 546.746 922.534 543.75C916.428 539.583 911.278 532.975 907.804 526.501C902.789 517.153 899.651 506.584 896.604 496.47C895.394 492.455 894.435 488.188 892.917 484.288C892.594 483.458 892.227 483.061 891.469 482.587C889.81 482.189 889.317 481.974 887.661 482.587C886.704 483.71 885.641 485.016 885.351 486.496C884.685 489.905 884.951 494.033 884.836 497.526C884.539 506.56 884.138 516.633 881.617 525.345C879.471 532.762 874.114 539.922 867.278 543.626C863.681 545.575 859.457 546.458 855.469 545.215C850.805 543.761 847.174 539.684 845.074 535.413C842.575 530.329 842.224 522.73 841.566 517.138C837.321 481.036 838.126 444.901 838.97 408.64C839.302 394.357 837.463 378.933 841.943 365.175C843.708 359.754 846.528 355.312 851.12 351.852C853.772 349.854 857.651 348.938 860.93 349.529C862.913 349.886 864.934 350.833 866.106 352.437C872.593 355.109 878.624 367.539 881.26 373.669C881.541 374.323 881.459 374.775 881.341 375.451C883.375 376.831 884.454 380.947 885.381 383.197L894.356 406.385C896.121 411.061 898.077 419.764 902.368 422.539C903.306 422.686 904.068 423.019 904.927 422.544C905.948 421.98 907.896 419.897 908.326 418.846C908.893 417.458 908.763 414.126 908.836 412.572L909.581 394.117C910.121 384.754 911.012 376.185 913.848 367.239C914.727 364.465 916.537 360.87 918.315 358.562C921.038 355.028 924.608 352.135 929.143 351.618C933.421 351.131 937.689 352.397 941.032 355.115C942.441 356.26 943.182 356.513 943.377 358.319C948.024 361.009 950.255 369.562 951.584 374.559C952.362 377.484 954.914 385.79 953.56 388.422L953.434 388.638Z"/>
	<path fill="#FEFEFE" d="M881.341 375.451C881.259 375.771 881.023 376.092 880.859 376.379C878.52 374.908 877.688 370.858 876.452 368.348C875.102 365.609 873.17 362.944 870.25 361.758C868.939 361.226 867.421 361.107 866.151 360.537C865.451 360.223 864.904 359.811 864.579 359.121C863.828 357.531 863.354 355.622 864.105 353.928C864.602 352.808 865.028 352.814 866.106 352.437C872.593 355.109 878.624 367.539 881.26 373.669C881.541 374.323 881.459 374.775 881.341 375.451Z"/>
	<path fill="#FEFEFE" d="M953.434 388.638L953.165 388.521C951.581 387.624 950.407 380.849 949.719 378.876C947.41 372.258 944.727 367.669 938.232 364.539C937.613 363.724 937.437 363.186 937.39 362.181C937.292 360.066 937.483 358.571 938.981 356.97C940.657 356.687 941.932 357.574 943.377 358.319C948.024 361.009 950.255 369.562 951.584 374.559C952.362 377.484 954.914 385.79 953.56 388.422L953.434 388.638Z"/>
	<path fill="#2A3034" d="M482.993 374.372C487.414 363.571 492.666 353.386 502.373 346.362C516.085 336.44 536.123 335.103 552.3 337.84C567.85 340.472 579.883 346.9 589.123 359.929C590.316 361.094 591.968 362.38 592.879 363.75C597.677 374.999 599.058 385.025 594.285 396.717C591.659 403.147 586.631 410.112 579.993 412.812C574.02 415.241 568.973 414.248 563.102 412.123C559.683 409.791 557.518 407.944 555.166 404.504C551.849 401.333 549.751 398.501 547.756 394.415C546.598 396.172 545.441 397.783 544.895 399.837C543.35 405.658 544.76 409.14 547.065 414.451C554.528 420.978 563.221 426.116 570.935 432.393C578.856 438.839 585.029 446.195 591.954 453.58C593.219 454.879 594.668 456.184 595.759 457.624C602.998 464.107 608.639 472.668 612.877 481.362C613.549 482.741 614.907 484.93 614.893 486.455C614.89 486.794 614.814 486.985 614.726 487.326C615.001 487.704 615.555 488.276 615.717 488.69C616.38 490.381 616.193 494.273 616.252 496.132L617.013 512.203L617.802 519.691C617.96 520.938 618.42 522.441 618.174 523.684C618.096 524.079 617.951 524.436 617.778 524.796C618.052 526.75 617.307 528.554 616.681 530.372C614.887 535.579 612.382 540.678 609.061 545.094C599.134 558.291 584.335 565.899 568.115 568.123C547.685 570.924 521.539 567.563 504.83 554.604C502.761 552.999 500.384 550.639 499.027 548.404L492.407 542.593C491.442 541.545 490.89 540.489 490.278 539.225C487.725 536.869 485.643 534.481 483.58 531.689C481.094 526.951 479.916 522.037 478.537 516.909L476.207 515.068C470.748 505.6 461.143 501.025 450.758 499.123C447.319 498.493 443.608 498.367 440.34 497.074L439.908 496.897L440.564 495.152C444.447 484.972 461.305 485.154 470.061 481.215C474.005 479.441 477.491 476.388 479.861 472.783C483.767 466.844 485.71 459.709 484.154 452.655C482.826 446.639 479.253 443.04 474.231 439.826C472.743 437.667 471.263 435.756 469.38 433.928C467.635 431.57 466.117 429.18 463.85 427.265C459.852 423.887 453.468 421.737 448.441 420.357C445.41 419.525 438.624 418.89 436.548 416.808C441.534 406.907 458.875 405.62 468.26 401.508C472.139 399.809 475.224 397.476 478.477 394.831L482.993 374.372ZM478.477 394.831C475.224 397.476 472.139 399.809 468.26 401.508C458.875 405.62 441.534 406.907 436.548 416.808C438.624 418.89 445.41 419.525 448.441 420.357C453.468 421.737 459.852 423.887 463.85 427.265C466.117 429.18 467.635 431.57 469.38 433.928C471.263 435.756 472.743 437.667 474.231 439.826C479.253 443.04 482.826 446.639 484.154 452.655C485.71 459.709 483.767 466.844 479.861 472.783C477.491 476.388 474.005 479.441 470.061 481.215C461.305 485.154 444.447 484.972 440.564 495.152L439.908 496.897L440.34 497.074C443.608 498.367 447.319 498.493 450.758 499.123C461.143 501.025 470.748 505.6 476.207 515.068L478.537 516.909C478.501 509.756 478.444 503.06 479.73 495.998C481.648 485.473 484.712 473.717 494.144 467.339C497.443 465.108 501.927 463.916 505.888 464.692C513.878 466.258 518.894 473.028 523.21 479.343C524.279 480.362 525.475 481.363 526.384 482.528C532.753 486.92 538.731 495.235 540.127 503.001L541.14 512.213C545.373 511.169 549.076 509.469 552.113 506.285C555.199 503.048 555.476 498.444 555.322 494.168C555.14 489.118 554.063 483.392 550.216 479.826C535.934 470.64 515.926 467.722 505.353 453.694C502.2 450.98 498.925 448.432 496.712 444.855C496.346 444.619 496.041 444.372 495.741 444.056C482.309 429.938 477.854 413.933 478.477 394.831Z"/>
	<path fill="#EC5E31" d="M523.21 479.343C524.279 480.362 525.475 481.363 526.384 482.528C527.767 485.605 529.603 488.642 530.5 491.902C532.331 498.553 531.582 505.639 533.422 512.359C525.882 508.236 527.328 495.557 526.148 488.432C525.632 485.313 524.348 482.279 523.21 479.343Z"/>
	<path fill="#EC5E31" d="M496.712 444.855C501.819 448.09 506.971 450.959 512.493 453.428C525.354 459.178 540.178 464.312 548.711 476.395C546.975 476.012 545.409 474.103 544.034 472.952C542.095 471.329 540.071 470.015 537.865 468.79C531.094 465.029 523.889 462.285 516.835 459.132C512.962 457.402 509.28 455.295 505.353 453.694C502.2 450.98 498.925 448.432 496.712 444.855Z"/>
	<path fill="#EC5E31" d="M537.973 406.022C536.928 404.972 536.071 403.832 535.247 402.605C531.982 397.738 529.177 392.272 530.423 386.259C531.151 382.751 533.172 379.466 536.22 377.512C538.507 376.045 540.341 375.594 543 376.159C544.817 377.549 545.229 379.268 545.892 381.377C541.777 382.847 538.609 384.792 536.631 388.853C534.843 392.522 534.481 396.535 535.903 400.393C536.505 402.025 537.94 404.318 537.973 406.022Z"/>
	<path fill="#838383" d="M505.353 453.694C509.28 455.295 512.962 457.402 516.835 459.132C523.889 462.285 531.094 465.029 537.865 468.79C540.071 470.015 542.095 471.329 544.034 472.952C545.409 474.103 546.975 476.012 548.711 476.395C549.512 477.546 550.216 478.361 550.216 479.826C535.934 470.64 515.926 467.722 505.353 453.694Z"/>
	<path fill="#838383" d="M526.384 482.528C532.753 486.92 538.731 495.235 540.127 503.001L541.14 512.213C538.479 512.573 536.095 512.603 533.422 512.359C531.582 505.639 532.331 498.553 530.5 491.902C529.603 488.642 527.767 485.605 526.384 482.528Z"/>
	<path fill="#838383" d="M545.892 381.377L547.756 394.415C546.598 396.172 545.441 397.783 544.895 399.837C543.35 405.658 544.76 409.14 547.065 414.451C543.645 412.186 540.621 409.133 537.973 406.022C537.94 404.318 536.505 402.025 535.903 400.393C534.481 396.535 534.843 392.522 536.631 388.853C538.609 384.792 541.777 382.847 545.892 381.377Z"/>
	<path fill="#EC5E31" d="M589.123 359.929C590.316 361.094 591.968 362.38 592.879 363.75C597.677 374.999 599.058 385.025 594.285 396.717C591.659 403.147 586.631 410.112 579.993 412.812C574.02 415.241 568.973 414.248 563.102 412.123C559.683 409.791 557.518 407.944 555.166 404.504C561.473 407.304 566.78 409.654 573.731 407.288C580.276 405.06 585.135 399.238 588.12 393.21C593.766 381.807 593.083 371.6 589.123 359.929Z"/>
	<path fill="#EC5E31" d="M591.954 453.58C593.219 454.879 594.668 456.184 595.759 457.624L595.924 458.051C597.855 462.938 601.332 467.299 603.625 472.091C611.47 488.482 613.391 507.775 606.315 524.791C600.631 538.458 589.65 548.989 575.974 554.567C555.74 562.819 528.996 561.569 509 553.095C505.641 551.672 502.431 549.623 499.027 548.404L492.407 542.593C491.442 541.545 490.89 540.489 490.278 539.225C494.892 542.45 499.65 545.324 504.87 547.471C524.63 555.599 551.568 556.708 571.419 548.424C584.854 542.817 596.058 532.011 601.509 518.435C607.998 502.274 606.708 483.596 599.547 467.862C597.303 462.933 594.054 458.537 591.954 453.58Z"/>
	<path fill="#838383" d="M595.759 457.624C602.998 464.107 608.639 472.668 612.877 481.362C613.549 482.741 614.907 484.93 614.893 486.455C614.89 486.794 614.814 486.985 614.726 487.326C615.001 487.704 615.555 488.276 615.717 488.69C616.38 490.381 616.193 494.273 616.252 496.132L617.013 512.203L617.802 519.691C617.96 520.938 618.42 522.441 618.174 523.684C618.096 524.079 617.951 524.436 617.778 524.796C618.052 526.75 617.307 528.554 616.681 530.372C614.887 535.579 612.382 540.678 609.061 545.094C599.134 558.291 584.335 565.899 568.115 568.123C547.685 570.924 521.539 567.563 504.83 554.604C502.761 552.999 500.384 550.639 499.027 548.404C502.431 549.623 505.641 551.672 509 553.095C528.996 561.569 555.74 562.819 575.974 554.567C589.65 548.989 600.631 538.458 606.315 524.791C613.391 507.775 611.47 488.482 603.625 472.091C601.332 467.299 597.855 462.938 595.924 458.051L595.759 457.624Z"/>
	<path fill="#EC5E31" d="M596.261 473.33C598.069 477.176 599.426 481.288 600.492 485.396C603.546 497.159 601.009 509.771 594.776 520.087C587.038 532.896 574.029 540.195 559.743 543.654C540.992 548.194 513.726 545.611 497.161 535.288C491.579 531.811 485.275 525.907 483.929 519.228C483.015 514.689 483.559 509.839 484.187 505.282C485.271 497.429 486.971 489.316 490.896 482.343C492.565 479.379 496.321 474.343 499.696 473.513L503.418 472.786C506.501 472.539 510.518 474.93 512.831 476.811C521.559 483.907 522.403 492.368 523.497 502.72C524.171 509.108 525.587 515.395 531.01 519.461C533.457 521.295 537.999 521.18 540.912 520.686C546.204 519.788 554.924 515.641 558.069 511.191L558.269 510.903C558.631 510.389 558.971 509.893 559.223 509.313C561.501 504.067 560.052 496.412 559.379 490.876C558.884 486.813 558.31 482.883 556.763 479.054C549.816 461.867 533.058 454.014 517.24 446.955C510.469 443.932 502.982 440.802 497.337 435.889C492.526 431.702 489.064 425.803 486.676 419.941C485.283 416.521 483.838 412.565 483.422 408.855C482.28 398.667 485.969 385.058 489.889 375.671C494.093 365.607 500.737 355.542 510.758 350.528C524.659 343.574 545.281 343.214 559.956 348.184C569.719 351.299 579.691 355.653 584.651 365.221C587.606 370.92 589.099 376.981 586.915 383.249L585.851 385.868L585.651 386.352C583.4 391.725 579.087 396.571 573.623 398.771C569.977 400.239 566.214 399.987 562.357 399.762C557.631 396.706 553.527 393.14 552.287 387.388C550.982 381.333 550.872 372.872 545.277 369.011C543.347 367.679 540.592 366.904 538.262 367.357C535.175 367.957 531.639 371.949 529.977 374.538C525.98 380.765 524.928 388.974 526.602 396.122C530.189 411.44 543.423 421.17 555.523 429.752C565.172 436.595 576.748 444.638 583.711 454.29C588.919 460.222 592.703 466.311 596.261 473.33Z"/>
	<path fill="#FEFEFE" d="M596.261 473.33L594.048 474.776C591.706 473.287 589.514 467.313 587.757 464.761C586.503 462.939 584.856 461.398 583.497 459.642C583.12 457.614 583.177 456.282 583.711 454.29C588.919 460.222 592.703 466.311 596.261 473.33Z"/>
	<path fill="#FEFEFE" d="M585.851 385.868C585.06 383.668 584.877 381.294 584.308 379.029C581.724 368.747 575.769 361.949 565.766 358.404C563.371 357.555 560.717 357.264 558.52 355.967C557.691 354.602 557.459 353.413 557.65 351.844C557.869 350.055 558.596 349.25 559.956 348.184C569.719 351.299 579.691 355.653 584.651 365.221C587.606 370.92 589.099 376.981 586.915 383.249L585.851 385.868Z"/>
	<path fill="#2A3034" d="M284.205 251.541C286.024 246.216 286.064 239.891 286.164 234.326L286.519 217.532L287.024 137.993C287.248 129.371 286.967 120.394 287.896 111.833C288.988 101.771 290.393 91.4474 298.882 84.7603C304.224 80.5533 311.156 78.7126 317.87 79.6193C326.742 80.8173 332.575 89.5326 337.547 96.1599L339.99 98.2084C352.29 108.036 358.236 124.046 361.921 138.845L359.957 225.99C358.375 251.778 359.494 288.838 338.176 307.399C325.776 318.196 307.225 321.528 291.193 320.146C278.901 319.085 268.937 312.692 260.796 303.828L252.516 295.492C246.708 289.62 240.881 283.413 236.2 276.594C221.125 254.632 221.364 223.472 218.781 197.969L215.885 177.217C214.557 164.759 214.867 151.835 215.207 139.35C215.461 130.033 215.323 120.777 217.041 111.568C218.706 102.644 222.845 93.7105 230.545 88.488C235.895 84.8591 243.083 82.6659 249.537 83.9666C255.744 85.2173 259.105 89.6971 262.41 94.6398C264.411 96.2086 265.702 98.1699 267.125 100.241C273.837 103.906 276.799 110.088 278.88 117.168C283.099 131.522 283.228 147.574 283.221 162.424C283.211 184.777 281.609 207.067 282.496 229.427C282.783 236.647 282.726 244.461 284.205 251.541Z"/>
	<path fill="#EC5E31" d="M262.41 94.6398C264.411 96.2086 265.702 98.1699 267.125 100.241C273.156 117.498 273.987 134.212 274.019 152.348L273.029 201.764C272.775 220.481 273.839 239.476 277.664 257.813C276.139 256.995 274.416 255.725 273.602 254.149C272.479 251.977 272.095 248.898 271.579 246.504C269.131 235.132 268.733 223.251 268.428 211.661C267.7 183.983 270.063 156.302 268.665 128.652C268.068 116.841 266.137 105.869 262.41 94.6398Z"/>
	<path fill="#838383" d="M267.125 100.241C273.837 103.906 276.799 110.088 278.88 117.168C283.099 131.522 283.228 147.574 283.221 162.424C283.211 184.777 281.609 207.067 282.496 229.427C282.783 236.647 282.726 244.461 284.205 251.541C283.8 253.543 283.499 255.813 281.645 257.03C280.48 257.794 279.011 257.83 277.664 257.813C273.839 239.476 272.775 220.481 273.029 201.764L274.019 152.348C273.987 134.212 273.156 117.498 267.125 100.241Z"/>
	<path fill="#838383" d="M337.547 96.1599L339.99 98.2084C352.29 108.036 358.236 124.046 361.921 138.845L359.957 225.99C358.375 251.778 359.494 288.838 338.176 307.399C325.776 318.196 307.225 321.528 291.193 320.146C278.901 319.085 268.937 312.692 260.796 303.828L252.516 295.492C254.662 295.537 260.304 300.004 262.765 301.137C276.939 307.662 295.716 306.243 310.059 300.816C322.186 296.227 330.778 287.172 336.009 275.45C339.353 267.956 341.36 259.762 342.607 251.668C344.952 236.456 345.024 221.077 346.127 205.764C347.451 187.365 349.685 168.98 349.78 150.516C349.814 143.866 349.911 136.937 349.036 130.343C347.952 122.164 345.304 113.228 341.998 105.656C340.659 102.59 338.888 99.7466 337.711 96.6049L337.547 96.1599Z"/>
	<path fill="#EC5E31" d="M337.547 96.1599L339.99 98.2084L345.931 109.523C349.679 117.495 352.455 126.392 353.829 135.095C355.215 143.876 354.97 153.466 354.637 162.327L351.237 210.444C350.24 224.48 350.15 238.677 348.29 252.631C347.22 260.659 345.764 268.81 343.023 276.451C338.428 289.254 330.64 299.635 318.153 305.499C304.999 311.676 285.409 313.676 271.746 308.788L260.796 303.828L252.516 295.492C254.662 295.537 260.304 300.004 262.765 301.137C276.939 307.662 295.716 306.243 310.059 300.816C322.186 296.227 330.778 287.172 336.009 275.45C339.353 267.956 341.36 259.762 342.607 251.668C344.952 236.456 345.024 221.077 346.127 205.764C347.451 187.365 349.685 168.98 349.78 150.516C349.814 143.866 349.911 136.937 349.036 130.343C347.952 122.164 345.304 113.228 341.998 105.656C340.659 102.59 338.888 99.7466 337.711 96.6049L337.547 96.1599Z"/>
	<path fill="#EC5E31" d="M310.351 87.9888L313.624 87.7499C319.347 87.6624 323.564 89.9676 327.649 93.9173C340.389 106.234 345.3 127.996 345.616 144.953C345.988 164.937 343.449 184.975 341.995 204.883C340.656 223.227 341.167 242.204 336.434 260.115C334.231 268.451 330.499 276.614 324.444 282.852C313.848 293.769 298.701 296.728 284.043 296.948C274.997 297.084 265.717 295.073 258.175 289.897C255.153 287.823 252.426 285.051 249.792 282.499C244.534 277.405 239.367 271.451 235.864 264.973C225.31 245.457 225.314 219.792 223.364 198.179L220.837 178.781C220.1 171.932 219.892 164.868 219.784 157.981L220.348 139.37C220.48 134.286 220.237 128.719 221.081 123.711C221.864 119.064 222.416 114.984 223.981 110.469C226.384 103.533 230.327 96.9583 237.219 93.7172C240.891 91.9901 246.878 91.3571 250.732 92.7902C258.022 95.5001 261.144 104.445 262.611 111.381C265.239 123.804 264.737 138.04 264.696 150.694C264.595 181.143 262.099 212.315 266.452 242.546C267.286 248.339 267.937 254.764 270.56 260.063C271.829 262.625 273.951 264.972 276.765 265.824C279.703 266.714 281.547 265.55 283.879 263.897C284.061 263.768 285.096 262.909 285.256 262.897C285.973 262.84 285.892 263.323 286.68 262.869C288.044 262.083 288.457 260.749 288.828 259.303C291.388 249.345 290.907 239.83 291.257 229.697L291.994 146.808L292.458 128.85C292.546 125.71 292.287 122.067 292.837 118.998C293.617 114.64 293.494 110.235 294.759 105.921C295.611 103.014 296.279 100.314 297.747 97.6122C300.47 92.6039 305.017 89.5915 310.351 87.9888Z"/>
	<path fill="#FEFEFE" d="M247.599 99.5437C248.801 99.4938 250.416 99.3133 251.566 99.6772C254.93 100.742 258.027 104.291 259.666 107.293C262.548 112.572 264.367 124.231 262.25 130.106C261.77 131.436 261.462 131.584 260.254 132.135L258.988 131.368C258.435 125.583 259.109 118.44 256.203 113.246C254.895 110.909 252.376 108.483 249.73 107.803C248.236 107.419 246.921 108.673 245.605 109.415L244.498 108.456C244.021 107.413 243.638 106.52 243.8 105.355C244.174 102.665 245.585 101.21 247.599 99.5437Z"/>
	<path fill="#2A3034" d="M247.393 553.953C246.621 553.42 246.015 552.73 245.388 552.038C239.231 545.231 236.377 534.122 235.01 525.243C231.954 505.396 234.248 484.687 233.749 464.668L231.495 422.766C230.716 406.181 230.612 389.415 231.519 372.832C232.073 362.688 234.779 352.226 242.701 345.332C254.3 335.236 271.271 336.021 285.563 337.002C302.771 338.183 318.969 343.484 331.522 355.715C335.15 359.25 338.172 363.291 341.493 367.099C342.646 368.185 343.924 369.238 344.853 370.526C363.897 385.83 373.586 422.817 376.128 446.226L376.675 451.614C377.403 458.676 377.372 465.996 377.261 473.092C377.206 476.605 376.754 480.455 377.144 483.927C375.974 490.107 375.447 496.382 373.802 502.472C368.166 523.331 354.607 545.283 336.638 557.567C316.949 571.026 291.424 575.795 268.066 571.065C263.723 570.186 260.023 568.522 257.528 564.737L255.558 561.297C251.826 559.934 249.23 557.351 247.393 553.953ZM270.676 344.874C260.111 345.581 251.321 346.553 243.961 354.994C241.106 358.268 238.924 363.608 238.035 367.858C236.457 375.397 236.399 382.901 236.159 390.559C235.319 417.4 238.09 443.822 238.745 470.598C239.139 486.721 237.658 503.169 238.815 519.218C239.323 526.271 241.891 539.885 247.633 544.738C251.862 548.313 257.706 548.309 262.939 548.729C269.2 549.231 275.637 549.607 281.9 548.968C293.368 547.799 304.222 544.257 314.355 538.807C318.879 536.238 323.413 533.48 327.375 530.085C339.814 519.426 350.799 501.846 355.27 486.11C357.3 478.967 358.273 471.312 358.902 463.919C361.454 433.921 354.574 401.815 339.627 375.637C331.334 361.112 317.112 352.102 301.254 347.778C292.157 345.298 280.121 344.403 270.676 344.874Z"/>
	<path fill="#EC5E31" d="M341.493 367.099C342.646 368.185 343.924 369.238 344.853 370.526L345.046 370.972C348.308 378.382 352.951 384.926 355.968 392.598C365 415.56 369.43 441.656 368.395 466.304C367.877 478.63 366.069 490.974 361.669 502.55C352.864 525.721 337.245 545.717 314.299 555.959C299.763 562.447 284.927 564.47 269.119 563.234C264.64 562.884 259.893 562.558 255.558 561.297C251.826 559.934 249.23 557.351 247.393 553.953C253.254 556.191 258.666 556.841 264.893 557.317C279.764 558.455 294.023 556.457 307.778 550.633C331.032 540.787 346.763 521.295 356.039 498.172C369.22 465.313 364.087 422.101 352.165 389.61C350.631 385.43 348.906 381.218 346.854 377.263C345.168 374.016 343.107 370.996 341.7 367.605L341.493 367.099Z"/>
	<path fill="#838383" d="M344.853 370.526C363.897 385.83 373.586 422.817 376.128 446.226L376.675 451.614C377.403 458.676 377.372 465.996 377.261 473.092C377.206 476.605 376.754 480.455 377.144 483.927C375.974 490.107 375.447 496.382 373.802 502.472C368.166 523.331 354.607 545.283 336.638 557.567C316.949 571.026 291.424 575.795 268.066 571.065C263.723 570.186 260.023 568.522 257.528 564.737L255.558 561.297C259.893 562.558 264.64 562.884 269.119 563.234C284.927 564.47 299.763 562.447 314.299 555.959C337.245 545.717 352.864 525.721 361.669 502.55C366.069 490.974 367.877 478.63 368.395 466.304C369.43 441.656 365 415.56 355.968 392.598C352.951 384.926 348.308 378.382 345.046 370.972L344.853 370.526Z"/>
	<path fill="#EC5E31" d="M270.676 344.874C280.121 344.403 292.157 345.298 301.254 347.778C317.112 352.102 331.334 361.112 339.627 375.637C354.574 401.815 361.454 433.921 358.902 463.919C358.273 471.312 357.3 478.967 355.27 486.11C350.799 501.846 339.814 519.426 327.375 530.085C323.413 533.48 318.879 536.238 314.355 538.807C304.222 544.257 293.368 547.799 281.9 548.968C275.637 549.607 269.2 549.231 262.939 548.729C257.706 548.309 251.862 548.313 247.633 544.738C241.891 539.885 239.323 526.271 238.815 519.218C237.658 503.169 239.139 486.721 238.745 470.598C238.09 443.822 235.319 417.4 236.159 390.559C236.399 382.901 236.457 375.397 238.035 367.858C238.924 363.608 241.106 358.268 243.961 354.994C251.321 346.553 260.111 345.581 270.676 344.874ZM285.675 374.464C281.582 376.776 279.382 379.722 278.152 384.293C276.874 389.045 277.317 394.18 277.38 399.059L277.923 422.692L279.641 497.203C279.684 500.134 280.384 514.216 279.383 515.685C278.33 517.23 277.538 518.767 277.83 520.717C278.049 522.18 278.808 523.424 280.009 524.283C281.407 525.282 282.907 525.621 284.589 525.248C288.044 524.482 291.422 520.879 293.539 518.226C294.51 516.894 295.444 515.517 296.631 514.365L297.607 514.693C300.417 511.69 302.184 507.612 303.566 503.785C307.877 491.849 308.464 479.697 309.223 467.175C309.838 457.034 310.275 446.69 309.935 436.534C309.401 420.551 307.327 389.589 295.034 377.774C292.336 375.181 290.321 374.266 286.604 374.408L285.675 374.464Z"/>
	<path fill="#FEFEFE" d="M292.289 351.477C301.164 351.151 309.889 354.799 317.009 359.942C324.124 365.082 329.669 372.21 334.334 379.565C336.44 382.884 338.744 386.801 339.317 390.728C339.642 392.955 338.786 394.061 337.528 395.747C337.193 395.625 336.253 395.182 336.036 394.937C334.728 393.459 333.64 390.23 332.617 388.395C330.376 384.38 327.804 380.584 324.835 377.068C316.307 366.969 305.993 360.782 292.725 359.645C292.084 359.141 291.433 358.824 291.149 358.035C290.331 355.764 291.219 353.465 292.289 351.477Z"/>
	<path fill="#2A3034" d="M285.675 374.464L286.604 374.408C290.321 374.266 292.336 375.181 295.034 377.774C307.327 389.589 309.401 420.551 309.935 436.534C310.275 446.69 309.838 457.034 309.223 467.175C308.464 479.697 307.877 491.849 303.566 503.785C302.184 507.612 300.417 511.69 297.607 514.693L296.631 514.365C295.444 515.517 294.51 516.894 293.539 518.226C291.422 520.879 288.044 524.482 284.589 525.248C282.907 525.621 281.407 525.282 280.009 524.283C278.808 523.424 278.049 522.18 277.83 520.717C277.538 518.767 278.33 517.23 279.383 515.685C280.384 514.216 279.684 500.134 279.641 497.203L277.923 422.692L277.38 399.059C277.317 394.18 276.874 389.045 278.152 384.293C279.382 379.722 281.582 376.776 285.675 374.464ZM288.952 513.052C292.672 509.484 295.644 505.206 297.436 500.368L298.024 499.279C299.498 496.37 300.201 493.187 300.994 490.043C303.633 479.572 304.028 468.342 304.457 457.59C305.024 443.392 305.484 429.045 303.838 414.903C303.146 408.958 301.794 403.299 299.95 397.612C299.058 394.68 297.728 392.003 296.391 389.258C294.189 388.772 292.1 388.212 290.069 389.537C288.094 390.826 287.01 393.142 286.614 395.395C285.599 401.157 286.488 407.668 286.649 413.522L287.754 450.963L288.527 491.799C288.605 498.577 287.912 506.406 288.952 513.052Z"/>
	<path fill="#EC5E31" d="M288.952 513.052L283.835 517.228L281.285 391.694C281.398 388.962 282.231 385.881 284.424 384.064C285.834 382.897 287.503 382.538 289.307 382.801C292.424 383.256 294.789 386.923 296.391 389.258C294.189 388.772 292.1 388.212 290.069 389.537C288.094 390.826 287.01 393.142 286.614 395.395C285.599 401.157 286.488 407.668 286.649 413.522L287.754 450.963L288.527 491.799C288.605 498.577 287.912 506.406 288.952 513.052Z"/>
	<path fill="#838383" d="M288.952 513.052C287.912 506.406 288.605 498.577 288.527 491.799L287.754 450.963L286.649 413.522C286.488 407.668 285.599 401.157 286.614 395.395C287.01 393.142 288.094 390.826 290.069 389.537C292.1 388.212 294.189 388.772 296.391 389.258C297.728 392.003 299.058 394.68 299.95 397.612C301.794 403.299 303.146 408.958 303.838 414.903C305.484 429.045 305.024 443.392 304.457 457.59C304.028 468.342 303.633 479.572 300.994 490.043C300.201 493.187 299.498 496.37 298.024 499.279L297.436 500.368C295.644 505.206 292.672 509.484 288.952 513.052ZM299.95 397.612C296.965 400.292 295.632 402.415 295.411 406.478L297.436 500.368L298.024 499.279C299.498 496.37 300.201 493.187 300.994 490.043C303.633 479.572 304.028 468.342 304.457 457.59C305.024 443.392 305.484 429.045 303.838 414.903C303.146 408.958 301.794 403.299 299.95 397.612Z"/>
	<path fill="#2A3034" d="M51.2676 298.439C48.2117 295.855 45.3401 292.019 43.0148 288.771C37.6245 281.243 34.0268 271.659 31.3071 262.86C20.2828 227.19 19.9517 185.949 25.9326 149.297C29.4431 127.784 37.6814 93.6252 56.4856 80.2476C61.3335 76.7987 66.1957 75.6352 72.0327 76.6593C80.4859 78.1424 86.9094 86.5943 91.4923 93.2422C92.4889 94.0722 93.6449 94.8875 94.482 95.8767C108.06 106.416 112.126 123.709 117.328 139.142C121.268 128.709 122.647 116 129.449 106.857C131.979 103.455 135.674 100.622 139.123 98.2019C146.589 92.9638 155.86 89.1657 165.093 90.899C174.497 92.6644 180.658 99.9103 185.717 107.439L190.548 119.841C192.47 125.609 193.679 131.723 194.591 137.726C198.054 160.511 197.455 183.787 198.933 206.744C200.486 230.862 204.156 255.281 203.821 279.463C203.767 283.327 203.278 286.899 201.588 290.428C199.112 295.598 193.571 299.241 188.243 300.979C183.683 302.467 178.041 303.049 173.398 301.681C171.167 301.024 169.162 299.806 167.018 298.938C159.939 293.394 156.698 284.198 154.441 275.894C151.143 287.046 146.653 302.873 135.703 308.856C132.325 310.702 128.076 311.167 124.385 310.028C119.755 308.6 114.224 304.186 111.749 299.948C108.791 298.097 105.634 294.9 103.619 292.059L101.269 289.443C97.7161 285.21 94.9031 281.02 92.0482 276.314C92.1993 281.03 92.6936 286.033 91.5194 290.634C89.6154 298.095 85.301 302.172 78.8574 305.969C74.1187 308.761 69.0866 309.468 63.8025 308.016L59.0512 306.308C56.1282 303.969 53.3261 301.599 51.2676 298.439Z"/>
	<path fill="#EC5E31" d="M91.4923 93.2422C92.4889 94.0722 93.6449 94.8875 94.482 95.8767L94.6253 96.2388C95.9801 99.5586 97.978 102.595 99.5184 105.834C102.787 112.708 105.316 119.913 107.321 127.251L111.131 144.313C111.717 147.528 111.917 150.987 112.941 154.091L109.3 165.179C107.654 145.878 105.071 126.752 98.2439 108.492C96.2818 103.245 93.7338 98.3573 91.4923 93.2422Z"/>
	<path fill="#838383" d="M94.482 95.8767C108.06 106.416 112.126 123.709 117.328 139.142L112.941 154.091C111.917 150.987 111.717 147.528 111.131 144.313L107.321 127.251C105.316 119.913 102.787 112.708 99.5184 105.834C97.978 102.595 95.9801 99.5586 94.6253 96.2388L94.482 95.8767Z"/>
	<path fill="#EC5E31" d="M51.2676 298.439C54.1399 299.767 56.8046 301.507 59.9046 302.314C65.0648 303.657 70.0928 302.237 74.5184 299.552C80.056 296.192 84.1276 292.578 86.1167 286.181C87.5703 281.506 87.2235 277.135 86.8829 272.359C85.8472 257.837 81.3347 243.864 77.7291 229.841C75.7318 222.074 74.0127 214.2 72.9807 206.24C70.8573 189.863 72.6098 172.618 76.5191 156.658C79.2422 168.125 78.1529 180.966 78.4216 192.718C79.0686 221.022 81.8748 249.711 92.0482 276.314C92.1993 281.03 92.6936 286.033 91.5194 290.634C89.6154 298.095 85.301 302.172 78.8574 305.969C74.1187 308.761 69.0866 309.468 63.8025 308.016L59.0512 306.308C56.1282 303.969 53.3261 301.599 51.2676 298.439Z"/>
	<path fill="#EC5E31" d="M103.619 292.059C105.881 292.244 108.429 294.464 110.82 295.118C114.743 296.191 118.608 295.651 122.113 293.571C128.613 289.713 132.682 282.192 135.45 275.434C146.964 247.317 146.229 214.774 150.028 185.03C150.762 179.288 152.023 173.803 153.478 168.208C153.988 169.702 153.915 171.759 153.99 173.341C154.19 177.553 153.999 181.792 153.841 186.005L151.299 231.363C151.353 246.372 151.424 261.112 154.441 275.894C151.143 287.046 146.653 302.873 135.703 308.856C132.325 310.702 128.076 311.167 124.385 310.028C119.755 308.6 114.224 304.186 111.749 299.948C108.791 298.097 105.634 294.9 103.619 292.059Z"/>
	<path fill="#838383" d="M151.299 231.363C151.353 246.372 151.424 261.112 154.441 275.894C151.143 287.046 146.653 302.873 135.703 308.856C132.325 310.702 128.076 311.167 124.385 310.028C119.755 308.6 114.224 304.186 111.749 299.948C113.657 300.487 115.687 301.226 117.642 301.518C121.839 302.146 125.826 300.704 129.147 298.152C145.282 285.756 148.683 250.321 151.299 231.363Z"/>
	<path fill="#EC5E31" d="M110.808 176.291L117.781 155.047C118.214 153.969 118.381 152.165 119.395 151.587L120.117 152.057C121.759 149.756 122.188 145.289 123.004 142.519C125.737 133.234 128.394 120.51 134.347 112.778C136.819 109.566 140.099 107.085 143.416 104.816C147.408 102.084 151.262 100 156.113 99.2184C162.313 98.2189 168.385 99.5672 173.463 103.33C185.941 112.576 189.041 130.125 191.016 144.493C194.1 166.924 193.564 189.557 195.037 212.097L198.843 261.292C199.193 267.164 199.799 273.233 199.706 279.115C199.665 281.68 199.206 284.377 197.621 286.475C194.405 290.731 187.84 293.2 182.696 293.831C177.393 294.481 172.589 293.851 168.285 290.474C159.963 283.946 157.789 271.716 156.733 261.768C155.073 246.128 156.182 229.89 157.032 214.213C157.77 200.61 158.829 187.026 158.172 173.397C157.992 169.671 158.073 165.529 156.926 161.963L156.826 161.645C156.364 160.198 155.816 159.439 154.541 158.577C152.777 158.973 152.306 159.581 151.339 161.107C148.915 164.934 148.19 170.847 147.393 175.264C146.015 182.897 145.132 190.573 144.434 198.297C142.748 216.975 139.858 281.162 117.557 287C114.057 287.916 110.66 286.974 107.616 285.156C96.7404 278.661 92.021 263.663 89.2599 252.092C87.0907 243.001 85.7963 233.643 85.0404 224.335L83.0383 187.91C82.686 176.824 83.1281 164.918 80.6257 154.071C80.2326 152.367 79.4244 150.34 77.9295 149.304C76.9842 148.649 76.5202 148.817 75.4395 148.925C70.0945 153.731 68.4839 177.855 68.0971 185.242C67.4135 198.298 69.092 211.475 71.7339 224.242L79.2348 254.502C81.5434 263.939 84.4576 273.799 82.0577 283.474C81.4232 286.032 74.7439 290.836 72.2947 292.201C68.6578 294.228 63.9845 295.104 59.9445 293.857C51.6184 291.287 45.568 282.952 41.788 275.472C27.6128 247.425 25.8759 212.869 27.9285 182.095C29.2544 162.216 32.1607 142.474 38.4952 123.513C41.9813 113.077 46.6707 102.698 53.3977 93.9511C55.6919 90.9681 59.2748 87.2711 62.7594 85.6608C66.1045 84.1149 70.2189 84.2931 73.6136 85.6063C83.1149 89.2818 89.452 100.505 93.2199 109.443C99.6666 124.736 102.903 141.714 104.5 158.177C104.981 163.13 104.655 168.412 105.417 173.276C105.614 174.534 107.384 175.922 108.277 176.782L110.808 176.291Z"/>
	<path fill="#FEFEFE" d="M55.5425 105.146C56.7168 105.63 57.5216 106.383 58.1851 107.46C58.8807 108.589 59.4828 110.388 59.2337 111.708C58.8587 113.693 57.0278 116.282 56.108 118.125C54.5943 121.158 53.2633 124.422 52.2193 127.642C49.9662 134.592 49.8999 141.283 48.352 148.258C47.9929 148.168 47.6929 148.086 47.364 147.911C45.8207 147.091 44.9011 145.868 44.5241 144.162C43.9104 141.384 44.4089 137.316 44.8344 134.543C46.4392 124.086 50.1959 114.249 55.5425 105.146Z"/>
	<path fill="#FEFEFE" d="M110.808 176.291L112.135 177.814C113.083 178.919 114.333 179.58 115.788 179.702C117.242 179.825 118.524 179.428 119.635 178.459C122.135 176.282 123.437 173.127 124.596 170.104C126.586 164.916 128.109 159.558 129.596 154.209C130.332 151.561 130.855 148.311 132.021 145.882C132.507 144.87 132.646 144.752 133.718 144.752C135.346 146.21 136.234 147.192 136.339 149.501C136.611 155.548 128.466 180.069 124.095 184.839C122.645 186.422 120.746 187.787 118.516 187.891C115.909 188.013 112.885 186.488 111.093 184.673C109.097 182.653 108.439 180.428 107.927 177.705L108.277 176.782L110.808 176.291Z"/>
</svg>
