<?xml version="1.0" encoding="utf-8" ?>
<svg xmlns="http://www.w3.org/2000/svg" xmlns:xlink="http://www.w3.org/1999/xlink" width="80" height="80">
	<path fill="#FEA103" transform="scale(0.078125 0.078125)" d="M497.317 71.364L511.829 12.1605L513.344 18.4662C512.388 20.0235 512.237 21.4969 512.141 23.2981C511.676 32.0558 512.414 41.2448 512.347 50.0706L511.971 92.6059C512.139 97.7759 513.273 102.785 513.471 107.921L513.563 114.5C513.544 115.431 513.204 116.903 513.458 117.75L514.151 119.148C515.481 121.898 515.26 127.181 515.51 130.25L517.569 154.5L525.967 249.12L511.975 249.134C513.139 235.423 513.003 221.913 513.004 208.162L512.995 160.178L512.968 125.085C512.945 120.314 513.448 115.083 512.925 110.368C510.42 121.297 509.121 132.613 507.585 143.711L500.56 200.609C498.799 216.621 496.046 233.127 495.89 249.25L494.36 249.992C489.776 250.073 484.458 251.27 480.018 250.928L448.925 256.764C440.417 259.096 430.92 260.915 423.006 264.903L405.5 272.585C402.784 273.855 399.413 275.467 396.517 276.137C391.737 278.693 386.753 282.372 381.789 284.346L354.589 302.397L342.722 312.389C340.72 314.073 338.287 315.791 336.636 317.813C332.922 322.446 328.242 326.62 324.044 330.831C321.894 332.986 319.38 336.136 316.76 337.63L305.918 350.784L288.692 375.469L275.592 399.082C273.784 403.122 271.764 407.006 270.179 411.153C268.511 415.519 267.238 420.451 264.972 424.525L258.846 444.004L251.358 476.612C250.994 482.374 249.602 489.003 249.995 494.687L249.936 531.142L250.786 541.555C251.053 543.746 251.585 546.26 251.393 548.452L257.328 578.13L261.678 592.894C262.196 594.6 262.677 597.23 263.558 598.71C265.943 602.594 267.363 606.804 269.077 611L275.244 626.216C277.171 632.384 281.622 638.814 284.627 644.604L303.463 672.849L315.438 686.671C319.673 690.3 323.54 694.449 327.461 698.414C329.524 700.499 332.353 702.865 334.027 705.235L346.788 716.152C348.015 717.207 350.342 718.725 351.212 720.031L348.888 753.057L348.597 753.984L337.544 862.139L330.408 913.938C319.157 909.574 308.468 903.754 297.93 897.901C278.289 886.991 258.807 874.884 240.881 861.307L209.503 835.181C209.098 835.746 207.376 836.622 206.722 837.041L197.659 842.675L154.454 869.916L188.136 815.445C176.133 801.371 163.733 787.31 152.976 772.25C135.841 748.261 121.961 722.254 107.872 696.422L52.5578 705.994C55.3677 703.23 58.7762 700.974 61.9543 698.643L77.388 687.283C84.638 681.896 91.7074 675.658 99.2871 670.831C96.0774 664.732 94.2353 657.445 92.0261 650.918C78.3315 610.459 70.2529 566.71 69.5716 523.982C67.8964 523.209 65.564 522.925 63.75 522.504L50.9535 519.75L9.12962 510.496L69.8835 497.608C69.4459 493.319 69.889 488.757 70.0298 484.447C71.1763 449.352 79.5614 414.229 89.7574 380.768C92.8178 370.725 95.7091 360.586 99.9144 350.948L49.8911 315.092C69.0338 322.004 89.7633 323.82 109.46 328.707C122.977 300.812 138.568 273.723 156.995 248.77C167.125 235.053 178.322 222.065 189.832 209.499C189.334 206.131 184.778 200.477 182.875 197.512L153.981 154.21C159.394 157.07 164.639 160.748 169.851 164.002L197.916 181.461C201.251 183.541 205.789 187.432 209.451 188.544L210.097 188.725L247.038 159.062C261.141 148.474 276.228 138.993 291.556 130.303C303.944 123.281 316.6 116.566 329.853 111.315L316.364 47.2066L352.844 98.8901C364.427 94.2819 376.87 91.0075 388.908 87.8289C424.709 78.3752 460.269 72.4086 497.317 71.364Z"/>
	<path fill="#F74500" transform="scale(0.078125 0.078125)" d="M257.328 578.13C254.554 578.054 250.882 576.246 248.223 575.335C241.562 573.05 234.769 570.463 227.991 568.617L251.393 548.452L257.328 578.13Z"/>
	<path fill="#F74500" transform="scale(0.078125 0.078125)" d="M251.358 476.612L226.714 455.417L258.846 444.004L251.358 476.612Z"/>
	<path fill="#F74500" transform="scale(0.078125 0.078125)" d="M448.925 256.764C449.412 252.635 450.995 248.268 452.033 244.227L457.274 222.745L480.018 250.928L448.925 256.764Z"/>
	<path fill="#F74500" transform="scale(0.078125 0.078125)" d="M284.627 644.604L303.463 672.849C300.353 672.63 296.463 673.43 293.293 673.74L268.133 676.154L284.627 644.604Z"/>
	<path fill="#F74500" transform="scale(0.078125 0.078125)" d="M288.692 375.469C285.202 372.291 282.606 367.935 279.984 364.04L268.869 347.404C281.153 348.324 293.934 347.831 305.918 350.784L288.692 375.469Z"/>
	<path fill="#F74500" transform="scale(0.078125 0.078125)" d="M354.589 302.397C353.006 298.832 352.818 294.279 352.308 290.435L349.963 268.24L369.63 277.699C373.594 279.596 378.503 281.409 381.789 284.346L354.589 302.397Z"/>
	<path fill="#F0E478" transform="scale(0.078125 0.078125)" d="M264.972 424.525L146.334 358.666L275.592 399.082C273.784 403.122 271.764 407.006 270.179 411.153C268.511 415.519 267.238 420.451 264.972 424.525Z"/>
	<path fill="#F0E478" transform="scale(0.078125 0.078125)" d="M315.438 686.671C319.673 690.3 323.54 694.449 327.461 698.414C329.524 700.499 332.353 702.865 334.027 705.235C330.282 709.293 325.854 712.734 321.741 716.406L297.684 737.685L223.75 803.192L223.615 802.5L315.438 686.671Z"/>
	<path fill="#F0E478" transform="scale(0.078125 0.078125)" d="M396.517 276.137L353.215 136L353.58 135.846L422.558 264.181L423.006 264.903L405.5 272.585C402.784 273.855 399.413 275.467 396.517 276.137Z"/>
	<path fill="#F0E478" transform="scale(0.078125 0.078125)" d="M263.558 598.71C265.943 602.594 267.363 606.804 269.077 611L275.244 626.216C268.128 629.791 259.738 631.351 252.129 633.706L190.799 651.858L159.741 661.248C154.554 662.847 149.569 664.839 144.258 665.998L263.558 598.71Z"/>
	<path fill="#F0E478" transform="scale(0.078125 0.078125)" d="M316.76 337.63L221.745 220.643C225.313 222.746 227.957 225.878 231.018 228.605L248.46 243.794L305.636 291.67L336.636 317.813C332.922 322.446 328.242 326.62 324.044 330.831C321.894 332.986 319.38 336.136 316.76 337.63Z"/>
	<path fill="#F0E478" transform="scale(0.078125 0.078125)" d="M249.936 531.142L249.512 526.75C249.258 526.477 249.088 526.088 248.75 525.931C247.78 525.481 244.814 525.513 243.634 525.377L225.144 523.463L152 515.559L105.82 510.509L249.331 497.327L249.995 494.687L249.936 531.142Z"/>
	<path fill="#F0E478" transform="scale(0.078125 0.078125)" d="M254.915 808.254L301.367 780.805L331.169 763.209C336.611 760.023 342.513 755.726 348.597 753.984L337.544 862.139C313.743 851.477 291.772 838.403 271.118 822.429C265.418 818.021 259.618 813.772 254.915 808.254Z"/>
	<path fill="#F0E478" transform="scale(0.078125 0.078125)" d="M158.037 689.516L267.961 676.339L214.392 770.669C195.211 750.573 178.719 728.037 165.541 703.599C163.029 698.94 160.197 694.348 158.037 689.516Z"/>
	<path fill="#F0E478" transform="scale(0.078125 0.078125)" d="M157.682 336.041C159.045 330.268 163.051 324.672 166.009 319.557C180.35 294.759 196.84 272.227 214.676 249.874L268.48 347.559L157.682 336.041Z"/>
	<path fill="#F0E478" transform="scale(0.078125 0.078125)" d="M251.937 214.666C255.478 210.235 262.205 206.08 266.724 202.629C283.645 189.704 300.28 177.341 318.954 167.012C324.998 163.669 331.342 160.104 337.767 157.567L349.772 268.191L251.937 214.666Z"/>
	<path fill="#F0E478" transform="scale(0.078125 0.078125)" d="M381.43 137.707C415.054 128.645 450.886 118.849 485.857 119.079L457.138 223.439L381.43 137.707Z"/>
	<path fill="#F0EC60" transform="scale(0.078125 0.078125)" d="M329.853 111.315L337.767 157.567C331.342 160.104 324.998 163.669 318.954 167.012C300.28 177.341 283.645 189.704 266.724 202.629C262.205 206.08 255.478 210.235 251.937 214.666L210.097 188.725L247.038 159.062C261.141 148.474 276.228 138.993 291.556 130.303C303.944 123.281 316.6 116.566 329.853 111.315Z"/>
	<path fill="#F0EC60" transform="scale(0.078125 0.078125)" d="M189.832 209.499C192.52 213.237 214.545 248.391 214.676 249.874C196.84 272.227 180.35 294.759 166.009 319.557C163.051 324.672 159.045 330.268 157.682 336.041L109.46 328.707C122.977 300.812 138.568 273.723 156.995 248.77C167.125 235.053 178.322 222.065 189.832 209.499Z"/>
	<path fill="#F0E478" transform="scale(0.078125 0.078125)" d="M138.598 380.61L226.837 455.612L117.061 486.369C116.999 479.718 117.968 473.334 118.74 466.75C121.451 443.638 126.862 421.433 133.241 399.094C135.023 392.855 136.149 386.669 138.598 380.61Z"/>
	<path fill="#F0E478" transform="scale(0.078125 0.078125)" d="M118.369 536.158L227.948 568.868L138.24 640.935C132.809 628.574 129.584 615.559 126.707 602.412C123.65 588.442 121.169 574.547 119.504 560.339L118.212 548.468C117.986 544.802 118.253 541.116 117.641 537.481L117.553 537L118.369 536.158Z"/>
	<path fill="#F0EC60" transform="scale(0.078125 0.078125)" d="M107.872 696.422L158.037 689.516C160.197 694.348 163.029 698.94 165.541 703.599C178.719 728.037 195.211 750.573 214.392 770.669L195.395 803.299C193.258 806.961 190.944 812.375 188.136 815.445C176.133 801.371 163.733 787.31 152.976 772.25C135.841 748.261 121.961 722.254 107.872 696.422Z"/>
	<path fill="#F0EC60" transform="scale(0.078125 0.078125)" d="M352.844 98.8901C364.427 94.2819 376.87 91.0075 388.908 87.8289C424.709 78.3752 460.269 72.4086 497.317 71.364L485.857 119.079C450.886 118.849 415.054 128.645 381.43 137.707L352.844 98.8901Z"/>
	<path fill="#F0EC60" transform="scale(0.078125 0.078125)" d="M209.503 835.181L254.915 808.254C259.618 813.772 265.418 818.021 271.118 822.429C291.772 838.403 313.743 851.477 337.544 862.139L330.408 913.938C319.157 909.574 308.468 903.754 297.93 897.901C278.289 886.991 258.807 874.884 240.881 861.307L209.503 835.181Z"/>
	<path fill="#F0EC60" transform="scale(0.078125 0.078125)" d="M69.5716 523.982L118.369 536.158L117.553 537L117.641 537.481C118.253 541.116 117.986 544.802 118.212 548.468L119.504 560.339C121.169 574.547 123.65 588.442 126.707 602.412C129.584 615.559 132.809 628.574 138.24 640.935L99.2871 670.831C96.0774 664.732 94.2353 657.445 92.0261 650.918C78.3315 610.459 70.2529 566.71 69.5716 523.982Z"/>
	<path fill="#F0EC60" transform="scale(0.078125 0.078125)" d="M99.9144 350.948L138.598 380.61C136.149 386.669 135.023 392.855 133.241 399.094C126.862 421.433 121.451 443.638 118.74 466.75C117.968 473.334 116.999 479.718 117.061 486.369L69.8835 497.608C69.4459 493.319 69.889 488.757 70.0298 484.447C71.1763 449.352 79.5614 414.229 89.7574 380.768C92.8178 370.725 95.7091 360.586 99.9144 350.948Z"/>
	<path fill="#FC7200" transform="scale(0.078125 0.078125)" d="M513.344 18.4662L525.261 70.458L570.151 74.7528C604.282 79.2503 639.424 87.5625 671.616 99.8336L695.71 65.0602C699.834 59.024 703.887 51.799 708.64 46.2692L693.207 111.672C703.022 115.264 712.456 120.307 721.653 125.25C743.132 136.792 762.934 149.731 782.761 163.855C793.788 171.711 805.538 179.836 815.131 189.442L868.843 154.371L832.507 208.699C845.82 225.174 859.964 240.807 872.506 257.934C882.565 271.67 891.311 286.644 899.811 301.375C904.692 309.836 910.795 319.461 913.489 328.827L974.198 316.018L921.671 350.748C925.371 358.853 928.02 367.298 930.831 375.733C941.329 407.238 948.626 440.368 951.615 473.456L952.736 496.632L953.012 498.5C955.032 499.484 957.749 499.766 959.96 500.222L973.403 502.879L1014.05 510.483L952.62 523.164L951.575 547.253C948.055 589.781 938.409 631.389 923.955 671.487L977.662 711.172L936.376 702.307L920.345 699.008C917.77 698.451 914.96 698.163 912.486 697.278C909.703 700.706 907.883 705.546 905.863 709.505L893.698 732.689C877.294 762.068 856.909 791.211 833.161 815.091L854.313 848.254L863.07 861.45C864.628 863.806 866.628 866.306 867.606 868.941L812.895 834.19C789.997 853.91 765.578 872.259 739.664 887.855L694.359 912.385L709.575 978.448L679.813 934.887C677.489 931.611 674.52 925.927 671.38 923.685C659.294 929.187 645.981 932.858 633.177 936.248L590.75 945.537C569.444 949.505 547.384 952.636 525.665 952.492L511.551 1013.7C510.843 1006.27 508.85 998.722 507.19 991.45L498.24 952.521C489.394 952.548 480.385 951.415 471.575 950.549C448.537 948.285 424.897 945.257 402.449 939.435L352.466 924.953L317.344 974.583L330.408 913.938L337.544 862.139L348.597 753.984L348.888 753.057L351.212 720.031C350.342 718.725 348.015 717.207 346.788 716.152L334.027 705.235C332.353 702.865 329.524 700.499 327.461 698.414C323.54 694.449 319.673 690.3 315.438 686.671L303.463 672.849L284.627 644.604C281.622 638.814 277.171 632.384 275.244 626.216L269.077 611C267.363 606.804 265.943 602.594 263.558 598.71C262.677 597.23 262.196 594.6 261.678 592.894L257.328 578.13L251.393 548.452C251.585 546.26 251.053 543.746 250.786 541.555L249.936 531.142L249.995 494.687C249.602 489.003 250.994 482.374 251.358 476.612L258.846 444.004L264.972 424.525C267.238 420.451 268.511 415.519 270.179 411.153C271.764 407.006 273.784 403.122 275.592 399.082L288.692 375.469L305.918 350.784L316.76 337.63C319.38 336.136 321.894 332.986 324.044 330.831C328.242 326.62 332.922 322.446 336.636 317.813C338.287 315.791 340.72 314.073 342.722 312.389L354.589 302.397L381.789 284.346C386.753 282.372 391.737 278.693 396.517 276.137C399.413 275.467 402.784 273.855 405.5 272.585L423.006 264.903C430.92 260.915 440.417 259.096 448.925 256.764L480.018 250.928C484.458 251.27 489.776 250.073 494.36 249.992L495.89 249.25C496.046 233.127 498.799 216.621 500.56 200.609L507.585 143.711C509.121 132.613 510.42 121.297 512.925 110.368C513.448 115.083 512.945 120.314 512.968 125.085L512.995 160.178L513.004 208.162C513.003 221.913 513.139 235.423 511.975 249.134L525.967 249.12L517.569 154.5L515.51 130.25C515.26 127.181 515.481 121.898 514.151 119.148L513.458 117.75C513.204 116.903 513.544 115.431 513.563 114.5L513.471 107.921C513.273 102.785 512.139 97.7759 511.971 92.6059L512.347 50.0706C512.414 41.2448 511.676 32.0558 512.141 23.2981C512.237 21.4969 512.388 20.0235 513.344 18.4662Z"/>
	<path fill="#F74500" transform="scale(0.078125 0.078125)" d="M447.035 766.806L477.524 772.766L476.964 773.456C473.002 778.514 468.442 782.979 463.936 787.545C462.234 789.269 460.478 791.61 458.446 792.911C456.664 787.938 454.7 783.121 452.42 778.355C450.645 774.645 447.916 770.803 447.035 766.806Z"/>
	<path fill="#F74500" transform="scale(0.078125 0.078125)" d="M644.83 739.711L668.322 724.909L673.817 755.41L644.83 739.711Z"/>
	<path fill="#F74500" transform="scale(0.078125 0.078125)" d="M738.647 646.767C741.462 650.223 743.543 654.376 745.802 658.218L755.743 675.093L732.331 671.06C729.552 670.576 726.029 670.478 723.475 669.369L738.647 646.767Z"/>
	<path fill="#F74500" transform="scale(0.078125 0.078125)" d="M772.041 548.018L787.5 558.954C791.228 561.565 795.174 563.974 798.218 567.402L775.969 575.214C772.969 576.267 770.005 578.079 766.812 578.038L766.158 578.079L772.041 548.018Z"/>
	<path fill="#F74500" transform="scale(0.078125 0.078125)" d="M565.767 223.464C569.946 234.029 571.18 245.787 575.532 256.343C565.719 253.268 555.056 252.132 544.931 250.458C545.981 246.806 549.649 242.937 551.977 239.97C556.409 234.319 560.628 228.496 565.767 223.464Z"/>
	<path fill="#F74500" transform="scale(0.078125 0.078125)" d="M351.212 720.031L378.516 738.226L348.888 753.057L351.212 720.031Z"/>
	<path fill="#F74500" transform="scale(0.078125 0.078125)" d="M644.526 283.713L675.166 266.815C674.659 271.598 672.969 299.167 671.012 300.855L644.526 283.713Z"/>
	<path fill="#F74500" transform="scale(0.078125 0.078125)" d="M765.187 442.969C768.711 443.705 772.006 445.25 775.336 446.58L791.716 453.112C793.405 453.788 798.6 455.292 799.582 456.651C793.106 462.288 784.726 467.264 777.338 471.7C775.834 472.603 773.36 474.609 771.725 474.675L765.187 442.969Z"/>
	<path fill="#F74500" transform="scale(0.078125 0.078125)" d="M718.097 347.309L756.983 347.358L744.793 366.594C742.706 369.882 740.718 373.586 738.29 376.604L718.097 347.309Z"/>
	<path fill="#F74500" transform="scale(0.078125 0.078125)" d="M576.125 767.679C576.231 768.202 576.437 768.716 576.443 769.25C576.459 770.748 574.729 774.208 574.198 775.748L568.29 793.113C567.617 795.085 566.975 798.222 565.918 799.895L565.461 800.417L546.353 784.149C543.258 781.562 537.848 778.135 535.761 774.734L536.444 774.042C542.145 774.109 547.941 772.986 553.527 771.978L576.125 767.679Z"/>
	<path fill="#FEA103" transform="scale(0.078125 0.078125)" d="M774.09 500.374L856.514 507.286L881.024 509.103C885.834 509.44 890.854 509.197 895.486 510.598L876.045 513.152L819.107 519.523L789.339 522.65C784.691 523.142 778.302 523.084 774.023 524.799L774.09 500.374Z"/>
	<path fill="#FEA103" transform="scale(0.078125 0.078125)" d="M759.837 599.687L794.595 619.517L833.752 641.284L858.209 654.853C864.361 658.149 871.266 660.929 876.747 665.248L750.305 623.089L759.837 599.687Z"/>
	<path fill="#FEA103" transform="scale(0.078125 0.078125)" d="M748.461 397.113C754.219 394.372 760.32 392.741 766.42 390.951L791.559 383.473L854.25 364.212L886.506 353.466C879.356 358.708 870.814 362.68 862.945 366.789L830.991 383.555L785.47 407.577C777.074 411.958 767.389 418.146 758.184 420.459L748.461 397.113Z"/>
	<path fill="#FEA103" transform="scale(0.078125 0.078125)" d="M599.538 263.831C605.18 249.976 613.821 236.638 621.188 223.576L656.317 160.832L666.741 141.386C668.459 138.077 669.849 134.333 672.207 131.435L661.564 160.888L641.664 220.455L629.331 257.047C627.508 262.367 626.018 268.273 623.59 273.315L599.538 263.831Z"/>
	<path fill="#FEA103" transform="scale(0.078125 0.078125)" d="M688.362 707.929L707.978 688.284L761.857 751.794L778.931 773.922L788.264 785.616C790.886 788.792 794.029 792.087 795.691 795.894C793.208 793.17 790.918 790.144 788.254 787.61C776.699 776.621 762.449 768.141 750.007 758.152L706.353 722.815L688.362 707.929Z"/>
	<path fill="#FEB702" transform="scale(0.078125 0.078125)" d="M401.242 749.934L425.17 759.704C422.739 765.711 419.225 771.4 416.043 777.041L401.976 802L353.123 890.799C353.631 886.26 355.892 881.766 357.364 877.465L365.3 853.965L384.891 794.753C389.891 779.649 394.584 764.412 401.242 749.934Z"/>
	<path fill="#FEA103" transform="scale(0.078125 0.078125)" d="M687.076 314.776L801.545 219.951C799.588 223.844 796.317 226.917 793.578 230.271L773.75 254.141L735.812 299.825C726.364 311.378 717.463 323.516 706.738 333.947L687.076 314.776Z"/>
	<path fill="#FEB702" transform="scale(0.078125 0.078125)" d="M599.568 760.431L626.975 748.675L663.115 862.68L670.118 885C671.133 888.162 673.23 892.6 673.25 895.866C670.844 892.83 669.395 888.422 667.666 884.926L655.812 861.253L615.034 786.297C610.106 777.811 605.463 768.235 599.568 760.431Z"/>
	<path fill="#FEB702" transform="scale(0.078125 0.078125)" d="M495.948 774.553L506.276 774.638C507.95 774.69 510.296 775.067 511.866 774.656L525.587 774.994L510.976 925.5L495.948 774.553Z"/>
	<path fill="#F0E478" transform="scale(0.078125 0.078125)" d="M685.321 159.664C686.885 159.982 688.068 160.314 689.5 161.057C714.995 174.283 739.748 189.506 762.347 207.216C765.748 209.881 769.898 212.174 772.971 215.123L675.357 266.972L685.321 159.664Z"/>
	<path fill="#F0E478" transform="scale(0.078125 0.078125)" d="M537.573 903.029L565.644 801.102L640.587 883.36C635.041 886.316 628.778 887.375 622.75 888.97C605.033 893.658 587.617 897.208 569.5 899.966C559.092 901.551 548.093 903.005 537.573 903.029Z"/>
	<path fill="#F0E478" transform="scale(0.078125 0.078125)" d="M805.315 251.395C810.423 255.88 814.675 261.259 818.981 266.5C831.904 282.229 843.136 298.821 853.526 316.312L860.118 327.856L863.35 334.122C863.748 334.936 864.269 336.718 864.911 337.289L757.269 347.561L805.315 251.395Z"/>
	<path fill="#F0E478" transform="scale(0.078125 0.078125)" d="M686.203 865.845L673.862 755.237L771.011 807.542C761.775 816.877 751.121 824.526 740.415 832.072C723.014 844.338 704.956 855.752 686.203 865.845Z"/>
	<path fill="#F0E478" transform="scale(0.078125 0.078125)" d="M809.25 776.03L755.705 674.927L866.819 688.238L856.25 707.601L832.144 745.336C825.026 755.888 817.726 766.511 809.25 776.03Z"/>
	<path fill="#F0E478" transform="scale(0.078125 0.078125)" d="M383.984 883.873L457.863 794.365L458.19 794.343L485.824 902.993C479.045 903.161 471.456 901.794 464.712 900.881L411 891.039C401.97 888.991 392.773 886.779 383.984 883.873Z"/>
	<path fill="#F0EC60" transform="scale(0.078125 0.078125)" d="M866.819 688.238L900.528 694.632C903.552 695.216 909.949 695.67 912.486 697.278C909.703 700.706 907.883 705.546 905.863 709.505L893.698 732.689C877.294 762.068 856.909 791.211 833.161 815.091C830.078 811.199 827.62 806.259 825.016 802L809.25 776.03C817.726 766.511 825.026 755.888 832.144 745.336L856.25 707.601L866.819 688.238Z"/>
	<path fill="#F0E478" transform="scale(0.078125 0.078125)" d="M882.863 380.531C888.962 390.597 891.227 404.118 893.983 415.5C898.799 435.395 902.795 455.494 904.203 475.944C904.475 479.902 905.054 483.629 904.861 487.615L799.929 456.642L882.863 380.531Z"/>
	<path fill="#F0EC60" transform="scale(0.078125 0.078125)" d="M771.011 807.542L812.895 834.19C789.997 853.91 765.578 872.259 739.664 887.855L694.359 912.385L686.203 865.845C704.956 855.752 723.014 844.338 740.415 832.072C751.121 824.526 761.775 816.877 771.011 807.542Z"/>
	<path fill="#F0E478" transform="scale(0.078125 0.078125)" d="M884.887 641.45L818.356 584.617L804.038 572.406C802.385 571.006 799.567 569.226 798.491 567.397L905.002 534.067L903.771 553.221C901.278 577.905 896.528 602.064 889.923 625.953C888.621 630.663 887.725 637.453 884.887 641.45Z"/>
	<path fill="#F0E478" transform="scale(0.078125 0.078125)" d="M537.114 118.417L564.639 120.928C583.777 123.608 602.403 128.411 621.137 133.011C628.035 134.704 636.068 135.497 642.456 138.616L566.598 222.983C552.073 189.915 545.251 153.45 537.114 118.417Z"/>
	<path fill="#F0EC60" transform="scale(0.078125 0.078125)" d="M693.207 111.672C703.022 115.264 712.456 120.307 721.653 125.25C743.132 136.792 762.934 149.731 782.761 163.855C793.788 171.711 805.538 179.836 815.131 189.442L772.971 215.123C769.898 212.174 765.748 209.881 762.347 207.216C739.748 189.506 714.995 174.283 689.5 161.057C688.068 160.314 686.885 159.982 685.321 159.664L693.207 111.672Z"/>
	<path fill="#F0EC60" transform="scale(0.078125 0.078125)" d="M832.507 208.699C845.82 225.174 859.964 240.807 872.506 257.934C882.565 271.67 891.311 286.644 899.811 301.375C904.692 309.836 910.795 319.461 913.489 328.827L864.911 337.289C864.269 336.718 863.748 334.936 863.35 334.122L860.118 327.856L853.526 316.312C843.136 298.821 831.904 282.229 818.981 266.5C814.675 261.259 810.423 255.88 805.315 251.395L832.507 208.699Z"/>
	<path fill="#F0EC60" transform="scale(0.078125 0.078125)" d="M525.261 70.458L570.151 74.7528C604.282 79.2503 639.424 87.5625 671.616 99.8336L652.865 125.026C649.498 129.549 646.276 134.49 642.456 138.616C636.068 135.497 628.035 134.704 621.137 133.011C602.403 128.411 583.777 123.608 564.639 120.928L537.114 118.417L525.261 70.458Z"/>
	<path fill="#F0EC60" transform="scale(0.078125 0.078125)" d="M905.002 534.067L952.62 523.164L951.575 547.253C948.055 589.781 938.409 631.389 923.955 671.487L884.887 641.45C887.725 637.453 888.621 630.663 889.923 625.953C896.528 602.064 901.278 577.905 903.771 553.221L905.002 534.067Z"/>
	<path fill="#F0EC60" transform="scale(0.078125 0.078125)" d="M882.863 380.531L921.671 350.748C925.371 358.853 928.02 367.298 930.831 375.733C941.329 407.238 948.626 440.368 951.615 473.456L952.736 496.632C952.631 497.318 952.467 497.867 952.25 498.521L904.861 487.615C905.054 483.629 904.475 479.902 904.203 475.944C902.795 455.494 898.799 435.395 893.983 415.5C891.227 404.118 888.962 390.597 882.863 380.531Z"/>
	<path fill="#F0EC60" transform="scale(0.078125 0.078125)" d="M352.466 924.953L383.984 883.873C392.773 886.779 401.97 888.991 411 891.039L464.712 900.881C471.456 901.794 479.045 903.161 485.824 902.993L494.868 939C495.927 943.199 496.565 948.641 498.24 952.521C489.394 952.548 480.385 951.415 471.575 950.549C448.537 948.285 424.897 945.257 402.449 939.435L352.466 924.953Z"/>
	<path fill="#F0EC60" transform="scale(0.078125 0.078125)" d="M640.587 883.36C648.673 892.556 655.803 902.982 663.295 912.699L669.115 920.263C669.84 921.211 671.103 922.53 671.38 923.685C659.294 929.187 645.981 932.858 633.177 936.248L590.75 945.537C569.444 949.505 547.384 952.636 525.665 952.492L537.573 903.029C548.093 903.005 559.092 901.551 569.5 899.966C587.617 897.208 605.033 893.658 622.75 888.97C628.778 887.375 635.041 886.316 640.587 883.36Z"/>
	<path fill="#F0E478" transform="scale(0.078125 0.078125)" d="M494.36 249.992L495.89 249.25C496.046 233.127 498.799 216.621 500.56 200.609L507.585 143.711C509.121 132.613 510.42 121.297 512.925 110.368C513.448 115.083 512.945 120.314 512.968 125.085L512.995 160.178L513.004 208.162C513.003 221.913 513.139 235.423 511.975 249.134L525.967 249.12C532.081 249.496 538.875 250.682 544.931 250.458C555.056 252.132 565.719 253.268 575.532 256.343L599.538 263.831L623.59 273.315L644.526 283.713L671.012 300.855L687.076 314.776L706.738 333.947L714.483 343.182C715.582 344.476 716.781 346.253 718.097 347.309L738.29 376.604L748.461 397.113L758.184 420.459L765.187 442.969L771.725 474.675L774.09 500.374L774.023 524.799L772.041 548.018L766.158 578.079L759.837 599.687L750.305 623.089L738.647 646.767L723.475 669.369L707.978 688.284L688.362 707.929C682.138 714.356 675.223 719.288 668.322 724.909L644.83 739.711L626.975 748.675L599.568 760.431L576.125 767.679L553.527 771.978C547.941 772.986 542.145 774.109 536.444 774.042L525.587 774.994L511.866 774.656L511.92 746.583L512.494 746.559L513.498 746.591C524.353 746.743 534.979 745.389 545.688 743.754C594.853 736.246 639.915 714.271 675.161 679.105C719.268 635.1 744.61 574.109 744.432 511.792C744.287 461.028 727.338 408.028 696.337 367.694C690.394 359.962 683.74 352.962 676.851 346.081C633.308 302.595 573.856 279.353 512.564 279.443L511.918 279.388L511.886 249.243L494.36 249.992Z"/>
	<path fill="#F74500" transform="scale(0.078125 0.078125)" d="M512.564 279.443C573.856 279.353 633.308 302.595 676.851 346.081C683.74 352.962 690.394 359.962 696.337 367.694C727.338 408.028 744.287 461.028 744.432 511.792C744.61 574.109 719.268 635.1 675.161 679.105C639.915 714.271 594.853 736.246 545.688 743.754C534.979 745.389 524.353 746.743 513.498 746.591L512.494 746.559L512.559 683.597C546.156 683.083 577.653 674.064 605.659 655.415C612.483 650.872 619.261 646.011 625.25 640.389C658.042 609.602 680.56 568.262 681.949 522.67C682.183 514.987 682.468 507.102 681.854 499.431C678.909 462.638 664.546 423.734 638.89 396.629C612.101 368.327 579.823 348.344 541.035 341.793C531.816 340.235 522.267 339.705 512.93 339.434C512.157 338.242 512.477 336.551 512.493 335.182L512.631 323.298L512.564 279.443Z"/>
	<path fill="#FEA103" transform="scale(0.078125 0.078125)" d="M512.93 339.434C522.267 339.705 531.816 340.235 541.035 341.793C579.823 348.344 612.101 368.327 638.89 396.629C664.546 423.734 678.909 462.638 681.854 499.431C682.468 507.102 682.183 514.987 681.949 522.67C680.56 568.262 658.042 609.602 625.25 640.389C619.261 646.011 612.483 650.872 605.659 655.415C577.653 674.064 546.156 683.083 512.559 683.597L511.652 683.207C512.255 681.926 511.916 680.127 511.869 678.724L511.806 669.519L511.911 625.025L511.615 624.947C513.002 619.349 511.914 611.097 511.873 605.295L511.855 572.197L511.864 460.271L511.993 398.481L512.022 339.514L512.93 339.434Z"/>
	<path fill="#F0E478" transform="scale(0.078125 0.078125)" d="M511.993 398.481L512.519 398.583C515.204 399.067 517.625 398.655 520.305 398.711C523.621 398.78 526.967 399.189 530.228 399.778C559.949 405.146 586.64 421.557 604.091 446.323C617.779 465.749 623.962 488.907 624.042 512.518C624.063 518.499 624.065 524.707 623.049 530.62C617.979 560.128 602.224 587.062 577.454 604.421C563.094 614.485 545.876 621.142 528.549 623.75C523.06 624.576 517.451 624.74 511.911 625.025L511.615 624.947C513.002 619.349 511.914 611.097 511.873 605.295L511.855 572.197L511.864 460.271L511.993 398.481Z"/>
	<path fill="#FC7200" transform="scale(0.078125 0.078125)" d="M494.36 249.992L511.886 249.243L511.918 279.388L512.564 279.443L512.631 323.298L512.493 335.182C512.477 336.551 512.157 338.242 512.93 339.434L512.022 339.514L511.993 398.481L511.864 460.271L511.855 572.197L511.873 605.295C511.914 611.097 513.002 619.349 511.615 624.947L511.911 625.025L511.806 669.519L511.869 678.724C511.916 680.127 512.255 681.926 511.652 683.207L512.559 683.597L512.494 746.559L511.92 746.583L511.866 774.656C510.296 775.067 507.95 774.69 506.276 774.638L495.948 774.553L477.524 772.766L447.035 766.806L425.17 759.704L401.242 749.934C393.255 747.025 385.988 742.226 378.516 738.226L351.212 720.031C350.342 718.725 348.015 717.207 346.788 716.152L334.027 705.235C332.353 702.865 329.524 700.499 327.461 698.414C323.54 694.449 319.673 690.3 315.438 686.671L303.463 672.849L284.627 644.604C281.622 638.814 277.171 632.384 275.244 626.216L269.077 611C267.363 606.804 265.943 602.594 263.558 598.71C262.677 597.23 262.196 594.6 261.678 592.894L257.328 578.13L251.393 548.452C251.585 546.26 251.053 543.746 250.786 541.555L249.936 531.142L249.995 494.687C249.602 489.003 250.994 482.374 251.358 476.612L258.846 444.004L264.972 424.525C267.238 420.451 268.511 415.519 270.179 411.153C271.764 407.006 273.784 403.122 275.592 399.082L288.692 375.469L305.918 350.784L316.76 337.63C319.38 336.136 321.894 332.986 324.044 330.831C328.242 326.62 332.922 322.446 336.636 317.813C338.287 315.791 340.72 314.073 342.722 312.389L354.589 302.397L381.789 284.346C386.753 282.372 391.737 278.693 396.517 276.137C399.413 275.467 402.784 273.855 405.5 272.585L423.006 264.903C430.92 260.915 440.417 259.096 448.925 256.764L480.018 250.928C484.458 251.27 489.776 250.073 494.36 249.992Z"/>
	<path fill="#F0EC60" transform="scale(0.078125 0.078125)" d="M494.36 249.992L511.886 249.243L511.918 279.388C493.422 280.311 475.239 282.019 457.156 286.25C411.301 296.98 369.439 322.705 337.961 357.5C297.653 402.055 275.674 463.844 278.655 523.859C281.821 587.613 311.552 645.719 358.709 688.155C393.872 719.797 440.01 738.434 486.568 744.672C494.95 745.795 503.481 746.044 511.92 746.583L511.866 774.656C510.296 775.067 507.95 774.69 506.276 774.638L495.948 774.553L477.524 772.766L447.035 766.806L425.17 759.704L401.242 749.934C393.255 747.025 385.988 742.226 378.516 738.226L351.212 720.031C350.342 718.725 348.015 717.207 346.788 716.152L334.027 705.235C332.353 702.865 329.524 700.499 327.461 698.414C323.54 694.449 319.673 690.3 315.438 686.671L303.463 672.849L284.627 644.604C281.622 638.814 277.171 632.384 275.244 626.216L269.077 611C267.363 606.804 265.943 602.594 263.558 598.71C262.677 597.23 262.196 594.6 261.678 592.894L257.328 578.13L251.393 548.452C251.585 546.26 251.053 543.746 250.786 541.555L249.936 531.142L249.995 494.687C249.602 489.003 250.994 482.374 251.358 476.612L258.846 444.004L264.972 424.525C267.238 420.451 268.511 415.519 270.179 411.153C271.764 407.006 273.784 403.122 275.592 399.082L288.692 375.469L305.918 350.784L316.76 337.63C319.38 336.136 321.894 332.986 324.044 330.831C328.242 326.62 332.922 322.446 336.636 317.813C338.287 315.791 340.72 314.073 342.722 312.389L354.589 302.397L381.789 284.346C386.753 282.372 391.737 278.693 396.517 276.137C399.413 275.467 402.784 273.855 405.5 272.585L423.006 264.903C430.92 260.915 440.417 259.096 448.925 256.764L480.018 250.928C484.458 251.27 489.776 250.073 494.36 249.992Z"/>
	<path fill="#FEB702" transform="scale(0.078125 0.078125)" d="M511.652 683.207C504.931 682.52 498.173 683.219 491.416 682.36C455.489 677.792 422.822 661.922 395.776 638.126C362.996 609.285 343.821 565.392 341.009 522.277C337.877 474.253 355.849 430.243 387.286 394.526C411.663 366.831 448.666 348.006 484.731 341.854C493.7 340.324 502.95 340.081 512.022 339.514L511.993 398.481L511.864 460.271L511.855 572.197L511.873 605.295C511.914 611.097 513.002 619.349 511.615 624.947L511.911 625.025L511.806 669.519L511.869 678.724C511.916 680.127 512.255 681.926 511.652 683.207Z"/>
	<path fill="#F0EC60" transform="scale(0.078125 0.078125)" d="M511.615 624.947C501.578 625.209 491.203 623.342 481.516 620.765C454.126 613.478 428.192 591.487 414.303 566.959C399.338 540.53 396.581 509.212 404.702 480.13C412.487 452.252 432.013 427.238 457.306 413.143C471.355 405.315 485.395 401.161 501.25 398.899C504.623 398.418 508.676 397.536 511.993 398.481L511.864 460.271L511.855 572.197L511.873 605.295C511.914 611.097 513.002 619.349 511.615 624.947Z"/>
</svg>
