<?xml version="1.0" encoding="utf-8" ?>
<svg xmlns="http://www.w3.org/2000/svg" xmlns:xlink="http://www.w3.org/1999/xlink" width="200" height="100">
	<path fill="#273034" transform="matrix(0.1 0 0 0.1 0 -1.52588e-05)" d="M601.878 140.137C603.82 141.131 605.091 146.943 605.992 149.23C623.951 194.815 675.93 217.041 717.997 235.116C716.064 240.855 712.139 246.318 708.937 251.449L692.285 277.846L666.34 319.411C664.791 321.9 660.079 327.728 659.538 330.346C659.271 331.639 663.107 340.42 663.574 342.604C666.449 356.062 663.249 366.094 656.065 377.367L664.435 380.546L727.497 363.346C730.479 362.528 739.029 361.336 741.227 359.678C742.278 358.886 745.128 351.331 745.979 349.651C750.289 341.15 755.295 332.695 761.359 325.318C764.494 321.505 769.652 315.6 774.902 315.304C776.974 315.187 778.754 315.652 780.312 316.989C787.521 323.177 787.526 337.662 788.285 346.586L847.006 332.612L861.691 329.684C862.878 329.462 866.03 329.28 866.975 328.708C868.068 328.046 869.87 324.934 870.813 323.734L881.473 310.701C887.082 304.235 897.174 291.604 906.25 291.177C909.129 291.041 912.458 292.141 914.551 294.163C920.694 300.099 920.624 311.795 920.986 319.704L979.986 313.98L1009.64 312.938C1011.5 312.883 1016.45 313.362 1017.8 312.699C1020.68 311.277 1024.26 307.154 1026.96 305.091C1035.13 298.853 1048.72 289.045 1059.56 290.693C1062.24 291.1 1064.37 292.284 1065.97 294.492C1069.81 299.785 1068.26 308.047 1067.43 314.111C1092.12 316.761 1116.46 319.294 1140.83 324.295L1167.96 330.707C1169.94 331.214 1174.85 333.116 1176.51 332.908C1178.8 332.622 1182.14 330.813 1184.41 330.027C1189.5 328.264 1194.81 326.901 1200.11 325.972C1204.39 325.224 1208.26 324.997 1211.93 327.712C1218.27 332.409 1216.99 339.769 1217.86 346.637L1254.95 363.474L1290.21 382.1C1294.26 384.285 1299.79 388.34 1304.08 389.606C1306.79 390.405 1329.56 384.717 1334.12 383.899C1344.56 382.027 1361.97 377.767 1371.17 384.436C1373.82 386.355 1375.32 388.562 1375.84 391.833C1377.49 402.328 1369.01 413.756 1363.25 421.827L1435.6 459.374C1438.11 460.606 1445.4 465.224 1447.82 465.352C1450.24 465.481 1454.92 463.487 1457.29 462.75C1468.19 459.366 1482.28 453.648 1493.77 455.442C1497.17 455.972 1500.75 457.567 1502.76 460.469C1507.66 467.531 1504.7 481.919 1503.17 489.774C1533.64 502.056 1564.67 511.257 1595.93 521.14L1609.46 525.44C1610.39 525.739 1613.25 527.011 1614.12 526.934C1615.89 526.776 1620.02 524.149 1621.82 523.339C1630.2 519.558 1639.4 515.896 1648.7 515.594C1653.1 515.451 1657.71 515.729 1661.05 519.006C1666.95 524.799 1666.61 535.556 1666.88 543.203L1753.97 565.429C1757.17 566.124 1764.85 568.795 1767.76 568.423C1769.58 568.19 1772.9 566.22 1774.72 565.468C1780.41 563.108 1786.15 560.633 1792.2 559.358C1797.82 558.173 1806.72 557.42 1811.63 560.824C1817.9 565.168 1819.69 573.912 1820.97 580.906C1850.83 590.089 1878.72 600.198 1905.3 617.012C1934.23 635.314 1949.46 667.46 1956.66 699.827C1965.92 741.456 1961.18 782.725 1938.06 818.928C1921.44 844.963 1896.94 867.772 1869.97 882.848C1858.86 889.062 1845.92 893.595 1833.96 898.003C1797.48 911.452 1760.07 920.973 1722.17 929.405L1721.58 927.734C1722.07 924.432 1722.57 921.087 1725.22 918.771C1728.45 915.953 1733.19 913.823 1736.92 911.666L1758.4 899.084C1783.63 883.93 1808.73 868.459 1831.97 850.333C1844.26 840.753 1857.41 826.673 1859.21 810.483C1860.6 798.016 1854.84 785.45 1847.1 775.954C1827.8 752.264 1795.54 735.493 1766.84 726.409C1733.49 715.856 1698.83 711.761 1664.18 708.13L1378.17 692.114C1380.88 700.496 1383.9 709.603 1383.71 718.477C1383.45 730.833 1378.05 742.156 1373.11 753.216C1361.62 778.936 1345.87 802.615 1336.44 829.147C1335.21 832.608 1334.01 835.199 1330.57 836.835C1323.62 833.881 1325.23 819.874 1323.74 813.227C1322.68 808.498 1320.5 804.121 1318.38 799.796L1317.77 800.199C1308.19 806.558 1295.68 816.735 1283.69 814.305C1281.57 812.749 1280.2 811.204 1279.18 808.757C1275.27 799.368 1281.87 787.135 1285.58 778.647L1231.24 796.167C1238.51 777.332 1247.87 757.578 1260.72 741.872C1271.39 728.821 1284.17 718.276 1297.13 707.616L1292.44 698.105L1241.22 705.338L1215.38 754.865C1212.29 760.324 1207.85 770.273 1203.32 774.168C1199.69 777.293 1192.07 778.423 1187.42 779.713C1182.69 781.026 1158.59 787.45 1155.96 790.48C1154.39 792.281 1154.41 798.422 1152.56 801.093C1150.23 804.467 1136.58 806.342 1132.23 807.221L1112.3 810.868C1107.78 811.532 1101.99 811.805 1098.19 808.788C1094.85 806.138 1093.28 801.419 1092.93 797.314C1092.1 787.643 1096.91 780.296 1102.81 773.279C1095.95 773.892 1086.4 775.621 1080.06 772.162C1076.84 770.404 1074.78 767.717 1073.73 764.233C1072.16 759.018 1072.12 751.37 1074.88 746.484C1077.68 741.542 1083.27 736.612 1087.75 733.164C1104.6 720.198 1123.85 714.739 1143.95 709.16L1091.75 708.831L946.289 701.303C910.659 698.29 874.039 694.765 839.799 683.987C825.239 702.478 808.137 719.23 794.285 738.199C778.858 759.327 768.362 783.724 755.931 806.641C748.712 819.948 740.156 832.027 733.537 845.709L726.218 796.355C714.982 805.213 702.279 812.782 690.263 820.552C687.978 822.03 682.76 826.345 680.497 826.849C679.619 827.045 678.182 826.83 677.246 826.822C676.045 825.631 674.961 824.342 674.193 822.826C671.945 818.387 671.716 808.232 675.416 804.331C679.67 799.846 682.856 799.76 684.944 793.457C674.292 793.646 661.557 799.058 651.086 797.444C648.802 797.093 648.008 796.355 646.718 794.462C644.208 790.777 643.885 784.272 644.762 779.979C645.402 776.848 646.838 775.019 649.414 773.216L651.033 772.907C652.054 772.697 653.611 772.442 654.271 771.484C655.132 770.237 655.525 767.188 656.204 765.625C658.01 761.468 663.768 757.12 667.15 754.192C686.526 737.424 713.137 727.544 728.331 706.248C739.185 691.033 745.733 672.82 756.13 657.073L734.267 652.699L653.153 746.851C645.072 755.344 635.731 761.752 625.996 768.18C622.313 770.613 618.071 774.042 614.106 775.805C610.802 777.273 606.567 777.591 603.027 778.283C596.7 779.522 590.021 781.494 583.574 781.567C579.482 781.613 575.785 780.804 572.879 777.701C568.822 773.37 568.884 763.465 571.292 758.301C572.362 756.005 574.614 754.038 574.773 751.465C562.596 751.517 541.095 754.754 531.139 746.848C528.315 744.606 527.087 740.788 526.661 737.327C525.797 730.301 527.63 724.392 531.974 718.818C550.647 694.853 583.564 687.508 612.007 684.119C615.29 671.346 617.78 658.576 621.76 645.952C627.081 629.077 634.151 613.204 641.638 597.218C630.586 585.722 618.579 575.529 604.267 568.347C585.776 559.068 562.747 554.796 542.481 551.105C480.942 539.896 411.743 543.564 351.71 560.82C274.827 582.92 197.779 628.906 115.234 618.461C91.8109 615.497 64.1186 608.319 49.081 588.583C40.4544 577.261 38.2893 563.526 40.2206 549.679C41.3719 541.425 44.8789 533.301 47.5881 525.453C47.6704 525.214 48.3019 523.116 48.4236 523.033C49.694 522.168 54.2848 521.712 55.9274 521.385C69.4646 518.692 83.5352 518.987 97.168 516.565C115.996 513.221 135.12 507.911 153.303 502.043C176.517 494.553 199.625 485.495 221.242 474.125C258.757 454.391 294.016 428.142 327.623 402.477L299.773 386.626C298.437 385.861 293.098 382.216 292.037 382.192C289.966 382.144 285.787 383.977 283.648 384.566C276.245 386.607 268.448 388.65 260.7 388.17C255.486 387.848 250.159 386.368 246.627 382.293C239.067 373.571 240.942 362.118 241.563 351.5L204.613 325.758L191.419 315.387C190.819 314.908 188.477 312.71 187.951 312.61C186.42 312.319 181.921 314.141 180.213 314.608C174.488 316.174 168.318 317.658 162.347 316.966C155.934 316.224 151.475 314.645 147.467 309.307C140.073 299.46 142.844 285.258 144.252 273.96C136.308 266.612 126.5 260.759 117.31 255.08C113.095 254.694 102.243 262.422 97.7937 264.348C93.042 266.405 85.5792 268.772 80.5664 266.622C66.4843 260.581 66.6549 240.635 66.3215 227.687C66.2736 225.828 66.7202 221.463 66.145 219.878C65.6355 218.475 61.749 214.92 60.607 213.573C53.9659 205.743 43.3176 194.572 39.5372 185.215C46.2187 176.183 52.0573 170.263 61.5704 164.335C74.5697 156.234 89.8248 152.204 105.011 151.186C119.266 150.229 134.985 151.532 148.649 156.022C160.032 159.762 171.649 167.001 181.69 173.439C206.668 189.456 229.175 208.944 253.692 225.624C274.015 239.451 297.105 251.42 320.664 258.677C342.845 265.511 366.036 268.818 389.16 270.215C421.253 272.153 454.403 271.367 485.853 278.719L486.791 266.996C490.511 245.629 507.268 234.096 528.321 234.977C530 235.048 537.848 236.563 538.737 236.155C540.076 235.542 545.772 225.272 546.918 223.499L585.325 163.613C589.791 156.602 595.174 144.857 601.878 140.137ZM330.552 476.074C328.044 477.606 326.371 478.237 325.598 481.346C325.188 482.995 325.713 485.162 326 486.816C329.73 486.849 336.956 482.637 340.581 481.032C342.701 480.174 349.154 478.242 350.196 476.488C344.341 475.759 336.283 474.346 330.552 476.074ZM143.796 545.41C140.45 546.999 140.004 547.43 138.425 550.781L138.838 552.332L154.236 550.436L158.988 549.316C153.958 547.305 149.336 545.232 143.796 545.41ZM245.087 518.066C242.311 520.673 241.419 522.456 240.559 526.154C243.994 526.074 247.832 523.838 250.981 522.445L257.324 519.712L257.324 518.668C253.419 517.426 249.046 516.61 245.087 518.066Z"/>
	<path fill="#762C06" transform="matrix(0.1 0 0 0.1 0 -1.52588e-05)" d="M120.001 536.621C121.724 536.169 122.439 536.145 124.155 536.621C123.82 542.159 122.354 547.679 121.204 553.097C111.503 552.818 103.162 551.207 93.9367 548.249L83.7358 543.469L120.001 536.621Z"/>
	<path fill="#FCCB7C" transform="matrix(0.1 0 0 0.1 0 -1.52588e-05)" d="M753.209 608.035C759.869 615.431 765.405 625.704 770.618 634.241L754.129 631.894L734.578 627.548L753.209 608.035Z"/>
	<path fill="#FCCB7C" transform="matrix(0.1 0 0 0.1 0 -1.52588e-05)" d="M1256.19 604.98L1258.35 604.571C1258.91 604.823 1259.54 604.94 1260.01 605.326C1260.33 605.584 1261.03 608.639 1261.2 609.184L1268.59 634.774L1282.86 675.382L1258.05 678.496C1254.08 679.085 1234.59 682.239 1231.84 680.515C1238.25 655.739 1240.96 633.647 1237.92 608.209L1256.19 604.98Z"/>
	<path fill="#FCCB7C" transform="matrix(0.1 0 0 0.1 0 -1.52588e-05)" d="M702.124 553.972C716.773 565.679 729.674 579.138 741.899 593.306C731.16 603.669 720.132 611.135 707.52 618.945L704.798 618.192C691.887 612.74 678.446 606.243 666.962 598.159C664.542 596.456 662.403 594.324 661.89 591.309C677.385 580.447 690.799 569.267 702.124 553.972Z"/>
	<path fill="#40C532" transform="matrix(0.1 0 0 0.1 0 -1.52588e-05)" d="M1209.33 707.445C1213.91 707.044 1218.06 707.241 1222.62 707.694L1198.37 750.807C1197.03 752.662 1193.72 753.434 1191.63 754.128C1181.84 757.377 1171.64 759.089 1161.98 762.849C1157.53 764.579 1152.98 766.468 1149.03 769.158C1144.36 772.331 1137.72 781.751 1132.39 782.433C1127.74 783.028 1123.03 784.4 1118.43 785.394L1128.02 775.691C1131.33 770.994 1134.61 766.867 1134.77 760.802C1134.91 755.919 1133.68 751.225 1130.23 747.692C1124.14 744.498 1110.51 748.218 1103.57 749.001C1117.73 740.641 1133.6 735.351 1149.71 732.214C1155.66 731.055 1161.61 730.985 1167.45 729.192C1173.74 722.589 1176.56 717.399 1178.28 708.363L1209.33 707.445Z"/>
	<path fill="#FCCB7C" transform="matrix(0.1 0 0 0.1 0 -1.52588e-05)" d="M879.083 585.746L935.171 595.367C932.473 622.208 921.273 647.422 908.691 670.935L906.738 672.843L854.949 662.862C870.413 638.429 878.272 614.624 879.083 585.746Z"/>
	<path fill="#FCCB7C" transform="matrix(0.1 0 0 0.1 0 -1.52588e-05)" d="M1221.34 610.84C1223.62 610.581 1224.16 610.143 1226.07 611.53C1230.39 635.741 1223.38 658.987 1217.26 682.202L1146.24 684.489L1142.76 684.082C1142.53 679.252 1146.84 671.52 1148.15 666.458C1152.5 649.719 1152.9 634.487 1151.06 617.352L1221.34 610.84Z"/>
	<path fill="#FCCB7C" transform="matrix(0.1 0 0 0.1 0 -1.52588e-05)" d="M947.405 597.841L1032.37 612.528C1028.5 638.153 1019.08 656.04 1004.73 677.251C1004.21 678.14 1003.72 678.987 1002.9 679.633C999.154 682.572 933.028 675.915 924.142 675.006C936.576 650.76 943.755 624.723 947.405 597.841Z"/>
	<path fill="#FCCB7C" transform="matrix(0.1 0 0 0.1 0 -1.52588e-05)" d="M1044.25 613.989L1138.53 618.062L1139.68 627.034C1141.32 645.595 1135.97 669.719 1123.78 684.259L1119.38 684.426L1021.72 681.6C1033.89 660.038 1042.49 638.891 1044.25 613.989Z"/>
	<path fill="#40C532" transform="matrix(0.1 0 0 0.1 0 -1.52588e-05)" d="M651.677 612.815C671.175 627.777 691.684 638.75 714.908 646.722L680.518 684.891C667.711 700.035 656.942 716.75 642.268 730.259C636.854 735.245 630.301 739.412 624.163 743.45C619.089 746.787 614.047 750.473 608.16 752.174L596.206 754.976L599.597 745.75C600.848 740.95 601.302 734.875 598.524 730.469C597.864 729.421 596.703 727.804 595.721 727.051C590.735 723.223 561.222 729.324 552.62 727.204C575.182 712.646 597.917 709.503 624.023 705.981C625.904 704.721 626.826 703.52 627.606 701.426C629.849 695.399 629.133 689.038 626.406 683.354L626.015 682.55C630.49 657.864 640.068 634.939 651.677 612.815Z"/>
	<path fill="#762C06" transform="matrix(0.1 0 0 0.1 0 -1.52588e-05)" d="M346.684 413.865C375.561 430.703 405.402 445.462 438.703 451.043L475.874 455.529C470.776 457.771 463.43 458.321 457.89 459.097C438.752 461.776 419.353 462.153 400.146 464.251C391.092 465.24 382.331 467.32 373.493 469.462L370.252 466.841C358.812 457.756 344.808 449.825 329.648 451.702C324.948 452.284 319.076 453.057 316.048 457.151C308.879 466.844 311.712 482.231 313.41 493.326L279.987 509.475C276.355 505.837 272.834 503.54 268.389 501.066C261.782 497.405 254.844 494.098 247.234 493.325C242.463 492.841 237.641 493.692 233.872 496.807C225.172 503.995 225.684 522.387 224.742 532.923C218.519 535.413 191.883 545.32 186.324 543.909C178.987 535.873 167.31 530.905 157.697 526.024C175.748 519.642 193.453 513.372 210.76 505.076C259.591 481.669 304.861 447.943 346.684 413.865Z"/>
	<path fill="#5D5C5C" transform="matrix(0.1 0 0 0.1 0 -1.52588e-05)" d="M600.485 184.974C608.286 197.659 617.17 209.189 628.368 219.102C643.609 232.595 662.892 242.95 680.718 252.645L631.098 333.333L645.455 349.62C629.796 358.513 615.807 355.916 599.041 351.802L565.076 337.313C542.844 325.425 510.416 304.317 502.809 279.119C505.669 276.357 508.528 273.564 512.044 271.641C521.925 266.24 534.199 268.033 544.487 271.146L600.485 184.974Z"/>
	<path fill="#FCCB7C" transform="matrix(0.1 0 0 0.1 0 -1.52588e-05)" d="M1412 603.19C1425.03 604.598 1438.6 608.5 1451.5 611.046L1527.68 625.066C1620.02 641.039 1715.3 647.534 1799.68 692.167C1820.36 703.105 1840.61 716.173 1855.54 734.494C1870.16 752.432 1873.64 767.777 1871.37 790.527C1866.71 779.397 1863.79 769.446 1856.97 759.187L1853.9 754.984C1844.21 742.282 1832.41 733.695 1818.96 725.429C1783.5 703.647 1742.98 693.404 1702.15 687.391C1657.87 680.87 1613.4 679.153 1568.75 677.143C1502.88 674.176 1436.12 675.216 1370.72 666.522L1365.83 646.106C1382.72 633.316 1397.94 619.021 1412 603.19Z"/>
	<path fill="#40C532" transform="matrix(0.1 0 0 0.1 0 -1.52588e-05)" d="M104.172 176.112C160.116 169.499 203.809 216.746 245.812 246.158C262.601 257.914 279.942 267.271 298.957 274.902C325.52 285.563 354.205 293.448 382.823 295.561L441.25 297.454C456.13 298.273 470.902 299.702 485.486 302.816C486.43 303.018 491.504 303.816 491.887 304.207C494.641 307.011 496.798 314.464 499.246 318.189C503.59 324.796 509.217 330.707 514.486 336.589C510.742 334.093 506.347 331.035 502.082 329.53C493.962 326.664 486.935 328.796 479.491 332.219C473.442 328.356 469.45 323.171 463.94 318.873C461.403 316.894 460.233 316.5 457.094 316.895L455.433 319.58C454.655 327.991 458.625 332.952 464.421 338.533C465.588 339.657 468.481 341.712 469.205 343.017C469.683 343.877 467.911 352.305 467.882 354.162C467.783 360.692 470.198 368.129 474.007 373.396C480.756 382.729 488.604 385.606 499.5 387.298C505.086 388.166 510.075 387.387 514.658 383.931C521.768 378.568 522.64 370.361 523.652 362.193C526.316 362.039 536.229 362.088 537.93 360.991C539.153 360.203 540.093 358.256 541.504 357.263C559.672 368.647 578.504 378.025 598.813 384.891C595.853 390.026 592.946 395.891 589.244 400.487C587.609 402.517 583.81 405.025 583.23 407.413L581.401 416.134L566.406 418.011C564.303 418.523 563.429 419.76 562.529 421.619C560.289 426.25 560.288 433.057 561.994 437.864C562.608 439.595 563.753 441.317 565.498 442.138C570.539 444.511 586.289 439.419 592.047 438.359C609.473 435.154 629.431 432.773 645.996 440.77C652.872 444.089 663.216 452.599 663.653 461.117C663.706 462.151 662.376 464.947 662.02 466.038C660.101 471.926 656.948 479.548 659.212 485.704C660.438 489.04 661.937 490.335 665.039 491.85C668.547 490.065 669.907 487.281 671.231 483.752C676.702 469.17 677.499 452.438 670.707 438.139C664.203 424.447 652.65 417.983 638.903 413.191C646.081 408.897 657.949 406.989 666.123 404.638L727.581 387.015C723.198 398.99 720.115 408.472 720.636 421.387C721.974 423.619 722.363 424.056 724.609 425.355C728.112 423.772 729.609 422.103 731.344 418.639C734.258 412.822 733.739 406.087 735.979 399.952C741.877 383.803 750.941 367.598 759.602 352.788C762.43 347.954 765.315 342.141 770.996 340.64C773.538 342.833 773.914 346.353 774.196 349.506C774.876 357.095 774.677 364.704 774.574 372.311C774.511 376.914 773.664 382.285 776.452 386.23C778.785 386.674 780.024 386.997 782.227 385.729C786.269 383.401 787.341 375.856 788.282 371.637C792.312 369.192 800.205 368.39 804.97 367.288L848.314 357.714C844.503 365.289 835.33 381.197 838.488 389.866C839.365 392.272 840.111 392.528 842.285 393.433C849.546 391.03 851.193 380.984 854.408 374.651C861.923 359.846 886.55 320.072 902.37 315.287C903.185 315.041 904.42 316.059 905.168 316.481C909.876 323.545 905.469 337.057 905.725 345.325C905.823 348.469 906.293 351.983 908.691 354.223L911.621 354.082C914.737 351.838 916.307 349.185 918.221 345.908C923.515 344.068 930.633 344.058 936.287 343.412L993.176 338.706C987.83 345.527 982.125 352.956 980.889 361.781C980.389 365.355 981.152 368.339 983.288 371.229C985.673 371.928 985.976 372.211 988.064 370.602C991.736 367.773 995.772 360.107 998.788 356.197C1013.8 336.741 1030.79 320.548 1054.8 313.794L1048.63 330.538C1047.42 334.133 1046.15 338.715 1048.02 342.314C1049.21 344.606 1049.8 345.167 1052.25 345.918C1056.4 344.748 1056.29 341.596 1059.15 339.282C1063.8 335.536 1137.86 348.471 1146.77 350.206C1141.54 355.75 1135.52 361.885 1135.73 370.117C1135.81 373.141 1136.4 375.899 1138.67 378.008C1139.36 378.02 1141.02 378.266 1141.6 378.061C1144.32 377.103 1148 371.685 1150.53 369.629C1161.16 361.003 1182.72 350.802 1196.29 349.806C1199.48 349.572 1201.26 349.754 1203.72 351.742C1201.49 360.489 1194.5 366.872 1192.31 375.433L1192.18 375.977C1191.85 377.247 1191.53 378.504 1191.47 379.821C1191.34 382.879 1192.34 385.287 1194.34 387.554L1197.27 387.614C1203.88 382.675 1206.95 376.465 1210.66 369.325C1231.83 377.127 1253.17 386.549 1272.56 398.137C1269 399.905 1265.3 401.716 1262.27 404.325C1258.51 407.562 1257.27 411.835 1256.95 416.629C1256.71 420.102 1257.08 422.478 1259.42 425.156L1259.93 425.294C1262.91 426.117 1266.61 423.693 1269.52 422.575L1290.35 415.711C1312.44 409.505 1334.64 406.743 1357.46 405.172C1351.52 414.043 1343.31 421.918 1338.69 431.567C1336.96 435.178 1335.66 442.085 1337.23 445.877C1338.1 447.975 1338.85 448.01 1340.82 448.885C1344.75 447.654 1347.3 444.058 1349.92 441.057L1393.12 463.477C1399.43 466.671 1408.9 469.895 1414.18 474.423C1411.12 477.685 1409.28 480.093 1407.97 484.375L1407.43 486.239C1406.51 490.366 1407.12 494.115 1409.33 497.559C1414.97 498.809 1426.62 493.684 1432.67 492.015L1478.84 480.186C1482.39 479.336 1487.12 478.223 1490.42 480.259C1495.34 488.976 1481.79 501.092 1483.63 510.904C1484.14 513.664 1485.05 514.334 1487.3 515.852C1491.59 515.241 1492.43 513.788 1495.55 510.906L1576.03 541.152L1572.96 542.735C1568.74 545.091 1566.37 547.881 1565.14 552.609C1564.08 556.675 1563.72 561.442 1565.92 565.155C1566.53 565.483 1567.74 566.365 1568.36 566.471C1570.36 566.813 1575.22 564.791 1577.3 564.135C1598.58 557.433 1619.05 544.653 1640.65 539.865C1645.21 538.853 1647.92 538.841 1651.86 541.331C1655.89 549.424 1647.62 563.157 1646.71 572.055C1646.45 574.628 1647.04 576.848 1648.65 578.897C1649.45 579.243 1650.54 579.983 1651.38 579.721C1656.47 578.135 1659.05 571.65 1661.26 567.241L1733.48 585.477L1729.47 590.478C1726.18 595.106 1726.11 600.561 1726.99 605.957C1728.36 607.638 1729.37 609.649 1731.93 609.105C1734.96 608.461 1741.82 603.111 1744.99 601.407C1754.78 596.161 1789.61 579.626 1800.1 582.309C1812.5 585.485 1803.1 605.739 1807.52 613.29C1809.83 614.743 1809.81 614.75 1812.5 614.263C1815.58 612.529 1817.03 608.715 1818.6 605.679L1856.12 618.266C1874.52 625.678 1896.66 635.846 1911.62 648.879C1924.07 659.722 1934.02 675.941 1940.38 690.997C1952.65 720.063 1950.69 752.722 1938.91 781.554C1920.77 825.954 1883.5 852.03 1840.91 870.028C1845.29 864.385 1851.23 860.055 1855.64 854.333C1862.19 845.838 1864.71 837.963 1869.26 828.613C1874.12 818.649 1879.5 810.691 1882.71 799.81C1889.66 776.277 1884.87 751.63 1873.22 730.469C1867.16 719.463 1858.08 709.83 1849.13 701.107C1830.03 682.491 1806.95 668.605 1782.79 657.626C1726.17 631.904 1663.96 622.5 1603.06 612.744L1429.18 582.411L1433 576.394C1435.09 572.277 1435.75 564.747 1433.98 560.431C1432.83 557.602 1430.95 556.365 1428.22 555.387C1424.25 556.998 1419.85 565.656 1416.85 569.331L1397.83 590.75C1383.61 605.866 1367.59 618.612 1351.15 631.217C1354.34 658.249 1361.23 684.42 1369.31 710.343C1369.96 712.43 1371.19 715.917 1371.17 717.971C1371.14 721.311 1368.04 727.04 1366.73 730.186C1357.21 753.052 1344.69 774.571 1333.25 796.509C1330.97 790.618 1325.91 775.191 1320.8 772.507C1317.37 773.132 1314.28 776.032 1311.48 778.016L1297.97 786.92C1298.27 779.222 1300.37 771.142 1298.22 763.508C1297.14 759.65 1295.05 755.929 1291.5 753.931C1284.89 752.291 1277.55 756.074 1271.41 758.368C1277.93 750.15 1286.04 742.49 1293.99 735.673C1302.22 728.62 1311.17 722.351 1319.85 715.872C1324.25 712.593 1329.7 709.235 1331.71 703.889C1333.35 699.529 1333.17 693.207 1331.09 688.965C1329.77 686.256 1328.49 685.59 1325.68 684.872L1309.83 697.893C1295.56 670.9 1284.55 642.126 1275.9 612.865C1273.66 605.261 1271.39 597.624 1269.84 589.842C1269.35 587.404 1268.96 579.132 1267.69 577.779C1196.56 593.829 1122 597.244 1049.54 590.053L1012.78 585.42L881.871 562.129L849.688 555.625C844.379 554.442 835.918 550.968 830.656 552.246C828.592 553.945 827.3 555.755 826.659 558.367C825.601 562.675 825.674 569.743 828.203 573.615C831.627 578.858 859.773 582.268 866.898 583.622C866.516 591.187 866.259 598.989 864.496 606.387C852.909 654.997 807.831 686.232 781.249 726.17C765.264 750.187 755.15 777.75 739.486 801.99C736.925 787.723 738.366 772.569 738.517 758.135C727.986 769.932 715.566 778.368 702.224 786.686C704.391 779.866 709.12 772.742 709.909 765.753C710.152 763.6 710.388 763.484 708.984 761.738L683.772 768.666C697.647 757.947 713.127 749.782 725.964 737.594C741.319 723.015 746.778 703.341 757.827 685.987C765.198 674.41 775.253 663.676 781.391 651.432C783.659 646.909 785.108 642.347 785.232 637.268C785.586 622.805 777.252 612.99 769.834 601.632C761.349 588.641 752.568 575.938 741.843 564.653C723.493 545.343 703.369 529.116 682.371 512.822C677.922 509.37 670.311 501.184 664.551 501.04C663.709 501.775 662.913 502.533 662.243 503.43C659.61 506.96 659.648 514.229 660.301 518.487C661.471 526.122 681.441 537.818 688.124 542.816C676.989 554.114 665.344 563.332 651.771 571.538C651.335 571.801 647.639 574.189 647.409 574.15C644.971 573.737 637.952 565.862 635.71 563.992C629.725 559 623.288 554.497 616.571 550.547C570.522 523.474 513.258 521.132 461.168 520.494C405.208 519.809 350.205 534.042 297.94 553.03C248.475 571.001 199.601 593.194 145.996 594.716C125.814 595.289 106.417 593.43 86.9141 587.991C77.7614 585.439 67.6402 581.518 60.7394 574.782C56.9934 571.125 52.1421 564.1 52.2876 558.658C52.3542 556.168 53.4304 550.958 55.4983 549.38C56.3608 548.721 66.1741 557.601 68.1376 559.064C79.8917 567.822 94.058 575.453 108.887 576.794C181.854 583.394 248.783 548.598 312.988 518.965C330.832 510.729 349.433 501.057 368.242 495.402C418.349 480.338 480.582 494.543 522.996 458.785C526.322 455.981 531.967 451.564 532.286 446.953C532.563 442.926 532.87 438.494 531.529 434.609C530.653 432.071 529.726 430.758 527.344 429.599C523.001 429.976 521.094 434.653 517.578 436.805L513.281 431.152C508.727 429.359 501.838 430.418 496.918 430.481C486.182 430.619 475.402 430.845 464.68 430.205C442.558 428.884 421.164 424.283 400.499 416.318C389.938 412.246 379.836 406.586 369.853 401.258L315.452 370.402C280.808 350.068 246.018 331.117 214.037 306.602L171.742 271.583C162.158 263.066 152.705 253.659 142.473 245.958C124.405 232.36 102.834 223.537 84.6987 210.162C76.734 204.288 70.4485 197.496 63.9251 190.132L68.9943 187.068C80.3857 180.77 91.3786 177.796 104.172 176.112Z"/>
	<path fill="#273034" transform="matrix(0.1 0 0 0.1 0 -1.52588e-05)" d="M992.813 430.176C994.375 429.929 995.979 430.037 997.559 430.06C1000.58 431.756 1002.36 433.469 1004.09 436.508C1008.19 443.735 1011.43 456.848 1009.05 465.102C1007.76 469.576 1005.44 472.185 1001.46 474.435C993.738 471.775 996.524 462.603 993.324 456.666C992.383 454.919 992.221 454.64 990.234 454.036C984.91 456.673 981.939 464.384 979.536 469.502C976.593 475.308 976.215 482.348 973.14 487.809C971.562 490.612 969.779 491.495 966.797 492.249C964.795 491.318 964.395 491.059 963.569 488.944C960.849 481.98 964.32 472.367 967.019 465.832C971.866 454.094 980.711 435.243 992.813 430.176Z"/>
	<path fill="#273034" transform="matrix(0.1 0 0 0.1 0 -1.52588e-05)" d="M1328.92 483.382C1331.69 483.246 1334.56 483.488 1336.93 485.052C1343.11 489.128 1345.86 498.044 1347.1 505.004C1348.04 510.267 1348.28 517.492 1344.97 522.051C1343.08 524.642 1340.91 526.274 1337.81 526.723C1333.46 523.235 1333.65 518.186 1332.29 513.11C1331.4 509.743 1330.05 508.758 1327.15 507.037C1322.47 507.337 1318.61 510.129 1314.69 512.475C1310.47 515.018 1306.31 518.097 1302.52 521.235C1299.91 523.385 1297.37 526.905 1293.95 527.339C1292.33 526.176 1291.71 525.797 1290.89 523.907C1289.22 520.034 1290.1 514.746 1291.82 511.036C1297.48 498.832 1316.55 487.745 1328.92 483.382Z"/>
	<path fill="#273034" transform="matrix(0.1 0 0 0.1 0 -1.52588e-05)" d="M872.949 441.895C875.52 440.984 878.965 440.851 881.586 441.595C889.8 443.927 898.264 453.597 902.338 460.938C902.624 465.663 902.357 469.098 900.709 473.53C899.387 477.087 897.578 479.772 894.043 481.345C890.134 480.653 887.746 476.025 885.254 473.2C882.392 469.956 877.855 465.504 873.422 465.2L872.719 470.488C874.087 478.541 876.293 490.298 871.885 497.633C870.152 500.518 867.937 502.149 864.746 502.908C863.549 501.972 862.553 501.001 861.815 499.665C860.155 496.662 860.304 492.013 860.119 488.656C859.568 478.68 858.812 468.988 861.33 459.17C863.25 451.686 866.207 445.901 872.949 441.895Z"/>
	<path fill="#273034" transform="matrix(0.1 0 0 0.1 0 -1.52588e-05)" d="M756.3 457.52C759.317 457.438 761.047 457.233 763.647 459.018C770.702 463.861 778.483 485.724 780.093 494.36C781.233 500.471 780.868 506.461 777.206 511.66C775.773 513.694 773.988 515.145 771.484 515.56C770.886 515.236 769.459 514.694 769.043 514.239C767.4 512.439 766.282 507.161 765.504 504.765C763.212 497.695 761.209 491.098 757.324 484.702L755.371 482.242L754.088 482.422C750.005 491.128 750.039 502.409 744.773 510.474C742.915 513.321 741.547 514.126 738.281 514.749L735.84 512.91C732.991 505.26 736.414 497.824 738.658 490.502C740.416 484.765 741.863 478.933 744.02 473.324C746.583 466.658 749.459 460.557 756.3 457.52Z"/>
	<path fill="#273034" transform="matrix(0.1 0 0 0.1 0 -1.52588e-05)" d="M1214.21 462.028C1216.8 461.566 1220.2 461.131 1222.71 462.196C1227.93 464.419 1230.53 470.001 1232.43 474.979C1235.81 483.868 1239.36 503.546 1235.11 512.207C1233.39 515.704 1231.08 517.129 1227.54 518.435C1221.49 516.225 1223.11 504.341 1222.1 498.764C1221.24 494.002 1219.82 489.942 1216.41 486.416L1215.85 485.84C1213.67 485.453 1212.85 485.361 1210.74 486.287C1205.32 488.675 1199.01 497.327 1197.01 502.776C1196.39 504.442 1195.62 506.431 1194.49 507.82C1192.66 510.062 1191.23 510.327 1188.48 510.748L1186.64 509.277C1184.06 504.057 1184.49 500.418 1186.1 494.879C1189.77 482.26 1202.83 468.301 1214.21 462.028Z"/>
	<path fill="#273034" transform="matrix(0.1 0 0 0.1 0 -1.52588e-05)" d="M1111.56 438.965C1113.21 439.015 1115.11 439.03 1116.61 439.801C1119.29 441.18 1121.31 444.378 1122.33 447.115C1125.87 456.634 1126.28 479.511 1121.78 488.555C1120.23 491.686 1118.33 494.25 1114.89 495.301C1113.88 495.61 1113.01 494.804 1112.1 494.321C1108.63 488.578 1111.28 480.367 1111.13 473.948C1111.04 469.836 1110.19 465.753 1109.31 461.747L1108.89 461.741C1104.74 462.223 1098.79 468.117 1095.95 471.004C1091.02 477.105 1087.32 481.75 1084.25 489.027C1082.94 492.134 1080.76 494.312 1077.64 495.533C1074.97 494.744 1074.8 493.938 1073.34 491.699C1072.77 480.844 1075.78 473.082 1081.97 464.317C1088.25 455.421 1100.5 440.838 1111.56 438.965Z"/>
</svg>
