<?xml version="1.0" encoding="utf-8" ?>
<svg xmlns="http://www.w3.org/2000/svg" xmlns:xlink="http://www.w3.org/1999/xlink" width="80" height="80">
	<path fill="#7B260E" transform="scale(0.078125 0.078125)" d="M512.824 966.036L840.499 965.985L840.457 987.254L512.557 986.92L512.474 986.308C511.571 979.989 511.607 972.301 512.824 966.036Z"/>
	<path fill="#A14511" transform="scale(0.078125 0.078125)" d="M181.539 965.996L512.523 965.891L512.824 966.036C511.607 972.301 511.571 979.989 512.474 986.308L512.557 986.92L181.579 986.98L181.539 965.996Z"/>
	<path fill="#D2741D" transform="scale(0.078125 0.078125)" d="M512.514 921.986L703.075 921.97L752.452 921.981C759.716 921.984 768.449 921.047 775.556 922.343C777.792 923.4 813.489 923.656 816.974 922.725L840.456 922.507L840.499 965.985L512.824 966.036L512.523 965.891C513.293 959.727 512.949 953.478 512.854 947.281L512.514 921.986Z"/>
	<path fill="#F29A3C" transform="scale(0.078125 0.078125)" d="M181.539 965.996L181.47 921.498L206.996 921.709C212.214 922.561 218.207 922.042 223.532 922.041L249.822 921.858L249.905 921.766L512.514 921.986L512.854 947.281C512.949 953.478 513.293 959.727 512.523 965.891L181.539 965.996Z"/>
	<path fill="#F29A3C" transform="scale(0.078125 0.078125)" d="M508.436 30.8865C519.253 30.1445 530.721 31.3882 541.5 32.4018C603.252 38.2093 663.283 63.7371 710.086 104.527C723.007 115.788 735.34 127.961 746.2 141.243C786.823 190.928 812.095 255.172 816.519 319.168L816.974 922.725C813.489 923.656 777.792 923.4 775.556 922.343L775.757 898.121L775.871 767.542L775.726 511.131L775.812 396.988L775.75 345.202C775.504 325.344 774.76 305.48 770.534 286C759.452 234.918 735.215 187.824 698.836 150.182C649.939 99.5871 581.992 72.5976 512.086 71.5102L512.604 50.8667C512.666 44.9827 511.16 37.7677 512.801 32.1406L513.08 31.25L508.436 30.8865Z"/>
	<path fill="#FAC268" transform="scale(0.078125 0.078125)" d="M206.996 921.709L206.84 522.163L206.815 400.617L206.828 351.858L207.124 322.554C208.2 304.029 210.883 285.567 215.118 267.5C227.828 213.283 256.465 161.842 295.47 122.148C351.851 64.7713 427.7 31.5686 508.436 30.8865L513.08 31.25L512.801 32.1406C511.16 37.7677 512.666 44.9827 512.604 50.8667L512.086 71.5102C442.378 72.1318 373.906 100.301 324.966 150.213C290.956 184.898 266.172 230.289 255.634 277.722C252.614 291.314 250.373 305.188 249.33 319.079C248.402 331.446 248.531 343.861 248.533 356.253L248.524 400.988L248.476 522.991L248.318 784.211L248.133 919.742L248.25 921.389L249.905 921.766L249.822 921.858L223.532 922.041C218.207 922.042 212.214 922.561 206.996 921.709Z"/>
	<path fill="#263A80" transform="scale(0.078125 0.078125)" d="M512.086 71.5102C581.992 72.5976 649.939 99.5871 698.836 150.182C735.215 187.824 759.452 234.918 770.534 286C774.76 305.48 775.504 325.344 775.75 345.202L775.812 396.988L775.726 511.131L775.871 767.542L775.757 898.121L775.556 922.343C768.449 921.047 759.716 921.984 752.452 921.981L703.075 921.97L512.514 921.986C512.585 919.61 512.147 917.147 512.131 914.75L512.47 902.555C512.469 899.748 511.889 895.24 513.436 892.794C513.869 892.108 515.318 891.946 516.089 891.723C521.063 892.734 527.86 891.914 532.99 891.915L575.094 891.909L740.078 891.929L740.934 329.976L516.187 330.089C515.797 326.332 516.043 322.386 516.036 318.603L516.005 297.988C522.488 298.009 529.818 298.655 536.171 297.512L709.662 297.985C714.509 298.655 720.695 299.08 725.457 297.881L741.134 297.929C739.168 290.55 737.936 283.033 735.75 275.688C725.941 242.726 709.39 210.189 686.407 184.393C649.81 143.318 601.943 115.317 547.458 106.181C535.738 104.216 523.88 103.694 512.034 103.01L512.086 71.5102Z"/>
	<path fill="#022153" transform="scale(0.078125 0.078125)" d="M516.187 330.089L740.934 329.976L740.078 891.929L575.094 891.909L532.99 891.915C527.86 891.914 521.063 892.734 516.089 891.723L516.187 330.089Z"/>
	<path fill="#263A80" transform="scale(0.078125 0.078125)" d="M530.254 589.48L573.314 589.406C572.598 591.633 572.095 593.683 571.841 596.011L530.478 596.009L530.254 589.48Z"/>
	<path fill="#284892" transform="scale(0.078125 0.078125)" d="M725.466 589.46L725.554 595.999L571.841 596.011C572.095 593.683 572.598 591.633 573.314 589.406L608.76 589.39L637.635 589.461L659.482 589.521L675.127 589.528L725.466 589.46Z"/>
	<path fill="#04B189" transform="scale(0.078125 0.078125)" d="M724.983 490.285L725.466 589.46L675.127 589.528C675.775 586.748 678.082 583.224 679.366 580.641L689.889 559.502L713.521 512.113C717.082 505.008 720.218 496.599 724.983 490.285Z"/>
	<path fill="#04B189" transform="scale(0.078125 0.078125)" d="M637.635 589.461L657.366 548.998L704.395 453.396L719.355 422.981C721.345 418.91 723.971 414.821 725.439 410.553L725.537 459.523C725.817 469.494 726.761 480.47 724.983 490.285C720.218 496.599 717.082 505.008 713.521 512.113L689.889 559.502L679.366 580.641C678.082 583.224 675.775 586.748 675.127 589.528L659.482 589.521L637.635 589.461Z"/>
	<path fill="#30EDD1" transform="scale(0.078125 0.078125)" d="M725.537 459.523C725.817 469.494 726.761 480.47 724.983 490.285C720.218 496.599 717.082 505.008 713.521 512.113L689.889 559.502L679.366 580.641C678.082 583.224 675.775 586.748 675.127 589.528L659.482 589.521C660.541 586.449 662.284 583.915 663.81 581.085L670.912 567.148L710.025 488.5L718.457 471.933C720.635 467.602 722.419 463.295 725.537 459.523Z"/>
	<path fill="#30EDD1" transform="scale(0.078125 0.078125)" d="M697.806 344.497L725.479 344.5L725.439 410.553C723.971 414.821 721.345 418.91 719.355 422.981L704.395 453.396L657.366 548.998L637.635 589.461L608.76 589.39C604.899 588.73 600.579 589.082 596.637 589.061L573.884 588.96L697.806 344.497Z"/>
	<path fill="#04B189" transform="scale(0.078125 0.078125)" d="M530.254 589.48L530.383 344.496L697.806 344.497L573.884 588.96L596.637 589.061C600.579 589.082 604.899 588.73 608.76 589.39L573.314 589.406L530.254 589.48Z"/>
	<path fill="#04B189" transform="scale(0.078125 0.078125)" d="M530.517 672.249L530.477 609.212L725.688 609.009L725.462 877.011L580.225 876.737L545.682 877.028C541.51 877.066 534.718 878.116 530.911 876.75C530.338 875.701 530.418 874.644 530.398 873.483L530.511 843.164L530.467 799.235L530.517 672.249Z"/>
	<path fill="#30EDD1" transform="scale(0.078125 0.078125)" d="M530.511 843.164L531.075 842.368C535.403 836.099 538.362 828.139 541.766 821.279L560.375 784.925L624.582 659.319L649.452 609.479L664.746 609.457L629.83 678.349L571.372 793.661L548.728 838.499L538.701 858.853C536.296 863.786 534.167 869.436 530.398 873.483L530.511 843.164Z"/>
	<path fill="#30EDD1" transform="scale(0.078125 0.078125)" d="M530.517 672.249L563.852 609.569L628.079 609.484L561.148 740.619L543.893 774.674C539.788 782.844 536.127 792.025 530.467 799.235L530.517 672.249Z"/>
	<path fill="#616AB7" transform="scale(0.078125 0.078125)" d="M249.905 921.766L248.25 921.389L248.133 919.742L248.318 784.211L248.476 522.991L248.524 400.988L248.533 356.253C248.531 343.861 248.402 331.446 249.33 319.079C250.373 305.188 252.614 291.314 255.634 277.722C266.172 230.289 290.956 184.898 324.966 150.213C373.906 100.301 442.378 72.1318 512.086 71.5102L512.034 103.01C523.88 103.694 535.738 104.216 547.458 106.181C601.943 115.317 649.81 143.318 686.407 184.393C709.39 210.189 725.941 242.726 735.75 275.688C737.936 283.033 739.168 290.55 741.134 297.929L725.457 297.881C720.695 299.08 714.509 298.655 709.662 297.985L536.171 297.512C529.818 298.655 522.488 298.009 516.005 297.988L516.036 318.603C516.043 322.386 515.797 326.332 516.187 330.089L516.089 891.723C515.318 891.946 513.869 892.108 513.436 892.794C511.889 895.24 512.469 899.748 512.47 902.555L512.131 914.75C512.147 917.147 512.585 919.61 512.514 921.986L249.905 921.766Z"/>
	<path fill="#022153" transform="scale(0.078125 0.078125)" d="M281.988 343.075L282.001 330.003L449.364 330.017C455.545 330.016 501.298 329.082 504.131 330.386L504.433 331.951C501.333 335.632 499.582 339.96 497.044 344L377.054 343.939L341.465 343.904C335.445 343.899 328.904 343.394 322.944 344.095C319.473 344.425 315.659 344.113 312.157 344.112C307.113 344.11 301.995 344.296 296.97 343.827C292.113 342.586 286.962 342.996 281.988 343.075Z"/>
	<path fill="#263A80" transform="scale(0.078125 0.078125)" d="M281.988 343.075C286.962 342.996 292.113 342.586 296.97 343.827L297.031 588.649C292.149 587.592 286.815 587.982 281.839 587.998L281.988 343.075Z"/>
	<path fill="#284892" transform="scale(0.078125 0.078125)" d="M322.944 344.095C328.904 343.394 335.445 343.899 341.465 343.904L377.054 343.939L497.044 344C499.582 339.96 501.333 335.632 504.433 331.951C505.247 336.578 504.987 341.465 505.032 346.152L505.29 368.777L505.554 503.169L505.52 759.294L505.4 891.623C485.082 890.544 464.359 891.695 443.985 891.793L330.804 891.986L303.334 892.025L291.389 892.062C288.788 892.061 286.198 892.251 283.825 891.024C286.151 886.421 291.977 883.841 294.75 879.372C295.468 878.215 295.994 877.685 297.031 876.782C299.832 877.328 301.833 877.435 304.691 876.957L493.541 877.02L493.819 608.642C494.317 604.895 494.059 600.814 494.112 597.021L494.178 589.791L494.02 490.442L494 455.507L493.984 413.68L494.014 344.499L465.181 344.524L322.944 344.095Z"/>
	<path fill="#30EDD1" transform="scale(0.078125 0.078125)" d="M312.937 298.028C316.997 286.8 321.272 276.006 327.008 265.5C338.736 244.021 356.903 223.03 375.913 207.75C380.588 203.992 385.182 199.785 390.422 196.819L491.892 298.294L312.937 298.028Z"/>
	<path fill="#30EDD1" transform="scale(0.078125 0.078125)" d="M296.97 343.827C301.995 344.296 307.113 344.11 312.157 344.112C315.659 344.113 319.473 344.425 322.944 344.095L465.181 344.524L494.014 344.499L493.984 413.68L494 455.507L494.02 490.442L494.178 589.791L445.105 589.562L427.351 589.55L408.491 589.499L342.873 589.102C339.368 588.818 335.636 589.073 332.11 589.068L310.304 589.041C305.92 589.046 301.372 589.314 297.031 588.649L296.97 343.827Z"/>
	<path fill="#8DF7ED" transform="scale(0.078125 0.078125)" d="M465.181 344.524L494.014 344.499L493.984 413.68L494 455.507L494.02 490.442L494.178 589.791L445.105 589.562L427.351 589.55L408.491 589.499L342.873 589.102L465.181 344.524Z"/>
	<path fill="#30EDD1" transform="scale(0.078125 0.078125)" d="M493.984 413.68L494 455.507L494.02 490.442L494.178 589.791L445.105 589.562L427.351 589.55L408.491 589.499C409.314 586.446 411.02 583.463 412.412 580.625L419.163 566.855L447.741 508.66L478.298 444.809C483.261 434.498 487.146 422.897 493.984 413.68Z"/>
	<path fill="#8DF7ED" transform="scale(0.078125 0.078125)" d="M494 455.507L494.02 490.442C491.472 493.536 489.649 497.322 487.842 500.881L458.75 561.821L449.475 580.312C448.04 583.152 445.829 586.474 445.105 589.562L427.351 589.55C433.989 578.224 439.397 565.459 445.146 553.615L477.977 487L488.014 466.413C489.898 462.665 491.502 458.906 494 455.507Z"/>
	<path fill="#30EDD1" transform="scale(0.078125 0.078125)" d="M494.02 490.442L494.178 589.791L445.105 589.562C445.829 586.474 448.04 583.152 449.475 580.312L458.75 561.821L487.842 500.881C489.649 497.322 491.472 493.536 494.02 490.442Z"/>
	<path fill="#022153" transform="scale(0.078125 0.078125)" d="M512.034 103.01C523.88 103.694 535.738 104.216 547.458 106.181C601.943 115.317 649.81 143.318 686.407 184.393C709.39 210.189 725.941 242.726 735.75 275.688C737.936 283.033 739.168 290.55 741.134 297.929L725.457 297.881C720.695 299.08 714.509 298.655 709.662 297.985L536.171 297.512C529.818 298.655 522.488 298.009 516.005 297.988L514.252 297.916C507.055 298.198 499.004 299.145 491.892 298.294L390.422 196.819C385.182 199.785 380.588 203.992 375.913 207.75C356.903 223.03 338.736 244.021 327.008 265.5C321.272 276.006 316.997 286.8 312.937 298.028L298.744 298.344L283.323 297.985C289.822 252.665 312.216 209.18 343.578 176.018C377.525 140.122 422.694 114.269 471.69 105.984C485.057 103.723 498.523 103.378 512.034 103.01Z"/>
	<path fill="#284892" transform="scale(0.078125 0.078125)" d="M506.161 117.494L514.027 117.509L514.041 155.979L506.447 156.022L506.161 117.494Z"/>
	<path fill="#04B189" transform="scale(0.078125 0.078125)" d="M634.17 197.333L656.083 174.704C692.181 208.045 714.308 250.457 725.457 297.881C720.695 299.08 714.509 298.655 709.662 297.985C704.88 288.611 701.633 278.256 696.982 268.75C683.005 240.176 659.879 215.741 634.17 197.333Z"/>
	<path fill="#04B189" transform="scale(0.078125 0.078125)" d="M298.744 298.344C303.433 268.097 316.185 239.401 333.064 214.028C342.974 199.13 354.054 185.465 367.627 173.765L390.187 196.347L390.422 196.819C385.182 199.785 380.588 203.992 375.913 207.75C356.903 223.03 338.736 244.021 327.008 265.5C321.272 276.006 316.997 286.8 312.937 298.028L298.744 298.344Z"/>
	<path fill="#04B189" transform="scale(0.078125 0.078125)" d="M520.974 155.992L521.062 117.931C551.513 121.223 580.52 127.936 607.996 141.883C620.483 148.222 632.25 156.085 643.578 164.277L621.163 187.073C616.182 183.193 609.398 180.487 603.7 177.802C582.698 167.908 561.294 160.935 538.285 157.579C532.569 156.745 526.728 156.486 520.974 155.992Z"/>
	<path fill="#04B189" transform="scale(0.078125 0.078125)" d="M403.369 186.426C401.547 183.66 398.385 181.158 395.996 178.777L380.4 163.251C385.773 157.732 393.491 153.157 400.035 149.117C432.7 128.951 468.054 119.528 506.161 117.494L506.447 156.022C469.697 158.306 435.967 167.987 404.241 186.809L403.369 186.426Z"/>
	<path fill="#30EDD1" transform="scale(0.078125 0.078125)" d="M520.974 155.992C526.728 156.486 532.569 156.745 538.285 157.579C561.294 160.935 582.698 167.908 603.7 177.802C609.398 180.487 616.182 183.193 621.163 187.073L521.039 289.633L520.974 155.992Z"/>
	<path fill="#30EDD1" transform="scale(0.078125 0.078125)" d="M634.17 197.333C659.879 215.741 683.005 240.176 696.982 268.75C701.633 278.256 704.88 288.611 709.662 297.985L536.171 297.512L634.17 197.333Z"/>
	<path fill="#30EDD1" transform="scale(0.078125 0.078125)" d="M506.447 156.022L514.041 155.979L514.252 297.916C507.055 298.198 499.004 299.145 491.892 298.294L390.422 196.819L390.187 196.347C394.649 192.976 399.213 190.242 403.369 186.426L404.241 186.809C435.967 167.987 469.697 158.306 506.447 156.022Z"/>
	<path fill="#266CA8" transform="scale(0.078125 0.078125)" d="M506.447 156.022L514.041 155.979L514.252 297.916C507.055 298.198 499.004 299.145 491.892 298.294L390.422 196.819L390.187 196.347C394.649 192.976 399.213 190.242 403.369 186.426L404.241 186.809C407.323 191.03 411.388 194.321 415.067 197.995L433.832 217.021L506.114 290.881L506.447 156.022Z"/>
	<path fill="#30EDD1" transform="scale(0.078125 0.078125)" d="M281.839 587.998C286.815 587.982 292.149 587.592 297.031 588.649C301.372 589.314 305.92 589.046 310.304 589.041L332.11 589.068C335.636 589.073 339.368 588.818 342.873 589.102L408.491 589.499L427.351 589.55L445.105 589.562L494.178 589.791L494.112 597.021C494.059 600.814 494.317 604.895 493.819 608.642L493.541 877.02L304.691 876.957C301.833 877.435 299.832 877.328 297.031 876.782C295.994 877.685 295.468 878.215 294.75 879.372C291.977 883.841 286.151 886.421 283.825 891.024L282.269 890.894C281.739 889.045 282.018 886.805 282.022 884.878L282.05 873.626L282.107 832.001L282.023 679.281L281.863 596.978C281.41 594.19 281.399 590.779 281.839 587.998Z"/>
	<path fill="#8DF7ED" transform="scale(0.078125 0.078125)" d="M420.893 608.731C422.681 609.013 424.861 608.726 426.685 608.687L438.066 608.496L405.428 674.137L338.373 808.631L314.778 856.72C311.568 863.208 306.868 870.112 304.691 876.957C301.833 877.435 299.832 877.328 297.031 876.782L297.066 855.105L420.893 608.731Z"/>
	<path fill="#30EDD1" transform="scale(0.078125 0.078125)" d="M398.338 608.539C405.602 608.514 413.739 607.745 420.893 608.731L297.066 855.105L297.051 807.675L297.494 807.424C299.401 806.119 300.844 803.819 301.896 801.803L323.803 758.112L373.161 659.64L390.756 624.703C393.331 619.548 397.103 614.178 398.338 608.539Z"/>
	<path fill="#263A80" transform="scale(0.078125 0.078125)" d="M281.839 587.998C286.815 587.982 292.149 587.592 297.031 588.649C301.372 589.314 305.92 589.046 310.304 589.041L332.11 589.068C335.636 589.073 339.368 588.818 342.873 589.102L408.491 589.499L427.351 589.55L445.105 589.562L494.178 589.791L494.112 597.021C494.059 600.814 494.317 604.895 493.819 608.642L438.066 608.496L426.685 608.687C424.861 608.726 422.681 609.013 420.893 608.731C413.739 607.745 405.602 608.514 398.338 608.539C397.103 614.178 393.331 619.548 390.756 624.703L373.161 659.64L323.803 758.112L301.896 801.803C300.844 803.819 299.401 806.119 297.494 807.424L297.051 807.675L297.066 855.105L297.031 876.782C295.994 877.685 295.468 878.215 294.75 879.372C291.977 883.841 286.151 886.421 283.825 891.024L282.269 890.894C281.739 889.045 282.018 886.805 282.022 884.878L282.05 873.626L282.107 832.001L282.023 679.281L281.863 596.978C281.41 594.19 281.399 590.779 281.839 587.998Z"/>
	<path fill="#30EDD1" transform="scale(0.078125 0.078125)" d="M297.452 684.555C295.965 676.95 297.349 668.021 297.373 660.25L297.069 608.991L335.278 609.027C324.761 627.096 315.968 646.612 306.822 665.422L301.993 675.543C300.698 678.486 299.423 682.023 297.452 684.555Z"/>
	<path fill="#4552A6" transform="scale(0.078125 0.078125)" d="M281.839 587.998C286.815 587.982 292.149 587.592 297.031 588.649C301.372 589.314 305.92 589.046 310.304 589.041L332.11 589.068C335.636 589.073 339.368 588.818 342.873 589.102L408.491 589.499L427.351 589.55L445.105 589.562L494.178 589.791L494.112 597.021L281.863 596.978C281.41 594.19 281.399 590.779 281.839 587.998Z"/>
	<path fill="#8DF7ED" transform="scale(0.078125 0.078125)" d="M335.278 609.027L398.338 608.539C397.103 614.178 393.331 619.548 390.756 624.703L373.161 659.64L323.803 758.112L301.896 801.803C300.844 803.819 299.401 806.119 297.494 807.424L297.051 807.675L297.452 684.555C299.423 682.023 300.698 678.486 301.993 675.543L306.822 665.422C315.968 646.612 324.761 627.096 335.278 609.027Z"/>
</svg>
