<?xml version="1.0" encoding="utf-8" ?>
<svg xmlns="http://www.w3.org/2000/svg" xmlns:xlink="http://www.w3.org/1999/xlink" width="1000" height="400">
	<path fill="#838383" d="M520.983 140.226C523.718 142.726 524.815 146.662 527.628 149.416C528.605 150.372 530.439 151.498 530.692 152.803C530.904 154.659 529.973 156.414 529.31 158.109L525.42 168.01L513.421 199.129C512.655 201.07 509.983 206.066 510.156 207.849C510.233 208.646 511.546 210.614 511.941 211.403L517.251 222.387C525.458 239.945 541.287 277.183 536.594 296.147C535.797 299.365 534.506 302.548 532.429 305.158C529.917 308.313 526.836 309.918 522.862 310.4C518.983 310.87 514.343 308.283 511.403 305.909C510.037 304.806 508.737 303.345 507.242 302.46C509.479 302.622 511.563 302.645 513.754 302.096C517.859 301.068 520.629 298.625 522.749 295.066C526.03 289.557 526.719 282.581 526.314 276.313C526.046 272.145 524.841 267.737 523.911 263.666C520.202 247.433 514.236 231.553 507.156 216.503L501.167 203.974C500.664 202.971 499.094 200.644 498.978 199.627C498.823 198.258 501.681 192.663 502.258 191.178L516.614 154.155C517.985 150.679 521.849 143.68 520.983 140.226Z"/>
	<path fill="#838383" d="M954.631 109.321C959.9 110.224 964.856 116.191 967.815 120.362C975.987 131.88 980.626 145.922 983.618 159.61C990.055 189.056 989.992 220.598 984.909 250.248C981.296 271.326 973.384 301.42 954.97 314.546C950.314 317.865 944.832 319.274 939.167 318.306C935.024 317.597 932.02 315.786 928.771 313.205C927.6 312.275 926.469 311.021 925.206 310.26C928.085 310.266 930.857 310.823 933.785 310.616C937.216 310.373 941.097 308.497 943.875 306.542C950.633 301.787 955.505 294.786 959.323 287.57C967.055 272.958 971.221 256.993 974.024 240.793C977.047 223.325 977.899 205.52 977.102 187.823C975.866 160.389 970.723 132.132 954.631 109.321Z"/>
	<path fill="#293034" d="M610.307 82.087C612.031 81.3894 613.182 78.8273 614.375 77.4242C615.993 75.5224 617.905 73.8967 620.061 72.6386C623.511 70.6255 627.564 69.5626 631.514 70.7014C633.217 71.1925 636.623 72.6786 637.488 74.2677C641.198 74.3497 644.183 76.1323 646.729 78.7556C647.506 79.5566 649.053 81.0582 649.288 82.1251C654.634 83.3081 658.052 86.6072 660.951 91.1053C667.495 101.259 668.908 115.614 669.958 127.378C670.136 129.368 670.783 132.01 670.453 133.956C670.369 134.449 670.124 134.937 669.881 135.368C670.666 137.913 667.773 142.388 666.859 144.914C664.346 151.863 662.86 159.9 662.627 167.307L662.978 193.603L665.237 241.562L666.469 253.037C666.947 256.207 669.054 262.375 667.826 265.185C669.742 270.075 664.256 287.706 662.069 292.68C659.715 298.033 656.101 303.488 650.427 305.683C646.703 307.124 641.769 306.929 638.126 305.292C634.635 303.723 632.503 300.244 629.351 298.575C627.776 297.314 625.772 296.457 623.984 295.529C622.723 294.705 621.036 294.526 619.629 293.987C618.092 293.399 616.632 292.362 615.351 291.332C610.761 287.644 607.306 282.877 604.994 277.476C603.999 275.152 603.077 272.698 602.413 270.256C601.706 267.654 601.602 262.525 599.532 260.824C600.371 258.885 599.787 256.059 599.649 253.972L599.101 241.947L599.543 224.693C599.812 219.947 601.153 212.556 599.553 208.061L599.848 207.722L599.987 207.537C601.306 205.844 603.256 172.33 603.566 167.766L602.316 166.388L603.744 165.324C603.992 161.686 606.2 154.99 604.297 151.867C606.378 148.405 605.902 133.83 605.659 129.229C605.432 124.937 604.487 124.314 601.39 121.531C601.314 120.695 600.833 120.207 600.228 119.659C597.769 117.433 595.561 116.115 592.112 116.304C591.546 115.113 590.374 114.552 589.306 113.801C594.355 112.129 602.564 109.457 605.246 104.457L606.201 103.051C606.421 100.114 606.833 97.1559 607.369 94.2613C607.755 92.1696 608.661 90.0262 607.814 87.9565C608.307 87.6081 608.71 87.2358 609.008 86.7043C609.746 85.3877 610.736 83.6009 610.307 82.087ZM616.153 89.6173C617.021 92.6648 614.902 99.1109 614.508 102.464C614.105 105.896 614.798 112.745 613.157 115.528L613.003 115.775C612.083 116.494 611.361 116.99 610.233 117.352C610.14 120.329 610.469 124.141 609.763 126.992C610.106 134.826 609.636 142.793 609.518 150.637C609.456 154.7 609.924 159.675 609.199 163.629C609.488 166.304 608.761 169.249 608.388 171.917L606.503 186.801L605.298 206.804C603.803 226.764 601.373 247.107 606.315 266.783C607.304 270.721 609.526 273.822 610.739 277.478C611.939 278.389 612.583 279.854 613.509 281.028C615.262 283.249 617.73 285.133 620.407 286.086C623.819 287.3 627.639 287.334 630.916 285.675C636.467 282.865 639.604 276.776 641.413 271.08C643.665 263.989 645.166 255.879 645.715 248.447C646.906 232.303 645.575 215.948 645.801 199.769L648.098 144.703C648.116 141.034 648.863 134.58 647.231 131.45C648.513 129.092 647.644 124.244 647.411 121.575C646.716 113.607 645.426 91.7299 639.654 86.8764C639.452 84.642 638.123 83.1771 636.401 81.7444C634.031 79.7713 630.953 78.3175 627.811 78.6684C624.092 79.0838 622.313 80.6594 620.097 83.4992C618.615 85.3991 618.181 88.3378 616.153 89.6173Z"/>
	<path fill="#838383" d="M610.233 117.352C610.329 107.778 609.8 96.519 614.885 88.0332L615.725 88.398L616.153 89.6173C617.021 92.6648 614.902 99.1109 614.508 102.464C614.105 105.896 614.798 112.745 613.157 115.528L613.003 115.775C612.083 116.494 611.361 116.99 610.233 117.352Z"/>
	<path fill="#838383" d="M589.306 113.801C594.355 112.129 602.564 109.457 605.246 104.457C607.064 107.375 605.925 115.776 605.814 119.414C605.158 120.439 602.567 121.061 601.39 121.531C601.314 120.695 600.833 120.207 600.228 119.659C597.769 117.433 595.561 116.115 592.112 116.304C591.546 115.113 590.374 114.552 589.306 113.801Z"/>
	<path fill="#EC5E31" d="M637.488 74.2677C641.198 74.3497 644.183 76.1323 646.729 78.7556C647.506 79.5566 649.053 81.0582 649.288 82.1251C654.544 89.945 656.13 99.2822 657.52 108.419C660.817 130.084 660.481 152.12 659.428 173.946L657.778 205.756C657.418 226.573 659.849 247.361 655.819 267.981C653.974 277.424 650.913 290.419 642.384 296.13C638.103 298.996 634.184 298.526 629.351 298.575C627.776 297.314 625.772 296.457 623.984 295.529C625.833 295.109 627.765 295.195 629.628 294.826C633.125 294.133 635.897 292.024 638.195 289.407C642.409 284.607 644.637 278.107 646.272 272.033C652.718 248.096 649.205 224.543 650.061 200.212C650.978 174.176 653.222 148.578 651.639 122.493C651.206 115.359 650.307 108.219 649.08 101.179C647.388 91.4728 645.229 81.1191 637.488 74.2677Z"/>
	<path fill="#838383" d="M649.288 82.1251C654.634 83.3081 658.052 86.6072 660.951 91.1053C667.495 101.259 668.908 115.614 669.958 127.378C670.136 129.368 670.783 132.01 670.453 133.956C670.369 134.449 670.124 134.937 669.881 135.368C670.666 137.913 667.773 142.388 666.859 144.914C664.346 151.863 662.86 159.9 662.627 167.307L662.978 193.603L665.237 241.562L666.469 253.037C666.947 256.207 669.054 262.375 667.826 265.185C669.742 270.075 664.256 287.706 662.069 292.68C659.715 298.033 656.101 303.488 650.427 305.683C646.703 307.124 641.769 306.929 638.126 305.292C634.635 303.723 632.503 300.244 629.351 298.575C634.184 298.526 638.103 298.996 642.384 296.13C650.913 290.419 653.974 277.424 655.819 267.981C659.849 247.361 657.418 226.573 657.778 205.756L659.428 173.946C660.481 152.12 660.817 130.084 657.52 108.419C656.13 99.2822 654.544 89.945 649.288 82.1251Z"/>
	<path fill="#EC5E31" d="M616.153 89.6173C618.181 88.3378 618.615 85.3991 620.097 83.4992C622.313 80.6594 624.092 79.0838 627.811 78.6684C630.953 78.3175 634.031 79.7713 636.401 81.7444C638.123 83.1771 639.452 84.642 639.654 86.8764C645.426 91.7299 646.716 113.607 647.411 121.575C647.644 124.244 648.513 129.092 647.231 131.45C648.863 134.58 648.116 141.034 648.098 144.703L645.801 199.769C645.575 215.948 646.906 232.303 645.715 248.447C645.166 255.879 643.665 263.989 641.413 271.08C639.604 276.776 636.467 282.865 630.916 285.675C627.639 287.334 623.819 287.3 620.407 286.086C617.73 285.133 615.262 283.249 613.509 281.028C612.583 279.854 611.939 278.389 610.739 277.478C609.526 273.822 607.304 270.721 606.315 266.783C601.373 247.107 603.803 226.764 605.298 206.804L606.503 186.801L608.388 171.917C608.761 169.249 609.488 166.304 609.199 163.629C609.924 159.675 609.456 154.7 609.518 150.637C609.636 142.793 610.106 134.826 609.763 126.992C610.469 124.141 610.14 120.329 610.233 117.352C611.361 116.99 612.083 116.494 613.003 115.775L613.157 115.528C614.798 112.745 614.105 105.896 614.508 102.464C614.902 99.1109 617.021 92.6648 616.153 89.6173ZM609.199 163.629C609.488 166.304 608.761 169.249 608.388 171.917L606.503 186.801L605.298 206.804C603.803 226.764 601.373 247.107 606.315 266.783C607.304 270.721 609.526 273.822 610.739 277.478C611.451 275.732 609.429 270.674 609.032 268.609C607.67 261.523 606.958 254.607 606.726 247.384C606.383 236.711 607.275 225.856 608.07 215.208L610.155 185.712L611.385 170.788C611.583 168.205 612.056 165.259 611.585 162.712L609.199 163.629ZM613.003 115.775C612.083 116.494 611.361 116.99 610.233 117.352C610.14 120.329 610.469 124.141 609.763 126.992C610.921 127.583 612.097 128.153 612.633 129.426C612.735 129.67 612.724 129.701 612.745 129.928L613.418 128.87C613.494 124.955 614.297 119.422 613.003 115.775Z"/>
	<path fill="#838383" d="M609.763 126.992C610.921 127.583 612.097 128.153 612.633 129.426C612.735 129.67 612.724 129.701 612.745 129.928C614.291 132.388 613.504 137.278 613.439 140.137C613.281 147.103 613.441 154.249 612.652 161.172L611.585 162.712L609.199 163.629C609.924 159.675 609.456 154.7 609.518 150.637C609.636 142.793 610.106 134.826 609.763 126.992Z"/>
	<path fill="#FEFEFE" d="M647.231 131.45C645.957 130.236 646.096 127.535 645.97 125.885C645.665 121.883 645.424 117.893 644.788 113.927C643.716 107.238 642.047 99.2515 637.425 94.0646C635.842 92.2882 633.684 91.0079 631.77 89.6215C631.341 88.6676 631.145 87.8024 631.112 86.7548C631.064 85.1816 631.474 83.7898 632.595 82.6644C632.952 82.3066 633.538 82.4382 634.033 82.4287C635.907 83.2794 638.767 84.9135 639.654 86.8764C645.426 91.7299 646.716 113.607 647.411 121.575C647.644 124.244 648.513 129.092 647.231 131.45Z"/>
	<path fill="#293034" d="M329.937 149.53C330.244 145.806 329.938 141.999 330.124 138.258C330.423 132.25 332.095 124.489 335.207 119.278C337.71 115.087 341.967 111.573 346.75 110.384C353.173 108.788 358.405 110.706 363.862 113.99C370.361 115.695 372.603 119.214 377.507 123.214L384.928 117.83C390.062 114.67 396.803 111.797 402.92 113.307C404.817 113.775 407.71 114.982 408.733 116.656C411.864 116.714 414.486 117.868 416.677 120.122C417.774 121.25 418.432 122.555 418.434 124.143L418.423 124.471L420.848 124.669L422.31 125.275L420.66 173.906L420.323 180.711C420.301 181.175 420.384 182.546 420.217 182.906C420.056 183.252 419.474 183.794 419.214 184.104C412.194 188.793 401.07 193.59 399.236 202.683C397.234 212.609 399.562 224.185 400.153 234.313C401.194 252.133 402.222 294.651 385.449 305.784C381.955 308.103 377.488 308.863 373.371 307.977C368.279 306.882 363.47 303.416 360.028 299.633L355.655 297.02C352.575 296.174 349.422 294.838 346.764 293.057C338.579 287.571 334.505 278.898 332.649 269.51L329.937 149.53ZM345.135 119.708C340.462 122.24 337.571 125.304 336.034 130.488C334.208 136.642 334.819 143.569 334.693 149.966C334.62 153.705 334.146 157.89 334.838 161.572C334.192 165.404 334.438 169.413 334.485 173.292L335.082 192.555C335.255 195.482 335.775 198.421 335.851 201.345L336.328 240.575L336.288 253.617C336.28 256.13 336.078 258.959 336.647 261.408C336.383 265.596 337.669 274.005 340.607 277.081C340.883 277.37 341.213 277.586 341.563 277.773C342.171 279.73 343.929 281.641 345.43 283.016C349.262 286.526 354.179 288.874 359.45 288.61C362.77 288.444 365.77 286.293 367.92 283.89C382.455 267.645 376.629 223.688 375.624 203.097C374.65 183.132 380.231 174.894 397.729 165.547C399.943 164.364 404.115 163.064 405.689 161.199C409.202 157.036 408.127 134.886 407.81 129.219C407.667 126.666 407.644 124.857 405.602 123.085C403.792 121.514 401.126 121.056 398.795 121.218C390.662 121.782 380.438 129.163 375.236 135.058C373.923 136.153 372.66 137.353 371.021 137.924L370.539 137.504L370.303 137.261C368.809 135.734 368.493 133.832 368.008 131.826C366.774 126.876 364.373 123.601 360.263 120.634C359.2 119.998 358.1 119.375 356.922 118.978C353.022 117.662 348.823 117.921 345.135 119.708Z"/>
	<path fill="#EC5E31" d="M363.862 113.99C370.361 115.695 372.603 119.214 377.507 123.214L371.97 128.775C370.181 122.459 368.24 118.898 363.862 113.99Z"/>
	<path fill="#EC5E31" d="M408.733 116.656C411.864 116.714 414.486 117.868 416.677 120.122C417.774 121.25 418.432 122.555 418.434 124.143L418.423 124.471C419.684 127.469 419.743 130.906 419.98 134.115C420.523 141.469 420.291 148.829 419.678 156.172C419.327 160.377 418.968 164.961 417.355 168.9C415.331 173.847 410.736 174.937 406.455 177.227C399.684 180.848 390.7 186.245 388.315 193.968C386.09 201.175 388.012 211.16 388.53 218.612C390.004 239.781 391.328 263.289 383.918 283.601C381.683 289.725 378.167 296.518 371.816 299.169C368.003 300.761 363.975 300.579 360.028 299.633L355.655 297.02C359.742 296.975 363.21 296.636 366.663 294.262C383.441 282.726 382.322 240.11 381.188 221.925L380.105 205.923C379.77 201.418 379.246 196.871 380.083 192.387C381.754 183.427 391.311 177.596 398.901 173.626C401.144 172.454 403.76 171.599 405.82 170.161C409.775 167.399 410.552 162.722 411.26 158.28C412.727 149.066 414.281 124.248 408.733 116.656Z"/>
	<path fill="#838383" d="M418.423 124.471L420.848 124.669L422.31 125.275L420.66 173.906L420.323 180.711C420.301 181.175 420.384 182.546 420.217 182.906C420.056 183.252 419.474 183.794 419.214 184.104C412.194 188.793 401.07 193.59 399.236 202.683C397.234 212.609 399.562 224.185 400.153 234.313C401.194 252.133 402.222 294.651 385.449 305.784C381.955 308.103 377.488 308.863 373.371 307.977C368.279 306.882 363.47 303.416 360.028 299.633C363.975 300.579 368.003 300.761 371.816 299.169C378.167 296.518 381.683 289.725 383.918 283.601C391.328 263.289 390.004 239.781 388.53 218.612C388.012 211.16 386.09 201.175 388.315 193.968C390.7 186.245 399.684 180.848 406.455 177.227C410.736 174.937 415.331 173.847 417.355 168.9C418.968 164.961 419.327 160.377 419.678 156.172C420.291 148.829 420.523 141.469 419.98 134.115C419.743 130.906 419.684 127.469 418.423 124.471Z"/>
	<path fill="#EC5E31" d="M345.135 119.708C348.823 117.921 353.022 117.662 356.922 118.978C358.1 119.375 359.2 119.998 360.263 120.634C364.373 123.601 366.774 126.876 368.008 131.826C368.493 133.832 368.809 135.734 370.303 137.261L370.539 137.504L371.021 137.924C372.66 137.353 373.923 136.153 375.236 135.058C380.438 129.163 390.662 121.782 398.795 121.218C401.126 121.056 403.792 121.514 405.602 123.085C407.644 124.857 407.667 126.666 407.81 129.219C408.127 134.886 409.202 157.036 405.689 161.199C404.115 163.064 399.943 164.364 397.729 165.547C380.231 174.894 374.65 183.132 375.624 203.097C376.629 223.688 382.455 267.645 367.92 283.89C365.77 286.293 362.77 288.444 359.45 288.61C354.179 288.874 349.262 286.526 345.43 283.016C343.929 281.641 342.171 279.73 341.563 277.773C341.213 277.586 340.883 277.37 340.607 277.081C337.669 274.005 336.383 265.596 336.647 261.408C336.078 258.959 336.28 256.13 336.288 253.617L336.328 240.575L335.851 201.345C335.775 198.421 335.255 195.482 335.082 192.555L334.485 173.292C334.438 169.413 334.192 165.404 334.838 161.572C334.146 157.89 334.62 153.705 334.693 149.966C334.819 143.569 334.208 136.642 336.034 130.488C337.571 125.304 340.462 122.24 345.135 119.708ZM334.838 161.572L337.441 172.082C339.398 155.421 333.855 133.859 345.135 119.708C340.462 122.24 337.571 125.304 336.034 130.488C334.208 136.642 334.819 143.569 334.693 149.966C334.62 153.705 334.146 157.89 334.838 161.572ZM336.647 261.408C336.383 265.596 337.669 274.005 340.607 277.081C340.883 277.37 341.213 277.586 341.563 277.773C339.093 270.471 339.618 261.052 339.745 253.417L336.647 261.408Z"/>
	<path fill="#FEFEFE" d="M375.236 135.058C376.111 137.125 376.958 139.235 376.046 141.472C375.632 142.49 375.229 142.755 374.326 143.356C372.576 142.407 371.798 139.678 371.021 137.924C372.66 137.353 373.923 136.153 375.236 135.058Z"/>
	<path fill="#FEFEFE" d="M360.263 120.634C364.373 123.601 366.774 126.876 368.008 131.826C365.907 129.759 363.741 128.156 361.271 126.553C360.024 124.84 360.268 122.659 360.263 120.634Z"/>
	<path fill="#FEFEFE" d="M401.052 125.633L403.564 125.562C403.904 125.802 404.228 126.047 404.52 126.344C405.96 127.811 405.813 130.209 405.766 132.112C404.575 134.012 400.673 135.127 398.574 136.036L397.705 136.224C397.304 136.002 396.945 135.743 396.673 135.366C395.381 133.573 395.239 131.543 395.529 129.426C396.535 127.642 399.335 126.681 401.052 125.633Z"/>
	<path fill="#838383" d="M334.838 161.572L337.441 172.082C338.274 179.807 338.138 187.638 338.563 195.397L339.895 235.627C339.921 241.523 340.187 247.544 339.745 253.417L336.647 261.408C336.078 258.959 336.28 256.13 336.288 253.617L336.328 240.575L335.851 201.345C335.775 198.421 335.255 195.482 335.082 192.555L334.485 173.292C334.438 169.413 334.192 165.404 334.838 161.572Z"/>
	<path fill="#293034" d="M522.279 117.26C523.59 117.191 524.872 117.089 526.171 117.329C526.891 117.461 534.058 113.877 535.569 113.353L535.569 112.983C535.606 97.9606 538.596 82.5918 549.672 71.6962C555.953 65.5176 563.061 62.8358 571.81 62.9181C577.201 62.9688 585.885 64.8226 589.811 68.8438C595.035 69.1865 599.164 73.5355 602.813 76.8892L602.99 77.6067C605.314 78.0354 608.547 79.7708 610.054 81.648C610.211 81.8439 610.218 81.8875 610.307 82.087C610.736 83.6009 609.746 85.3877 609.008 86.7043C608.71 87.2358 608.307 87.6081 607.814 87.9565C608.661 90.0262 607.755 92.1696 607.369 94.2613C606.833 97.1559 606.421 100.114 606.201 103.051L605.246 104.457C602.564 109.457 594.355 112.129 589.306 113.801C590.374 114.552 591.546 115.113 592.112 116.304C595.561 116.115 597.769 117.433 600.228 119.659C600.833 120.207 601.314 120.695 601.39 121.531C604.487 124.314 605.432 124.937 605.659 129.229C605.902 133.83 606.378 148.405 604.297 151.867C606.2 154.99 603.992 161.686 603.744 165.324L602.316 166.388L603.566 167.766C603.256 172.33 601.306 205.844 599.987 207.537L599.848 207.722L599.553 208.061C601.153 212.556 599.812 219.947 599.543 224.693L599.101 241.947L599.649 253.972C599.787 256.059 600.371 258.885 599.532 260.824C600.467 263.333 599.914 266.491 599.75 269.126C599.207 277.827 598.473 287.026 594.827 295.066C592.11 301.058 587.686 306.461 581.336 308.778C577.616 310.135 573.547 310.163 569.938 308.414C566.739 306.863 565.059 303.281 562.104 301.948L556.015 298.871C552.56 297.533 549.766 296.577 547.045 293.962C541.358 288.495 538.126 281.039 536.512 273.417C532.765 255.714 535.137 237.121 535.173 219.161L534.219 194.878L534.286 154.579C533.224 153.436 532.165 153.183 530.692 152.803C530.439 151.498 528.605 150.372 527.628 149.416C524.815 146.662 523.718 142.726 520.983 140.226C521.338 138.483 520.808 136.855 520.582 135.138C520.29 132.924 520.284 130.347 520.693 128.149C521.232 125.244 523.943 121.59 523.238 118.867L523.19 118.688L524.348 118.564L524.17 117.954L522.279 117.26ZM556.045 75.7589C549.192 80.3191 543.347 88.2367 541.773 96.4292C540.874 101.111 540.495 106.018 540.148 110.767C539.986 112.977 540.277 115.671 539.501 117.748C539.57 119.027 539.771 119.641 539.113 120.761L530.714 123.693C531.156 125.926 528.921 129.347 528.491 131.774C527.991 134.594 528.796 137.91 527.825 140.582C531.518 144.089 534.17 145.611 539.019 147.315L538.933 156.212C538.242 161.269 538.51 166.671 538.45 171.776L539.529 221.711C539.654 235.043 537.894 248.26 539.308 261.591C540.043 268.516 541.495 275.557 544.932 281.684C546.415 282.941 547.22 285.004 548.704 286.444C551.119 288.787 554.474 290.212 557.861 290.082C562.16 289.917 566.226 287.081 569.019 283.997C572.029 280.673 574.042 276.068 574.978 271.706C575.712 268.286 575.897 264.597 576.236 261.111C577.328 249.867 577.215 238.597 577.194 227.314L576.281 167.56L575.074 147.522C579.566 147.333 587.106 147.632 590.88 145.202C592.859 143.927 594.611 141.713 595.099 139.376C595.538 137.277 595.864 136.173 594.676 134.353L595.148 132.601C594.447 129.84 593.49 127.282 591.768 124.982C589.317 121.71 585.775 120.798 581.897 120.265C579.388 119.114 574.073 120.417 572.133 118.762C572.14 114.969 571.939 111.468 573.624 107.937C575.79 103.397 579.428 102.492 583.743 101.022C586.119 100.212 590.294 98.9677 591.422 96.6943L592.583 95.7445C594.494 95.0713 595.302 94.3934 596.251 92.5519C597.175 90.7586 597.116 89.5576 596.436 87.6728C594.376 81.9691 589.304 76.4689 583.837 73.9144C577.461 70.935 567.995 70.3583 561.387 72.8631C559.516 73.5726 558.283 74.9719 556.397 75.6377L556.045 75.7589ZM562.104 301.948C565.059 303.281 566.739 306.863 569.938 308.414C573.547 310.163 577.616 310.135 581.336 308.778C587.686 306.461 592.11 301.058 594.827 295.066C598.473 287.026 599.207 277.827 599.75 269.126C599.914 266.491 600.467 263.333 599.532 260.824C600.371 258.885 599.787 256.059 599.649 253.972L599.101 241.947L599.543 224.693C599.812 219.947 601.153 212.556 599.553 208.061L599.848 207.722L599.987 207.537C601.306 205.844 603.256 172.33 603.566 167.766L602.316 166.388L603.744 165.324C603.992 161.686 606.2 154.99 604.297 151.867L604.206 152.052C602.816 154.544 594.848 157.605 592.097 158.278L587.735 159.126L589.103 222.005L588.855 253.336C588.625 261.139 588.42 268.947 586.917 276.631C585.643 283.142 583.283 289.919 578.744 294.888C575.054 298.928 570.08 301.685 564.539 301.917L562.104 301.948Z"/>
	<path fill="#838383" d="M527.825 140.582C526.641 137.092 523.81 135.002 524.734 130.739C525.504 127.188 527.845 125.529 530.714 123.693C531.156 125.926 528.921 129.347 528.491 131.774C527.991 134.594 528.796 137.91 527.825 140.582Z"/>
	<path fill="#EC5E31" d="M589.811 68.8438C595.035 69.1865 599.164 73.5355 602.813 76.8892L602.99 77.6067C605.314 78.0354 608.547 79.7708 610.054 81.648C610.211 81.8439 610.218 81.8875 610.307 82.087C610.736 83.6009 609.746 85.3877 609.008 86.7043C608.71 87.2358 608.307 87.6081 607.814 87.9565C608.661 90.0262 607.755 92.1696 607.369 94.2613C606.833 97.1559 606.421 100.114 606.201 103.051L605.246 104.457C602.564 109.457 594.355 112.129 589.306 113.801C585.748 112.428 582.039 111.829 578.262 111.465C585.142 108.608 592.015 107.59 597.125 101.537C600.265 97.817 601.586 92.9992 601.152 88.1824C600.494 80.863 595.308 73.4333 589.811 68.8438Z"/>
	<path fill="#838383" d="M602.99 77.6067C605.314 78.0354 608.547 79.7708 610.054 81.648C610.211 81.8439 610.218 81.8875 610.307 82.087C610.736 83.6009 609.746 85.3877 609.008 86.7043C608.71 87.2358 608.307 87.6081 607.814 87.9565C608.107 84.9328 604.582 80.2053 602.99 77.6067Z"/>
	<path fill="#EC5E31" d="M592.112 116.304C595.561 116.115 597.769 117.433 600.228 119.659C600.833 120.207 601.314 120.695 601.39 121.531C604.487 124.314 605.432 124.937 605.659 129.229C605.902 133.83 606.378 148.405 604.297 151.867L604.206 152.052C602.816 154.544 594.848 157.605 592.097 158.278L587.735 159.126L589.103 222.005L588.855 253.336C588.625 261.139 588.42 268.947 586.917 276.631C585.643 283.142 583.283 289.919 578.744 294.888C575.054 298.928 570.08 301.685 564.539 301.917L562.104 301.948L556.015 298.871C563.741 297.35 569.391 294.734 573.697 287.789C576.952 282.539 578.708 276.241 579.666 270.18C582.214 254.064 581.55 236.565 581.389 220.255L580.119 160.421C580.07 159.212 579.709 155.801 579.926 155.624C580.432 155.208 583.895 154.909 584.794 154.673C587.896 153.859 594.496 151.225 596.426 148.597C599.728 144.101 600.239 136.875 599.527 131.553C598.833 126.365 596.375 119.592 592.112 116.304Z"/>
	<path fill="#838383" d="M562.104 301.948L564.539 301.917C570.08 301.685 575.054 298.928 578.744 294.888C583.283 289.919 585.643 283.142 586.917 276.631C588.42 268.947 588.625 261.139 588.855 253.336L589.103 222.005L587.735 159.126L592.097 158.278C594.848 157.605 602.816 154.544 604.206 152.052L604.297 151.867C606.2 154.99 603.992 161.686 603.744 165.324L602.316 166.388L603.566 167.766C603.256 172.33 601.306 205.844 599.987 207.537L599.848 207.722L599.553 208.061C601.153 212.556 599.812 219.947 599.543 224.693L599.101 241.947L599.649 253.972C599.787 256.059 600.371 258.885 599.532 260.824C600.467 263.333 599.914 266.491 599.75 269.126C599.207 277.827 598.473 287.026 594.827 295.066C592.11 301.058 587.686 306.461 581.336 308.778C577.616 310.135 573.547 310.163 569.938 308.414C566.739 306.863 565.059 303.281 562.104 301.948ZM602.316 166.388L598.688 167.234C599.655 176.926 599.524 186.852 599.797 196.591C599.879 199.517 600.836 205.572 599.553 208.061L599.848 207.722L599.987 207.537C601.306 205.844 603.256 172.33 603.566 167.766L602.316 166.388Z"/>
	<path fill="#EC5E31" d="M556.045 75.7589L556.397 75.6377C558.283 74.9719 559.516 73.5726 561.387 72.8631C567.995 70.3583 577.461 70.935 583.837 73.9144C589.304 76.4689 594.376 81.9691 596.436 87.6728C597.116 89.5576 597.175 90.7586 596.251 92.5519C595.302 94.3934 594.494 95.0713 592.583 95.7445L591.422 96.6943C590.294 98.9677 586.119 100.212 583.743 101.022C579.428 102.492 575.79 103.397 573.624 107.937C571.939 111.468 572.14 114.969 572.133 118.762C574.073 120.417 579.388 119.114 581.897 120.265C585.775 120.798 589.317 121.71 591.768 124.982C593.49 127.282 594.447 129.84 595.148 132.601L594.676 134.353C595.864 136.173 595.538 137.277 595.099 139.376C594.611 141.713 592.859 143.927 590.88 145.202C587.106 147.632 579.566 147.333 575.074 147.522L576.281 167.56L577.194 227.314C577.215 238.597 577.328 249.867 576.236 261.111C575.897 264.597 575.712 268.286 574.978 271.706C574.042 276.068 572.029 280.673 569.019 283.997C566.226 287.081 562.16 289.917 557.861 290.082C554.474 290.212 551.119 288.787 548.704 286.444C547.22 285.004 546.415 282.941 544.932 281.684C541.495 275.557 540.043 268.516 539.308 261.591C537.894 248.26 539.654 235.043 539.529 221.711L538.45 171.776C538.51 166.671 538.242 161.269 538.933 156.212L539.019 147.315C534.17 145.611 531.518 144.089 527.825 140.582C528.796 137.91 527.991 134.594 528.491 131.774C528.921 129.347 531.156 125.926 530.714 123.693L539.113 120.761C539.771 119.641 539.57 119.027 539.501 117.748C540.277 115.671 539.986 112.977 540.148 110.767C540.495 106.018 540.874 101.111 541.773 96.4292C543.347 88.2367 549.192 80.3191 556.045 75.7589ZM544.932 281.684C545.441 279.288 544.009 275.605 543.551 273.165C542.945 269.935 542.662 266.741 542.492 263.465C541.787 249.866 542.912 236.282 542.937 222.69L541.968 182.961L542.051 166.487C542.104 163.746 542.661 160.142 541.956 157.509L538.933 156.212C538.242 161.269 538.51 166.671 538.45 171.776L539.529 221.711C539.654 235.043 537.894 248.26 539.308 261.591C540.043 268.516 541.495 275.557 544.932 281.684ZM539.501 117.748C540.809 117.535 542.246 117.468 543.295 116.584C543.471 107.227 544.493 97.4146 548.085 88.7062C549.128 86.176 550.537 83.7692 552.072 81.5086C553.143 79.9332 555.912 77.6295 556.045 75.7589C549.192 80.3191 543.347 88.2367 541.773 96.4292C540.874 101.111 540.495 106.018 540.148 110.767C539.986 112.977 540.277 115.671 539.501 117.748Z"/>
	<path fill="#FEFEFE" d="M581.897 120.265C585.775 120.798 589.317 121.71 591.768 124.982C593.49 127.282 594.447 129.84 595.148 132.601L594.676 134.353C594.254 135.433 593.943 135.569 593.018 136.199C591.04 135.1 590.076 131.084 588.116 129.332C586.359 127.761 584.242 127.484 582.275 126.332C581.411 124.213 581.655 122.472 581.897 120.265Z"/>
	<path fill="#FEFEFE" d="M591.422 96.6943C589.619 95.2939 589.523 93.0507 588.717 91.0314C587.982 89.1922 586.679 87.5656 585.2 86.2639C581.434 82.9497 576.85 82.5152 572.021 82.8041C571.399 82.2835 571.13 81.7549 570.912 80.9874C570.467 79.4212 570.367 77.6137 571.238 76.1723C571.788 75.2614 572.446 74.7306 573.5 74.4974C577.257 73.6662 582.153 75.02 585.315 77.124C589.384 79.8312 592.522 84.4358 593.402 89.2632C593.836 91.6454 594.014 93.6531 592.583 95.7445L591.422 96.6943Z"/>
	<path fill="#293034" d="M420.848 124.669C422.407 123.782 422.353 123.846 422.377 122.07C422.615 104.673 423.271 86.2421 434.014 71.6553C436.736 67.9583 439.743 64.2578 444.575 63.6053C448.077 63.1323 451.471 65.3299 454.135 67.3579C458.905 67.6455 462.071 70.7661 465.064 74.1534C465.387 74.5197 465.614 74.7563 465.736 75.2516C471.174 76.5124 475.165 80.5113 478.045 85.1567C482.354 92.1088 484.014 100.095 484.969 108.117C485.18 109.896 485.75 112.517 485.285 114.211C485.179 114.596 484.999 114.966 484.81 115.315L485.002 115.262L485.313 115.155C487.364 114.488 488.681 112.797 490.301 111.452C493.863 108.494 498.82 105.881 503.497 105.557C506.819 105.326 509.294 106.904 511.686 109.012C514.753 109.282 517.688 110.238 519.723 112.68C520.884 114.072 521.716 115.529 522.279 117.26L524.17 117.954L524.348 118.564L523.19 118.688L523.238 118.867C523.943 121.59 521.232 125.244 520.693 128.149C520.284 130.347 520.29 132.924 520.582 135.138C520.808 136.855 521.338 138.483 520.983 140.226C521.849 143.68 517.985 150.679 516.614 154.155L502.258 191.178C501.681 192.663 498.823 198.258 498.978 199.627C499.094 200.644 500.664 202.971 501.167 203.974L507.156 216.503C514.236 231.553 520.202 247.433 523.911 263.666C524.841 267.737 526.046 272.145 526.314 276.313C526.719 282.581 526.03 289.557 522.749 295.066C520.629 298.625 517.859 301.068 513.754 302.096C511.563 302.645 509.479 302.622 507.242 302.46C506.259 301.061 503.471 300.091 501.93 299.323C495.369 296.55 490.639 294.003 486.276 288.064C484.942 286.249 483.837 284.002 481.883 282.797C482.686 286.293 479.878 292.96 477.972 295.938C474.666 301.104 468.59 305.62 462.549 306.961C457.987 307.974 453.093 307.071 449.206 304.518C446.992 303.062 445.354 300.946 443.209 299.496C442.205 298.128 438.95 297.037 437.359 296.307C436.22 295.521 434.243 295.046 432.923 294.466C430.189 293.263 427.717 291.407 425.7 289.203C409.602 271.622 413.747 242.152 416.437 220.513L419.359 193.644C419.595 190.893 420.631 186.513 419.214 184.104C419.474 183.794 420.056 183.252 420.217 182.906C420.384 182.546 420.301 181.175 420.323 180.711L420.66 173.906L422.31 125.275L420.848 124.669ZM427.648 177.821C427.348 179.176 426.588 180.187 425.379 180.898L424.645 181.234C424.925 187.384 423.969 193.856 423.284 199.965L419.345 233.729C418.372 243.712 417.66 253.792 419.488 263.724C420.168 267.421 421.163 271.025 422.717 274.456C423.274 275.688 424.414 277.12 424.746 278.376L424.807 278.194C425.177 276.858 424.279 275.073 423.935 273.748C423.206 270.949 422.696 268.009 422.305 265.144C421.679 260.546 421.482 255.689 421.594 251.055C422.096 230.251 426.43 209.577 427.648 188.764C427.825 185.741 428.972 180.472 427.648 177.821ZM426.279 127.465C427.844 128.379 428.78 129.439 429.339 131.24L429.466 131.878C430.926 129.164 430.182 123.494 430.238 120.384L431.018 106.267C431.538 100.969 432.382 95.8019 433.969 90.7043C434.789 88.0686 435.845 85.3446 437.089 82.8736C438.015 81.0331 438.996 79.1325 440.128 77.4115C441.062 75.9915 442.74 74.6298 442.735 72.8452C435.626 76.991 431.22 86.3177 429.2 94.0428C427.25 101.504 427.003 110.115 426.736 117.807C426.629 120.892 426.917 124.459 426.279 127.465Z"/>
	<path fill="#838383" d="M426.279 127.465C427.844 128.379 428.78 129.439 429.339 131.24L429.466 131.878C430.537 134.678 429.979 139.265 429.934 142.261L428.989 168.197C428.834 170.632 429.137 174.796 428.14 176.962L427.648 177.821C427.348 179.176 426.588 180.187 425.379 180.898L424.645 181.234L426.279 127.465Z"/>
	<path fill="#EC5E31" d="M437.359 296.307C438.043 296.17 438.747 296.152 439.441 296.093C446.382 295.507 452.87 292.246 457.361 286.854C461.309 282.113 462.909 275.78 463.768 269.788C465.66 256.584 464.493 243.51 463.24 230.308C463.55 230.566 463.778 230.896 463.954 231.259C465.236 233.901 472.728 258.795 472.127 260.817C473.012 262.695 472.569 264.746 472.371 266.742C471.83 272.183 471.102 277.983 469.205 283.134C466.903 289.386 462.253 294.426 456.163 297.192C451.717 299.212 448.026 299.494 443.209 299.496C442.205 298.128 438.95 297.037 437.359 296.307Z"/>
	<path fill="#838383" d="M472.127 260.817C472.677 261.301 473.233 261.849 473.556 262.515C475.205 265.911 476.271 269.688 477.805 273.164C478.634 275.043 482.012 280.233 481.987 281.996C481.983 282.27 481.946 282.531 481.883 282.797C482.686 286.293 479.878 292.96 477.972 295.938C474.666 301.104 468.59 305.62 462.549 306.961C457.987 307.974 453.093 307.071 449.206 304.518C446.992 303.062 445.354 300.946 443.209 299.496C448.026 299.494 451.717 299.212 456.163 297.192C462.253 294.426 466.903 289.386 469.205 283.134C471.102 277.983 471.83 272.183 472.371 266.742C472.569 264.746 473.012 262.695 472.127 260.817Z"/>
	<path fill="#EC5E31" d="M454.135 67.3579C458.905 67.6455 462.071 70.7661 465.064 74.1534C465.387 74.5197 465.614 74.7563 465.736 75.2516C471.174 76.5124 475.165 80.5113 478.045 85.1567C482.354 92.1088 484.014 100.095 484.969 108.117C485.18 109.896 485.75 112.517 485.285 114.211C485.179 114.596 484.999 114.966 484.81 115.315C484.79 115.661 484.844 116.315 484.735 116.62C484.151 118.257 481.194 121.074 480.058 122.601C478.296 124.967 476.576 128.83 474.484 130.745C474.215 130.991 473.874 131.164 473.542 131.308C473.986 133.278 469.716 140.517 468.804 142.655L463.436 156.744C463.309 152.474 464.009 147.953 464.418 143.698L466.293 122.453C467.389 108.215 467.511 90.3852 461.1 77.2567C459.273 73.515 456.822 70.4938 454.135 67.3579Z"/>
	<path fill="#838383" d="M465.736 75.2516C471.174 76.5124 475.165 80.5113 478.045 85.1567C482.354 92.1088 484.014 100.095 484.969 108.117C485.18 109.896 485.75 112.517 485.285 114.211C485.179 114.596 484.999 114.966 484.81 115.315C484.79 115.661 484.844 116.315 484.735 116.62C484.151 118.257 481.194 121.074 480.058 122.601C478.296 124.967 476.576 128.83 474.484 130.745C474.215 130.991 473.874 131.164 473.542 131.308C473.687 130.85 473.815 130.383 473.867 129.904C475.31 116.558 475.123 101.52 471.735 88.4841C470.573 84.0129 468.639 78.8692 465.736 75.2516Z"/>
	<path fill="#EC5E31" d="M511.686 109.012C514.753 109.282 517.688 110.238 519.723 112.68C520.884 114.072 521.716 115.529 522.279 117.26L524.17 117.954L524.348 118.564L523.19 118.688L523.238 118.867C523.943 121.59 521.232 125.244 520.693 128.149C520.284 130.347 520.29 132.924 520.582 135.138C520.808 136.855 521.338 138.483 520.983 140.226C521.849 143.68 517.985 150.679 516.614 154.155L502.258 191.178C501.681 192.663 498.823 198.258 498.978 199.627C499.094 200.644 500.664 202.971 501.167 203.974L507.156 216.503C514.236 231.553 520.202 247.433 523.911 263.666C524.841 267.737 526.046 272.145 526.314 276.313C526.719 282.581 526.03 289.557 522.749 295.066C520.629 298.625 517.859 301.068 513.754 302.096C511.563 302.645 509.479 302.622 507.242 302.46C506.259 301.061 503.471 300.091 501.93 299.323C504.801 299.003 507.555 298.486 510.031 296.903C513.31 294.808 515.232 291.648 516.591 288.089C520.277 278.439 518.131 268.716 515.844 259.056C512 242.822 505.836 227.03 498.842 211.914L493.315 200.549C492.787 199.509 491.391 197.5 491.207 196.417C490.915 194.703 512.966 141.547 515.013 132.398C516.845 124.215 516.197 116.176 511.686 109.012Z"/>
	<path fill="#EC5E31" d="M442.735 72.8452C444.98 71.8758 446.798 72.0572 449.056 72.9457C452.148 74.1617 455.061 77.0644 456.485 80.0351L456.255 81.1251C459.806 83.7408 461.058 91.8022 461.695 96.0021C462.065 98.4363 462.755 101.186 461.767 103.544C462.735 105.687 462.482 108.055 462.467 110.356L461.973 122.833L458.72 163.215C458.226 169.564 456.999 176.31 457.669 182.662C457.864 184.505 458.146 185.201 459.473 186.421C460.832 185.679 461.161 185.267 461.6 183.764C464.101 175.191 465.321 166.369 468.149 157.812C468.839 155.723 471.163 151.49 470.725 149.414C472 148.334 472.588 146.432 473.319 144.955C474.873 141.811 476.443 138.626 478.262 135.627C480.254 132.342 482.534 129.206 484.987 126.252C485.574 127.305 485.165 127.849 484.863 128.987L485.137 128.866C486.986 127.996 487.921 125.678 489.094 124.089C492.717 119.184 499.224 112.156 505.995 114.292C507.975 114.917 509.721 116.372 510.661 118.239C510.93 118.774 511.104 119.331 511.277 119.902L511.358 120.162C513.143 126.096 510.006 133.86 507.918 139.345L502.836 152.487L493.553 176.39C490.956 182.906 486.376 190.859 487.167 197.998C487.942 204.999 493.507 212.482 496.504 218.89C502.779 232.306 507.86 246.366 511.516 260.72C512.63 265.098 514.031 269.596 514.294 274.126C514.514 277.936 514.198 281.889 512.271 285.275C510.903 287.68 508.21 289.779 505.525 290.506C502.496 291.327 498.479 289.723 495.921 288.156C485.403 281.713 481.271 267.137 477.177 256.234L469.699 234.144C467.558 226.893 465.91 218.449 462.47 211.72C461.848 210.503 461.13 209.81 459.961 209.124C458.627 209.917 458.065 210.619 457.664 212.15C456.574 216.323 458.055 222.35 458.567 226.65C459.775 236.803 460.634 246.872 460.503 257.107C460.418 263.752 460.098 271.64 456.736 277.563C455.07 280.5 452.298 282.759 449.463 284.515C446.315 286.466 441.187 288.327 437.461 287.496C434.107 286.747 430.432 284.679 428.025 282.228C426.844 281.025 425.954 279.533 424.746 278.376L424.807 278.194C425.177 276.858 424.279 275.073 423.935 273.748C423.206 270.949 422.696 268.009 422.305 265.144C421.679 260.546 421.482 255.689 421.594 251.055C422.096 230.251 426.43 209.577 427.648 188.764C427.825 185.741 428.972 180.472 427.648 177.821L428.14 176.962C429.137 174.796 428.834 170.632 428.989 168.197L429.934 142.261C429.979 139.265 430.537 134.678 429.466 131.878C430.926 129.164 430.182 123.494 430.238 120.384L431.018 106.267C431.538 100.969 432.382 95.8019 433.969 90.7043C434.789 88.0686 435.845 85.3446 437.089 82.8736C438.015 81.0331 438.996 79.1325 440.128 77.4115C441.062 75.9915 442.74 74.6298 442.735 72.8452Z"/>
	<path fill="#FEFEFE" d="M461.767 103.544C460.638 98.8668 459.985 93.4575 456.784 89.6621C455.56 88.2111 453.897 87.1865 452.41 86.029C451.106 85.0146 450.411 83.7501 450.248 82.0961C450.108 80.6717 450.398 79.3968 451.283 78.2735L452.881 78.3217C454.166 79.1414 455.392 79.8371 456.255 81.1251C459.806 83.7408 461.058 91.8022 461.695 96.0021C462.065 98.4363 462.755 101.186 461.767 103.544Z"/>
	<path fill="#838383" d="M470.725 149.414C472 148.334 472.588 146.432 473.319 144.955C474.873 141.811 476.443 138.626 478.262 135.627C480.254 132.342 482.534 129.206 484.987 126.252C485.574 127.305 485.165 127.849 484.863 128.987C484.884 131.702 481.471 135.978 480.161 138.455C476.38 145.598 473.965 153.178 471.142 160.71L471.859 150.672L470.725 149.414Z"/>
	<path fill="#FEFEFE" d="M478.639 224.416C478.874 224.411 479.097 224.416 479.331 224.457C480.493 224.665 481.114 225.585 481.726 226.504C484.066 230.018 490.042 248.563 489.265 252.076C488.887 253.782 488.368 253.951 486.977 254.854L486.425 254.64C485.21 253.341 484.811 251.077 484.295 249.382C482.991 245.097 481.952 240.635 480.398 236.438C479.592 234.262 477.678 232.095 477.203 229.943C476.759 227.933 477.634 226.089 478.639 224.416Z"/>
	<path fill="#293034" d="M669.881 135.368C670.502 135.136 671.07 134.895 671.515 134.387C673.015 132.677 674.141 130.195 675.435 128.262C678.605 123.525 682.613 119.091 686.964 115.413C698.113 105.989 711.204 101.45 725.759 102.73C733.278 103.391 740.178 105.176 746.985 108.473C748.554 109.233 750.62 109.982 751.759 111.339C756.222 111.555 760.103 115.22 763.383 117.851C764.5 118.747 765.913 119.549 766.887 120.59C767.2 120.925 767.417 121.159 767.573 121.592C774.866 123.774 781.984 133.231 785.47 139.675C786.912 142.34 789.488 146.421 789.643 149.487C792.212 155.19 796.508 221.725 794.558 226.614L794.353 227.047C795.457 229.602 794.28 233.675 793.911 236.424C792.241 248.88 789.907 261.413 785.277 273.147C779.046 288.933 768.091 302.616 752.278 309.481C740.924 314.41 727.284 315.473 715.655 310.822C710.657 308.823 706.668 306.104 702.405 302.899C702.053 302.246 701.122 301.789 700.51 301.382C699.01 299.655 693.733 298.106 691.524 296.911C686.684 294.292 682.498 290.834 679.031 286.55C675.475 282.157 672.885 277.008 670.908 271.735C670.321 270.167 670.069 268.102 669.278 266.667C668.93 266.035 668.415 265.582 667.826 265.185C669.054 262.375 666.947 256.207 666.469 253.037L665.237 241.562L662.978 193.603L662.627 167.307C662.86 159.9 664.346 151.863 666.859 144.914C667.773 142.388 670.666 137.913 669.881 135.368ZM691.314 121.202C684.236 127.235 678.635 133.241 674.167 141.533C673.01 143.681 671.912 147.734 670.379 149.39C671.688 151.477 671.786 156.338 671.209 158.844L670.982 159.663C671.839 163.54 670.564 168.334 670.399 172.335L670.201 184.866C670.179 186.876 670.437 189.156 669.623 191.03C670.4 192.995 669.367 212.746 668.59 214.664L668.21 215.402C669.395 217.545 668.976 220.451 668.973 222.832L669.086 236.66C669.559 245.812 670.992 255.819 673.802 264.505C674.742 267.411 676.326 270.119 677.241 272.953C678.113 273.671 678.375 274.212 678.816 275.224C681.954 282.431 689.592 288.217 696.77 290.977C708.504 295.49 721.837 294.834 733.215 289.678C747.849 283.045 758.542 269.128 764.093 254.367C768.075 243.78 769.565 232.571 770.915 221.416C772.523 208.136 773.2 194.719 772.998 181.345C772.776 166.758 771.594 151.385 765.478 137.929C760.562 127.115 752.407 118.543 741.124 114.398C728.413 109.728 712.942 109.486 700.596 115.401C697.254 117.002 694.754 119.643 691.476 121.13L691.314 121.202Z"/>
	<path fill="#838383" d="M668.21 215.402C668.32 215.994 668.267 216.612 668.254 217.214L666.971 184.605C666.924 176.89 666.383 169.539 667.386 161.833C667.938 157.585 669.201 153.493 670.379 149.39C671.688 151.477 671.786 156.338 671.209 158.844L670.982 159.663C671.839 163.54 670.564 168.334 670.399 172.335L670.201 184.866C670.179 186.876 670.437 189.156 669.623 191.03C670.4 192.995 669.367 212.746 668.59 214.664L668.21 215.402Z"/>
	<path fill="#EC5E31" d="M751.759 111.339C756.222 111.555 760.103 115.22 763.383 117.851C764.5 118.747 765.913 119.549 766.887 120.59C767.2 120.925 767.417 121.159 767.573 121.592C772.642 128.339 776.642 135.007 779.35 143.064C783.348 154.955 784.25 167.894 784.698 180.349C785.31 197.373 784.809 214.573 782.41 231.453C779.104 254.71 772.299 280.026 752.59 294.817C742.009 302.757 728.121 307.338 714.856 305.443C710.957 304.885 706.194 302.604 702.405 302.899C702.053 302.246 701.122 301.789 700.51 301.382C703.021 300.56 707.129 302.097 709.876 302.292C712.955 302.51 716.379 302.43 719.437 301.983C734.161 299.827 747.537 291.677 756.359 279.695C773.155 256.884 776.338 224.675 777.048 197.149C777.417 182.813 777.098 168.144 774.92 153.953C772.362 137.291 765.669 121.548 751.759 111.339Z"/>
	<path fill="#838383" d="M767.573 121.592C774.866 123.774 781.984 133.231 785.47 139.675C786.912 142.34 789.488 146.421 789.643 149.487C792.212 155.19 796.508 221.725 794.558 226.614L794.353 227.047C795.457 229.602 794.28 233.675 793.911 236.424C792.241 248.88 789.907 261.413 785.277 273.147C779.046 288.933 768.091 302.616 752.278 309.481C740.924 314.41 727.284 315.473 715.655 310.822C710.657 308.823 706.668 306.104 702.405 302.899C706.194 302.604 710.957 304.885 714.856 305.443C728.121 307.338 742.009 302.757 752.59 294.817C772.299 280.026 779.104 254.71 782.41 231.453C784.809 214.573 785.31 197.373 784.698 180.349C784.25 167.894 783.348 154.955 779.35 143.064C776.642 135.007 772.642 128.339 767.573 121.592Z"/>
	<path fill="#EC5E31" d="M691.314 121.202L691.476 121.13C694.754 119.643 697.254 117.002 700.596 115.401C712.942 109.486 728.413 109.728 741.124 114.398C752.407 118.543 760.562 127.115 765.478 137.929C771.594 151.385 772.776 166.758 772.998 181.345C773.2 194.719 772.523 208.136 770.915 221.416C769.565 232.571 768.075 243.78 764.093 254.367C758.542 269.128 747.849 283.045 733.215 289.678C721.837 294.834 708.504 295.49 696.77 290.977C689.592 288.217 681.954 282.431 678.816 275.224C678.375 274.212 678.113 273.671 677.241 272.953C676.326 270.119 674.742 267.411 673.802 264.505C670.992 255.819 669.559 245.812 669.086 236.66L668.973 222.832C668.976 220.451 669.395 217.545 668.21 215.402L668.59 214.664C669.367 212.746 670.4 192.995 669.623 191.03C670.437 189.156 670.179 186.876 670.201 184.866L670.399 172.335C670.564 168.334 671.839 163.54 670.982 159.663L671.209 158.844C671.786 156.338 671.688 151.477 670.379 149.39C671.912 147.734 673.01 143.681 674.167 141.533C678.635 133.241 684.236 127.235 691.314 121.202ZM727.448 256.875C729.874 252.524 731.053 246.894 731.984 242.034C734.889 226.862 735.157 211.245 735.464 195.849L735.332 155.431C734.903 152.707 734.931 148.908 733.536 146.545C733.61 143.361 731.16 138.71 728.942 136.415C727.128 134.539 724.823 133.342 722.168 133.389C718.964 133.446 715.984 135.262 713.863 137.579C711.113 140.584 709.109 144.548 708.08 148.474C703.684 165.233 704.696 184.38 704.511 201.588C704.37 214.734 703.87 227.778 704.556 240.926C704.923 247.964 705.905 256.695 711.468 261.691C713.339 263.372 716.385 264.506 718.92 264.31C721.769 264.09 724.532 261.429 726.279 259.311C726.86 258.607 727.282 257.778 727.448 256.875ZM736.995 154.369C736.441 154.866 736.037 155.183 735.332 155.431L735.464 195.849C735.157 211.245 734.889 226.862 731.984 242.034C731.053 246.894 729.874 252.524 727.448 256.875L728.154 258.169L728.76 258.294C736.414 250.962 737.102 236.072 737.986 225.99C738.657 218.338 738.539 210.541 738.74 202.863C739.083 189.824 740.018 176.361 738.907 163.349C738.666 160.519 738.868 156.595 736.995 154.369ZM669.623 191.03C670.4 192.995 669.367 212.746 668.59 214.664L668.21 215.402C669.395 217.545 668.976 220.451 668.973 222.832L669.086 236.66C669.559 245.812 670.992 255.819 673.802 264.505C674.742 267.411 676.326 270.119 677.241 272.953L677.387 272.483C677.744 270.959 676.401 267.709 676.003 266.118C673.641 256.668 672.905 246.783 672.343 237.089L670.74 206.403L670.556 196.662C670.53 195.231 670.703 193.402 670.144 192.064C669.995 191.707 669.816 191.365 669.623 191.03ZM670.379 149.39C671.688 151.477 671.786 156.338 671.209 158.844L670.982 159.663C672.087 158.597 672.137 156.737 672.502 155.296C673.271 152.266 674.195 149.234 675.274 146.301C676.321 143.459 677.777 140.798 679.19 138.127C680.709 135.256 682.531 132.484 684.459 129.869C685.832 128.007 691.132 123.142 691.314 121.202C684.236 127.235 678.635 133.241 674.167 141.533C673.01 143.681 671.912 147.734 670.379 149.39Z"/>
	<path fill="#838383" d="M733.536 146.545C735.86 147.904 736.652 150.088 737.302 152.564C737.496 153.307 737.248 153.656 736.995 154.369C736.441 154.866 736.037 155.183 735.332 155.431C734.903 152.707 734.931 148.908 733.536 146.545Z"/>
	<path fill="#FEFEFE" d="M747.34 245.908L749.439 245.761C749.802 246.031 750.055 246.335 750.255 246.746C751.267 248.824 750.756 251.263 750.078 253.369C748.866 257.135 745.517 264.142 741.977 265.935C741.419 266.083 741.313 265.916 740.815 265.654C737.06 259.327 747.333 252.772 747.34 245.908Z"/>
	<path fill="#FEFEFE" d="M739.012 117.46C739.309 117.432 739.614 117.42 739.91 117.468C746.67 118.568 753.772 125.412 757.541 130.721C762.477 137.671 767.216 150.441 765.588 159.148C765.329 160.532 764.678 160.676 763.562 161.417C762.752 160.804 762.494 160.586 762.18 159.619C761.57 157.737 761.543 155.499 761.191 153.54C760.253 148.327 758.341 143.023 755.495 138.544C753.478 135.369 750.833 132.411 747.848 130.118C745.447 128.273 738.899 126.341 737.943 123.857C737.105 121.682 738.127 119.434 739.012 117.46Z"/>
	<path fill="#293034" d="M727.448 256.875C727.282 257.778 726.86 258.607 726.279 259.311C724.532 261.429 721.769 264.09 718.92 264.31C716.385 264.506 713.339 263.372 711.468 261.691C705.905 256.695 704.923 247.964 704.556 240.926C703.87 227.778 704.37 214.734 704.511 201.588C704.696 184.38 703.684 165.233 708.08 148.474C709.109 144.548 711.113 140.584 713.863 137.579C715.984 135.262 718.964 133.446 722.168 133.389C724.823 133.342 727.128 134.539 728.942 136.415C731.16 138.71 733.61 143.361 733.536 146.545C734.931 148.908 734.903 152.707 735.332 155.431L735.464 195.849C735.157 211.245 734.889 226.862 731.984 242.034C731.053 246.894 729.874 252.524 727.448 256.875ZM730.353 163.053C730.761 165.445 729.815 167.788 729.449 170.141C728.851 173.978 728.366 177.907 728.154 181.785L727.325 225.438C727.255 229.411 728.141 236.653 726.713 240.221L728.019 239.56L728.725 235.4C730.479 225.872 730.707 215.689 730.919 206.012L731.38 176.187C731.395 172.676 732.088 167.885 731.412 164.591C731.342 164.246 730.585 163.39 730.353 163.053Z"/>
	<path fill="#EC5E31" d="M718.585 255.793C718.161 255.896 717.746 255.952 717.31 255.962C715.696 255.997 713.972 255.048 712.835 253.955C708.91 250.183 708.646 241.99 708.488 236.81L708.818 199.023C709.041 183.722 707.855 166.774 711.963 151.884C712.655 149.376 713.811 147.19 715.612 145.301C717.399 143.426 720.176 141.674 722.829 141.68C724.668 141.684 726.047 142.815 727.27 144.059C727.524 144.317 727.397 145.1 727.395 145.478C725.392 147.14 723.269 148.632 721.786 150.808C718.428 155.732 717.886 164.585 717.338 170.452C716.367 180.849 716.733 191.444 716.598 201.879L716.207 237.256C716.305 240.851 716.35 244.517 716.945 248.072C717.225 249.741 718.917 254.569 718.585 255.793Z"/>
	<path fill="#838383" d="M727.395 145.478C730.427 148.114 730.809 154.713 731.075 158.631C731.188 160.292 731.314 161.599 730.353 163.053C730.761 165.445 729.815 167.788 729.449 170.141C728.851 173.978 728.366 177.907 728.154 181.785L727.325 225.438C727.255 229.411 728.141 236.653 726.713 240.221C727.638 244.018 725.883 248.285 723.93 251.537C722.829 253.369 721.395 255.104 719.244 255.654L718.585 255.793C718.917 254.569 717.225 249.741 716.945 248.072C716.35 244.517 716.305 240.851 716.207 237.256L716.598 201.879C716.733 191.444 716.367 180.849 717.338 170.452C717.886 164.585 718.428 155.732 721.786 150.808C723.269 148.632 725.392 147.14 727.395 145.478Z"/>
	<path fill="#293034" d="M208.772 140.679L212.415 133.487C219.114 121.74 229.112 113.817 242.186 110.276C259.808 105.503 278.159 109.965 293.668 118.877C300.422 121.308 305.405 125.684 310.993 130.046C318.749 134.7 325.698 141.479 329.937 149.53L332.649 269.51C331.344 273.686 328.911 277.638 326.747 281.426C319.147 294.735 308.946 308.427 295.052 315.676C283.614 321.644 271.13 322.195 258.924 318.313C253.531 316.598 247.775 313.744 244.008 309.395L241.737 307.765L232.341 303.583C217.118 295.029 211.01 277.531 206.544 261.725L201.169 224.938C201.418 214.903 200.353 204.703 200.251 194.644C200.15 184.605 201.208 174.653 202.367 164.698C203.341 156.559 206.013 148.371 208.772 140.679ZM228.042 126.104C219.633 131.206 212.902 141.268 210.506 150.761C211.093 153.469 211.573 156.077 211.751 158.846C210.789 165.791 209.466 172.669 208.898 179.665C207.142 201.278 208.856 222.843 210.524 244.402C211.52 247.984 211.737 252.015 212.352 255.685C214.064 265.894 216.927 279.02 223.74 287.018C230.595 295.067 239.395 299.942 250.001 300.779C263.34 301.832 274.917 298.064 285.096 289.384C294.267 281.564 300.914 271.196 306.684 260.742C312.242 250.673 317.471 239.782 318.33 228.155C318.999 219.092 318.212 209.759 317.749 200.693C316.945 184.92 316.787 167.447 311.866 152.336C310.013 146.643 306.958 141.383 303.067 136.85C296.108 127.777 284.408 121.771 273.613 118.769C260.109 115.463 244.325 115.715 232.121 123.142L228.042 126.104Z"/>
	<path fill="#838383" d="M210.524 244.402C209.775 246.35 209.302 248.163 208.932 250.212C205.68 232.885 204.571 215.167 204.58 197.558C204.587 185.713 204.907 173.902 207.175 162.237C207.898 158.521 208.581 154.018 210.506 150.761C211.093 153.469 211.573 156.077 211.751 158.846C210.789 165.791 209.466 172.669 208.898 179.665C207.142 201.278 208.856 222.843 210.524 244.402Z"/>
	<path fill="#EC5E31" d="M293.668 118.877C300.422 121.308 305.405 125.684 310.993 130.046C318.749 134.7 325.698 141.479 329.937 149.53L332.649 269.51C331.344 273.686 328.911 277.638 326.747 281.426C319.147 294.735 308.946 308.427 295.052 315.676C283.614 321.644 271.13 322.195 258.924 318.313C253.531 316.598 247.775 313.744 244.008 309.395L241.737 307.765C247.147 308.149 252.022 309.637 257.604 309.346C272.482 308.57 284.378 300.416 294.066 289.639C302.986 279.715 309.42 267.855 315.04 255.84C317.683 250.188 320.385 244.647 321.554 238.454C323.764 226.736 323.134 212.87 322.511 200.962L320.19 174.804C318.579 160.393 316.889 145.941 308.321 133.708C304.161 127.768 298.968 123.655 293.668 118.877Z"/>
	<path fill="#838383" d="M310.993 130.046C318.749 134.7 325.698 141.479 329.937 149.53L332.649 269.51C331.344 273.686 328.911 277.638 326.747 281.426C319.147 294.735 308.946 308.427 295.052 315.676C283.614 321.644 271.13 322.195 258.924 318.313C253.531 316.598 247.775 313.744 244.008 309.395L254.456 311.999C266.704 314.353 278.746 311.646 289.031 304.637C304.872 293.842 315.127 275.977 323.041 258.967C325.633 253.396 328.547 247.265 329.621 241.195C330.385 236.879 330.197 232.08 330.344 227.696C330.901 210.998 329.962 195.161 328.09 178.594C326.977 168.744 325.898 158.566 322.432 149.209C319.743 141.951 315.422 136.284 310.993 130.046Z"/>
	<path fill="#EC5E31" d="M228.042 126.104L232.121 123.142C244.325 115.715 260.109 115.463 273.613 118.769C284.408 121.771 296.108 127.777 303.067 136.85C306.958 141.383 310.013 146.643 311.866 152.336C316.787 167.447 316.945 184.92 317.749 200.693C318.212 209.759 318.999 219.092 318.33 228.155C317.471 239.782 312.242 250.673 306.684 260.742C300.914 271.196 294.267 281.564 285.096 289.384C274.917 298.064 263.34 301.832 250.001 300.779C239.395 299.942 230.595 295.067 223.74 287.018C216.927 279.02 214.064 265.894 212.352 255.685C211.737 252.015 211.52 247.984 210.524 244.402C208.856 222.843 207.142 201.278 208.898 179.665C209.466 172.669 210.789 165.791 211.751 158.846C211.573 156.077 211.093 153.469 210.506 150.761C212.902 141.268 219.633 131.206 228.042 126.104ZM268.235 258.371C268.861 255.177 270.023 252.137 270.813 248.988L274.378 232.082C276.985 218.124 277.305 204.307 277.585 190.16L277.695 170.749C277.593 168.187 275.864 160.218 277.027 158.297C275.177 155.323 273.921 151.742 272.512 148.528L269.574 143.287C267.93 141.781 266.369 140.148 264.173 139.52L263.906 139.442C261.076 138.642 257.15 139.008 254.614 140.482C251 142.581 248.978 146.385 247.949 150.32C246.115 157.341 245.538 164.839 245.046 172.059L243.955 203.236C243.756 217.584 243.126 232.799 245.275 246.991C246.034 252.01 247.396 257.131 249.983 261.538C251.45 264.037 253.618 267.359 256.592 268.091C258.111 268.465 259.762 268.319 261.103 267.485C264.771 265.202 266.191 261.916 268.235 258.371ZM277.027 158.297C275.864 160.218 277.593 168.187 277.695 170.749L277.585 190.16C277.305 204.307 276.985 218.124 274.378 232.082L270.813 248.988C270.023 252.137 268.861 255.177 268.235 258.371L269.206 260.691L269.963 260.562C273.361 255.417 274.362 249.567 275.679 243.639C276.953 237.907 278.228 232.33 279.005 226.499C280.793 213.072 284.547 168.121 277.027 158.297ZM210.506 150.761C211.093 153.469 211.573 156.077 211.751 158.846C215.285 146.238 219.574 136.293 228.042 126.104C219.633 131.206 212.902 141.268 210.506 150.761Z"/>
	<path fill="#FEFEFE" d="M273.613 118.769C284.408 121.771 296.108 127.777 303.067 136.85C302.203 138.141 302.077 138.845 300.537 139.232C295.256 134.216 290.028 130.149 283.297 127.162C280.983 126.135 277.604 125.351 275.583 123.973C274.187 123.022 273.998 120.341 273.613 118.769Z"/>
	<path fill="#FEFEFE" d="M269.574 143.287C270.132 141.864 270.08 141.272 271.484 140.58C276.614 140.61 280.474 142.515 284.073 146.162C288.119 150.262 292.005 156.65 291.921 162.589C291.909 163.421 291.531 164.395 290.939 165.021C290.683 165.291 290.378 165.447 290.039 165.581C288.544 164.808 288.061 162.875 287.409 161.414C284.194 154.218 280.277 150.365 272.512 148.528L269.574 143.287Z"/>
	<path fill="#293034" d="M268.235 258.371C266.191 261.916 264.771 265.202 261.103 267.485C259.762 268.319 258.111 268.465 256.592 268.091C253.618 267.359 251.45 264.037 249.983 261.538C247.396 257.131 246.034 252.01 245.275 246.991C243.126 232.799 243.756 217.584 243.955 203.236L245.046 172.059C245.538 164.839 246.115 157.341 247.949 150.32C248.978 146.385 251 142.581 254.614 140.482C257.15 139.008 261.076 138.642 263.906 139.442L264.173 139.52C266.369 140.148 267.93 141.781 269.574 143.287L272.512 148.528C273.921 151.742 275.177 155.323 277.027 158.297C275.864 160.218 277.593 168.187 277.695 170.749L277.585 190.16C277.305 204.307 276.985 218.124 274.378 232.082L270.813 248.988C270.023 252.137 268.861 255.177 268.235 258.371ZM272.004 161.84C270.162 165.934 269.657 170.155 269.014 174.557C267.349 185.947 267.346 197.637 267.164 209.126L267.175 242.16C267.371 241.944 267.549 241.718 267.703 241.468C268.61 240.002 268.77 236.817 269.14 235.05C272.634 218.374 273.371 201.514 273.41 184.522C273.427 176.888 273.704 169.337 272.004 161.84Z"/>
	<path fill="#EC5E31" d="M260.408 259.143C259.528 259.634 258.869 259.78 257.886 259.84C256.937 259.898 255.633 258.971 254.959 258.359C248.679 252.662 248.428 238.247 248.158 230.376C247.762 218.813 247.061 157.058 253.662 150.208C255.579 148.22 257.848 147.395 260.552 147.394C263.849 147.393 264.929 148.323 267.194 150.555C264.209 151.663 261.514 152.694 260.121 155.81C258.907 158.526 258.61 162.019 258.165 164.965C256.546 175.67 256.339 186.494 256.106 197.299C255.775 212.568 255.035 228.267 256.597 243.468C257.13 248.656 258.126 253.467 260.068 258.325L260.408 259.143Z"/>
	<path fill="#838383" d="M260.408 259.143L260.068 258.325C258.126 253.467 257.13 248.656 256.597 243.468C255.035 228.267 255.775 212.568 256.106 197.299C256.339 186.494 256.546 175.67 258.165 164.965C258.61 162.019 258.907 158.526 260.121 155.81C261.514 152.694 264.209 151.663 267.194 150.555C269.493 153.913 271.653 157.682 272.004 161.84C270.162 165.934 269.657 170.155 269.014 174.557C267.349 185.947 267.346 197.637 267.164 209.126L267.175 242.16C266.439 248.59 265.057 254.411 260.408 259.143Z"/>
	<path fill="#293034" d="M904.049 116.239C905.478 114.836 905.556 112.48 906.167 110.6C907.179 107.491 909.459 104.192 912.028 102.174C917.063 98.2199 923.779 94.8876 930.345 95.7951C933.478 96.2283 939.233 98.076 941.162 100.605C944.918 100.66 948.902 103.458 951.465 106.089C952.414 107.062 953.333 107.926 954.427 108.744L954.631 109.321C970.723 132.132 975.866 160.389 977.102 187.823C977.899 205.52 977.047 223.325 974.024 240.793C971.221 256.993 967.055 272.958 959.323 287.57C955.505 294.786 950.633 301.787 943.875 306.542C941.097 308.497 937.216 310.373 933.785 310.616C930.857 310.823 928.085 310.266 925.206 310.26C924.173 308.934 922.205 308.302 920.704 307.619C919.375 306.6 917.358 306.162 915.811 305.496C913.246 304.392 910.863 302.739 908.839 300.824C903.824 296.078 900.098 290.475 897.033 284.323L893.598 276.526C892.588 273.896 892.152 271.394 889.994 269.516C890.432 271.374 889.491 273.225 888.874 274.961C887.416 279.069 886.011 283.361 883.707 287.087C878.466 295.565 866.818 302.454 857.296 304.676C850.382 306.288 842.922 305.107 836.922 301.337C834.737 299.964 832.778 298.242 830.833 296.555C829.827 295.37 828.006 294.553 826.639 293.879C822.432 292.209 818.608 290.609 815.066 287.713C801.566 276.677 797.939 255.151 796.336 238.646C795.997 235.147 796.39 229.834 794.353 227.047L794.558 226.614C796.508 221.725 792.212 155.19 789.643 149.487C789.763 149.333 790.255 148.811 790.283 148.661C790.588 147.045 789.873 143.789 789.754 142.003C789.167 133.192 787.817 123.448 788.658 114.645C789.145 109.55 791.383 105.126 795.348 101.898C801.133 97.1879 809.277 95.4374 816.582 96.2624C819.34 96.5739 824.623 98.3595 826.414 100.626C831.694 101.088 835.039 104.618 838.664 108.09L838.909 108.871C844.464 110.258 848.719 114.646 851.58 119.419C852.492 120.94 854.417 123.807 854 125.576C856.538 124.068 858.177 117.793 859.857 114.978C862.004 111.381 864.722 108.003 868.116 105.515C871.739 102.859 875.89 101.865 880.34 102.607C882.884 103.031 887.698 104.878 889.177 106.95C895.945 107.537 898.829 112.885 904.049 116.239ZM916.935 107.585C915.14 108.914 911.979 110.726 910.67 112.436C909.6 113.833 909.135 117.851 908.764 119.659C909.452 123.685 909.702 127.69 910.585 131.7L920.174 168.12C923.923 184.291 925.163 200.442 922.853 216.922C922.42 220.012 922.363 224.969 920.75 227.545C920.914 228.213 920.993 228.847 920.882 229.534C920.468 232.1 919.312 237.547 917.032 239.068C916.493 239.427 915.906 239.714 915.259 239.558C912.152 238.806 911.369 234.51 910.962 231.846C909.332 221.193 909.579 210.227 909.237 199.48C908.785 185.262 907.801 170.723 905.644 156.659C903.934 145.511 901.238 133.294 895.407 123.539C892.097 118.002 886.847 112.039 880.298 110.495C877.166 109.757 874.892 110.163 872.218 111.822C871.045 111.683 869.452 113.021 868.519 113.745C861.901 118.885 859.262 127.7 856.709 135.275C852.219 148.053 851.086 163.11 849.553 176.583L847.163 200.112C846.796 203.648 846.649 209.404 844.868 212.446C844.977 212.645 845.101 212.888 845.145 213.111C845.347 214.14 844.727 215.923 844.493 216.954C843.641 220.695 842.911 225.1 840.788 228.354C840.022 229.527 839.228 230.128 837.891 230.418C835.707 229.416 835.018 226.764 834.682 224.577C833.83 219.031 834.347 212.747 834.402 207.117C834.62 184.841 837.715 162.64 836.319 140.337C835.773 131.609 834.385 121.676 830.075 113.995C827.62 109.62 823.469 105.828 818.55 104.515C812.883 103.002 806.001 103.976 800.954 106.932C798.598 110.255 796.813 113.653 796.471 117.776C795.913 124.519 796.648 131.451 797.053 138.189L800.994 186.629C802.639 209.476 801.994 232.679 805.857 255.317C806.374 258.344 809.654 268.619 809.116 270.463C810.665 271.488 811.285 273.968 812.382 275.53C814.409 278.415 817.08 280.865 820.068 282.73C825.664 286.221 832.462 286.901 838.785 285.346C846.16 283.533 856.521 277.946 860.93 271.523C865.644 264.656 867.748 256.082 870.136 248.208L877.306 226.073C878.621 222.137 879.791 217.185 881.916 213.675L883.057 213.513C884.001 213.92 885.029 214.328 885.726 215.108C885.949 215.358 886.604 216.051 886.684 216.361C887.113 218.018 886.929 220.496 887.037 222.245C887.266 225.976 887.803 229.742 887.665 233.478C888.733 236.566 888.906 239.912 889.399 243.127C889.999 247.041 890.857 250.926 891.818 254.765C892.218 256.368 892.462 258.527 893.311 259.937C893.807 259.192 893.83 259.024 893.872 258.123C895.807 259.785 895.642 261.888 896.235 264.225L898.592 272.283C899.831 276.103 901.305 280.147 903.103 283.735C906.362 290.237 912.303 296.51 919.339 298.789C923.802 300.234 928.346 299.317 932.412 297.193C945.2 290.511 952.554 272.407 956.662 259.198C966.042 229.04 967.637 195.5 963.176 164.348C961.133 150.087 957.597 135.223 950.833 122.425C946.843 114.878 940.895 106.665 932.326 104.077C926.218 102.232 922.121 104.844 916.935 107.585ZM809.116 270.463C809.654 268.619 806.374 258.344 805.857 255.317C801.994 232.679 802.639 209.476 800.994 186.629L797.053 138.189C796.648 131.451 795.913 124.519 796.471 117.776C796.813 113.653 798.598 110.255 800.954 106.932C798.574 107.501 795.713 109.64 794.441 111.682C793.227 113.628 792.942 115.852 792.903 118.095C792.555 137.76 795.953 157.713 797.361 177.289C799.297 204.202 797.63 232.269 804.356 258.598C805.417 262.75 807.18 266.655 809.116 270.463Z"/>
	<path fill="#EC5E31" d="M889.177 106.95C895.945 107.537 898.829 112.885 904.049 116.239C905.308 119.19 905.06 123.249 905.41 126.404C905.856 130.425 906.567 134.391 907.459 138.336L916.319 171.471C921.215 191.756 920.99 212.022 915.607 232.202C913.515 224.063 914.014 215.353 913.652 206.994L911.303 167.355C909.416 147.442 905.378 120.361 889.177 106.95Z"/>
	<path fill="#EC5E31" d="M826.639 293.879C828.774 293.64 831.046 293.98 833.216 293.862C838.083 293.598 842.548 292.333 846.921 290.201C852.542 287.46 859.118 283.305 862.99 278.308C868.934 270.635 871.715 258.371 874.594 249.137L882.775 224.146L883.989 236.151C884.298 238.621 885.514 242.851 884.547 245.122C884.169 248.612 882.57 252.291 881.493 255.631C879.01 263.325 876.728 272.328 872.525 279.253C870.784 282.12 868.547 284.393 865.944 286.488C857.805 293.037 847.375 298.391 836.642 297.174C834.652 296.948 832.864 296.559 830.833 296.555C829.827 295.37 828.006 294.553 826.639 293.879Z"/>
	<path fill="#EC5E31" d="M826.414 100.626C831.694 101.088 835.039 104.618 838.664 108.09L838.909 108.871C844.464 110.258 848.719 114.646 851.58 119.419C852.492 120.94 854.417 123.807 854 125.576C854.234 126.166 854.413 126.77 854.324 127.412C853.913 130.374 852.316 133.846 851.532 136.785C850.631 140.162 850.276 144.238 848.966 147.431C848.791 147.858 848.495 148.191 848.161 148.502C848.988 150.246 848.426 152.222 848.168 154.057L846.714 165.157C845.095 179.575 844.215 194.339 841.862 208.644C841.104 213.251 840.085 217.476 838.531 221.887L840.5 138.692C839.508 125.355 837.078 109.806 826.414 100.626Z"/>
	<path fill="#838383" d="M838.909 108.871C844.464 110.258 848.719 114.646 851.58 119.419C852.492 120.94 854.417 123.807 854 125.576C854.234 126.166 854.413 126.77 854.324 127.412C853.913 130.374 852.316 133.846 851.532 136.785C850.631 140.162 850.276 144.238 848.966 147.431C848.791 147.858 848.495 148.191 848.161 148.502C848.415 148.097 848.686 147.616 848.772 147.14C849.107 145.275 848.373 142.366 848.142 140.415C846.872 129.663 845.545 117.858 838.909 108.871Z"/>
	<path fill="#838383" d="M830.833 296.555C832.864 296.559 834.652 296.948 836.642 297.174C847.375 298.391 857.805 293.037 865.944 286.488C868.547 284.393 870.784 282.12 872.525 279.253C876.728 272.328 879.01 263.325 881.493 255.631C882.57 252.291 884.169 248.612 884.547 245.122C886.251 247.063 886.106 250.286 886.656 252.738L890.569 267.888L889.994 269.516C890.432 271.374 889.491 273.225 888.874 274.961C887.416 279.069 886.011 283.361 883.707 287.087C878.466 295.565 866.818 302.454 857.296 304.676C850.382 306.288 842.922 305.107 836.922 301.337C834.737 299.964 832.778 298.242 830.833 296.555Z"/>
	<path fill="#EC5E31" d="M941.162 100.605C944.918 100.66 948.902 103.458 951.465 106.089C952.414 107.062 953.333 107.926 954.427 108.744L954.631 109.321C970.723 132.132 975.866 160.389 977.102 187.823C977.899 205.52 977.047 223.325 974.024 240.793C971.221 256.993 967.055 272.958 959.323 287.57C955.505 294.786 950.633 301.787 943.875 306.542C941.097 308.497 937.216 310.373 933.785 310.616C930.857 310.823 928.085 310.266 925.206 310.26C924.173 308.934 922.205 308.302 920.704 307.619C922.422 307.165 924.238 307.33 925.999 307.155C933.611 306.401 940.164 300.42 944.724 294.75C951.709 286.064 956.49 274.627 959.851 264.078C969.375 234.187 971.668 200.612 968.217 169.508C966.295 152.175 962.471 134.049 954.609 118.391C951.313 111.826 946.936 105.236 941.162 100.605Z"/>
	<path fill="#EC5E31" d="M916.935 107.585C922.121 104.844 926.218 102.232 932.326 104.077C940.895 106.665 946.843 114.878 950.833 122.425C957.597 135.223 961.133 150.087 963.176 164.348C967.637 195.5 966.042 229.04 956.662 259.198C952.554 272.407 945.2 290.511 932.412 297.193C928.346 299.317 923.802 300.234 919.339 298.789C912.303 296.51 906.362 290.237 903.103 283.735C901.305 280.147 899.831 276.103 898.592 272.283L896.235 264.225C895.642 261.888 895.807 259.785 893.872 258.123C893.83 259.024 893.807 259.192 893.311 259.937C892.462 258.527 892.218 256.368 891.818 254.765C890.857 250.926 889.999 247.041 889.399 243.127C888.906 239.912 888.733 236.566 887.665 233.478C887.803 229.742 887.266 225.976 887.037 222.245C886.929 220.496 887.113 218.018 886.684 216.361C886.604 216.051 885.949 215.358 885.726 215.108C885.029 214.328 884.001 213.92 883.057 213.513L881.916 213.675C879.791 217.185 878.621 222.137 877.306 226.073L870.136 248.208C867.748 256.082 865.644 264.656 860.93 271.523C856.521 277.946 846.16 283.533 838.785 285.346C832.462 286.901 825.664 286.221 820.068 282.73C817.08 280.865 814.409 278.415 812.382 275.53C811.285 273.968 810.665 271.488 809.116 270.463C809.654 268.619 806.374 258.344 805.857 255.317C801.994 232.679 802.639 209.476 800.994 186.629L797.053 138.189C796.648 131.451 795.913 124.519 796.471 117.776C796.813 113.653 798.598 110.255 800.954 106.932C806.001 103.976 812.883 103.002 818.55 104.515C823.469 105.828 827.62 109.62 830.075 113.995C834.385 121.676 835.773 131.609 836.319 140.337C837.715 162.64 834.62 184.841 834.402 207.117C834.347 212.747 833.83 219.031 834.682 224.577C835.018 226.764 835.707 229.416 837.891 230.418C839.228 230.128 840.022 229.527 840.788 228.354C842.911 225.1 843.641 220.695 844.493 216.954C844.727 215.923 845.347 214.14 845.145 213.111C845.101 212.888 844.977 212.645 844.868 212.446C846.649 209.404 846.796 203.648 847.163 200.112L849.553 176.583C851.086 163.11 852.219 148.053 856.709 135.275C859.262 127.7 861.901 118.885 868.519 113.745C869.452 113.021 871.045 111.683 872.218 111.822C874.892 110.163 877.166 109.757 880.298 110.495C886.847 112.039 892.097 118.002 895.407 123.539C901.238 133.294 903.934 145.511 905.644 156.659C907.801 170.723 908.785 185.262 909.237 199.48C909.579 210.227 909.332 221.193 910.962 231.846C911.369 234.51 912.152 238.806 915.259 239.558C915.906 239.714 916.493 239.427 917.032 239.068C919.312 237.547 920.468 232.1 920.882 229.534C920.993 228.847 920.914 228.213 920.75 227.545C922.363 224.969 922.42 220.012 922.853 216.922C925.163 200.442 923.923 184.291 920.174 168.12L910.585 131.7C909.702 127.69 909.452 123.685 908.764 119.659C909.135 117.851 909.6 113.833 910.67 112.436C911.979 110.726 915.14 108.914 916.935 107.585ZM856.709 135.275C857.655 136.853 858.733 139.307 858.259 141.182L858.106 141.641C859.884 140.023 860.585 135.275 861.348 132.882C862.424 129.507 863.717 126.158 865.226 122.953C867.166 118.832 869.96 115.85 872.099 112.043L872.218 111.822C871.045 111.683 869.452 113.021 868.519 113.745C861.901 118.885 859.262 127.7 856.709 135.275ZM908.764 119.659C910.107 120.311 911.415 121.104 911.972 122.575C912.642 121.167 912.588 119.549 912.866 118.031C913.26 115.87 913.935 113.773 914.835 111.769C915.487 110.317 917.03 109.23 916.935 107.585C915.14 108.914 911.979 110.726 910.67 112.436C909.6 113.833 909.135 117.851 908.764 119.659Z"/>
	<path fill="#838383" d="M887.665 233.478L889.04 232.723C889.361 231.262 889.646 230.063 890.494 228.816C890.659 229.075 894.36 256.868 894.313 257.071C894.227 257.449 894.062 257.79 893.872 258.123C893.83 259.024 893.807 259.192 893.311 259.937C892.462 258.527 892.218 256.368 891.818 254.765C890.857 250.926 889.999 247.041 889.399 243.127C888.906 239.912 888.733 236.566 887.665 233.478Z"/>
	<path fill="#FEFEFE" d="M936.852 110.622C937.568 110.445 938.549 110.142 939.282 110.261C942.13 110.724 945.733 115.719 947.175 118.023C949.653 121.983 954.412 132.386 953.171 137.261C952.828 138.609 952.098 138.76 950.976 139.439L950.532 139.5C948.912 138.014 948.126 133.491 947.411 131.34C946.599 128.898 945.53 126.615 944.173 124.429C943.236 122.921 942.145 121.323 940.769 120.18C939.627 119.231 937.161 118.359 936.519 117.126C935.468 115.11 936.22 112.645 936.852 110.622Z"/>
	<path fill="#FEFEFE" d="M816.311 110.622C817.163 110.433 818.045 110.258 818.917 110.416C822.224 111.015 825.355 113.899 827.177 116.581C830.468 121.422 834.699 132.529 833.463 138.348C833.2 139.586 832.567 139.778 831.567 140.417L830.496 140.229C829.306 138.125 828.907 135.108 828.274 132.75C827.096 128.364 825.284 122.781 821.277 120.167C819.763 119.179 817.945 118.642 816.359 117.727C815.229 115.228 815.673 113.206 816.311 110.622Z"/>
	<path fill="#838383" d="M844.868 212.446C846.649 209.404 846.796 203.648 847.163 200.112L849.553 176.583C851.086 163.11 852.219 148.053 856.709 135.275C857.655 136.853 858.733 139.307 858.259 141.182L858.106 141.641C858.87 143.31 857.971 145.858 857.619 147.63L855.608 160.137L849.97 210.303C849.151 215.536 848.024 220.516 846.226 225.497C846.146 221.701 846.879 215.532 844.868 212.446Z"/>
	<path fill="#838383" d="M908.764 119.659C910.107 120.311 911.415 121.104 911.972 122.575C913.447 125.363 913.147 129.27 913.523 132.396C913.933 135.811 914.633 139.113 915.408 142.461L924.083 174.628C928.872 194.528 929.271 215.996 923.418 235.765C922.89 233.017 922.804 229.486 920.75 227.545C922.363 224.969 922.42 220.012 922.853 216.922C925.163 200.442 923.923 184.291 920.174 168.12L910.585 131.7C909.702 127.69 909.452 123.685 908.764 119.659Z"/>
	<path fill="#293034" d="M127.052 93.8354C128.185 90.7545 128.611 87.614 130.233 84.6946C133.406 78.9855 140.193 74.0931 146.457 72.3191C153.529 70.3162 158.87 72.9124 164.948 76.2548C170.626 77.9538 174.031 81.1125 178.355 85.0485C189.746 90.0713 196.95 104.054 201.288 115.204L208.772 140.679C206.013 148.371 203.341 156.559 202.367 164.698C201.208 174.653 200.15 184.605 200.251 194.644C200.353 204.703 201.418 214.903 201.169 224.938L206.544 261.725C202.815 277.483 197.014 295.182 186.577 307.843C183.744 311.28 180.569 314.597 176.741 316.934C172.211 319.7 166.7 320.838 161.499 319.528C156.537 318.278 152.252 315.131 148.842 311.385L144.406 308.791L142.532 308.183C128.222 303.163 120.788 288.249 115.723 274.915C114.318 271.217 113.401 267.319 111.688 263.748C109.573 271.659 107.024 281.313 102.126 287.89C98.5504 292.689 92.7063 296.797 87.5639 299.771C79.8786 304.215 71.3425 306.532 62.5909 304.145C57.3805 302.724 53.2585 299.595 49.4742 295.85C48.3029 295.263 47.1453 294.337 46.0438 293.609C43.6284 293.179 40.8723 291.868 38.715 290.734C28.3098 285.264 22.2241 272.94 18.9012 262.174C15.4553 251.01 14.1272 239.589 13.143 227.999L10.2048 169.563L6.10593 117.15C5.67101 109.479 5.01727 101.697 5.35677 94.0171C5.50582 90.6451 6.26999 87.0662 7.87595 84.0814C10.8419 78.5689 16.7821 74.8933 22.6685 73.1889C30.87 70.8141 37.2055 72.3127 44.5375 76.3282C50.1049 77.7582 53.126 80.8531 57.2469 84.6093C59.1954 85.6361 61.4408 86.6539 63.1755 88.0044C69.0822 92.6026 71.903 99.3346 74.5828 106.081C76.168 101.791 77.7774 97.387 80.0007 93.3826C83.0356 87.9166 88.0178 81.3596 94.4031 79.6478C100.399 78.0404 104.862 80.3141 109.979 83.1962C117.329 84.9677 120.554 90.8539 127.052 93.8354ZM139.125 86.0552C135.432 88.3858 133.189 89.9239 132.183 94.4282C131.933 95.5481 131.768 96.6083 131.872 97.7595C131.461 106.849 134.11 115.956 136.329 124.694C139.165 135.865 142.341 146.962 144.432 158.307C146.903 171.715 148.331 185.583 147.113 199.207L144.496 219.905C143.849 223.24 143.055 228.757 140.869 231.444C139.972 232.547 139.301 232.696 137.939 232.791C135.739 231.369 134.686 229.552 134.113 227.015C131.882 217.14 132.401 206.005 132.109 195.948C131.479 174.26 130.652 152.231 126.525 130.891C124.565 120.76 121.902 110.382 116.552 101.466C113.227 95.9243 107.847 89.6515 101.265 88.0962C98.1758 87.3662 95.4879 87.9139 92.8039 89.5303C85.0939 93.2756 81.1166 102.56 78.4768 110.212C77.7234 112.396 76.6834 114.924 77.0426 117.275C76.4702 117.567 76.2471 117.542 76.0464 118.171C73.1806 127.157 72.205 137.319 71.0578 146.679L64.541 204.916L61.4542 217.225C60.6562 219.555 59.6576 221.506 57.373 222.621C55.6725 221.865 54.9394 220.803 54.3816 219.015C52.5603 213.178 53.1977 205.902 53.251 199.803L55.6519 129.602C55.5817 124.311 55.9221 115.827 53.8341 110.929C54.1569 105.369 51.8056 97.949 49.2651 92.998C46.6333 87.869 42.5043 83.2971 36.8427 81.5378C30.6446 79.6117 23.5423 81.2157 17.9192 84.0995C15.261 87.7993 13.6219 91.226 13.2629 95.8372C12.5699 104.74 13.4395 114.048 14.0232 122.943L18.0094 173.942C19.7059 199.223 18.9028 225.063 22.9886 250.121L27.093 267.141C28.0972 269.402 29.1098 271.68 30.5812 273.683C34.6656 279.241 40.5645 283.674 47.5051 284.685C54.0677 285.641 60.4318 283.856 66.2118 280.8C71.0748 278.229 77.2567 274.071 80.544 269.612C86.6603 261.315 88.9763 249.01 91.8295 239.214L99.1495 215.385C100.115 212.312 101.372 205.467 103.76 203.7C104.968 203.892 105.894 204.214 106.847 205.012C107.413 205.487 107.939 206.014 108.152 206.743C108.78 208.892 108.585 211.785 108.673 214.028L109.532 225.253C110.083 229.941 112.265 249.792 114.619 252.923L115.692 250.486C119.514 263.046 120.719 276.334 128.425 287.476C132.26 293.023 137.927 298.519 144.829 299.729C149.591 300.564 154.321 298.772 158.179 296.075C163.089 292.642 166.847 287.68 169.945 282.619C179.068 267.718 183.676 249.641 186.756 232.603C192.89 198.663 192.736 161.576 184.625 127.961C181.669 115.713 177.544 103.085 170.272 92.6856C166.626 87.4715 160.878 81.7045 154.29 80.6133C150.162 79.9296 145.391 80.8907 142.017 83.4103L139.125 86.0552ZM27.093 267.141L22.9886 250.121C18.9028 225.063 19.7059 199.223 18.0094 173.942L14.0232 122.943C13.4395 114.048 12.5699 104.74 13.2629 95.8372C13.6219 91.226 15.261 87.7993 17.9192 84.0995C14.4201 86.1794 11.4164 87.9686 10.3256 92.2028C8.94148 97.5757 10.091 104.124 10.3724 109.627L14.764 166.694C16.0505 188.255 15.5254 210.053 18.1552 231.512C19.4612 242.17 20.5196 256.26 26.0215 265.608L27.093 267.141Z"/>
	<path fill="#EC5E31" d="M109.979 83.1962C117.329 84.9677 120.554 90.8539 127.052 93.8354C126.622 95.6368 127.166 97.7469 127.285 99.6012C128.87 124.201 138.776 146.863 141.972 171.156C144.3 188.846 142.893 206.938 138.614 224.223C137.679 222.172 137.472 219.345 137.267 217.119C136.757 211.576 136.838 205.966 136.628 200.404C135.561 172.121 135.543 142.274 127.581 114.889C125.82 108.833 124.038 103.038 121.035 97.4359C118.075 91.912 114.328 87.6208 109.979 83.1962Z"/>
	<path fill="#EC5E31" d="M46.0438 293.609C52.2424 293.638 57.4817 293.459 63.2855 291.034C70.5077 288.016 79.044 282.326 83.6202 275.858C87.149 270.871 88.969 264.615 90.8664 258.86C95.5623 244.616 98.6041 229.428 104.254 215.562L106.374 237.697C104.541 241.975 103.462 246.739 102.142 251.209C99.5402 260.016 96.9989 270.653 92.0331 278.373C87.6055 285.257 78.5609 291.46 71.0644 294.439C63.5531 297.425 57.3226 297.588 49.4742 295.85C48.3029 295.263 47.1453 294.337 46.0438 293.609Z"/>
	<path fill="#838383" d="M49.4742 295.85C57.3226 297.588 63.5531 297.425 71.0644 294.439C78.5609 291.46 87.6055 285.257 92.0331 278.373C96.9989 270.653 99.5402 260.016 102.142 251.209C103.462 246.739 104.541 241.975 106.374 237.697L109.29 252.625C109.942 255.425 112.255 261.264 111.688 263.748C109.573 271.659 107.024 281.313 102.126 287.89C98.5504 292.689 92.7063 296.797 87.5639 299.771C79.8786 304.215 71.3425 306.532 62.5909 304.145C57.3805 302.724 53.2585 299.595 49.4742 295.85Z"/>
	<path fill="#EC5E31" d="M44.5375 76.3282C50.1049 77.7582 53.126 80.8531 57.2469 84.6093C59.1954 85.6361 61.4408 86.6539 63.1755 88.0044C69.0822 92.6026 71.903 99.3346 74.5828 106.081L68.3363 131.067C68.2535 137.915 66.6665 145.128 65.9877 151.986L63.1822 179.731C62.0991 191.076 61.0856 202.03 57.8571 213.027C56.6406 195.416 58.5689 177.711 59.4593 160.12C60.3081 143.349 60.9924 126.06 58.6498 109.379C57.5641 101.649 55.8986 93.7713 52.3261 86.7718C50.2905 82.7835 47.5122 79.6198 44.5375 76.3282Z"/>
	<path fill="#838383" d="M57.2469 84.6093C59.1954 85.6361 61.4408 86.6539 63.1755 88.0044C69.0822 92.6026 71.903 99.3346 74.5828 106.081L68.3363 131.067C67.3739 126.788 67.4309 121.856 67.0132 117.474C66.2896 109.885 64.9528 102.18 62.2395 95.0304C60.8845 91.4601 58.9473 88.0323 57.2469 84.6093Z"/>
	<path fill="#EC5E31" d="M164.948 76.2548C170.626 77.9538 174.031 81.1125 178.355 85.0485C189.746 90.0713 196.95 104.054 201.288 115.204L208.772 140.679C206.013 148.371 203.341 156.559 202.367 164.698C201.208 174.653 200.15 184.605 200.251 194.644C200.353 204.703 201.418 214.903 201.169 224.938L206.544 261.725C202.815 277.483 197.014 295.182 186.577 307.843C183.744 311.28 180.569 314.597 176.741 316.934C172.211 319.7 166.7 320.838 161.499 319.528C156.537 318.278 152.252 315.131 148.842 311.385L144.406 308.791C151.941 308.652 156.917 306.898 162.574 301.849C169.886 295.321 174.931 286.151 178.792 277.235C188.728 254.296 193.243 228.279 194.617 203.419C196.033 177.775 194.877 152.082 189.304 126.956C186.507 114.35 182.512 101.466 175.912 90.2889C172.809 85.0327 168.988 80.7689 164.948 76.2548Z"/>
	<path fill="#838383" d="M178.355 85.0485C189.746 90.0713 196.95 104.054 201.288 115.204L208.772 140.679C206.013 148.371 203.341 156.559 202.367 164.698C200.518 143.461 196.66 120.596 187.581 101.182C184.916 95.4834 181.031 90.6161 178.355 85.0485Z"/>
	<path fill="#838383" d="M148.842 311.385C154.976 312.744 160.318 312.136 165.717 308.832C171.404 305.352 175.955 299.821 179.507 294.262C188.636 279.979 193.745 262.68 197.232 246.193C198.723 239.143 199.48 231.938 201.169 224.938L206.544 261.725C202.815 277.483 197.014 295.182 186.577 307.843C183.744 311.28 180.569 314.597 176.741 316.934C172.211 319.7 166.7 320.838 161.499 319.528C156.537 318.278 152.252 315.131 148.842 311.385Z"/>
	<path fill="#EC5E31" d="M139.125 86.0552L142.017 83.4103C145.391 80.8907 150.162 79.9296 154.29 80.6133C160.878 81.7045 166.626 87.4715 170.272 92.6856C177.544 103.085 181.669 115.713 184.625 127.961C192.736 161.576 192.89 198.663 186.756 232.603C183.676 249.641 179.068 267.718 169.945 282.619C166.847 287.68 163.089 292.642 158.179 296.075C154.321 298.772 149.591 300.564 144.829 299.729C137.927 298.519 132.26 293.023 128.425 287.476C120.719 276.334 119.514 263.046 115.692 250.486L114.619 252.923C112.265 249.792 110.083 229.941 109.532 225.253L108.673 214.028C108.585 211.785 108.78 208.892 108.152 206.743C107.939 206.014 107.413 205.487 106.847 205.012C105.894 204.214 104.968 203.892 103.76 203.7C101.372 205.467 100.115 212.312 99.1495 215.385L91.8295 239.214C88.9763 249.01 86.6603 261.315 80.544 269.612C77.2567 274.071 71.0748 278.229 66.2118 280.8C60.4318 283.856 54.0677 285.641 47.5051 284.685C40.5645 283.674 34.6656 279.241 30.5812 273.683C29.1098 271.68 28.0972 269.402 27.093 267.141L22.9886 250.121C18.9028 225.063 19.7059 199.223 18.0094 173.942L14.0232 122.943C13.4395 114.048 12.5699 104.74 13.2629 95.8372C13.6219 91.226 15.261 87.7993 17.9192 84.0995C23.5423 81.2157 30.6446 79.6117 36.8427 81.5378C42.5043 83.2971 46.6333 87.869 49.2651 92.998C51.8056 97.949 54.1569 105.369 53.8341 110.929C55.9221 115.827 55.5817 124.311 55.6519 129.602L53.251 199.803C53.1977 205.902 52.5603 213.178 54.3816 219.015C54.9394 220.803 55.6725 221.865 57.373 222.621C59.6576 221.506 60.6562 219.555 61.4542 217.225L64.541 204.916L71.0578 146.679C72.205 137.319 73.1806 127.157 76.0464 118.171C76.2471 117.542 76.4702 117.567 77.0426 117.275C76.6834 114.924 77.7234 112.396 78.4768 110.212C81.1166 102.56 85.0939 93.2756 92.8039 89.5303C95.4879 87.9139 98.1758 87.3662 101.265 88.0962C107.847 89.6515 113.227 95.9243 116.552 101.466C121.902 110.382 124.565 120.76 126.525 130.891C130.652 152.231 131.479 174.26 132.109 195.948C132.401 206.005 131.882 217.14 134.113 227.015C134.686 229.552 135.739 231.369 137.939 232.791C139.301 232.696 139.972 232.547 140.869 231.444C143.055 228.757 143.849 223.24 144.496 219.905L147.113 199.207C148.331 185.583 146.903 171.715 144.432 158.307C142.341 146.962 139.165 135.865 136.329 124.694C134.11 115.956 131.461 106.849 131.872 97.7595C131.768 96.6083 131.933 95.5481 132.183 94.4282C133.189 89.9239 135.432 88.3858 139.125 86.0552ZM77.0426 117.275L78.2387 124.489C80.9042 112.124 84.7263 99.4786 92.8039 89.5303C85.0939 93.2756 81.1166 102.56 78.4768 110.212C77.7234 112.396 76.6834 114.924 77.0426 117.275ZM131.872 97.7595L135.081 101.425C135.186 95.7298 135.959 90.9224 139.125 86.0552C135.432 88.3858 133.189 89.9239 132.183 94.4282C131.933 95.5481 131.768 96.6083 131.872 97.7595Z"/>
	<path fill="#838383" d="M109.532 225.253C110.589 223.101 110.887 220.918 111.812 218.804L115.692 250.486L114.619 252.923C112.265 249.792 110.083 229.941 109.532 225.253Z"/>
	<path fill="#FEFEFE" d="M115.685 210.174L116.586 210.57C120.03 212.326 122.387 218.313 123.443 221.819C124.501 225.332 124.667 226.993 122.874 230.33C122.596 230.242 122.566 230.249 122.333 230.123C120.425 229.09 119.542 224.798 118.682 222.809C117.645 220.406 115.243 218.549 114.516 216.122C113.877 213.99 114.702 212.039 115.685 210.174Z"/>
	<path fill="#FEFEFE" d="M41.3372 95.5082C41.0753 94.1287 40.932 92.689 41.4069 91.3309C41.7874 90.2425 42.1893 89.8626 43.2129 89.41L43.6156 89.5953C44.8304 90.258 46.0616 92.3953 46.7721 93.573C50.0827 99.0599 52.0853 104.799 53.8341 110.929L53.7412 115.018C52.9509 116.255 52.9843 116.587 51.5137 116.954C49.333 115.018 48.3435 108.849 47.2698 106.008C45.8149 102.158 43.6177 98.8986 41.3372 95.5082Z"/>
	<path fill="#FEFEFE" d="M155.954 88.3257C159.782 88.3138 162.218 89.3375 165.174 91.6539C171.254 96.4167 175.238 103.458 176.124 111.128C176.364 113.204 175.738 114.26 174.477 115.863C171.471 113.196 170.742 107.348 168.246 103.86C164.718 98.9291 161.205 97.4475 155.419 96.4591C154.711 95.4123 154.35 94.4551 154.216 93.1888C153.979 90.9497 154.649 89.9674 155.954 88.3257Z"/>
	<path fill="#838383" d="M64.541 204.916L71.0578 146.679C72.205 137.319 73.1806 127.157 76.0464 118.171C76.2471 117.542 76.4702 117.567 77.0426 117.275L78.2387 124.489L73.4112 159.236L70.6777 186.947C69.7314 196.587 69.0283 206.767 65.5166 215.873C65.3949 212.461 65.7373 208.113 64.541 204.916Z"/>
	<path fill="#838383" d="M131.872 97.7595L135.081 101.425C136.079 117.46 139.946 131.848 143.959 147.286C147.024 159.075 149.771 170.934 150.669 183.115C151.764 197.97 149.986 213.396 146.499 227.853L144.496 219.905L147.113 199.207C148.331 185.583 146.903 171.715 144.432 158.307C142.341 146.962 139.165 135.865 136.329 124.694C134.11 115.956 131.461 106.849 131.872 97.7595Z"/>
</svg>
