<?xml version="1.0" encoding="utf-8" ?>
<svg xmlns="http://www.w3.org/2000/svg" xmlns:xlink="http://www.w3.org/1999/xlink" width="100" height="40">
	<path fill="#293034" transform="matrix(0.1 0 0 0.1 0 -7.62939e-06)" d="M345.058 80.1001L396.957 80.1223L396.98 90.3838L399.585 87.8751C407.912 80.5269 414.111 79.5892 425.071 80.2983C425.964 87.1869 425.132 95.138 425.108 102.161L425.185 150.01C415.364 149.863 404.813 151.26 397.606 158.701C397.366 158.948 396.954 159.415 396.868 159.743C396.438 161.379 396.634 163.788 396.628 165.498L396.606 177.399L396.576 224.57L396.994 264.181L346.188 264.144L345.058 80.1001Z"/>
	<path fill="#FCCB7C" transform="matrix(0.1 0 0 0.1 0 -7.62939e-06)" d="M350.664 91.0724L391.335 91.0099L391.31 109.903L397.41 102.258C404.401 94.7412 409.372 91.2187 419.754 90.8556L419.845 139.122C410.674 140.236 402.005 142.157 395.238 148.944C394.42 149.765 391.511 152.62 391.261 153.606C391.022 154.547 391.268 156.282 391.27 157.286L391.289 166.041L391.368 206.884L391.292 253.366L351.64 252.994L350.664 91.0724Z"/>
	<path fill="#293034" transform="matrix(0.1 0 0 0.1 0 -7.62939e-06)" d="M618.613 41.0459L669.928 40.9504L667.997 265.627L616.527 265.157L618.613 41.0459Z"/>
	<path fill="#FCCB7C" transform="matrix(0.1 0 0 0.1 0 -7.62939e-06)" d="M624.041 51.4749L664.121 51.514L662.377 254.813L622.062 254.531L624.041 51.4749Z"/>
	<path fill="#293034" transform="matrix(0.1 0 0 0.1 0 -7.62939e-06)" d="M270.298 76.3728C284.805 75.2656 300.155 76.7903 312.701 84.7857C326.609 93.649 334.76 108.21 338.186 124.016C340.874 136.412 340.432 149.325 340.482 161.938C340.558 181.307 340.693 200.573 337.358 219.723C335.388 231.031 332.095 242.604 325.792 252.313C317.815 264.603 302.466 269.764 288.866 272.615L287.601 272.802C271.783 274.839 250.062 273.231 237.061 263.25C226.212 254.923 222.744 239.589 221.052 226.723C218.346 206.136 218.177 185.726 218.178 165.01C218.179 152.163 217.777 139.21 219.871 126.486C221.539 116.353 224.933 104.286 231.288 96.0706C241.179 83.2849 254.824 78.3653 270.298 76.3728ZM273.97 86.1576C259.735 87.3802 245.969 91.2736 236.41 102.591C232.568 107.139 229.736 113.004 228.141 118.725C224.216 132.81 224.286 148.165 224.175 162.698C224.041 180.292 224.408 197.897 225.945 215.432C226.985 227.308 229.035 245.081 238.662 253.131C249.665 262.334 269.615 264.446 283.586 263.087L284.3 263.009C297.377 261.451 312.637 256.504 321.04 245.648C323.743 242.155 325.557 237.648 327.072 233.536C335.226 211.408 334.036 186.193 334.101 162.964C334.129 152.931 334.838 142.568 333.43 132.613C331.384 118.155 324.852 104.956 313.015 96.0669C302.063 87.8423 287.369 85.5393 273.97 86.1576Z"/>
	<path fill="#FCCB7C" transform="matrix(0.1 0 0 0.1 0 -7.62939e-06)" d="M273.97 86.1576C287.369 85.5393 302.063 87.8423 313.015 96.0669C324.852 104.956 331.384 118.155 333.43 132.613C334.838 142.568 334.129 152.931 334.101 162.964C334.036 186.193 335.226 211.408 327.072 233.536C325.557 237.648 323.743 242.155 321.04 245.648C312.637 256.504 297.377 261.451 284.3 263.009L283.586 263.087C269.615 264.446 249.665 262.334 238.662 253.131C229.035 245.081 226.985 227.308 225.945 215.432C224.408 197.897 224.041 180.292 224.175 162.698C224.286 148.165 224.216 132.81 228.141 118.725C229.736 113.004 232.568 107.139 236.41 102.591C245.969 91.2736 259.735 87.3802 273.97 86.1576ZM273.177 104.552C268.826 106.248 266.579 107.883 264.664 112.239C262.11 118.05 262.075 124.233 261.72 130.455L261.021 160.447C260.856 175.595 260.266 190.834 261.556 205.956C262.355 215.317 263.422 225.452 266.887 234.243C268.54 238.435 271.306 244.028 275.71 245.904C278.014 246.886 279.921 246.727 282.317 246.396C288.389 242.492 290.253 236.175 291.716 229.45C294.041 218.758 294.476 207.656 294.719 196.749L293.966 149.396C293.611 140.763 293.833 132.112 292.238 123.582C291.387 119.036 289.86 114.67 287.338 110.774C285.286 107.602 282.92 105.507 279.112 104.647C277.289 104.235 275.035 104.394 273.177 104.552Z"/>
	<path fill="#293034" transform="matrix(0.1 0 0 0.1 0 -7.62939e-06)" d="M273.177 104.552C275.035 104.394 277.289 104.235 279.112 104.647C282.92 105.507 285.286 107.602 287.338 110.774C289.86 114.67 291.387 119.036 292.238 123.582C293.833 132.112 293.611 140.763 293.966 149.396L294.719 196.749C294.476 207.656 294.041 218.758 291.716 229.45C290.253 236.175 288.389 242.492 282.317 246.396C279.921 246.727 278.014 246.886 275.71 245.904C271.306 244.028 268.54 238.435 266.887 234.243C263.422 225.452 262.355 215.317 261.556 205.956C260.266 190.834 260.856 175.595 261.021 160.447L261.72 130.455C262.075 124.233 262.11 118.05 264.664 112.239C266.579 107.883 268.826 106.248 273.177 104.552ZM275.889 114.446C273.847 114.774 271.661 115.151 270.383 116.977C265.662 123.719 266.775 188.201 267.426 199.892C267.827 207.098 268.496 214.277 269.967 221.351C270.896 225.821 272.631 232.937 276.682 235.579C277.778 236.294 278.74 236.514 280.029 236.553C282.424 235.551 283.603 233.564 284.537 231.246C286.714 225.84 287.153 219.201 287.603 213.431C288.38 203.49 288.612 193.247 288.319 183.278C288.249 180.902 287.374 178.734 287.406 176.373C287.45 173.122 288.016 169.859 288.093 166.589L287.479 138.706C287.126 132.758 286.957 126.43 284.571 120.879C283.447 118.264 282.013 116.057 279.223 115.029C278.167 114.64 277.004 114.537 275.889 114.446Z"/>
	<path fill="#293034" transform="matrix(0.1 0 0 0.1 0 -7.62939e-06)" d="M737.093 74.9465C750.85 75.3124 765.07 77.4683 776.145 86.4174C790.401 97.9378 797.547 113.534 799.446 131.54C800.629 142.75 800.351 154.016 800.367 165.272C800.401 189.183 800.779 214.557 792.42 237.327C790.333 243.013 787.595 249.171 783.737 253.887C773.545 266.344 756.118 270.882 740.842 272.424C726.03 272.935 705.75 271.125 694.331 260.678C682.456 249.814 680.578 231.39 679.122 216.318L677.506 198.196L677.184 165.06C677.199 145.748 676.459 126.199 683.66 107.872C685.94 102.071 688.54 96.9288 692.771 92.3042C704.652 79.3182 720.195 75.6796 737.093 74.9465ZM733.151 85.1764C718.735 86.4643 704.876 90.4368 695.257 101.971C690.444 107.741 687.78 114.88 686.152 122.128C683.36 134.556 683.383 147.725 683.239 160.407C683.037 178.206 683.3 196.107 684.96 213.837C686.062 225.607 687.993 244.003 697.631 252.001C708.742 261.221 728.683 263.498 742.748 262.139L743.775 262.019C756.828 260.453 772.223 255.622 780.679 244.828C783.914 240.699 785.981 235.348 787.646 230.428C794.974 208.779 794.001 184.345 794.019 161.79C794.027 152.41 794.711 142.523 793.522 133.215C791.623 118.351 785.448 104.96 773.463 95.648C762.437 87.0818 746.905 84.2382 733.182 85.1694L733.151 85.1764Z"/>
	<path fill="#FCCB7C" transform="matrix(0.1 0 0 0.1 0 -7.62939e-06)" d="M733.151 85.1764L733.182 85.1694C746.905 84.2382 762.437 87.0818 773.463 95.648C785.448 104.96 791.623 118.351 793.522 133.215C794.711 142.523 794.027 152.41 794.019 161.79C794.001 184.345 794.974 208.779 787.646 230.428C785.981 235.348 783.914 240.699 780.679 244.828C772.223 255.622 756.828 260.453 743.775 262.019L742.748 262.139C728.683 263.498 708.742 261.221 697.631 252.001C687.993 244.003 686.062 225.607 684.96 213.837C683.3 196.107 683.037 178.206 683.239 160.407C683.383 147.725 683.36 134.556 686.152 122.128C687.78 114.88 690.444 107.741 695.257 101.971C704.876 90.4368 718.735 86.4643 733.151 85.1764ZM732.048 103.651C727.956 105.253 725.747 107.309 723.96 111.413C719.604 121.42 720.871 135.379 720.578 146.2C720.004 167.339 719.256 188.725 721.372 209.794C722.171 217.748 723.378 226.102 726.37 233.564C728.128 237.947 730.969 243.243 735.596 245.119C737.573 245.921 740.15 245.887 742.167 245.215C748.604 240.81 750.404 233.333 751.763 226.039C754.28 212.527 754.418 198.38 754.339 184.665L753.471 146.595C753.159 139.719 753.436 132.638 752.355 125.824C751.44 120.054 750.123 114.435 746.732 109.561C744.639 106.551 742.008 104.198 738.254 103.581C736.235 103.249 734.063 103.398 732.048 103.651Z"/>
	<path fill="#293034" transform="matrix(0.1 0 0 0.1 0 -7.62939e-06)" d="M732.048 103.651C734.063 103.398 736.235 103.249 738.254 103.581C742.008 104.198 744.639 106.551 746.732 109.561C750.123 114.435 751.44 120.054 752.355 125.824C753.436 132.638 753.159 139.719 753.471 146.595L754.339 184.665C754.418 198.38 754.28 212.527 751.763 226.039C750.404 233.333 748.604 240.81 742.167 245.215C740.15 245.887 737.573 245.921 735.596 245.119C730.969 243.243 728.128 237.947 726.37 233.564C723.378 226.102 722.171 217.748 721.372 209.794C719.256 188.725 720.004 167.339 720.578 146.2C720.871 135.379 719.604 121.42 723.96 111.413C725.747 107.309 727.956 105.253 732.048 103.651ZM735.101 113.396C733.002 113.853 730.849 114.271 729.629 116.247C726.006 122.113 726.917 139.408 726.739 146.403C726.29 164.055 725.658 181.77 726.775 199.411C727.278 207.362 728.033 215.554 730.076 223.27C731.12 227.211 732.799 232.67 736.543 234.815C737.581 235.409 738.817 235.607 739.99 235.408C742.611 233.935 743.947 230.899 744.737 228.102C747.245 219.219 747.483 209.476 747.675 200.301L747.878 182.219C747.801 180.032 746.943 177.916 746.933 175.779C746.918 172.535 747.479 169.21 747.55 165.931L746.912 136.711C746.499 130.37 746.245 123.5 743.04 117.819C741.9 115.8 740.14 114.409 737.883 113.851L735.101 113.396Z"/>
	<path fill="#293034" transform="matrix(0.1 0 0 0.1 0 -7.62939e-06)" d="M795.227 83.0442L843.397 83.0112C844.182 89.2276 844.021 95.7483 844.452 102.017L847.968 153.672L848.665 163.779C848.778 165.156 848.731 167.015 849.271 168.284L859.037 83.0714L905.8 83.0218L911.477 176.463C912.264 174.124 912.352 170.997 912.654 168.517L914.546 152.381L922.63 83.04C929.044 83.7211 935.608 83.4745 942.053 83.4679C948.942 83.4608 955.927 83.6631 962.792 83.0647C963.25 83.9946 962.828 85.8496 962.726 86.9021L961.178 100.279L956.264 148.844L944.149 268.696L888.347 268.081L880.477 203.519L871.82 268.016L818.23 267.491C816.853 263.575 817.019 257.701 816.544 253.48L813.169 225.595L795.227 83.0442Z"/>
	<path fill="#FCCB7C" transform="matrix(0.1 0 0 0.1 0 -7.62939e-06)" d="M890.375 91.5809L901.709 91.6247L910.217 224.908L926.174 91.7447C928.369 91.001 932.205 91.4851 934.574 91.4826L957.235 91.5706C957.614 92.9142 957.153 95.0267 957.026 96.4314L955.645 109.646L951.757 148.114L944.446 220.396L940.31 259.783L891.868 259.27L880.655 169.231L880.076 171.34L868.275 258.993L821.718 258.436L801.115 91.8802L839.324 91.7629L848.012 216.636L862.501 91.6724L890.375 91.5809Z"/>
	<path fill="#293034" transform="matrix(0.1 0 0 0.1 0 -7.62939e-06)" d="M607.84 39.3162C608.823 39.2066 609.059 39.1303 609.931 39.5604L610.065 79.0697C605.924 79.0673 602.012 79.4317 597.985 80.4244C601.631 81.0538 606.326 80.3082 610.059 80.1251L610.359 123.118L597.801 123.085L598.7 265.176L548.128 264.982L548.459 123.145L538.149 123.477L538.051 85.9792C537.927 86.0905 537.879 86.1191 537.786 86.2843C536.496 88.5829 535.694 92.6983 534.952 95.2529L529.059 115.677L520.872 144.148C519.804 147.854 517.674 152.845 517.517 156.581C517.41 159.142 518.649 162.404 519.255 164.902L523.357 182.143L543.307 265.077L535.522 264.688L493.193 264.763L483.378 224.699L482.987 264.755L432.68 264.375L434.016 40.7031L484.543 40.9547L483.88 118.842C485.305 115.369 485.977 111.379 486.93 107.742L494.157 80.1427L549.408 80.3291C549.63 80.3119 550.765 80.2922 550.901 80.1995C551.147 80.031 550.925 79.6021 550.937 79.3035L551.129 75.0677C551.568 66.2854 552.43 58.0008 558.408 51.0874C570.753 36.8111 591.277 40.5453 607.84 39.3162Z"/>
	<path fill="#FCCB7C" transform="matrix(0.1 0 0 0.1 0 -7.62939e-06)" d="M586.867 50.5089L604.575 50.4631L604.889 68.2368C600.921 68.955 596.233 69.3874 593.299 72.4618C588.492 77.4984 588.799 84.5219 588.982 90.9585L604.934 90.9991L604.979 112.49L592.464 112.46L593.076 254.44L578.715 254.348L553.621 254.102L554.002 112.438L543.768 112.529L543.55 90.981L556.639 90.9425C556.181 81.3077 554.718 68.2342 561.305 60.307C567.366 53.0128 578.008 51.3424 586.867 50.5089Z"/>
	<path fill="#FCCB7C" transform="matrix(0.1 0 0 0.1 0 -7.62939e-06)" d="M468.629 51.5263L478.973 51.5476L478.207 163.991L497.393 90.9656L529.935 90.999L516.754 137.077C514.995 143.192 512.467 149.663 511.282 155.87C511.11 156.77 511.266 157.485 511.578 158.336C512.758 161.557 513.382 165.241 514.19 168.587L518.653 187.047L534.524 253.995L522.217 253.995L505.287 253.993C502.468 253.99 499.325 254.299 496.573 253.787L478.415 180.135C477.88 182.669 478.104 185.476 478.093 188.059L478.054 201.876L477.69 253.85L438.093 253.602L439.343 51.7228L468.629 51.5263Z"/>
	<path fill="#293034" transform="matrix(0.1 0 0 0.1 0 -7.62939e-06)" d="M931.137 285.619L998.96 326.078L930.203 364.071L930.648 345.702L294.678 342.479L207.023 342.413L207.004 300.26L931.138 302.318L931.137 285.619Z"/>
	<path fill="#EC5F31" transform="matrix(0.1 0 0 0.1 0 -7.62939e-06)" d="M936.545 299.774L979.978 325.534L936.031 349.925L936.027 335.061L269.781 331.795L212.258 331.389L212.208 311.307L936.398 312.966L936.545 299.774Z"/>
	<path fill="#293034" transform="matrix(0.1 0 0 0.1 0 -7.62939e-06)" d="M13.6023 42.0337L72.0408 42.0256L79.1103 146.366C79.9125 144.293 79.9315 141.748 80.1722 139.548L81.6054 126.793L91.217 42.0715L148.049 42.0967C149.17 50.8473 149.055 59.7973 149.608 68.6036L153.305 127.473L154.307 144.209C154.54 148.061 154.597 151.973 155.526 155.733L169.093 42.1843L218.148 42.0895L210.165 119.112L195.183 268.19L127.069 267.647L117.54 189.101C116.574 192.14 116.326 195.548 115.891 198.71L113.765 214.344L106.878 267.355L41.4312 267.063L13.6023 42.0337Z"/>
	<path fill="#FCCB7C" transform="matrix(0.1 0 0 0.1 0 -7.62939e-06)" d="M95.6541 52.3874L143.13 52.3991L153.56 214.652C155.075 208.593 155.341 201.614 156.053 195.386L160.02 161.963L173.231 52.3504L211.285 52.3205L190.607 257.296C189.554 257.762 187.881 257.53 186.726 257.523L177.329 257.448L131.352 256.958L121.149 174.369L117.591 145.299L102.592 256.648L45.6763 255.974L20.7243 52.7621L67.2431 52.5873L77.6797 205.132L95.6541 52.3874Z"/>
</svg>
