<?xml version="1.0" encoding="utf-8" ?>
<svg xmlns="http://www.w3.org/2000/svg" xmlns:xlink="http://www.w3.org/1999/xlink" width="134" height="80">
	<path fill="#293034" transform="matrix(0.134 0 0 0.133333 0 -7.62939e-06)" d="M61.1173 26.7708L90.0203 71.1345L140.239 56.7557L107.29 96.8701C107.168 98.8017 132.201 135.657 135.509 140.733L101.185 126.951L87.1089 121.47L53.0635 163.222L56.5279 109.474L13.037 92.5097L58.4527 79.8567L61.1173 26.7708Z"/>
	<path fill="#F8FE01" transform="matrix(0.134 0 0 0.133333 0 -7.62939e-06)" d="M65.4131 44.4592C71.0359 51.4721 75.8045 59.8238 80.6702 67.3973C82.0925 69.6111 84.1664 73.9749 86.1382 75.4704L130.571 63.0359L101.113 98.9348L120.906 129.155L95.1772 119.12L87.2542 115.941L59.063 150.313L61.7231 105.848L27.2097 92.2046C29.4747 90.5784 34.6179 89.7563 37.354 88.9983L63.0614 81.8156L65.4131 44.4592Z"/>
	<path fill="#293034" transform="matrix(0.134 0 0 0.133333 0 -7.62939e-06)" d="M230.303 1.66203L249.76 54.5959C251.682 55.4042 256.846 54.7669 259.181 54.7575L293.643 54.5889C298.239 54.5417 303.37 53.76 307.886 54.2937L261.602 85.8556L281.495 137.924L238.192 107.971L233.567 104.96L200.231 127.838L190.514 134.652C189.208 135.546 187.567 137.003 186.032 137.402L203.586 84.3486L160.684 55.1378L213.085 54.9625L230.303 1.66203Z"/>
	<path fill="#F8FE01" transform="matrix(0.134 0 0 0.133333 0 -7.62939e-06)" d="M230.315 20.8034L244.246 58.0661L295.942 58.0587L254.879 86.0793L268.617 122.236L236.572 100.218L235.107 99.5642L195.699 126.558L210.134 82.183L175.57 58.3367L217.898 58.1626L230.315 20.8034Z"/>
	<path fill="#293034" transform="matrix(0.134 0 0 0.133333 0 -7.62939e-06)" d="M415.099 182.343L416.077 182.61L415.718 274.725C407.437 276.374 401.372 278.549 395.223 284.72C391.938 288.017 386.373 294.221 385.307 298.816C384.658 301.614 385.091 305.67 385.073 308.569L384.92 331.443L384.68 436.87C383.835 437.329 382.375 437.115 381.396 437.111L372.466 437.082L334.012 437.408L334.154 420.55L334.993 182.894L386.083 183.574L385.699 201.085C394.774 191.879 402.741 186.233 415.099 182.343Z"/>
	<path fill="#FCCB7C" transform="matrix(0.134 0 0 0.133333 0 -7.62939e-06)" d="M340.884 194.769L379.931 195.28L379.847 222.976C387.757 211.236 396.942 201.62 410.172 196.017L409.999 263.78C403.012 266.057 397.766 268.879 392.535 274.096C388.396 278.224 384.998 282.991 382.177 288.103C381.284 289.722 380.021 291.717 379.522 293.478C379.037 295.189 379.364 297.799 379.352 299.644L379.317 315.361L379.018 368.836L378.721 425.477L339.909 425.384L340.884 194.769Z"/>
	<path fill="#293034" transform="matrix(0.134 0 0 0.133333 0 -7.62939e-06)" d="M614.683 128.376L666.956 129.336L665.985 431.814L665.693 432.99L614.456 433.088L614.683 128.376Z"/>
	<path fill="#FCCB7C" transform="matrix(0.134 0 0 0.133333 0 -7.62939e-06)" d="M621.564 140.358L660.878 141.063L660.078 421.55L620.398 421.312L620.703 141.106L621.564 140.358Z"/>
	<path fill="#293034" transform="matrix(0.134 0 0 0.133333 0 -7.62939e-06)" d="M730.746 185.219C741.149 184.529 751.766 187.75 760.238 193.794C768.594 199.754 774.236 207.464 779.077 216.401C782.403 222.542 785.461 228.682 787.677 235.315C790.995 245.241 792.615 255.699 794.334 265.996C798.807 292.78 799.662 320.078 798.356 347.162C797.252 370.084 795.373 398.091 781.518 417.338C773.476 428.509 761.79 434.22 748.468 436.407L743.176 437.054C727.526 438.618 709.153 435.434 696.74 425.16C685.093 415.52 681.983 398.878 680.614 384.528C679.78 375.783 680.188 366.859 680.465 358.095L681.589 321.734L681.35 286.097C680.719 256.269 680.964 224.705 701.035 200.5C708.656 191.31 718.87 186.309 730.746 185.219ZM731.403 196.931C719.654 198.198 710.202 202.858 702.751 212.1C695.786 220.738 691.269 232.516 689.246 243.367C684.979 266.251 688.162 289.28 687.771 312.323L686.498 353.702C686.155 363.763 685.528 373.874 686.611 383.909C687.814 395.049 690.501 407.636 699.707 414.985C711.785 424.626 730.163 426.894 745.019 425.125L745.725 425.039C758.573 423.038 770.071 418.762 777.998 407.858C788.983 392.749 790.981 370.661 792.146 352.57C793.665 328.976 793.076 305.697 790.554 282.182C790.042 277.412 789.891 272.501 789.104 267.777C787.423 257.689 783.18 247.803 779.779 238.146C778.073 233.301 776.686 227.788 774.247 223.291C770.462 216.315 765.099 209.617 758.586 205.02C750.608 199.389 741.206 196.314 731.403 196.931Z"/>
	<path fill="#FCCB7C" transform="matrix(0.134 0 0 0.133333 0 -7.62939e-06)" d="M731.403 196.931C741.206 196.314 750.608 199.389 758.586 205.02C765.099 209.617 770.462 216.315 774.247 223.291C776.686 227.788 778.073 233.301 779.779 238.146C783.18 247.803 787.423 257.689 789.104 267.777C789.891 272.501 790.042 277.412 790.554 282.182C793.076 305.697 793.665 328.976 792.146 352.57C790.981 370.661 788.983 392.749 777.998 407.858C770.071 418.762 758.573 423.038 745.725 425.039L745.019 425.125C730.163 426.894 711.785 424.626 699.707 414.985C690.501 407.636 687.814 395.049 686.611 383.909C685.528 373.874 686.155 363.763 686.498 353.702L687.771 312.323C688.162 289.28 684.979 266.251 689.246 243.367C691.269 232.516 695.786 220.738 702.751 212.1C710.202 202.858 719.654 198.198 731.403 196.931ZM735.115 223.352C731.142 225.474 729.646 228.426 728.359 232.631C725.749 241.155 725.284 251.38 725.114 260.277C724.699 282.021 727.577 303.487 728.063 325.161L728.005 354.386C727.722 361.767 726.898 369.203 727.235 376.589C727.454 381.372 727.487 387.131 729.718 391.453C730.298 392.577 731.376 394.226 732.666 394.543C733.633 394.78 734.652 394.721 735.596 394.434C739.41 392.292 740.778 388.666 741.92 384.629C744.442 375.716 744.777 366.012 745.041 356.79L745.775 329.481C746.679 302.059 747.657 274.574 745.985 247.191C745.607 241.004 746.057 232.436 742.945 226.884C742.032 225.254 740.377 223.53 738.499 223.089C737.417 222.835 736.185 223.137 735.115 223.352Z"/>
	<path fill="#293034" transform="matrix(0.134 0 0 0.133333 0 -7.62939e-06)" d="M735.115 223.352C736.185 223.137 737.417 222.835 738.499 223.089C740.377 223.53 742.032 225.254 742.945 226.884C746.057 232.436 745.607 241.004 745.985 247.191C747.657 274.574 746.679 302.059 745.775 329.481L745.041 356.79C744.777 366.012 744.442 375.716 741.92 384.629C740.778 388.666 739.41 392.292 735.596 394.434C734.652 394.721 733.633 394.78 732.666 394.543C731.376 394.226 730.298 392.577 729.718 391.453C727.487 387.131 727.454 381.372 727.235 376.589C726.898 369.203 727.722 361.767 728.005 354.386L728.063 325.161C727.577 303.487 724.699 282.021 725.114 260.277C725.284 251.38 725.749 241.155 728.359 232.631C729.646 228.426 731.142 225.474 735.115 223.352ZM735.859 235.069C731.505 239.018 731.408 251 731.127 256.638C729.822 282.835 733.883 309.054 733.977 335.292L733.739 359.805C733.544 366.517 732.092 375.445 733.67 381.962L734.257 382.564L735.068 382.506C736.99 379.222 737.672 375.856 738.127 372.118C739.569 360.273 739.488 347.912 739.765 335.974L740.895 281.517C740.876 277.965 740.238 274.473 740.211 270.94L740.141 250.983C740.112 246.435 740.237 241.351 739.102 236.928C738.905 236.162 738.613 235.607 738.145 234.97C737.205 234.791 736.79 234.724 735.859 235.069Z"/>
	<path fill="#293034" transform="matrix(0.134 0 0 0.133333 0 -7.62939e-06)" d="M262.534 181.738C263.515 181.506 264.481 181.478 265.484 181.509C269.739 181.641 274.003 183.078 278.022 184.393C287.949 187.641 300.038 192.232 307.267 200.009C314.939 208.264 319.656 221.137 321.554 232.089C323.05 240.723 322.63 249.761 322.576 258.493L322.45 291.996L322.818 335.303L323.141 375.463C322.528 394.61 318.264 417.803 303.526 431.427C293.361 440.824 280.981 443.653 267.461 443.132C254.814 441.754 242.262 439.885 231.378 432.805C219.995 425.4 212.74 413.792 210.045 400.57C208.651 393.733 208.476 386.681 208.045 379.734L206.365 340.074L205.128 299.832C204.293 269.698 203.283 232.849 220.665 206.803C230.924 191.429 245.001 185.181 262.534 181.738ZM263.645 193.527C249.809 195.165 236.322 200.807 227.518 212.051C219.58 222.187 215.231 234.306 212.944 246.866C208.505 271.251 211.173 296.834 211.758 321.441L213.349 367.443C213.75 375.589 213.875 383.803 214.932 391.897C216.425 403.324 221.219 412.761 230.476 419.807C240.52 427.451 253.987 430.637 266.407 431.062C279.945 431.141 291.694 430.055 301.918 419.93C315.857 406.127 317.636 383.013 317.669 364.492L316.539 298.15L316.707 252.092C316.585 246.699 316.819 240.84 315.894 235.523C314.288 226.285 310.472 216.612 303.78 209.907C299.225 205.344 293.549 202.282 287.63 199.864C285.824 199.126 283.411 197.994 281.464 197.966C280.898 197.958 280.559 198.068 280.029 198.252C275.285 195.772 269.179 192.783 263.645 193.527Z"/>
	<path fill="#FCCB7C" transform="matrix(0.134 0 0 0.133333 0 -7.62939e-06)" d="M263.645 193.527C269.179 192.783 275.285 195.772 280.029 198.252C280.559 198.068 280.898 197.958 281.464 197.966C283.411 197.994 285.824 199.126 287.63 199.864C293.549 202.282 299.225 205.344 303.78 209.907C310.472 216.612 314.288 226.285 315.894 235.523C316.819 240.84 316.585 246.699 316.707 252.092L316.539 298.15L317.669 364.492C317.636 383.013 315.857 406.127 301.918 419.93C291.694 430.055 279.945 431.141 266.407 431.062C253.987 430.637 240.52 427.451 230.476 419.807C221.219 412.761 216.425 403.324 214.932 391.897C213.875 383.803 213.75 375.589 213.349 367.443L211.758 321.441C211.173 296.834 208.505 271.251 212.944 246.866C215.231 234.306 219.58 222.187 227.518 212.051C236.322 200.807 249.809 195.165 263.645 193.527ZM263.215 224.598C259.94 226.215 258.185 227.918 256.95 231.408C254.509 238.301 254.648 246.518 254.151 253.761C252.066 284.139 252.458 314.575 252.696 345.003C252.774 354.972 252.132 365.576 253.119 375.48C253.578 380.09 254.511 384.508 256.603 388.679C258.004 391.471 260.388 396.191 263.623 397.212C264.813 397.587 266.296 397.413 267.529 397.335C272.231 395 273.966 392.183 275.601 387.255C278.101 379.719 278.229 370.858 278.353 362.985L278.438 336.33L277.816 279.088L277.011 266.208C276.78 259.638 277.242 252.983 276.586 246.438C276.046 241.051 275.18 234.846 272.624 229.982C271.412 227.675 269.347 225.585 266.784 224.883C265.592 224.556 264.439 224.531 263.215 224.598Z"/>
	<path fill="#293034" transform="matrix(0.134 0 0 0.133333 0 -7.62939e-06)" d="M263.215 224.598C264.439 224.531 265.592 224.556 266.784 224.883C269.347 225.585 271.412 227.675 272.624 229.982C275.18 234.846 276.046 241.051 276.586 246.438C277.242 252.983 276.78 259.638 277.011 266.208L277.816 279.088L278.438 336.33L278.353 362.985C278.229 370.858 278.101 379.719 275.601 387.255C273.966 392.183 272.231 395 267.529 397.335C266.296 397.413 264.813 397.587 263.623 397.212C260.388 396.191 258.004 391.471 256.603 388.679C254.511 384.508 253.578 380.09 253.119 375.48C252.132 365.576 252.774 354.972 252.696 345.003C252.458 314.575 252.066 284.139 254.151 253.761C254.648 246.518 254.509 238.301 256.95 231.408C258.185 227.918 259.94 226.215 263.215 224.598ZM263.606 236.534C262.106 237.565 261.723 238.126 261.395 239.951C259.849 248.546 259.666 257.853 259.223 266.558L258.465 336.648L258.586 359.588C258.619 364.848 258.445 370.246 259.207 375.462C259.632 378.366 260.954 381.653 262.763 383.971C263.653 385.112 264.695 385.658 266.113 385.837L267.822 385.172C270.12 382.695 271.005 379.685 271.565 376.402C273.599 364.487 272.588 351.741 272.51 339.695L272.155 298.926C272.022 295.538 271.094 292.226 271.043 288.902C270.923 280.94 273.342 242.66 267.847 237.653C266.764 236.667 265.449 236.328 264.016 236.477L263.606 236.534Z"/>
	<path fill="#293034" transform="matrix(0.134 0 0 0.133333 0 -7.62939e-06)" d="M881.982 441.375L983.275 511.318L882.43 576.692C881.824 575.256 882.249 572.308 882.258 570.625L882.322 553.036L665.894 552.92L544.599 553.161L542.365 483.834L882.229 483.838L881.982 441.375Z"/>
	<path fill="#EC5E31" transform="matrix(0.134 0 0 0.133333 0 -7.62939e-06)" d="M887.502 455.351L968.087 511.322L887.844 563.117L887.77 543.872L647.217 543.893L549.865 543.919L548.403 493.049L887.596 493.015L887.502 455.351Z"/>
	<path fill="#293034" transform="matrix(0.134 0 0 0.133333 0 -7.62939e-06)" d="M792.423 185.177L834.039 185.489L848.579 279.644L862.523 185.874L889.237 185.958C892.732 185.95 897.714 185.259 900.94 186.161L908.628 277.858L920.627 186.008L966.605 186.038C967.122 187.64 966.344 191.057 966.156 192.809L964.597 209.159L955.214 318.189L945.716 434.106L890.213 433.675L882.33 353.222L870.471 433.537L819.896 433.096C819.282 431.885 819.323 430.221 819.191 428.881L818.328 419.481L813.745 376.743L792.423 185.177Z"/>
	<path fill="#FCCB7C" transform="matrix(0.134 0 0 0.133333 0 -7.62939e-06)" d="M799.98 197.136L829.37 197.259C829.987 197.97 830.036 199.858 830.187 200.832L831.972 212.479L842.964 284.712L846.254 306.646C846.86 310.518 847.219 314.573 848.322 318.34L848.529 318.34L867.091 197.354L895.923 197.531L906.917 331.297C908.636 326.329 908.84 319.888 909.531 314.627L913.33 286.226L925.223 197.709L959.493 198.019L952.819 276.693L940.332 422.355L895.098 422.032L883.336 304.79L865.938 421.761L824.495 421.155L799.98 197.136Z"/>
	<path fill="#293034" transform="matrix(0.134 0 0 0.133333 0 -7.62939e-06)" d="M33.6115 185.761C37.6669 184.982 42.8418 185.814 47.019 185.854L78.8989 185.943L88.3365 280.563C89.1841 279.766 101.148 194.68 102.443 186.013L139.61 185.967L148.218 283.511L158.824 186.073L205.807 186.081L194.005 311.896L182.702 437.056L129.064 435.95C127.297 429.483 127.212 422.123 126.259 415.462L118.102 356.167C117.41 356.84 110.66 429.745 109.955 435.502C103.894 434.702 97.4737 434.854 91.3592 434.727L58.8834 434.471C58.0347 429.1 57.7967 423.64 57.267 418.23L53.9077 384.426L40.5498 253.318L35.5803 205.278L33.9879 191.895C33.7786 189.907 33.3333 187.738 33.6115 185.761Z"/>
	<path fill="#FCCB7C" transform="matrix(0.134 0 0 0.133333 0 -7.62939e-06)" d="M40.9584 197.371L73.8464 197.472L87.4127 328.74L107.084 197.566L134.597 197.727L147.447 342.321L163.712 197.765L198.286 197.94L192.58 261.472L177.607 425.035L133.392 424.088L122.413 344.182L119.475 322.501C118.932 318.445 118.652 314.202 117.602 310.252L117.119 310.496C115.603 314.306 115.68 319.387 115.297 323.492L113.228 345.015L105.119 423.565L63.676 422.563L40.9584 197.371Z"/>
	<path fill="#293034" transform="matrix(0.134 0 0 0.133333 0 -7.62939e-06)" d="M423.994 129.388L476.849 129.528L476.189 236.972L490.459 186.077L518.556 186.749C522.46 186.798 529.22 185.959 532.792 187.225C532.444 188.425 531.993 189.526 532.265 190.78L544.246 191.317L544.025 147.313C544.175 145.799 547.357 143.022 548.597 142.057C554.628 137.366 562.724 135.728 570.079 134.476C582.808 132.31 595.16 131.537 608.012 132.96L607.988 180.304C606.948 180.927 604.464 180.668 603.192 180.724C600.414 180.846 597.797 181.3 595.361 182.73C591.936 184.74 591.319 187.561 590.412 191.167L607.72 190.898C608.635 192.641 607.913 234.432 607.956 240.118L590.638 239.852L591.647 395.118C591.686 399.603 592.572 431.997 591.852 433.063L543.857 433.006L544.097 344.793L544.221 240.233L525.521 240.548L516.459 275.63L513.504 286.914C513.078 288.591 512.314 290.711 512.233 292.42C512.034 296.615 513.74 301.989 514.538 306.199L518.998 330.601L533.603 410.71L538.596 437.01L486.095 436.828L478.775 394.108C477.79 388.396 477.264 381.85 475.392 376.404L475.057 436.539C474.162 436.93 472.602 436.607 471.604 436.548L464.41 436.37L423.41 436.29L423.994 129.388Z"/>
	<path fill="#FCCB7C" transform="matrix(0.134 0 0 0.133333 0 -7.62939e-06)" d="M585.795 144.223C590.821 143.351 597.007 143.996 602.126 144.159C602.129 146.468 602.156 168.841 602.155 168.843C601.992 169.04 597.172 170.025 596.485 170.266C594.229 171.058 591.87 172.34 590.249 174.127C586.542 178.214 584.134 186.452 584.087 191.804C584.055 195.389 584.747 199.19 584.941 202.805L602.048 202.937L602.052 228.103L585.003 228.219L586.042 421.147L570.646 420.983L549.644 420.92L549.855 228.56L534.219 228.662L534.137 214.104C534.139 210.663 533.946 207.189 534.775 203.824C534.924 203.68 535.497 203.024 535.645 202.985C536.697 202.71 538.592 202.943 539.722 202.927L549.899 202.783C549.902 197.569 549.55 154.67 550.273 153.836C551.623 152.279 554.088 151.026 555.913 150.128C564.751 145.778 576.092 145.058 585.795 144.223Z"/>
	<path fill="#FCCB7C" transform="matrix(0.134 0 0 0.133333 0 -7.62939e-06)" d="M429.99 141.228L470.662 141.188L470.387 279.866L493.893 197.98L528.528 198.578C528.479 206.748 525.55 214.993 523.514 222.895L511.632 268.635C509.75 275.8 506.995 283.45 505.912 290.719C505.327 294.642 507.514 301.276 508.277 305.252L513.781 334.717L530.249 425.06L516.479 425.042L490.322 424.936L469.944 307.663L469.253 424.756L429.443 424.309L429.99 141.228Z"/>
</svg>
